M48
;DRILL file {kicad (2014-12-04 BZR 5312)-product} date Ut 21. apríl 2015, 11:04:02 CEST
;FORMAT={-:-/ absolute / inch / decimal}
FMAT,2
INCH,TZ
T1C0.008
T2C0.016
%
G90
G05
M72
T1
X6.6563Y-4.1315
X6.6591Y-4.8386
X6.6944Y-4.7271
X6.7911Y-4.1172
X6.8953Y-4.2267
X6.9021Y-4.1584
X6.9804Y-4.6969
X6.9821Y-4.1637
X7.0879Y-4.1585
X7.0932Y-4.849
X7.0949Y-4.6304
X7.2438Y-4.6252
X7.3025Y-4.6871
X7.3047Y-4.1601
X7.373Y-4.4192
X7.3734Y-4.4825
X7.3986Y-4.4628
X7.4171Y-4.1613
X7.466Y-4.5567
X7.5585Y-4.8389
X7.6382Y-4.1284
X7.6773Y-4.0206
T2
X6.6631Y-4.4341
X6.6972Y-4.6287
X6.7187Y-4.2735
X6.7882Y-4.4513
X6.7931Y-4.8855
X6.8029Y-3.9755
X6.8537Y-4.5371
X6.8548Y-4.4708
X6.8606Y-4.3914
X6.887Y-4.0087
X6.8959Y-4.7678
X7.0073Y-4.2984
X7.0346Y-4.1423
X7.0605Y-4.5507
X7.0699Y-4.5085
X7.1004Y-4.3088
X7.1434Y-4.3964
X7.1896Y-4.4928
X7.3038Y-4.3813
X7.3542Y-4.1457
X7.3656Y-4.587
X7.4591Y-4.3163
X7.473Y-4.5136
X7.6302Y-4.572
X7.6582Y-4.2789
X7.6772Y-4.7182
T0
M30
