G04 #@! TF.FileFunction,Soldermask,Top*
%FSLAX46Y46*%
G04 Gerber Fmt 4.6, Leading zero omitted, Abs format (unit mm)*
G04 Created by KiCad (PCBNEW (2014-12-04 BZR 5312)-product) date Ut 21. apríl 2015, 11:03:53 CEST*
%MOMM*%
G01*
G04 APERTURE LIST*
%ADD10C,0.100000*%
%ADD11R,1.300000X0.700000*%
%ADD12R,0.400000X1.100000*%
%ADD13R,0.480000X0.900000*%
%ADD14O,0.225000X0.600000*%
%ADD15R,0.225000X0.600000*%
%ADD16R,1.250000X1.000000*%
%ADD17R,0.700000X1.300000*%
G04 APERTURE END LIST*
D10*
D11*
X183753000Y-106655400D03*
X183753000Y-104755400D03*
D12*
X188575000Y-109650000D03*
X187925000Y-109650000D03*
X187275000Y-109650000D03*
X186625000Y-109650000D03*
X185975000Y-109650000D03*
X185325000Y-109650000D03*
X184675000Y-109650000D03*
X184025000Y-109650000D03*
X183375000Y-109650000D03*
X182725000Y-109650000D03*
X182075000Y-109650000D03*
X181425000Y-109650000D03*
X181425000Y-115350000D03*
X182075000Y-115350000D03*
X182725000Y-115350000D03*
X183375000Y-115350000D03*
X184025000Y-115350000D03*
X184675000Y-115350000D03*
X185325000Y-115350000D03*
X185975000Y-115350000D03*
X186625000Y-115350000D03*
X187275000Y-115350000D03*
X187925000Y-115350000D03*
X188575000Y-115350000D03*
D13*
X170129200Y-110730440D03*
X169179200Y-113480440D03*
X171079200Y-113480440D03*
D14*
X169532400Y-105938360D03*
D15*
X169932400Y-105938360D03*
X170332400Y-105938360D03*
X170732400Y-105938360D03*
X171132400Y-105938360D03*
X171132400Y-104038360D03*
X170732400Y-104038360D03*
X170332400Y-104038360D03*
X169932400Y-104038360D03*
X169532400Y-104038360D03*
D14*
X194424200Y-119037060D03*
D15*
X194024200Y-119037060D03*
X193624200Y-119037060D03*
X193224200Y-119037060D03*
X192824200Y-119037060D03*
X192824200Y-120937060D03*
X193224200Y-120937060D03*
X193624200Y-120937060D03*
X194024200Y-120937060D03*
X194424200Y-120937060D03*
D16*
X169623740Y-107295440D03*
X169623740Y-109295440D03*
X171632880Y-107308140D03*
X171632880Y-109308140D03*
X194851020Y-117809520D03*
X194851020Y-115809520D03*
X192768220Y-117809520D03*
X192768220Y-115809520D03*
X179562000Y-113538000D03*
X179562000Y-111538000D03*
X177530000Y-113538000D03*
X177530000Y-111538000D03*
X175498000Y-113538000D03*
X175498000Y-111538000D03*
D11*
X189849000Y-104755400D03*
X189849000Y-106655400D03*
X185785000Y-106655400D03*
X185785000Y-104755400D03*
X187817000Y-104755400D03*
X187817000Y-106655400D03*
X181721000Y-106655400D03*
X181721000Y-104755400D03*
X179689000Y-106655400D03*
X179689000Y-104755400D03*
X177657000Y-106655400D03*
X177657000Y-104755400D03*
X175625000Y-106655400D03*
X175625000Y-104755400D03*
X190500000Y-113450000D03*
X190500000Y-111550000D03*
X175167800Y-118319000D03*
X175167800Y-120219000D03*
X177199800Y-118319000D03*
X177199800Y-120219000D03*
X179231800Y-118319000D03*
X179231800Y-120219000D03*
X192500000Y-113450000D03*
X192500000Y-111550000D03*
X181263800Y-118319000D03*
X181263800Y-120219000D03*
X194500000Y-113450000D03*
X194500000Y-111550000D03*
X183295800Y-118319000D03*
X183295800Y-120219000D03*
X185327800Y-118319000D03*
X185327800Y-120219000D03*
D17*
X169186820Y-115262660D03*
X171086820Y-115262660D03*
D11*
X187359800Y-118319000D03*
X187359800Y-120219000D03*
X189391800Y-118319000D03*
X189391800Y-120219000D03*
M02*
