G04 #@! TF.FileFunction,Soldermask,Bot*
%FSLAX46Y46*%
G04 Gerber Fmt 4.6, Leading zero omitted, Abs format (unit mm)*
G04 Created by KiCad (PCBNEW (2014-12-04 BZR 5312)-product) date Ut 21. apríl 2015, 11:03:53 CEST*
%MOMM*%
G01*
G04 APERTURE LIST*
%ADD10C,0.100000*%
%ADD11R,1.300000X0.700000*%
%ADD12R,1.198880X1.198880*%
%ADD13R,0.650000X0.250000*%
%ADD14R,0.800000X0.700000*%
%ADD15O,0.720000X0.600000*%
%ADD16R,0.720000X0.600000*%
%ADD17R,1.000000X1.250000*%
G04 APERTURE END LIST*
D10*
D11*
X190500000Y-108450000D03*
X190500000Y-106550000D03*
D12*
X173601380Y-105031540D03*
X173601380Y-102933500D03*
X181140100Y-105031540D03*
X181140100Y-102933500D03*
X183000000Y-105049020D03*
X183000000Y-102950980D03*
X190500000Y-105049020D03*
X190500000Y-102950980D03*
X190500000Y-119950980D03*
X190500000Y-122049020D03*
X173500000Y-119950980D03*
X173500000Y-122049020D03*
X182920640Y-119923560D03*
X182920640Y-122021600D03*
X181119780Y-119913400D03*
X181119780Y-122011440D03*
D13*
X170537500Y-114750000D03*
X170537500Y-114250000D03*
X170537500Y-113750000D03*
X170537500Y-113250000D03*
X170537500Y-112750000D03*
X170537500Y-112250000D03*
X170537500Y-111750000D03*
X170537500Y-111250000D03*
X170537500Y-110750000D03*
X170537500Y-110250000D03*
D14*
X168462500Y-115600000D03*
X168462500Y-109400000D03*
D15*
X195000000Y-103000000D03*
D16*
X194000000Y-103000000D03*
X193000000Y-103000000D03*
X192000000Y-103000000D03*
X192000000Y-104000000D03*
X193000000Y-104000000D03*
X194000000Y-104000000D03*
X195000000Y-104000000D03*
D15*
X187500000Y-103000000D03*
D16*
X186500000Y-103000000D03*
X185500000Y-103000000D03*
X184500000Y-103000000D03*
X184500000Y-104000000D03*
X185500000Y-104000000D03*
X186500000Y-104000000D03*
X187500000Y-104000000D03*
D15*
X179500000Y-103000000D03*
D16*
X178500000Y-103000000D03*
X177500000Y-103000000D03*
X176500000Y-103000000D03*
X176500000Y-104000000D03*
X177500000Y-104000000D03*
X178500000Y-104000000D03*
X179500000Y-104000000D03*
D15*
X172000000Y-103000000D03*
D16*
X171000000Y-103000000D03*
X170000000Y-103000000D03*
X169000000Y-103000000D03*
X169000000Y-104000000D03*
X170000000Y-104000000D03*
X171000000Y-104000000D03*
X172000000Y-104000000D03*
D15*
X184500000Y-122000000D03*
D16*
X185500000Y-122000000D03*
X186500000Y-122000000D03*
X187500000Y-122000000D03*
X187500000Y-121000000D03*
X186500000Y-121000000D03*
X185500000Y-121000000D03*
X184500000Y-121000000D03*
D15*
X169000000Y-122000000D03*
D16*
X170000000Y-122000000D03*
X171000000Y-122000000D03*
X172000000Y-122000000D03*
X172000000Y-121000000D03*
X171000000Y-121000000D03*
X170000000Y-121000000D03*
X169000000Y-121000000D03*
D15*
X192000000Y-122000000D03*
D16*
X193000000Y-122000000D03*
X194000000Y-122000000D03*
X195000000Y-122000000D03*
X195000000Y-121000000D03*
X194000000Y-121000000D03*
X193000000Y-121000000D03*
X192000000Y-121000000D03*
D15*
X176500000Y-122000000D03*
D16*
X177500000Y-122000000D03*
X178500000Y-122000000D03*
X179500000Y-122000000D03*
X179500000Y-121000000D03*
X178500000Y-121000000D03*
X177500000Y-121000000D03*
X176500000Y-121000000D03*
D17*
X169000000Y-107500000D03*
X171000000Y-107500000D03*
X176500000Y-107500000D03*
X178500000Y-107500000D03*
X185000000Y-107500000D03*
X187000000Y-107500000D03*
X192500000Y-107500000D03*
X194500000Y-107500000D03*
X185000000Y-117500000D03*
X187000000Y-117500000D03*
X169000000Y-117500000D03*
X171000000Y-117500000D03*
X176500000Y-117500000D03*
X178500000Y-117500000D03*
X192500000Y-117500000D03*
X194500000Y-117500000D03*
D11*
X173500000Y-108450000D03*
X173500000Y-106550000D03*
X181000000Y-108450000D03*
X181000000Y-106550000D03*
X183000000Y-108450000D03*
X183000000Y-106550000D03*
X190500000Y-116550000D03*
X190500000Y-118450000D03*
X173500000Y-116550000D03*
X173500000Y-118450000D03*
X183000000Y-116550000D03*
X183000000Y-118450000D03*
X181000000Y-116550000D03*
X181000000Y-118450000D03*
M02*
