G04 #@! TF.FileFunction,Copper,L1,Top,Signal*
%FSLAX46Y46*%
G04 Gerber Fmt 4.6, Leading zero omitted, Abs format (unit mm)*
G04 Created by KiCad (PCBNEW (2014-12-04 BZR 5312)-product) date Ut 21. apríl 2015, 11:03:53 CEST*
%MOMM*%
G01*
G04 APERTURE LIST*
%ADD10C,0.100000*%
%ADD11R,1.300000X0.700000*%
%ADD12R,0.400000X1.100000*%
%ADD13R,0.480000X0.900000*%
%ADD14O,0.225000X0.600000*%
%ADD15R,0.225000X0.600000*%
%ADD16R,1.250000X1.000000*%
%ADD17R,0.700000X1.300000*%
%ADD18C,0.812800*%
%ADD19C,0.609600*%
%ADD20C,0.203200*%
%ADD21C,0.406400*%
%ADD22C,0.254000*%
G04 APERTURE END LIST*
D10*
D11*
X183753000Y-106655400D03*
X183753000Y-104755400D03*
D12*
X188575000Y-109650000D03*
X187925000Y-109650000D03*
X187275000Y-109650000D03*
X186625000Y-109650000D03*
X185975000Y-109650000D03*
X185325000Y-109650000D03*
X184675000Y-109650000D03*
X184025000Y-109650000D03*
X183375000Y-109650000D03*
X182725000Y-109650000D03*
X182075000Y-109650000D03*
X181425000Y-109650000D03*
X181425000Y-115350000D03*
X182075000Y-115350000D03*
X182725000Y-115350000D03*
X183375000Y-115350000D03*
X184025000Y-115350000D03*
X184675000Y-115350000D03*
X185325000Y-115350000D03*
X185975000Y-115350000D03*
X186625000Y-115350000D03*
X187275000Y-115350000D03*
X187925000Y-115350000D03*
X188575000Y-115350000D03*
D13*
X170129200Y-110730440D03*
X169179200Y-113480440D03*
X171079200Y-113480440D03*
D14*
X169532400Y-105938360D03*
D15*
X169932400Y-105938360D03*
X170332400Y-105938360D03*
X170732400Y-105938360D03*
X171132400Y-105938360D03*
X171132400Y-104038360D03*
X170732400Y-104038360D03*
X170332400Y-104038360D03*
X169932400Y-104038360D03*
X169532400Y-104038360D03*
D14*
X194424200Y-119037060D03*
D15*
X194024200Y-119037060D03*
X193624200Y-119037060D03*
X193224200Y-119037060D03*
X192824200Y-119037060D03*
X192824200Y-120937060D03*
X193224200Y-120937060D03*
X193624200Y-120937060D03*
X194024200Y-120937060D03*
X194424200Y-120937060D03*
D16*
X169623740Y-107295440D03*
X169623740Y-109295440D03*
X171632880Y-107308140D03*
X171632880Y-109308140D03*
X194851020Y-117809520D03*
X194851020Y-115809520D03*
X192768220Y-117809520D03*
X192768220Y-115809520D03*
X179562000Y-113538000D03*
X179562000Y-111538000D03*
X177530000Y-113538000D03*
X177530000Y-111538000D03*
X175498000Y-113538000D03*
X175498000Y-111538000D03*
D11*
X189849000Y-104755400D03*
X189849000Y-106655400D03*
X185785000Y-106655400D03*
X185785000Y-104755400D03*
X187817000Y-104755400D03*
X187817000Y-106655400D03*
X181721000Y-106655400D03*
X181721000Y-104755400D03*
X179689000Y-106655400D03*
X179689000Y-104755400D03*
X177657000Y-106655400D03*
X177657000Y-104755400D03*
X175625000Y-106655400D03*
X175625000Y-104755400D03*
X190500000Y-113450000D03*
X190500000Y-111550000D03*
X175167800Y-118319000D03*
X175167800Y-120219000D03*
X177199800Y-118319000D03*
X177199800Y-120219000D03*
X179231800Y-118319000D03*
X179231800Y-120219000D03*
X192500000Y-113450000D03*
X192500000Y-111550000D03*
X181263800Y-118319000D03*
X181263800Y-120219000D03*
X194500000Y-113450000D03*
X194500000Y-111550000D03*
X183295800Y-118319000D03*
X183295800Y-120219000D03*
X185327800Y-118319000D03*
X185327800Y-120219000D03*
D17*
X169186820Y-115262660D03*
X171086820Y-115262660D03*
D11*
X187359800Y-118319000D03*
X187359800Y-120219000D03*
X189391800Y-118319000D03*
X189391800Y-120219000D03*
D18*
X172419577Y-113062810D03*
X174259240Y-111541560D03*
X181442360Y-111668560D03*
X189461140Y-109634020D03*
X194518280Y-108684060D03*
X180350759Y-109443501D03*
X177985420Y-109179360D03*
X170109602Y-117568980D03*
X179336700Y-115587780D03*
X185516520Y-111285020D03*
X187085194Y-116509601D03*
X193807661Y-116128216D03*
X170654980Y-108546900D03*
X182615840Y-114117120D03*
X174083980Y-115242340D03*
X174111920Y-113558320D03*
X179575460Y-114515900D03*
X175155860Y-121102120D03*
X189814200Y-114645440D03*
X186795880Y-105300871D03*
X178679004Y-105215436D03*
X174929800Y-101820980D03*
X195000000Y-119841325D03*
D19*
X172493938Y-104576880D03*
X169070030Y-104939505D03*
D18*
X172544740Y-124091700D03*
X172793660Y-100977700D03*
D19*
X187283487Y-113854946D03*
X187924440Y-113355120D03*
X187273516Y-112246955D03*
D18*
X169243229Y-112626140D03*
D19*
X195003420Y-102123240D03*
X188394340Y-105697020D03*
X185539380Y-105666540D03*
X194010280Y-104861360D03*
X180032648Y-105625900D03*
X177346535Y-105757702D03*
X175313310Y-105623360D03*
X175140620Y-107358180D03*
X169141629Y-122900440D03*
X170037760Y-120068340D03*
X191985900Y-122908060D03*
X189636326Y-115739121D03*
X183991998Y-117480080D03*
X185484181Y-119053021D03*
X180167280Y-123164600D03*
X180211209Y-117611326D03*
X177302160Y-119301260D03*
D20*
X169532400Y-105938360D02*
X169532400Y-107204100D01*
X169532400Y-107204100D02*
X169623740Y-107295440D01*
D21*
X171632880Y-109308140D02*
X172978320Y-109308140D01*
X172978320Y-109308140D02*
X174259240Y-110589060D01*
X174259240Y-110589060D02*
X174259240Y-111541560D01*
D20*
X169532400Y-104038360D02*
X169532400Y-104429660D01*
X170942000Y-105150920D02*
X171132400Y-105341320D01*
X169532400Y-104429660D02*
X170253660Y-105150920D01*
X171132400Y-105341320D02*
X171132400Y-105938360D01*
X170253660Y-105150920D02*
X170942000Y-105150920D01*
X192824200Y-119037060D02*
X192824200Y-119506762D01*
X192824200Y-119506762D02*
X193327358Y-120009920D01*
X193327358Y-120009920D02*
X194000260Y-120009920D01*
X194000260Y-120009920D02*
X194424200Y-120433860D01*
X194424200Y-120433860D02*
X194424200Y-120937060D01*
D21*
X174262800Y-111538000D02*
X174259240Y-111541560D01*
X175498000Y-111538000D02*
X174262800Y-111538000D01*
D22*
X173940827Y-111541560D02*
X172419577Y-113062810D01*
X174259240Y-111541560D02*
X173940827Y-111541560D01*
D21*
X175498000Y-111538000D02*
X177530000Y-111538000D01*
X177530000Y-111538000D02*
X179562000Y-111538000D01*
X172001947Y-113480440D02*
X172419577Y-113062810D01*
X171079200Y-113480440D02*
X172001947Y-113480440D01*
X171086820Y-113488060D02*
X171079200Y-113480440D01*
X171086820Y-115262660D02*
X171086820Y-113488060D01*
X181311800Y-111538000D02*
X181442360Y-111668560D01*
X179562000Y-111538000D02*
X181311800Y-111538000D01*
X188590980Y-109634020D02*
X188575000Y-109650000D01*
X189461140Y-109634020D02*
X188590980Y-109634020D01*
X188575000Y-109650000D02*
X187925000Y-109650000D01*
X193568320Y-109634020D02*
X194518280Y-108684060D01*
X189461140Y-109634020D02*
X193568320Y-109634020D01*
X181218501Y-109443501D02*
X181425000Y-109650000D01*
X180350759Y-109443501D02*
X181218501Y-109443501D01*
X180086618Y-109179360D02*
X180350759Y-109443501D01*
X177985420Y-109179360D02*
X180086618Y-109179360D01*
X171620180Y-109295440D02*
X171632880Y-109308140D01*
X171086820Y-116591762D02*
X170109602Y-117568980D01*
X171086820Y-115262660D02*
X171086820Y-116591762D01*
X181442360Y-113851946D02*
X181442360Y-112243296D01*
X181442360Y-112243296D02*
X181442360Y-111668560D01*
X179706526Y-115587780D02*
X181442360Y-113851946D01*
X179336700Y-115587780D02*
X179706526Y-115587780D01*
X186625000Y-114393600D02*
X186625000Y-115350000D01*
X186625000Y-114249037D02*
X186625000Y-114393600D01*
X185516520Y-113140557D02*
X186625000Y-114249037D01*
X185516520Y-111285020D02*
X185516520Y-113140557D01*
X195556401Y-109722181D02*
X195556401Y-114282959D01*
X194518280Y-108684060D02*
X195556401Y-109722181D01*
X194851020Y-114903120D02*
X194851020Y-115809520D01*
X195471181Y-114282959D02*
X194851020Y-114903120D01*
X195556401Y-114282959D02*
X195471181Y-114282959D01*
X194851020Y-115809520D02*
X192768220Y-115809520D01*
X186625000Y-116049407D02*
X187085194Y-116509601D01*
X186625000Y-115350000D02*
X186625000Y-116049407D01*
X194126357Y-115809520D02*
X193807661Y-116128216D01*
X194851020Y-115809520D02*
X194126357Y-115809520D01*
D20*
X191940020Y-115809520D02*
X192768220Y-115809520D01*
X191673480Y-116076060D02*
X191940020Y-115809520D01*
X191673480Y-119206590D02*
X191673480Y-116076060D01*
X191668410Y-119211660D02*
X191673480Y-119206590D01*
X192466670Y-120009920D02*
X191668410Y-119211660D01*
X193327358Y-120009920D02*
X192466670Y-120009920D01*
X171632880Y-108604940D02*
X171632880Y-109308140D01*
X171756960Y-108480860D02*
X171632880Y-108604940D01*
X172918120Y-106862880D02*
X172918120Y-108147900D01*
X172516800Y-106461560D02*
X172918120Y-106862880D01*
X171132400Y-106441560D02*
X171152400Y-106461560D01*
X171152400Y-106461560D02*
X172516800Y-106461560D01*
X171132400Y-105938360D02*
X171132400Y-106441560D01*
D21*
X170654980Y-109256070D02*
X170615610Y-109295440D01*
X170654980Y-108546900D02*
X170654980Y-109256070D01*
X170615610Y-109295440D02*
X171620180Y-109295440D01*
X169623740Y-109295440D02*
X170615610Y-109295440D01*
X181442360Y-112943640D02*
X182615840Y-114117120D01*
X181442360Y-111668560D02*
X181442360Y-112943640D01*
X172419577Y-113577937D02*
X174083980Y-115242340D01*
X172419577Y-113062810D02*
X172419577Y-113577937D01*
D20*
X193624200Y-120937060D02*
X193624200Y-121337352D01*
X193624200Y-121337352D02*
X193848708Y-121561860D01*
X194135720Y-119651780D02*
X194024200Y-119540260D01*
X193848708Y-121561860D02*
X194823080Y-121561860D01*
X194823080Y-121561860D02*
X194823080Y-120141763D01*
X194823080Y-120141763D02*
X194333097Y-119651780D01*
X194333097Y-119651780D02*
X194135720Y-119651780D01*
X194024200Y-119540260D02*
X194024200Y-119037060D01*
X169932400Y-105444468D02*
X169932400Y-105938360D01*
X170332400Y-104038360D02*
X170332400Y-103568658D01*
X169165899Y-103535159D02*
X169165899Y-104677967D01*
X170332400Y-103568658D02*
X170248101Y-103484359D01*
X169216699Y-103484359D02*
X169165899Y-103535159D01*
X170248101Y-103484359D02*
X169216699Y-103484359D01*
D21*
X175477680Y-113558320D02*
X175498000Y-113538000D01*
X174111920Y-113558320D02*
X175477680Y-113558320D01*
X175498000Y-113538000D02*
X177530000Y-113538000D01*
X177530000Y-113538000D02*
X179562000Y-113538000D01*
X185785000Y-104755400D02*
X187817000Y-104755400D01*
X187817000Y-104755400D02*
X189849000Y-104755400D01*
X175625000Y-104755400D02*
X177657000Y-104755400D01*
X177657000Y-104755400D02*
X179689000Y-104755400D01*
X179689000Y-104755400D02*
X181721000Y-104755400D01*
X183753000Y-104755400D02*
X181721000Y-104755400D01*
X185785000Y-104755400D02*
X183753000Y-104755400D01*
X175167800Y-120219000D02*
X177199800Y-120219000D01*
X177199800Y-120219000D02*
X179231800Y-120219000D01*
X179231800Y-120219000D02*
X181263800Y-120219000D01*
X181263800Y-120219000D02*
X183295800Y-120219000D01*
X183295800Y-120219000D02*
X185327800Y-120219000D01*
X185327800Y-120219000D02*
X187359800Y-120219000D01*
X187359800Y-120219000D02*
X189391800Y-120219000D01*
X179562000Y-114502440D02*
X179575460Y-114515900D01*
X179562000Y-113538000D02*
X179562000Y-114502440D01*
X175155860Y-120230940D02*
X175167800Y-120219000D01*
X175155860Y-121102120D02*
X175155860Y-120230940D01*
X190500000Y-113450000D02*
X192500000Y-113450000D01*
X192500000Y-113450000D02*
X194500000Y-113450000D01*
X189814200Y-114645440D02*
X190446660Y-114012980D01*
X190446660Y-113503340D02*
X190500000Y-113450000D01*
X190446660Y-114012980D02*
X190446660Y-113503340D01*
X189005500Y-115350000D02*
X188575000Y-115350000D01*
X189720220Y-114635280D02*
X189005500Y-115350000D01*
X189816740Y-114635280D02*
X189720220Y-114635280D01*
X189816740Y-114642900D02*
X189816740Y-114635280D01*
X189814200Y-114645440D02*
X189816740Y-114642900D01*
X187341351Y-104755400D02*
X186795880Y-105300871D01*
X187817000Y-104755400D02*
X187341351Y-104755400D01*
X179139040Y-104755400D02*
X178679004Y-105215436D01*
X179689000Y-104755400D02*
X179139040Y-104755400D01*
D20*
X194823080Y-120018245D02*
X195000000Y-119841325D01*
X194823080Y-120141763D02*
X194823080Y-120018245D01*
D21*
X172493938Y-104256842D02*
X174929800Y-101820980D01*
X172493938Y-104576880D02*
X172493938Y-104256842D01*
D20*
X169499670Y-105011738D02*
X169142263Y-105011738D01*
X169165899Y-104677967D02*
X169499670Y-105011738D01*
X169142263Y-105011738D02*
X169070030Y-104939505D01*
X169499670Y-105011738D02*
X169932400Y-105444468D01*
X170732400Y-105938360D02*
X170732400Y-107235860D01*
X170732400Y-107235860D02*
X170804680Y-107308140D01*
X170804680Y-107308140D02*
X171632880Y-107308140D01*
X194701160Y-118422420D02*
X194701160Y-117959380D01*
X194701160Y-117959380D02*
X194851020Y-117809520D01*
X194424200Y-118699380D02*
X194701160Y-118422420D01*
X194424200Y-119037060D02*
X194424200Y-118699380D01*
X193224200Y-119037060D02*
X193224200Y-118265500D01*
X193224200Y-118265500D02*
X192768220Y-117809520D01*
D21*
X168430419Y-111782821D02*
X168430419Y-119085839D01*
X169482800Y-110730440D02*
X168430419Y-111782821D01*
X170129200Y-110730440D02*
X169482800Y-110730440D01*
X168430419Y-119085839D02*
X168430419Y-123698479D01*
X168823640Y-124091700D02*
X172544740Y-124091700D01*
X168430419Y-123698479D02*
X168823640Y-124091700D01*
X172775880Y-100959920D02*
X172793660Y-100977700D01*
X169275760Y-100959920D02*
X172775880Y-100959920D01*
X168358820Y-101876860D02*
X169275760Y-100959920D01*
X168358820Y-110296960D02*
X168358820Y-101876860D01*
X168792300Y-110730440D02*
X168358820Y-110296960D01*
X170129200Y-110730440D02*
X168792300Y-110730440D01*
D20*
X187283487Y-115341513D02*
X187275000Y-115350000D01*
X187283487Y-113854946D02*
X187283487Y-115341513D01*
X194500000Y-110996800D02*
X194500000Y-111550000D01*
X194398399Y-110895199D02*
X194500000Y-110996800D01*
X191606159Y-110895199D02*
X194398399Y-110895199D01*
X191545199Y-110956159D02*
X191606159Y-110895199D01*
X191545199Y-111946701D02*
X191545199Y-110956159D01*
X191112150Y-112379750D02*
X191545199Y-111946701D01*
X188317440Y-112379750D02*
X191112150Y-112379750D01*
X187951671Y-112745519D02*
X188317440Y-112379750D01*
X187631831Y-112745519D02*
X187951671Y-112745519D01*
X187283487Y-113093863D02*
X187631831Y-112745519D01*
X187283487Y-113854946D02*
X187283487Y-113093863D01*
X187925000Y-113355680D02*
X187924440Y-113355120D01*
X187925000Y-115350000D02*
X187925000Y-113355680D01*
X192500000Y-112103200D02*
X192500000Y-111550000D01*
X188485780Y-112786160D02*
X191817040Y-112786160D01*
X188384180Y-112895380D02*
X188384180Y-112887760D01*
X191817040Y-112786160D02*
X192500000Y-112103200D01*
X188384180Y-112887760D02*
X188485780Y-112786160D01*
X187924440Y-113355120D02*
X188384180Y-112895380D01*
X187275000Y-109650000D02*
X187275000Y-112245471D01*
X187275000Y-112245471D02*
X187273516Y-112246955D01*
X187970471Y-111550000D02*
X187563760Y-111956711D01*
X190500000Y-111550000D02*
X187970471Y-111550000D01*
X187563760Y-111956711D02*
X187273516Y-112246955D01*
D21*
X169179200Y-115255040D02*
X169186820Y-115262660D01*
X169179200Y-113480440D02*
X169179200Y-115255040D01*
X169179200Y-112690169D02*
X169243229Y-112626140D01*
X169179200Y-113480440D02*
X169179200Y-112690169D01*
D20*
X189849000Y-107331000D02*
X189849000Y-106655400D01*
X188976000Y-108204000D02*
X189849000Y-107331000D01*
X187317800Y-108204000D02*
X188976000Y-108204000D01*
X186625000Y-108896800D02*
X187317800Y-108204000D01*
X186625000Y-109650000D02*
X186625000Y-108896800D01*
X190050970Y-105900230D02*
X194271890Y-105900230D01*
X189849000Y-106102200D02*
X190050970Y-105900230D01*
X189849000Y-106655400D02*
X189849000Y-106102200D01*
X195003420Y-105168700D02*
X195003420Y-102123240D01*
X194271890Y-105900230D02*
X195003420Y-105168700D01*
X185801000Y-106671400D02*
X185785000Y-106655400D01*
X185785000Y-108472400D02*
X185801000Y-108456400D01*
X185785000Y-108494320D02*
X185785000Y-108472400D01*
X185325000Y-108954320D02*
X185785000Y-108494320D01*
X185801000Y-108456400D02*
X185801000Y-106671400D01*
X185325000Y-109650000D02*
X185325000Y-108954320D01*
X187901580Y-105697020D02*
X188394340Y-105697020D01*
X187598001Y-106000599D02*
X187901580Y-105697020D01*
X186923159Y-106000599D02*
X187598001Y-106000599D01*
X186862199Y-106061559D02*
X186923159Y-106000599D01*
X186862199Y-106655400D02*
X186862199Y-106061559D01*
X185785000Y-106655400D02*
X186862199Y-106655400D01*
X183753000Y-107746040D02*
X183753000Y-106655400D01*
X184675780Y-108668820D02*
X183753000Y-107746040D01*
X184675000Y-108669600D02*
X184675780Y-108668820D01*
X184675000Y-109650000D02*
X184675000Y-108669600D01*
X185108328Y-105666540D02*
X185539380Y-105666540D01*
X185041860Y-105666540D02*
X185108328Y-105666540D01*
X183753000Y-106655400D02*
X184053000Y-106655400D01*
X184053000Y-106655400D02*
X185041860Y-105666540D01*
X187817000Y-107130050D02*
X187817000Y-106655400D01*
X185975000Y-108972050D02*
X187817000Y-107130050D01*
X185975000Y-109650000D02*
X185975000Y-108972050D01*
X187817000Y-106655400D02*
X188391526Y-106655400D01*
X188391526Y-106655400D02*
X189553106Y-105493820D01*
X193377820Y-105493820D02*
X193705481Y-105166159D01*
X193705481Y-105166159D02*
X194010280Y-104861360D01*
X189553106Y-105493820D02*
X193377820Y-105493820D01*
X184025000Y-108841000D02*
X184025000Y-109650000D01*
X181839400Y-106655400D02*
X184025000Y-108841000D01*
X181721000Y-106655400D02*
X181839400Y-106655400D01*
X181721000Y-106655400D02*
X181421000Y-106655400D01*
X181421000Y-106655400D02*
X180391500Y-105625900D01*
X180391500Y-105625900D02*
X180032648Y-105625900D01*
X179895500Y-107505500D02*
X179689000Y-107299000D01*
X181870891Y-107505500D02*
X179895500Y-107505500D01*
X183375000Y-109009609D02*
X181870891Y-107505500D01*
X179689000Y-107299000D02*
X179689000Y-106655400D01*
X183375000Y-109650000D02*
X183375000Y-109009609D01*
X178218822Y-105757702D02*
X177346535Y-105757702D01*
X179116520Y-106655400D02*
X178218822Y-105757702D01*
X179689000Y-106655400D02*
X179116520Y-106655400D01*
X177657000Y-107131360D02*
X177657000Y-106655400D01*
X178437550Y-107911910D02*
X177657000Y-107131360D01*
X181635552Y-107911910D02*
X178437550Y-107911910D01*
X182725000Y-109001358D02*
X181635552Y-107911910D01*
X182725000Y-109650000D02*
X182725000Y-109001358D01*
X177657000Y-106655400D02*
X177357000Y-106655400D01*
X175744362Y-105623360D02*
X175313310Y-105623360D01*
X177357000Y-106655400D02*
X176324960Y-105623360D01*
X176324960Y-105623360D02*
X175744362Y-105623360D01*
X175625000Y-107553000D02*
X175625000Y-106655400D01*
X176413160Y-108341160D02*
X175625000Y-107553000D01*
X181414802Y-108341160D02*
X176413160Y-108341160D01*
X182075000Y-109001358D02*
X181414802Y-108341160D01*
X182075000Y-109650000D02*
X182075000Y-109001358D01*
X175625000Y-106873800D02*
X175140620Y-107358180D01*
X175625000Y-106655400D02*
X175625000Y-106873800D01*
X175167800Y-118319000D02*
X175140580Y-118346220D01*
X175140580Y-118346220D02*
X175138080Y-118346220D01*
X170423840Y-118376700D02*
X169141629Y-119658911D01*
X175138080Y-118346220D02*
X175107600Y-118376700D01*
X175107600Y-118376700D02*
X170423840Y-118376700D01*
X169141629Y-119658911D02*
X169141629Y-122900440D01*
X181181030Y-116382770D02*
X176225230Y-116382770D01*
X181235400Y-116328400D02*
X181181030Y-116382770D01*
X175167800Y-117440200D02*
X175167800Y-118319000D01*
X176225230Y-116382770D02*
X175167800Y-117440200D01*
X181235400Y-116292800D02*
X181235400Y-116328400D01*
X181425000Y-116103200D02*
X181235400Y-116292800D01*
X181425000Y-115350000D02*
X181425000Y-116103200D01*
X181885400Y-116328400D02*
X181424620Y-116789180D01*
X181424620Y-116789180D02*
X177850820Y-116789180D01*
X177199800Y-117440200D02*
X177199800Y-118319000D01*
X177850820Y-116789180D02*
X177199800Y-117440200D01*
X181885400Y-116292800D02*
X181885400Y-116328400D01*
X182075000Y-116103200D02*
X181885400Y-116292800D01*
X182075000Y-115350000D02*
X182075000Y-116103200D01*
X171041060Y-119065040D02*
X170037760Y-120068340D01*
X176504600Y-119065040D02*
X171041060Y-119065040D01*
X177199800Y-118369840D02*
X176504600Y-119065040D01*
X177199800Y-118319000D02*
X177199800Y-118369840D01*
X187659800Y-118319000D02*
X188466800Y-119126000D01*
X187359800Y-118319000D02*
X187659800Y-118319000D01*
X188466800Y-119126000D02*
X191008000Y-119126000D01*
X191008000Y-119126000D02*
X191262000Y-119380000D01*
X191262000Y-122184160D02*
X191985900Y-122908060D01*
X191262000Y-119380000D02*
X191262000Y-122184160D01*
X186810100Y-118319000D02*
X187359800Y-118319000D01*
X185874660Y-117383560D02*
X186810100Y-118319000D01*
X185874660Y-116652860D02*
X185874660Y-117383560D01*
X185325000Y-116103200D02*
X185874660Y-116652860D01*
X185325000Y-115350000D02*
X185325000Y-116103200D01*
X189391800Y-117753412D02*
X189391800Y-118319000D01*
X189636326Y-117508886D02*
X189391800Y-117753412D01*
X189636326Y-115739121D02*
X189636326Y-117508886D01*
X187881260Y-117622320D02*
X187923139Y-117664199D01*
X186789060Y-117622320D02*
X187881260Y-117622320D01*
X187923139Y-117664199D02*
X189302587Y-117664199D01*
X186377580Y-117210840D02*
X186789060Y-117622320D01*
X186377580Y-116581030D02*
X186377580Y-117210840D01*
X189302587Y-117664199D02*
X189391800Y-117753412D01*
X185975000Y-116178450D02*
X186377580Y-116581030D01*
X185975000Y-115350000D02*
X185975000Y-116178450D01*
X171132400Y-104038360D02*
X171132400Y-104541560D01*
X171132400Y-104541560D02*
X171132500Y-104541660D01*
X183295800Y-118319000D02*
X183295800Y-117826280D01*
X183295800Y-117826280D02*
X183642000Y-117480080D01*
X183642000Y-117480080D02*
X183991998Y-117480080D01*
X184025000Y-115350000D02*
X184025000Y-116457000D01*
X184025000Y-116457000D02*
X183295800Y-117186200D01*
X183295800Y-117186200D02*
X183295800Y-118319000D01*
X184025000Y-114017520D02*
X184025000Y-115350000D01*
X184268590Y-111134370D02*
X184268590Y-113773930D01*
X184268590Y-113773930D02*
X184025000Y-114017520D01*
X180258762Y-110561120D02*
X180608852Y-110911210D01*
X184045430Y-110911210D02*
X184268590Y-111134370D01*
X180608852Y-110911210D02*
X184045430Y-110911210D01*
X183295800Y-118319000D02*
X182995800Y-118319000D01*
X173314360Y-105824020D02*
X174124609Y-106634269D01*
X172264118Y-105824020D02*
X173314360Y-105824020D01*
X171132400Y-104692302D02*
X172264118Y-105824020D01*
X171132400Y-104541560D02*
X171132400Y-104692302D01*
X174124609Y-106634269D02*
X174124609Y-107861734D01*
X174124609Y-107861734D02*
X176823995Y-110561120D01*
X176823995Y-110561120D02*
X180258762Y-110561120D01*
X184675000Y-115350000D02*
X184675000Y-116689360D01*
X184675000Y-116689360D02*
X185327800Y-117342160D01*
X185327800Y-117342160D02*
X185327800Y-118319000D01*
X185327800Y-118896640D02*
X185484181Y-119053021D01*
X185327800Y-118319000D02*
X185327800Y-118896640D01*
X184675000Y-113824240D02*
X184675000Y-115350000D01*
X184675000Y-110959120D02*
X184675000Y-113824240D01*
X170732400Y-104038360D02*
X170732400Y-103535160D01*
X180777193Y-110504801D02*
X184220681Y-110504801D01*
X174531019Y-107650789D02*
X177034941Y-110154711D01*
X174531019Y-106182199D02*
X174531019Y-107650789D01*
X173235619Y-105186481D02*
X173385498Y-105336360D01*
X173685180Y-105336360D02*
X174531019Y-106182199D01*
X184220681Y-110504801D02*
X184675000Y-110959120D01*
X173385498Y-105336360D02*
X173685180Y-105336360D01*
X172201329Y-105186481D02*
X173235619Y-105186481D01*
X180427103Y-110154711D02*
X180777193Y-110504801D01*
X171884337Y-103642157D02*
X171884337Y-104869489D01*
X177034941Y-110154711D02*
X180427103Y-110154711D01*
X171523660Y-103281480D02*
X171884337Y-103642157D01*
X171884337Y-104869489D02*
X172201329Y-105186481D01*
X170986080Y-103281480D02*
X171523660Y-103281480D01*
X170732400Y-103535160D02*
X170986080Y-103281480D01*
X192824200Y-120937060D02*
X192824200Y-122896786D01*
X180469541Y-123466861D02*
X180167280Y-123164600D01*
X181668210Y-117195590D02*
X179730410Y-117195590D01*
X182535400Y-116328400D02*
X181668210Y-117195590D01*
X179231800Y-117694200D02*
X179231800Y-118319000D01*
X179730410Y-117195590D02*
X179231800Y-117694200D01*
X179231800Y-118319000D02*
X179231800Y-118405400D01*
X182535400Y-116292800D02*
X182535400Y-116328400D01*
X182725000Y-116103200D02*
X182535400Y-116292800D01*
X182725000Y-115350000D02*
X182725000Y-116103200D01*
X179503535Y-118319000D02*
X180211209Y-117611326D01*
X179231800Y-118319000D02*
X179503535Y-118319000D01*
X180469541Y-123682761D02*
X180568590Y-123781810D01*
X180469541Y-123466861D02*
X180469541Y-123682761D01*
X180568590Y-123781810D02*
X192438030Y-123781810D01*
X192824200Y-123395640D02*
X192824200Y-122896786D01*
X192438030Y-123781810D02*
X192824200Y-123395640D01*
X181263800Y-117765800D02*
X181263800Y-118319000D01*
X181911800Y-117602000D02*
X181427600Y-117602000D01*
X183185400Y-116328400D02*
X181911800Y-117602000D01*
X181427600Y-117602000D02*
X181263800Y-117765800D01*
X183185400Y-116292800D02*
X183185400Y-116328400D01*
X183375000Y-116103200D02*
X183185400Y-116292800D01*
X183375000Y-115350000D02*
X183375000Y-116103200D01*
X181263800Y-118319000D02*
X180963800Y-118319000D01*
X177543460Y-119542560D02*
X177302160Y-119301260D01*
X180552800Y-119542560D02*
X177543460Y-119542560D01*
X180573120Y-119562880D02*
X180552800Y-119542560D01*
X181263800Y-118872200D02*
X180573120Y-119562880D01*
X181263800Y-118319000D02*
X181263800Y-118872200D01*
X193224200Y-121440260D02*
X193224200Y-120937060D01*
X193421000Y-121637060D02*
X193224200Y-121440260D01*
X193421000Y-123604020D02*
X193421000Y-121637060D01*
X176380140Y-124188220D02*
X192836800Y-124188220D01*
X173616620Y-121424700D02*
X176380140Y-124188220D01*
X173616620Y-120221538D02*
X173616620Y-121424700D01*
X174273959Y-119564199D02*
X173616620Y-120221538D01*
X176744581Y-119564199D02*
X174273959Y-119564199D01*
X176784748Y-119524032D02*
X176744581Y-119564199D01*
X176784748Y-119387620D02*
X176784748Y-119524032D01*
X176871108Y-119301260D02*
X176784748Y-119387620D01*
X192836800Y-124188220D02*
X193421000Y-123604020D01*
X177302160Y-119301260D02*
X176871108Y-119301260D01*
D22*
G36*
X170850605Y-105021165D02*
X170660202Y-105100033D01*
X170481573Y-105278661D01*
X170469952Y-105306715D01*
X170444900Y-105301691D01*
X170335800Y-105301691D01*
X170331332Y-105279226D01*
X170331331Y-105279225D01*
X170300272Y-105232742D01*
X170237729Y-105139140D01*
X170237729Y-105139139D01*
X170237725Y-105139136D01*
X169983864Y-104885275D01*
X170004598Y-104876687D01*
X170183227Y-104698059D01*
X170194847Y-104670004D01*
X170219900Y-104675029D01*
X170444900Y-104675029D01*
X170533846Y-104657771D01*
X170619900Y-104675029D01*
X170700600Y-104675029D01*
X170700600Y-104692302D01*
X170733469Y-104857545D01*
X170827071Y-104997631D01*
X170850605Y-105021165D01*
X170850605Y-105021165D01*
G37*
X170850605Y-105021165D02*
X170660202Y-105100033D01*
X170481573Y-105278661D01*
X170469952Y-105306715D01*
X170444900Y-105301691D01*
X170335800Y-105301691D01*
X170331332Y-105279226D01*
X170331331Y-105279225D01*
X170300272Y-105232742D01*
X170237729Y-105139140D01*
X170237729Y-105139139D01*
X170237725Y-105139136D01*
X169983864Y-104885275D01*
X170004598Y-104876687D01*
X170183227Y-104698059D01*
X170194847Y-104670004D01*
X170219900Y-104675029D01*
X170444900Y-104675029D01*
X170533846Y-104657771D01*
X170619900Y-104675029D01*
X170700600Y-104675029D01*
X170700600Y-104692302D01*
X170733469Y-104857545D01*
X170827071Y-104997631D01*
X170850605Y-105021165D01*
G36*
X181538331Y-109777000D02*
X181525000Y-109777000D01*
X181525000Y-109797000D01*
X181325000Y-109797000D01*
X181325000Y-109777000D01*
X180748750Y-109777000D01*
X180698824Y-109826925D01*
X180592346Y-109755780D01*
X180427103Y-109722911D01*
X177213798Y-109722911D01*
X176196870Y-108705982D01*
X176201434Y-108709032D01*
X176247917Y-108740091D01*
X176247918Y-108740092D01*
X176413160Y-108772961D01*
X176413160Y-108772960D01*
X176413165Y-108772960D01*
X180673145Y-108772960D01*
X180590000Y-108973691D01*
X180590000Y-109364250D01*
X180748750Y-109523000D01*
X181325000Y-109523000D01*
X181325000Y-109503000D01*
X181525000Y-109503000D01*
X181525000Y-109523000D01*
X181538331Y-109523000D01*
X181538331Y-109777000D01*
X181538331Y-109777000D01*
G37*
X181538331Y-109777000D02*
X181525000Y-109777000D01*
X181525000Y-109797000D01*
X181325000Y-109797000D01*
X181325000Y-109777000D01*
X180748750Y-109777000D01*
X180698824Y-109826925D01*
X180592346Y-109755780D01*
X180427103Y-109722911D01*
X177213798Y-109722911D01*
X176196870Y-108705982D01*
X176201434Y-108709032D01*
X176247917Y-108740091D01*
X176247918Y-108740092D01*
X176413160Y-108772961D01*
X176413160Y-108772960D01*
X176413165Y-108772960D01*
X180673145Y-108772960D01*
X180590000Y-108973691D01*
X180590000Y-109364250D01*
X180748750Y-109523000D01*
X181325000Y-109523000D01*
X181325000Y-109503000D01*
X181525000Y-109503000D01*
X181525000Y-109523000D01*
X181538331Y-109523000D01*
X181538331Y-109777000D01*
G36*
X183836790Y-113595072D02*
X183719671Y-113712191D01*
X183626069Y-113852277D01*
X183593200Y-114017520D01*
X183593200Y-114466980D01*
X183575000Y-114463331D01*
X183175000Y-114463331D01*
X183049096Y-114487759D01*
X183048561Y-114488110D01*
X182925000Y-114463331D01*
X182525000Y-114463331D01*
X182399096Y-114487759D01*
X182398561Y-114488110D01*
X182275000Y-114463331D01*
X181875000Y-114463331D01*
X181749096Y-114487759D01*
X181748561Y-114488110D01*
X181625000Y-114463331D01*
X181225000Y-114463331D01*
X181099096Y-114487759D01*
X180988438Y-114560450D01*
X180914364Y-114670187D01*
X180888331Y-114800000D01*
X180888331Y-115900000D01*
X180898220Y-115950970D01*
X180822000Y-115950970D01*
X180822000Y-112164309D01*
X180822000Y-111823750D01*
X180663250Y-111665000D01*
X179689000Y-111665000D01*
X179689000Y-112514250D01*
X179847750Y-112673000D01*
X180060691Y-112673000D01*
X180313310Y-112673000D01*
X180546699Y-112576327D01*
X180725327Y-112397698D01*
X180822000Y-112164309D01*
X180822000Y-115950970D01*
X180523669Y-115950970D01*
X180523669Y-114038000D01*
X180523669Y-113038000D01*
X180499241Y-112912096D01*
X180426550Y-112801438D01*
X180316813Y-112727364D01*
X180187000Y-112701331D01*
X179435000Y-112701331D01*
X179435000Y-112514250D01*
X179435000Y-111665000D01*
X178631250Y-111665000D01*
X178460750Y-111665000D01*
X177657000Y-111665000D01*
X177657000Y-112514250D01*
X177815750Y-112673000D01*
X178028691Y-112673000D01*
X178281310Y-112673000D01*
X178514699Y-112576327D01*
X178546000Y-112545025D01*
X178577301Y-112576327D01*
X178810690Y-112673000D01*
X179063309Y-112673000D01*
X179276250Y-112673000D01*
X179435000Y-112514250D01*
X179435000Y-112701331D01*
X178937000Y-112701331D01*
X178811096Y-112725759D01*
X178700438Y-112798450D01*
X178626364Y-112908187D01*
X178607029Y-113004600D01*
X178485188Y-113004600D01*
X178467241Y-112912096D01*
X178394550Y-112801438D01*
X178284813Y-112727364D01*
X178155000Y-112701331D01*
X177403000Y-112701331D01*
X177403000Y-112514250D01*
X177403000Y-111665000D01*
X176599250Y-111665000D01*
X176428750Y-111665000D01*
X175625000Y-111665000D01*
X175625000Y-112514250D01*
X175783750Y-112673000D01*
X175996691Y-112673000D01*
X176249310Y-112673000D01*
X176482699Y-112576327D01*
X176514000Y-112545025D01*
X176545301Y-112576327D01*
X176778690Y-112673000D01*
X177031309Y-112673000D01*
X177244250Y-112673000D01*
X177403000Y-112514250D01*
X177403000Y-112701331D01*
X176905000Y-112701331D01*
X176779096Y-112725759D01*
X176668438Y-112798450D01*
X176594364Y-112908187D01*
X176575029Y-113004600D01*
X176453188Y-113004600D01*
X176435241Y-112912096D01*
X176362550Y-112801438D01*
X176252813Y-112727364D01*
X176123000Y-112701331D01*
X175371000Y-112701331D01*
X175371000Y-112514250D01*
X175371000Y-111665000D01*
X175371000Y-111411000D01*
X175371000Y-110561750D01*
X175212250Y-110403000D01*
X174999309Y-110403000D01*
X174746690Y-110403000D01*
X174513301Y-110499673D01*
X174334673Y-110678302D01*
X174238000Y-110911691D01*
X174238000Y-111252250D01*
X174396750Y-111411000D01*
X175371000Y-111411000D01*
X175371000Y-111665000D01*
X174396750Y-111665000D01*
X174238000Y-111823750D01*
X174238000Y-112164309D01*
X174334673Y-112397698D01*
X174513301Y-112576327D01*
X174746690Y-112673000D01*
X174999309Y-112673000D01*
X175212250Y-112673000D01*
X175371000Y-112514250D01*
X175371000Y-112701331D01*
X174873000Y-112701331D01*
X174747096Y-112725759D01*
X174636438Y-112798450D01*
X174562364Y-112908187D01*
X174552554Y-112957104D01*
X174529715Y-112934225D01*
X174259082Y-112821848D01*
X173966044Y-112821592D01*
X173695215Y-112933497D01*
X173487825Y-113140525D01*
X173375448Y-113411158D01*
X173375192Y-113704196D01*
X173487097Y-113975025D01*
X173694125Y-114182415D01*
X173964758Y-114294792D01*
X174257796Y-114295048D01*
X174528625Y-114183143D01*
X174558672Y-114153148D01*
X174560759Y-114163904D01*
X174633450Y-114274562D01*
X174743187Y-114348636D01*
X174873000Y-114374669D01*
X176123000Y-114374669D01*
X176248904Y-114350241D01*
X176359562Y-114277550D01*
X176433636Y-114167813D01*
X176452970Y-114071400D01*
X176574811Y-114071400D01*
X176592759Y-114163904D01*
X176665450Y-114274562D01*
X176775187Y-114348636D01*
X176905000Y-114374669D01*
X178155000Y-114374669D01*
X178280904Y-114350241D01*
X178391562Y-114277550D01*
X178465636Y-114167813D01*
X178484970Y-114071400D01*
X178606811Y-114071400D01*
X178624759Y-114163904D01*
X178697450Y-114274562D01*
X178807187Y-114348636D01*
X178844248Y-114356068D01*
X178838988Y-114368738D01*
X178838732Y-114661776D01*
X178950637Y-114932605D01*
X179157665Y-115139995D01*
X179428298Y-115252372D01*
X179721336Y-115252628D01*
X179992165Y-115140723D01*
X180199555Y-114933695D01*
X180311932Y-114663062D01*
X180312188Y-114370024D01*
X180304673Y-114351837D01*
X180312904Y-114350241D01*
X180423562Y-114277550D01*
X180497636Y-114167813D01*
X180523669Y-114038000D01*
X180523669Y-115950970D01*
X176225235Y-115950970D01*
X176225230Y-115950969D01*
X176087403Y-115978385D01*
X176059987Y-115983839D01*
X175919901Y-116077441D01*
X174862471Y-117134871D01*
X174768869Y-117274957D01*
X174736000Y-117440200D01*
X174736000Y-117632331D01*
X174517800Y-117632331D01*
X174391896Y-117656759D01*
X174281238Y-117729450D01*
X174207164Y-117839187D01*
X174185964Y-117944900D01*
X172892880Y-117944900D01*
X172892880Y-109934449D01*
X172892880Y-109593890D01*
X172892880Y-109022390D01*
X172892880Y-108681831D01*
X172796207Y-108448442D01*
X172617579Y-108269813D01*
X172384190Y-108173140D01*
X172131571Y-108173140D01*
X171918630Y-108173140D01*
X171759880Y-108331890D01*
X171759880Y-109181140D01*
X172734130Y-109181140D01*
X172892880Y-109022390D01*
X172892880Y-109593890D01*
X172734130Y-109435140D01*
X171759880Y-109435140D01*
X171759880Y-110284390D01*
X171918630Y-110443140D01*
X172131571Y-110443140D01*
X172384190Y-110443140D01*
X172617579Y-110346467D01*
X172796207Y-110167838D01*
X172892880Y-109934449D01*
X172892880Y-117944900D01*
X172071820Y-117944900D01*
X172071820Y-116038970D01*
X172071820Y-115786351D01*
X172071820Y-115548410D01*
X172071820Y-114976910D01*
X172071820Y-114738969D01*
X172071820Y-114486350D01*
X171975147Y-114252961D01*
X171902866Y-114180680D01*
X171954200Y-114056750D01*
X171954200Y-113804131D01*
X171954200Y-113766190D01*
X171954200Y-113194690D01*
X171954200Y-113156749D01*
X171954200Y-112904130D01*
X171857527Y-112670741D01*
X171678898Y-112492113D01*
X171445509Y-112395440D01*
X171357950Y-112395440D01*
X171199200Y-112554190D01*
X171199200Y-113353440D01*
X171795450Y-113353440D01*
X171954200Y-113194690D01*
X171954200Y-113766190D01*
X171795450Y-113607440D01*
X171199200Y-113607440D01*
X171199200Y-114406690D01*
X171213820Y-114421310D01*
X171213820Y-115135660D01*
X171913070Y-115135660D01*
X172071820Y-114976910D01*
X172071820Y-115548410D01*
X171913070Y-115389660D01*
X171213820Y-115389660D01*
X171213820Y-116388910D01*
X171372570Y-116547660D01*
X171563129Y-116547660D01*
X171796518Y-116450987D01*
X171975147Y-116272359D01*
X172071820Y-116038970D01*
X172071820Y-117944900D01*
X170959820Y-117944900D01*
X170959820Y-116388910D01*
X170959820Y-115389660D01*
X170959820Y-115135660D01*
X170959820Y-114136410D01*
X170959200Y-114135790D01*
X170959200Y-113607440D01*
X170959200Y-113353440D01*
X170959200Y-112554190D01*
X170800450Y-112395440D01*
X170712891Y-112395440D01*
X170479502Y-112492113D01*
X170300873Y-112670741D01*
X170204200Y-112904130D01*
X170204200Y-113156749D01*
X170204200Y-113194690D01*
X170362950Y-113353440D01*
X170959200Y-113353440D01*
X170959200Y-113607440D01*
X170362950Y-113607440D01*
X170204200Y-113766190D01*
X170204200Y-113804131D01*
X170204200Y-114056750D01*
X170259997Y-114191456D01*
X170198493Y-114252961D01*
X170101820Y-114486350D01*
X170101820Y-114738969D01*
X170101820Y-114976910D01*
X170260570Y-115135660D01*
X170959820Y-115135660D01*
X170959820Y-115389660D01*
X170260570Y-115389660D01*
X170101820Y-115548410D01*
X170101820Y-115786351D01*
X170101820Y-116038970D01*
X170198493Y-116272359D01*
X170377122Y-116450987D01*
X170610511Y-116547660D01*
X170801070Y-116547660D01*
X170959820Y-116388910D01*
X170959820Y-117944900D01*
X170423840Y-117944900D01*
X170258597Y-117977769D01*
X170118511Y-118071371D01*
X168963819Y-119226063D01*
X168963819Y-119085839D01*
X168963819Y-116249329D01*
X169536820Y-116249329D01*
X169662724Y-116224901D01*
X169773382Y-116152210D01*
X169847456Y-116042473D01*
X169873489Y-115912660D01*
X169873489Y-114612660D01*
X169849061Y-114486756D01*
X169776370Y-114376098D01*
X169712600Y-114333052D01*
X169712600Y-114085787D01*
X169729836Y-114060253D01*
X169755869Y-113930440D01*
X169755869Y-113155195D01*
X169867324Y-113043935D01*
X169979701Y-112773302D01*
X169979957Y-112480264D01*
X169868052Y-112209435D01*
X169661024Y-112002045D01*
X169390391Y-111889668D01*
X169097353Y-111889412D01*
X169064662Y-111902919D01*
X169610372Y-111357209D01*
X169649650Y-111417002D01*
X169759387Y-111491076D01*
X169889200Y-111517109D01*
X170369200Y-111517109D01*
X170495104Y-111492681D01*
X170605762Y-111419990D01*
X170679836Y-111310253D01*
X170705869Y-111180440D01*
X170705869Y-110370362D01*
X170881570Y-110443140D01*
X171134189Y-110443140D01*
X171347130Y-110443140D01*
X171505880Y-110284390D01*
X171505880Y-109435140D01*
X171505880Y-109181140D01*
X171505880Y-108331890D01*
X171347130Y-108173140D01*
X171134189Y-108173140D01*
X170881570Y-108173140D01*
X170648181Y-108269813D01*
X170634659Y-108283334D01*
X170608439Y-108257113D01*
X170375050Y-108160440D01*
X170122431Y-108160440D01*
X169909490Y-108160440D01*
X169750740Y-108319190D01*
X169750740Y-109168440D01*
X170518930Y-109168440D01*
X170531630Y-109181140D01*
X171505880Y-109181140D01*
X171505880Y-109435140D01*
X170737690Y-109435140D01*
X170724990Y-109422440D01*
X169750740Y-109422440D01*
X169750740Y-109442440D01*
X169496740Y-109442440D01*
X169496740Y-109422440D01*
X169476740Y-109422440D01*
X169476740Y-109168440D01*
X169496740Y-109168440D01*
X169496740Y-108319190D01*
X169337990Y-108160440D01*
X169125049Y-108160440D01*
X168892220Y-108160440D01*
X168892220Y-108110747D01*
X168998740Y-108132109D01*
X170248740Y-108132109D01*
X170374644Y-108107681D01*
X170485302Y-108034990D01*
X170559376Y-107925253D01*
X170585409Y-107795440D01*
X170585409Y-107670970D01*
X170639437Y-107707071D01*
X170671211Y-107713391D01*
X170671211Y-107808140D01*
X170695639Y-107934044D01*
X170768330Y-108044702D01*
X170878067Y-108118776D01*
X171007880Y-108144809D01*
X172257880Y-108144809D01*
X172383784Y-108120381D01*
X172494442Y-108047690D01*
X172568516Y-107937953D01*
X172594549Y-107808140D01*
X172594549Y-106808140D01*
X172570121Y-106682236D01*
X172497430Y-106571578D01*
X172387693Y-106497504D01*
X172257880Y-106471471D01*
X171835661Y-106471471D01*
X171879900Y-106364670D01*
X171879900Y-106224110D01*
X171721152Y-106065362D01*
X171879900Y-106065362D01*
X171879900Y-106050460D01*
X171958789Y-106129349D01*
X172098875Y-106222951D01*
X172098876Y-106222951D01*
X172264118Y-106255820D01*
X173135502Y-106255820D01*
X173692809Y-106813127D01*
X173692809Y-107861734D01*
X173725678Y-108026977D01*
X173819280Y-108167063D01*
X176055217Y-110403000D01*
X175996691Y-110403000D01*
X175783750Y-110403000D01*
X175625000Y-110561750D01*
X175625000Y-111411000D01*
X176428750Y-111411000D01*
X176599250Y-111411000D01*
X177403000Y-111411000D01*
X177403000Y-111391000D01*
X177657000Y-111391000D01*
X177657000Y-111411000D01*
X178460750Y-111411000D01*
X178631250Y-111411000D01*
X179435000Y-111411000D01*
X179435000Y-111391000D01*
X179689000Y-111391000D01*
X179689000Y-111411000D01*
X180663250Y-111411000D01*
X180731240Y-111343010D01*
X183836790Y-111343010D01*
X183836790Y-113595072D01*
X183836790Y-113595072D01*
G37*
X183836790Y-113595072D02*
X183719671Y-113712191D01*
X183626069Y-113852277D01*
X183593200Y-114017520D01*
X183593200Y-114466980D01*
X183575000Y-114463331D01*
X183175000Y-114463331D01*
X183049096Y-114487759D01*
X183048561Y-114488110D01*
X182925000Y-114463331D01*
X182525000Y-114463331D01*
X182399096Y-114487759D01*
X182398561Y-114488110D01*
X182275000Y-114463331D01*
X181875000Y-114463331D01*
X181749096Y-114487759D01*
X181748561Y-114488110D01*
X181625000Y-114463331D01*
X181225000Y-114463331D01*
X181099096Y-114487759D01*
X180988438Y-114560450D01*
X180914364Y-114670187D01*
X180888331Y-114800000D01*
X180888331Y-115900000D01*
X180898220Y-115950970D01*
X180822000Y-115950970D01*
X180822000Y-112164309D01*
X180822000Y-111823750D01*
X180663250Y-111665000D01*
X179689000Y-111665000D01*
X179689000Y-112514250D01*
X179847750Y-112673000D01*
X180060691Y-112673000D01*
X180313310Y-112673000D01*
X180546699Y-112576327D01*
X180725327Y-112397698D01*
X180822000Y-112164309D01*
X180822000Y-115950970D01*
X180523669Y-115950970D01*
X180523669Y-114038000D01*
X180523669Y-113038000D01*
X180499241Y-112912096D01*
X180426550Y-112801438D01*
X180316813Y-112727364D01*
X180187000Y-112701331D01*
X179435000Y-112701331D01*
X179435000Y-112514250D01*
X179435000Y-111665000D01*
X178631250Y-111665000D01*
X178460750Y-111665000D01*
X177657000Y-111665000D01*
X177657000Y-112514250D01*
X177815750Y-112673000D01*
X178028691Y-112673000D01*
X178281310Y-112673000D01*
X178514699Y-112576327D01*
X178546000Y-112545025D01*
X178577301Y-112576327D01*
X178810690Y-112673000D01*
X179063309Y-112673000D01*
X179276250Y-112673000D01*
X179435000Y-112514250D01*
X179435000Y-112701331D01*
X178937000Y-112701331D01*
X178811096Y-112725759D01*
X178700438Y-112798450D01*
X178626364Y-112908187D01*
X178607029Y-113004600D01*
X178485188Y-113004600D01*
X178467241Y-112912096D01*
X178394550Y-112801438D01*
X178284813Y-112727364D01*
X178155000Y-112701331D01*
X177403000Y-112701331D01*
X177403000Y-112514250D01*
X177403000Y-111665000D01*
X176599250Y-111665000D01*
X176428750Y-111665000D01*
X175625000Y-111665000D01*
X175625000Y-112514250D01*
X175783750Y-112673000D01*
X175996691Y-112673000D01*
X176249310Y-112673000D01*
X176482699Y-112576327D01*
X176514000Y-112545025D01*
X176545301Y-112576327D01*
X176778690Y-112673000D01*
X177031309Y-112673000D01*
X177244250Y-112673000D01*
X177403000Y-112514250D01*
X177403000Y-112701331D01*
X176905000Y-112701331D01*
X176779096Y-112725759D01*
X176668438Y-112798450D01*
X176594364Y-112908187D01*
X176575029Y-113004600D01*
X176453188Y-113004600D01*
X176435241Y-112912096D01*
X176362550Y-112801438D01*
X176252813Y-112727364D01*
X176123000Y-112701331D01*
X175371000Y-112701331D01*
X175371000Y-112514250D01*
X175371000Y-111665000D01*
X175371000Y-111411000D01*
X175371000Y-110561750D01*
X175212250Y-110403000D01*
X174999309Y-110403000D01*
X174746690Y-110403000D01*
X174513301Y-110499673D01*
X174334673Y-110678302D01*
X174238000Y-110911691D01*
X174238000Y-111252250D01*
X174396750Y-111411000D01*
X175371000Y-111411000D01*
X175371000Y-111665000D01*
X174396750Y-111665000D01*
X174238000Y-111823750D01*
X174238000Y-112164309D01*
X174334673Y-112397698D01*
X174513301Y-112576327D01*
X174746690Y-112673000D01*
X174999309Y-112673000D01*
X175212250Y-112673000D01*
X175371000Y-112514250D01*
X175371000Y-112701331D01*
X174873000Y-112701331D01*
X174747096Y-112725759D01*
X174636438Y-112798450D01*
X174562364Y-112908187D01*
X174552554Y-112957104D01*
X174529715Y-112934225D01*
X174259082Y-112821848D01*
X173966044Y-112821592D01*
X173695215Y-112933497D01*
X173487825Y-113140525D01*
X173375448Y-113411158D01*
X173375192Y-113704196D01*
X173487097Y-113975025D01*
X173694125Y-114182415D01*
X173964758Y-114294792D01*
X174257796Y-114295048D01*
X174528625Y-114183143D01*
X174558672Y-114153148D01*
X174560759Y-114163904D01*
X174633450Y-114274562D01*
X174743187Y-114348636D01*
X174873000Y-114374669D01*
X176123000Y-114374669D01*
X176248904Y-114350241D01*
X176359562Y-114277550D01*
X176433636Y-114167813D01*
X176452970Y-114071400D01*
X176574811Y-114071400D01*
X176592759Y-114163904D01*
X176665450Y-114274562D01*
X176775187Y-114348636D01*
X176905000Y-114374669D01*
X178155000Y-114374669D01*
X178280904Y-114350241D01*
X178391562Y-114277550D01*
X178465636Y-114167813D01*
X178484970Y-114071400D01*
X178606811Y-114071400D01*
X178624759Y-114163904D01*
X178697450Y-114274562D01*
X178807187Y-114348636D01*
X178844248Y-114356068D01*
X178838988Y-114368738D01*
X178838732Y-114661776D01*
X178950637Y-114932605D01*
X179157665Y-115139995D01*
X179428298Y-115252372D01*
X179721336Y-115252628D01*
X179992165Y-115140723D01*
X180199555Y-114933695D01*
X180311932Y-114663062D01*
X180312188Y-114370024D01*
X180304673Y-114351837D01*
X180312904Y-114350241D01*
X180423562Y-114277550D01*
X180497636Y-114167813D01*
X180523669Y-114038000D01*
X180523669Y-115950970D01*
X176225235Y-115950970D01*
X176225230Y-115950969D01*
X176087403Y-115978385D01*
X176059987Y-115983839D01*
X175919901Y-116077441D01*
X174862471Y-117134871D01*
X174768869Y-117274957D01*
X174736000Y-117440200D01*
X174736000Y-117632331D01*
X174517800Y-117632331D01*
X174391896Y-117656759D01*
X174281238Y-117729450D01*
X174207164Y-117839187D01*
X174185964Y-117944900D01*
X172892880Y-117944900D01*
X172892880Y-109934449D01*
X172892880Y-109593890D01*
X172892880Y-109022390D01*
X172892880Y-108681831D01*
X172796207Y-108448442D01*
X172617579Y-108269813D01*
X172384190Y-108173140D01*
X172131571Y-108173140D01*
X171918630Y-108173140D01*
X171759880Y-108331890D01*
X171759880Y-109181140D01*
X172734130Y-109181140D01*
X172892880Y-109022390D01*
X172892880Y-109593890D01*
X172734130Y-109435140D01*
X171759880Y-109435140D01*
X171759880Y-110284390D01*
X171918630Y-110443140D01*
X172131571Y-110443140D01*
X172384190Y-110443140D01*
X172617579Y-110346467D01*
X172796207Y-110167838D01*
X172892880Y-109934449D01*
X172892880Y-117944900D01*
X172071820Y-117944900D01*
X172071820Y-116038970D01*
X172071820Y-115786351D01*
X172071820Y-115548410D01*
X172071820Y-114976910D01*
X172071820Y-114738969D01*
X172071820Y-114486350D01*
X171975147Y-114252961D01*
X171902866Y-114180680D01*
X171954200Y-114056750D01*
X171954200Y-113804131D01*
X171954200Y-113766190D01*
X171954200Y-113194690D01*
X171954200Y-113156749D01*
X171954200Y-112904130D01*
X171857527Y-112670741D01*
X171678898Y-112492113D01*
X171445509Y-112395440D01*
X171357950Y-112395440D01*
X171199200Y-112554190D01*
X171199200Y-113353440D01*
X171795450Y-113353440D01*
X171954200Y-113194690D01*
X171954200Y-113766190D01*
X171795450Y-113607440D01*
X171199200Y-113607440D01*
X171199200Y-114406690D01*
X171213820Y-114421310D01*
X171213820Y-115135660D01*
X171913070Y-115135660D01*
X172071820Y-114976910D01*
X172071820Y-115548410D01*
X171913070Y-115389660D01*
X171213820Y-115389660D01*
X171213820Y-116388910D01*
X171372570Y-116547660D01*
X171563129Y-116547660D01*
X171796518Y-116450987D01*
X171975147Y-116272359D01*
X172071820Y-116038970D01*
X172071820Y-117944900D01*
X170959820Y-117944900D01*
X170959820Y-116388910D01*
X170959820Y-115389660D01*
X170959820Y-115135660D01*
X170959820Y-114136410D01*
X170959200Y-114135790D01*
X170959200Y-113607440D01*
X170959200Y-113353440D01*
X170959200Y-112554190D01*
X170800450Y-112395440D01*
X170712891Y-112395440D01*
X170479502Y-112492113D01*
X170300873Y-112670741D01*
X170204200Y-112904130D01*
X170204200Y-113156749D01*
X170204200Y-113194690D01*
X170362950Y-113353440D01*
X170959200Y-113353440D01*
X170959200Y-113607440D01*
X170362950Y-113607440D01*
X170204200Y-113766190D01*
X170204200Y-113804131D01*
X170204200Y-114056750D01*
X170259997Y-114191456D01*
X170198493Y-114252961D01*
X170101820Y-114486350D01*
X170101820Y-114738969D01*
X170101820Y-114976910D01*
X170260570Y-115135660D01*
X170959820Y-115135660D01*
X170959820Y-115389660D01*
X170260570Y-115389660D01*
X170101820Y-115548410D01*
X170101820Y-115786351D01*
X170101820Y-116038970D01*
X170198493Y-116272359D01*
X170377122Y-116450987D01*
X170610511Y-116547660D01*
X170801070Y-116547660D01*
X170959820Y-116388910D01*
X170959820Y-117944900D01*
X170423840Y-117944900D01*
X170258597Y-117977769D01*
X170118511Y-118071371D01*
X168963819Y-119226063D01*
X168963819Y-119085839D01*
X168963819Y-116249329D01*
X169536820Y-116249329D01*
X169662724Y-116224901D01*
X169773382Y-116152210D01*
X169847456Y-116042473D01*
X169873489Y-115912660D01*
X169873489Y-114612660D01*
X169849061Y-114486756D01*
X169776370Y-114376098D01*
X169712600Y-114333052D01*
X169712600Y-114085787D01*
X169729836Y-114060253D01*
X169755869Y-113930440D01*
X169755869Y-113155195D01*
X169867324Y-113043935D01*
X169979701Y-112773302D01*
X169979957Y-112480264D01*
X169868052Y-112209435D01*
X169661024Y-112002045D01*
X169390391Y-111889668D01*
X169097353Y-111889412D01*
X169064662Y-111902919D01*
X169610372Y-111357209D01*
X169649650Y-111417002D01*
X169759387Y-111491076D01*
X169889200Y-111517109D01*
X170369200Y-111517109D01*
X170495104Y-111492681D01*
X170605762Y-111419990D01*
X170679836Y-111310253D01*
X170705869Y-111180440D01*
X170705869Y-110370362D01*
X170881570Y-110443140D01*
X171134189Y-110443140D01*
X171347130Y-110443140D01*
X171505880Y-110284390D01*
X171505880Y-109435140D01*
X171505880Y-109181140D01*
X171505880Y-108331890D01*
X171347130Y-108173140D01*
X171134189Y-108173140D01*
X170881570Y-108173140D01*
X170648181Y-108269813D01*
X170634659Y-108283334D01*
X170608439Y-108257113D01*
X170375050Y-108160440D01*
X170122431Y-108160440D01*
X169909490Y-108160440D01*
X169750740Y-108319190D01*
X169750740Y-109168440D01*
X170518930Y-109168440D01*
X170531630Y-109181140D01*
X171505880Y-109181140D01*
X171505880Y-109435140D01*
X170737690Y-109435140D01*
X170724990Y-109422440D01*
X169750740Y-109422440D01*
X169750740Y-109442440D01*
X169496740Y-109442440D01*
X169496740Y-109422440D01*
X169476740Y-109422440D01*
X169476740Y-109168440D01*
X169496740Y-109168440D01*
X169496740Y-108319190D01*
X169337990Y-108160440D01*
X169125049Y-108160440D01*
X168892220Y-108160440D01*
X168892220Y-108110747D01*
X168998740Y-108132109D01*
X170248740Y-108132109D01*
X170374644Y-108107681D01*
X170485302Y-108034990D01*
X170559376Y-107925253D01*
X170585409Y-107795440D01*
X170585409Y-107670970D01*
X170639437Y-107707071D01*
X170671211Y-107713391D01*
X170671211Y-107808140D01*
X170695639Y-107934044D01*
X170768330Y-108044702D01*
X170878067Y-108118776D01*
X171007880Y-108144809D01*
X172257880Y-108144809D01*
X172383784Y-108120381D01*
X172494442Y-108047690D01*
X172568516Y-107937953D01*
X172594549Y-107808140D01*
X172594549Y-106808140D01*
X172570121Y-106682236D01*
X172497430Y-106571578D01*
X172387693Y-106497504D01*
X172257880Y-106471471D01*
X171835661Y-106471471D01*
X171879900Y-106364670D01*
X171879900Y-106224110D01*
X171721152Y-106065362D01*
X171879900Y-106065362D01*
X171879900Y-106050460D01*
X171958789Y-106129349D01*
X172098875Y-106222951D01*
X172098876Y-106222951D01*
X172264118Y-106255820D01*
X173135502Y-106255820D01*
X173692809Y-106813127D01*
X173692809Y-107861734D01*
X173725678Y-108026977D01*
X173819280Y-108167063D01*
X176055217Y-110403000D01*
X175996691Y-110403000D01*
X175783750Y-110403000D01*
X175625000Y-110561750D01*
X175625000Y-111411000D01*
X176428750Y-111411000D01*
X176599250Y-111411000D01*
X177403000Y-111411000D01*
X177403000Y-111391000D01*
X177657000Y-111391000D01*
X177657000Y-111411000D01*
X178460750Y-111411000D01*
X178631250Y-111411000D01*
X179435000Y-111411000D01*
X179435000Y-111391000D01*
X179689000Y-111391000D01*
X179689000Y-111411000D01*
X180663250Y-111411000D01*
X180731240Y-111343010D01*
X183836790Y-111343010D01*
X183836790Y-113595072D01*
G36*
X186965947Y-112806808D02*
X186884556Y-112928620D01*
X186851687Y-113093863D01*
X186851687Y-113388750D01*
X186745474Y-113494778D01*
X186648598Y-113728083D01*
X186648377Y-113980701D01*
X186724528Y-114165000D01*
X186744847Y-114214174D01*
X186789672Y-114259077D01*
X186725000Y-114323750D01*
X186725000Y-115223000D01*
X186738331Y-115223000D01*
X186738331Y-115477000D01*
X186725000Y-115477000D01*
X186725000Y-115497000D01*
X186525000Y-115497000D01*
X186525000Y-115477000D01*
X186511669Y-115477000D01*
X186511669Y-115223000D01*
X186525000Y-115223000D01*
X186525000Y-114323750D01*
X186366250Y-114165000D01*
X186298690Y-114165000D01*
X186065301Y-114261673D01*
X185886673Y-114440302D01*
X185877134Y-114463331D01*
X185775000Y-114463331D01*
X185649096Y-114487759D01*
X185648561Y-114488110D01*
X185525000Y-114463331D01*
X185125000Y-114463331D01*
X185106800Y-114466862D01*
X185106800Y-113824240D01*
X185106800Y-110959120D01*
X185073931Y-110793878D01*
X185073931Y-110793877D01*
X184980329Y-110653791D01*
X184863207Y-110536669D01*
X184875000Y-110536669D01*
X185000904Y-110512241D01*
X185001438Y-110511889D01*
X185125000Y-110536669D01*
X185525000Y-110536669D01*
X185650904Y-110512241D01*
X185651438Y-110511889D01*
X185775000Y-110536669D01*
X186175000Y-110536669D01*
X186300904Y-110512241D01*
X186301438Y-110511889D01*
X186425000Y-110536669D01*
X186825000Y-110536669D01*
X186843200Y-110533137D01*
X186843200Y-111779278D01*
X186735503Y-111886787D01*
X186638627Y-112120092D01*
X186638406Y-112372710D01*
X186734876Y-112606183D01*
X186913348Y-112784968D01*
X186965947Y-112806808D01*
X186965947Y-112806808D01*
G37*
X186965947Y-112806808D02*
X186884556Y-112928620D01*
X186851687Y-113093863D01*
X186851687Y-113388750D01*
X186745474Y-113494778D01*
X186648598Y-113728083D01*
X186648377Y-113980701D01*
X186724528Y-114165000D01*
X186744847Y-114214174D01*
X186789672Y-114259077D01*
X186725000Y-114323750D01*
X186725000Y-115223000D01*
X186738331Y-115223000D01*
X186738331Y-115477000D01*
X186725000Y-115477000D01*
X186725000Y-115497000D01*
X186525000Y-115497000D01*
X186525000Y-115477000D01*
X186511669Y-115477000D01*
X186511669Y-115223000D01*
X186525000Y-115223000D01*
X186525000Y-114323750D01*
X186366250Y-114165000D01*
X186298690Y-114165000D01*
X186065301Y-114261673D01*
X185886673Y-114440302D01*
X185877134Y-114463331D01*
X185775000Y-114463331D01*
X185649096Y-114487759D01*
X185648561Y-114488110D01*
X185525000Y-114463331D01*
X185125000Y-114463331D01*
X185106800Y-114466862D01*
X185106800Y-113824240D01*
X185106800Y-110959120D01*
X185073931Y-110793878D01*
X185073931Y-110793877D01*
X184980329Y-110653791D01*
X184863207Y-110536669D01*
X184875000Y-110536669D01*
X185000904Y-110512241D01*
X185001438Y-110511889D01*
X185125000Y-110536669D01*
X185525000Y-110536669D01*
X185650904Y-110512241D01*
X185651438Y-110511889D01*
X185775000Y-110536669D01*
X186175000Y-110536669D01*
X186300904Y-110512241D01*
X186301438Y-110511889D01*
X186425000Y-110536669D01*
X186825000Y-110536669D01*
X186843200Y-110533137D01*
X186843200Y-111779278D01*
X186735503Y-111886787D01*
X186638627Y-112120092D01*
X186638406Y-112372710D01*
X186734876Y-112606183D01*
X186913348Y-112784968D01*
X186965947Y-112806808D01*
G36*
X189204526Y-117232399D02*
X188059987Y-117232399D01*
X188046503Y-117223389D01*
X187881260Y-117190520D01*
X186967917Y-117190520D01*
X186809380Y-117031982D01*
X186809380Y-116581030D01*
X186800224Y-116535000D01*
X186779484Y-116430734D01*
X186883750Y-116535000D01*
X186951310Y-116535000D01*
X187184699Y-116438327D01*
X187363327Y-116259698D01*
X187372865Y-116236669D01*
X187475000Y-116236669D01*
X187600904Y-116212241D01*
X187601438Y-116211889D01*
X187725000Y-116236669D01*
X188125000Y-116236669D01*
X188250904Y-116212241D01*
X188251438Y-116211889D01*
X188375000Y-116236669D01*
X188775000Y-116236669D01*
X188900904Y-116212241D01*
X189011562Y-116139550D01*
X189075544Y-116044763D01*
X189097686Y-116098349D01*
X189204526Y-116205376D01*
X189204526Y-117232399D01*
X189204526Y-117232399D01*
G37*
X189204526Y-117232399D02*
X188059987Y-117232399D01*
X188046503Y-117223389D01*
X187881260Y-117190520D01*
X186967917Y-117190520D01*
X186809380Y-117031982D01*
X186809380Y-116581030D01*
X186800224Y-116535000D01*
X186779484Y-116430734D01*
X186883750Y-116535000D01*
X186951310Y-116535000D01*
X187184699Y-116438327D01*
X187363327Y-116259698D01*
X187372865Y-116236669D01*
X187475000Y-116236669D01*
X187600904Y-116212241D01*
X187601438Y-116211889D01*
X187725000Y-116236669D01*
X188125000Y-116236669D01*
X188250904Y-116212241D01*
X188251438Y-116211889D01*
X188375000Y-116236669D01*
X188775000Y-116236669D01*
X188900904Y-116212241D01*
X189011562Y-116139550D01*
X189075544Y-116044763D01*
X189097686Y-116098349D01*
X189204526Y-116205376D01*
X189204526Y-117232399D01*
G36*
X195619800Y-117008311D02*
X195605833Y-116998884D01*
X195476020Y-116972851D01*
X194724020Y-116972851D01*
X194724020Y-116785770D01*
X194724020Y-115936520D01*
X194724020Y-115682520D01*
X194724020Y-114833270D01*
X194565270Y-114674520D01*
X194352329Y-114674520D01*
X194099710Y-114674520D01*
X193866321Y-114771193D01*
X193809620Y-114827894D01*
X193752919Y-114771193D01*
X193519530Y-114674520D01*
X193266911Y-114674520D01*
X193053970Y-114674520D01*
X192895220Y-114833270D01*
X192895220Y-115682520D01*
X193749770Y-115682520D01*
X193869470Y-115682520D01*
X194724020Y-115682520D01*
X194724020Y-115936520D01*
X193869470Y-115936520D01*
X193749770Y-115936520D01*
X192895220Y-115936520D01*
X192895220Y-116785770D01*
X193053970Y-116944520D01*
X193266911Y-116944520D01*
X193519530Y-116944520D01*
X193752919Y-116847847D01*
X193809620Y-116791145D01*
X193866321Y-116847847D01*
X194099710Y-116944520D01*
X194352329Y-116944520D01*
X194565270Y-116944520D01*
X194724020Y-116785770D01*
X194724020Y-116972851D01*
X194226020Y-116972851D01*
X194100116Y-116997279D01*
X193989458Y-117069970D01*
X193915384Y-117179707D01*
X193889351Y-117309520D01*
X193889351Y-118309520D01*
X193907153Y-118401273D01*
X193822753Y-118417648D01*
X193736700Y-118400391D01*
X193711665Y-118400391D01*
X193729889Y-118309520D01*
X193729889Y-117309520D01*
X193705461Y-117183616D01*
X193632770Y-117072958D01*
X193523033Y-116998884D01*
X193393220Y-116972851D01*
X192641220Y-116972851D01*
X192641220Y-116785770D01*
X192641220Y-115936520D01*
X192641220Y-115682520D01*
X192641220Y-114833270D01*
X192482470Y-114674520D01*
X192269529Y-114674520D01*
X192016910Y-114674520D01*
X191783521Y-114771193D01*
X191604893Y-114949822D01*
X191508220Y-115183211D01*
X191508220Y-115523770D01*
X191666970Y-115682520D01*
X192641220Y-115682520D01*
X192641220Y-115936520D01*
X191666970Y-115936520D01*
X191508220Y-116095270D01*
X191508220Y-116435829D01*
X191604893Y-116669218D01*
X191783521Y-116847847D01*
X192016910Y-116944520D01*
X192269529Y-116944520D01*
X192482470Y-116944520D01*
X192641220Y-116785770D01*
X192641220Y-116972851D01*
X192143220Y-116972851D01*
X192017316Y-116997279D01*
X191906658Y-117069970D01*
X191832584Y-117179707D01*
X191806551Y-117309520D01*
X191806551Y-118309520D01*
X191830979Y-118435424D01*
X191903670Y-118546082D01*
X192013407Y-118620156D01*
X192076700Y-118632848D01*
X192076700Y-118751310D01*
X192235450Y-118910060D01*
X192767950Y-118910060D01*
X192767950Y-118890060D01*
X192775031Y-118890060D01*
X192775031Y-119337060D01*
X192799459Y-119462964D01*
X192872150Y-119573622D01*
X192880450Y-119579224D01*
X192880450Y-119813310D01*
X193039200Y-119972060D01*
X193063009Y-119972060D01*
X193296398Y-119875387D01*
X193475027Y-119696759D01*
X193486647Y-119668704D01*
X193511700Y-119673729D01*
X193618948Y-119673729D01*
X193625269Y-119705503D01*
X193718871Y-119845589D01*
X193830391Y-119957109D01*
X193970477Y-120050711D01*
X193970478Y-120050711D01*
X194036318Y-120063807D01*
X193952002Y-120098733D01*
X193773373Y-120277361D01*
X193761752Y-120305415D01*
X193736700Y-120300391D01*
X193511700Y-120300391D01*
X193422753Y-120317648D01*
X193336700Y-120300391D01*
X193111700Y-120300391D01*
X193022753Y-120317648D01*
X192936700Y-120300391D01*
X192767950Y-120300391D01*
X192767950Y-119813310D01*
X192767950Y-119164060D01*
X192235450Y-119164060D01*
X192076700Y-119322810D01*
X192076700Y-119463370D01*
X192173373Y-119696759D01*
X192352002Y-119875387D01*
X192585391Y-119972060D01*
X192609200Y-119972060D01*
X192767950Y-119813310D01*
X192767950Y-120300391D01*
X192711700Y-120300391D01*
X192585796Y-120324819D01*
X192475138Y-120397510D01*
X192401064Y-120507247D01*
X192375031Y-120637060D01*
X192375031Y-121237060D01*
X192392400Y-121326581D01*
X192392400Y-122416460D01*
X192346068Y-122370047D01*
X192112763Y-122273171D01*
X191961536Y-122273038D01*
X191693800Y-122005302D01*
X191693800Y-119380000D01*
X191660931Y-119214757D01*
X191567329Y-119074671D01*
X191313329Y-118820671D01*
X191173243Y-118727069D01*
X191008000Y-118694200D01*
X190373415Y-118694200D01*
X190378469Y-118669000D01*
X190378469Y-117969000D01*
X190354041Y-117843096D01*
X190281350Y-117732438D01*
X190171613Y-117658364D01*
X190043503Y-117632672D01*
X190068126Y-117508886D01*
X190068126Y-116205316D01*
X190174339Y-116099289D01*
X190271215Y-115865984D01*
X190271436Y-115613366D01*
X190174966Y-115379893D01*
X190113821Y-115318641D01*
X190230905Y-115270263D01*
X190438295Y-115063235D01*
X190550672Y-114792602D01*
X190550785Y-114663196D01*
X190823827Y-114390153D01*
X190823831Y-114390151D01*
X190823831Y-114390150D01*
X190939457Y-114217103D01*
X190955456Y-114136669D01*
X191150000Y-114136669D01*
X191275904Y-114112241D01*
X191386562Y-114039550D01*
X191424464Y-113983400D01*
X191575527Y-113983400D01*
X191610450Y-114036562D01*
X191720187Y-114110636D01*
X191850000Y-114136669D01*
X193150000Y-114136669D01*
X193275904Y-114112241D01*
X193386562Y-114039550D01*
X193424464Y-113983400D01*
X193575527Y-113983400D01*
X193610450Y-114036562D01*
X193720187Y-114110636D01*
X193850000Y-114136669D01*
X195150000Y-114136669D01*
X195275904Y-114112241D01*
X195386562Y-114039550D01*
X195460636Y-113929813D01*
X195486669Y-113800000D01*
X195486669Y-113100000D01*
X195462241Y-112974096D01*
X195389550Y-112863438D01*
X195279813Y-112789364D01*
X195150000Y-112763331D01*
X193850000Y-112763331D01*
X193724096Y-112787759D01*
X193613438Y-112860450D01*
X193575535Y-112916600D01*
X193424472Y-112916600D01*
X193389550Y-112863438D01*
X193279813Y-112789364D01*
X193150000Y-112763331D01*
X192450526Y-112763331D01*
X192805325Y-112408531D01*
X192805328Y-112408529D01*
X192805329Y-112408529D01*
X192898931Y-112268443D01*
X192905251Y-112236669D01*
X193150000Y-112236669D01*
X193275904Y-112212241D01*
X193386562Y-112139550D01*
X193460636Y-112029813D01*
X193486669Y-111900000D01*
X193486669Y-111326999D01*
X193513331Y-111326999D01*
X193513331Y-111900000D01*
X193537759Y-112025904D01*
X193610450Y-112136562D01*
X193720187Y-112210636D01*
X193850000Y-112236669D01*
X195150000Y-112236669D01*
X195275904Y-112212241D01*
X195386562Y-112139550D01*
X195460636Y-112029813D01*
X195486669Y-111900000D01*
X195486669Y-111200000D01*
X195462241Y-111074096D01*
X195389550Y-110963438D01*
X195279813Y-110889364D01*
X195150000Y-110863331D01*
X194905252Y-110863331D01*
X194898932Y-110831558D01*
X194898931Y-110831557D01*
X194867872Y-110785074D01*
X194805329Y-110691472D01*
X194805329Y-110691471D01*
X194805325Y-110691468D01*
X194703728Y-110589870D01*
X194563642Y-110496268D01*
X194398399Y-110463399D01*
X191606159Y-110463399D01*
X191440916Y-110496268D01*
X191300830Y-110589870D01*
X191300827Y-110589873D01*
X191239870Y-110650830D01*
X191146268Y-110790916D01*
X191131863Y-110863331D01*
X189850000Y-110863331D01*
X189724096Y-110887759D01*
X189613438Y-110960450D01*
X189539364Y-111070187D01*
X189529735Y-111118200D01*
X187970471Y-111118200D01*
X187805228Y-111151069D01*
X187706800Y-111216836D01*
X187706800Y-110835000D01*
X187706800Y-110794450D01*
X187825000Y-110676250D01*
X187825000Y-110531516D01*
X187836673Y-110559698D01*
X188015301Y-110738327D01*
X188137830Y-110789080D01*
X188183750Y-110835000D01*
X188248690Y-110835000D01*
X188251310Y-110835000D01*
X188316250Y-110835000D01*
X188362169Y-110789080D01*
X188484699Y-110738327D01*
X188663327Y-110559698D01*
X188675000Y-110531516D01*
X188675000Y-110676250D01*
X188833750Y-110835000D01*
X188901310Y-110835000D01*
X189134699Y-110738327D01*
X189313327Y-110559698D01*
X189410000Y-110326309D01*
X189410000Y-109935750D01*
X189251250Y-109777000D01*
X188675000Y-109777000D01*
X188675000Y-109850750D01*
X188601250Y-109777000D01*
X188475000Y-109777000D01*
X188428000Y-109777000D01*
X188428000Y-109523000D01*
X188475000Y-109523000D01*
X188601250Y-109523000D01*
X188621250Y-109503000D01*
X188675000Y-109503000D01*
X188675000Y-109523000D01*
X189251250Y-109523000D01*
X189410000Y-109364250D01*
X189410000Y-108973691D01*
X189313327Y-108740302D01*
X189162052Y-108589026D01*
X189281329Y-108509329D01*
X190154325Y-107636331D01*
X190154328Y-107636329D01*
X190154329Y-107636329D01*
X190247931Y-107496243D01*
X190278598Y-107342069D01*
X190499000Y-107342069D01*
X190624904Y-107317641D01*
X190735562Y-107244950D01*
X190809636Y-107135213D01*
X190835669Y-107005400D01*
X190835669Y-106332030D01*
X194271890Y-106332030D01*
X194437132Y-106299161D01*
X194437133Y-106299161D01*
X194577219Y-106205559D01*
X195308745Y-105474031D01*
X195308749Y-105474029D01*
X195308749Y-105474028D01*
X195371292Y-105380426D01*
X195402351Y-105333943D01*
X195402352Y-105333942D01*
X195435220Y-105168700D01*
X195435221Y-105168700D01*
X195435220Y-105168694D01*
X195435220Y-102589435D01*
X195541433Y-102483408D01*
X195619800Y-102294677D01*
X195619800Y-114681756D01*
X195602330Y-114674520D01*
X195349711Y-114674520D01*
X195136770Y-114674520D01*
X194978020Y-114833270D01*
X194978020Y-115682520D01*
X194998020Y-115682520D01*
X194998020Y-115936520D01*
X194978020Y-115936520D01*
X194978020Y-116785770D01*
X195136770Y-116944520D01*
X195349711Y-116944520D01*
X195602330Y-116944520D01*
X195619800Y-116937283D01*
X195619800Y-117008311D01*
X195619800Y-117008311D01*
G37*
X195619800Y-117008311D02*
X195605833Y-116998884D01*
X195476020Y-116972851D01*
X194724020Y-116972851D01*
X194724020Y-116785770D01*
X194724020Y-115936520D01*
X194724020Y-115682520D01*
X194724020Y-114833270D01*
X194565270Y-114674520D01*
X194352329Y-114674520D01*
X194099710Y-114674520D01*
X193866321Y-114771193D01*
X193809620Y-114827894D01*
X193752919Y-114771193D01*
X193519530Y-114674520D01*
X193266911Y-114674520D01*
X193053970Y-114674520D01*
X192895220Y-114833270D01*
X192895220Y-115682520D01*
X193749770Y-115682520D01*
X193869470Y-115682520D01*
X194724020Y-115682520D01*
X194724020Y-115936520D01*
X193869470Y-115936520D01*
X193749770Y-115936520D01*
X192895220Y-115936520D01*
X192895220Y-116785770D01*
X193053970Y-116944520D01*
X193266911Y-116944520D01*
X193519530Y-116944520D01*
X193752919Y-116847847D01*
X193809620Y-116791145D01*
X193866321Y-116847847D01*
X194099710Y-116944520D01*
X194352329Y-116944520D01*
X194565270Y-116944520D01*
X194724020Y-116785770D01*
X194724020Y-116972851D01*
X194226020Y-116972851D01*
X194100116Y-116997279D01*
X193989458Y-117069970D01*
X193915384Y-117179707D01*
X193889351Y-117309520D01*
X193889351Y-118309520D01*
X193907153Y-118401273D01*
X193822753Y-118417648D01*
X193736700Y-118400391D01*
X193711665Y-118400391D01*
X193729889Y-118309520D01*
X193729889Y-117309520D01*
X193705461Y-117183616D01*
X193632770Y-117072958D01*
X193523033Y-116998884D01*
X193393220Y-116972851D01*
X192641220Y-116972851D01*
X192641220Y-116785770D01*
X192641220Y-115936520D01*
X192641220Y-115682520D01*
X192641220Y-114833270D01*
X192482470Y-114674520D01*
X192269529Y-114674520D01*
X192016910Y-114674520D01*
X191783521Y-114771193D01*
X191604893Y-114949822D01*
X191508220Y-115183211D01*
X191508220Y-115523770D01*
X191666970Y-115682520D01*
X192641220Y-115682520D01*
X192641220Y-115936520D01*
X191666970Y-115936520D01*
X191508220Y-116095270D01*
X191508220Y-116435829D01*
X191604893Y-116669218D01*
X191783521Y-116847847D01*
X192016910Y-116944520D01*
X192269529Y-116944520D01*
X192482470Y-116944520D01*
X192641220Y-116785770D01*
X192641220Y-116972851D01*
X192143220Y-116972851D01*
X192017316Y-116997279D01*
X191906658Y-117069970D01*
X191832584Y-117179707D01*
X191806551Y-117309520D01*
X191806551Y-118309520D01*
X191830979Y-118435424D01*
X191903670Y-118546082D01*
X192013407Y-118620156D01*
X192076700Y-118632848D01*
X192076700Y-118751310D01*
X192235450Y-118910060D01*
X192767950Y-118910060D01*
X192767950Y-118890060D01*
X192775031Y-118890060D01*
X192775031Y-119337060D01*
X192799459Y-119462964D01*
X192872150Y-119573622D01*
X192880450Y-119579224D01*
X192880450Y-119813310D01*
X193039200Y-119972060D01*
X193063009Y-119972060D01*
X193296398Y-119875387D01*
X193475027Y-119696759D01*
X193486647Y-119668704D01*
X193511700Y-119673729D01*
X193618948Y-119673729D01*
X193625269Y-119705503D01*
X193718871Y-119845589D01*
X193830391Y-119957109D01*
X193970477Y-120050711D01*
X193970478Y-120050711D01*
X194036318Y-120063807D01*
X193952002Y-120098733D01*
X193773373Y-120277361D01*
X193761752Y-120305415D01*
X193736700Y-120300391D01*
X193511700Y-120300391D01*
X193422753Y-120317648D01*
X193336700Y-120300391D01*
X193111700Y-120300391D01*
X193022753Y-120317648D01*
X192936700Y-120300391D01*
X192767950Y-120300391D01*
X192767950Y-119813310D01*
X192767950Y-119164060D01*
X192235450Y-119164060D01*
X192076700Y-119322810D01*
X192076700Y-119463370D01*
X192173373Y-119696759D01*
X192352002Y-119875387D01*
X192585391Y-119972060D01*
X192609200Y-119972060D01*
X192767950Y-119813310D01*
X192767950Y-120300391D01*
X192711700Y-120300391D01*
X192585796Y-120324819D01*
X192475138Y-120397510D01*
X192401064Y-120507247D01*
X192375031Y-120637060D01*
X192375031Y-121237060D01*
X192392400Y-121326581D01*
X192392400Y-122416460D01*
X192346068Y-122370047D01*
X192112763Y-122273171D01*
X191961536Y-122273038D01*
X191693800Y-122005302D01*
X191693800Y-119380000D01*
X191660931Y-119214757D01*
X191567329Y-119074671D01*
X191313329Y-118820671D01*
X191173243Y-118727069D01*
X191008000Y-118694200D01*
X190373415Y-118694200D01*
X190378469Y-118669000D01*
X190378469Y-117969000D01*
X190354041Y-117843096D01*
X190281350Y-117732438D01*
X190171613Y-117658364D01*
X190043503Y-117632672D01*
X190068126Y-117508886D01*
X190068126Y-116205316D01*
X190174339Y-116099289D01*
X190271215Y-115865984D01*
X190271436Y-115613366D01*
X190174966Y-115379893D01*
X190113821Y-115318641D01*
X190230905Y-115270263D01*
X190438295Y-115063235D01*
X190550672Y-114792602D01*
X190550785Y-114663196D01*
X190823827Y-114390153D01*
X190823831Y-114390151D01*
X190823831Y-114390150D01*
X190939457Y-114217103D01*
X190955456Y-114136669D01*
X191150000Y-114136669D01*
X191275904Y-114112241D01*
X191386562Y-114039550D01*
X191424464Y-113983400D01*
X191575527Y-113983400D01*
X191610450Y-114036562D01*
X191720187Y-114110636D01*
X191850000Y-114136669D01*
X193150000Y-114136669D01*
X193275904Y-114112241D01*
X193386562Y-114039550D01*
X193424464Y-113983400D01*
X193575527Y-113983400D01*
X193610450Y-114036562D01*
X193720187Y-114110636D01*
X193850000Y-114136669D01*
X195150000Y-114136669D01*
X195275904Y-114112241D01*
X195386562Y-114039550D01*
X195460636Y-113929813D01*
X195486669Y-113800000D01*
X195486669Y-113100000D01*
X195462241Y-112974096D01*
X195389550Y-112863438D01*
X195279813Y-112789364D01*
X195150000Y-112763331D01*
X193850000Y-112763331D01*
X193724096Y-112787759D01*
X193613438Y-112860450D01*
X193575535Y-112916600D01*
X193424472Y-112916600D01*
X193389550Y-112863438D01*
X193279813Y-112789364D01*
X193150000Y-112763331D01*
X192450526Y-112763331D01*
X192805325Y-112408531D01*
X192805328Y-112408529D01*
X192805329Y-112408529D01*
X192898931Y-112268443D01*
X192905251Y-112236669D01*
X193150000Y-112236669D01*
X193275904Y-112212241D01*
X193386562Y-112139550D01*
X193460636Y-112029813D01*
X193486669Y-111900000D01*
X193486669Y-111326999D01*
X193513331Y-111326999D01*
X193513331Y-111900000D01*
X193537759Y-112025904D01*
X193610450Y-112136562D01*
X193720187Y-112210636D01*
X193850000Y-112236669D01*
X195150000Y-112236669D01*
X195275904Y-112212241D01*
X195386562Y-112139550D01*
X195460636Y-112029813D01*
X195486669Y-111900000D01*
X195486669Y-111200000D01*
X195462241Y-111074096D01*
X195389550Y-110963438D01*
X195279813Y-110889364D01*
X195150000Y-110863331D01*
X194905252Y-110863331D01*
X194898932Y-110831558D01*
X194898931Y-110831557D01*
X194867872Y-110785074D01*
X194805329Y-110691472D01*
X194805329Y-110691471D01*
X194805325Y-110691468D01*
X194703728Y-110589870D01*
X194563642Y-110496268D01*
X194398399Y-110463399D01*
X191606159Y-110463399D01*
X191440916Y-110496268D01*
X191300830Y-110589870D01*
X191300827Y-110589873D01*
X191239870Y-110650830D01*
X191146268Y-110790916D01*
X191131863Y-110863331D01*
X189850000Y-110863331D01*
X189724096Y-110887759D01*
X189613438Y-110960450D01*
X189539364Y-111070187D01*
X189529735Y-111118200D01*
X187970471Y-111118200D01*
X187805228Y-111151069D01*
X187706800Y-111216836D01*
X187706800Y-110835000D01*
X187706800Y-110794450D01*
X187825000Y-110676250D01*
X187825000Y-110531516D01*
X187836673Y-110559698D01*
X188015301Y-110738327D01*
X188137830Y-110789080D01*
X188183750Y-110835000D01*
X188248690Y-110835000D01*
X188251310Y-110835000D01*
X188316250Y-110835000D01*
X188362169Y-110789080D01*
X188484699Y-110738327D01*
X188663327Y-110559698D01*
X188675000Y-110531516D01*
X188675000Y-110676250D01*
X188833750Y-110835000D01*
X188901310Y-110835000D01*
X189134699Y-110738327D01*
X189313327Y-110559698D01*
X189410000Y-110326309D01*
X189410000Y-109935750D01*
X189251250Y-109777000D01*
X188675000Y-109777000D01*
X188675000Y-109850750D01*
X188601250Y-109777000D01*
X188475000Y-109777000D01*
X188428000Y-109777000D01*
X188428000Y-109523000D01*
X188475000Y-109523000D01*
X188601250Y-109523000D01*
X188621250Y-109503000D01*
X188675000Y-109503000D01*
X188675000Y-109523000D01*
X189251250Y-109523000D01*
X189410000Y-109364250D01*
X189410000Y-108973691D01*
X189313327Y-108740302D01*
X189162052Y-108589026D01*
X189281329Y-108509329D01*
X190154325Y-107636331D01*
X190154328Y-107636329D01*
X190154329Y-107636329D01*
X190247931Y-107496243D01*
X190278598Y-107342069D01*
X190499000Y-107342069D01*
X190624904Y-107317641D01*
X190735562Y-107244950D01*
X190809636Y-107135213D01*
X190835669Y-107005400D01*
X190835669Y-106332030D01*
X194271890Y-106332030D01*
X194437132Y-106299161D01*
X194437133Y-106299161D01*
X194577219Y-106205559D01*
X195308745Y-105474031D01*
X195308749Y-105474029D01*
X195308749Y-105474028D01*
X195371292Y-105380426D01*
X195402351Y-105333943D01*
X195402352Y-105333942D01*
X195435220Y-105168700D01*
X195435221Y-105168700D01*
X195435220Y-105168694D01*
X195435220Y-102589435D01*
X195541433Y-102483408D01*
X195619800Y-102294677D01*
X195619800Y-114681756D01*
X195602330Y-114674520D01*
X195349711Y-114674520D01*
X195136770Y-114674520D01*
X194978020Y-114833270D01*
X194978020Y-115682520D01*
X194998020Y-115682520D01*
X194998020Y-115936520D01*
X194978020Y-115936520D01*
X194978020Y-116785770D01*
X195136770Y-116944520D01*
X195349711Y-116944520D01*
X195602330Y-116944520D01*
X195619800Y-116937283D01*
X195619800Y-117008311D01*
M02*
