G75*
%MOIN*%
%OFA0B0*%
%FSLAX24Y24*%
%IPPOS*%
%LPD*%
%AMOC8*
5,1,8,0,0,1.08239X$1,22.5*
%
%ADD10R,0.0512X0.0591*%
%ADD11R,0.0512X0.0630*%
%ADD12R,0.0591X0.0591*%
%ADD13R,0.0630X0.0512*%
%ADD14R,0.0591X0.0512*%
%ADD15R,0.0610X0.0512*%
%ADD16R,0.0748X0.0551*%
%ADD17R,0.0630X0.1181*%
%ADD18R,0.0110X0.0410*%
%ADD19R,0.0787X0.0984*%
%ADD20R,0.0787X0.1299*%
%ADD21R,0.0197X0.1220*%
D10*
X015285Y014302D03*
X015955Y014302D03*
X023445Y016082D03*
X024115Y016082D03*
X020435Y017222D03*
X019765Y017222D03*
X014275Y018242D03*
X013605Y018242D03*
X009735Y021322D03*
X009065Y021322D03*
D11*
X008474Y021322D03*
X007726Y021322D03*
X019866Y014642D03*
X020614Y014642D03*
D12*
X011420Y018133D03*
X010560Y018133D03*
X010560Y019511D03*
X011420Y019511D03*
D13*
X011420Y017516D03*
X010580Y017496D03*
X010580Y016748D03*
X011420Y016768D03*
X010560Y016016D03*
X010560Y015268D03*
X016340Y019628D03*
X016340Y020376D03*
D14*
X021260Y019577D03*
X021260Y018907D03*
D15*
X009425Y018736D03*
X009385Y017668D03*
X006255Y017668D03*
X006295Y018736D03*
X006295Y020508D03*
X009425Y020508D03*
X009385Y015896D03*
X006255Y015896D03*
D16*
X018834Y017950D03*
X020566Y017950D03*
X020566Y018894D03*
X018834Y018894D03*
D17*
X018760Y006628D03*
X016380Y006628D03*
X014140Y006668D03*
X014140Y004936D03*
X016380Y004896D03*
X018760Y004896D03*
D18*
G36*
X016679Y014733D02*
X016602Y014656D01*
X016313Y014945D01*
X016390Y015022D01*
X016679Y014733D01*
G37*
G36*
X016813Y014867D02*
X016736Y014790D01*
X016447Y015079D01*
X016524Y015156D01*
X016813Y014867D01*
G37*
G36*
X016955Y015008D02*
X016878Y014931D01*
X016589Y015220D01*
X016666Y015297D01*
X016955Y015008D01*
G37*
G36*
X017096Y015150D02*
X017019Y015073D01*
X016730Y015362D01*
X016807Y015439D01*
X017096Y015150D01*
G37*
G36*
X017231Y015284D02*
X017154Y015207D01*
X016865Y015496D01*
X016942Y015573D01*
X017231Y015284D01*
G37*
G36*
X017372Y015426D02*
X017295Y015349D01*
X017006Y015638D01*
X017083Y015715D01*
X017372Y015426D01*
G37*
G36*
X017513Y015567D02*
X017436Y015490D01*
X017147Y015779D01*
X017224Y015856D01*
X017513Y015567D01*
G37*
G36*
X017655Y015708D02*
X017578Y015631D01*
X017289Y015920D01*
X017366Y015997D01*
X017655Y015708D01*
G37*
G36*
X017789Y015843D02*
X017712Y015766D01*
X017423Y016055D01*
X017500Y016132D01*
X017789Y015843D01*
G37*
G36*
X017931Y015984D02*
X017854Y015907D01*
X017565Y016196D01*
X017642Y016273D01*
X017931Y015984D01*
G37*
G36*
X018072Y016126D02*
X017995Y016049D01*
X017706Y016338D01*
X017783Y016415D01*
X018072Y016126D01*
G37*
G36*
X018206Y016260D02*
X018129Y016183D01*
X017840Y016472D01*
X017917Y016549D01*
X018206Y016260D01*
G37*
G36*
X018129Y017341D02*
X018206Y017264D01*
X017917Y016975D01*
X017840Y017052D01*
X018129Y017341D01*
G37*
G36*
X017995Y017475D02*
X018072Y017398D01*
X017783Y017109D01*
X017706Y017186D01*
X017995Y017475D01*
G37*
G36*
X017854Y017617D02*
X017931Y017540D01*
X017642Y017251D01*
X017565Y017328D01*
X017854Y017617D01*
G37*
G36*
X017712Y017758D02*
X017789Y017681D01*
X017500Y017392D01*
X017423Y017469D01*
X017712Y017758D01*
G37*
G36*
X017578Y017893D02*
X017655Y017816D01*
X017366Y017527D01*
X017289Y017604D01*
X017578Y017893D01*
G37*
G36*
X017436Y018034D02*
X017513Y017957D01*
X017224Y017668D01*
X017147Y017745D01*
X017436Y018034D01*
G37*
G36*
X017295Y018175D02*
X017372Y018098D01*
X017083Y017809D01*
X017006Y017886D01*
X017295Y018175D01*
G37*
G36*
X017154Y018317D02*
X017231Y018240D01*
X016942Y017951D01*
X016865Y018028D01*
X017154Y018317D01*
G37*
G36*
X017019Y018451D02*
X017096Y018374D01*
X016807Y018085D01*
X016730Y018162D01*
X017019Y018451D01*
G37*
G36*
X016878Y018593D02*
X016955Y018516D01*
X016666Y018227D01*
X016589Y018304D01*
X016878Y018593D01*
G37*
G36*
X016736Y018734D02*
X016813Y018657D01*
X016524Y018368D01*
X016447Y018445D01*
X016736Y018734D01*
G37*
G36*
X016602Y018868D02*
X016679Y018791D01*
X016390Y018502D01*
X016313Y018579D01*
X016602Y018868D01*
G37*
G36*
X015887Y018579D02*
X015810Y018502D01*
X015521Y018791D01*
X015598Y018868D01*
X015887Y018579D01*
G37*
G36*
X015753Y018445D02*
X015676Y018368D01*
X015387Y018657D01*
X015464Y018734D01*
X015753Y018445D01*
G37*
G36*
X015611Y018304D02*
X015534Y018227D01*
X015245Y018516D01*
X015322Y018593D01*
X015611Y018304D01*
G37*
G36*
X015470Y018162D02*
X015393Y018085D01*
X015104Y018374D01*
X015181Y018451D01*
X015470Y018162D01*
G37*
G36*
X015335Y018028D02*
X015258Y017951D01*
X014969Y018240D01*
X015046Y018317D01*
X015335Y018028D01*
G37*
G36*
X015194Y017886D02*
X015117Y017809D01*
X014828Y018098D01*
X014905Y018175D01*
X015194Y017886D01*
G37*
G36*
X015053Y017745D02*
X014976Y017668D01*
X014687Y017957D01*
X014764Y018034D01*
X015053Y017745D01*
G37*
G36*
X014911Y017604D02*
X014834Y017527D01*
X014545Y017816D01*
X014622Y017893D01*
X014911Y017604D01*
G37*
G36*
X014777Y017469D02*
X014700Y017392D01*
X014411Y017681D01*
X014488Y017758D01*
X014777Y017469D01*
G37*
G36*
X014635Y017328D02*
X014558Y017251D01*
X014269Y017540D01*
X014346Y017617D01*
X014635Y017328D01*
G37*
G36*
X014494Y017186D02*
X014417Y017109D01*
X014128Y017398D01*
X014205Y017475D01*
X014494Y017186D01*
G37*
G36*
X014360Y017052D02*
X014283Y016975D01*
X013994Y017264D01*
X014071Y017341D01*
X014360Y017052D01*
G37*
G36*
X014283Y016549D02*
X014360Y016472D01*
X014071Y016183D01*
X013994Y016260D01*
X014283Y016549D01*
G37*
G36*
X014417Y016415D02*
X014494Y016338D01*
X014205Y016049D01*
X014128Y016126D01*
X014417Y016415D01*
G37*
G36*
X014558Y016273D02*
X014635Y016196D01*
X014346Y015907D01*
X014269Y015984D01*
X014558Y016273D01*
G37*
G36*
X014700Y016132D02*
X014777Y016055D01*
X014488Y015766D01*
X014411Y015843D01*
X014700Y016132D01*
G37*
G36*
X014834Y015997D02*
X014911Y015920D01*
X014622Y015631D01*
X014545Y015708D01*
X014834Y015997D01*
G37*
G36*
X014976Y015856D02*
X015053Y015779D01*
X014764Y015490D01*
X014687Y015567D01*
X014976Y015856D01*
G37*
G36*
X015117Y015715D02*
X015194Y015638D01*
X014905Y015349D01*
X014828Y015426D01*
X015117Y015715D01*
G37*
G36*
X015258Y015573D02*
X015335Y015496D01*
X015046Y015207D01*
X014969Y015284D01*
X015258Y015573D01*
G37*
G36*
X015393Y015439D02*
X015470Y015362D01*
X015181Y015073D01*
X015104Y015150D01*
X015393Y015439D01*
G37*
G36*
X015534Y015297D02*
X015611Y015220D01*
X015322Y014931D01*
X015245Y015008D01*
X015534Y015297D01*
G37*
G36*
X015676Y015156D02*
X015753Y015079D01*
X015464Y014790D01*
X015387Y014867D01*
X015676Y015156D01*
G37*
G36*
X015810Y015022D02*
X015887Y014945D01*
X015598Y014656D01*
X015521Y014733D01*
X015810Y015022D01*
G37*
D19*
X007868Y003141D03*
X011372Y003141D03*
D20*
X011372Y005464D03*
X007868Y005464D03*
D21*
X008990Y005503D03*
X009305Y005503D03*
X009620Y005503D03*
X009935Y005503D03*
X010250Y005503D03*
M02*
