%
M48
M72
T01C0.0236
T02C0.0320
T03C0.0354
T04C0.0360
T05C0.0394
T06C0.0400
T07C0.1102
%
T01
X7020Y4322
X8740Y6402
X9340Y6642
X9940Y6642
X10540Y6882
X12180Y6082
X13540Y5082
X15220Y5442
X15780Y5442
X18100Y6962
X16980Y7522
X15540Y7522
X13220Y7282
X14740Y8642
X16580Y9442
X16100Y10162
X16580Y10562
X17260Y11522
X19020Y10722
X19780Y9842
X19780Y9362
X20740Y9042
X20340Y8722
X20100Y8242
X19180Y8162
X20540Y7122
X19620Y6402
X20540Y5362
X24460Y5602
X17380Y3442
X8380Y7242
X11620Y9202
X9180Y9682
X11700Y10802
X12580Y11202
X11700Y11362
X12660Y10642
X13820Y10482
X14740Y12082
X12820Y12722
X10580Y13762
X9300Y14562
X8900Y15362
X8180Y15282
X9700Y15362
X10020Y16082
X8180Y16562
X8900Y17282
X12340Y17282
X13060Y17762
X15700Y17122
X16260Y16802
X16660Y17122
X16580Y17602
X19220Y17362
X19620Y18002
X20900Y17222
X18420Y16162
X16580Y16002
X16340Y15522
X15700Y15762
X14020Y14882
X13620Y14562
X12980Y14002
X14260Y13922
X12180Y14402
X12420Y15282
X13260Y16042
X12500Y16482
X16420Y14162
X16900Y13922
X17300Y14322
X17700Y13922
X18580Y13842
X18980Y14482
X18020Y14482
X18980Y15282
X20260Y15682
X22700Y14882
X24580Y15602
X26100Y15922
X24060Y13282
X22180Y12802
X20260Y13202
X20100Y12722
X22420Y11922
X21940Y11362
X22780Y10882
X21820Y10402
X22780Y9602
X24220Y8722
X24220Y10882
X23860Y12322
X9940Y12562
X7500Y12402
X6540Y10722
X22980Y18802
X22660Y19202
X21860Y19202
X20180Y19522
X20220Y20322
X21140Y21362
X21700Y21762
X18820Y21442
X17220Y21122
X16340Y20882
X14860Y20802
X15620Y19602
X15060Y19362
X16180Y19042
X17380Y18962
X13060Y18882
X12020Y19282
X9060Y19922
X7420Y19682
X7060Y21442
X22740Y20162
X25780Y19602
T02
X21640Y20882
X20640Y20882
X11800Y20882
X10800Y20882
T03
X10486Y4322
X8754Y4322
T04
X12480Y3322
X13480Y3322
X15500Y3382
X16500Y3382
X18480Y3402
X19480Y3402
T05
X16734Y8714
X15466Y8594
X15466Y12531
X16734Y12651
T06
X23920Y16902
X24920Y16902
X24920Y17902
X23920Y17902
X23920Y18902
X24920Y18902
X24920Y19902
X23920Y19902
X23480Y4422
X22480Y4422
X21480Y4422
X21480Y3422
X22480Y3422
X23480Y3422
X24480Y3422
X24480Y4422
T07
X24805Y7139
X7395Y7019
X7395Y14105
X13420Y20162
X18720Y20162
X24805Y14225
M30
