G75*
%MOIN*%
%OFA0B0*%
%FSLAX24Y24*%
%IPPOS*%
%LPD*%
%AMOC8*
5,1,8,0,0,1.08239X$1,22.5*
%
%ADD10R,0.0160X0.0160*%
%ADD11R,0.0512X0.0591*%
%ADD12R,0.0630X0.0512*%
%ADD13C,0.0560*%
%ADD14R,0.0512X0.0630*%
%ADD15R,0.0376X0.0114*%
%ADD16R,0.0114X0.0376*%
%ADD17R,0.0591X0.0512*%
%ADD18OC8,0.0600*%
%ADD19R,0.0217X0.0472*%
%ADD20C,0.0594*%
%ADD21R,0.0560X0.0110*%
%ADD22R,0.0680X0.0860*%
%ADD23R,0.0220X0.0500*%
%ADD24R,0.0551X0.1102*%
%ADD25OC8,0.0520*%
%ADD26R,0.0551X0.0394*%
%ADD27R,0.0591X0.0591*%
%ADD28R,0.0536X0.0283*%
%ADD29C,0.0240*%
%ADD30C,0.0396*%
%ADD31C,0.0120*%
%ADD32C,0.0320*%
%ADD33C,0.0160*%
%ADD34C,0.0100*%
D10*
X010660Y013362D03*
D11*
X009955Y014082D03*
X009285Y014082D03*
X009445Y010962D03*
X010115Y010962D03*
X013405Y008562D03*
X014075Y008562D03*
X013965Y007382D03*
X014635Y007382D03*
X014635Y006762D03*
X013965Y006762D03*
X011275Y007562D03*
X010605Y007562D03*
X009675Y007762D03*
X009005Y007762D03*
X017165Y010642D03*
X017835Y010642D03*
X017585Y008342D03*
X018255Y008342D03*
X018295Y007642D03*
X017625Y007642D03*
X018805Y015902D03*
X019475Y015902D03*
X019445Y016722D03*
X020115Y016722D03*
X022545Y016022D03*
X023215Y016022D03*
D12*
X021860Y015736D03*
X021060Y015736D03*
X021060Y014988D03*
X021860Y014988D03*
X017140Y014908D03*
X017140Y015656D03*
X012420Y017948D03*
X012420Y018696D03*
X011460Y015576D03*
X011460Y014828D03*
X013460Y013076D03*
X014240Y013076D03*
X014240Y012328D03*
X013460Y012328D03*
X025860Y018108D03*
X025860Y018856D03*
D13*
X019480Y003682D02*
X019480Y003122D01*
X018480Y003122D02*
X018480Y003682D01*
X016500Y003662D02*
X016500Y003102D01*
X015500Y003102D02*
X015500Y003662D01*
X013480Y003602D02*
X013480Y003042D01*
X012480Y003042D02*
X012480Y003602D01*
D14*
X014206Y004962D03*
X014954Y004962D03*
X013914Y005842D03*
X013166Y005842D03*
X011334Y008282D03*
X010586Y008282D03*
X009714Y008442D03*
X008966Y008442D03*
X014866Y013842D03*
X015614Y013842D03*
X015034Y015522D03*
X014286Y015522D03*
X014234Y018402D03*
X013486Y018402D03*
X010714Y018402D03*
X009966Y018402D03*
X009514Y021362D03*
X008766Y021362D03*
X017966Y018402D03*
X018714Y018402D03*
X021566Y018562D03*
X022314Y018562D03*
D15*
X010608Y013054D03*
X010608Y012857D03*
X010608Y012660D03*
X010608Y012464D03*
X010608Y012267D03*
X010608Y012070D03*
X009032Y012070D03*
X009032Y012267D03*
X009032Y012464D03*
X009032Y012660D03*
X009032Y012857D03*
X009032Y013054D03*
D16*
X009328Y013350D03*
X009525Y013350D03*
X009722Y013350D03*
X009918Y013350D03*
X010115Y013350D03*
X010312Y013350D03*
X010312Y011774D03*
X010115Y011774D03*
X009918Y011774D03*
X009722Y011774D03*
X009525Y011774D03*
X009328Y011774D03*
D17*
X008420Y012387D03*
X008420Y013057D03*
X011300Y013137D03*
X011300Y012467D03*
X012980Y016627D03*
X012980Y017297D03*
X010540Y006057D03*
X010540Y005387D03*
X012620Y005097D03*
X012620Y004427D03*
D18*
X021480Y004422D03*
X022480Y004422D03*
X023480Y004422D03*
X024480Y004422D03*
X024480Y003422D03*
X023480Y003422D03*
X022480Y003422D03*
X021480Y003422D03*
X023920Y016902D03*
X024920Y016902D03*
X024920Y017902D03*
X023920Y017902D03*
X023920Y018902D03*
X024920Y018902D03*
X024920Y019902D03*
X023920Y019902D03*
D19*
X011914Y005994D03*
X011540Y005994D03*
X011166Y005994D03*
X011166Y004970D03*
X011914Y004970D03*
D20*
X015466Y008594D03*
X016734Y008714D03*
X016734Y012651D03*
X015466Y012531D03*
D21*
X014640Y009992D03*
X014640Y009802D03*
X014640Y009602D03*
X014640Y009402D03*
X014640Y009212D03*
X012920Y009212D03*
X012920Y009402D03*
X012920Y009602D03*
X012920Y009802D03*
X012920Y009992D03*
X017240Y010032D03*
X017240Y009842D03*
X017240Y009642D03*
X017240Y009442D03*
X017240Y009252D03*
X018960Y009252D03*
X018960Y009442D03*
X018960Y009642D03*
X018960Y009842D03*
X018960Y010032D03*
D22*
X018100Y009642D03*
X013780Y009602D03*
D23*
X017160Y006642D03*
X017540Y006642D03*
X017920Y006642D03*
X017920Y005682D03*
X017160Y005682D03*
D24*
X017068Y004642D03*
X018012Y004642D03*
D25*
X020640Y020882D03*
X021640Y020882D03*
X011800Y020882D03*
X010800Y020882D03*
D26*
X022133Y014456D03*
X021267Y014082D03*
X022133Y013708D03*
D27*
X021060Y016433D03*
X021060Y017811D03*
X017140Y017811D03*
X015460Y017731D03*
X015460Y016353D03*
X017140Y016433D03*
X011700Y016273D03*
X011700Y017651D03*
D28*
X010716Y017677D03*
X010716Y017295D03*
X010716Y016913D03*
X009964Y016909D03*
X009964Y016528D03*
X010716Y016531D03*
X009964Y017291D03*
X009964Y017673D03*
X013724Y017753D03*
X013724Y017371D03*
X013724Y016989D03*
X014476Y016993D03*
X014476Y017375D03*
X014476Y017757D03*
X017964Y017753D03*
X017964Y017371D03*
X017964Y016989D03*
X017964Y016608D03*
X018716Y016611D03*
X018716Y016993D03*
X018716Y017375D03*
X018716Y017757D03*
X021804Y017753D03*
X021804Y017371D03*
X021804Y016989D03*
X022556Y016993D03*
X022556Y017375D03*
X022556Y017757D03*
X022556Y016611D03*
X021804Y016608D03*
X014476Y016611D03*
X013724Y016608D03*
D29*
X012980Y016627D02*
X012645Y016627D01*
X012500Y016482D01*
X011740Y017242D01*
X011740Y017402D01*
X011700Y017442D02*
X011220Y016962D01*
X011220Y016242D01*
X010340Y015362D01*
X009700Y015362D01*
X010260Y014802D01*
X010340Y014802D01*
X011300Y013842D01*
X011300Y013137D01*
X012820Y012882D02*
X012980Y013042D01*
X013140Y013042D01*
X013174Y013076D01*
X013460Y013076D02*
X014240Y013076D01*
X014366Y013202D02*
X015540Y013202D01*
X015940Y013202D01*
X016500Y013762D01*
X016500Y014082D01*
X016420Y014162D01*
X016500Y013762D02*
X018020Y012242D01*
X022100Y012242D01*
X022340Y012242D01*
X022420Y012162D01*
X022420Y011922D01*
X022340Y012242D02*
X023780Y012242D01*
X023860Y012322D01*
X020260Y015682D02*
X020115Y015827D01*
X020115Y016722D01*
X023215Y016197D02*
X023215Y016022D01*
X023215Y016197D02*
X023920Y016902D01*
X012820Y012882D02*
X012820Y012722D01*
X008180Y015282D02*
X008180Y016082D01*
X008420Y016322D01*
X008420Y016562D01*
X008420Y016322D02*
X008180Y016562D01*
X017585Y008342D02*
X017625Y008302D01*
X017625Y007642D01*
X017540Y007557D01*
X017540Y006642D01*
X017540Y006242D01*
X017460Y006162D01*
X016500Y006162D01*
X015780Y005442D01*
X015220Y005442D02*
X015220Y006002D01*
X015380Y006162D01*
X014780Y006762D01*
X014635Y006762D01*
X014960Y007382D02*
X015780Y006562D01*
X015380Y006162D01*
X015780Y006562D02*
X015860Y006642D01*
X017160Y006642D01*
X017920Y006642D02*
X017920Y006782D01*
X018100Y006962D01*
X018295Y007487D02*
X018295Y007642D01*
X018295Y008302D01*
X018255Y008342D01*
X014960Y007382D02*
X014635Y007382D01*
X013965Y007382D02*
X013965Y007897D01*
X013940Y007922D01*
X011540Y006722D02*
X011380Y006882D01*
X011140Y006882D01*
X011275Y007017D01*
X011275Y007562D01*
X011140Y006882D02*
X010780Y006882D01*
X010540Y006642D01*
X010540Y006057D01*
X010540Y006642D02*
X010540Y006882D01*
X011540Y006722D02*
X011540Y005994D01*
X011540Y006562D01*
X011740Y006762D01*
X012220Y006762D01*
X012620Y006362D01*
X012620Y005842D01*
X013166Y005842D01*
X012620Y005842D02*
X012620Y005097D01*
X013525Y005097D01*
X013540Y005082D01*
X014954Y005176D02*
X014954Y004962D01*
X014954Y005176D02*
X015220Y005442D01*
X017160Y005682D02*
X017160Y004734D01*
X017068Y004642D01*
X017940Y004714D02*
X017940Y004882D01*
X017920Y004902D01*
X017920Y005682D01*
X017920Y005742D01*
X018060Y005882D01*
X018340Y006162D01*
X017940Y004714D02*
X018012Y004642D01*
X012620Y004427D02*
X012620Y004282D01*
X012580Y004242D01*
X011914Y004970D02*
X011914Y005268D01*
X011740Y005442D01*
X010900Y005442D01*
X010845Y005387D01*
X010540Y005387D01*
X009035Y005387D01*
X008740Y005682D01*
X008740Y006402D01*
D30*
X008740Y006402D03*
X009340Y006642D03*
X009940Y006642D03*
X010540Y006882D03*
X012180Y006082D03*
X013540Y005082D03*
X015220Y005442D03*
X015780Y005442D03*
X018100Y006962D03*
X016980Y007522D03*
X015540Y007522D03*
X013220Y007282D03*
X014740Y008642D03*
X016580Y009442D03*
X016100Y010162D03*
X016580Y010562D03*
X017260Y011522D03*
X019020Y010722D03*
X019780Y009842D03*
X019780Y009362D03*
X020740Y009042D03*
X020340Y008722D03*
X020100Y008242D03*
X019180Y008162D03*
X020540Y007122D03*
X019620Y006402D03*
X020540Y005362D03*
X024460Y005602D03*
X017380Y003442D03*
X008380Y007242D03*
X011620Y009202D03*
X009180Y009682D03*
X011700Y010802D03*
X012580Y011202D03*
X011700Y011362D03*
X012660Y010642D03*
X013820Y010482D03*
X014740Y012082D03*
X012820Y012722D03*
X010580Y013762D03*
X009300Y014562D03*
X008900Y015362D03*
X008180Y015282D03*
X009700Y015362D03*
X010020Y016082D03*
X008180Y016562D03*
X008900Y017282D03*
X012340Y017282D03*
X013060Y017762D03*
X015700Y017122D03*
X016260Y016802D03*
X016660Y017122D03*
X016580Y017602D03*
X019220Y017362D03*
X019620Y018002D03*
X020900Y017222D03*
X018420Y016162D03*
X016580Y016002D03*
X016340Y015522D03*
X015700Y015762D03*
X014020Y014882D03*
X013620Y014562D03*
X012980Y014002D03*
X014260Y013922D03*
X012180Y014402D03*
X012420Y015282D03*
X013260Y016042D03*
X012500Y016482D03*
X016420Y014162D03*
X016900Y013922D03*
X017300Y014322D03*
X017700Y013922D03*
X018580Y013842D03*
X018980Y014482D03*
X018020Y014482D03*
X018980Y015282D03*
X020260Y015682D03*
X022700Y014882D03*
X024580Y015602D03*
X026100Y015922D03*
X024060Y013282D03*
X022180Y012802D03*
X020260Y013202D03*
X020100Y012722D03*
X022420Y011922D03*
X021940Y011362D03*
X022780Y010882D03*
X021820Y010402D03*
X022780Y009602D03*
X024220Y008722D03*
X024220Y010882D03*
X023860Y012322D03*
X009940Y012562D03*
X007500Y012402D03*
X006540Y010722D03*
X007020Y004322D03*
X022980Y018802D03*
X022660Y019202D03*
X021860Y019202D03*
X020180Y019522D03*
X020220Y020322D03*
X021140Y021362D03*
X021700Y021762D03*
X018820Y021442D03*
X017220Y021122D03*
X016340Y020882D03*
X014860Y020802D03*
X015620Y019602D03*
X015060Y019362D03*
X016180Y019042D03*
X017380Y018962D03*
X013060Y018882D03*
X012020Y019282D03*
X009060Y019922D03*
X007420Y019682D03*
X007060Y021442D03*
X022740Y020162D03*
X025780Y019602D03*
D31*
X010716Y018400D02*
X010716Y017677D01*
X009964Y017673D02*
X009964Y018400D01*
X009966Y018402D01*
X010714Y018402D02*
X010716Y018400D01*
X009964Y016909D02*
X009964Y016528D01*
X010020Y014147D02*
X009955Y014082D01*
X009285Y014082D02*
X009285Y013343D01*
X009328Y013350D01*
X009525Y013350D01*
X009328Y013350D02*
X009032Y013054D01*
X009032Y012857D01*
X009032Y012660D01*
X009032Y012464D01*
X010608Y012464D02*
X010608Y012267D01*
X010608Y012070D01*
X010608Y012464D02*
X010608Y012660D01*
X010608Y012857D01*
X010100Y013285D02*
X010115Y013350D01*
X009955Y013336D02*
X009918Y013350D01*
X017240Y010032D02*
X017910Y010032D01*
X018020Y009922D01*
X018020Y009842D01*
X018020Y009722D01*
X018100Y009642D01*
X018960Y009642D01*
X018100Y009642D02*
X017900Y009442D01*
X017240Y009442D01*
X017240Y009642D02*
X016780Y009642D01*
X016580Y009442D01*
X014640Y009212D02*
X013850Y009212D01*
X013660Y009402D01*
X013620Y009442D01*
X013780Y009602D01*
X013980Y009802D01*
X014640Y009802D01*
X013780Y009602D02*
X012920Y009602D01*
X012920Y009402D02*
X013580Y009402D01*
X013620Y009442D01*
X010605Y008263D02*
X010586Y008282D01*
X010605Y008263D02*
X010605Y007562D01*
X009940Y006897D01*
X009940Y006642D01*
D32*
X012620Y005097D02*
X012660Y005137D01*
X012660Y008242D01*
X012980Y008562D01*
X013405Y008562D01*
X013405Y008827D01*
X013620Y009042D01*
X013620Y009362D01*
X013660Y009402D01*
X013405Y008562D02*
X013380Y008537D01*
X013380Y008002D01*
X013460Y007922D01*
X013940Y007922D01*
X016980Y007922D01*
X017620Y008562D01*
X017620Y008377D02*
X017585Y008342D01*
X017620Y008377D02*
X017620Y008802D01*
X018100Y009282D01*
X018100Y009642D01*
X014740Y008642D02*
X014155Y008642D01*
X014075Y008562D01*
X016980Y007522D02*
X017015Y007557D01*
X017540Y007557D01*
X018295Y007487D02*
X018775Y007487D01*
X018900Y007362D01*
X018900Y006722D01*
X018580Y006402D01*
X019620Y006402D01*
X018580Y006402D02*
X018060Y005882D01*
X015460Y003882D02*
X014980Y004362D01*
X012700Y004362D01*
X012580Y004242D01*
X012480Y004142D01*
X012480Y003522D01*
X012000Y004002D01*
X011740Y004002D01*
X011166Y004576D01*
X011166Y004970D01*
X012480Y003522D02*
X012480Y003322D01*
X015460Y003422D02*
X015500Y003382D01*
X015460Y003422D02*
X015460Y003882D01*
D33*
X006914Y003092D02*
X006813Y003102D01*
X006615Y003161D01*
X006440Y003270D01*
X006298Y003420D01*
X006201Y003602D01*
X006153Y003803D01*
X006150Y003899D01*
X006150Y003914D01*
X006153Y004011D01*
X006150Y004019D01*
X006150Y019933D01*
X006159Y019969D01*
X006150Y020038D01*
X006150Y020107D01*
X006141Y020130D01*
X006132Y020241D01*
X006161Y020575D01*
X006262Y020894D01*
X006431Y021184D01*
X006659Y021429D01*
X006712Y021465D01*
X006712Y021373D01*
X006765Y021245D01*
X006863Y021147D01*
X006991Y021094D01*
X007083Y021094D01*
X007085Y021092D01*
X007125Y021092D01*
X008190Y020027D01*
X008190Y016910D01*
X008111Y016910D01*
X007983Y016857D01*
X007885Y016759D01*
X007832Y016631D01*
X007832Y016493D01*
X007885Y016365D01*
X007983Y016267D01*
X007951Y016235D01*
X007910Y016136D01*
X007910Y015504D01*
X007885Y015479D01*
X007832Y015351D01*
X007832Y015213D01*
X007885Y015085D01*
X007983Y014987D01*
X008111Y014934D01*
X008249Y014934D01*
X008377Y014987D01*
X008475Y015085D01*
X008528Y015213D01*
X008528Y015351D01*
X008475Y015479D01*
X008450Y015504D01*
X008450Y015970D01*
X008649Y016169D01*
X008690Y016268D01*
X008690Y016616D01*
X008650Y016712D01*
X008650Y017040D01*
X008700Y016990D01*
X008700Y015654D01*
X008605Y015559D01*
X008450Y015559D01*
X008605Y015559D02*
X008552Y015431D01*
X008552Y015293D01*
X008605Y015165D01*
X008703Y015067D01*
X008831Y015014D01*
X008969Y015014D01*
X009097Y015067D01*
X009195Y015165D01*
X009248Y015293D01*
X009248Y015431D01*
X009195Y015559D01*
X010995Y015559D01*
X010995Y015401D02*
X009248Y015401D01*
X009227Y015242D02*
X011011Y015242D01*
X010995Y015258D02*
X011051Y015202D01*
X010995Y015146D01*
X010995Y014510D01*
X011083Y014422D01*
X011310Y014422D01*
X011310Y014067D01*
X011445Y013932D01*
X011685Y013692D01*
X012147Y013692D01*
X011775Y013320D01*
X011775Y013416D01*
X011763Y013462D01*
X011739Y013503D01*
X011706Y013537D01*
X011665Y013560D01*
X011619Y013573D01*
X011348Y013573D01*
X011348Y013185D01*
X011252Y013185D01*
X011252Y013573D01*
X010981Y013573D01*
X010935Y013560D01*
X010894Y013537D01*
X010876Y013518D01*
X010852Y013542D01*
X010875Y013565D01*
X010928Y013693D01*
X010928Y013831D01*
X010875Y013959D01*
X010777Y014057D01*
X010649Y014110D01*
X010511Y014110D01*
X010383Y014057D01*
X010360Y014034D01*
X010003Y014034D01*
X010003Y014130D01*
X010391Y014130D01*
X010391Y014401D01*
X010378Y014447D01*
X010355Y014488D01*
X010321Y014521D01*
X010280Y014545D01*
X010234Y014557D01*
X010003Y014557D01*
X010003Y014130D01*
X009907Y014130D01*
X009907Y014557D01*
X009675Y014557D01*
X009648Y014550D01*
X009648Y014631D01*
X009595Y014759D01*
X009497Y014857D01*
X009369Y014910D01*
X009231Y014910D01*
X009103Y014857D01*
X009005Y014759D01*
X008952Y014631D01*
X008952Y014512D01*
X008879Y014439D01*
X008879Y013725D01*
X008967Y013637D01*
X009075Y013637D01*
X009075Y013409D01*
X009063Y013392D01*
X009065Y013384D01*
X008942Y013261D01*
X008895Y013261D01*
X008895Y013336D01*
X008883Y013382D01*
X008859Y013423D01*
X008826Y013457D01*
X008785Y013480D01*
X008739Y013493D01*
X008468Y013493D01*
X008468Y013105D01*
X008372Y013105D01*
X008372Y013493D01*
X008232Y013493D01*
X008356Y013707D01*
X008427Y013970D01*
X008427Y014241D01*
X008356Y014503D01*
X008221Y014738D01*
X008029Y014930D01*
X007793Y015066D01*
X007531Y015137D01*
X007260Y015137D01*
X006997Y015066D01*
X006762Y014930D01*
X006570Y014738D01*
X006435Y014503D01*
X006364Y014241D01*
X006364Y013970D01*
X006435Y013707D01*
X006570Y013472D01*
X006762Y013280D01*
X006997Y013144D01*
X007260Y013074D01*
X007531Y013074D01*
X007793Y013144D01*
X007945Y013232D01*
X007945Y013105D01*
X008372Y013105D01*
X008372Y013009D01*
X007945Y013009D01*
X007945Y012777D01*
X007957Y012731D01*
X007975Y012701D01*
X007975Y012069D01*
X008063Y011981D01*
X008694Y011981D01*
X008694Y011951D01*
X008782Y011863D01*
X009121Y011863D01*
X009121Y011524D01*
X009209Y011436D01*
X009411Y011436D01*
X009382Y011407D01*
X009127Y011407D01*
X009039Y011319D01*
X009039Y010605D01*
X009127Y010517D01*
X009763Y010517D01*
X009780Y010533D01*
X009797Y010517D01*
X010300Y010517D01*
X010300Y010005D01*
X009617Y009322D01*
X009297Y009322D01*
X009180Y009205D01*
X008882Y008907D01*
X008648Y008907D01*
X008560Y008819D01*
X008560Y008065D01*
X008569Y008056D01*
X008569Y007810D01*
X008957Y007810D01*
X008957Y007714D01*
X008569Y007714D01*
X008569Y007443D01*
X008582Y007397D01*
X008605Y007356D01*
X008639Y007323D01*
X008680Y007299D01*
X008726Y007287D01*
X008957Y007287D01*
X008957Y007714D01*
X009053Y007714D01*
X009053Y007287D01*
X009285Y007287D01*
X009331Y007299D01*
X009361Y007317D01*
X009372Y007317D01*
X009140Y007085D01*
X009140Y006934D01*
X009045Y006839D01*
X008992Y006711D01*
X008992Y006642D01*
X008937Y006697D01*
X008809Y006750D01*
X008671Y006750D01*
X008543Y006697D01*
X008445Y006599D01*
X008392Y006471D01*
X008392Y006333D01*
X008445Y006205D01*
X008470Y006180D01*
X008470Y005628D01*
X008511Y005529D01*
X008587Y005453D01*
X008882Y005158D01*
X008981Y005117D01*
X010095Y005117D01*
X010095Y005069D01*
X010183Y004981D01*
X010856Y004981D01*
X010856Y004880D01*
X010617Y004979D01*
X010355Y004979D01*
X010114Y004879D01*
X009929Y004694D01*
X009829Y004453D01*
X009829Y004191D01*
X009929Y003950D01*
X010114Y003765D01*
X010355Y003665D01*
X010617Y003665D01*
X010858Y003765D01*
X011043Y003950D01*
X011134Y004169D01*
X011477Y003826D01*
X011564Y003739D01*
X011678Y003692D01*
X011872Y003692D01*
X012050Y003514D01*
X012050Y003092D01*
X006914Y003092D01*
X006559Y003196D02*
X012050Y003196D01*
X012050Y003355D02*
X006360Y003355D01*
X006248Y003513D02*
X012050Y003513D01*
X011892Y003672D02*
X010633Y003672D01*
X010339Y003672D02*
X008901Y003672D01*
X008885Y003665D02*
X009126Y003765D01*
X009311Y003950D01*
X009411Y004191D01*
X009411Y004453D01*
X009311Y004694D01*
X009126Y004879D01*
X008885Y004979D01*
X008623Y004979D01*
X008382Y004879D01*
X008197Y004694D01*
X008097Y004453D01*
X008097Y004191D01*
X008197Y003950D01*
X008382Y003765D01*
X008623Y003665D01*
X008885Y003665D01*
X008607Y003672D02*
X006184Y003672D01*
X006152Y003830D02*
X008316Y003830D01*
X008181Y003989D02*
X006152Y003989D01*
X006150Y004147D02*
X008115Y004147D01*
X008097Y004306D02*
X006150Y004306D01*
X006150Y004464D02*
X008101Y004464D01*
X008167Y004623D02*
X006150Y004623D01*
X006150Y004781D02*
X008283Y004781D01*
X008527Y004940D02*
X006150Y004940D01*
X006150Y005098D02*
X010095Y005098D01*
X010260Y004940D02*
X008980Y004940D01*
X009224Y004781D02*
X010016Y004781D01*
X009899Y004623D02*
X009341Y004623D01*
X009406Y004464D02*
X009834Y004464D01*
X009829Y004306D02*
X009411Y004306D01*
X009393Y004147D02*
X009847Y004147D01*
X009913Y003989D02*
X009327Y003989D01*
X009191Y003830D02*
X010049Y003830D01*
X010924Y003830D02*
X011474Y003830D01*
X011315Y003989D02*
X011059Y003989D01*
X011125Y004147D02*
X011157Y004147D01*
X010856Y004940D02*
X010713Y004940D01*
X011956Y005608D02*
X012084Y005608D01*
X012172Y005695D01*
X012172Y005734D01*
X012249Y005734D01*
X012377Y005787D01*
X012475Y005885D01*
X012528Y006013D01*
X012528Y006151D01*
X012475Y006279D01*
X012377Y006377D01*
X012249Y006430D01*
X012111Y006430D01*
X011990Y006380D01*
X011748Y006380D01*
X011718Y006398D01*
X011672Y006410D01*
X011540Y006410D01*
X011408Y006410D01*
X011362Y006398D01*
X011332Y006380D01*
X011004Y006380D01*
X011003Y006382D01*
X010979Y006423D01*
X010946Y006457D01*
X010905Y006480D01*
X010859Y006493D01*
X010588Y006493D01*
X010588Y006105D01*
X010492Y006105D01*
X010492Y006493D01*
X010255Y006493D01*
X010288Y006573D01*
X010288Y006711D01*
X010235Y006839D01*
X010207Y006867D01*
X010457Y007117D01*
X010919Y007117D01*
X010949Y007099D01*
X010995Y007087D01*
X011227Y007087D01*
X011227Y007514D01*
X011323Y007514D01*
X011323Y007610D01*
X011711Y007610D01*
X011711Y007876D01*
X011740Y007905D01*
X011740Y008659D01*
X011652Y008747D01*
X011534Y008747D01*
X011534Y008771D01*
X011420Y008885D01*
X011303Y009002D01*
X010183Y009002D01*
X010143Y009042D01*
X010823Y009722D01*
X010940Y009839D01*
X010940Y011082D01*
X011137Y011082D01*
X011100Y011045D01*
X011100Y010239D01*
X011217Y010122D01*
X011737Y009602D01*
X012531Y009602D01*
X012460Y009602D01*
X012460Y009523D01*
X012466Y009502D01*
X012460Y009481D01*
X012460Y009402D01*
X012460Y009323D01*
X012472Y009278D01*
X012490Y009247D01*
X012490Y009095D01*
X012578Y009007D01*
X013049Y009007D01*
X013039Y009001D01*
X013005Y008968D01*
X012982Y008927D01*
X012969Y008881D01*
X012969Y008610D01*
X013357Y008610D01*
X013357Y008514D01*
X012969Y008514D01*
X012969Y008243D01*
X012982Y008197D01*
X013005Y008156D01*
X013039Y008123D01*
X013080Y008099D01*
X013126Y008087D01*
X013357Y008087D01*
X013357Y008514D01*
X013453Y008514D01*
X013453Y008087D01*
X013685Y008087D01*
X013731Y008099D01*
X013761Y008117D01*
X014393Y008117D01*
X014481Y008205D01*
X014481Y008332D01*
X014579Y008332D01*
X014671Y008294D01*
X014809Y008294D01*
X014937Y008347D01*
X015035Y008445D01*
X015040Y008456D01*
X015087Y008340D01*
X015213Y008215D01*
X015377Y008147D01*
X015555Y008147D01*
X015719Y008215D01*
X015845Y008340D01*
X015913Y008505D01*
X015913Y008682D01*
X015845Y008847D01*
X015770Y008922D01*
X015770Y009617D01*
X015635Y009752D01*
X015555Y009832D01*
X015535Y009832D01*
X015635Y009932D01*
X015635Y009932D01*
X015765Y010062D01*
X015805Y009965D01*
X015903Y009867D01*
X016031Y009814D01*
X016123Y009814D01*
X016245Y009692D01*
X016291Y009646D01*
X016285Y009639D01*
X016232Y009511D01*
X016232Y009373D01*
X016285Y009245D01*
X016383Y009147D01*
X016498Y009099D01*
X016481Y009092D01*
X016355Y008967D01*
X016287Y008802D01*
X016287Y008625D01*
X016355Y008460D01*
X016481Y008335D01*
X016645Y008267D01*
X016823Y008267D01*
X016987Y008335D01*
X017113Y008460D01*
X017149Y008550D01*
X017149Y008390D01*
X017537Y008390D01*
X017537Y008294D01*
X017149Y008294D01*
X017149Y008023D01*
X017162Y007977D01*
X017185Y007936D01*
X017189Y007932D01*
X017189Y007690D01*
X017577Y007690D01*
X017577Y007594D01*
X017189Y007594D01*
X017189Y007323D01*
X017202Y007277D01*
X017225Y007236D01*
X017259Y007203D01*
X017300Y007179D01*
X017346Y007167D01*
X017577Y007167D01*
X017577Y007594D01*
X017673Y007594D01*
X017673Y007167D01*
X017812Y007167D01*
X017805Y007159D01*
X017756Y007042D01*
X017750Y007042D01*
X017719Y007060D01*
X017674Y007072D01*
X017540Y007072D01*
X017540Y006642D01*
X017540Y006212D01*
X017674Y006212D01*
X017719Y006224D01*
X017750Y006242D01*
X017982Y006242D01*
X017822Y006082D01*
X017748Y006082D01*
X017660Y005994D01*
X017660Y005820D01*
X017650Y005796D01*
X017650Y005318D01*
X017587Y005255D01*
X017587Y004029D01*
X017675Y003941D01*
X018131Y003941D01*
X018115Y003926D01*
X018050Y003768D01*
X018050Y003092D01*
X016960Y003092D01*
X016960Y003372D01*
X016510Y003372D01*
X016510Y003392D01*
X016960Y003392D01*
X016960Y003698D01*
X016949Y003770D01*
X016926Y003839D01*
X016893Y003903D01*
X016866Y003941D01*
X017405Y003941D01*
X017493Y004029D01*
X017493Y005255D01*
X017430Y005318D01*
X017430Y005736D01*
X017420Y005760D01*
X017420Y005994D01*
X017332Y006082D01*
X016988Y006082D01*
X016900Y005994D01*
X016900Y005760D01*
X016890Y005736D01*
X016890Y005343D01*
X016730Y005343D01*
X016642Y005255D01*
X016642Y004100D01*
X016608Y004111D01*
X016536Y004122D01*
X016510Y004122D01*
X016510Y003392D01*
X016490Y003392D01*
X016490Y003372D01*
X016040Y003372D01*
X016040Y003092D01*
X015930Y003092D01*
X015930Y003748D01*
X015865Y003906D01*
X015744Y004027D01*
X015734Y004031D01*
X015723Y004058D01*
X015636Y004145D01*
X015278Y004503D01*
X015360Y004585D01*
X015360Y005123D01*
X015417Y005147D01*
X015515Y005245D01*
X015568Y005373D01*
X015568Y005511D01*
X015515Y005639D01*
X015490Y005664D01*
X015490Y005890D01*
X015609Y006009D01*
X015972Y006372D01*
X016900Y006372D01*
X016900Y006330D01*
X016988Y006242D01*
X017330Y006242D01*
X017361Y006224D01*
X017406Y006212D01*
X017540Y006212D01*
X017540Y006642D01*
X017540Y006642D01*
X017540Y007072D01*
X017406Y007072D01*
X017361Y007060D01*
X017330Y007042D01*
X016988Y007042D01*
X016900Y006954D01*
X016900Y006912D01*
X015812Y006912D01*
X015113Y007611D01*
X015041Y007641D01*
X015041Y007739D01*
X014953Y007827D01*
X014321Y007827D01*
X014291Y007845D01*
X014245Y007857D01*
X014013Y007857D01*
X014013Y007430D01*
X013917Y007430D01*
X013917Y007857D01*
X013686Y007857D01*
X013640Y007845D01*
X013599Y007821D01*
X013565Y007788D01*
X013542Y007747D01*
X013529Y007701D01*
X013529Y007445D01*
X013515Y007479D01*
X013417Y007577D01*
X013289Y007630D01*
X013151Y007630D01*
X013023Y007577D01*
X012925Y007479D01*
X012872Y007351D01*
X012872Y007217D01*
X012860Y007205D01*
X012860Y006399D01*
X012922Y006337D01*
X012886Y006337D01*
X012841Y006325D01*
X012800Y006301D01*
X012766Y006268D01*
X012742Y006226D01*
X012730Y006181D01*
X012730Y005890D01*
X013118Y005890D01*
X013118Y005794D01*
X013214Y005794D01*
X013214Y005347D01*
X013446Y005347D01*
X013491Y005359D01*
X013532Y005383D01*
X013561Y005412D01*
X013596Y005377D01*
X013838Y005377D01*
X013800Y005339D01*
X013800Y004672D01*
X013065Y004672D01*
X013065Y004741D01*
X013083Y004771D01*
X013095Y004817D01*
X013095Y005049D01*
X012668Y005049D01*
X012668Y005145D01*
X012572Y005145D01*
X012572Y005533D01*
X012301Y005533D01*
X012255Y005520D01*
X012214Y005497D01*
X012181Y005463D01*
X012157Y005422D01*
X012151Y005401D01*
X012143Y005421D01*
X011956Y005608D01*
X011990Y005574D02*
X012730Y005574D01*
X012730Y005533D02*
X012668Y005533D01*
X012668Y005145D01*
X013095Y005145D01*
X013095Y005347D01*
X013118Y005347D01*
X013118Y005794D01*
X012730Y005794D01*
X012730Y005533D01*
X012668Y005415D02*
X012572Y005415D01*
X012572Y005257D02*
X012668Y005257D01*
X012668Y005098D02*
X013800Y005098D01*
X013800Y004940D02*
X013095Y004940D01*
X013086Y004781D02*
X013800Y004781D01*
X013800Y005257D02*
X013095Y005257D01*
X013118Y005415D02*
X013214Y005415D01*
X013214Y005574D02*
X013118Y005574D01*
X013118Y005732D02*
X013214Y005732D01*
X012730Y005732D02*
X012172Y005732D01*
X012155Y005415D02*
X012145Y005415D01*
X012477Y005891D02*
X012730Y005891D01*
X012730Y006049D02*
X012528Y006049D01*
X012505Y006208D02*
X012737Y006208D01*
X012893Y006366D02*
X012388Y006366D01*
X012860Y006525D02*
X010268Y006525D01*
X010288Y006683D02*
X012860Y006683D01*
X012860Y006842D02*
X010233Y006842D01*
X010340Y007000D02*
X012860Y007000D01*
X012860Y007159D02*
X011676Y007159D01*
X011675Y007156D02*
X011698Y007197D01*
X011711Y007243D01*
X011711Y007514D01*
X011323Y007514D01*
X011323Y007087D01*
X011554Y007087D01*
X011600Y007099D01*
X011641Y007123D01*
X011675Y007156D01*
X011711Y007317D02*
X012872Y007317D01*
X012923Y007476D02*
X011711Y007476D01*
X011711Y007634D02*
X013529Y007634D01*
X013517Y007476D02*
X013529Y007476D01*
X013570Y007793D02*
X011711Y007793D01*
X011740Y007951D02*
X017177Y007951D01*
X017189Y007793D02*
X014987Y007793D01*
X015057Y007634D02*
X017577Y007634D01*
X017577Y007690D02*
X017577Y008117D01*
X017537Y008117D01*
X017537Y008294D01*
X017633Y008294D01*
X017633Y007867D01*
X017673Y007867D01*
X017673Y007690D01*
X017577Y007690D01*
X017577Y007793D02*
X017673Y007793D01*
X017633Y007951D02*
X017577Y007951D01*
X017577Y008110D02*
X017633Y008110D01*
X017633Y008268D02*
X017537Y008268D01*
X017537Y008390D02*
X017537Y008817D01*
X017306Y008817D01*
X017260Y008805D01*
X017219Y008781D01*
X017185Y008748D01*
X017181Y008739D01*
X017181Y008802D01*
X017171Y008826D01*
X017392Y009047D01*
X017582Y009047D01*
X017626Y009091D01*
X017649Y009068D01*
X017691Y009044D01*
X017736Y009032D01*
X018020Y009032D01*
X018020Y009562D01*
X018180Y009562D01*
X018180Y009032D01*
X018464Y009032D01*
X018509Y009044D01*
X018551Y009068D01*
X018574Y009091D01*
X018618Y009047D01*
X019302Y009047D01*
X019307Y009052D01*
X019619Y009052D01*
X019711Y009014D01*
X019849Y009014D01*
X019977Y009067D01*
X020072Y009162D01*
X020413Y009162D01*
X020392Y009111D01*
X020392Y009070D01*
X020271Y009070D01*
X020143Y009017D01*
X020045Y008919D01*
X019992Y008791D01*
X019992Y008653D01*
X020020Y008586D01*
X019903Y008537D01*
X019805Y008439D01*
X019752Y008311D01*
X019752Y008173D01*
X019805Y008045D01*
X019903Y007947D01*
X020031Y007894D01*
X020169Y007894D01*
X020297Y007947D01*
X020392Y008042D01*
X021020Y008042D01*
X021020Y004965D01*
X020497Y004442D01*
X018977Y004442D01*
X018860Y004325D01*
X018623Y004088D01*
X018566Y004112D01*
X018438Y004112D01*
X018438Y005255D01*
X018350Y005343D01*
X018190Y005343D01*
X018190Y005600D01*
X018236Y005619D01*
X018708Y006092D01*
X019459Y006092D01*
X019551Y006054D01*
X019689Y006054D01*
X019817Y006107D01*
X019915Y006205D01*
X019968Y006333D01*
X019968Y006471D01*
X019915Y006599D01*
X019817Y006697D01*
X019689Y006750D01*
X019551Y006750D01*
X019459Y006712D01*
X019210Y006712D01*
X019210Y007424D01*
X019163Y007538D01*
X019076Y007625D01*
X019076Y007625D01*
X018950Y007750D01*
X018836Y007797D01*
X018701Y007797D01*
X018701Y007999D01*
X018661Y008039D01*
X018661Y008699D01*
X018573Y008787D01*
X017941Y008787D01*
X017911Y008805D01*
X017865Y008817D01*
X017633Y008817D01*
X017633Y008390D01*
X017537Y008390D01*
X017537Y008427D02*
X017633Y008427D01*
X017633Y008585D02*
X017537Y008585D01*
X017537Y008744D02*
X017633Y008744D01*
X017662Y009061D02*
X017596Y009061D01*
X017247Y008902D02*
X020038Y008902D01*
X019992Y008744D02*
X018616Y008744D01*
X018661Y008585D02*
X020018Y008585D01*
X019800Y008427D02*
X018661Y008427D01*
X018661Y008268D02*
X019752Y008268D01*
X019778Y008110D02*
X018661Y008110D01*
X018701Y007951D02*
X019899Y007951D01*
X020301Y007951D02*
X021020Y007951D01*
X021020Y007793D02*
X018848Y007793D01*
X019066Y007634D02*
X021020Y007634D01*
X021020Y007476D02*
X019189Y007476D01*
X019210Y007317D02*
X021020Y007317D01*
X021020Y007159D02*
X019210Y007159D01*
X019210Y007000D02*
X021020Y007000D01*
X021020Y006842D02*
X019210Y006842D01*
X019831Y006683D02*
X021020Y006683D01*
X021020Y006525D02*
X019946Y006525D01*
X019968Y006366D02*
X021020Y006366D01*
X021020Y006208D02*
X019916Y006208D01*
X021020Y006049D02*
X018665Y006049D01*
X018507Y005891D02*
X021020Y005891D01*
X021020Y005732D02*
X018348Y005732D01*
X018190Y005574D02*
X021020Y005574D01*
X021020Y005415D02*
X018190Y005415D01*
X018437Y005257D02*
X021020Y005257D01*
X021020Y005098D02*
X018438Y005098D01*
X018438Y004940D02*
X020995Y004940D01*
X020836Y004781D02*
X018438Y004781D01*
X018438Y004623D02*
X020678Y004623D01*
X020519Y004464D02*
X018438Y004464D01*
X018438Y004306D02*
X018841Y004306D01*
X018682Y004147D02*
X018438Y004147D01*
X018076Y003830D02*
X016929Y003830D01*
X016960Y003672D02*
X018050Y003672D01*
X018050Y003513D02*
X016960Y003513D01*
X016960Y003355D02*
X018050Y003355D01*
X018050Y003196D02*
X016960Y003196D01*
X016490Y003392D02*
X016490Y004122D01*
X016464Y004122D01*
X016392Y004111D01*
X016323Y004088D01*
X016259Y004055D01*
X016200Y004013D01*
X016149Y003962D01*
X016107Y003903D01*
X016074Y003839D01*
X016051Y003770D01*
X016040Y003698D01*
X016040Y003392D01*
X016490Y003392D01*
X016490Y003513D02*
X016510Y003513D01*
X016510Y003672D02*
X016490Y003672D01*
X016490Y003830D02*
X016510Y003830D01*
X016510Y003989D02*
X016490Y003989D01*
X016642Y004147D02*
X015633Y004147D01*
X015782Y003989D02*
X016176Y003989D01*
X016071Y003830D02*
X015896Y003830D01*
X015930Y003672D02*
X016040Y003672D01*
X016040Y003513D02*
X015930Y003513D01*
X015930Y003355D02*
X016040Y003355D01*
X016040Y003196D02*
X015930Y003196D01*
X017453Y003989D02*
X017627Y003989D01*
X017587Y004147D02*
X017493Y004147D01*
X017493Y004306D02*
X017587Y004306D01*
X017587Y004464D02*
X017493Y004464D01*
X017493Y004623D02*
X017587Y004623D01*
X017587Y004781D02*
X017493Y004781D01*
X017493Y004940D02*
X017587Y004940D01*
X017587Y005098D02*
X017493Y005098D01*
X017492Y005257D02*
X017588Y005257D01*
X017650Y005415D02*
X017430Y005415D01*
X017430Y005574D02*
X017650Y005574D01*
X017650Y005732D02*
X017430Y005732D01*
X017420Y005891D02*
X017660Y005891D01*
X017715Y006049D02*
X017365Y006049D01*
X017540Y006366D02*
X017540Y006366D01*
X017540Y006525D02*
X017540Y006525D01*
X017540Y006642D02*
X017540Y006642D01*
X017540Y006683D02*
X017540Y006683D01*
X017540Y006842D02*
X017540Y006842D01*
X017540Y007000D02*
X017540Y007000D01*
X017805Y007159D02*
X015565Y007159D01*
X015407Y007317D02*
X017191Y007317D01*
X017189Y007476D02*
X015248Y007476D01*
X015724Y007000D02*
X016946Y007000D01*
X017577Y007317D02*
X017673Y007317D01*
X017673Y007476D02*
X017577Y007476D01*
X017149Y008110D02*
X013749Y008110D01*
X013453Y008110D02*
X013357Y008110D01*
X013357Y008268D02*
X013453Y008268D01*
X013453Y008427D02*
X013357Y008427D01*
X013357Y008585D02*
X011740Y008585D01*
X011740Y008427D02*
X012969Y008427D01*
X012969Y008268D02*
X011740Y008268D01*
X011740Y008110D02*
X013062Y008110D01*
X013917Y007793D02*
X014013Y007793D01*
X014013Y007634D02*
X013917Y007634D01*
X013917Y007476D02*
X014013Y007476D01*
X013965Y007382D02*
X013965Y006762D01*
X013917Y006714D02*
X013529Y006714D01*
X013529Y006522D01*
X013303Y006522D01*
X013260Y006565D01*
X013260Y006934D01*
X013289Y006934D01*
X013417Y006987D01*
X013515Y007085D01*
X013529Y007119D01*
X013529Y006810D01*
X013917Y006810D01*
X013917Y006714D01*
X013917Y006810D02*
X013917Y007237D01*
X013917Y007334D01*
X014013Y007334D01*
X014013Y006810D01*
X013917Y006810D01*
X013917Y006842D02*
X014013Y006842D01*
X014013Y007000D02*
X013917Y007000D01*
X013917Y007159D02*
X014013Y007159D01*
X014013Y007317D02*
X013917Y007317D01*
X013529Y007000D02*
X013430Y007000D01*
X013529Y006842D02*
X013260Y006842D01*
X013260Y006683D02*
X013529Y006683D01*
X013529Y006525D02*
X013300Y006525D01*
X011656Y005994D02*
X011656Y005994D01*
X011540Y005994D01*
X011540Y006410D01*
X011540Y005994D01*
X011540Y005994D01*
X011540Y005994D01*
X011540Y005994D01*
X011424Y005994D01*
X011424Y005994D01*
X011540Y005994D01*
X011656Y005994D01*
X011540Y005994D02*
X011540Y005712D01*
X011540Y005712D01*
X011540Y005994D01*
X011540Y005994D01*
X011540Y006049D02*
X011540Y006049D01*
X011540Y005891D02*
X011540Y005891D01*
X011540Y005732D02*
X011540Y005732D01*
X011540Y006208D02*
X011540Y006208D01*
X011540Y006366D02*
X011540Y006366D01*
X010588Y006366D02*
X010492Y006366D01*
X010492Y006208D02*
X010588Y006208D01*
X010492Y006105D02*
X010065Y006105D01*
X010065Y006317D01*
X010009Y006294D01*
X009871Y006294D01*
X009743Y006347D01*
X009645Y006445D01*
X009640Y006457D01*
X009635Y006445D01*
X009537Y006347D01*
X009409Y006294D01*
X009271Y006294D01*
X009143Y006347D01*
X009088Y006402D01*
X009088Y006333D01*
X009035Y006205D01*
X009010Y006180D01*
X009010Y005794D01*
X009146Y005657D01*
X010095Y005657D01*
X010095Y005701D01*
X010077Y005731D01*
X010065Y005777D01*
X010065Y006009D01*
X010492Y006009D01*
X010492Y006105D01*
X010492Y006049D02*
X009010Y006049D01*
X009010Y005891D02*
X010065Y005891D01*
X010077Y005732D02*
X009072Y005732D01*
X008625Y005415D02*
X006150Y005415D01*
X006150Y005257D02*
X008784Y005257D01*
X008493Y005574D02*
X006150Y005574D01*
X006150Y005732D02*
X008470Y005732D01*
X008470Y005891D02*
X006150Y005891D01*
X006150Y006049D02*
X007030Y006049D01*
X006997Y006058D02*
X007260Y005988D01*
X007531Y005988D01*
X007793Y006058D01*
X008029Y006194D01*
X008221Y006386D01*
X008356Y006621D01*
X008427Y006883D01*
X008427Y007154D01*
X008356Y007417D01*
X008221Y007652D01*
X008029Y007844D01*
X007793Y007980D01*
X007531Y008050D01*
X007260Y008050D01*
X006997Y007980D01*
X006762Y007844D01*
X006570Y007652D01*
X006435Y007417D01*
X006364Y007154D01*
X006364Y006883D01*
X006435Y006621D01*
X006570Y006386D01*
X006762Y006194D01*
X006997Y006058D01*
X006748Y006208D02*
X006150Y006208D01*
X006150Y006366D02*
X006590Y006366D01*
X006490Y006525D02*
X006150Y006525D01*
X006150Y006683D02*
X006418Y006683D01*
X006375Y006842D02*
X006150Y006842D01*
X006150Y007000D02*
X006364Y007000D01*
X006365Y007159D02*
X006150Y007159D01*
X006150Y007317D02*
X006408Y007317D01*
X006468Y007476D02*
X006150Y007476D01*
X006150Y007634D02*
X006560Y007634D01*
X006711Y007793D02*
X006150Y007793D01*
X006150Y007951D02*
X006948Y007951D01*
X006150Y008110D02*
X008560Y008110D01*
X008560Y008268D02*
X006150Y008268D01*
X006150Y008427D02*
X008560Y008427D01*
X008560Y008585D02*
X006150Y008585D01*
X006150Y008744D02*
X008560Y008744D01*
X008643Y008902D02*
X006150Y008902D01*
X006150Y009061D02*
X009036Y009061D01*
X009194Y009219D02*
X006150Y009219D01*
X006150Y009378D02*
X009673Y009378D01*
X009831Y009536D02*
X006150Y009536D01*
X006150Y009695D02*
X009990Y009695D01*
X010148Y009853D02*
X006150Y009853D01*
X006150Y010012D02*
X010300Y010012D01*
X010300Y010170D02*
X006150Y010170D01*
X006150Y010329D02*
X010300Y010329D01*
X010300Y010487D02*
X006150Y010487D01*
X006150Y010646D02*
X009039Y010646D01*
X009039Y010804D02*
X006150Y010804D01*
X006150Y010963D02*
X009039Y010963D01*
X009039Y011121D02*
X006150Y011121D01*
X006150Y011280D02*
X009039Y011280D01*
X009207Y011438D02*
X006150Y011438D01*
X006150Y011597D02*
X009121Y011597D01*
X009121Y011755D02*
X006150Y011755D01*
X006150Y011914D02*
X008731Y011914D01*
X007975Y012072D02*
X006150Y012072D01*
X006150Y012231D02*
X007975Y012231D01*
X007975Y012389D02*
X006150Y012389D01*
X006150Y012548D02*
X007975Y012548D01*
X007972Y012706D02*
X006150Y012706D01*
X006150Y012865D02*
X007945Y012865D01*
X007945Y013182D02*
X007858Y013182D01*
X008236Y013499D02*
X009075Y013499D01*
X009021Y013340D02*
X008894Y013340D01*
X008820Y013522D02*
X008820Y014722D01*
X009060Y014962D01*
X009300Y014962D01*
X009700Y015362D01*
X009823Y015787D02*
X009951Y015734D01*
X010089Y015734D01*
X010217Y015787D01*
X010282Y015852D01*
X010361Y015852D01*
X010749Y016240D01*
X011046Y016240D01*
X011134Y016328D01*
X011134Y016671D01*
X011151Y016702D01*
X011164Y016748D01*
X011164Y016913D01*
X010716Y016913D01*
X010716Y016913D01*
X011164Y016913D01*
X011164Y017079D01*
X011159Y017095D01*
X011236Y017095D01*
X011303Y017162D01*
X011331Y017190D01*
X011335Y017188D01*
X011381Y017176D01*
X011632Y017176D01*
X011632Y017583D01*
X011768Y017583D01*
X011768Y017176D01*
X012007Y017176D01*
X012045Y017085D01*
X012143Y016987D01*
X012271Y016934D01*
X012409Y016934D01*
X012535Y016986D01*
X012535Y016983D01*
X012517Y016953D01*
X012505Y016907D01*
X012505Y016675D01*
X012932Y016675D01*
X012932Y016579D01*
X013028Y016579D01*
X013028Y016302D01*
X012965Y016239D01*
X012912Y016111D01*
X012912Y015973D01*
X012916Y015962D01*
X012577Y015962D01*
X012460Y015845D01*
X012220Y015605D01*
X012220Y015574D01*
X012125Y015479D01*
X012072Y015351D01*
X012072Y015213D01*
X012114Y015112D01*
X011925Y015112D01*
X011925Y015146D01*
X011869Y015202D01*
X011925Y015258D01*
X011925Y015662D01*
X012010Y015747D01*
X012010Y015828D01*
X012057Y015828D01*
X012145Y015916D01*
X012145Y016630D01*
X012057Y016718D01*
X011343Y016718D01*
X011255Y016630D01*
X011255Y015982D01*
X011083Y015982D01*
X010995Y015894D01*
X010995Y015258D01*
X010995Y015084D02*
X009114Y015084D01*
X009012Y014767D02*
X008193Y014767D01*
X008296Y014608D02*
X008952Y014608D01*
X008890Y014450D02*
X008371Y014450D01*
X008413Y014291D02*
X008879Y014291D01*
X008879Y014133D02*
X008427Y014133D01*
X008427Y013974D02*
X008879Y013974D01*
X008879Y013816D02*
X008385Y013816D01*
X008327Y013657D02*
X008947Y013657D01*
X008820Y013522D02*
X008515Y013217D01*
X008515Y013122D01*
X008515Y013057D01*
X008468Y013023D02*
X008694Y013023D01*
X008694Y013009D02*
X008468Y013009D01*
X008468Y013105D01*
X008694Y013105D01*
X008694Y013009D01*
X008468Y013182D02*
X008372Y013182D01*
X008372Y013340D02*
X008468Y013340D01*
X008372Y013023D02*
X006150Y013023D01*
X006150Y013182D02*
X006933Y013182D01*
X006702Y013340D02*
X006150Y013340D01*
X006150Y013499D02*
X006555Y013499D01*
X006464Y013657D02*
X006150Y013657D01*
X006150Y013816D02*
X006406Y013816D01*
X006364Y013974D02*
X006150Y013974D01*
X006150Y014133D02*
X006364Y014133D01*
X006378Y014291D02*
X006150Y014291D01*
X006150Y014450D02*
X006420Y014450D01*
X006495Y014608D02*
X006150Y014608D01*
X006150Y014767D02*
X006598Y014767D01*
X006757Y014925D02*
X006150Y014925D01*
X006150Y015084D02*
X007062Y015084D01*
X007729Y015084D02*
X007886Y015084D01*
X007832Y015242D02*
X006150Y015242D01*
X006150Y015401D02*
X007852Y015401D01*
X007910Y015559D02*
X006150Y015559D01*
X006150Y015718D02*
X007910Y015718D01*
X007910Y015876D02*
X006150Y015876D01*
X006150Y016035D02*
X007910Y016035D01*
X007934Y016193D02*
X006150Y016193D01*
X006150Y016352D02*
X007898Y016352D01*
X007983Y016267D02*
X007983Y016267D01*
X007832Y016510D02*
X006150Y016510D01*
X006150Y016669D02*
X007847Y016669D01*
X007953Y016827D02*
X006150Y016827D01*
X006150Y016986D02*
X008190Y016986D01*
X008190Y017144D02*
X006150Y017144D01*
X006150Y017303D02*
X008190Y017303D01*
X008190Y017461D02*
X006150Y017461D01*
X006150Y017620D02*
X008190Y017620D01*
X008190Y017778D02*
X006150Y017778D01*
X006150Y017937D02*
X008190Y017937D01*
X008190Y018095D02*
X006150Y018095D01*
X006150Y018254D02*
X008190Y018254D01*
X008190Y018412D02*
X006150Y018412D01*
X006150Y018571D02*
X008190Y018571D01*
X008190Y018729D02*
X006150Y018729D01*
X006150Y018888D02*
X008190Y018888D01*
X008190Y019046D02*
X006150Y019046D01*
X006150Y019205D02*
X008190Y019205D01*
X008190Y019363D02*
X006150Y019363D01*
X006150Y019522D02*
X008190Y019522D01*
X008190Y019680D02*
X006150Y019680D01*
X006150Y019839D02*
X008190Y019839D01*
X008190Y019997D02*
X006156Y019997D01*
X006139Y020156D02*
X008061Y020156D01*
X007903Y020314D02*
X006138Y020314D01*
X006152Y020473D02*
X007744Y020473D01*
X007586Y020631D02*
X006178Y020631D01*
X006229Y020790D02*
X007427Y020790D01*
X007269Y020948D02*
X006293Y020948D01*
X006386Y021107D02*
X006960Y021107D01*
X006757Y021265D02*
X006507Y021265D01*
X006654Y021424D02*
X006712Y021424D01*
X007060Y021442D02*
X007180Y021322D01*
X007220Y021322D01*
X008420Y020122D01*
X008420Y016562D01*
X008668Y016669D02*
X008700Y016669D01*
X008700Y016827D02*
X008650Y016827D01*
X008650Y016986D02*
X008700Y016986D01*
X009100Y016986D02*
X009546Y016986D01*
X009546Y017144D02*
X009220Y017144D01*
X009195Y017085D02*
X009248Y017213D01*
X009248Y017351D01*
X009195Y017479D01*
X009097Y017577D01*
X008969Y017630D01*
X008831Y017630D01*
X008703Y017577D01*
X008650Y017524D01*
X008650Y020217D01*
X007705Y021162D01*
X008360Y021162D01*
X008360Y020985D01*
X008448Y020897D01*
X009084Y020897D01*
X009140Y020953D01*
X009196Y020897D01*
X009832Y020897D01*
X009920Y020985D01*
X009920Y021379D01*
X010103Y021562D01*
X010837Y021562D01*
X011390Y021009D01*
X011390Y020712D01*
X011630Y020472D01*
X011970Y020472D01*
X012060Y020562D01*
X012060Y020405D01*
X011777Y020122D01*
X009352Y020122D01*
X009257Y020217D01*
X009129Y020270D01*
X008991Y020270D01*
X008863Y020217D01*
X008765Y020119D01*
X008712Y019991D01*
X008712Y019853D01*
X008765Y019725D01*
X008863Y019627D01*
X008991Y019574D01*
X009129Y019574D01*
X009257Y019627D01*
X009352Y019722D01*
X011943Y019722D01*
X012060Y019839D01*
X012060Y019839D01*
X012343Y020122D01*
X012389Y020168D01*
X012389Y020026D01*
X012459Y019764D01*
X012595Y019529D01*
X012722Y019402D01*
X012577Y019402D01*
X012460Y019285D01*
X012460Y019285D01*
X012354Y019179D01*
X012368Y019213D01*
X012368Y019351D01*
X012315Y019479D01*
X012217Y019577D01*
X012089Y019630D01*
X011951Y019630D01*
X011823Y019577D01*
X011725Y019479D01*
X011693Y019402D01*
X010257Y019402D01*
X010140Y019285D01*
X009764Y018909D01*
X009764Y018867D01*
X009648Y018867D01*
X009560Y018779D01*
X009560Y018025D01*
X009627Y017958D01*
X009546Y017877D01*
X009546Y016324D01*
X009634Y016236D01*
X009707Y016236D01*
X009672Y016151D01*
X009672Y016013D01*
X009725Y015885D01*
X009823Y015787D01*
X009734Y015876D02*
X009100Y015876D01*
X009100Y015718D02*
X010995Y015718D01*
X010995Y015876D02*
X010385Y015876D01*
X010544Y016035D02*
X011255Y016035D01*
X011255Y016193D02*
X010702Y016193D01*
X010716Y016531D02*
X010266Y016082D01*
X010020Y016082D01*
X009689Y016193D02*
X009100Y016193D01*
X009100Y016035D02*
X009672Y016035D01*
X009195Y015559D02*
X009100Y015654D01*
X009100Y016990D01*
X009195Y017085D01*
X009248Y017303D02*
X009546Y017303D01*
X009546Y017461D02*
X009203Y017461D01*
X008995Y017620D02*
X009546Y017620D01*
X009546Y017778D02*
X008650Y017778D01*
X008650Y017620D02*
X008805Y017620D01*
X008650Y017937D02*
X009606Y017937D01*
X009560Y018095D02*
X008650Y018095D01*
X008650Y018254D02*
X009560Y018254D01*
X009560Y018412D02*
X008650Y018412D01*
X008650Y018571D02*
X009560Y018571D01*
X009560Y018729D02*
X008650Y018729D01*
X008650Y018888D02*
X009764Y018888D01*
X009901Y019046D02*
X008650Y019046D01*
X008650Y019205D02*
X010060Y019205D01*
X010218Y019363D02*
X008650Y019363D01*
X008650Y019522D02*
X011767Y019522D01*
X012059Y019839D02*
X012439Y019839D01*
X012397Y019997D02*
X012218Y019997D01*
X012343Y020122D02*
X012343Y020122D01*
X012376Y020156D02*
X012389Y020156D01*
X012460Y020562D02*
X012460Y021519D01*
X012733Y021792D01*
X016407Y021792D01*
X016300Y021685D01*
X016257Y021642D01*
X016140Y021525D01*
X016140Y021174D01*
X016045Y021079D01*
X015992Y020951D01*
X015992Y020813D01*
X016014Y020759D01*
X015537Y020282D01*
X015420Y020165D01*
X015420Y019894D01*
X015325Y019799D01*
X015272Y019671D01*
X015272Y019642D01*
X015257Y019657D01*
X015129Y019710D01*
X014991Y019710D01*
X014863Y019657D01*
X014765Y019559D01*
X014712Y019431D01*
X014712Y019293D01*
X014733Y019242D01*
X013889Y019242D01*
X014053Y019337D01*
X014245Y019529D01*
X014381Y019764D01*
X014451Y020026D01*
X014451Y020298D01*
X014381Y020560D01*
X014245Y020795D01*
X014053Y020987D01*
X013818Y021123D01*
X013556Y021193D01*
X013284Y021193D01*
X013022Y021123D01*
X012787Y020987D01*
X012595Y020795D01*
X012460Y020562D01*
X012460Y020631D02*
X012500Y020631D01*
X012460Y020790D02*
X012592Y020790D01*
X012460Y020948D02*
X012748Y020948D01*
X012994Y021107D02*
X012460Y021107D01*
X012460Y021265D02*
X016140Y021265D01*
X016140Y021424D02*
X012460Y021424D01*
X012523Y021582D02*
X016197Y021582D01*
X016356Y021741D02*
X012681Y021741D01*
X011240Y021064D02*
X010982Y021322D01*
X010800Y021322D01*
X010800Y020882D01*
X010800Y020442D01*
X010982Y020442D01*
X011240Y020700D01*
X011240Y020882D01*
X010800Y020882D01*
X010800Y020882D01*
X010800Y020442D01*
X010618Y020442D01*
X010360Y020700D01*
X010360Y020882D01*
X010800Y020882D01*
X010800Y020882D01*
X010800Y020882D01*
X011240Y020882D01*
X011240Y021064D01*
X011198Y021107D02*
X011293Y021107D01*
X011240Y020948D02*
X011390Y020948D01*
X011390Y020790D02*
X011240Y020790D01*
X011171Y020631D02*
X011471Y020631D01*
X011630Y020473D02*
X011013Y020473D01*
X010800Y020473D02*
X010800Y020473D01*
X010800Y020631D02*
X010800Y020631D01*
X010800Y020790D02*
X010800Y020790D01*
X010800Y020882D02*
X010360Y020882D01*
X010360Y021064D01*
X010618Y021322D01*
X010800Y021322D01*
X010800Y020882D01*
X010800Y020882D01*
X010800Y020948D02*
X010800Y020948D01*
X010800Y021107D02*
X010800Y021107D01*
X010800Y021265D02*
X010800Y021265D01*
X010976Y021424D02*
X009964Y021424D01*
X009920Y021265D02*
X010561Y021265D01*
X010402Y021107D02*
X009920Y021107D01*
X009883Y020948D02*
X010360Y020948D01*
X010360Y020790D02*
X008078Y020790D01*
X007919Y020948D02*
X008397Y020948D01*
X008360Y021107D02*
X007761Y021107D01*
X008236Y020631D02*
X010429Y020631D01*
X010587Y020473D02*
X008395Y020473D01*
X008553Y020314D02*
X011969Y020314D01*
X011970Y020473D02*
X012060Y020473D01*
X011811Y020156D02*
X009319Y020156D01*
X008801Y020156D02*
X008650Y020156D01*
X008650Y019997D02*
X008714Y019997D01*
X008718Y019839D02*
X008650Y019839D01*
X008650Y019680D02*
X008810Y019680D01*
X009310Y019680D02*
X012508Y019680D01*
X012602Y019522D02*
X012273Y019522D01*
X012363Y019363D02*
X012538Y019363D01*
X012380Y019205D02*
X012365Y019205D01*
X014079Y019363D02*
X014712Y019363D01*
X014749Y019522D02*
X014238Y019522D01*
X014332Y019680D02*
X014918Y019680D01*
X015202Y019680D02*
X015276Y019680D01*
X015364Y019839D02*
X014401Y019839D01*
X014443Y019997D02*
X015420Y019997D01*
X015420Y020156D02*
X014451Y020156D01*
X014447Y020314D02*
X015569Y020314D01*
X015728Y020473D02*
X014404Y020473D01*
X014340Y020631D02*
X015886Y020631D01*
X016002Y020790D02*
X014248Y020790D01*
X014092Y020948D02*
X015992Y020948D01*
X016072Y021107D02*
X013846Y021107D01*
X011134Y021265D02*
X011039Y021265D01*
X009145Y020948D02*
X009135Y020948D01*
X015051Y019014D02*
X015125Y019014D01*
X015217Y018922D01*
X015537Y018602D01*
X015857Y018602D01*
X016259Y018200D01*
X016691Y018200D01*
X016677Y018176D01*
X016665Y018130D01*
X016665Y017879D01*
X017072Y017879D01*
X017072Y017743D01*
X016665Y017743D01*
X016665Y017492D01*
X016671Y017470D01*
X016591Y017470D01*
X016537Y017448D01*
X016300Y017685D01*
X016300Y018085D01*
X016183Y018202D01*
X016183Y018202D01*
X015980Y018405D01*
X015863Y018522D01*
X015543Y018522D01*
X015063Y019002D01*
X015063Y019002D01*
X015051Y019014D01*
X015177Y018888D02*
X015252Y018888D01*
X015336Y018729D02*
X015410Y018729D01*
X015494Y018571D02*
X015889Y018571D01*
X015973Y018412D02*
X016047Y018412D01*
X015980Y018405D02*
X015980Y018405D01*
X016131Y018254D02*
X016206Y018254D01*
X016290Y018095D02*
X016665Y018095D01*
X016665Y017937D02*
X016300Y017937D01*
X016300Y017778D02*
X017072Y017778D01*
X017072Y017743D02*
X017208Y017743D01*
X017208Y017336D01*
X017459Y017336D01*
X017505Y017348D01*
X017546Y017372D01*
X017546Y016829D01*
X017497Y016878D01*
X016909Y016878D01*
X016955Y016925D01*
X017008Y017053D01*
X017008Y017191D01*
X016955Y017319D01*
X016939Y017336D01*
X017072Y017336D01*
X017072Y017743D01*
X017072Y017620D02*
X017208Y017620D01*
X017208Y017461D02*
X017072Y017461D01*
X016962Y017303D02*
X017546Y017303D01*
X017546Y017372D02*
X017546Y017372D01*
X017546Y017144D02*
X017008Y017144D01*
X016980Y016986D02*
X017546Y016986D01*
X017964Y016989D02*
X017964Y016608D01*
X018107Y016316D02*
X017634Y016316D01*
X017585Y016365D01*
X017585Y016076D01*
X017544Y016035D01*
X017605Y015974D01*
X017605Y015338D01*
X017549Y015282D01*
X017605Y015226D01*
X017605Y015138D01*
X020595Y015138D01*
X020595Y015162D01*
X020577Y015162D01*
X020460Y015279D01*
X020460Y015279D01*
X020383Y015356D01*
X020329Y015334D01*
X020191Y015334D01*
X020063Y015387D01*
X019965Y015485D01*
X019912Y015613D01*
X019912Y015648D01*
X019911Y015650D01*
X019911Y015583D01*
X019898Y015537D01*
X019875Y015496D01*
X019841Y015463D01*
X019800Y015439D01*
X019754Y015427D01*
X019523Y015427D01*
X019523Y015854D01*
X019427Y015854D01*
X019427Y015427D01*
X019195Y015427D01*
X019149Y015439D01*
X019119Y015457D01*
X018487Y015457D01*
X018399Y015545D01*
X018399Y015814D01*
X018351Y015814D01*
X018223Y015867D01*
X018125Y015965D01*
X018072Y016093D01*
X018072Y016231D01*
X018107Y016316D01*
X018072Y016193D02*
X017585Y016193D01*
X017585Y016352D02*
X017598Y016352D01*
X017544Y016035D02*
X018096Y016035D01*
X018214Y015876D02*
X017605Y015876D01*
X017605Y015718D02*
X018399Y015718D01*
X018399Y015559D02*
X017605Y015559D01*
X017605Y015401D02*
X020049Y015401D01*
X019934Y015559D02*
X019904Y015559D01*
X019523Y015559D02*
X019427Y015559D01*
X019427Y015718D02*
X019523Y015718D01*
X019475Y015902D02*
X019475Y016693D01*
X019445Y016722D01*
X019174Y016993D01*
X018716Y016993D01*
X019397Y016674D02*
X019493Y016674D01*
X019493Y016247D01*
X019523Y016247D01*
X019523Y015950D01*
X019427Y015950D01*
X019427Y016377D01*
X019397Y016377D01*
X019397Y016674D01*
X019397Y016669D02*
X019493Y016669D01*
X019493Y016510D02*
X019397Y016510D01*
X019427Y016352D02*
X019493Y016352D01*
X019523Y016193D02*
X019427Y016193D01*
X019427Y016035D02*
X019523Y016035D01*
X018805Y015902D02*
X018805Y016522D01*
X018716Y016611D01*
X020115Y016722D02*
X020115Y018067D01*
X019780Y018402D01*
X018714Y018402D01*
X019980Y019125D02*
X019980Y019230D01*
X019983Y019227D01*
X020111Y019174D01*
X020249Y019174D01*
X020377Y019227D01*
X020475Y019325D01*
X020528Y019453D01*
X020528Y019587D01*
X021340Y020399D01*
X021340Y020560D01*
X021458Y020442D01*
X021640Y020442D01*
X021697Y020442D01*
X021660Y020405D01*
X021660Y019494D01*
X021565Y019399D01*
X021512Y019271D01*
X021512Y019133D01*
X021556Y019027D01*
X021438Y019027D01*
X021340Y019125D01*
X021223Y019242D01*
X020497Y019242D01*
X020257Y019002D01*
X020103Y019002D01*
X019980Y019125D01*
X019980Y019205D02*
X020037Y019205D01*
X020059Y019046D02*
X020301Y019046D01*
X020323Y019205D02*
X020460Y019205D01*
X020491Y019363D02*
X021550Y019363D01*
X021512Y019205D02*
X021260Y019205D01*
X021419Y019046D02*
X021548Y019046D01*
X021160Y018739D02*
X021160Y018286D01*
X021128Y018286D01*
X021128Y017879D01*
X020992Y017879D01*
X020992Y018286D01*
X020741Y018286D01*
X020695Y018274D01*
X020654Y018250D01*
X020621Y018217D01*
X020601Y018183D01*
X020183Y018602D01*
X020257Y018602D01*
X020423Y018602D01*
X020663Y018842D01*
X021057Y018842D01*
X021160Y018739D01*
X021160Y018729D02*
X020550Y018729D01*
X020373Y018412D02*
X021160Y018412D01*
X021160Y018571D02*
X020214Y018571D01*
X020531Y018254D02*
X020660Y018254D01*
X020992Y018254D02*
X021128Y018254D01*
X021128Y018095D02*
X020992Y018095D01*
X020992Y017937D02*
X021128Y017937D01*
X021128Y017743D02*
X021128Y017336D01*
X021379Y017336D01*
X021386Y017338D01*
X021386Y016878D01*
X020780Y016878D01*
X020780Y017336D01*
X020992Y017336D01*
X020992Y017743D01*
X021128Y017743D01*
X021128Y017620D02*
X020992Y017620D01*
X020992Y017461D02*
X021128Y017461D01*
X021386Y017303D02*
X020780Y017303D01*
X020780Y017144D02*
X021386Y017144D01*
X021386Y016986D02*
X020780Y016986D01*
X021060Y016433D02*
X021060Y015736D01*
X020497Y015242D02*
X017589Y015242D01*
X017140Y014908D02*
X016526Y014908D01*
X016180Y014562D01*
X014340Y014562D01*
X013940Y014162D01*
X013460Y014162D01*
X013220Y014402D01*
X012740Y014402D01*
X012260Y013922D01*
X011780Y013922D01*
X011540Y014162D01*
X011540Y014748D01*
X011460Y014828D01*
X011514Y014882D01*
X012980Y014882D01*
X013540Y015442D01*
X013780Y015442D01*
X014020Y015682D01*
X014286Y015522D01*
X013740Y016042D02*
X013260Y016042D01*
X012912Y016035D02*
X012145Y016035D01*
X012145Y016193D02*
X012655Y016193D01*
X012661Y016191D02*
X012932Y016191D01*
X012932Y016579D01*
X012505Y016579D01*
X012505Y016348D01*
X012517Y016302D01*
X012541Y016261D01*
X012574Y016227D01*
X012615Y016204D01*
X012661Y016191D01*
X012505Y016352D02*
X012145Y016352D01*
X012145Y016510D02*
X012505Y016510D01*
X012505Y016827D02*
X011164Y016827D01*
X011251Y016913D02*
X010716Y016913D01*
X011029Y016913D01*
X011164Y016986D02*
X012146Y016986D01*
X012020Y017144D02*
X011285Y017144D01*
X011251Y016913D02*
X011740Y017402D01*
X011700Y017442D01*
X011700Y017651D01*
X011768Y017719D02*
X011632Y017719D01*
X011632Y018126D01*
X011627Y018126D01*
X011955Y018454D01*
X011955Y018378D01*
X012011Y018322D01*
X011955Y018266D01*
X011955Y018126D01*
X011768Y018126D01*
X011768Y017719D01*
X011768Y017778D02*
X011632Y017778D01*
X011632Y017937D02*
X011768Y017937D01*
X011768Y018095D02*
X011632Y018095D01*
X011754Y018254D02*
X011955Y018254D01*
X011955Y018412D02*
X011913Y018412D01*
X012420Y017948D02*
X012420Y017442D01*
X012340Y017282D01*
X012965Y017282D01*
X012980Y017297D01*
X012915Y017362D01*
X012980Y017297D02*
X013060Y017377D01*
X012535Y016986D02*
X012534Y016986D01*
X012932Y016669D02*
X012107Y016669D01*
X011293Y016669D02*
X011134Y016669D01*
X011134Y016510D02*
X011255Y016510D01*
X011255Y016352D02*
X011134Y016352D01*
X011700Y016273D02*
X011780Y016193D01*
X011780Y015842D01*
X011514Y015576D01*
X011460Y015576D01*
X011925Y015559D02*
X012205Y015559D01*
X012092Y015401D02*
X011925Y015401D01*
X011909Y015242D02*
X012072Y015242D01*
X011981Y015718D02*
X012333Y015718D01*
X012491Y015876D02*
X012106Y015876D01*
X012932Y016193D02*
X012946Y016193D01*
X012932Y016352D02*
X013028Y016352D01*
X013028Y016510D02*
X012932Y016510D01*
X012980Y016627D02*
X012965Y016642D01*
X013740Y016042D02*
X014260Y016562D01*
X014426Y016562D02*
X014476Y016611D01*
X014924Y016869D02*
X014924Y016993D01*
X014476Y016993D01*
X014476Y016993D01*
X014924Y016993D01*
X014924Y017159D01*
X014919Y017178D01*
X015033Y017292D01*
X015033Y017292D01*
X015043Y017303D01*
X015054Y017292D01*
X015095Y017268D01*
X015141Y017256D01*
X015392Y017256D01*
X015392Y017663D01*
X015528Y017663D01*
X015528Y017256D01*
X015779Y017256D01*
X015825Y017268D01*
X015866Y017292D01*
X015899Y017325D01*
X015923Y017366D01*
X015935Y017412D01*
X015935Y017484D01*
X016017Y017402D01*
X016269Y017150D01*
X016191Y017150D01*
X016063Y017097D01*
X015968Y017002D01*
X015057Y017002D01*
X014940Y016885D01*
X014940Y016885D01*
X014924Y016869D01*
X014924Y016986D02*
X015041Y016986D01*
X014924Y017144D02*
X016176Y017144D01*
X016117Y017303D02*
X015877Y017303D01*
X015935Y017461D02*
X015958Y017461D01*
X015528Y017461D02*
X015392Y017461D01*
X015392Y017303D02*
X015528Y017303D01*
X015528Y017620D02*
X015392Y017620D01*
X014476Y017757D02*
X014476Y018480D01*
X014234Y018402D01*
X016365Y017620D02*
X016665Y017620D01*
X016569Y017461D02*
X016524Y017461D01*
X011768Y017461D02*
X011632Y017461D01*
X011632Y017303D02*
X011768Y017303D01*
X009546Y016827D02*
X009100Y016827D01*
X009100Y016669D02*
X009546Y016669D01*
X009546Y016510D02*
X009100Y016510D01*
X009100Y016352D02*
X009546Y016352D01*
X008700Y016352D02*
X008690Y016352D01*
X008690Y016510D02*
X008700Y016510D01*
X008700Y016193D02*
X008659Y016193D01*
X008700Y016035D02*
X008514Y016035D01*
X008450Y015876D02*
X008700Y015876D01*
X008700Y015718D02*
X008450Y015718D01*
X008508Y015401D02*
X008552Y015401D01*
X008528Y015242D02*
X008573Y015242D01*
X008474Y015084D02*
X008686Y015084D01*
X008034Y014925D02*
X010995Y014925D01*
X010995Y014767D02*
X009588Y014767D01*
X009648Y014608D02*
X010995Y014608D01*
X011055Y014450D02*
X010377Y014450D01*
X010391Y014291D02*
X011310Y014291D01*
X011310Y014133D02*
X010391Y014133D01*
X010003Y014133D02*
X009907Y014133D01*
X009940Y014097D02*
X009955Y014082D01*
X009955Y013747D01*
X010020Y013682D01*
X010020Y013445D01*
X010115Y013350D01*
X010020Y013255D01*
X010014Y013255D01*
X009918Y013350D01*
X009929Y013350D02*
X010105Y013350D01*
X010105Y013350D01*
X009929Y013350D01*
X009929Y013350D01*
X010020Y013255D02*
X010020Y013042D01*
X010260Y012802D01*
X010500Y012802D01*
X010555Y012857D01*
X010608Y012857D01*
X010875Y012857D01*
X011060Y013042D01*
X011205Y013042D01*
X011300Y013137D01*
X011252Y013340D02*
X011348Y013340D01*
X011348Y013499D02*
X011252Y013499D01*
X010913Y013657D02*
X012112Y013657D01*
X011954Y013499D02*
X011742Y013499D01*
X011775Y013340D02*
X011795Y013340D01*
X011561Y013816D02*
X010928Y013816D01*
X010860Y013974D02*
X011403Y013974D01*
X010003Y013974D02*
X009907Y013974D01*
X009907Y014034D02*
X010003Y014034D01*
X010003Y013717D01*
X009999Y013718D01*
X009918Y013718D01*
X009907Y013718D01*
X009907Y014034D01*
X009907Y013816D02*
X010003Y013816D01*
X009918Y013718D02*
X009918Y013653D01*
X009918Y013718D01*
X009918Y013657D02*
X009918Y013657D01*
X009918Y013653D02*
X009918Y013653D01*
X009285Y014082D02*
X009285Y014547D01*
X009300Y014562D01*
X009907Y014450D02*
X010003Y014450D01*
X010003Y014291D02*
X009907Y014291D01*
X010608Y012847D02*
X010608Y012701D01*
X010608Y012660D01*
X010608Y012504D01*
X010608Y012464D01*
X010608Y012464D01*
X010608Y012660D01*
X010608Y012660D01*
X010608Y012660D01*
X010608Y012847D01*
X010608Y012847D01*
X010608Y012706D02*
X010608Y012706D01*
X010608Y012548D02*
X010608Y012548D01*
X010608Y012464D02*
X010608Y012307D01*
X010608Y012267D01*
X010608Y012267D01*
X010608Y012464D01*
X010608Y012464D01*
X010608Y012389D02*
X010608Y012389D01*
X010608Y012267D02*
X010608Y012070D01*
X010608Y012070D01*
X010608Y012267D01*
X010608Y012267D01*
X010608Y012231D02*
X010608Y012231D01*
X010608Y012072D02*
X010608Y012072D01*
X009032Y012660D02*
X008835Y012464D01*
X008340Y012464D01*
X008256Y012464D01*
X010940Y010963D02*
X011100Y010963D01*
X011100Y010804D02*
X010940Y010804D01*
X010940Y010646D02*
X011100Y010646D01*
X011100Y010487D02*
X010940Y010487D01*
X010940Y010329D02*
X011100Y010329D01*
X011169Y010170D02*
X010940Y010170D01*
X010940Y010012D02*
X011328Y010012D01*
X011486Y009853D02*
X010940Y009853D01*
X010795Y009695D02*
X011645Y009695D01*
X012460Y009536D02*
X010637Y009536D01*
X010478Y009378D02*
X012460Y009378D01*
X012460Y009402D02*
X012531Y009402D01*
X012531Y009402D01*
X012460Y009402D01*
X012490Y009219D02*
X010320Y009219D01*
X010161Y009061D02*
X012524Y009061D01*
X012975Y008902D02*
X011403Y008902D01*
X011656Y008744D02*
X012969Y008744D01*
X013357Y008744D02*
X013453Y008744D01*
X013453Y008610D02*
X013453Y008992D01*
X013416Y008992D01*
X013371Y009004D01*
X013357Y009012D01*
X013357Y008610D01*
X013453Y008610D01*
X013453Y008902D02*
X013357Y008902D01*
X013700Y009033D02*
X013700Y009522D01*
X013860Y009522D01*
X013860Y009007D01*
X013761Y009007D01*
X013731Y009025D01*
X013700Y009033D01*
X013700Y009061D02*
X013860Y009061D01*
X013860Y009219D02*
X013700Y009219D01*
X013700Y009378D02*
X013860Y009378D01*
X013860Y009682D02*
X013700Y009682D01*
X013700Y010212D01*
X013416Y010212D01*
X013371Y010200D01*
X013329Y010176D01*
X013306Y010153D01*
X013262Y010197D01*
X012860Y010197D01*
X012860Y010350D01*
X012955Y010445D01*
X013008Y010573D01*
X013008Y010707D01*
X014223Y011922D01*
X014429Y011922D01*
X014445Y011885D01*
X014543Y011787D01*
X014671Y011734D01*
X014809Y011734D01*
X014937Y011787D01*
X015035Y011885D01*
X015088Y012013D01*
X015088Y012151D01*
X015035Y012279D01*
X014937Y012377D01*
X014809Y012430D01*
X014705Y012430D01*
X014705Y012646D01*
X014649Y012702D01*
X014705Y012758D01*
X014705Y012932D01*
X015268Y012932D01*
X015213Y012909D01*
X015087Y012784D01*
X015019Y012619D01*
X015019Y012442D01*
X015087Y012277D01*
X015213Y012152D01*
X015310Y012112D01*
X015310Y010257D01*
X015275Y010222D01*
X014545Y010222D01*
X014520Y010197D01*
X014298Y010197D01*
X014254Y010153D01*
X014231Y010176D01*
X014189Y010200D01*
X014144Y010212D01*
X013860Y010212D01*
X013860Y009682D01*
X013860Y009695D02*
X013700Y009695D01*
X013700Y009853D02*
X013860Y009853D01*
X013860Y010012D02*
X013700Y010012D01*
X013700Y010170D02*
X013860Y010170D01*
X014237Y010170D02*
X014271Y010170D01*
X014640Y009992D02*
X015370Y009992D01*
X015540Y010162D01*
X015540Y012457D01*
X015466Y012531D01*
X015055Y012706D02*
X014653Y012706D01*
X014705Y012548D02*
X015019Y012548D01*
X015041Y012389D02*
X014908Y012389D01*
X015055Y012231D02*
X015134Y012231D01*
X015088Y012072D02*
X015310Y012072D01*
X015310Y011914D02*
X015047Y011914D01*
X014860Y011755D02*
X015310Y011755D01*
X015310Y011597D02*
X013897Y011597D01*
X014056Y011755D02*
X014620Y011755D01*
X014433Y011914D02*
X014214Y011914D01*
X013739Y011438D02*
X015310Y011438D01*
X015310Y011280D02*
X013580Y011280D01*
X013422Y011121D02*
X015310Y011121D01*
X015310Y010963D02*
X013263Y010963D01*
X013105Y010804D02*
X015310Y010804D01*
X015310Y010646D02*
X013008Y010646D01*
X012973Y010487D02*
X015310Y010487D01*
X015310Y010329D02*
X012860Y010329D01*
X013289Y010170D02*
X013323Y010170D01*
X012920Y009597D02*
X012920Y009417D01*
X012920Y009417D01*
X012920Y009597D01*
X012920Y009597D01*
X012920Y009536D02*
X012920Y009536D01*
X012531Y009602D02*
X012531Y009602D01*
X014640Y009602D02*
X015460Y009602D01*
X015540Y009522D01*
X015540Y008667D01*
X015466Y008594D01*
X015052Y008427D02*
X015017Y008427D01*
X015160Y008268D02*
X014481Y008268D01*
X014740Y008642D02*
X015140Y009042D01*
X015140Y009362D01*
X015100Y009402D01*
X014640Y009402D01*
X015556Y009853D02*
X015936Y009853D01*
X015786Y010012D02*
X015715Y010012D01*
X015693Y009695D02*
X016242Y009695D01*
X016245Y009692D02*
X016245Y009692D01*
X016242Y009536D02*
X015770Y009536D01*
X015770Y009378D02*
X016232Y009378D01*
X016311Y009219D02*
X015770Y009219D01*
X015770Y009061D02*
X016449Y009061D01*
X016328Y008902D02*
X015790Y008902D01*
X015888Y008744D02*
X016287Y008744D01*
X016303Y008585D02*
X015913Y008585D01*
X015881Y008427D02*
X016389Y008427D01*
X016642Y008268D02*
X015773Y008268D01*
X016826Y008268D02*
X017149Y008268D01*
X017149Y008427D02*
X017079Y008427D01*
X016734Y008714D02*
X017214Y009194D01*
X017214Y009226D01*
X017240Y009252D01*
X017181Y008744D02*
X017183Y008744D01*
X018020Y009061D02*
X018180Y009061D01*
X018180Y009219D02*
X018020Y009219D01*
X018020Y009378D02*
X018180Y009378D01*
X018180Y009536D02*
X018020Y009536D01*
X018020Y009842D02*
X017835Y010027D01*
X017835Y010642D01*
X017883Y010646D02*
X022140Y010646D01*
X022140Y010804D02*
X018271Y010804D01*
X018271Y010690D02*
X018271Y010961D01*
X018258Y011007D01*
X018235Y011048D01*
X018201Y011081D01*
X018160Y011105D01*
X018114Y011117D01*
X017883Y011117D01*
X017883Y010690D01*
X018271Y010690D01*
X018271Y010594D02*
X017883Y010594D01*
X017883Y010690D01*
X017787Y010690D01*
X017787Y011117D01*
X017555Y011117D01*
X017509Y011105D01*
X017479Y011087D01*
X016847Y011087D01*
X016810Y011050D01*
X016810Y012204D01*
X016823Y012204D01*
X016987Y012272D01*
X017113Y012397D01*
X017181Y012562D01*
X017181Y012700D01*
X017791Y012089D01*
X017867Y012013D01*
X017966Y011972D01*
X022072Y011972D01*
X022072Y011853D01*
X022125Y011725D01*
X022223Y011627D01*
X022351Y011574D01*
X022489Y011574D01*
X022617Y011627D01*
X022715Y011725D01*
X022768Y011853D01*
X022768Y011972D01*
X023834Y011972D01*
X023838Y011974D01*
X023929Y011974D01*
X024057Y012027D01*
X024155Y012125D01*
X024208Y012253D01*
X024208Y012391D01*
X024155Y012519D01*
X024072Y012602D01*
X025943Y012602D01*
X026050Y012709D01*
X026050Y004319D01*
X026042Y004292D01*
X026050Y004215D01*
X026050Y004137D01*
X026055Y004123D01*
X026058Y004065D01*
X026023Y003822D01*
X025929Y003596D01*
X025784Y003399D01*
X025594Y003243D01*
X025372Y003139D01*
X025132Y003092D01*
X025086Y003092D01*
X025085Y003092D01*
X024994Y003092D01*
X024904Y003097D01*
X024889Y003092D01*
X024786Y003092D01*
X024930Y003236D01*
X024930Y003608D01*
X024666Y003872D01*
X024294Y003872D01*
X024243Y003822D01*
X024220Y003845D01*
X024220Y004046D01*
X024294Y003972D01*
X024666Y003972D01*
X024930Y004236D01*
X024930Y004608D01*
X024680Y004858D01*
X024680Y004905D01*
X023820Y005765D01*
X023703Y005882D01*
X022940Y005882D01*
X022940Y008965D01*
X022540Y009365D01*
X022540Y011045D01*
X022288Y011297D01*
X022288Y011431D01*
X022235Y011559D01*
X022137Y011657D01*
X022009Y011710D01*
X021871Y011710D01*
X021743Y011657D01*
X021645Y011559D01*
X021592Y011431D01*
X021592Y011293D01*
X021645Y011165D01*
X021743Y011067D01*
X021871Y011014D01*
X022005Y011014D01*
X022140Y010879D01*
X022140Y009365D01*
X021980Y009525D01*
X021980Y009685D01*
X021863Y009802D01*
X021623Y010042D01*
X020072Y010042D01*
X019977Y010137D01*
X019849Y010190D01*
X019711Y010190D01*
X019583Y010137D01*
X019485Y010039D01*
X019432Y009911D01*
X019432Y009777D01*
X019411Y009756D01*
X019408Y009766D01*
X019390Y009797D01*
X019390Y010149D01*
X019302Y010237D01*
X018618Y010237D01*
X018574Y010193D01*
X018551Y010216D01*
X018509Y010240D01*
X018464Y010252D01*
X018244Y010252D01*
X018258Y010277D01*
X018271Y010323D01*
X018271Y010594D01*
X018271Y010487D02*
X022140Y010487D01*
X022140Y010329D02*
X018271Y010329D01*
X019369Y010170D02*
X019662Y010170D01*
X019898Y010170D02*
X022140Y010170D01*
X022140Y010012D02*
X021653Y010012D01*
X021812Y009853D02*
X022140Y009853D01*
X022140Y009695D02*
X021970Y009695D01*
X021980Y009536D02*
X022140Y009536D01*
X022127Y009378D02*
X022140Y009378D01*
X022540Y009378D02*
X026050Y009378D01*
X026050Y009536D02*
X022540Y009536D01*
X022540Y009695D02*
X026050Y009695D01*
X026050Y009853D02*
X022540Y009853D01*
X022540Y010012D02*
X026050Y010012D01*
X026050Y010170D02*
X022540Y010170D01*
X022540Y010329D02*
X026050Y010329D01*
X026050Y010487D02*
X022540Y010487D01*
X022540Y010646D02*
X026050Y010646D01*
X026050Y010804D02*
X022540Y010804D01*
X022540Y010963D02*
X026050Y010963D01*
X026050Y011121D02*
X022464Y011121D01*
X022305Y011280D02*
X026050Y011280D01*
X026050Y011438D02*
X022285Y011438D01*
X022296Y011597D02*
X022198Y011597D01*
X022112Y011755D02*
X016810Y011755D01*
X016810Y011597D02*
X021682Y011597D01*
X021595Y011438D02*
X016810Y011438D01*
X016810Y011280D02*
X021597Y011280D01*
X021689Y011121D02*
X016810Y011121D01*
X017787Y010963D02*
X017883Y010963D01*
X017883Y010804D02*
X017787Y010804D01*
X018270Y010963D02*
X022057Y010963D01*
X022544Y011597D02*
X026050Y011597D01*
X026050Y011755D02*
X022728Y011755D01*
X022768Y011914D02*
X026050Y011914D01*
X026050Y012072D02*
X024102Y012072D01*
X024199Y012231D02*
X026050Y012231D01*
X026050Y012389D02*
X024208Y012389D01*
X024127Y012548D02*
X026050Y012548D01*
X026047Y012706D02*
X026050Y012706D01*
X025777Y013002D02*
X022472Y013002D01*
X022377Y013097D01*
X022249Y013150D01*
X022133Y013150D01*
X022344Y013361D01*
X022471Y013361D01*
X022559Y013449D01*
X022559Y013967D01*
X022471Y014055D01*
X021795Y014055D01*
X021707Y013967D01*
X021707Y013449D01*
X021745Y013412D01*
X021685Y013352D01*
X021550Y013217D01*
X021550Y012512D01*
X020382Y012512D01*
X020395Y012525D01*
X020448Y012653D01*
X020448Y012791D01*
X020409Y012887D01*
X020457Y012907D01*
X020555Y013005D01*
X020608Y013133D01*
X020608Y013271D01*
X020555Y013399D01*
X020457Y013497D01*
X020329Y013550D01*
X020191Y013550D01*
X020063Y013497D01*
X019968Y013402D01*
X019543Y013402D01*
X019623Y013482D01*
X019740Y013599D01*
X019740Y014005D01*
X019328Y014417D01*
X019328Y014551D01*
X019276Y014678D01*
X020510Y014678D01*
X020510Y014147D01*
X020645Y014012D01*
X020805Y013852D01*
X020841Y013852D01*
X020841Y013823D01*
X020929Y013735D01*
X021605Y013735D01*
X021693Y013823D01*
X021693Y014341D01*
X021605Y014429D01*
X020970Y014429D01*
X020970Y014573D01*
X020979Y014582D01*
X021437Y014582D01*
X021460Y014605D01*
X021483Y014582D01*
X021707Y014582D01*
X021707Y014197D01*
X021795Y014109D01*
X022471Y014109D01*
X022559Y014197D01*
X022559Y014715D01*
X022471Y014803D01*
X022335Y014803D01*
X022333Y014812D01*
X022333Y014878D01*
X022325Y014886D01*
X022325Y015306D01*
X022269Y015362D01*
X022325Y015418D01*
X022325Y015452D01*
X022405Y015372D01*
X022565Y015212D01*
X023715Y015212D01*
X023850Y015347D01*
X023875Y015372D01*
X024318Y015372D01*
X024383Y015307D01*
X024511Y015254D01*
X024649Y015254D01*
X024777Y015307D01*
X024875Y015405D01*
X024928Y015533D01*
X024928Y015671D01*
X024875Y015799D01*
X024777Y015897D01*
X024649Y015950D01*
X024511Y015950D01*
X024383Y015897D01*
X024318Y015832D01*
X023685Y015832D01*
X023651Y015798D01*
X023651Y015974D01*
X023263Y015974D01*
X023263Y016070D01*
X023651Y016070D01*
X023651Y016341D01*
X023638Y016387D01*
X023615Y016428D01*
X023581Y016461D01*
X023540Y016485D01*
X023494Y016497D01*
X023263Y016497D01*
X023263Y016070D01*
X023167Y016070D01*
X023167Y016497D01*
X022974Y016497D01*
X022974Y016751D01*
X022991Y016782D01*
X023004Y016828D01*
X023004Y016993D01*
X022556Y016993D01*
X022556Y016993D01*
X023004Y016993D01*
X023004Y017159D01*
X022999Y017175D01*
X023076Y017175D01*
X023223Y017322D01*
X023340Y017439D01*
X023340Y018159D01*
X023463Y018282D01*
X023580Y018399D01*
X023580Y018606D01*
X023734Y018452D01*
X024106Y018452D01*
X024370Y018716D01*
X024370Y019088D01*
X024216Y019242D01*
X024263Y019242D01*
X024380Y019359D01*
X024380Y019359D01*
X024540Y019519D01*
X024540Y019646D01*
X024734Y019452D01*
X025106Y019452D01*
X025260Y019606D01*
X025260Y019605D01*
X025007Y019352D01*
X024734Y019352D01*
X024470Y019088D01*
X024470Y018716D01*
X024734Y018452D01*
X025106Y018452D01*
X025370Y018716D01*
X025370Y019088D01*
X025340Y019119D01*
X025543Y019322D01*
X025555Y019334D01*
X025580Y019310D01*
X025580Y019262D01*
X025483Y019262D01*
X025395Y019174D01*
X025395Y018538D01*
X025451Y018482D01*
X025395Y018426D01*
X025395Y018102D01*
X025356Y018102D01*
X025106Y018352D01*
X024734Y018352D01*
X024470Y018088D01*
X024470Y017716D01*
X024734Y017452D01*
X025106Y017452D01*
X025356Y017702D01*
X025737Y017702D01*
X026050Y017702D01*
X026050Y016270D01*
X026031Y016270D01*
X025903Y016217D01*
X025805Y016119D01*
X025752Y015991D01*
X025752Y015853D01*
X025805Y015725D01*
X025900Y015630D01*
X025900Y013125D01*
X025777Y013002D01*
X025798Y013023D02*
X022451Y013023D01*
X022165Y013182D02*
X025900Y013182D01*
X025900Y013340D02*
X025334Y013340D01*
X025438Y013400D02*
X025630Y013592D01*
X025765Y013827D01*
X025836Y014090D01*
X025836Y014361D01*
X025765Y014623D01*
X025630Y014858D01*
X025438Y015050D01*
X025203Y015186D01*
X024940Y015257D01*
X024669Y015257D01*
X024407Y015186D01*
X024171Y015050D01*
X023979Y014858D01*
X023844Y014623D01*
X023773Y014361D01*
X023773Y014090D01*
X023844Y013827D01*
X023979Y013592D01*
X024171Y013400D01*
X024407Y013264D01*
X024669Y013194D01*
X024940Y013194D01*
X025203Y013264D01*
X025438Y013400D01*
X025536Y013499D02*
X025900Y013499D01*
X025900Y013657D02*
X025667Y013657D01*
X025759Y013816D02*
X025900Y013816D01*
X025900Y013974D02*
X025805Y013974D01*
X025836Y014133D02*
X025900Y014133D01*
X025900Y014291D02*
X025836Y014291D01*
X025812Y014450D02*
X025900Y014450D01*
X025900Y014608D02*
X025770Y014608D01*
X025683Y014767D02*
X025900Y014767D01*
X025900Y014925D02*
X025563Y014925D01*
X025380Y015084D02*
X025900Y015084D01*
X025900Y015242D02*
X024994Y015242D01*
X024871Y015401D02*
X025900Y015401D01*
X025900Y015559D02*
X024928Y015559D01*
X024909Y015718D02*
X025812Y015718D01*
X025752Y015876D02*
X024798Y015876D01*
X024580Y015602D02*
X023780Y015602D01*
X023620Y015442D01*
X022660Y015442D01*
X022500Y015602D01*
X022500Y015977D01*
X022545Y016022D01*
X023167Y016193D02*
X023263Y016193D01*
X023263Y016035D02*
X025770Y016035D01*
X025879Y016193D02*
X023651Y016193D01*
X023648Y016352D02*
X026050Y016352D01*
X026050Y016510D02*
X025164Y016510D01*
X025106Y016452D02*
X025370Y016716D01*
X025370Y017088D01*
X025106Y017352D01*
X024734Y017352D01*
X024470Y017088D01*
X024470Y016716D01*
X024734Y016452D01*
X025106Y016452D01*
X025323Y016669D02*
X026050Y016669D01*
X026050Y016827D02*
X025370Y016827D01*
X025370Y016986D02*
X026050Y016986D01*
X026050Y017144D02*
X025314Y017144D01*
X025156Y017303D02*
X026050Y017303D01*
X026050Y017461D02*
X025115Y017461D01*
X025274Y017620D02*
X026050Y017620D01*
X025737Y017702D02*
X025737Y017702D01*
X024725Y017461D02*
X024115Y017461D01*
X024106Y017452D02*
X024370Y017716D01*
X024370Y018088D01*
X024106Y018352D01*
X023734Y018352D01*
X023470Y018088D01*
X023470Y017716D01*
X023734Y017452D01*
X024106Y017452D01*
X024119Y017382D02*
X023940Y017382D01*
X023940Y016922D01*
X024400Y016922D01*
X024400Y017101D01*
X024119Y017382D01*
X024198Y017303D02*
X024684Y017303D01*
X024526Y017144D02*
X024357Y017144D01*
X024400Y016986D02*
X024470Y016986D01*
X024400Y016882D02*
X023940Y016882D01*
X023940Y016422D01*
X024119Y016422D01*
X024400Y016703D01*
X024400Y016882D01*
X024400Y016827D02*
X024470Y016827D01*
X024517Y016669D02*
X024365Y016669D01*
X024207Y016510D02*
X024676Y016510D01*
X023940Y016510D02*
X023900Y016510D01*
X023900Y016422D02*
X023900Y016882D01*
X023940Y016882D01*
X023940Y016922D01*
X023900Y016922D01*
X023900Y016882D01*
X023440Y016882D01*
X023440Y016703D01*
X023721Y016422D01*
X023900Y016422D01*
X023900Y016669D02*
X023940Y016669D01*
X023940Y016827D02*
X023900Y016827D01*
X023900Y016922D02*
X023440Y016922D01*
X023440Y017101D01*
X023721Y017382D01*
X023900Y017382D01*
X023900Y016922D01*
X023900Y016986D02*
X023940Y016986D01*
X023940Y017144D02*
X023900Y017144D01*
X023900Y017303D02*
X023940Y017303D01*
X023725Y017461D02*
X023340Y017461D01*
X023340Y017620D02*
X023566Y017620D01*
X023470Y017778D02*
X023340Y017778D01*
X023340Y017937D02*
X023470Y017937D01*
X023477Y018095D02*
X023340Y018095D01*
X023434Y018254D02*
X023635Y018254D01*
X023580Y018412D02*
X025395Y018412D01*
X025395Y018254D02*
X025205Y018254D01*
X025225Y018571D02*
X025395Y018571D01*
X025395Y018729D02*
X025370Y018729D01*
X025370Y018888D02*
X025395Y018888D01*
X025395Y019046D02*
X025370Y019046D01*
X025425Y019205D02*
X025426Y019205D01*
X025176Y019522D02*
X025177Y019522D01*
X025018Y019363D02*
X024384Y019363D01*
X024254Y019205D02*
X024586Y019205D01*
X024470Y019046D02*
X024370Y019046D01*
X024370Y018888D02*
X024470Y018888D01*
X024470Y018729D02*
X024370Y018729D01*
X024225Y018571D02*
X024615Y018571D01*
X024635Y018254D02*
X024205Y018254D01*
X024363Y018095D02*
X024477Y018095D01*
X024470Y017937D02*
X024370Y017937D01*
X024370Y017778D02*
X024470Y017778D01*
X024566Y017620D02*
X024274Y017620D01*
X023642Y017303D02*
X023203Y017303D01*
X023004Y017144D02*
X023483Y017144D01*
X023440Y016986D02*
X023004Y016986D01*
X023003Y016827D02*
X023440Y016827D01*
X023475Y016669D02*
X022974Y016669D01*
X022974Y016510D02*
X023633Y016510D01*
X023263Y016352D02*
X023167Y016352D01*
X023651Y015876D02*
X024362Y015876D01*
X024615Y015242D02*
X023745Y015242D01*
X024229Y015084D02*
X022325Y015084D01*
X022325Y015242D02*
X022535Y015242D01*
X022376Y015401D02*
X022308Y015401D01*
X022325Y014925D02*
X024046Y014925D01*
X023926Y014767D02*
X022507Y014767D01*
X022559Y014608D02*
X023840Y014608D01*
X023797Y014450D02*
X022559Y014450D01*
X022559Y014291D02*
X023773Y014291D01*
X023773Y014133D02*
X022494Y014133D01*
X022552Y013974D02*
X023804Y013974D01*
X023850Y013816D02*
X022559Y013816D01*
X022559Y013657D02*
X023942Y013657D01*
X024073Y013499D02*
X022559Y013499D01*
X022323Y013340D02*
X024276Y013340D01*
X022133Y013475D02*
X021780Y013122D01*
X021780Y012562D01*
X022100Y012242D01*
X022072Y011914D02*
X016810Y011914D01*
X016810Y012072D02*
X017808Y012072D01*
X017650Y012231D02*
X016887Y012231D01*
X017104Y012389D02*
X017491Y012389D01*
X017333Y012548D02*
X017175Y012548D01*
X016734Y012651D02*
X016580Y012497D01*
X016580Y010562D01*
X016580Y010162D02*
X016340Y009922D01*
X016100Y010162D01*
X016340Y009922D02*
X016420Y009842D01*
X017240Y009842D01*
X016740Y010162D02*
X016580Y010162D01*
X016740Y010162D02*
X017165Y010587D01*
X017165Y010642D01*
X019390Y010012D02*
X019473Y010012D01*
X019432Y009853D02*
X019390Y009853D01*
X019962Y009061D02*
X020248Y009061D01*
X018604Y009061D02*
X018538Y009061D01*
X022686Y009219D02*
X026050Y009219D01*
X026050Y009061D02*
X022844Y009061D01*
X022940Y008902D02*
X026050Y008902D01*
X026050Y008744D02*
X022940Y008744D01*
X022940Y008585D02*
X026050Y008585D01*
X026050Y008427D02*
X022940Y008427D01*
X022940Y008268D02*
X026050Y008268D01*
X026050Y008110D02*
X025166Y008110D01*
X025203Y008100D02*
X024940Y008170D01*
X024669Y008170D01*
X024407Y008100D01*
X024171Y007964D01*
X023979Y007772D01*
X023844Y007537D01*
X023773Y007274D01*
X023773Y007003D01*
X023844Y006741D01*
X023979Y006506D01*
X024171Y006314D01*
X024407Y006178D01*
X024669Y006108D01*
X024940Y006108D01*
X025203Y006178D01*
X025438Y006314D01*
X025630Y006506D01*
X025765Y006741D01*
X025836Y007003D01*
X025836Y007274D01*
X025765Y007537D01*
X025630Y007772D01*
X025438Y007964D01*
X025203Y008100D01*
X025451Y007951D02*
X026050Y007951D01*
X026050Y007793D02*
X025609Y007793D01*
X025709Y007634D02*
X026050Y007634D01*
X026050Y007476D02*
X025782Y007476D01*
X025824Y007317D02*
X026050Y007317D01*
X026050Y007159D02*
X025836Y007159D01*
X025835Y007000D02*
X026050Y007000D01*
X026050Y006842D02*
X025792Y006842D01*
X025732Y006683D02*
X026050Y006683D01*
X026050Y006525D02*
X025641Y006525D01*
X025490Y006366D02*
X026050Y006366D01*
X026050Y006208D02*
X025254Y006208D01*
X026050Y006049D02*
X022940Y006049D01*
X022940Y005891D02*
X026050Y005891D01*
X026050Y005732D02*
X023853Y005732D01*
X024011Y005574D02*
X026050Y005574D01*
X026050Y005415D02*
X024170Y005415D01*
X024328Y005257D02*
X026050Y005257D01*
X026050Y005098D02*
X024487Y005098D01*
X024645Y004940D02*
X026050Y004940D01*
X026050Y004781D02*
X024757Y004781D01*
X024916Y004623D02*
X026050Y004623D01*
X026050Y004464D02*
X024930Y004464D01*
X024930Y004306D02*
X026046Y004306D01*
X026050Y004147D02*
X024841Y004147D01*
X024683Y003989D02*
X026047Y003989D01*
X026024Y003830D02*
X024708Y003830D01*
X024867Y003672D02*
X025961Y003672D01*
X025868Y003513D02*
X024930Y003513D01*
X024930Y003355D02*
X025730Y003355D01*
X025493Y003196D02*
X024890Y003196D01*
X024252Y003830D02*
X024235Y003830D01*
X024220Y003989D02*
X024277Y003989D01*
X022780Y003989D02*
X022683Y003989D01*
X022666Y003972D02*
X022780Y004086D01*
X022780Y003758D01*
X022666Y003872D01*
X022294Y003872D01*
X022030Y003608D01*
X022030Y003255D01*
X021937Y003162D01*
X021899Y003162D01*
X021960Y003223D01*
X021960Y003402D01*
X021500Y003402D01*
X021500Y003442D01*
X021960Y003442D01*
X021960Y003621D01*
X021679Y003902D01*
X021500Y003902D01*
X021500Y003442D01*
X021460Y003442D01*
X021460Y003402D01*
X021000Y003402D01*
X021000Y003223D01*
X021061Y003162D01*
X020423Y003162D01*
X019983Y003602D01*
X019910Y003602D01*
X019910Y003768D01*
X019845Y003926D01*
X019728Y004042D01*
X020663Y004042D01*
X021030Y004409D01*
X021030Y004236D01*
X021294Y003972D01*
X021666Y003972D01*
X021930Y004236D01*
X021930Y004529D01*
X022030Y004429D01*
X022030Y004236D01*
X022294Y003972D01*
X022666Y003972D01*
X022708Y003830D02*
X022780Y003830D01*
X022277Y003989D02*
X021683Y003989D01*
X021751Y003830D02*
X022252Y003830D01*
X022093Y003672D02*
X021909Y003672D01*
X021960Y003513D02*
X022030Y003513D01*
X022030Y003355D02*
X021960Y003355D01*
X021971Y003196D02*
X021933Y003196D01*
X021460Y003442D02*
X021460Y003902D01*
X021281Y003902D01*
X021000Y003621D01*
X021000Y003442D01*
X021460Y003442D01*
X021460Y003513D02*
X021500Y003513D01*
X021500Y003672D02*
X021460Y003672D01*
X021460Y003830D02*
X021500Y003830D01*
X021277Y003989D02*
X019782Y003989D01*
X019884Y003830D02*
X021209Y003830D01*
X021051Y003672D02*
X019910Y003672D01*
X020072Y003513D02*
X021000Y003513D01*
X021000Y003355D02*
X020230Y003355D01*
X020389Y003196D02*
X021027Y003196D01*
X021119Y004147D02*
X020768Y004147D01*
X020926Y004306D02*
X021030Y004306D01*
X021841Y004147D02*
X022119Y004147D01*
X022030Y004306D02*
X021930Y004306D01*
X021930Y004464D02*
X021995Y004464D01*
X022940Y006208D02*
X024355Y006208D01*
X024119Y006366D02*
X022940Y006366D01*
X022940Y006525D02*
X023968Y006525D01*
X023877Y006683D02*
X022940Y006683D01*
X022940Y006842D02*
X023817Y006842D01*
X023774Y007000D02*
X022940Y007000D01*
X022940Y007159D02*
X023773Y007159D01*
X023785Y007317D02*
X022940Y007317D01*
X022940Y007476D02*
X023827Y007476D01*
X023900Y007634D02*
X022940Y007634D01*
X022940Y007793D02*
X024000Y007793D01*
X024159Y007951D02*
X022940Y007951D01*
X022940Y008110D02*
X024444Y008110D01*
X017947Y006208D02*
X015807Y006208D01*
X015966Y006366D02*
X016900Y006366D01*
X016955Y006049D02*
X015649Y006049D01*
X015490Y005891D02*
X016900Y005891D01*
X016890Y005732D02*
X015490Y005732D01*
X015542Y005574D02*
X016890Y005574D01*
X016890Y005415D02*
X015568Y005415D01*
X015520Y005257D02*
X016643Y005257D01*
X016642Y005098D02*
X015360Y005098D01*
X015360Y004940D02*
X016642Y004940D01*
X016642Y004781D02*
X015360Y004781D01*
X015360Y004623D02*
X016642Y004623D01*
X016642Y004464D02*
X015316Y004464D01*
X015475Y004306D02*
X016642Y004306D01*
X011323Y007159D02*
X011227Y007159D01*
X011227Y007317D02*
X011323Y007317D01*
X011323Y007476D02*
X011227Y007476D01*
X009214Y007159D02*
X008426Y007159D01*
X008380Y007242D02*
X008485Y007242D01*
X009005Y007762D01*
X008957Y007793D02*
X008080Y007793D01*
X008231Y007634D02*
X008569Y007634D01*
X008569Y007476D02*
X008322Y007476D01*
X008383Y007317D02*
X008649Y007317D01*
X008957Y007317D02*
X009053Y007317D01*
X009053Y007476D02*
X008957Y007476D01*
X008957Y007634D02*
X009053Y007634D01*
X008569Y007951D02*
X007843Y007951D01*
X008427Y007000D02*
X009140Y007000D01*
X009047Y006842D02*
X008416Y006842D01*
X008373Y006683D02*
X008529Y006683D01*
X008414Y006525D02*
X008301Y006525D01*
X008392Y006366D02*
X008201Y006366D01*
X008043Y006208D02*
X008444Y006208D01*
X008470Y006049D02*
X007761Y006049D01*
X009036Y006208D02*
X010065Y006208D01*
X009724Y006366D02*
X009556Y006366D01*
X009124Y006366D02*
X009088Y006366D01*
X008992Y006683D02*
X008951Y006683D01*
X020405Y012548D02*
X021550Y012548D01*
X021550Y012706D02*
X020448Y012706D01*
X020418Y012865D02*
X021550Y012865D01*
X021550Y013023D02*
X020563Y013023D01*
X020608Y013182D02*
X021550Y013182D01*
X021673Y013340D02*
X020580Y013340D01*
X020454Y013499D02*
X021707Y013499D01*
X021707Y013657D02*
X019740Y013657D01*
X019740Y013816D02*
X020849Y013816D01*
X020683Y013974D02*
X019740Y013974D01*
X019612Y014133D02*
X020524Y014133D01*
X020510Y014291D02*
X019454Y014291D01*
X019328Y014450D02*
X020510Y014450D01*
X020510Y014608D02*
X019305Y014608D01*
X020740Y014668D02*
X020740Y014242D01*
X020900Y014082D01*
X021267Y014082D01*
X021693Y014133D02*
X021772Y014133D01*
X021715Y013974D02*
X021693Y013974D01*
X021685Y013816D02*
X021707Y013816D01*
X022133Y013708D02*
X022133Y013475D01*
X021707Y014291D02*
X021693Y014291D01*
X021707Y014450D02*
X020970Y014450D01*
X020740Y014668D02*
X021060Y014988D01*
X020980Y014908D01*
X017140Y014908D01*
X019639Y013499D02*
X020066Y013499D01*
X015168Y012865D02*
X014705Y012865D01*
X014366Y013202D02*
X014240Y013076D01*
X013460Y013076D02*
X013174Y013076D01*
X021804Y016608D02*
X021804Y016989D01*
X023580Y018571D02*
X023615Y018571D01*
X024540Y019522D02*
X024664Y019522D01*
X022417Y020762D02*
X022080Y020762D01*
X022080Y020882D01*
X021640Y020882D01*
X021640Y020442D01*
X021640Y020882D01*
X021640Y020882D01*
X021640Y020882D01*
X022080Y020882D01*
X022080Y021064D01*
X021822Y021322D01*
X021640Y021322D01*
X021640Y020882D01*
X021640Y021322D01*
X021488Y021322D01*
X021488Y021431D01*
X021453Y021517D01*
X021503Y021467D01*
X021631Y021414D01*
X021765Y021414D01*
X022417Y020762D01*
X022390Y020790D02*
X022080Y020790D01*
X022080Y020948D02*
X022231Y020948D01*
X022073Y021107D02*
X022038Y021107D01*
X021914Y021265D02*
X021879Y021265D01*
X021640Y021265D02*
X021640Y021265D01*
X021640Y021107D02*
X021640Y021107D01*
X021640Y020948D02*
X021640Y020948D01*
X021640Y020882D02*
X021640Y020882D01*
X021640Y020790D02*
X021640Y020790D01*
X021640Y020631D02*
X021640Y020631D01*
X021640Y020473D02*
X021640Y020473D01*
X021660Y020314D02*
X021255Y020314D01*
X021340Y020473D02*
X021427Y020473D01*
X021660Y020156D02*
X021096Y020156D01*
X020938Y019997D02*
X021660Y019997D01*
X021660Y019839D02*
X020779Y019839D01*
X020621Y019680D02*
X021660Y019680D01*
X021660Y019522D02*
X020528Y019522D01*
X020245Y019870D02*
X020111Y019870D01*
X019983Y019817D01*
X019980Y019814D01*
X019980Y020965D01*
X019740Y021205D01*
X019623Y021322D01*
X019147Y021322D01*
X019168Y021373D01*
X019168Y021511D01*
X019147Y021562D01*
X019677Y021562D01*
X019837Y021402D01*
X020230Y021009D01*
X020230Y020712D01*
X020470Y020472D01*
X020810Y020472D01*
X020940Y020602D01*
X020940Y020565D01*
X020245Y019870D01*
X020372Y019997D02*
X019980Y019997D01*
X019980Y019839D02*
X020035Y019839D01*
X019980Y020156D02*
X020531Y020156D01*
X020689Y020314D02*
X019980Y020314D01*
X019980Y020473D02*
X020470Y020473D01*
X020311Y020631D02*
X019980Y020631D01*
X019980Y020790D02*
X020230Y020790D01*
X020230Y020948D02*
X019980Y020948D01*
X019838Y021107D02*
X020133Y021107D01*
X019974Y021265D02*
X019680Y021265D01*
X019816Y021424D02*
X019168Y021424D01*
X021488Y021424D02*
X021607Y021424D01*
X020848Y020473D02*
X020810Y020473D01*
D34*
X021140Y020482D02*
X020180Y019522D01*
X019780Y019042D02*
X019780Y020882D01*
X019540Y021122D01*
X017780Y021122D01*
X017220Y020562D01*
X016100Y020562D01*
X015620Y020082D01*
X015620Y019602D01*
X015620Y019522D01*
X015300Y019122D02*
X015060Y019362D01*
X015300Y019122D02*
X015620Y018802D01*
X015940Y018802D01*
X016342Y018400D01*
X017964Y018400D01*
X017966Y018402D01*
X017964Y018400D02*
X017964Y017753D01*
X018340Y018028D02*
X018366Y018028D01*
X018500Y018162D01*
X018500Y018802D01*
X018340Y018962D01*
X017380Y018962D01*
X017060Y019122D02*
X017300Y019362D01*
X018340Y019362D01*
X018820Y018882D01*
X019620Y018882D01*
X020580Y017922D01*
X020580Y015442D01*
X020660Y015362D01*
X021486Y015362D01*
X021860Y015736D01*
X022545Y016022D02*
X022556Y016032D01*
X022556Y016611D01*
X022506Y016562D01*
X022260Y016562D01*
X022180Y016642D01*
X022180Y017682D01*
X022255Y017757D01*
X022556Y017757D01*
X022554Y017759D01*
X022554Y018322D01*
X022314Y018562D01*
X021780Y018402D02*
X021726Y018402D01*
X021566Y018562D01*
X021620Y018508D01*
X021620Y018162D01*
X021806Y017976D01*
X021806Y017755D01*
X021804Y017753D01*
X021060Y017811D02*
X021060Y017382D01*
X020900Y017222D01*
X019700Y017442D02*
X019700Y017922D01*
X019620Y018002D01*
X018716Y017757D02*
X018714Y017759D01*
X018714Y018402D01*
X018340Y018028D01*
X018340Y016642D01*
X018371Y016611D01*
X018716Y016611D01*
X018545Y016162D02*
X018805Y015902D01*
X018545Y016162D02*
X018420Y016162D01*
X017540Y016002D02*
X018260Y015282D01*
X018980Y015282D01*
X019380Y015282D01*
X019540Y015442D01*
X019540Y015837D01*
X019475Y015902D01*
X017540Y016002D02*
X017540Y017122D01*
X017140Y017522D01*
X016660Y017522D01*
X016580Y017602D01*
X016580Y017122D02*
X016100Y017602D01*
X016100Y018002D01*
X015780Y018322D01*
X015460Y018322D01*
X014980Y018802D01*
X014980Y017522D01*
X014833Y017375D01*
X014476Y017375D01*
X014476Y016993D02*
X015571Y016993D01*
X015700Y017122D01*
X015460Y017362D01*
X015460Y017731D01*
X014476Y017757D02*
X014175Y017757D01*
X014100Y017682D01*
X014100Y016642D01*
X014180Y016562D01*
X014260Y016562D01*
X014426Y016562D01*
X014340Y016322D02*
X014820Y016322D01*
X014900Y016402D01*
X014900Y016562D01*
X015140Y016802D01*
X016260Y016802D01*
X016580Y017122D02*
X016660Y017122D01*
X017140Y017522D02*
X017140Y017811D01*
X018716Y017375D02*
X019207Y017375D01*
X019220Y017362D01*
X019620Y017362D01*
X019700Y017442D01*
X021140Y019042D02*
X021780Y018402D01*
X022980Y018802D02*
X022980Y019042D01*
X023220Y019282D01*
X023220Y019842D01*
X023280Y019902D01*
X023920Y019902D01*
X024340Y019602D02*
X024180Y019442D01*
X023620Y019442D01*
X023380Y019202D01*
X023380Y018482D01*
X023140Y018242D01*
X023140Y017522D01*
X022993Y017375D01*
X022556Y017375D01*
X022556Y016993D02*
X022587Y016962D01*
X023060Y016962D01*
X023215Y016807D01*
X023215Y016022D01*
X022133Y014795D02*
X021860Y014988D01*
X022133Y014795D02*
X022133Y014456D01*
X019540Y013922D02*
X019540Y013682D01*
X019380Y013522D01*
X018020Y013522D01*
X017700Y013842D01*
X017700Y013922D01*
X017300Y013842D02*
X017300Y014322D01*
X017300Y013842D02*
X017940Y013202D01*
X020260Y013202D01*
X020100Y012722D02*
X018100Y012722D01*
X016900Y013922D01*
X018020Y014402D02*
X018580Y013842D01*
X018980Y014482D02*
X019540Y013922D01*
X018020Y014402D02*
X018020Y014482D01*
X017140Y015656D02*
X017140Y016433D01*
X016580Y016002D02*
X015940Y016002D01*
X015700Y015762D01*
X015460Y016353D02*
X015034Y015927D01*
X015034Y015522D01*
X014340Y016322D02*
X013700Y015682D01*
X012980Y015682D01*
X012900Y015762D01*
X012660Y015762D01*
X012420Y015522D01*
X012420Y015282D01*
X011460Y016033D02*
X011700Y016273D01*
X010716Y016531D02*
X010666Y016482D01*
X010500Y016482D01*
X010340Y016642D01*
X010340Y017602D01*
X010415Y017677D01*
X010716Y017677D01*
X010716Y017295D02*
X011153Y017295D01*
X011220Y017362D01*
X011220Y018002D01*
X011940Y018722D01*
X012394Y018722D01*
X012420Y018696D01*
X012420Y018962D01*
X012660Y019202D01*
X013380Y019202D01*
X013540Y019042D01*
X014740Y019042D01*
X014980Y018802D01*
X013724Y018480D02*
X013486Y018402D01*
X013486Y018456D01*
X013060Y018882D01*
X012606Y018882D02*
X012420Y018696D01*
X011940Y019202D02*
X012020Y019282D01*
X011940Y019202D02*
X010340Y019202D01*
X009964Y018826D01*
X009964Y018400D01*
X008900Y017282D02*
X008900Y015362D01*
X012180Y014482D02*
X012340Y014642D01*
X013540Y014642D01*
X013620Y014562D01*
X014020Y014882D02*
X015700Y014882D01*
X016340Y015522D01*
X013724Y016608D02*
X013724Y016989D01*
X013060Y017377D02*
X013060Y017762D01*
X013724Y017753D02*
X013724Y018480D01*
X014474Y017759D02*
X014476Y017757D01*
X012420Y017362D02*
X012340Y017282D01*
X016180Y019042D02*
X016260Y019122D01*
X017060Y019122D01*
X019780Y019042D02*
X020020Y018802D01*
X020340Y018802D01*
X020580Y019042D01*
X021140Y019042D01*
X021860Y019202D02*
X021860Y020322D01*
X022100Y020562D01*
X024180Y020562D01*
X024340Y020402D01*
X024340Y019602D01*
X024920Y018982D02*
X025460Y019522D01*
X025460Y020322D01*
X024900Y020882D01*
X022580Y020882D01*
X021700Y021762D01*
X021140Y021362D02*
X020420Y022082D01*
X012740Y022082D01*
X012260Y021602D01*
X012260Y020322D01*
X011860Y019922D01*
X009060Y019922D01*
X010920Y021762D02*
X011800Y020882D01*
X010920Y021762D02*
X010020Y021762D01*
X009620Y021362D01*
X009514Y021362D01*
X008766Y021362D02*
X007140Y021362D01*
X007060Y021442D01*
X016340Y021442D02*
X016340Y020882D01*
X017220Y021122D02*
X017460Y021362D01*
X018740Y021362D01*
X018820Y021442D01*
X018580Y021762D02*
X019760Y021762D01*
X019920Y021602D01*
X020010Y021512D01*
X020640Y020882D01*
X021140Y020482D02*
X021140Y021362D01*
X022660Y020082D02*
X022740Y020162D01*
X022660Y020082D02*
X022660Y019202D01*
X024920Y018982D02*
X024920Y018902D01*
X025780Y018936D02*
X025860Y018856D01*
X025780Y018936D02*
X025780Y019602D01*
X025860Y018108D02*
X025654Y017902D01*
X024920Y017902D01*
X026100Y015922D02*
X026100Y013042D01*
X025860Y012802D01*
X022180Y012802D01*
X021940Y011362D02*
X022340Y010962D01*
X022340Y009282D01*
X022740Y008882D01*
X022740Y005762D01*
X022820Y005682D01*
X023620Y005682D01*
X024480Y004822D01*
X024480Y004422D01*
X024020Y004882D02*
X024020Y003762D01*
X024360Y003422D01*
X024480Y003422D01*
X023480Y003422D02*
X023160Y003422D01*
X022980Y003602D01*
X022980Y004802D01*
X022820Y004962D01*
X022180Y004962D01*
X021940Y005202D01*
X021940Y008642D01*
X021460Y009122D01*
X021140Y009122D01*
X020900Y009362D01*
X019780Y009362D01*
X019670Y009252D01*
X018960Y009252D01*
X018960Y009442D02*
X019380Y009442D01*
X019780Y009842D01*
X021540Y009842D01*
X021780Y009602D01*
X021780Y009442D01*
X022420Y008802D01*
X022420Y005522D01*
X022500Y005442D01*
X023460Y005442D01*
X024020Y004882D01*
X022480Y004422D02*
X022320Y004422D01*
X021700Y005042D01*
X021700Y008482D01*
X021380Y008802D01*
X020980Y008802D01*
X020740Y009042D01*
X020340Y008722D02*
X020500Y008562D01*
X021380Y008562D01*
X021480Y008462D01*
X021480Y004422D01*
X021220Y004882D02*
X020580Y004242D01*
X019060Y004242D01*
X018480Y003662D01*
X018480Y003402D01*
X019480Y003402D02*
X019900Y003402D01*
X020340Y002962D01*
X022020Y002962D01*
X022480Y003422D01*
X021220Y004882D02*
X021220Y008162D01*
X021140Y008242D01*
X020100Y008242D01*
X017835Y010642D02*
X017860Y010667D01*
X017860Y011202D01*
X017540Y011522D01*
X017260Y011522D01*
X014740Y012082D02*
X014494Y012328D01*
X014240Y012328D01*
X014240Y012222D01*
X012660Y010642D01*
X012660Y010232D01*
X012420Y009992D01*
X011950Y009992D01*
X011620Y010322D01*
X011620Y010722D01*
X011700Y010802D01*
X011300Y010962D02*
X011700Y011362D01*
X011620Y011282D01*
X011700Y011362D02*
X012420Y011362D01*
X012580Y011202D01*
X013460Y012082D01*
X013460Y012328D01*
X012020Y012162D02*
X012020Y012962D01*
X012660Y013602D01*
X013940Y013602D01*
X014260Y013922D01*
X014340Y013842D01*
X014866Y013842D01*
X015614Y013842D02*
X015614Y013276D01*
X015540Y013202D01*
X012980Y014002D02*
X012900Y013922D01*
X012660Y013922D01*
X011860Y013122D01*
X011860Y012242D01*
X011060Y011442D01*
X010660Y011442D01*
X010500Y011282D01*
X010500Y009922D01*
X009700Y009122D01*
X009380Y009122D01*
X008966Y008708D01*
X008966Y008442D01*
X009675Y008403D02*
X009714Y008442D01*
X009675Y008403D02*
X009675Y007762D01*
X009620Y007707D01*
X009620Y007282D01*
X009340Y007002D01*
X009340Y006642D01*
X011914Y005994D02*
X012092Y005994D01*
X012180Y006082D01*
X013060Y006482D02*
X013220Y006322D01*
X013620Y006322D01*
X013834Y006108D01*
X013914Y006108D01*
X013914Y005842D01*
X014206Y005550D01*
X014206Y004962D01*
X013060Y006482D02*
X013060Y007122D01*
X013220Y007282D01*
X011334Y008282D02*
X011334Y008688D01*
X011220Y008802D01*
X010100Y008802D01*
X009940Y008962D01*
X009940Y009122D01*
X010740Y009922D01*
X010740Y011202D01*
X010820Y011282D01*
X011140Y011282D01*
X012020Y012162D01*
X011300Y012467D02*
X011220Y012387D01*
X011220Y012082D01*
X010912Y011774D01*
X010312Y011774D01*
X010115Y011774D02*
X010115Y010963D01*
X010115Y010962D01*
X010115Y011123D01*
X009780Y011442D02*
X009700Y011442D01*
X009445Y011187D01*
X009445Y010962D01*
X009780Y011442D02*
X009918Y011580D01*
X009918Y011774D01*
X008420Y012387D02*
X008416Y012387D01*
X008340Y012464D01*
X007620Y012522D02*
X007620Y012802D01*
X007875Y013057D01*
X008420Y013057D01*
X008449Y013057D01*
X008515Y013122D01*
X007620Y012522D02*
X007500Y012402D01*
X009722Y012780D02*
X009722Y013350D01*
X010312Y013350D02*
X010312Y013494D01*
X010580Y013762D01*
X009722Y012780D02*
X009940Y012562D01*
X011300Y010962D02*
X011300Y010322D01*
X011820Y009802D01*
X012920Y009802D01*
X012920Y009992D02*
X012420Y009992D01*
X012180Y014402D02*
X012180Y014482D01*
X016340Y021442D02*
X016500Y021602D01*
X018420Y021602D01*
X018580Y021762D01*
M02*
