G75*
%MOIN*%
%OFA0B0*%
%FSLAX24Y24*%
%IPPOS*%
%LPD*%
%AMOC8*
5,1,8,0,0,1.08239X$1,22.5*
%
%ADD10R,0.0592X0.0671*%
%ADD11R,0.0710X0.0592*%
%ADD12C,0.0640*%
%ADD13C,0.0434*%
%ADD14R,0.0592X0.0710*%
%ADD15R,0.0456X0.0194*%
%ADD16R,0.0194X0.0456*%
%ADD17R,0.0671X0.0592*%
%ADD18OC8,0.0680*%
%ADD19R,0.0297X0.0552*%
%ADD20C,0.1182*%
%ADD21C,0.0674*%
%ADD22R,0.0640X0.0190*%
%ADD23R,0.0760X0.0940*%
%ADD24R,0.0300X0.0580*%
%ADD25R,0.0631X0.1182*%
%ADD26OC8,0.0600*%
%ADD27R,0.0631X0.0474*%
%ADD28R,0.0671X0.0671*%
%ADD29R,0.0616X0.0363*%
%ADD30C,0.0476*%
D10*
X013965Y006762D03*
X014635Y006762D03*
X014635Y007382D03*
X013965Y007382D03*
X014075Y008562D03*
X013405Y008562D03*
X011275Y007562D03*
X010605Y007562D03*
X009675Y007762D03*
X009005Y007762D03*
X009445Y010962D03*
X010115Y010962D03*
X017165Y010642D03*
X017835Y010642D03*
X017585Y008342D03*
X018255Y008342D03*
X018295Y007642D03*
X017625Y007642D03*
X009955Y014082D03*
X009285Y014082D03*
X018805Y015902D03*
X019475Y015902D03*
X019445Y016722D03*
X020115Y016722D03*
X022545Y016022D03*
X023215Y016022D03*
D11*
X021860Y015736D03*
X021060Y015736D03*
X021060Y014988D03*
X021860Y014988D03*
X017140Y014908D03*
X017140Y015656D03*
X012420Y017948D03*
X012420Y018696D03*
X011460Y015576D03*
X011460Y014828D03*
X013460Y013076D03*
X014240Y013076D03*
X014240Y012328D03*
X013460Y012328D03*
X025860Y018108D03*
X025860Y018856D03*
D12*
X019480Y003682D02*
X019480Y003122D01*
X018480Y003122D02*
X018480Y003682D01*
X016500Y003662D02*
X016500Y003102D01*
X015500Y003102D02*
X015500Y003662D01*
X013480Y003602D02*
X013480Y003042D01*
X012480Y003042D02*
X012480Y003602D01*
D13*
X010486Y004322D03*
X008754Y004322D03*
D14*
X013166Y005842D03*
X013914Y005842D03*
X014206Y004962D03*
X014954Y004962D03*
X011334Y008282D03*
X010586Y008282D03*
X009714Y008442D03*
X008966Y008442D03*
X014866Y013842D03*
X015614Y013842D03*
X015034Y015522D03*
X014286Y015522D03*
X014234Y018402D03*
X013486Y018402D03*
X010714Y018402D03*
X009966Y018402D03*
X009514Y021362D03*
X008766Y021362D03*
X017966Y018402D03*
X018714Y018402D03*
X021566Y018562D03*
X022314Y018562D03*
D15*
X010608Y013054D03*
X010608Y012857D03*
X010608Y012660D03*
X010608Y012464D03*
X010608Y012267D03*
X010608Y012070D03*
X009032Y012070D03*
X009032Y012267D03*
X009032Y012464D03*
X009032Y012660D03*
X009032Y012857D03*
X009032Y013054D03*
D16*
X009328Y013350D03*
X009525Y013350D03*
X009722Y013350D03*
X009918Y013350D03*
X010115Y013350D03*
X010312Y013350D03*
X010312Y011774D03*
X010115Y011774D03*
X009918Y011774D03*
X009722Y011774D03*
X009525Y011774D03*
X009328Y011774D03*
D17*
X008420Y012387D03*
X008420Y013057D03*
X011300Y013137D03*
X011300Y012467D03*
X012980Y016627D03*
X012980Y017297D03*
X010540Y006057D03*
X010540Y005387D03*
X012620Y005097D03*
X012620Y004427D03*
D18*
X021480Y004422D03*
X022480Y004422D03*
X023480Y004422D03*
X024480Y004422D03*
X024480Y003422D03*
X023480Y003422D03*
X022480Y003422D03*
X021480Y003422D03*
X023920Y016902D03*
X024920Y016902D03*
X024920Y017902D03*
X023920Y017902D03*
X023920Y018902D03*
X024920Y018902D03*
X024920Y019902D03*
X023920Y019902D03*
D19*
X011914Y005994D03*
X011540Y005994D03*
X011166Y005994D03*
X011166Y004970D03*
X011914Y004970D03*
D20*
X007395Y007019D03*
X024805Y007139D03*
X024805Y014225D03*
X018720Y020162D03*
X013420Y020162D03*
X007395Y014105D03*
D21*
X015466Y012531D03*
X016734Y012651D03*
X016734Y008714D03*
X015466Y008594D03*
D22*
X014640Y009212D03*
X014640Y009402D03*
X014640Y009602D03*
X014640Y009802D03*
X014640Y009992D03*
X012920Y009992D03*
X012920Y009802D03*
X012920Y009602D03*
X012920Y009402D03*
X012920Y009212D03*
X017240Y009252D03*
X017240Y009442D03*
X017240Y009642D03*
X017240Y009842D03*
X017240Y010032D03*
X018960Y010032D03*
X018960Y009842D03*
X018960Y009642D03*
X018960Y009442D03*
X018960Y009252D03*
D23*
X018100Y009642D03*
X013780Y009602D03*
D24*
X017160Y006642D03*
X017540Y006642D03*
X017920Y006642D03*
X017920Y005682D03*
X017160Y005682D03*
D25*
X017068Y004642D03*
X018012Y004642D03*
D26*
X020640Y020882D03*
X021640Y020882D03*
X011800Y020882D03*
X010800Y020882D03*
D27*
X022133Y014456D03*
X021267Y014082D03*
X022133Y013708D03*
D28*
X021060Y016433D03*
X021060Y017811D03*
X017140Y017811D03*
X015460Y017731D03*
X015460Y016353D03*
X017140Y016433D03*
X011700Y016273D03*
X011700Y017651D03*
D29*
X010716Y017677D03*
X010716Y017295D03*
X010716Y016913D03*
X009964Y016909D03*
X009964Y016528D03*
X010716Y016531D03*
X009964Y017291D03*
X009964Y017673D03*
X013724Y017753D03*
X013724Y017371D03*
X013724Y016989D03*
X014476Y016993D03*
X014476Y017375D03*
X014476Y017757D03*
X017964Y017753D03*
X017964Y017371D03*
X017964Y016989D03*
X017964Y016608D03*
X018716Y016611D03*
X018716Y016993D03*
X018716Y017375D03*
X018716Y017757D03*
X021804Y017753D03*
X021804Y017371D03*
X021804Y016989D03*
X022556Y016993D03*
X022556Y017375D03*
X022556Y017757D03*
X022556Y016611D03*
X021804Y016608D03*
X014476Y016611D03*
X013724Y016608D03*
D30*
X007020Y004322D03*
X008740Y006402D03*
X009340Y006642D03*
X009940Y006642D03*
X010540Y006882D03*
X012180Y006082D03*
X013540Y005082D03*
X015220Y005442D03*
X015780Y005442D03*
X018100Y006962D03*
X016980Y007522D03*
X015540Y007522D03*
X013220Y007282D03*
X014740Y008642D03*
X016580Y009442D03*
X016100Y010162D03*
X016580Y010562D03*
X017260Y011522D03*
X019020Y010722D03*
X019780Y009842D03*
X019780Y009362D03*
X020740Y009042D03*
X020340Y008722D03*
X020100Y008242D03*
X019180Y008162D03*
X020540Y007122D03*
X019620Y006402D03*
X020540Y005362D03*
X024460Y005602D03*
X017380Y003442D03*
X008380Y007242D03*
X011620Y009202D03*
X009180Y009682D03*
X011700Y010802D03*
X012580Y011202D03*
X011700Y011362D03*
X012660Y010642D03*
X013820Y010482D03*
X014740Y012082D03*
X012820Y012722D03*
X010580Y013762D03*
X009300Y014562D03*
X008900Y015362D03*
X008180Y015282D03*
X009700Y015362D03*
X010020Y016082D03*
X008180Y016562D03*
X008900Y017282D03*
X012340Y017282D03*
X013060Y017762D03*
X015700Y017122D03*
X016260Y016802D03*
X016660Y017122D03*
X016580Y017602D03*
X019220Y017362D03*
X019620Y018002D03*
X020900Y017222D03*
X018420Y016162D03*
X016580Y016002D03*
X016340Y015522D03*
X015700Y015762D03*
X014020Y014882D03*
X013620Y014562D03*
X012980Y014002D03*
X014260Y013922D03*
X012180Y014402D03*
X012420Y015282D03*
X013260Y016042D03*
X012500Y016482D03*
X016420Y014162D03*
X016900Y013922D03*
X017300Y014322D03*
X017700Y013922D03*
X018580Y013842D03*
X018980Y014482D03*
X018020Y014482D03*
X018980Y015282D03*
X020260Y015682D03*
X022700Y014882D03*
X024580Y015602D03*
X026100Y015922D03*
X024060Y013282D03*
X022180Y012802D03*
X020260Y013202D03*
X020100Y012722D03*
X022420Y011922D03*
X021940Y011362D03*
X022780Y010882D03*
X021820Y010402D03*
X022780Y009602D03*
X024220Y008722D03*
X024220Y010882D03*
X023860Y012322D03*
X009940Y012562D03*
X007500Y012402D03*
X006540Y010722D03*
X022980Y018802D03*
X022660Y019202D03*
X021860Y019202D03*
X020180Y019522D03*
X020220Y020322D03*
X021140Y021362D03*
X021700Y021762D03*
X018820Y021442D03*
X017220Y021122D03*
X016340Y020882D03*
X014860Y020802D03*
X015620Y019602D03*
X015060Y019362D03*
X016180Y019042D03*
X017380Y018962D03*
X013060Y018882D03*
X012020Y019282D03*
X009060Y019922D03*
X007420Y019682D03*
X007060Y021442D03*
X022740Y020162D03*
X025780Y019602D03*
M02*
