G75*
%MOIN*%
%OFA0B0*%
%FSLAX24Y24*%
%IPPOS*%
%LPD*%
%AMOC8*
5,1,8,0,0,1.08239X$1,22.5*
%
%ADD10R,0.0512X0.0630*%
%ADD11R,0.0591X0.0591*%
%ADD12R,0.0630X0.0512*%
%ADD13R,0.1181X0.0630*%
%ADD14R,0.0512X0.0591*%
%ADD15R,0.0283X0.0236*%
%ADD16R,0.0472X0.0118*%
%ADD17R,0.0394X0.0551*%
%ADD18R,0.0236X0.0283*%
%ADD19R,0.0591X0.0512*%
%ADD20R,0.0551X0.0394*%
%ADD21R,0.0610X0.0512*%
%ADD22R,0.0472X0.0157*%
%ADD23R,0.0315X0.0087*%
D10*
X012426Y004800D03*
X013174Y004800D03*
X013626Y007280D03*
X014374Y007280D03*
X015226Y009440D03*
X015974Y009440D03*
X015414Y010160D03*
X014666Y010160D03*
X014666Y010880D03*
X015414Y010880D03*
X009094Y012640D03*
X008346Y012640D03*
X007494Y011520D03*
X006746Y011520D03*
X005654Y011600D03*
X004906Y011600D03*
X012666Y014720D03*
X013414Y014720D03*
X014106Y014640D03*
X014854Y014640D03*
X017686Y014420D03*
X018434Y014420D03*
X018434Y013600D03*
X017686Y013600D03*
X023786Y011920D03*
X024534Y011920D03*
X005814Y019200D03*
X005066Y019200D03*
X011946Y020800D03*
X012694Y020800D03*
X014506Y020400D03*
X015254Y020400D03*
X008454Y021920D03*
X007706Y021920D03*
D11*
X007211Y008940D03*
X008589Y008940D03*
D12*
X009440Y008666D03*
X009440Y009414D03*
X016480Y005494D03*
X016480Y004746D03*
X024640Y010186D03*
X024640Y010934D03*
X022720Y011146D03*
X022720Y011894D03*
X022160Y018266D03*
X022160Y019014D03*
X024560Y019306D03*
X024560Y020054D03*
X021440Y021866D03*
X021440Y022614D03*
X015920Y021974D03*
X015920Y021226D03*
X008880Y020854D03*
X008880Y020106D03*
D13*
X018014Y007300D03*
X019746Y007300D03*
D14*
X019235Y008760D03*
X018565Y008760D03*
X018525Y009460D03*
X019195Y009460D03*
X023425Y007840D03*
X024095Y007840D03*
X014335Y006560D03*
X013665Y006560D03*
X006095Y008000D03*
X005425Y008000D03*
X005425Y009920D03*
X006095Y009920D03*
X005695Y014960D03*
X005025Y014960D03*
X014145Y015440D03*
X014815Y015440D03*
X023745Y014560D03*
X024415Y014560D03*
X023855Y019200D03*
X023185Y019200D03*
X012655Y021680D03*
X011985Y021680D03*
D15*
X013809Y023166D03*
X014191Y023166D03*
X014573Y023166D03*
X014955Y023166D03*
X015009Y003474D03*
X015391Y003474D03*
X014627Y003474D03*
X014245Y003474D03*
D16*
X013258Y011568D03*
X013258Y011824D03*
X013258Y012080D03*
X013258Y012336D03*
X013258Y012592D03*
X013258Y012848D03*
X013258Y013104D03*
X013258Y013360D03*
X013258Y013616D03*
X013258Y013872D03*
X015542Y013872D03*
X015542Y013616D03*
X015542Y013360D03*
X015542Y013104D03*
X015542Y012848D03*
X015542Y012592D03*
X015542Y012336D03*
X015542Y012080D03*
X015542Y011824D03*
X015542Y011568D03*
D17*
X009094Y010847D03*
X008346Y010847D03*
X008720Y011713D03*
X012720Y006513D03*
X012346Y005647D03*
X013094Y005647D03*
X024240Y017647D03*
X023866Y018513D03*
X024614Y018513D03*
X017414Y021247D03*
X016666Y021247D03*
X017040Y022113D03*
X009734Y022593D03*
X008986Y022593D03*
X009360Y021727D03*
D18*
G36*
X005827Y022119D02*
X005660Y022286D01*
X005859Y022485D01*
X006026Y022318D01*
X005827Y022119D01*
G37*
G36*
X005557Y021849D02*
X005390Y022016D01*
X005589Y022215D01*
X005756Y022048D01*
X005557Y021849D01*
G37*
G36*
X005287Y021579D02*
X005120Y021746D01*
X005319Y021945D01*
X005486Y021778D01*
X005287Y021579D01*
G37*
G36*
X005017Y021309D02*
X004850Y021476D01*
X005049Y021675D01*
X005216Y021508D01*
X005017Y021309D01*
G37*
G36*
X023469Y022423D02*
X023636Y022590D01*
X023835Y022391D01*
X023668Y022224D01*
X023469Y022423D01*
G37*
G36*
X023739Y022153D02*
X023906Y022320D01*
X024105Y022121D01*
X023938Y021954D01*
X023739Y022153D01*
G37*
G36*
X024009Y021883D02*
X024176Y022050D01*
X024375Y021851D01*
X024208Y021684D01*
X024009Y021883D01*
G37*
G36*
X024279Y021613D02*
X024446Y021780D01*
X024645Y021581D01*
X024478Y021414D01*
X024279Y021613D01*
G37*
X025246Y013791D03*
X025246Y013409D03*
X025246Y013027D03*
X025246Y012645D03*
X004354Y012689D03*
X004354Y013071D03*
X004354Y013453D03*
X004354Y013835D03*
D19*
X004720Y009375D03*
X004720Y008705D03*
X022720Y008895D03*
X022720Y008225D03*
X024720Y008865D03*
X024720Y009535D03*
X005440Y020065D03*
X005440Y020735D03*
D20*
X023873Y010934D03*
X023007Y010560D03*
X023873Y010186D03*
D21*
X005475Y004714D03*
X008605Y004714D03*
X008605Y006486D03*
X005475Y006486D03*
D22*
X019910Y013926D03*
X019910Y014320D03*
X019910Y014714D03*
X021210Y014714D03*
X021210Y014320D03*
X021210Y013926D03*
D23*
X023402Y009355D03*
X023402Y009197D03*
X023402Y009040D03*
X023402Y008883D03*
X023402Y008725D03*
X024118Y008725D03*
X024118Y008883D03*
X024118Y009040D03*
X024118Y009197D03*
X024118Y009355D03*
X006038Y009355D03*
X006038Y009197D03*
X006038Y009040D03*
X006038Y008883D03*
X006038Y008725D03*
X005322Y008725D03*
X005322Y008883D03*
X005322Y009040D03*
X005322Y009197D03*
X005322Y009355D03*
M02*
