G75*
%MOIN*%
%OFA0B0*%
%FSLAX24Y24*%
%IPPOS*%
%LPD*%
%AMOC8*
5,1,8,0,0,1.08239X$1,22.5*
%
%ADD10R,0.0512X0.0630*%
%ADD11R,0.0591X0.0591*%
%ADD12R,0.0630X0.0512*%
%ADD13R,0.1181X0.0630*%
%ADD14R,0.0512X0.0591*%
%ADD15OC8,0.0600*%
%ADD16R,0.0283X0.0236*%
%ADD17R,0.0472X0.0118*%
%ADD18C,0.0600*%
%ADD19R,0.0394X0.0551*%
%ADD20OC8,0.0520*%
%ADD21R,0.0236X0.0283*%
%ADD22R,0.0591X0.0512*%
%ADD23C,0.0104*%
%ADD24R,0.0551X0.0394*%
%ADD25R,0.0610X0.0512*%
%ADD26R,0.0472X0.0157*%
%ADD27R,0.0591X0.1181*%
%ADD28R,0.0315X0.0087*%
%ADD29C,0.0396*%
%ADD30C,0.0160*%
%ADD31C,0.0240*%
%ADD32C,0.0120*%
%ADD33C,0.0100*%
D10*
X012426Y004800D03*
X013174Y004800D03*
X013626Y007280D03*
X014374Y007280D03*
X015226Y009440D03*
X015974Y009440D03*
X015414Y010160D03*
X014666Y010160D03*
X014666Y010880D03*
X015414Y010880D03*
X009094Y012640D03*
X008346Y012640D03*
X007494Y011520D03*
X006746Y011520D03*
X005654Y011600D03*
X004906Y011600D03*
X012666Y014720D03*
X013414Y014720D03*
X014106Y014640D03*
X014854Y014640D03*
X017686Y014420D03*
X018434Y014420D03*
X018434Y013600D03*
X017686Y013600D03*
X023786Y011920D03*
X024534Y011920D03*
X005814Y019200D03*
X005066Y019200D03*
X011946Y020800D03*
X012694Y020800D03*
X014506Y020400D03*
X015254Y020400D03*
X008454Y021920D03*
X007706Y021920D03*
D11*
X007211Y008940D03*
X008589Y008940D03*
D12*
X009440Y008666D03*
X009440Y009414D03*
X016480Y005494D03*
X016480Y004746D03*
X024640Y010186D03*
X024640Y010934D03*
X022720Y011146D03*
X022720Y011894D03*
X022160Y018266D03*
X022160Y019014D03*
X024560Y019306D03*
X024560Y020054D03*
X021440Y021866D03*
X021440Y022614D03*
X015920Y021974D03*
X015920Y021226D03*
X008880Y020854D03*
X008880Y020106D03*
D13*
X018014Y007300D03*
X019746Y007300D03*
D14*
X019235Y008760D03*
X018565Y008760D03*
X018525Y009460D03*
X019195Y009460D03*
X023425Y007840D03*
X024095Y007840D03*
X014335Y006560D03*
X013665Y006560D03*
X006095Y008000D03*
X005425Y008000D03*
X005425Y009920D03*
X006095Y009920D03*
X005695Y014960D03*
X005025Y014960D03*
X014145Y015440D03*
X014815Y015440D03*
X023745Y014560D03*
X024415Y014560D03*
X023855Y019200D03*
X023185Y019200D03*
X012655Y021680D03*
X011985Y021680D03*
D15*
X020180Y005300D03*
X021180Y005300D03*
X022180Y005300D03*
X023180Y005300D03*
X023180Y004300D03*
X022180Y004300D03*
X021180Y004300D03*
X020180Y004300D03*
D16*
X015391Y003474D03*
X015009Y003474D03*
X014627Y003474D03*
X014245Y003474D03*
X014191Y023166D03*
X013809Y023166D03*
X014573Y023166D03*
X014955Y023166D03*
D17*
X015542Y013872D03*
X015542Y013616D03*
X015542Y013360D03*
X015542Y013104D03*
X015542Y012848D03*
X015542Y012592D03*
X015542Y012336D03*
X015542Y012080D03*
X015542Y011824D03*
X015542Y011568D03*
X013258Y011568D03*
X013258Y011824D03*
X013258Y012080D03*
X013258Y012336D03*
X013258Y012592D03*
X013258Y012848D03*
X013258Y013104D03*
X013258Y013360D03*
X013258Y013616D03*
X013258Y013872D03*
D18*
X012900Y016660D02*
X012900Y017260D01*
X013900Y017260D02*
X013900Y016660D01*
X014900Y016660D02*
X014900Y017260D01*
X015900Y017260D02*
X015900Y016660D01*
X022420Y016320D02*
X023020Y016320D01*
X023020Y015320D02*
X022420Y015320D01*
X022420Y017320D02*
X023020Y017320D01*
D19*
X024240Y017647D03*
X023866Y018513D03*
X024614Y018513D03*
X017414Y021247D03*
X016666Y021247D03*
X017040Y022113D03*
X009734Y022593D03*
X008986Y022593D03*
X009360Y021727D03*
X008720Y011713D03*
X008346Y010847D03*
X009094Y010847D03*
X012720Y006513D03*
X012346Y005647D03*
X013094Y005647D03*
D20*
X014380Y005840D03*
X015380Y005840D03*
X022880Y012620D03*
X022880Y013620D03*
X006800Y013700D03*
X006800Y012700D03*
X013980Y021440D03*
X014980Y021440D03*
D21*
G36*
X023469Y022423D02*
X023636Y022590D01*
X023835Y022391D01*
X023668Y022224D01*
X023469Y022423D01*
G37*
G36*
X023739Y022153D02*
X023906Y022320D01*
X024105Y022121D01*
X023938Y021954D01*
X023739Y022153D01*
G37*
G36*
X024009Y021883D02*
X024176Y022050D01*
X024375Y021851D01*
X024208Y021684D01*
X024009Y021883D01*
G37*
G36*
X024279Y021613D02*
X024446Y021780D01*
X024645Y021581D01*
X024478Y021414D01*
X024279Y021613D01*
G37*
G36*
X005827Y022119D02*
X005660Y022286D01*
X005859Y022485D01*
X006026Y022318D01*
X005827Y022119D01*
G37*
G36*
X005557Y021849D02*
X005390Y022016D01*
X005589Y022215D01*
X005756Y022048D01*
X005557Y021849D01*
G37*
G36*
X005287Y021579D02*
X005120Y021746D01*
X005319Y021945D01*
X005486Y021778D01*
X005287Y021579D01*
G37*
G36*
X005017Y021309D02*
X004850Y021476D01*
X005049Y021675D01*
X005216Y021508D01*
X005017Y021309D01*
G37*
X004354Y013835D03*
X004354Y013453D03*
X004354Y013071D03*
X004354Y012689D03*
X025246Y012645D03*
X025246Y013027D03*
X025246Y013409D03*
X025246Y013791D03*
D22*
X024720Y009535D03*
X024720Y008865D03*
X022720Y008895D03*
X022720Y008225D03*
X004720Y008705D03*
X004720Y009375D03*
X005440Y020065D03*
X005440Y020735D03*
D23*
X006921Y020160D02*
X006973Y020212D01*
X006973Y020040D01*
X006852Y019919D01*
X006680Y019919D01*
X006559Y020040D01*
X006559Y020212D01*
X006680Y020333D01*
X006852Y020333D01*
X006973Y020212D01*
X006895Y020180D01*
X006895Y020072D01*
X006820Y019997D01*
X006712Y019997D01*
X006637Y020072D01*
X006637Y020180D01*
X006712Y020255D01*
X006820Y020255D01*
X006895Y020180D01*
X006817Y020147D01*
X006817Y020105D01*
X006787Y020075D01*
X006745Y020075D01*
X006715Y020105D01*
X006715Y020147D01*
X006745Y020177D01*
X006787Y020177D01*
X006817Y020147D01*
X007629Y020868D02*
X007681Y020920D01*
X007681Y020748D01*
X007560Y020627D01*
X007388Y020627D01*
X007267Y020748D01*
X007267Y020920D01*
X007388Y021041D01*
X007560Y021041D01*
X007681Y020920D01*
X007603Y020888D01*
X007603Y020780D01*
X007528Y020705D01*
X007420Y020705D01*
X007345Y020780D01*
X007345Y020888D01*
X007420Y020963D01*
X007528Y020963D01*
X007603Y020888D01*
X007525Y020855D01*
X007525Y020813D01*
X007495Y020783D01*
X007453Y020783D01*
X007423Y020813D01*
X007423Y020855D01*
X007453Y020885D01*
X007495Y020885D01*
X007525Y020855D01*
X022160Y020679D02*
X022212Y020627D01*
X022040Y020627D01*
X021919Y020748D01*
X021919Y020920D01*
X022040Y021041D01*
X022212Y021041D01*
X022333Y020920D01*
X022333Y020748D01*
X022212Y020627D01*
X022180Y020705D01*
X022072Y020705D01*
X021997Y020780D01*
X021997Y020888D01*
X022072Y020963D01*
X022180Y020963D01*
X022255Y020888D01*
X022255Y020780D01*
X022180Y020705D01*
X022147Y020783D01*
X022105Y020783D01*
X022075Y020813D01*
X022075Y020855D01*
X022105Y020885D01*
X022147Y020885D01*
X022177Y020855D01*
X022177Y020813D01*
X022147Y020783D01*
X022868Y019971D02*
X022920Y019919D01*
X022748Y019919D01*
X022627Y020040D01*
X022627Y020212D01*
X022748Y020333D01*
X022920Y020333D01*
X023041Y020212D01*
X023041Y020040D01*
X022920Y019919D01*
X022888Y019997D01*
X022780Y019997D01*
X022705Y020072D01*
X022705Y020180D01*
X022780Y020255D01*
X022888Y020255D01*
X022963Y020180D01*
X022963Y020072D01*
X022888Y019997D01*
X022855Y020075D01*
X022813Y020075D01*
X022783Y020105D01*
X022783Y020147D01*
X022813Y020177D01*
X022855Y020177D01*
X022885Y020147D01*
X022885Y020105D01*
X022855Y020075D01*
D24*
X023873Y010934D03*
X023007Y010560D03*
X023873Y010186D03*
D25*
X008605Y006486D03*
X005475Y006486D03*
X005475Y004714D03*
X008605Y004714D03*
D26*
X019910Y013926D03*
X019910Y014320D03*
X019910Y014714D03*
X021210Y014714D03*
X021210Y014320D03*
X021210Y013926D03*
D27*
X020560Y014320D03*
D28*
X023402Y009355D03*
X023402Y009197D03*
X023402Y009040D03*
X023402Y008883D03*
X023402Y008725D03*
X024118Y008725D03*
X024118Y008883D03*
X024118Y009040D03*
X024118Y009197D03*
X024118Y009355D03*
X006038Y009355D03*
X006038Y009197D03*
X006038Y009040D03*
X006038Y008883D03*
X006038Y008725D03*
X005322Y008725D03*
X005322Y008883D03*
X005322Y009040D03*
X005322Y009197D03*
X005322Y009355D03*
D29*
X006880Y009920D03*
X008160Y010240D03*
X005120Y010800D03*
X005440Y012400D03*
X005280Y013040D03*
X005680Y013520D03*
X008000Y013440D03*
X010240Y014320D03*
X010960Y014720D03*
X012720Y015360D03*
X011120Y015840D03*
X007040Y015920D03*
X005440Y015840D03*
X004960Y017440D03*
X007280Y017680D03*
X007680Y018320D03*
X008080Y019280D03*
X006400Y019040D03*
X009840Y018880D03*
X011760Y019680D03*
X012400Y020160D03*
X013280Y020160D03*
X014160Y019760D03*
X015120Y018800D03*
X018240Y019440D03*
X021280Y019520D03*
X023280Y018480D03*
X020800Y017760D03*
X018560Y017600D03*
X016560Y016320D03*
X019120Y015120D03*
X020640Y015520D03*
X022080Y014480D03*
X024240Y013680D03*
X023760Y013440D03*
X023840Y012400D03*
X022160Y011600D03*
X020240Y011360D03*
X020160Y010800D03*
X020880Y010400D03*
X021680Y010000D03*
X021680Y009440D03*
X020960Y008880D03*
X022160Y008640D03*
X023680Y008400D03*
X022320Y007360D03*
X020640Y006320D03*
X018960Y006320D03*
X017280Y005440D03*
X019040Y004800D03*
X016560Y004240D03*
X015520Y004240D03*
X014080Y004640D03*
X013280Y004080D03*
X015760Y006480D03*
X016720Y007920D03*
X014960Y008240D03*
X013680Y008000D03*
X013600Y008480D03*
X012480Y008800D03*
X011760Y010240D03*
X012160Y010880D03*
X013440Y010800D03*
X013840Y011680D03*
X011360Y012320D03*
X010240Y012160D03*
X014000Y012640D03*
X014080Y013440D03*
X016320Y013360D03*
X016720Y013040D03*
X017920Y012880D03*
X016800Y012400D03*
X017840Y012240D03*
X019040Y013440D03*
X019760Y013360D03*
X020480Y013360D03*
X016960Y014720D03*
X016320Y014320D03*
X015600Y014720D03*
X010960Y017680D03*
X011120Y020560D03*
X010160Y020720D03*
X013120Y021360D03*
X015440Y022560D03*
X018800Y022320D03*
X020240Y021760D03*
X020240Y020960D03*
X022400Y022000D03*
X020560Y022560D03*
X023840Y020640D03*
X024480Y020720D03*
X024320Y015440D03*
X024080Y011360D03*
X024800Y010880D03*
X023760Y009680D03*
X017920Y010240D03*
X017120Y009840D03*
X016480Y009680D03*
X016480Y009040D03*
X017040Y010560D03*
X008240Y007120D03*
X006800Y007760D03*
X006240Y007280D03*
X004880Y008160D03*
X006640Y004720D03*
X024320Y005040D03*
X006000Y020720D03*
X006880Y022000D03*
X007760Y022560D03*
D30*
X007760Y022800D01*
X006960Y022800D01*
X006400Y022240D01*
X005905Y022240D01*
X005843Y022302D01*
X005573Y022032D02*
X005573Y022027D01*
X006000Y021600D01*
X006707Y021600D01*
X007474Y020834D01*
X008880Y020854D02*
X008880Y021247D01*
X009360Y021727D01*
X008960Y022160D02*
X008720Y021920D01*
X008454Y021920D01*
X008960Y022160D02*
X009301Y022160D01*
X009734Y022593D01*
X008986Y022593D02*
X008767Y022593D01*
X008560Y022800D01*
X007760Y022800D01*
X007626Y022000D02*
X006880Y022000D01*
X007626Y022000D02*
X007706Y021920D01*
X005358Y021762D02*
X005303Y021762D01*
X005033Y021492D02*
X004880Y021339D01*
X004880Y020240D01*
X005055Y020065D01*
X005066Y020054D01*
X005066Y019200D01*
X005066Y018774D01*
X005280Y018560D01*
X007360Y018560D01*
X008080Y019280D01*
X006400Y019040D02*
X005974Y019040D01*
X005814Y019200D01*
X005814Y019146D01*
X005840Y019120D01*
X005440Y020065D02*
X005055Y020065D01*
X005440Y020735D02*
X005985Y020735D01*
X006000Y020720D01*
X006766Y020126D02*
X008860Y020126D01*
X008880Y020106D01*
X011120Y020560D02*
X011360Y020800D01*
X011946Y020800D01*
X011946Y021641D01*
X011985Y021680D01*
X011920Y021745D01*
X011920Y022240D01*
X012160Y022480D01*
X013280Y022480D01*
X013809Y023009D01*
X013809Y023166D01*
X014573Y023166D02*
X014573Y021847D01*
X014980Y021440D01*
X014506Y020914D02*
X013980Y021440D01*
X014506Y020914D02*
X014506Y020400D01*
X015254Y020400D02*
X016640Y020400D01*
X017040Y020800D01*
X017040Y022113D01*
X017680Y021600D02*
X017680Y022800D01*
X017600Y022880D01*
X016000Y022880D01*
X015920Y022960D01*
X015161Y022960D01*
X014955Y023166D01*
X015440Y022560D02*
X015920Y022080D01*
X015920Y021974D01*
X017414Y021334D02*
X017680Y021600D01*
X017414Y021334D02*
X017414Y021247D01*
X017414Y020614D01*
X016800Y020000D01*
X015840Y020000D01*
X015600Y019760D01*
X014160Y019760D01*
X015920Y021226D02*
X015941Y021247D01*
X016666Y021247D01*
X013120Y021360D02*
X013120Y021600D01*
X013040Y021680D01*
X012945Y021680D01*
X012800Y021535D01*
X020560Y022560D02*
X021386Y022560D01*
X021440Y022614D01*
X023445Y022614D01*
X023652Y022407D01*
X024187Y021867D02*
X023320Y021000D01*
X023280Y020960D01*
X023280Y020573D01*
X023840Y020640D02*
X023840Y020960D01*
X024462Y021582D01*
X024462Y021597D01*
X024192Y021867D02*
X024187Y021867D01*
X022160Y020800D02*
X022126Y020834D01*
X022160Y020800D02*
X022160Y019014D01*
X022214Y018320D02*
X022160Y018266D01*
X022214Y018320D02*
X022640Y018320D01*
X022960Y018000D01*
X023600Y018000D01*
X023953Y017647D01*
X024240Y017647D01*
X024560Y020054D02*
X024560Y020640D01*
X024480Y020720D01*
X024415Y014560D02*
X024400Y014545D01*
X024400Y014160D01*
X024769Y013791D01*
X025246Y013791D01*
X023745Y014560D02*
X023505Y014320D01*
X021210Y014320D01*
X019910Y014320D02*
X018534Y014320D01*
X018434Y014420D01*
X018434Y013600D02*
X018880Y013600D01*
X019040Y013440D01*
X023873Y011153D02*
X024080Y011360D01*
X024480Y011360D01*
X024560Y011440D01*
X024560Y011894D01*
X024534Y011920D01*
X024534Y012454D01*
X024720Y012640D01*
X025241Y012640D01*
X025246Y012645D01*
X025275Y012645D01*
X025280Y012640D01*
X023873Y011153D02*
X023873Y010934D01*
X023007Y011099D02*
X023007Y010560D01*
X023007Y011099D02*
X022720Y011146D01*
X014400Y007760D02*
X014160Y008000D01*
X013680Y008000D01*
X014400Y007760D02*
X014400Y007306D01*
X014374Y007280D01*
X013626Y007280D02*
X013546Y007200D01*
X013040Y007200D01*
X012720Y006880D01*
X012720Y006513D01*
X013665Y006560D02*
X013760Y006465D01*
X013760Y005840D01*
X013567Y005647D01*
X013440Y005647D01*
X014245Y004842D01*
X014245Y003474D01*
X014245Y004475D01*
X014080Y004640D01*
X015520Y004240D02*
X015520Y005120D01*
X015920Y005520D01*
X016454Y005520D01*
X016480Y005494D01*
X016480Y004746D02*
X016560Y004666D01*
X016560Y004240D01*
X016480Y004564D02*
X015391Y003474D01*
X014627Y003474D02*
X014627Y006073D01*
X014590Y006110D01*
X014380Y005900D01*
X014380Y005840D01*
X014590Y006110D02*
X014380Y006320D01*
X014380Y006515D01*
X014335Y006560D01*
X013440Y005647D02*
X013094Y005647D01*
X016480Y004746D02*
X016480Y004564D01*
X020640Y006080D02*
X020720Y006000D01*
X020640Y006080D02*
X020640Y006320D01*
X009440Y008666D02*
X008863Y008666D01*
X008589Y008940D01*
X007211Y008940D02*
X007211Y009589D01*
X006880Y009920D01*
X006095Y009920D01*
X005425Y009920D02*
X005425Y010495D01*
X005120Y010800D01*
X004906Y011600D02*
X004880Y011626D01*
X004880Y012480D01*
X004671Y012689D01*
X004354Y012689D01*
X004354Y013835D02*
X004715Y013835D01*
X005040Y014160D01*
X005040Y014945D01*
X005025Y014960D01*
X007211Y008940D02*
X007211Y006108D01*
X008605Y004714D01*
D31*
X014613Y006073D02*
X014627Y006073D01*
X018014Y005826D02*
X018014Y007300D01*
X018014Y008209D01*
X018565Y008760D01*
X018525Y008800D01*
X018525Y009460D01*
X018480Y009505D01*
X018480Y009760D01*
X018000Y010240D01*
X017920Y010240D01*
X019195Y009460D02*
X019195Y008800D01*
X019235Y008760D01*
X019235Y008525D01*
X019840Y007920D01*
X019840Y007394D01*
X019746Y007300D01*
X019826Y007220D01*
X019746Y007300D02*
X019746Y006814D01*
X020640Y005920D01*
X020640Y004760D01*
X020180Y004300D01*
X019040Y004800D02*
X018880Y004960D01*
X018666Y004746D01*
X016480Y004746D01*
X018014Y005826D02*
X018880Y004960D01*
X020640Y005920D02*
X020720Y006000D01*
X021200Y006480D01*
X021200Y010640D01*
X021200Y011280D01*
X022540Y012620D01*
X022880Y012620D01*
X023760Y013440D02*
X024173Y013027D01*
X025246Y013027D01*
X023760Y013440D02*
X023600Y013600D01*
X023600Y014415D01*
X023745Y014560D01*
X023680Y014560D01*
X023680Y016960D01*
X023320Y017320D01*
X022720Y017320D01*
X021880Y017320D01*
X021360Y017840D01*
X021360Y019440D01*
X021280Y019520D01*
X022834Y020126D02*
X023185Y019775D01*
X023185Y019200D01*
X023185Y020865D01*
X023320Y021000D01*
X023855Y020990D02*
X024462Y021597D01*
X023855Y020990D02*
X023855Y019200D01*
X023866Y019189D01*
X023866Y018513D01*
X023833Y018480D01*
X023280Y018480D01*
X023713Y018513D02*
X023866Y018513D01*
X024614Y018513D02*
X024614Y019252D01*
X024560Y019306D01*
X015120Y018800D02*
X014400Y018080D01*
X014400Y016160D01*
X014815Y015745D01*
X014815Y015440D01*
X014145Y015440D02*
X013900Y015685D01*
X013900Y016960D01*
X012900Y016960D02*
X012900Y017620D01*
X013360Y018080D01*
X014400Y018080D01*
X008080Y019280D02*
X005440Y016640D01*
X005440Y015840D01*
X005025Y015425D01*
X005025Y014960D01*
X005695Y014960D02*
X006080Y014960D01*
X007040Y015920D01*
X005695Y014960D02*
X005695Y014320D01*
X004828Y013453D01*
X004354Y013453D01*
X005695Y014225D02*
X006160Y013760D01*
X006740Y013760D01*
X006800Y013700D01*
X005695Y014225D02*
X005695Y014320D01*
X006800Y012700D02*
X008286Y012700D01*
X008346Y012640D01*
X009094Y012640D02*
X009120Y012614D01*
X009120Y012160D01*
X008720Y011760D01*
X008720Y011713D01*
X009094Y010847D02*
X009094Y010454D01*
X008880Y010240D01*
X008160Y010240D01*
X005120Y010800D02*
X004906Y011014D01*
X004906Y011600D01*
X013414Y014720D02*
X013440Y014720D01*
X013480Y014680D01*
X022160Y011600D02*
X022480Y011920D01*
X022934Y011920D01*
X022720Y011894D01*
X024415Y014560D02*
X024415Y015345D01*
X024320Y015440D01*
X012800Y021535D02*
X012655Y021680D01*
D32*
X005510Y003960D02*
X005307Y004021D01*
X005127Y004132D01*
X004982Y004286D01*
X004882Y004473D01*
X004833Y004679D01*
X004830Y004778D01*
X004830Y004792D01*
X004833Y004886D01*
X004830Y004893D01*
X004830Y008289D01*
X005009Y008289D01*
X005009Y008060D01*
X005365Y008060D01*
X005365Y007940D01*
X005009Y007940D01*
X005009Y007684D01*
X005020Y007643D01*
X005041Y007606D01*
X005071Y007577D01*
X005108Y007556D01*
X005148Y007545D01*
X005365Y007545D01*
X005365Y007940D01*
X005485Y007940D01*
X005485Y007545D01*
X005702Y007545D01*
X005743Y007556D01*
X005780Y007577D01*
X005781Y007578D01*
X005785Y007575D01*
X006094Y007575D01*
X006054Y007558D01*
X005962Y007466D01*
X005912Y007345D01*
X005912Y007215D01*
X005962Y007094D01*
X006054Y007002D01*
X006175Y006952D01*
X006305Y006952D01*
X006426Y007002D01*
X006518Y007094D01*
X006568Y007215D01*
X006568Y007345D01*
X006566Y007351D01*
X006660Y007445D01*
X006660Y007463D01*
X006735Y007432D01*
X006865Y007432D01*
X006986Y007482D01*
X007078Y007574D01*
X007128Y007695D01*
X007128Y007825D01*
X007078Y007946D01*
X006986Y008038D01*
X006980Y008041D01*
X006980Y008485D01*
X007151Y008485D01*
X007151Y008880D01*
X006815Y008880D01*
X006632Y009063D01*
X006326Y009063D01*
X006326Y009217D01*
X006345Y009250D01*
X006356Y009291D01*
X006356Y009355D01*
X006356Y009419D01*
X006345Y009460D01*
X006342Y009465D01*
X006372Y009465D01*
X006412Y009476D01*
X006449Y009497D01*
X006479Y009526D01*
X006500Y009563D01*
X006511Y009604D01*
X006511Y009860D01*
X006155Y009860D01*
X006155Y009980D01*
X006511Y009980D01*
X006511Y010236D01*
X006500Y010277D01*
X006479Y010314D01*
X006449Y010343D01*
X006412Y010364D01*
X006372Y010375D01*
X006155Y010375D01*
X006155Y009980D01*
X006035Y009980D01*
X006035Y010375D01*
X005818Y010375D01*
X005777Y010364D01*
X005740Y010343D01*
X005739Y010342D01*
X005735Y010345D01*
X005635Y010345D01*
X005635Y010582D01*
X005448Y010769D01*
X006242Y010769D01*
X006124Y010888D02*
X005439Y010888D01*
X005448Y010865D02*
X005398Y010986D01*
X005306Y011078D01*
X005185Y011128D01*
X005156Y011128D01*
X005156Y011155D01*
X005216Y011155D01*
X005280Y011219D01*
X005344Y011155D01*
X005856Y011155D01*
X006370Y010641D01*
X006481Y010530D01*
X006561Y010530D01*
X007410Y009681D01*
X007521Y009570D01*
X008995Y009570D01*
X008995Y009308D01*
X008938Y009365D01*
X008240Y009365D01*
X008164Y009289D01*
X008164Y008591D01*
X008240Y008515D01*
X008717Y008515D01*
X008776Y008456D01*
X008995Y008456D01*
X008995Y008356D01*
X009071Y008280D01*
X009730Y008280D01*
X009730Y007363D01*
X009726Y007323D01*
X009696Y007250D01*
X009670Y007219D01*
X009662Y007211D01*
X009615Y007163D01*
X009121Y006670D01*
X009040Y006670D01*
X009040Y006796D01*
X008964Y006872D01*
X008246Y006872D01*
X008170Y006796D01*
X008170Y006176D01*
X008246Y006100D01*
X008964Y006100D01*
X009040Y006176D01*
X009040Y006290D01*
X009279Y006290D01*
X009390Y006401D01*
X009953Y006964D01*
X010021Y007032D01*
X010021Y007032D01*
X010110Y007247D01*
X010110Y009121D01*
X011832Y010843D01*
X011832Y010815D01*
X011882Y010694D01*
X011974Y010602D01*
X012095Y010552D01*
X012219Y010552D01*
X013410Y009361D01*
X013410Y008754D01*
X013322Y008666D01*
X013272Y008545D01*
X013272Y008415D01*
X013322Y008294D01*
X013414Y008202D01*
X013417Y008201D01*
X013402Y008186D01*
X013352Y008065D01*
X013352Y007935D01*
X013402Y007814D01*
X013491Y007725D01*
X013316Y007725D01*
X013240Y007649D01*
X013240Y007410D01*
X012953Y007410D01*
X012830Y007287D01*
X012510Y006967D01*
X012510Y006919D01*
X012469Y006919D01*
X012393Y006843D01*
X012393Y006184D01*
X012469Y006107D01*
X012971Y006107D01*
X013047Y006184D01*
X013047Y006843D01*
X013013Y006876D01*
X013127Y006990D01*
X013240Y006990D01*
X013240Y006911D01*
X013279Y006872D01*
X013279Y006211D01*
X013356Y006135D01*
X013550Y006135D01*
X013550Y005927D01*
X013480Y005857D01*
X013421Y005857D01*
X013421Y005976D01*
X013345Y006053D01*
X012843Y006053D01*
X012767Y005976D01*
X012767Y005317D01*
X012843Y005241D01*
X012861Y005241D01*
X012800Y005181D01*
X012736Y005245D01*
X012600Y005245D01*
X012673Y005317D01*
X012673Y005976D01*
X012597Y006053D01*
X012095Y006053D01*
X012019Y005976D01*
X012019Y005317D01*
X012095Y005241D01*
X012113Y005241D01*
X012040Y005169D01*
X012040Y004431D01*
X012116Y004355D01*
X012736Y004355D01*
X012800Y004419D01*
X012864Y004355D01*
X012984Y004355D01*
X012984Y004223D01*
X012952Y004145D01*
X012952Y004015D01*
X012979Y003950D01*
X005613Y003950D01*
X005510Y003960D01*
X005328Y004015D02*
X012952Y004015D01*
X012952Y004133D02*
X005126Y004133D01*
X005015Y004252D02*
X012984Y004252D01*
X012849Y004370D02*
X012751Y004370D01*
X013174Y004186D02*
X013280Y004080D01*
X013174Y004186D02*
X013174Y004800D01*
X012819Y005200D02*
X012781Y005200D01*
X012767Y005318D02*
X012673Y005318D01*
X012673Y005437D02*
X012767Y005437D01*
X012767Y005555D02*
X012673Y005555D01*
X012673Y005674D02*
X012767Y005674D01*
X012767Y005792D02*
X012673Y005792D01*
X012673Y005911D02*
X012767Y005911D01*
X012820Y006029D02*
X012620Y006029D01*
X012429Y006148D02*
X009012Y006148D01*
X009040Y006266D02*
X012393Y006266D01*
X012393Y006385D02*
X009373Y006385D01*
X009492Y006503D02*
X012393Y006503D01*
X012393Y006622D02*
X009610Y006622D01*
X009729Y006740D02*
X012393Y006740D01*
X012409Y006859D02*
X009847Y006859D01*
X009966Y006977D02*
X012520Y006977D01*
X012639Y007096D02*
X010047Y007096D01*
X010096Y007214D02*
X012757Y007214D01*
X012876Y007333D02*
X010110Y007333D01*
X010110Y007451D02*
X013240Y007451D01*
X013240Y007570D02*
X010110Y007570D01*
X010110Y007688D02*
X013279Y007688D01*
X013409Y007807D02*
X010110Y007807D01*
X010110Y007925D02*
X013356Y007925D01*
X013352Y008044D02*
X010110Y008044D01*
X010110Y008162D02*
X013392Y008162D01*
X013335Y008281D02*
X010110Y008281D01*
X010110Y008399D02*
X013278Y008399D01*
X013272Y008518D02*
X010110Y008518D01*
X010110Y008636D02*
X013309Y008636D01*
X013410Y008755D02*
X010110Y008755D01*
X010110Y008873D02*
X013410Y008873D01*
X013410Y008992D02*
X010110Y008992D01*
X010110Y009110D02*
X013410Y009110D01*
X013410Y009229D02*
X010217Y009229D01*
X010336Y009347D02*
X013410Y009347D01*
X013306Y009466D02*
X010454Y009466D01*
X010573Y009584D02*
X013187Y009584D01*
X013069Y009703D02*
X010691Y009703D01*
X010810Y009821D02*
X012950Y009821D01*
X012832Y009940D02*
X010928Y009940D01*
X011047Y010058D02*
X012713Y010058D01*
X012595Y010177D02*
X011165Y010177D01*
X011284Y010295D02*
X012476Y010295D01*
X012358Y010414D02*
X011402Y010414D01*
X011521Y010532D02*
X012239Y010532D01*
X011925Y010651D02*
X011639Y010651D01*
X011758Y010769D02*
X011851Y010769D01*
X012160Y010880D02*
X013600Y009440D01*
X013600Y008480D01*
X013810Y008734D02*
X013790Y008754D01*
X013790Y009519D01*
X012488Y010821D01*
X012488Y010945D01*
X012438Y011066D01*
X012346Y011158D01*
X012225Y011208D01*
X012197Y011208D01*
X012623Y011634D01*
X012892Y011634D01*
X012892Y011456D01*
X012968Y011379D01*
X013179Y011379D01*
X013180Y011378D01*
X013711Y011378D01*
X013775Y011352D01*
X013810Y011352D01*
X013810Y008734D01*
X013810Y008755D02*
X013790Y008755D01*
X013790Y008873D02*
X013810Y008873D01*
X013810Y008992D02*
X013790Y008992D01*
X013790Y009110D02*
X013810Y009110D01*
X013810Y009229D02*
X013790Y009229D01*
X013790Y009347D02*
X013810Y009347D01*
X013810Y009466D02*
X013790Y009466D01*
X013810Y009584D02*
X013725Y009584D01*
X013810Y009703D02*
X013606Y009703D01*
X013488Y009821D02*
X013810Y009821D01*
X013810Y009940D02*
X013369Y009940D01*
X013251Y010058D02*
X013810Y010058D01*
X013810Y010177D02*
X013132Y010177D01*
X013014Y010295D02*
X013810Y010295D01*
X013810Y010414D02*
X012895Y010414D01*
X012777Y010532D02*
X013810Y010532D01*
X013810Y010651D02*
X012658Y010651D01*
X012540Y010769D02*
X013810Y010769D01*
X013810Y010888D02*
X012488Y010888D01*
X012463Y011006D02*
X013810Y011006D01*
X013810Y011125D02*
X012379Y011125D01*
X012232Y011243D02*
X013810Y011243D01*
X013751Y011362D02*
X012350Y011362D01*
X012469Y011480D02*
X012892Y011480D01*
X012892Y011599D02*
X012587Y011599D01*
X012544Y011824D02*
X009920Y009200D01*
X009920Y007363D01*
X009727Y007333D02*
X006568Y007333D01*
X006568Y007214D02*
X009665Y007214D01*
X009615Y007163D02*
X009615Y007163D01*
X009547Y007096D02*
X006519Y007096D01*
X006366Y006977D02*
X009428Y006977D01*
X009310Y006859D02*
X008977Y006859D01*
X009040Y006740D02*
X009191Y006740D01*
X009200Y006480D02*
X008619Y006480D01*
X008611Y006482D01*
X008605Y006486D01*
X008170Y006503D02*
X005910Y006503D01*
X005910Y006385D02*
X008170Y006385D01*
X008170Y006266D02*
X005910Y006266D01*
X005910Y006176D02*
X005834Y006100D01*
X005116Y006100D01*
X005040Y006176D01*
X005040Y006796D01*
X005116Y006872D01*
X005834Y006872D01*
X005910Y006796D01*
X005910Y006176D01*
X005882Y006148D02*
X008198Y006148D01*
X008170Y006622D02*
X005910Y006622D01*
X005910Y006740D02*
X008170Y006740D01*
X008233Y006859D02*
X005847Y006859D01*
X005961Y007096D02*
X004830Y007096D01*
X004830Y007214D02*
X005912Y007214D01*
X005912Y007333D02*
X004830Y007333D01*
X004830Y007451D02*
X005956Y007451D01*
X006082Y007570D02*
X005767Y007570D01*
X005485Y007570D02*
X005365Y007570D01*
X005365Y007688D02*
X005485Y007688D01*
X005485Y007807D02*
X005365Y007807D01*
X005365Y007925D02*
X005485Y007925D01*
X005485Y008060D02*
X005365Y008060D01*
X005365Y008455D01*
X005175Y008455D01*
X005175Y008522D01*
X005322Y008522D01*
X005500Y008522D01*
X005535Y008531D01*
X005610Y008455D01*
X005485Y008455D01*
X005485Y008060D01*
X005485Y008162D02*
X005365Y008162D01*
X005365Y008044D02*
X004830Y008044D01*
X004830Y008162D02*
X005009Y008162D01*
X005009Y008281D02*
X004830Y008281D01*
X004880Y008160D02*
X005322Y008602D01*
X005322Y008725D01*
X005322Y008703D02*
X005322Y008522D01*
X005322Y008703D01*
X005322Y008703D01*
X005322Y008636D02*
X005322Y008636D01*
X005175Y008518D02*
X005548Y008518D01*
X005485Y008399D02*
X005365Y008399D01*
X005365Y008281D02*
X005485Y008281D01*
X005009Y007925D02*
X004830Y007925D01*
X004830Y007807D02*
X005009Y007807D01*
X005009Y007688D02*
X004830Y007688D01*
X004830Y007570D02*
X005084Y007570D01*
X006660Y007451D02*
X006689Y007451D01*
X006911Y007451D02*
X009730Y007451D01*
X009730Y007570D02*
X007074Y007570D01*
X007125Y007688D02*
X009730Y007688D01*
X009730Y007807D02*
X007128Y007807D01*
X007087Y007925D02*
X009730Y007925D01*
X009730Y008044D02*
X006980Y008044D01*
X006980Y008162D02*
X009730Y008162D01*
X009071Y008281D02*
X006980Y008281D01*
X006980Y008399D02*
X008995Y008399D01*
X008237Y008518D02*
X007605Y008518D01*
X007605Y008517D02*
X007634Y008546D01*
X007655Y008583D01*
X007666Y008624D01*
X007666Y008880D01*
X007271Y008880D01*
X007271Y008485D01*
X007527Y008485D01*
X007568Y008496D01*
X007605Y008517D01*
X007666Y008636D02*
X008164Y008636D01*
X008164Y008755D02*
X007666Y008755D01*
X007666Y008873D02*
X008164Y008873D01*
X008164Y008992D02*
X007271Y008992D01*
X007271Y009000D02*
X007666Y009000D01*
X007666Y009256D01*
X007655Y009297D01*
X007634Y009334D01*
X007605Y009363D01*
X007568Y009384D01*
X007527Y009395D01*
X007271Y009395D01*
X007271Y009000D01*
X007151Y009000D01*
X007151Y008880D01*
X007271Y008880D01*
X007271Y009000D01*
X007271Y009110D02*
X007151Y009110D01*
X007151Y009000D02*
X007151Y009395D01*
X006895Y009395D01*
X006854Y009384D01*
X006818Y009363D01*
X006788Y009334D01*
X006767Y009297D01*
X006756Y009256D01*
X006756Y009000D01*
X007151Y009000D01*
X007151Y008992D02*
X006703Y008992D01*
X006756Y009110D02*
X006326Y009110D01*
X006332Y009229D02*
X006756Y009229D01*
X006801Y009347D02*
X006356Y009347D01*
X006356Y009355D02*
X006265Y009355D01*
X006356Y009355D01*
X006265Y009355D02*
X006265Y009355D01*
X006375Y009466D02*
X008995Y009466D01*
X008995Y009347D02*
X008956Y009347D01*
X008960Y009760D02*
X009600Y010400D01*
X009600Y012640D01*
X009808Y012848D01*
X013258Y012848D01*
X013258Y013104D02*
X012496Y013104D01*
X011360Y014240D01*
X011360Y015600D01*
X011120Y015840D01*
X010824Y015983D02*
X005736Y015983D01*
X005718Y016026D02*
X005768Y015905D01*
X005768Y015775D01*
X005718Y015654D01*
X005626Y015562D01*
X005505Y015512D01*
X005465Y015512D01*
X005337Y015383D01*
X005339Y015382D01*
X005340Y015383D01*
X005377Y015404D01*
X005418Y015415D01*
X005635Y015415D01*
X005635Y015020D01*
X005755Y015020D01*
X006111Y015020D01*
X006111Y015276D01*
X006100Y015317D01*
X006079Y015354D01*
X006049Y015383D01*
X006012Y015404D01*
X005972Y015415D01*
X005755Y015415D01*
X005755Y015020D01*
X005755Y014900D01*
X006111Y014900D01*
X006111Y014644D01*
X006100Y014603D01*
X006079Y014566D01*
X006049Y014537D01*
X006012Y014516D01*
X005972Y014505D01*
X005755Y014505D01*
X005755Y014900D01*
X005635Y014900D01*
X005635Y014505D01*
X005418Y014505D01*
X005377Y014516D01*
X005340Y014537D01*
X005339Y014538D01*
X005335Y014535D01*
X005250Y014535D01*
X005250Y014073D01*
X005127Y013950D01*
X004830Y013653D01*
X004830Y013261D01*
X005037Y013261D01*
X005094Y013318D01*
X005215Y013368D01*
X005345Y013368D01*
X005397Y013347D01*
X005352Y013455D01*
X005352Y013585D01*
X005402Y013706D01*
X005494Y013798D01*
X005615Y013848D01*
X005745Y013848D01*
X005866Y013798D01*
X005958Y013706D01*
X006008Y013585D01*
X006008Y013455D01*
X005958Y013334D01*
X005950Y013326D01*
X005950Y012719D01*
X006704Y011965D01*
X007056Y011965D01*
X007120Y011901D01*
X007184Y011965D01*
X007804Y011965D01*
X007880Y011889D01*
X007880Y011403D01*
X008063Y011220D01*
X008095Y011253D01*
X008597Y011253D01*
X008673Y011176D01*
X008673Y010517D01*
X008645Y010490D01*
X008776Y010490D01*
X008786Y010499D01*
X008767Y010517D01*
X008767Y011176D01*
X008843Y011253D01*
X009345Y011253D01*
X009410Y011187D01*
X009410Y012201D01*
X009404Y012195D01*
X009370Y012195D01*
X009370Y012110D01*
X009332Y012018D01*
X009262Y011948D01*
X009047Y011733D01*
X009047Y011384D01*
X008971Y011307D01*
X008469Y011307D01*
X008393Y011384D01*
X008393Y012043D01*
X008469Y012119D01*
X008725Y012119D01*
X008801Y012195D01*
X008784Y012195D01*
X008720Y012259D01*
X008656Y012195D01*
X008036Y012195D01*
X007960Y012271D01*
X007960Y012450D01*
X007102Y012450D01*
X006962Y012310D01*
X006638Y012310D01*
X006410Y012538D01*
X006410Y012862D01*
X006638Y013090D01*
X006962Y013090D01*
X007102Y012950D01*
X007960Y012950D01*
X007960Y013009D01*
X008036Y013085D01*
X008656Y013085D01*
X008720Y013021D01*
X008784Y013085D01*
X009404Y013085D01*
X009480Y013009D01*
X009480Y012789D01*
X009618Y012927D01*
X009729Y013038D01*
X012293Y013038D01*
X011281Y014050D01*
X011170Y014161D01*
X011170Y014466D01*
X011150Y014446D01*
X011150Y013761D01*
X011039Y013650D01*
X010639Y013250D01*
X008274Y013250D01*
X008186Y013162D01*
X008065Y013112D01*
X007935Y013112D01*
X007814Y013162D01*
X007722Y013254D01*
X007672Y013375D01*
X007672Y013505D01*
X007722Y013626D01*
X007814Y013718D01*
X007935Y013768D01*
X008065Y013768D01*
X008186Y013718D01*
X008274Y013630D01*
X010481Y013630D01*
X010770Y013919D01*
X010770Y014446D01*
X010682Y014534D01*
X010632Y014655D01*
X010632Y014785D01*
X010682Y014906D01*
X010774Y014998D01*
X010895Y015048D01*
X011025Y015048D01*
X011146Y014998D01*
X011170Y014974D01*
X011170Y015512D01*
X011055Y015512D01*
X010934Y015562D01*
X010842Y015654D01*
X010792Y015775D01*
X010792Y015905D01*
X010842Y016026D01*
X010934Y016118D01*
X011055Y016168D01*
X011185Y016168D01*
X011306Y016118D01*
X011398Y016026D01*
X011448Y015905D01*
X011448Y015781D01*
X011490Y015739D01*
X011490Y017521D01*
X010881Y018130D01*
X007954Y018130D01*
X007866Y018042D01*
X007745Y017992D01*
X007615Y017992D01*
X007494Y018042D01*
X007402Y018134D01*
X007368Y018215D01*
X005690Y016536D01*
X005690Y016054D01*
X005718Y016026D01*
X005690Y016102D02*
X010918Y016102D01*
X010792Y015865D02*
X005768Y015865D01*
X005756Y015746D02*
X010804Y015746D01*
X010868Y015628D02*
X005692Y015628D01*
X005635Y015391D02*
X005755Y015391D01*
X005755Y015272D02*
X005635Y015272D01*
X005635Y015154D02*
X005755Y015154D01*
X005755Y015035D02*
X005635Y015035D01*
X005755Y014917D02*
X010693Y014917D01*
X010637Y014798D02*
X006111Y014798D01*
X006111Y014680D02*
X010632Y014680D01*
X010671Y014561D02*
X006073Y014561D01*
X005755Y014561D02*
X005635Y014561D01*
X005635Y014680D02*
X005755Y014680D01*
X005755Y014798D02*
X005635Y014798D01*
X006111Y015035D02*
X010863Y015035D01*
X011057Y015035D02*
X011170Y015035D01*
X011170Y015154D02*
X006111Y015154D01*
X006111Y015272D02*
X011170Y015272D01*
X011170Y015391D02*
X006036Y015391D01*
X005463Y015509D02*
X011170Y015509D01*
X011483Y015746D02*
X011490Y015746D01*
X011490Y015865D02*
X011448Y015865D01*
X011416Y015983D02*
X011490Y015983D01*
X011490Y016102D02*
X011322Y016102D01*
X011490Y016220D02*
X005690Y016220D01*
X005690Y016339D02*
X011490Y016339D01*
X011490Y016457D02*
X005690Y016457D01*
X005729Y016576D02*
X011490Y016576D01*
X011490Y016694D02*
X005848Y016694D01*
X005966Y016813D02*
X011490Y016813D01*
X011490Y016931D02*
X006085Y016931D01*
X006203Y017050D02*
X011490Y017050D01*
X011490Y017168D02*
X006322Y017168D01*
X006440Y017287D02*
X011490Y017287D01*
X011490Y017405D02*
X006559Y017405D01*
X006677Y017524D02*
X011488Y017524D01*
X011369Y017642D02*
X006796Y017642D01*
X006914Y017761D02*
X011251Y017761D01*
X011132Y017879D02*
X007033Y017879D01*
X007151Y017998D02*
X007601Y017998D01*
X007759Y017998D02*
X011014Y017998D01*
X010895Y018116D02*
X007940Y018116D01*
X007680Y018320D02*
X010960Y018320D01*
X011680Y017600D01*
X011680Y014320D01*
X012640Y013360D01*
X013258Y013360D01*
X013258Y013616D02*
X012784Y013616D01*
X012000Y014400D01*
X012000Y017760D01*
X012694Y018454D01*
X012694Y020800D01*
X012720Y020774D01*
X012720Y020400D01*
X012480Y020160D01*
X012400Y020160D01*
X012504Y019848D02*
X012504Y018533D01*
X011921Y017950D01*
X011810Y017839D01*
X011810Y017739D01*
X011759Y017790D01*
X011039Y018510D01*
X010881Y018510D01*
X007954Y018510D01*
X007866Y018598D01*
X007785Y018632D01*
X008105Y018952D01*
X008145Y018952D01*
X008266Y019002D01*
X008358Y019094D01*
X008408Y019215D01*
X008408Y019345D01*
X008367Y019444D01*
X008450Y019361D01*
X008561Y019250D01*
X011599Y019250D01*
X011701Y019352D01*
X011825Y019352D01*
X011946Y019402D01*
X012038Y019494D01*
X012088Y019615D01*
X012088Y019745D01*
X012038Y019866D01*
X011946Y019958D01*
X011825Y020008D01*
X011695Y020008D01*
X011574Y019958D01*
X011482Y019866D01*
X011432Y019745D01*
X011432Y019630D01*
X008719Y019630D01*
X008629Y019720D01*
X009249Y019720D01*
X009325Y019796D01*
X009325Y020416D01*
X009261Y020480D01*
X009325Y020544D01*
X009325Y021164D01*
X009249Y021240D01*
X009170Y021240D01*
X009251Y021321D01*
X009611Y021321D01*
X009687Y021397D01*
X009687Y022056D01*
X009611Y022133D01*
X009570Y022133D01*
X009625Y022187D01*
X009985Y022187D01*
X010061Y022264D01*
X010061Y022690D01*
X013193Y022690D01*
X012073Y022690D01*
X011833Y022450D01*
X011710Y022327D01*
X011710Y022105D01*
X011676Y022105D01*
X011599Y022029D01*
X011599Y021331D01*
X011676Y021255D01*
X011736Y021255D01*
X011736Y021245D01*
X011636Y021245D01*
X011560Y021169D01*
X011560Y021010D01*
X011273Y021010D01*
X011151Y020888D01*
X011055Y020888D01*
X010934Y020838D01*
X010842Y020746D01*
X010792Y020625D01*
X010792Y020495D01*
X010842Y020374D01*
X010934Y020282D01*
X011055Y020232D01*
X011185Y020232D01*
X011306Y020282D01*
X011398Y020374D01*
X011448Y020495D01*
X011448Y020590D01*
X011560Y020590D01*
X011560Y020431D01*
X011636Y020355D01*
X012131Y020355D01*
X012122Y020346D01*
X012072Y020225D01*
X012072Y020095D01*
X012122Y019974D01*
X012214Y019882D01*
X012335Y019832D01*
X012465Y019832D01*
X012504Y019848D01*
X012504Y019775D02*
X012076Y019775D01*
X012088Y019657D02*
X012504Y019657D01*
X012504Y019538D02*
X012056Y019538D01*
X011964Y019420D02*
X012504Y019420D01*
X012504Y019301D02*
X011650Y019301D01*
X011520Y019440D02*
X011760Y019680D01*
X011432Y019657D02*
X008692Y019657D01*
X008640Y019440D02*
X011520Y019440D01*
X011444Y019775D02*
X009304Y019775D01*
X009325Y019894D02*
X011510Y019894D01*
X011227Y020249D02*
X012082Y020249D01*
X012072Y020131D02*
X009325Y020131D01*
X009325Y020249D02*
X011013Y020249D01*
X010848Y020368D02*
X009325Y020368D01*
X009267Y020486D02*
X010795Y020486D01*
X010792Y020605D02*
X009325Y020605D01*
X009325Y020723D02*
X010832Y020723D01*
X010942Y020842D02*
X009325Y020842D01*
X009325Y020960D02*
X011223Y020960D01*
X011560Y021079D02*
X009325Y021079D01*
X009292Y021197D02*
X011588Y021197D01*
X011615Y021316D02*
X009246Y021316D01*
X009007Y021671D02*
X008840Y021671D01*
X008840Y021743D02*
X009033Y021936D01*
X009033Y021697D01*
X008670Y021334D01*
X008670Y021240D01*
X008511Y021240D01*
X008435Y021164D01*
X008435Y020544D01*
X008499Y020480D01*
X008435Y020416D01*
X008435Y020336D01*
X007108Y020336D01*
X006928Y020516D01*
X006750Y020516D01*
X006750Y021199D01*
X006639Y021310D01*
X006479Y021470D01*
X005839Y021470D01*
X005735Y021574D01*
X006191Y022030D01*
X006487Y022030D01*
X006573Y022116D01*
X006552Y022065D01*
X006552Y021935D01*
X006602Y021814D01*
X006694Y021722D01*
X006815Y021672D01*
X006945Y021672D01*
X007066Y021722D01*
X007134Y021790D01*
X007320Y021790D01*
X007320Y021551D01*
X007396Y021475D01*
X008016Y021475D01*
X008080Y021539D01*
X008144Y021475D01*
X008764Y021475D01*
X008840Y021551D01*
X008840Y021743D01*
X008887Y021790D02*
X009033Y021790D01*
X009033Y021908D02*
X009005Y021908D01*
X008889Y021553D02*
X008840Y021553D01*
X008770Y021434D02*
X006515Y021434D01*
X006633Y021316D02*
X008670Y021316D01*
X008468Y021197D02*
X007704Y021197D01*
X007756Y021145D02*
X007648Y021254D01*
X007300Y021254D01*
X007191Y021145D01*
X007474Y020862D01*
X007756Y021145D01*
X007785Y021116D02*
X007502Y020834D01*
X007474Y020862D01*
X007445Y020834D01*
X007162Y021116D01*
X007054Y021008D01*
X007054Y020660D01*
X007162Y020551D01*
X007445Y020834D01*
X007474Y020805D01*
X007502Y020834D01*
X007785Y020551D01*
X007894Y020660D01*
X007894Y021008D01*
X007785Y021116D01*
X007823Y021079D02*
X008435Y021079D01*
X008435Y020960D02*
X007894Y020960D01*
X007894Y020842D02*
X008435Y020842D01*
X008435Y020723D02*
X007894Y020723D01*
X007839Y020605D02*
X008435Y020605D01*
X008493Y020486D02*
X007720Y020486D01*
X007756Y020522D02*
X007474Y020805D01*
X007191Y020522D01*
X007300Y020414D01*
X007648Y020414D01*
X007756Y020522D01*
X007731Y020605D02*
X007674Y020605D01*
X007612Y020723D02*
X007556Y020723D01*
X007510Y020842D02*
X007494Y020842D01*
X007453Y020842D02*
X007437Y020842D01*
X007391Y020723D02*
X007335Y020723D01*
X007273Y020605D02*
X007216Y020605D01*
X007109Y020605D02*
X006750Y020605D01*
X006750Y020723D02*
X007054Y020723D01*
X007054Y020842D02*
X006750Y020842D01*
X006750Y020960D02*
X007054Y020960D01*
X007125Y021079D02*
X006750Y021079D01*
X006750Y021197D02*
X007243Y021197D01*
X007257Y021079D02*
X007200Y021079D01*
X007319Y020960D02*
X007375Y020960D01*
X007572Y020960D02*
X007628Y020960D01*
X007690Y021079D02*
X007747Y021079D01*
X007320Y021553D02*
X005756Y021553D01*
X005832Y021671D02*
X007320Y021671D01*
X007320Y021790D02*
X007134Y021790D01*
X006626Y021790D02*
X005951Y021790D01*
X006069Y021908D02*
X006563Y021908D01*
X006552Y022027D02*
X006188Y022027D01*
X005760Y021280D02*
X005358Y021682D01*
X005358Y021762D01*
X005466Y021305D02*
X005570Y021201D01*
X005621Y021151D01*
X005500Y021151D01*
X005500Y020795D01*
X005380Y020795D01*
X005380Y021151D01*
X005312Y021151D01*
X005466Y021305D01*
X005358Y021197D02*
X005574Y021197D01*
X005500Y021079D02*
X005380Y021079D01*
X005380Y020960D02*
X005500Y020960D01*
X005500Y020842D02*
X005380Y020842D01*
X005500Y020795D02*
X005895Y020795D01*
X005895Y021012D01*
X005884Y021052D01*
X005863Y021089D01*
X005862Y021090D01*
X006321Y021090D01*
X006370Y021041D01*
X006370Y020639D01*
X006161Y020430D01*
X006050Y020319D01*
X006050Y019681D01*
X006086Y019645D01*
X005504Y019645D01*
X005440Y019581D01*
X005376Y019645D01*
X005276Y019645D01*
X005276Y019679D01*
X005789Y019679D01*
X005865Y019756D01*
X005865Y020375D01*
X005862Y020379D01*
X005863Y020380D01*
X005884Y020417D01*
X005895Y020458D01*
X005895Y020675D01*
X005500Y020675D01*
X005500Y020795D01*
X005500Y020723D02*
X006370Y020723D01*
X006370Y020842D02*
X005895Y020842D01*
X005895Y020960D02*
X006370Y020960D01*
X006333Y021079D02*
X005869Y021079D01*
X005760Y021280D02*
X006400Y021280D01*
X006560Y021120D01*
X006560Y020560D01*
X006240Y020240D01*
X006240Y019760D01*
X006480Y019520D01*
X007520Y019520D01*
X007760Y019760D01*
X008320Y019760D01*
X008640Y019440D01*
X008510Y019301D02*
X008408Y019301D01*
X008395Y019183D02*
X012504Y019183D01*
X012504Y019064D02*
X008328Y019064D01*
X008099Y018946D02*
X012504Y018946D01*
X012504Y018827D02*
X007981Y018827D01*
X007862Y018709D02*
X012504Y018709D01*
X012504Y018590D02*
X007874Y018590D01*
X007420Y018116D02*
X007270Y018116D01*
X006796Y018350D02*
X005228Y016782D01*
X005190Y016690D01*
X005190Y016590D01*
X005190Y016054D01*
X005162Y016026D01*
X005112Y015905D01*
X005112Y015865D01*
X004830Y015584D01*
X004830Y018755D01*
X004856Y018755D01*
X004856Y018687D01*
X005070Y018473D01*
X005193Y018350D01*
X006796Y018350D01*
X006681Y018235D02*
X004830Y018235D01*
X004830Y018353D02*
X005190Y018353D01*
X005071Y018472D02*
X004830Y018472D01*
X004830Y018590D02*
X004953Y018590D01*
X004856Y018709D02*
X004830Y018709D01*
X004830Y018116D02*
X006562Y018116D01*
X006444Y017998D02*
X004830Y017998D01*
X004830Y017879D02*
X006325Y017879D01*
X006207Y017761D02*
X004830Y017761D01*
X004830Y017642D02*
X006088Y017642D01*
X005970Y017524D02*
X004830Y017524D01*
X004830Y017405D02*
X005851Y017405D01*
X005733Y017287D02*
X004830Y017287D01*
X004830Y017168D02*
X005614Y017168D01*
X005496Y017050D02*
X004830Y017050D01*
X004830Y016931D02*
X005377Y016931D01*
X005259Y016813D02*
X004830Y016813D01*
X004830Y016694D02*
X005192Y016694D01*
X005190Y016576D02*
X004830Y016576D01*
X004830Y016457D02*
X005190Y016457D01*
X005190Y016339D02*
X004830Y016339D01*
X004830Y016220D02*
X005190Y016220D01*
X005190Y016102D02*
X004830Y016102D01*
X004830Y015983D02*
X005144Y015983D01*
X005111Y015865D02*
X004830Y015865D01*
X004830Y015746D02*
X004992Y015746D01*
X004874Y015628D02*
X004830Y015628D01*
X005344Y015391D02*
X005353Y015391D01*
X005250Y014443D02*
X010770Y014443D01*
X010770Y014324D02*
X005250Y014324D01*
X005250Y014206D02*
X010770Y014206D01*
X010770Y014087D02*
X007007Y014087D01*
X006974Y014120D02*
X006820Y014120D01*
X006820Y013720D01*
X006780Y013720D01*
X006780Y014120D01*
X006626Y014120D01*
X006380Y013874D01*
X006380Y013720D01*
X006780Y013720D01*
X006780Y013680D01*
X006380Y013680D01*
X006380Y013526D01*
X006626Y013280D01*
X006780Y013280D01*
X006780Y013680D01*
X006820Y013680D01*
X006820Y013720D01*
X007220Y013720D01*
X007220Y013874D01*
X006974Y014120D01*
X006820Y014087D02*
X006780Y014087D01*
X006780Y013969D02*
X006820Y013969D01*
X006820Y013850D02*
X006780Y013850D01*
X006780Y013732D02*
X006820Y013732D01*
X006820Y013680D02*
X007220Y013680D01*
X007220Y013526D01*
X006974Y013280D01*
X006820Y013280D01*
X006820Y013680D01*
X006820Y013613D02*
X006780Y013613D01*
X006780Y013495D02*
X006820Y013495D01*
X006820Y013376D02*
X006780Y013376D01*
X006530Y013376D02*
X005976Y013376D01*
X005950Y013258D02*
X007720Y013258D01*
X007672Y013376D02*
X007070Y013376D01*
X007188Y013495D02*
X007672Y013495D01*
X007717Y013613D02*
X007220Y013613D01*
X007220Y013732D02*
X007846Y013732D01*
X008154Y013732D02*
X010583Y013732D01*
X010701Y013850D02*
X007220Y013850D01*
X007125Y013969D02*
X010770Y013969D01*
X010960Y013840D02*
X010960Y014720D01*
X011150Y014443D02*
X011170Y014443D01*
X011170Y014324D02*
X011150Y014324D01*
X011150Y014206D02*
X011170Y014206D01*
X011150Y014087D02*
X011244Y014087D01*
X011150Y013969D02*
X011363Y013969D01*
X011481Y013850D02*
X011150Y013850D01*
X011120Y013732D02*
X011600Y013732D01*
X011718Y013613D02*
X011002Y013613D01*
X010883Y013495D02*
X011837Y013495D01*
X011955Y013376D02*
X010765Y013376D01*
X010646Y013258D02*
X012074Y013258D01*
X012192Y013139D02*
X008131Y013139D01*
X007972Y013021D02*
X007031Y013021D01*
X006569Y013021D02*
X005950Y013021D01*
X005950Y013139D02*
X007869Y013139D01*
X008000Y013440D02*
X010560Y013440D01*
X010960Y013840D01*
X012400Y014960D02*
X012640Y014720D01*
X012666Y014720D01*
X012400Y014880D02*
X012400Y014960D01*
X012400Y015040D01*
X012720Y015360D01*
X012590Y015661D02*
X012590Y016319D01*
X012600Y016309D01*
X012659Y016267D01*
X012723Y016234D01*
X012792Y016211D01*
X012860Y016201D01*
X012860Y016920D01*
X012940Y016920D01*
X012940Y017000D01*
X012860Y017000D01*
X012860Y017719D01*
X012792Y017709D01*
X012723Y017686D01*
X012659Y017653D01*
X012600Y017611D01*
X012590Y017601D01*
X013390Y018401D01*
X013390Y019041D01*
X013519Y019170D01*
X016661Y019170D01*
X016481Y018990D01*
X016370Y018879D01*
X016370Y016594D01*
X016316Y016540D01*
X016330Y016574D01*
X016330Y017346D01*
X016265Y017504D01*
X016144Y017625D01*
X015986Y017690D01*
X015814Y017690D01*
X015656Y017625D01*
X015535Y017504D01*
X015470Y017346D01*
X015470Y016574D01*
X015535Y016416D01*
X015656Y016295D01*
X015814Y016230D01*
X015986Y016230D01*
X016144Y016295D01*
X016232Y016384D01*
X016232Y016255D01*
X016282Y016134D01*
X016374Y016042D01*
X016495Y015992D01*
X016625Y015992D01*
X016746Y016042D01*
X016838Y016134D01*
X016888Y016255D01*
X016888Y016385D01*
X016838Y016506D01*
X016750Y016594D01*
X016750Y018721D01*
X018799Y020770D01*
X019966Y020770D01*
X020054Y020682D01*
X020175Y020632D01*
X020305Y020632D01*
X020426Y020682D01*
X020518Y020774D01*
X020568Y020895D01*
X020568Y021025D01*
X020518Y021146D01*
X020494Y021170D01*
X020661Y021170D01*
X020610Y021119D01*
X020610Y018034D01*
X020522Y017946D01*
X020472Y017825D01*
X020472Y017695D01*
X020522Y017574D01*
X020614Y017482D01*
X020735Y017432D01*
X020865Y017432D01*
X020986Y017482D01*
X021078Y017574D01*
X021128Y017695D01*
X021128Y017825D01*
X021078Y017946D01*
X020990Y018034D01*
X020990Y020961D01*
X021199Y021170D01*
X021911Y021170D01*
X021736Y020995D01*
X021736Y020672D01*
X021950Y020458D01*
X021950Y019400D01*
X021791Y019400D01*
X021715Y019324D01*
X021715Y018704D01*
X021779Y018640D01*
X021715Y018576D01*
X021715Y017956D01*
X021791Y017880D01*
X022529Y017880D01*
X022605Y017956D01*
X022605Y018058D01*
X022873Y017790D01*
X023513Y017790D01*
X023866Y017437D01*
X023913Y017437D01*
X023913Y017317D01*
X023989Y017241D01*
X024491Y017241D01*
X024567Y017317D01*
X024567Y017976D01*
X024491Y018053D01*
X023989Y018053D01*
X023917Y017980D01*
X023810Y018087D01*
X023790Y018107D01*
X024117Y018107D01*
X024193Y018184D01*
X024193Y018803D01*
X024241Y018851D01*
X024241Y018920D01*
X024364Y018920D01*
X024364Y018919D01*
X024363Y018919D01*
X024287Y018843D01*
X024287Y018184D01*
X024363Y018107D01*
X024770Y018107D01*
X024770Y014940D01*
X024724Y014985D01*
X024665Y014985D01*
X024665Y015395D01*
X024648Y015435D01*
X024648Y015505D01*
X024598Y015626D01*
X024506Y015718D01*
X024385Y015768D01*
X024255Y015768D01*
X024134Y015718D01*
X024042Y015626D01*
X023992Y015505D01*
X023992Y015375D01*
X024042Y015254D01*
X024134Y015162D01*
X024165Y015149D01*
X024165Y014985D01*
X024105Y014985D01*
X024101Y014982D01*
X024100Y014983D01*
X024063Y015004D01*
X024022Y015015D01*
X023805Y015015D01*
X023805Y014620D01*
X023685Y014620D01*
X023685Y014500D01*
X023329Y014500D01*
X023329Y014244D01*
X023340Y014203D01*
X023361Y014166D01*
X023391Y014137D01*
X023428Y014116D01*
X023468Y014105D01*
X023685Y014105D01*
X023685Y014500D01*
X023805Y014500D01*
X023805Y014105D01*
X024022Y014105D01*
X024063Y014116D01*
X024100Y014137D01*
X024101Y014138D01*
X024105Y014135D01*
X024190Y014135D01*
X024190Y014073D01*
X024255Y014008D01*
X024175Y014008D01*
X024054Y013958D01*
X023962Y013866D01*
X023912Y013745D01*
X023912Y013615D01*
X023962Y013494D01*
X024054Y013402D01*
X024175Y013352D01*
X024299Y013352D01*
X024433Y013219D01*
X024770Y013219D01*
X024770Y012850D01*
X024633Y012850D01*
X024324Y012541D01*
X024324Y012365D01*
X024224Y012365D01*
X024160Y012301D01*
X024156Y012305D01*
X024168Y012335D01*
X024168Y012465D01*
X024118Y012586D01*
X024026Y012678D01*
X023905Y012728D01*
X023861Y012728D01*
X023390Y013199D01*
X023279Y013310D01*
X023122Y013310D01*
X023270Y013458D01*
X023270Y013782D01*
X023042Y014010D01*
X022718Y014010D01*
X022490Y013782D01*
X022490Y013458D01*
X022638Y013310D01*
X022561Y013310D01*
X021761Y012510D01*
X018034Y012510D01*
X018026Y012518D01*
X017944Y012552D01*
X017985Y012552D01*
X018106Y012602D01*
X018194Y012690D01*
X020959Y012690D01*
X021070Y012801D01*
X021400Y013131D01*
X021400Y013718D01*
X021500Y013718D01*
X021576Y013794D01*
X021576Y014059D01*
X021530Y014105D01*
X021544Y014113D01*
X021574Y014143D01*
X021595Y014180D01*
X021606Y014220D01*
X021606Y014320D01*
X021606Y014420D01*
X021595Y014460D01*
X021574Y014497D01*
X021544Y014527D01*
X021530Y014535D01*
X021576Y014581D01*
X021576Y014846D01*
X021500Y014922D01*
X020985Y014922D01*
X020985Y014964D01*
X020909Y015041D01*
X020211Y015041D01*
X020135Y014964D01*
X020135Y014922D01*
X019620Y014922D01*
X019544Y014846D01*
X019544Y014581D01*
X019595Y014530D01*
X018820Y014530D01*
X018820Y014789D01*
X018744Y014865D01*
X018124Y014865D01*
X018060Y014801D01*
X017996Y014865D01*
X017870Y014865D01*
X017870Y014881D01*
X017919Y014930D01*
X018846Y014930D01*
X018934Y014842D01*
X019055Y014792D01*
X019185Y014792D01*
X019306Y014842D01*
X019398Y014934D01*
X019448Y015055D01*
X019448Y015185D01*
X019398Y015306D01*
X019306Y015398D01*
X019185Y015448D01*
X019055Y015448D01*
X018934Y015398D01*
X018846Y015310D01*
X017761Y015310D01*
X017601Y015150D01*
X017490Y015039D01*
X017490Y014865D01*
X017376Y014865D01*
X017300Y014789D01*
X017300Y014529D01*
X017296Y014525D01*
X017241Y014469D01*
X016721Y013950D01*
X016239Y013950D01*
X016190Y013999D01*
X016190Y014019D01*
X016255Y013992D01*
X016385Y013992D01*
X016506Y014042D01*
X016598Y014134D01*
X016648Y014255D01*
X016648Y014385D01*
X016598Y014506D01*
X016510Y014594D01*
X016510Y014801D01*
X016770Y015061D01*
X016770Y014994D01*
X016682Y014906D01*
X016632Y014785D01*
X016632Y014655D01*
X016682Y014534D01*
X016774Y014442D01*
X016895Y014392D01*
X017025Y014392D01*
X017146Y014442D01*
X017238Y014534D01*
X017288Y014655D01*
X017288Y014785D01*
X017238Y014906D01*
X017150Y014994D01*
X017150Y015041D01*
X018079Y015970D01*
X021601Y015970D01*
X022041Y015530D01*
X021990Y015406D01*
X021990Y015234D01*
X022055Y015076D01*
X022176Y014955D01*
X022334Y014890D01*
X023106Y014890D01*
X023264Y014955D01*
X023385Y015076D01*
X023450Y015234D01*
X023450Y015406D01*
X023385Y015564D01*
X023264Y015685D01*
X023106Y015750D01*
X022559Y015750D01*
X022519Y015790D01*
X022319Y015790D01*
X021899Y016210D01*
X022000Y016210D01*
X022055Y016076D01*
X022176Y015955D01*
X022334Y015890D01*
X023106Y015890D01*
X023264Y015955D01*
X023385Y016076D01*
X023450Y016234D01*
X023450Y016406D01*
X023385Y016564D01*
X023264Y016685D01*
X023106Y016750D01*
X022334Y016750D01*
X022176Y016685D01*
X022082Y016590D01*
X017761Y016590D01*
X017650Y016479D01*
X016190Y015019D01*
X016190Y015199D01*
X016079Y015310D01*
X015108Y016281D01*
X015144Y016295D01*
X015265Y016416D01*
X015330Y016574D01*
X015330Y017346D01*
X015265Y017504D01*
X015144Y017625D01*
X014986Y017690D01*
X014814Y017690D01*
X014656Y017625D01*
X014535Y017504D01*
X014470Y017346D01*
X014470Y016574D01*
X014535Y016416D01*
X014656Y016295D01*
X014710Y016273D01*
X014710Y016141D01*
X014956Y015895D01*
X014875Y015895D01*
X014875Y015500D01*
X015231Y015500D01*
X015231Y015621D01*
X015810Y015041D01*
X015810Y014088D01*
X015799Y014091D01*
X015542Y014091D01*
X015542Y013872D01*
X015542Y013872D01*
X015542Y014091D01*
X015284Y014091D01*
X015244Y014080D01*
X015207Y014059D01*
X015178Y014029D01*
X015156Y013992D01*
X015146Y013952D01*
X015146Y013872D01*
X015542Y013872D01*
X015600Y013930D01*
X015600Y014960D01*
X015120Y015440D01*
X014815Y015440D01*
X014875Y015391D02*
X015461Y015391D01*
X015342Y015509D02*
X015231Y015509D01*
X015231Y015380D02*
X014875Y015380D01*
X014875Y015500D01*
X014755Y015500D01*
X014755Y015895D01*
X014538Y015895D01*
X014497Y015884D01*
X014460Y015863D01*
X014459Y015862D01*
X014455Y015865D01*
X014150Y015865D01*
X014150Y016302D01*
X014265Y016416D01*
X014330Y016574D01*
X014330Y017346D01*
X014265Y017504D01*
X014144Y017625D01*
X013986Y017690D01*
X013814Y017690D01*
X013656Y017625D01*
X013535Y017504D01*
X013470Y017346D01*
X013470Y016574D01*
X013535Y016416D01*
X013650Y016302D01*
X013650Y015636D01*
X013688Y015544D01*
X013759Y015472D01*
X013759Y015129D01*
X013724Y015165D01*
X013104Y015165D01*
X013040Y015101D01*
X012982Y015158D01*
X012998Y015174D01*
X013048Y015295D01*
X013048Y015425D01*
X012998Y015546D01*
X012906Y015638D01*
X012785Y015688D01*
X012655Y015688D01*
X012590Y015661D01*
X012590Y015746D02*
X013650Y015746D01*
X013653Y015628D02*
X012916Y015628D01*
X013013Y015509D02*
X013723Y015509D01*
X013759Y015391D02*
X013048Y015391D01*
X013039Y015272D02*
X013759Y015272D01*
X013759Y015154D02*
X013735Y015154D01*
X014145Y015440D02*
X014145Y014679D01*
X014106Y014640D01*
X014026Y014720D01*
X013520Y014720D01*
X013480Y014680D01*
X013258Y014458D01*
X013258Y013872D01*
X013448Y014061D02*
X013448Y014275D01*
X013720Y014275D01*
X013720Y014271D01*
X013796Y014195D01*
X014416Y014195D01*
X014480Y014259D01*
X014530Y014209D01*
X014530Y012961D01*
X014641Y012850D01*
X014833Y012658D01*
X015176Y012658D01*
X015176Y012479D01*
X015191Y012464D01*
X015176Y012449D01*
X015176Y012270D01*
X014562Y012270D01*
X014450Y012159D01*
X014130Y011838D01*
X014118Y011866D01*
X014026Y011958D01*
X013905Y012008D01*
X013775Y012008D01*
X013654Y011958D01*
X013624Y011928D01*
X013624Y011937D01*
X013609Y011952D01*
X013624Y011967D01*
X013624Y012146D01*
X013935Y012146D01*
X014046Y012257D01*
X014126Y012337D01*
X014186Y012362D01*
X014278Y012454D01*
X014328Y012575D01*
X014328Y012705D01*
X014278Y012826D01*
X014186Y012918D01*
X014065Y012968D01*
X013935Y012968D01*
X013814Y012918D01*
X013722Y012826D01*
X013672Y012705D01*
X013672Y012575D01*
X013692Y012526D01*
X013624Y012526D01*
X013624Y012705D01*
X013609Y012720D01*
X013624Y012735D01*
X013624Y012961D01*
X013609Y012976D01*
X013624Y012991D01*
X013624Y013217D01*
X013609Y013232D01*
X013624Y013247D01*
X013624Y013473D01*
X013609Y013488D01*
X013624Y013503D01*
X013624Y013729D01*
X013609Y013744D01*
X013624Y013759D01*
X013624Y013984D01*
X013548Y014061D01*
X013448Y014061D01*
X013448Y014087D02*
X014530Y014087D01*
X014530Y013969D02*
X013624Y013969D01*
X013624Y013850D02*
X014530Y013850D01*
X014530Y013732D02*
X013621Y013732D01*
X013624Y013613D02*
X014530Y013613D01*
X014530Y013495D02*
X013616Y013495D01*
X013624Y013376D02*
X014530Y013376D01*
X014530Y013258D02*
X013624Y013258D01*
X013624Y013139D02*
X014530Y013139D01*
X014530Y013021D02*
X013624Y013021D01*
X013624Y012902D02*
X013798Y012902D01*
X013704Y012784D02*
X013624Y012784D01*
X013624Y012665D02*
X013672Y012665D01*
X013684Y012547D02*
X013624Y012547D01*
X013856Y012336D02*
X013258Y012336D01*
X013258Y012080D02*
X012320Y012080D01*
X009654Y009414D01*
X009440Y009414D01*
X008960Y009760D02*
X007600Y009760D01*
X006640Y010720D01*
X006560Y010720D01*
X005680Y011600D01*
X005654Y011600D01*
X005680Y011626D01*
X005680Y012160D01*
X005440Y012400D01*
X005760Y012640D02*
X005760Y013440D01*
X005680Y013520D01*
X005384Y013376D02*
X004830Y013376D01*
X004830Y013495D02*
X005352Y013495D01*
X005363Y013613D02*
X004830Y013613D01*
X004909Y013732D02*
X005428Y013732D01*
X005146Y013969D02*
X006475Y013969D01*
X006380Y013850D02*
X005027Y013850D01*
X005250Y014087D02*
X006593Y014087D01*
X006380Y013732D02*
X005932Y013732D01*
X005997Y013613D02*
X006380Y013613D01*
X006412Y013495D02*
X006008Y013495D01*
X005280Y013040D02*
X005249Y013071D01*
X004354Y013071D01*
X005760Y012640D02*
X006746Y011654D01*
X006746Y011520D01*
X007067Y011954D02*
X007173Y011954D01*
X007494Y011520D02*
X008167Y010847D01*
X008346Y010847D01*
X008673Y010888D02*
X008767Y010888D01*
X008767Y011006D02*
X008673Y011006D01*
X008673Y011125D02*
X008767Y011125D01*
X008834Y011243D02*
X008606Y011243D01*
X008415Y011362D02*
X007921Y011362D01*
X007880Y011480D02*
X008393Y011480D01*
X008393Y011599D02*
X007880Y011599D01*
X007880Y011717D02*
X008393Y011717D01*
X008393Y011836D02*
X007880Y011836D01*
X007815Y011954D02*
X008393Y011954D01*
X008423Y012073D02*
X006596Y012073D01*
X006478Y012191D02*
X008797Y012191D01*
X009149Y011836D02*
X009410Y011836D01*
X009410Y011954D02*
X009268Y011954D01*
X009354Y012073D02*
X009410Y012073D01*
X009410Y012191D02*
X009370Y012191D01*
X009790Y012191D02*
X011058Y012191D01*
X011082Y012134D02*
X011174Y012042D01*
X011295Y011992D01*
X011425Y011992D01*
X011546Y012042D01*
X011638Y012134D01*
X011688Y012255D01*
X011688Y012379D01*
X011711Y012402D01*
X012892Y012402D01*
X012892Y012270D01*
X012242Y012270D01*
X009771Y009800D01*
X009269Y009800D01*
X009679Y010210D01*
X009790Y010321D01*
X009790Y012561D01*
X009887Y012658D01*
X011429Y012658D01*
X011419Y012648D01*
X011295Y012648D01*
X011174Y012598D01*
X011082Y012506D01*
X011032Y012385D01*
X011032Y012255D01*
X011082Y012134D01*
X011143Y012073D02*
X009790Y012073D01*
X009790Y011954D02*
X011925Y011954D01*
X011807Y011836D02*
X009790Y011836D01*
X009790Y011717D02*
X011688Y011717D01*
X011570Y011599D02*
X009790Y011599D01*
X009790Y011480D02*
X011451Y011480D01*
X011333Y011362D02*
X009790Y011362D01*
X009790Y011243D02*
X011214Y011243D01*
X011096Y011125D02*
X009790Y011125D01*
X009790Y011006D02*
X010977Y011006D01*
X010859Y010888D02*
X009790Y010888D01*
X009790Y010769D02*
X010740Y010769D01*
X010622Y010651D02*
X009790Y010651D01*
X009790Y010532D02*
X010503Y010532D01*
X010385Y010414D02*
X009790Y010414D01*
X009764Y010295D02*
X010266Y010295D01*
X010148Y010177D02*
X009645Y010177D01*
X009527Y010058D02*
X010029Y010058D01*
X009911Y009940D02*
X009408Y009940D01*
X009290Y009821D02*
X009792Y009821D01*
X008767Y010532D02*
X008673Y010532D01*
X008673Y010651D02*
X008767Y010651D01*
X008767Y010769D02*
X008673Y010769D01*
X008086Y011243D02*
X008040Y011243D01*
X009025Y011362D02*
X009410Y011362D01*
X009410Y011480D02*
X009047Y011480D01*
X009047Y011599D02*
X009410Y011599D01*
X009410Y011717D02*
X009047Y011717D01*
X009354Y011243D02*
X009410Y011243D01*
X011577Y012073D02*
X012044Y012073D01*
X012162Y012191D02*
X011662Y012191D01*
X011688Y012310D02*
X012892Y012310D01*
X013258Y012592D02*
X011632Y012592D01*
X011360Y012320D01*
X011123Y012547D02*
X009790Y012547D01*
X009790Y012428D02*
X011050Y012428D01*
X011032Y012310D02*
X009790Y012310D01*
X009593Y012902D02*
X009480Y012902D01*
X009468Y013021D02*
X009712Y013021D01*
X007960Y012428D02*
X007080Y012428D01*
X006520Y012428D02*
X006241Y012428D01*
X006359Y012310D02*
X007960Y012310D01*
X006410Y012547D02*
X006122Y012547D01*
X006004Y012665D02*
X006410Y012665D01*
X006410Y012784D02*
X005950Y012784D01*
X005950Y012902D02*
X006450Y012902D01*
X005887Y011125D02*
X005194Y011125D01*
X005378Y011006D02*
X006005Y011006D01*
X006361Y010651D02*
X005566Y010651D01*
X005635Y010532D02*
X006479Y010532D01*
X006678Y010414D02*
X005635Y010414D01*
X006035Y010295D02*
X006155Y010295D01*
X006155Y010177D02*
X006035Y010177D01*
X006035Y010058D02*
X006155Y010058D01*
X006155Y009940D02*
X007152Y009940D01*
X007033Y010058D02*
X006511Y010058D01*
X006511Y010177D02*
X006915Y010177D01*
X006796Y010295D02*
X006489Y010295D01*
X006511Y009821D02*
X007270Y009821D01*
X007389Y009703D02*
X006511Y009703D01*
X006505Y009584D02*
X007507Y009584D01*
X007621Y009347D02*
X008222Y009347D01*
X008164Y009229D02*
X007666Y009229D01*
X007666Y009110D02*
X008164Y009110D01*
X007271Y009229D02*
X007151Y009229D01*
X007151Y009347D02*
X007271Y009347D01*
X007271Y008873D02*
X007151Y008873D01*
X007151Y008755D02*
X007271Y008755D01*
X007271Y008636D02*
X007151Y008636D01*
X007151Y008518D02*
X007271Y008518D01*
X006038Y009371D02*
X006038Y009371D01*
X006038Y009558D01*
X006035Y009558D01*
X006035Y009860D01*
X006155Y009860D01*
X006155Y009558D01*
X006038Y009558D01*
X006038Y009371D01*
X006038Y009466D02*
X006038Y009466D01*
X006035Y009584D02*
X006155Y009584D01*
X006155Y009703D02*
X006035Y009703D01*
X006035Y009821D02*
X006155Y009821D01*
X005448Y010769D02*
X005448Y010865D01*
X012544Y011824D02*
X013258Y011824D01*
X013258Y011568D02*
X013728Y011568D01*
X013840Y011680D01*
X014000Y011520D01*
X014000Y008640D01*
X014880Y007760D01*
X014880Y005280D01*
X015009Y005151D01*
X015009Y003474D01*
X014819Y003950D02*
X014455Y003950D01*
X014455Y004929D01*
X013800Y005583D01*
X013847Y005630D01*
X013960Y005743D01*
X013960Y005666D01*
X014206Y005420D01*
X014360Y005420D01*
X014360Y005820D01*
X014400Y005820D01*
X014400Y005420D01*
X014554Y005420D01*
X014690Y005556D01*
X014690Y005201D01*
X014801Y005090D01*
X014819Y005073D01*
X014819Y003950D01*
X014819Y004015D02*
X014455Y004015D01*
X014455Y004133D02*
X014819Y004133D01*
X014819Y004252D02*
X014455Y004252D01*
X014455Y004370D02*
X014819Y004370D01*
X014819Y004489D02*
X014455Y004489D01*
X014455Y004607D02*
X014819Y004607D01*
X014819Y004726D02*
X014455Y004726D01*
X014455Y004844D02*
X014819Y004844D01*
X014819Y004963D02*
X014421Y004963D01*
X014303Y005081D02*
X014810Y005081D01*
X014692Y005200D02*
X014184Y005200D01*
X014066Y005318D02*
X014690Y005318D01*
X014690Y005437D02*
X014570Y005437D01*
X014689Y005555D02*
X014690Y005555D01*
X014400Y005555D02*
X014360Y005555D01*
X014360Y005437D02*
X014400Y005437D01*
X014190Y005437D02*
X013947Y005437D01*
X013829Y005555D02*
X014071Y005555D01*
X013960Y005674D02*
X013890Y005674D01*
X013534Y005911D02*
X013421Y005911D01*
X013368Y006029D02*
X013550Y006029D01*
X013343Y006148D02*
X013011Y006148D01*
X013047Y006266D02*
X013279Y006266D01*
X013279Y006385D02*
X013047Y006385D01*
X013047Y006503D02*
X013279Y006503D01*
X013279Y006622D02*
X013047Y006622D01*
X013047Y006740D02*
X013279Y006740D01*
X013279Y006859D02*
X013031Y006859D01*
X013114Y006977D02*
X013240Y006977D01*
X014275Y006500D02*
X014395Y006500D01*
X014395Y006105D01*
X014400Y006105D01*
X014400Y005860D01*
X014360Y005860D01*
X014360Y006260D01*
X014275Y006260D01*
X014275Y006500D01*
X014275Y006385D02*
X014395Y006385D01*
X014395Y006266D02*
X014275Y006266D01*
X014360Y006148D02*
X014395Y006148D01*
X014400Y006029D02*
X014360Y006029D01*
X014360Y005911D02*
X014400Y005911D01*
X014400Y005792D02*
X014360Y005792D01*
X014360Y005674D02*
X014400Y005674D01*
X015070Y005598D02*
X015218Y005450D01*
X015542Y005450D01*
X015770Y005678D01*
X015770Y006002D01*
X015542Y006230D01*
X015218Y006230D01*
X015070Y006082D01*
X015070Y007839D01*
X014997Y007912D01*
X015019Y007912D01*
X016290Y006641D01*
X016290Y005880D01*
X016111Y005880D01*
X016035Y005804D01*
X016035Y005730D01*
X015833Y005730D01*
X015310Y005207D01*
X015310Y004494D01*
X015242Y004426D01*
X015199Y004322D01*
X015199Y005230D01*
X015070Y005359D01*
X015070Y005598D01*
X015070Y005555D02*
X015113Y005555D01*
X015070Y005437D02*
X015540Y005437D01*
X015647Y005555D02*
X015658Y005555D01*
X015765Y005674D02*
X015777Y005674D01*
X015770Y005792D02*
X016035Y005792D01*
X016290Y005911D02*
X015770Y005911D01*
X015743Y006029D02*
X016290Y006029D01*
X016290Y006148D02*
X015624Y006148D01*
X015136Y006148D02*
X015070Y006148D01*
X015070Y006266D02*
X016290Y006266D01*
X016290Y006385D02*
X015070Y006385D01*
X015070Y006503D02*
X016290Y006503D01*
X016290Y006622D02*
X015070Y006622D01*
X015070Y006740D02*
X016191Y006740D01*
X016073Y006859D02*
X015070Y006859D01*
X015070Y006977D02*
X015954Y006977D01*
X015836Y007096D02*
X015070Y007096D01*
X015070Y007214D02*
X015717Y007214D01*
X015599Y007333D02*
X015070Y007333D01*
X015070Y007451D02*
X015480Y007451D01*
X015362Y007570D02*
X015070Y007570D01*
X015070Y007688D02*
X015243Y007688D01*
X015125Y007807D02*
X015070Y007807D01*
X015307Y008162D02*
X017764Y008162D01*
X017764Y008258D02*
X017764Y007745D01*
X017369Y007745D01*
X017293Y007669D01*
X017293Y006931D01*
X017369Y006855D01*
X017764Y006855D01*
X017764Y005776D01*
X017802Y005685D01*
X018490Y004996D01*
X016925Y004996D01*
X016925Y005056D01*
X016861Y005120D01*
X016925Y005184D01*
X016925Y005804D01*
X016849Y005880D01*
X016670Y005880D01*
X016670Y006799D01*
X015288Y008181D01*
X015288Y008305D01*
X015238Y008426D01*
X015146Y008518D01*
X015025Y008568D01*
X014895Y008568D01*
X014774Y008518D01*
X014682Y008426D01*
X014632Y008305D01*
X014632Y008277D01*
X014190Y008719D01*
X014190Y010101D01*
X014280Y010011D01*
X014280Y009791D01*
X014356Y009715D01*
X014840Y009715D01*
X014840Y009071D01*
X014916Y008995D01*
X015010Y008995D01*
X015010Y008961D01*
X015121Y008850D01*
X015121Y008850D01*
X015521Y008450D01*
X016719Y008450D01*
X018078Y009809D01*
X018139Y009747D01*
X018139Y009111D01*
X018179Y009071D01*
X018179Y008728D01*
X017802Y008350D01*
X017764Y008258D01*
X017773Y008281D02*
X015288Y008281D01*
X015249Y008399D02*
X017851Y008399D01*
X017969Y008518D02*
X016786Y008518D01*
X016905Y008636D02*
X018088Y008636D01*
X018179Y008755D02*
X017023Y008755D01*
X017142Y008873D02*
X018179Y008873D01*
X018179Y008992D02*
X017260Y008992D01*
X017379Y009110D02*
X018140Y009110D01*
X018139Y009229D02*
X017497Y009229D01*
X017616Y009347D02*
X018139Y009347D01*
X018139Y009466D02*
X017734Y009466D01*
X017853Y009584D02*
X018139Y009584D01*
X018139Y009703D02*
X017971Y009703D01*
X017920Y009920D02*
X016640Y008640D01*
X015600Y008640D01*
X015200Y009040D01*
X015200Y009414D01*
X015226Y009440D01*
X015226Y009972D01*
X015414Y010160D01*
X015414Y010880D01*
X015542Y011568D02*
X016240Y010870D01*
X016240Y010160D01*
X016480Y009920D01*
X016480Y009680D01*
X016240Y009440D01*
X015974Y009440D01*
X014840Y009466D02*
X014190Y009466D01*
X014190Y009584D02*
X014840Y009584D01*
X014840Y009703D02*
X014190Y009703D01*
X014190Y009821D02*
X014280Y009821D01*
X014280Y009940D02*
X014190Y009940D01*
X014190Y010058D02*
X014233Y010058D01*
X014400Y010160D02*
X014240Y010320D01*
X014240Y011680D01*
X014640Y012080D01*
X015542Y012080D01*
X016000Y012080D01*
X017040Y011040D01*
X017040Y010560D01*
X017334Y010414D02*
X017637Y010414D01*
X017642Y010426D02*
X017592Y010305D01*
X017592Y010175D01*
X017642Y010054D01*
X017714Y009982D01*
X017407Y009676D01*
X017448Y009775D01*
X017448Y009905D01*
X017398Y010026D01*
X017306Y010118D01*
X017185Y010168D01*
X017061Y010168D01*
X016997Y010232D01*
X017105Y010232D01*
X017226Y010282D01*
X017318Y010374D01*
X017368Y010495D01*
X017368Y010625D01*
X017318Y010746D01*
X017230Y010834D01*
X017230Y011119D01*
X016619Y011730D01*
X016721Y011730D01*
X017841Y010610D01*
X019886Y010610D01*
X019974Y010522D01*
X020095Y010472D01*
X020225Y010472D01*
X020346Y010522D01*
X020438Y010614D01*
X020488Y010735D01*
X020488Y010865D01*
X020438Y010986D01*
X020367Y011057D01*
X020426Y011082D01*
X020518Y011174D01*
X020568Y011295D01*
X020568Y011425D01*
X020518Y011546D01*
X020426Y011638D01*
X020305Y011688D01*
X020175Y011688D01*
X020054Y011638D01*
X019966Y011550D01*
X017839Y011550D01*
X017710Y011679D01*
X017710Y011939D01*
X017775Y011912D01*
X017905Y011912D01*
X018026Y011962D01*
X018118Y012054D01*
X018150Y012130D01*
X021919Y012130D01*
X022030Y012241D01*
X022460Y012671D01*
X022460Y012640D01*
X022860Y012640D01*
X022860Y012600D01*
X022460Y012600D01*
X022460Y012446D01*
X022626Y012280D01*
X022351Y012280D01*
X022275Y012204D01*
X022275Y012069D01*
X022268Y012062D01*
X022135Y011928D01*
X022095Y011928D01*
X021974Y011878D01*
X021882Y011786D01*
X021832Y011665D01*
X021832Y011535D01*
X021882Y011414D01*
X021974Y011322D01*
X022095Y011272D01*
X022225Y011272D01*
X022275Y011293D01*
X022275Y010836D01*
X022351Y010760D01*
X022601Y010760D01*
X022601Y010309D01*
X022677Y010233D01*
X023336Y010233D01*
X023413Y010309D01*
X023413Y010811D01*
X023336Y010887D01*
X023217Y010887D01*
X023217Y011082D01*
X023228Y011151D01*
X023217Y011167D01*
X023217Y011186D01*
X023167Y011235D01*
X023165Y011239D01*
X023165Y011456D01*
X023101Y011520D01*
X023165Y011584D01*
X023165Y011817D01*
X023171Y011838D01*
X023184Y011870D01*
X023184Y011886D01*
X023188Y011901D01*
X023184Y011935D01*
X023184Y011970D01*
X023178Y011984D01*
X023176Y011999D01*
X023165Y012019D01*
X023165Y012204D01*
X023111Y012257D01*
X023300Y012446D01*
X023300Y012600D01*
X022900Y012600D01*
X022900Y012640D01*
X023300Y012640D01*
X023300Y012751D01*
X023534Y012518D01*
X023512Y012465D01*
X023512Y012365D01*
X023476Y012365D01*
X023400Y012289D01*
X023400Y011551D01*
X023476Y011475D01*
X023750Y011475D01*
X023761Y011464D01*
X023768Y011464D01*
X023752Y011425D01*
X023752Y011329D01*
X023684Y011261D01*
X023544Y011261D01*
X023467Y011185D01*
X023467Y010683D01*
X023544Y010607D01*
X024203Y010607D01*
X024207Y010612D01*
X024259Y010560D01*
X024207Y010508D01*
X024203Y010513D01*
X023544Y010513D01*
X023467Y010437D01*
X023467Y009935D01*
X023544Y009859D01*
X024203Y009859D01*
X024207Y009864D01*
X024265Y009807D01*
X024265Y009595D01*
X024660Y009595D01*
X024660Y009475D01*
X024416Y009475D01*
X024404Y009497D01*
X024374Y009526D01*
X024338Y009547D01*
X024297Y009558D01*
X024118Y009558D01*
X023940Y009558D01*
X023899Y009547D01*
X023863Y009526D01*
X023833Y009497D01*
X023812Y009460D01*
X023801Y009419D01*
X023801Y009355D01*
X023891Y009355D01*
X023801Y009355D01*
X023801Y009291D01*
X023812Y009250D01*
X023831Y009217D01*
X023831Y009144D01*
X023755Y009220D01*
X023689Y009220D01*
X023689Y009452D01*
X023613Y009528D01*
X023483Y009528D01*
X023476Y009535D01*
X023280Y009535D01*
X022980Y009835D01*
X022875Y009940D01*
X022008Y009940D01*
X022008Y010065D01*
X021958Y010186D01*
X021866Y010278D01*
X021745Y010328D01*
X021615Y010328D01*
X021494Y010278D01*
X021402Y010186D01*
X021352Y010065D01*
X021352Y009935D01*
X021402Y009814D01*
X021494Y009722D01*
X021499Y009720D01*
X021494Y009718D01*
X021402Y009626D01*
X021352Y009505D01*
X021352Y009375D01*
X021402Y009254D01*
X021494Y009162D01*
X021615Y009112D01*
X021745Y009112D01*
X021866Y009162D01*
X021958Y009254D01*
X021961Y009260D01*
X022350Y009260D01*
X022295Y009204D01*
X022295Y009123D01*
X022210Y009039D01*
X022139Y008968D01*
X022095Y008968D01*
X021974Y008918D01*
X021882Y008826D01*
X021832Y008705D01*
X021832Y008575D01*
X021882Y008454D01*
X021974Y008362D01*
X022095Y008312D01*
X022225Y008312D01*
X022265Y008328D01*
X022265Y008285D01*
X022660Y008285D01*
X022660Y008165D01*
X022780Y008165D01*
X022780Y007809D01*
X023036Y007809D01*
X023077Y007820D01*
X023114Y007841D01*
X023143Y007871D01*
X023160Y007900D01*
X023365Y007900D01*
X023365Y007780D01*
X023009Y007780D01*
X023009Y007524D01*
X023020Y007483D01*
X023041Y007446D01*
X023071Y007417D01*
X023108Y007396D01*
X023148Y007385D01*
X023365Y007385D01*
X023365Y007780D01*
X023485Y007780D01*
X023485Y007385D01*
X023702Y007385D01*
X023743Y007396D01*
X023780Y007417D01*
X023781Y007418D01*
X023785Y007415D01*
X024404Y007415D01*
X024481Y007491D01*
X024481Y008189D01*
X024404Y008265D01*
X024298Y008265D01*
X024298Y008552D01*
X024299Y008552D01*
X024371Y008479D01*
X024770Y008479D01*
X024770Y005194D01*
X024762Y005168D01*
X024770Y005094D01*
X024770Y005019D01*
X024775Y005006D01*
X024778Y004942D01*
X024742Y004695D01*
X024647Y004464D01*
X024498Y004263D01*
X024305Y004104D01*
X024078Y003998D01*
X023833Y003950D01*
X023782Y003950D01*
X023781Y003950D01*
X023694Y003950D01*
X023606Y003955D01*
X023593Y003950D01*
X023438Y003950D01*
X023610Y004122D01*
X023610Y004478D01*
X023358Y004730D01*
X023002Y004730D01*
X022750Y004478D01*
X022750Y004122D01*
X022922Y003950D01*
X022438Y003950D01*
X022610Y004122D01*
X022610Y004478D01*
X022358Y004730D01*
X022002Y004730D01*
X021750Y004478D01*
X021750Y004122D01*
X021922Y003950D01*
X021438Y003950D01*
X021610Y004122D01*
X021610Y004478D01*
X021358Y004730D01*
X021002Y004730D01*
X020750Y004478D01*
X020750Y004122D01*
X020922Y003950D01*
X020481Y003950D01*
X020640Y004109D01*
X020640Y004260D01*
X020220Y004260D01*
X020220Y004340D01*
X020140Y004340D01*
X020140Y004760D01*
X019989Y004760D01*
X019720Y004491D01*
X019720Y004340D01*
X020140Y004340D01*
X020140Y004260D01*
X019720Y004260D01*
X019720Y004109D01*
X019879Y003950D01*
X016717Y003950D01*
X016746Y003962D01*
X016838Y004054D01*
X016888Y004175D01*
X016888Y004305D01*
X016861Y004372D01*
X016925Y004436D01*
X016925Y004496D01*
X018716Y004496D01*
X018808Y004534D01*
X018825Y004551D01*
X018854Y004522D01*
X018975Y004472D01*
X019105Y004472D01*
X019226Y004522D01*
X019318Y004614D01*
X019368Y004735D01*
X019368Y004865D01*
X019318Y004986D01*
X019226Y005078D01*
X019105Y005128D01*
X019065Y005128D01*
X019022Y005172D01*
X018264Y005930D01*
X018264Y006855D01*
X018658Y006855D01*
X018734Y006931D01*
X018734Y007669D01*
X018658Y007745D01*
X018264Y007745D01*
X018264Y008105D01*
X018494Y008335D01*
X018875Y008335D01*
X018879Y008338D01*
X018880Y008337D01*
X018917Y008316D01*
X018958Y008305D01*
X019175Y008305D01*
X019175Y008700D01*
X019295Y008700D01*
X019295Y008820D01*
X019651Y008820D01*
X019651Y009076D01*
X019640Y009117D01*
X019619Y009154D01*
X019611Y009162D01*
X019611Y009400D01*
X019255Y009400D01*
X019255Y009520D01*
X019611Y009520D01*
X019611Y009776D01*
X019600Y009817D01*
X019579Y009854D01*
X019549Y009883D01*
X019512Y009904D01*
X019472Y009915D01*
X019255Y009915D01*
X019255Y009520D01*
X019135Y009520D01*
X019135Y009915D01*
X018918Y009915D01*
X018877Y009904D01*
X018840Y009883D01*
X018839Y009882D01*
X018835Y009885D01*
X018699Y009885D01*
X018692Y009902D01*
X018622Y009972D01*
X018220Y010374D01*
X018198Y010426D01*
X018106Y010518D01*
X017985Y010568D01*
X017855Y010568D01*
X017734Y010518D01*
X017642Y010426D01*
X017592Y010295D02*
X017239Y010295D01*
X017052Y010177D02*
X017592Y010177D01*
X017640Y010058D02*
X017366Y010058D01*
X017434Y009940D02*
X017671Y009940D01*
X017552Y009821D02*
X017448Y009821D01*
X017434Y009703D02*
X017418Y009703D01*
X017120Y009840D02*
X016720Y010240D01*
X016720Y011040D01*
X015936Y011824D01*
X015542Y011824D01*
X014784Y011824D01*
X014666Y011706D01*
X014666Y010880D01*
X014666Y010160D02*
X014400Y010160D01*
X014190Y009347D02*
X014840Y009347D01*
X014840Y009229D02*
X014190Y009229D01*
X014190Y009110D02*
X014840Y009110D01*
X015010Y008992D02*
X014190Y008992D01*
X014190Y008873D02*
X015098Y008873D01*
X015217Y008755D02*
X014190Y008755D01*
X014273Y008636D02*
X015335Y008636D01*
X015454Y008518D02*
X015147Y008518D01*
X014773Y008518D02*
X014391Y008518D01*
X014510Y008399D02*
X014671Y008399D01*
X014632Y008281D02*
X014628Y008281D01*
X014960Y008240D02*
X016480Y006720D01*
X016480Y005494D01*
X016925Y005437D02*
X018050Y005437D01*
X017931Y005555D02*
X016925Y005555D01*
X016925Y005674D02*
X017813Y005674D01*
X017764Y005792D02*
X016925Y005792D01*
X016670Y005911D02*
X017764Y005911D01*
X017764Y006029D02*
X016670Y006029D01*
X016670Y006148D02*
X017764Y006148D01*
X017764Y006266D02*
X016670Y006266D01*
X016670Y006385D02*
X017764Y006385D01*
X017764Y006503D02*
X016670Y006503D01*
X016670Y006622D02*
X017764Y006622D01*
X017764Y006740D02*
X016670Y006740D01*
X016610Y006859D02*
X017366Y006859D01*
X017293Y006977D02*
X016492Y006977D01*
X016373Y007096D02*
X017293Y007096D01*
X017293Y007214D02*
X016255Y007214D01*
X016136Y007333D02*
X017293Y007333D01*
X017293Y007451D02*
X016018Y007451D01*
X015899Y007570D02*
X017293Y007570D01*
X017313Y007688D02*
X015781Y007688D01*
X015662Y007807D02*
X017764Y007807D01*
X017764Y007925D02*
X015544Y007925D01*
X015425Y008044D02*
X017764Y008044D01*
X018264Y008044D02*
X022265Y008044D01*
X022265Y007948D02*
X022265Y008165D01*
X022660Y008165D01*
X022660Y007809D01*
X022404Y007809D01*
X022363Y007820D01*
X022326Y007841D01*
X022297Y007871D01*
X022276Y007908D01*
X022265Y007948D01*
X022271Y007925D02*
X018264Y007925D01*
X018264Y007807D02*
X023365Y007807D01*
X023365Y007900D02*
X023365Y008295D01*
X023175Y008295D01*
X023175Y008502D01*
X023164Y008543D01*
X023182Y008533D01*
X023223Y008522D01*
X023402Y008522D01*
X023580Y008522D01*
X023621Y008533D01*
X023657Y008554D01*
X023687Y008583D01*
X023708Y008620D01*
X023719Y008661D01*
X023719Y008725D01*
X023629Y008725D01*
X023719Y008725D01*
X023719Y008746D01*
X023763Y008703D01*
X023831Y008703D01*
X023831Y008628D01*
X023907Y008552D01*
X023938Y008552D01*
X023938Y008265D01*
X023785Y008265D01*
X023781Y008262D01*
X023780Y008263D01*
X023743Y008284D01*
X023702Y008295D01*
X023485Y008295D01*
X023485Y007900D01*
X023365Y007900D01*
X023365Y007925D02*
X023485Y007925D01*
X023485Y008044D02*
X023365Y008044D01*
X023365Y008162D02*
X023485Y008162D01*
X023485Y008281D02*
X023365Y008281D01*
X023175Y008399D02*
X023938Y008399D01*
X023938Y008281D02*
X023750Y008281D01*
X023938Y008518D02*
X023171Y008518D01*
X023164Y008543D02*
X023164Y008543D01*
X023402Y008522D02*
X023402Y008709D01*
X023402Y008522D01*
X023402Y008636D02*
X023402Y008636D01*
X023402Y008709D02*
X023402Y008709D01*
X023629Y008725D02*
X023629Y008725D01*
X023713Y008636D02*
X023831Y008636D01*
X024298Y008518D02*
X024333Y008518D01*
X024298Y008399D02*
X024770Y008399D01*
X024770Y008281D02*
X024298Y008281D01*
X024481Y008162D02*
X024770Y008162D01*
X024770Y008044D02*
X024481Y008044D01*
X024481Y007925D02*
X024770Y007925D01*
X024770Y007807D02*
X024481Y007807D01*
X024481Y007688D02*
X024770Y007688D01*
X024770Y007570D02*
X024481Y007570D01*
X024441Y007451D02*
X024770Y007451D01*
X024770Y007333D02*
X019806Y007333D01*
X019806Y007360D02*
X020497Y007360D01*
X020497Y007636D01*
X020486Y007677D01*
X020465Y007713D01*
X020435Y007743D01*
X020398Y007764D01*
X020358Y007775D01*
X019806Y007775D01*
X019806Y007360D01*
X019686Y007360D01*
X019686Y007240D01*
X018996Y007240D01*
X018996Y006964D01*
X019006Y006923D01*
X019028Y006887D01*
X019057Y006857D01*
X019094Y006836D01*
X019135Y006825D01*
X019686Y006825D01*
X019686Y007240D01*
X019806Y007240D01*
X019806Y006825D01*
X020358Y006825D01*
X020398Y006836D01*
X020435Y006857D01*
X020465Y006887D01*
X020486Y006923D01*
X020497Y006964D01*
X020497Y007240D01*
X019806Y007240D01*
X019806Y007360D01*
X019806Y007451D02*
X019686Y007451D01*
X019686Y007360D02*
X019686Y007775D01*
X019135Y007775D01*
X019094Y007764D01*
X019057Y007743D01*
X019028Y007713D01*
X019006Y007677D01*
X018996Y007636D01*
X018996Y007360D01*
X019686Y007360D01*
X019686Y007333D02*
X018734Y007333D01*
X018734Y007451D02*
X018996Y007451D01*
X018996Y007570D02*
X018734Y007570D01*
X018715Y007688D02*
X019013Y007688D01*
X019686Y007688D02*
X019806Y007688D01*
X019806Y007570D02*
X019686Y007570D01*
X020479Y007688D02*
X023009Y007688D01*
X023009Y007570D02*
X020497Y007570D01*
X020497Y007451D02*
X023039Y007451D01*
X023365Y007451D02*
X023485Y007451D01*
X023485Y007570D02*
X023365Y007570D01*
X023365Y007688D02*
X023485Y007688D01*
X022780Y007925D02*
X022660Y007925D01*
X022660Y008044D02*
X022780Y008044D01*
X022780Y008162D02*
X022660Y008162D01*
X022660Y008281D02*
X018439Y008281D01*
X018321Y008162D02*
X022265Y008162D01*
X021937Y008399D02*
X019637Y008399D01*
X019640Y008403D02*
X019651Y008444D01*
X019651Y008700D01*
X019295Y008700D01*
X019295Y008305D01*
X019512Y008305D01*
X019552Y008316D01*
X019589Y008337D01*
X019619Y008366D01*
X019640Y008403D01*
X019651Y008518D02*
X021856Y008518D01*
X021832Y008636D02*
X019651Y008636D01*
X019651Y008873D02*
X021929Y008873D01*
X021852Y008755D02*
X019295Y008755D01*
X019295Y008820D02*
X019175Y008820D01*
X019175Y009215D01*
X019135Y009215D01*
X019135Y009400D01*
X019255Y009400D01*
X019255Y009005D01*
X019295Y009005D01*
X019295Y008820D01*
X019295Y008873D02*
X019175Y008873D01*
X019175Y008992D02*
X019295Y008992D01*
X019255Y009110D02*
X019175Y009110D01*
X019135Y009229D02*
X019255Y009229D01*
X019255Y009347D02*
X019135Y009347D01*
X019255Y009466D02*
X021352Y009466D01*
X021363Y009347D02*
X019611Y009347D01*
X019611Y009229D02*
X021427Y009229D01*
X021933Y009229D02*
X022319Y009229D01*
X022281Y009110D02*
X019642Y009110D01*
X019651Y008992D02*
X022163Y008992D01*
X022400Y008960D02*
X022160Y008720D01*
X022160Y008640D01*
X022400Y008960D02*
X022655Y008960D01*
X022720Y008895D01*
X023689Y009229D02*
X023824Y009229D01*
X023801Y009347D02*
X023689Y009347D01*
X023676Y009466D02*
X023815Y009466D01*
X023891Y009355D02*
X023891Y009355D01*
X024118Y009377D02*
X024118Y009558D01*
X024118Y009377D01*
X024118Y009377D01*
X024118Y009466D02*
X024118Y009466D01*
X024265Y009703D02*
X023112Y009703D01*
X022994Y009821D02*
X024250Y009821D01*
X024660Y009584D02*
X023231Y009584D01*
X023467Y009940D02*
X022875Y009940D01*
X023467Y010058D02*
X022008Y010058D01*
X021962Y010177D02*
X023467Y010177D01*
X023467Y010295D02*
X023398Y010295D01*
X023413Y010414D02*
X023467Y010414D01*
X023413Y010532D02*
X024231Y010532D01*
X024640Y010720D02*
X024800Y010880D01*
X024640Y010934D02*
X024640Y010720D01*
X024640Y010186D02*
X023873Y010186D01*
X023500Y010651D02*
X023413Y010651D01*
X023413Y010769D02*
X023467Y010769D01*
X023467Y010888D02*
X023217Y010888D01*
X023217Y011006D02*
X023467Y011006D01*
X023467Y011125D02*
X023224Y011125D01*
X023165Y011243D02*
X023526Y011243D01*
X023471Y011480D02*
X023141Y011480D01*
X023165Y011362D02*
X023752Y011362D01*
X023840Y011654D02*
X023786Y011920D01*
X023786Y012534D01*
X023200Y013120D01*
X022640Y013120D01*
X021840Y012320D01*
X017920Y012320D01*
X017840Y012240D01*
X018007Y011954D02*
X022160Y011954D01*
X022275Y012073D02*
X018126Y012073D01*
X017710Y011836D02*
X021932Y011836D01*
X021853Y011717D02*
X017710Y011717D01*
X017790Y011599D02*
X020015Y011599D01*
X020240Y011360D02*
X017760Y011360D01*
X017520Y011600D01*
X017520Y012640D01*
X017715Y012835D01*
X017875Y012835D01*
X017920Y012880D01*
X020880Y012880D01*
X021210Y013210D01*
X021210Y013926D01*
X021210Y014135D02*
X021210Y014320D01*
X021606Y014320D01*
X021210Y014320D01*
X021210Y014320D01*
X021210Y014320D01*
X021210Y014505D01*
X021210Y014505D01*
X021210Y014320D01*
X021210Y014135D01*
X021210Y014135D01*
X021210Y014206D02*
X021210Y014206D01*
X021210Y014320D02*
X021210Y014320D01*
X020985Y014320D01*
X020985Y014320D01*
X021210Y014320D01*
X021210Y014320D01*
X021210Y014324D02*
X021210Y014324D01*
X021210Y014443D02*
X021210Y014443D01*
X021556Y014561D02*
X023685Y014561D01*
X023685Y014620D02*
X023329Y014620D01*
X023329Y014876D01*
X023340Y014917D01*
X023361Y014954D01*
X023391Y014983D01*
X023428Y015004D01*
X023468Y015015D01*
X023685Y015015D01*
X023685Y014620D01*
X023685Y014680D02*
X023805Y014680D01*
X023805Y014798D02*
X023685Y014798D01*
X023685Y014917D02*
X023805Y014917D01*
X024165Y015035D02*
X023343Y015035D01*
X023340Y014917D02*
X023170Y014917D01*
X023329Y014798D02*
X021576Y014798D01*
X021576Y014680D02*
X023329Y014680D01*
X023329Y014443D02*
X021600Y014443D01*
X021606Y014324D02*
X023329Y014324D01*
X023340Y014206D02*
X021602Y014206D01*
X021548Y014087D02*
X024190Y014087D01*
X024079Y013969D02*
X023083Y013969D01*
X023202Y013850D02*
X023955Y013850D01*
X023912Y013732D02*
X023270Y013732D01*
X023270Y013613D02*
X023913Y013613D01*
X023962Y013495D02*
X023270Y013495D01*
X023188Y013376D02*
X024116Y013376D01*
X024394Y013258D02*
X023331Y013258D01*
X023450Y013139D02*
X024770Y013139D01*
X024770Y013021D02*
X023568Y013021D01*
X023687Y012902D02*
X024770Y012902D01*
X024567Y012784D02*
X023805Y012784D01*
X024039Y012665D02*
X024448Y012665D01*
X024330Y012547D02*
X024134Y012547D01*
X024168Y012428D02*
X024324Y012428D01*
X024169Y012310D02*
X024158Y012310D01*
X023840Y012400D02*
X023840Y011654D01*
X023400Y011599D02*
X023165Y011599D01*
X023165Y011717D02*
X023400Y011717D01*
X023400Y011836D02*
X023170Y011836D01*
X023184Y011954D02*
X023400Y011954D01*
X023400Y012073D02*
X023165Y012073D01*
X023165Y012191D02*
X023400Y012191D01*
X023421Y012310D02*
X023163Y012310D01*
X023282Y012428D02*
X023512Y012428D01*
X023505Y012547D02*
X023300Y012547D01*
X023300Y012665D02*
X023386Y012665D01*
X022597Y012310D02*
X022098Y012310D01*
X022217Y012428D02*
X022478Y012428D01*
X022460Y012547D02*
X022335Y012547D01*
X022454Y012665D02*
X022460Y012665D01*
X022153Y012902D02*
X021171Y012902D01*
X021289Y013021D02*
X022272Y013021D01*
X022390Y013139D02*
X021400Y013139D01*
X021400Y013258D02*
X022509Y013258D01*
X022572Y013376D02*
X021400Y013376D01*
X021400Y013495D02*
X022490Y013495D01*
X022490Y013613D02*
X021400Y013613D01*
X021514Y013732D02*
X022490Y013732D01*
X022558Y013850D02*
X021576Y013850D01*
X021576Y013969D02*
X022677Y013969D01*
X023685Y014206D02*
X023805Y014206D01*
X023805Y014324D02*
X023685Y014324D01*
X023685Y014443D02*
X023805Y014443D01*
X024154Y015154D02*
X023416Y015154D01*
X023450Y015272D02*
X024034Y015272D01*
X023992Y015391D02*
X023450Y015391D01*
X023407Y015509D02*
X023993Y015509D01*
X024044Y015628D02*
X023321Y015628D01*
X023115Y015746D02*
X024201Y015746D01*
X024439Y015746D02*
X024770Y015746D01*
X024770Y015628D02*
X024596Y015628D01*
X024647Y015509D02*
X024770Y015509D01*
X024770Y015391D02*
X024665Y015391D01*
X024665Y015272D02*
X024770Y015272D01*
X024770Y015154D02*
X024665Y015154D01*
X024665Y015035D02*
X024770Y015035D01*
X024770Y015865D02*
X022244Y015865D01*
X022149Y015983D02*
X022126Y015983D01*
X022045Y016102D02*
X022007Y016102D01*
X021680Y016160D02*
X022240Y015600D01*
X022440Y015600D01*
X022720Y015320D01*
X022097Y015035D02*
X020915Y015035D01*
X021506Y014917D02*
X022270Y014917D01*
X022024Y015154D02*
X019448Y015154D01*
X019440Y015035D02*
X020205Y015035D01*
X019614Y014917D02*
X019381Y014917D01*
X019544Y014798D02*
X019200Y014798D01*
X019040Y014798D02*
X018811Y014798D01*
X018820Y014680D02*
X019544Y014680D01*
X019564Y014561D02*
X018820Y014561D01*
X018859Y014917D02*
X017905Y014917D01*
X017840Y015120D02*
X017680Y014960D01*
X017680Y014426D01*
X017686Y014420D01*
X017501Y014420D01*
X017431Y014391D02*
X016800Y013760D01*
X017120Y013440D01*
X017120Y012720D01*
X017200Y012640D01*
X017200Y012080D01*
X017040Y011920D01*
X016800Y011920D01*
X017920Y010800D01*
X020160Y010800D01*
X020453Y010651D02*
X022601Y010651D01*
X022601Y010532D02*
X020356Y010532D01*
X020488Y010769D02*
X022342Y010769D01*
X022275Y010888D02*
X020479Y010888D01*
X020418Y011006D02*
X022275Y011006D01*
X022275Y011125D02*
X020469Y011125D01*
X020547Y011243D02*
X022275Y011243D01*
X021934Y011362D02*
X020568Y011362D01*
X020545Y011480D02*
X021855Y011480D01*
X021832Y011599D02*
X020465Y011599D01*
X021980Y012191D02*
X022275Y012191D01*
X021916Y012665D02*
X018169Y012665D01*
X017957Y012547D02*
X021798Y012547D01*
X022035Y012784D02*
X021052Y012784D01*
X020801Y013070D02*
X019917Y013070D01*
X019946Y013082D01*
X020038Y013174D01*
X020088Y013295D01*
X020088Y013419D01*
X020100Y013432D01*
X020100Y013718D01*
X020135Y013718D01*
X020135Y013676D01*
X020211Y013599D01*
X020909Y013599D01*
X020985Y013676D01*
X020985Y013718D01*
X021020Y013718D01*
X021020Y013288D01*
X020801Y013070D01*
X020870Y013139D02*
X020003Y013139D01*
X020073Y013258D02*
X020989Y013258D01*
X021020Y013376D02*
X020088Y013376D01*
X020100Y013495D02*
X021020Y013495D01*
X021020Y013613D02*
X020923Y013613D01*
X020197Y013613D02*
X020100Y013613D01*
X019910Y013510D02*
X019760Y013360D01*
X019910Y013510D02*
X019910Y013926D01*
X018434Y013600D02*
X018434Y014420D01*
X017501Y014420D02*
X017481Y014418D01*
X017463Y014412D01*
X017445Y014403D01*
X017430Y014391D01*
X017296Y014525D02*
X017296Y014525D01*
X017300Y014561D02*
X017249Y014561D01*
X017241Y014469D02*
X017241Y014469D01*
X017214Y014443D02*
X017147Y014443D01*
X017095Y014324D02*
X016648Y014324D01*
X016628Y014206D02*
X016977Y014206D01*
X016858Y014087D02*
X016551Y014087D01*
X016740Y013969D02*
X016220Y013969D01*
X016160Y013760D02*
X016800Y013760D01*
X016320Y013360D02*
X016064Y013104D01*
X015542Y013104D01*
X015542Y012848D02*
X014912Y012848D01*
X014720Y013040D01*
X014720Y014506D01*
X014854Y014640D01*
X015240Y014680D02*
X015810Y014680D01*
X015810Y014798D02*
X015240Y014798D01*
X015240Y014917D02*
X015810Y014917D01*
X015810Y015035D02*
X015214Y015035D01*
X015200Y015049D02*
X015220Y015083D01*
X015231Y015124D01*
X015231Y015380D01*
X015231Y015272D02*
X015579Y015272D01*
X015698Y015154D02*
X015231Y015154D01*
X015200Y015049D02*
X015240Y015009D01*
X015240Y014271D01*
X015164Y014195D01*
X014910Y014195D01*
X014910Y013119D01*
X014991Y013038D01*
X015176Y013038D01*
X015176Y013217D01*
X015191Y013232D01*
X015176Y013247D01*
X015176Y013473D01*
X015191Y013488D01*
X015176Y013503D01*
X015176Y013718D01*
X015156Y013751D01*
X015146Y013791D01*
X015146Y013872D01*
X015542Y013872D01*
X015542Y013872D01*
X015542Y013969D02*
X015542Y013969D01*
X015542Y014087D02*
X015542Y014087D01*
X015271Y014087D02*
X014910Y014087D01*
X014910Y013969D02*
X015150Y013969D01*
X015146Y013850D02*
X014910Y013850D01*
X014910Y013732D02*
X015168Y013732D01*
X015176Y013613D02*
X014910Y013613D01*
X014910Y013495D02*
X015184Y013495D01*
X015176Y013376D02*
X014910Y013376D01*
X014910Y013258D02*
X015176Y013258D01*
X015176Y013139D02*
X014910Y013139D01*
X014589Y012902D02*
X014202Y012902D01*
X014296Y012784D02*
X014708Y012784D01*
X014826Y012665D02*
X014328Y012665D01*
X014316Y012547D02*
X015176Y012547D01*
X015176Y012428D02*
X014252Y012428D01*
X014098Y012310D02*
X015176Y012310D01*
X015542Y012336D02*
X016144Y012336D01*
X016560Y011920D01*
X016800Y011920D01*
X016734Y011717D02*
X016632Y011717D01*
X016750Y011599D02*
X016853Y011599D01*
X016869Y011480D02*
X016971Y011480D01*
X016987Y011362D02*
X017090Y011362D01*
X017106Y011243D02*
X017208Y011243D01*
X017224Y011125D02*
X017327Y011125D01*
X017230Y011006D02*
X017445Y011006D01*
X017564Y010888D02*
X017230Y010888D01*
X017295Y010769D02*
X017682Y010769D01*
X017801Y010651D02*
X017358Y010651D01*
X017368Y010532D02*
X017768Y010532D01*
X018072Y010532D02*
X019964Y010532D01*
X021352Y010058D02*
X018536Y010058D01*
X018654Y009940D02*
X021352Y009940D01*
X021399Y009821D02*
X019597Y009821D01*
X019611Y009703D02*
X021478Y009703D01*
X021385Y009584D02*
X019611Y009584D01*
X019255Y009584D02*
X019135Y009584D01*
X019135Y009703D02*
X019255Y009703D01*
X019255Y009821D02*
X019135Y009821D01*
X018417Y010177D02*
X021398Y010177D01*
X021535Y010295D02*
X018299Y010295D01*
X018203Y010414D02*
X022601Y010414D01*
X022616Y010295D02*
X021825Y010295D01*
X017920Y010240D02*
X017920Y009920D01*
X019175Y008636D02*
X019295Y008636D01*
X019295Y008518D02*
X019175Y008518D01*
X019175Y008399D02*
X019295Y008399D01*
X018996Y007214D02*
X018734Y007214D01*
X018734Y007096D02*
X018996Y007096D01*
X018996Y006977D02*
X018734Y006977D01*
X018662Y006859D02*
X019056Y006859D01*
X019686Y006859D02*
X019806Y006859D01*
X019806Y006977D02*
X019686Y006977D01*
X019686Y007096D02*
X019806Y007096D01*
X019806Y007214D02*
X019686Y007214D01*
X020497Y007214D02*
X024770Y007214D01*
X024770Y007096D02*
X020497Y007096D01*
X020497Y006977D02*
X024770Y006977D01*
X024770Y006859D02*
X020436Y006859D01*
X018264Y006740D02*
X024770Y006740D01*
X024770Y006622D02*
X018264Y006622D01*
X018264Y006503D02*
X024770Y006503D01*
X024770Y006385D02*
X018264Y006385D01*
X018264Y006266D02*
X024770Y006266D01*
X024770Y006148D02*
X018264Y006148D01*
X018264Y006029D02*
X024770Y006029D01*
X024770Y005911D02*
X018283Y005911D01*
X018402Y005792D02*
X024770Y005792D01*
X024770Y005674D02*
X023415Y005674D01*
X023358Y005730D02*
X023002Y005730D01*
X022750Y005478D01*
X022750Y005122D01*
X023002Y004870D01*
X023358Y004870D01*
X023610Y005122D01*
X023610Y005478D01*
X023358Y005730D01*
X023533Y005555D02*
X024770Y005555D01*
X024770Y005437D02*
X023610Y005437D01*
X023610Y005318D02*
X024770Y005318D01*
X024770Y005200D02*
X023610Y005200D01*
X023569Y005081D02*
X024770Y005081D01*
X024777Y004963D02*
X023451Y004963D01*
X023363Y004726D02*
X024746Y004726D01*
X024764Y004844D02*
X019368Y004844D01*
X019364Y004726D02*
X019955Y004726D01*
X020002Y004870D02*
X020358Y004870D01*
X020610Y005122D01*
X020610Y005478D01*
X020358Y005730D01*
X020002Y005730D01*
X019750Y005478D01*
X019750Y005122D01*
X020002Y004870D01*
X019909Y004963D02*
X019328Y004963D01*
X019219Y005081D02*
X019791Y005081D01*
X019750Y005200D02*
X018994Y005200D01*
X018876Y005318D02*
X019750Y005318D01*
X019750Y005437D02*
X018757Y005437D01*
X018639Y005555D02*
X019827Y005555D01*
X019945Y005674D02*
X018520Y005674D01*
X018168Y005318D02*
X016925Y005318D01*
X016925Y005200D02*
X018287Y005200D01*
X018405Y005081D02*
X016900Y005081D01*
X015421Y005318D02*
X015111Y005318D01*
X015199Y005200D02*
X015310Y005200D01*
X015310Y005081D02*
X015199Y005081D01*
X015199Y004963D02*
X015310Y004963D01*
X015310Y004844D02*
X015199Y004844D01*
X015199Y004726D02*
X015310Y004726D01*
X015310Y004607D02*
X015199Y004607D01*
X015199Y004489D02*
X015304Y004489D01*
X015219Y004370D02*
X015199Y004370D01*
X016799Y004015D02*
X019815Y004015D01*
X019720Y004133D02*
X016871Y004133D01*
X016888Y004252D02*
X019720Y004252D01*
X019720Y004370D02*
X016861Y004370D01*
X016925Y004489D02*
X018935Y004489D01*
X019145Y004489D02*
X019720Y004489D01*
X019836Y004607D02*
X019311Y004607D01*
X020140Y004607D02*
X020220Y004607D01*
X020220Y004489D02*
X020140Y004489D01*
X020140Y004370D02*
X020220Y004370D01*
X020220Y004340D02*
X020220Y004760D01*
X020371Y004760D01*
X020640Y004491D01*
X020640Y004340D01*
X020220Y004340D01*
X020220Y004726D02*
X020140Y004726D01*
X020405Y004726D02*
X020997Y004726D01*
X021002Y004870D02*
X021358Y004870D01*
X021610Y005122D01*
X021610Y005478D01*
X021358Y005730D01*
X021002Y005730D01*
X020750Y005478D01*
X020750Y005122D01*
X021002Y004870D01*
X020909Y004963D02*
X020451Y004963D01*
X020569Y005081D02*
X020791Y005081D01*
X020750Y005200D02*
X020610Y005200D01*
X020610Y005318D02*
X020750Y005318D01*
X020750Y005437D02*
X020610Y005437D01*
X020533Y005555D02*
X020827Y005555D01*
X020945Y005674D02*
X020415Y005674D01*
X021415Y005674D02*
X021945Y005674D01*
X022002Y005730D02*
X021750Y005478D01*
X021750Y005122D01*
X022002Y004870D01*
X022358Y004870D01*
X022610Y005122D01*
X022610Y005478D01*
X022358Y005730D01*
X022002Y005730D01*
X021827Y005555D02*
X021533Y005555D01*
X021610Y005437D02*
X021750Y005437D01*
X021750Y005318D02*
X021610Y005318D01*
X021610Y005200D02*
X021750Y005200D01*
X021791Y005081D02*
X021569Y005081D01*
X021451Y004963D02*
X021909Y004963D01*
X021997Y004726D02*
X021363Y004726D01*
X021481Y004607D02*
X021879Y004607D01*
X021760Y004489D02*
X021600Y004489D01*
X021610Y004370D02*
X021750Y004370D01*
X021750Y004252D02*
X021610Y004252D01*
X021610Y004133D02*
X021750Y004133D01*
X021857Y004015D02*
X021503Y004015D01*
X020857Y004015D02*
X020545Y004015D01*
X020640Y004133D02*
X020750Y004133D01*
X020750Y004252D02*
X020640Y004252D01*
X020640Y004370D02*
X020750Y004370D01*
X020760Y004489D02*
X020640Y004489D01*
X020524Y004607D02*
X020879Y004607D01*
X022363Y004726D02*
X022997Y004726D01*
X022879Y004607D02*
X022481Y004607D01*
X022600Y004489D02*
X022760Y004489D01*
X022750Y004370D02*
X022610Y004370D01*
X022610Y004252D02*
X022750Y004252D01*
X022750Y004133D02*
X022610Y004133D01*
X022503Y004015D02*
X022857Y004015D01*
X023503Y004015D02*
X024113Y004015D01*
X024340Y004133D02*
X023610Y004133D01*
X023610Y004252D02*
X024484Y004252D01*
X024577Y004370D02*
X023610Y004370D01*
X023600Y004489D02*
X024657Y004489D01*
X024706Y004607D02*
X023481Y004607D01*
X022909Y004963D02*
X022451Y004963D01*
X022569Y005081D02*
X022791Y005081D01*
X022750Y005200D02*
X022610Y005200D01*
X022610Y005318D02*
X022750Y005318D01*
X022750Y005437D02*
X022610Y005437D01*
X022533Y005555D02*
X022827Y005555D01*
X022945Y005674D02*
X022415Y005674D01*
X012426Y004800D02*
X012346Y004880D01*
X012346Y005647D01*
X012019Y005674D02*
X004830Y005674D01*
X004830Y005792D02*
X012019Y005792D01*
X012019Y005911D02*
X004830Y005911D01*
X004830Y006029D02*
X012072Y006029D01*
X012019Y005555D02*
X004830Y005555D01*
X004830Y005437D02*
X012019Y005437D01*
X012019Y005318D02*
X004830Y005318D01*
X004830Y005200D02*
X012071Y005200D01*
X012040Y005081D02*
X009025Y005081D01*
X009038Y005068D02*
X009008Y005098D01*
X008972Y005119D01*
X008931Y005130D01*
X008665Y005130D01*
X008665Y004774D01*
X009070Y004774D01*
X009070Y004991D01*
X009059Y005032D01*
X009038Y005068D01*
X009070Y004963D02*
X012040Y004963D01*
X012040Y004844D02*
X009070Y004844D01*
X009070Y004654D02*
X008665Y004654D01*
X008665Y004298D01*
X008931Y004298D01*
X008972Y004309D01*
X009008Y004330D01*
X009038Y004360D01*
X009059Y004397D01*
X009070Y004437D01*
X009070Y004654D01*
X009070Y004607D02*
X012040Y004607D01*
X012040Y004489D02*
X009070Y004489D01*
X009044Y004370D02*
X012101Y004370D01*
X012040Y004726D02*
X008665Y004726D01*
X008665Y004774D02*
X008665Y004654D01*
X008545Y004654D01*
X008545Y004298D01*
X008279Y004298D01*
X008238Y004309D01*
X008202Y004330D01*
X008172Y004360D01*
X008151Y004397D01*
X008140Y004437D01*
X008140Y004654D01*
X008545Y004654D01*
X008545Y004774D01*
X008140Y004774D01*
X008140Y004991D01*
X008151Y005032D01*
X008172Y005068D01*
X008202Y005098D01*
X008238Y005119D01*
X008279Y005130D01*
X008545Y005130D01*
X008545Y004774D01*
X008665Y004774D01*
X008665Y004844D02*
X008545Y004844D01*
X008545Y004726D02*
X005910Y004726D01*
X005910Y004844D02*
X008140Y004844D01*
X008140Y004963D02*
X005910Y004963D01*
X005910Y005024D02*
X005834Y005100D01*
X005116Y005100D01*
X005040Y005024D01*
X005040Y004404D01*
X005116Y004328D01*
X005834Y004328D01*
X005910Y004404D01*
X005910Y005024D01*
X005853Y005081D02*
X008184Y005081D01*
X008545Y005081D02*
X008665Y005081D01*
X008665Y004963D02*
X008545Y004963D01*
X008545Y004607D02*
X008665Y004607D01*
X008665Y004489D02*
X008545Y004489D01*
X008545Y004370D02*
X008665Y004370D01*
X008166Y004370D02*
X005876Y004370D01*
X005910Y004489D02*
X008140Y004489D01*
X008140Y004607D02*
X005910Y004607D01*
X005074Y004370D02*
X004937Y004370D01*
X004878Y004489D02*
X005040Y004489D01*
X005040Y004607D02*
X004850Y004607D01*
X004832Y004726D02*
X005040Y004726D01*
X005040Y004844D02*
X004832Y004844D01*
X004830Y004963D02*
X005040Y004963D01*
X005097Y005081D02*
X004830Y005081D01*
X004830Y006148D02*
X005068Y006148D01*
X005040Y006266D02*
X004830Y006266D01*
X004830Y006385D02*
X005040Y006385D01*
X005040Y006503D02*
X004830Y006503D01*
X004830Y006622D02*
X005040Y006622D01*
X005040Y006740D02*
X004830Y006740D01*
X004830Y006859D02*
X005103Y006859D01*
X004830Y006977D02*
X006114Y006977D01*
X009200Y006480D02*
X009805Y007085D01*
X009805Y007084D02*
X009831Y007113D01*
X009854Y007144D01*
X009873Y007177D01*
X009890Y007212D01*
X009903Y007249D01*
X009912Y007286D01*
X009918Y007324D01*
X009920Y007363D01*
X013611Y011954D02*
X013650Y011954D01*
X013624Y012073D02*
X014364Y012073D01*
X014482Y012191D02*
X013980Y012191D01*
X013856Y012336D02*
X014000Y012480D01*
X014000Y012640D01*
X015542Y012592D02*
X016608Y012592D01*
X016800Y012400D01*
X016528Y012848D02*
X015542Y012848D01*
X016528Y012848D02*
X016720Y013040D01*
X016160Y013760D02*
X016000Y013920D01*
X016000Y015120D01*
X014900Y016220D01*
X014900Y016960D01*
X015330Y016931D02*
X015470Y016931D01*
X015470Y016813D02*
X015330Y016813D01*
X015330Y016694D02*
X015470Y016694D01*
X015470Y016576D02*
X015330Y016576D01*
X015281Y016457D02*
X015519Y016457D01*
X015613Y016339D02*
X015187Y016339D01*
X015169Y016220D02*
X016246Y016220D01*
X016232Y016339D02*
X016187Y016339D01*
X016314Y016102D02*
X015287Y016102D01*
X015406Y015983D02*
X017154Y015983D01*
X017036Y015865D02*
X015524Y015865D01*
X015643Y015746D02*
X016917Y015746D01*
X016799Y015628D02*
X015761Y015628D01*
X015880Y015509D02*
X016680Y015509D01*
X016562Y015391D02*
X015998Y015391D01*
X016117Y015272D02*
X016443Y015272D01*
X016325Y015154D02*
X016190Y015154D01*
X016190Y015035D02*
X016206Y015035D01*
X016320Y014880D02*
X017840Y016400D01*
X022640Y016400D01*
X022720Y016320D01*
X022199Y016694D02*
X016750Y016694D01*
X016750Y016813D02*
X024770Y016813D01*
X024770Y016931D02*
X023267Y016931D01*
X023261Y016927D02*
X023320Y016969D01*
X023371Y017020D01*
X023413Y017079D01*
X023446Y017143D01*
X023469Y017212D01*
X023479Y017280D01*
X022760Y017280D01*
X022760Y017360D01*
X022680Y017360D01*
X022680Y017780D01*
X022384Y017780D01*
X022312Y017769D01*
X022243Y017746D01*
X022179Y017713D01*
X022120Y017671D01*
X022069Y017620D01*
X022027Y017561D01*
X021994Y017497D01*
X021971Y017428D01*
X021961Y017360D01*
X022680Y017360D01*
X022680Y017280D01*
X022760Y017280D01*
X022760Y016860D01*
X023056Y016860D01*
X023128Y016871D01*
X023197Y016894D01*
X023261Y016927D01*
X023392Y017050D02*
X024770Y017050D01*
X024770Y017168D02*
X023454Y017168D01*
X023479Y017360D02*
X022760Y017360D01*
X022760Y017780D01*
X023056Y017780D01*
X023128Y017769D01*
X023197Y017746D01*
X023261Y017713D01*
X023320Y017671D01*
X023371Y017620D01*
X023413Y017561D01*
X023446Y017497D01*
X023469Y017428D01*
X023479Y017360D01*
X023472Y017405D02*
X023913Y017405D01*
X023944Y017287D02*
X022760Y017287D01*
X022680Y017287D02*
X016750Y017287D01*
X016750Y017405D02*
X021968Y017405D01*
X022007Y017524D02*
X021028Y017524D01*
X021106Y017642D02*
X022091Y017642D01*
X022287Y017761D02*
X021128Y017761D01*
X021106Y017879D02*
X022784Y017879D01*
X022760Y017761D02*
X022680Y017761D01*
X022680Y017642D02*
X022760Y017642D01*
X022760Y017524D02*
X022680Y017524D01*
X022680Y017405D02*
X022760Y017405D01*
X022680Y017280D02*
X021961Y017280D01*
X021971Y017212D01*
X021994Y017143D01*
X022027Y017079D01*
X022069Y017020D01*
X022120Y016969D01*
X022179Y016927D01*
X022243Y016894D01*
X022312Y016871D01*
X022384Y016860D01*
X022680Y016860D01*
X022680Y017280D01*
X022680Y017168D02*
X022760Y017168D01*
X022760Y017050D02*
X022680Y017050D01*
X022680Y016931D02*
X022760Y016931D01*
X023241Y016694D02*
X024770Y016694D01*
X024770Y016576D02*
X023373Y016576D01*
X023429Y016457D02*
X024770Y016457D01*
X024770Y016339D02*
X023450Y016339D01*
X023444Y016220D02*
X024770Y016220D01*
X024770Y016102D02*
X023395Y016102D01*
X023291Y015983D02*
X024770Y015983D01*
X022173Y016931D02*
X016750Y016931D01*
X016750Y017050D02*
X022048Y017050D01*
X021986Y017168D02*
X016750Y017168D01*
X016750Y017524D02*
X020572Y017524D01*
X020494Y017642D02*
X016750Y017642D01*
X016750Y017761D02*
X020472Y017761D01*
X020494Y017879D02*
X016750Y017879D01*
X016750Y017998D02*
X020574Y017998D01*
X020610Y018116D02*
X016750Y018116D01*
X016750Y018235D02*
X020610Y018235D01*
X020610Y018353D02*
X016750Y018353D01*
X016750Y018472D02*
X020610Y018472D01*
X020610Y018590D02*
X016750Y018590D01*
X016750Y018709D02*
X020610Y018709D01*
X020610Y018827D02*
X016856Y018827D01*
X016974Y018946D02*
X020610Y018946D01*
X020610Y019064D02*
X017093Y019064D01*
X017211Y019183D02*
X020610Y019183D01*
X020610Y019301D02*
X017330Y019301D01*
X017448Y019420D02*
X020610Y019420D01*
X020610Y019538D02*
X017567Y019538D01*
X017685Y019657D02*
X020610Y019657D01*
X020610Y019775D02*
X017804Y019775D01*
X017922Y019894D02*
X020610Y019894D01*
X020610Y020012D02*
X018041Y020012D01*
X018159Y020131D02*
X020610Y020131D01*
X020610Y020249D02*
X018278Y020249D01*
X018396Y020368D02*
X020610Y020368D01*
X020610Y020486D02*
X018515Y020486D01*
X018633Y020605D02*
X020610Y020605D01*
X020610Y020723D02*
X020467Y020723D01*
X020546Y020842D02*
X020610Y020842D01*
X020610Y020960D02*
X020568Y020960D01*
X020546Y021079D02*
X020610Y021079D01*
X020800Y021040D02*
X021120Y021360D01*
X018640Y021360D01*
X016640Y019360D01*
X013440Y019360D01*
X013200Y019120D01*
X013200Y020080D01*
X013280Y020160D01*
X013280Y020880D01*
X013440Y021040D01*
X013440Y021920D01*
X014160Y022640D01*
X014160Y023134D01*
X014191Y023166D01*
X014350Y022690D02*
X015139Y022690D01*
X015112Y022625D01*
X015112Y022495D01*
X015162Y022374D01*
X015254Y022282D01*
X015375Y022232D01*
X015471Y022232D01*
X015475Y022228D01*
X015475Y021664D01*
X015539Y021600D01*
X015475Y021536D01*
X015475Y020916D01*
X015546Y020845D01*
X014944Y020845D01*
X014880Y020781D01*
X014816Y020845D01*
X014716Y020845D01*
X014716Y021001D01*
X014370Y021347D01*
X014370Y021602D01*
X014142Y021830D01*
X013818Y021830D01*
X013630Y021642D01*
X013630Y021841D01*
X014239Y022450D01*
X014350Y022561D01*
X014350Y022690D01*
X014350Y022619D02*
X015112Y022619D01*
X015112Y022501D02*
X014289Y022501D01*
X014171Y022382D02*
X015159Y022382D01*
X015298Y022264D02*
X014052Y022264D01*
X013934Y022145D02*
X015475Y022145D01*
X015475Y022027D02*
X013815Y022027D01*
X013697Y021908D02*
X015475Y021908D01*
X015475Y021790D02*
X015224Y021790D01*
X015154Y021860D02*
X015000Y021860D01*
X015000Y021460D01*
X015400Y021460D01*
X015400Y021614D01*
X015154Y021860D01*
X015000Y021790D02*
X014960Y021790D01*
X014960Y021860D02*
X014806Y021860D01*
X014560Y021614D01*
X014560Y021460D01*
X014960Y021460D01*
X014960Y021860D01*
X014960Y021671D02*
X015000Y021671D01*
X015000Y021553D02*
X014960Y021553D01*
X014960Y021460D02*
X015000Y021460D01*
X015000Y021420D01*
X015400Y021420D01*
X015400Y021266D01*
X015154Y021020D01*
X015000Y021020D01*
X015000Y021420D01*
X014960Y021420D01*
X014960Y021020D01*
X014806Y021020D01*
X014560Y021266D01*
X014560Y021420D01*
X014960Y021420D01*
X014960Y021460D01*
X014960Y021434D02*
X014370Y021434D01*
X014370Y021553D02*
X014560Y021553D01*
X014617Y021671D02*
X014300Y021671D01*
X014182Y021790D02*
X014736Y021790D01*
X015343Y021671D02*
X015475Y021671D01*
X015492Y021553D02*
X015400Y021553D01*
X015475Y021434D02*
X015000Y021434D01*
X015000Y021316D02*
X014960Y021316D01*
X014960Y021197D02*
X015000Y021197D01*
X015000Y021079D02*
X014960Y021079D01*
X014747Y021079D02*
X014638Y021079D01*
X014629Y021197D02*
X014520Y021197D01*
X014560Y021316D02*
X014401Y021316D01*
X013660Y021671D02*
X013630Y021671D01*
X013630Y021790D02*
X013778Y021790D01*
X013396Y022145D02*
X012130Y022145D01*
X012130Y022153D02*
X012247Y022270D01*
X013367Y022270D01*
X013490Y022393D01*
X013787Y022690D01*
X013941Y022690D01*
X013250Y021999D01*
X013250Y021119D01*
X013090Y020959D01*
X013090Y020434D01*
X013002Y020346D01*
X012952Y020225D01*
X012952Y020095D01*
X013002Y019974D01*
X013010Y019966D01*
X013010Y019041D01*
X013010Y018559D01*
X012884Y018433D01*
X012884Y020295D01*
X012910Y020321D01*
X012910Y020355D01*
X013004Y020355D01*
X013080Y020431D01*
X013080Y021169D01*
X013004Y021245D01*
X012988Y021245D01*
X013009Y021257D01*
X013039Y021286D01*
X013060Y021323D01*
X013071Y021364D01*
X013071Y021620D01*
X012715Y021620D01*
X012715Y021740D01*
X013071Y021740D01*
X013071Y021996D01*
X013060Y022037D01*
X013039Y022074D01*
X013009Y022103D01*
X012972Y022124D01*
X012932Y022135D01*
X012715Y022135D01*
X012715Y021740D01*
X012595Y021740D01*
X012595Y022135D01*
X012378Y022135D01*
X012337Y022124D01*
X012300Y022103D01*
X012299Y022102D01*
X012295Y022105D01*
X012130Y022105D01*
X012130Y022153D01*
X012241Y022264D02*
X013515Y022264D01*
X013479Y022382D02*
X013633Y022382D01*
X013598Y022501D02*
X013752Y022501D01*
X013716Y022619D02*
X013870Y022619D01*
X013193Y022690D02*
X013193Y022690D01*
X012002Y022619D02*
X010061Y022619D01*
X010061Y022501D02*
X011884Y022501D01*
X011765Y022382D02*
X010061Y022382D01*
X010061Y022264D02*
X011710Y022264D01*
X011710Y022145D02*
X009583Y022145D01*
X009687Y022027D02*
X011599Y022027D01*
X011599Y021908D02*
X009687Y021908D01*
X009687Y021790D02*
X011599Y021790D01*
X011599Y021671D02*
X009687Y021671D01*
X009687Y021553D02*
X011599Y021553D01*
X011599Y021434D02*
X009687Y021434D01*
X008435Y020368D02*
X007077Y020368D01*
X006958Y020486D02*
X007227Y020486D01*
X006336Y020605D02*
X005895Y020605D01*
X005895Y020486D02*
X006217Y020486D01*
X006099Y020368D02*
X005865Y020368D01*
X005865Y020249D02*
X006050Y020249D01*
X006050Y020131D02*
X005865Y020131D01*
X005865Y020012D02*
X006050Y020012D01*
X006050Y019894D02*
X005865Y019894D01*
X005865Y019775D02*
X006050Y019775D01*
X006075Y019657D02*
X005276Y019657D01*
X008377Y019420D02*
X008392Y019420D01*
X009325Y020012D02*
X012106Y020012D01*
X012010Y019894D02*
X012202Y019894D01*
X012884Y019894D02*
X013010Y019894D01*
X013010Y019775D02*
X012884Y019775D01*
X012884Y019657D02*
X013010Y019657D01*
X013010Y019538D02*
X012884Y019538D01*
X012884Y019420D02*
X013010Y019420D01*
X013010Y019301D02*
X012884Y019301D01*
X012884Y019183D02*
X013010Y019183D01*
X013010Y019064D02*
X012884Y019064D01*
X012884Y018946D02*
X013010Y018946D01*
X013010Y018827D02*
X012884Y018827D01*
X012884Y018709D02*
X013010Y018709D01*
X013010Y018590D02*
X012884Y018590D01*
X012884Y018472D02*
X012923Y018472D01*
X013200Y018480D02*
X013200Y019120D01*
X013413Y019064D02*
X016555Y019064D01*
X016437Y018946D02*
X013390Y018946D01*
X013390Y018827D02*
X016370Y018827D01*
X016370Y018709D02*
X013390Y018709D01*
X013390Y018590D02*
X016370Y018590D01*
X016370Y018472D02*
X013390Y018472D01*
X013342Y018353D02*
X016370Y018353D01*
X016370Y018235D02*
X013223Y018235D01*
X013105Y018116D02*
X016370Y018116D01*
X016370Y017998D02*
X012986Y017998D01*
X012868Y017879D02*
X016370Y017879D01*
X016370Y017761D02*
X012749Y017761D01*
X012643Y017642D02*
X012631Y017642D01*
X012590Y017601D02*
X012590Y017601D01*
X012400Y017680D02*
X013200Y018480D01*
X012443Y018472D02*
X011077Y018472D01*
X011196Y018353D02*
X012324Y018353D01*
X012206Y018235D02*
X011314Y018235D01*
X011433Y018116D02*
X012087Y018116D01*
X011969Y017998D02*
X011551Y017998D01*
X011670Y017879D02*
X011850Y017879D01*
X011810Y017761D02*
X011788Y017761D01*
X012400Y017680D02*
X012400Y015040D01*
X012987Y015154D02*
X013093Y015154D01*
X012590Y015865D02*
X013650Y015865D01*
X013650Y015983D02*
X012590Y015983D01*
X012590Y016102D02*
X013650Y016102D01*
X013650Y016220D02*
X013035Y016220D01*
X013008Y016211D02*
X013077Y016234D01*
X013141Y016267D01*
X013200Y016309D01*
X013251Y016360D01*
X013293Y016419D01*
X013326Y016483D01*
X013349Y016552D01*
X013360Y016624D01*
X013360Y016920D01*
X012940Y016920D01*
X012940Y016201D01*
X013008Y016211D01*
X012940Y016220D02*
X012860Y016220D01*
X012765Y016220D02*
X012590Y016220D01*
X012860Y016339D02*
X012940Y016339D01*
X012940Y016457D02*
X012860Y016457D01*
X012860Y016576D02*
X012940Y016576D01*
X012940Y016694D02*
X012860Y016694D01*
X012860Y016813D02*
X012940Y016813D01*
X012940Y016931D02*
X013470Y016931D01*
X013470Y016813D02*
X013360Y016813D01*
X013360Y016694D02*
X013470Y016694D01*
X013470Y016576D02*
X013352Y016576D01*
X013313Y016457D02*
X013519Y016457D01*
X013613Y016339D02*
X013229Y016339D01*
X013360Y017000D02*
X012940Y017000D01*
X012940Y017719D01*
X013008Y017709D01*
X013077Y017686D01*
X013141Y017653D01*
X013200Y017611D01*
X013251Y017560D01*
X013293Y017501D01*
X013326Y017437D01*
X013349Y017368D01*
X013360Y017296D01*
X013360Y017000D01*
X013360Y017050D02*
X013470Y017050D01*
X013470Y017168D02*
X013360Y017168D01*
X013360Y017287D02*
X013470Y017287D01*
X013495Y017405D02*
X013337Y017405D01*
X013277Y017524D02*
X013555Y017524D01*
X013699Y017642D02*
X013157Y017642D01*
X012940Y017642D02*
X012860Y017642D01*
X012860Y017524D02*
X012940Y017524D01*
X012940Y017405D02*
X012860Y017405D01*
X012860Y017287D02*
X012940Y017287D01*
X012940Y017168D02*
X012860Y017168D01*
X012860Y017050D02*
X012940Y017050D01*
X014101Y017642D02*
X014699Y017642D01*
X014555Y017524D02*
X014245Y017524D01*
X014305Y017405D02*
X014495Y017405D01*
X014470Y017287D02*
X014330Y017287D01*
X014330Y017168D02*
X014470Y017168D01*
X014470Y017050D02*
X014330Y017050D01*
X014330Y016931D02*
X014470Y016931D01*
X014470Y016813D02*
X014330Y016813D01*
X014330Y016694D02*
X014470Y016694D01*
X014470Y016576D02*
X014330Y016576D01*
X014281Y016457D02*
X014519Y016457D01*
X014613Y016339D02*
X014187Y016339D01*
X014150Y016220D02*
X014710Y016220D01*
X014750Y016102D02*
X014150Y016102D01*
X014150Y015983D02*
X014868Y015983D01*
X014875Y015865D02*
X014755Y015865D01*
X014755Y015746D02*
X014875Y015746D01*
X014875Y015628D02*
X014755Y015628D01*
X014755Y015509D02*
X014875Y015509D01*
X014463Y015865D02*
X014456Y015865D01*
X016330Y016576D02*
X016352Y016576D01*
X016370Y016694D02*
X016330Y016694D01*
X016330Y016813D02*
X016370Y016813D01*
X016370Y016931D02*
X016330Y016931D01*
X016330Y017050D02*
X016370Y017050D01*
X016370Y017168D02*
X016330Y017168D01*
X016330Y017287D02*
X016370Y017287D01*
X016370Y017405D02*
X016305Y017405D01*
X016245Y017524D02*
X016370Y017524D01*
X016370Y017642D02*
X016101Y017642D01*
X015699Y017642D02*
X015101Y017642D01*
X015245Y017524D02*
X015555Y017524D01*
X015495Y017405D02*
X015305Y017405D01*
X015330Y017287D02*
X015470Y017287D01*
X015470Y017168D02*
X015330Y017168D01*
X015330Y017050D02*
X015470Y017050D01*
X016768Y016576D02*
X017747Y016576D01*
X017628Y016457D02*
X016858Y016457D01*
X016888Y016339D02*
X017510Y016339D01*
X017391Y016220D02*
X016874Y016220D01*
X016806Y016102D02*
X017273Y016102D01*
X018000Y016160D02*
X021680Y016160D01*
X021707Y015865D02*
X017973Y015865D01*
X017855Y015746D02*
X021825Y015746D01*
X021944Y015628D02*
X017736Y015628D01*
X017618Y015509D02*
X022033Y015509D01*
X021990Y015391D02*
X019313Y015391D01*
X019412Y015272D02*
X021990Y015272D01*
X019120Y015120D02*
X017840Y015120D01*
X017723Y015272D02*
X017381Y015272D01*
X017499Y015391D02*
X018927Y015391D01*
X017605Y015154D02*
X017262Y015154D01*
X017150Y015035D02*
X017490Y015035D01*
X017490Y014917D02*
X017227Y014917D01*
X017283Y014798D02*
X017309Y014798D01*
X017300Y014680D02*
X017288Y014680D01*
X016960Y014720D02*
X016960Y015120D01*
X018000Y016160D01*
X016560Y016320D02*
X016560Y018800D01*
X018720Y020960D01*
X020240Y020960D01*
X020013Y020723D02*
X018752Y020723D01*
X017971Y020960D02*
X017741Y020960D01*
X017741Y020917D02*
X017741Y021364D01*
X017767Y021390D01*
X017890Y021513D01*
X017890Y022690D01*
X020259Y022690D01*
X020232Y022625D01*
X020232Y022495D01*
X020282Y022374D01*
X020374Y022282D01*
X020495Y022232D01*
X020625Y022232D01*
X020746Y022282D01*
X020814Y022350D01*
X020995Y022350D01*
X020995Y022304D01*
X021059Y022240D01*
X020995Y022176D01*
X020995Y022056D01*
X020383Y022056D01*
X020305Y022088D01*
X020175Y022088D01*
X020054Y022038D01*
X019962Y021946D01*
X019912Y021825D01*
X019912Y021695D01*
X019962Y021574D01*
X019986Y021550D01*
X018561Y021550D01*
X017624Y020613D01*
X017624Y020701D01*
X017624Y020841D01*
X017665Y020841D01*
X017741Y020917D01*
X017665Y020842D02*
X017853Y020842D01*
X017734Y020723D02*
X017624Y020723D01*
X017741Y021079D02*
X018090Y021079D01*
X018208Y021197D02*
X017741Y021197D01*
X017741Y021316D02*
X018327Y021316D01*
X018445Y021434D02*
X017811Y021434D01*
X017890Y021553D02*
X019983Y021553D01*
X019922Y021671D02*
X017890Y021671D01*
X017890Y021790D02*
X019912Y021790D01*
X019946Y021908D02*
X017890Y021908D01*
X017890Y022027D02*
X020043Y022027D01*
X020240Y021760D02*
X020346Y021866D01*
X021440Y021866D01*
X022266Y021866D01*
X022400Y022000D01*
X022160Y021600D02*
X021920Y021360D01*
X021120Y021360D01*
X021107Y021079D02*
X021820Y021079D01*
X021736Y020960D02*
X020990Y020960D01*
X020990Y020842D02*
X021736Y020842D01*
X021736Y020723D02*
X020990Y020723D01*
X020990Y020605D02*
X021804Y020605D01*
X021922Y020486D02*
X020990Y020486D01*
X020990Y020368D02*
X021950Y020368D01*
X021950Y020249D02*
X020990Y020249D01*
X020990Y020131D02*
X021950Y020131D01*
X021950Y020012D02*
X020990Y020012D01*
X020990Y019894D02*
X021950Y019894D01*
X021950Y019775D02*
X020990Y019775D01*
X020990Y019657D02*
X021950Y019657D01*
X021950Y019538D02*
X020990Y019538D01*
X020990Y019420D02*
X021950Y019420D01*
X021715Y019301D02*
X020990Y019301D01*
X020990Y019183D02*
X021715Y019183D01*
X021715Y019064D02*
X020990Y019064D01*
X020990Y018946D02*
X021715Y018946D01*
X021715Y018827D02*
X020990Y018827D01*
X020990Y018709D02*
X021715Y018709D01*
X021729Y018590D02*
X020990Y018590D01*
X020990Y018472D02*
X021715Y018472D01*
X021715Y018353D02*
X020990Y018353D01*
X020990Y018235D02*
X021715Y018235D01*
X021715Y018116D02*
X020990Y018116D01*
X021026Y017998D02*
X021715Y017998D01*
X022605Y017998D02*
X022665Y017998D01*
X023022Y018235D02*
X023061Y018235D01*
X023047Y018210D02*
X022850Y018407D01*
X022727Y018530D01*
X022605Y018530D01*
X022605Y018576D01*
X022541Y018640D01*
X022605Y018704D01*
X022605Y019324D01*
X022529Y019400D01*
X022370Y019400D01*
X022370Y020526D01*
X022516Y020672D01*
X022516Y020995D01*
X022288Y021224D01*
X022052Y021224D01*
X022110Y021281D01*
X022239Y021410D01*
X023439Y021410D01*
X023550Y021521D01*
X023734Y021705D01*
X023975Y021464D01*
X023643Y021131D01*
X023605Y021039D01*
X023605Y020869D01*
X023562Y020826D01*
X023512Y020705D01*
X023512Y020575D01*
X023562Y020454D01*
X023605Y020411D01*
X023605Y019625D01*
X023545Y019625D01*
X023541Y019622D01*
X023540Y019623D01*
X023503Y019644D01*
X023462Y019655D01*
X023245Y019655D01*
X023245Y019260D01*
X023125Y019260D01*
X023125Y019140D01*
X022769Y019140D01*
X022769Y018884D01*
X022780Y018843D01*
X022801Y018806D01*
X022831Y018777D01*
X022868Y018756D01*
X022908Y018745D01*
X023081Y018745D01*
X023002Y018666D01*
X022952Y018545D01*
X022952Y018415D01*
X023002Y018294D01*
X023086Y018210D01*
X023047Y018210D01*
X022977Y018353D02*
X022904Y018353D01*
X022952Y018472D02*
X022785Y018472D01*
X022970Y018590D02*
X022591Y018590D01*
X022605Y018709D02*
X023045Y018709D01*
X022790Y018827D02*
X022605Y018827D01*
X022605Y018946D02*
X022769Y018946D01*
X022769Y019064D02*
X022605Y019064D01*
X022605Y019183D02*
X023125Y019183D01*
X023125Y019260D02*
X022769Y019260D01*
X022769Y019516D01*
X022780Y019557D01*
X022801Y019594D01*
X022831Y019623D01*
X022868Y019644D01*
X022908Y019655D01*
X023125Y019655D01*
X023125Y019260D01*
X023125Y019301D02*
X023245Y019301D01*
X023245Y019420D02*
X023125Y019420D01*
X023125Y019538D02*
X023245Y019538D01*
X023076Y019775D02*
X023605Y019775D01*
X023605Y019657D02*
X022370Y019657D01*
X022370Y019775D02*
X022591Y019775D01*
X022551Y019815D02*
X022660Y019706D01*
X023008Y019706D01*
X023116Y019815D01*
X022834Y020098D01*
X022862Y020126D01*
X023145Y019844D01*
X023254Y019952D01*
X023254Y020300D01*
X023145Y020409D01*
X022862Y020126D01*
X022834Y020155D01*
X023116Y020438D01*
X023008Y020546D01*
X022660Y020546D01*
X022551Y020438D01*
X022834Y020155D01*
X022805Y020126D01*
X022834Y020098D01*
X022551Y019815D01*
X022522Y019844D02*
X022805Y020126D01*
X022522Y020409D01*
X022414Y020300D01*
X022414Y019952D01*
X022522Y019844D01*
X022472Y019894D02*
X022370Y019894D01*
X022370Y020012D02*
X022414Y020012D01*
X022414Y020131D02*
X022370Y020131D01*
X022370Y020249D02*
X022414Y020249D01*
X022370Y020368D02*
X022481Y020368D01*
X022564Y020368D02*
X022621Y020368D01*
X022599Y020486D02*
X022370Y020486D01*
X022449Y020605D02*
X023512Y020605D01*
X023519Y020723D02*
X022516Y020723D01*
X022516Y020842D02*
X023578Y020842D01*
X023605Y020960D02*
X022516Y020960D01*
X022433Y021079D02*
X023621Y021079D01*
X023709Y021197D02*
X022314Y021197D01*
X022144Y021316D02*
X023827Y021316D01*
X023946Y021434D02*
X023463Y021434D01*
X023581Y021553D02*
X023886Y021553D01*
X023768Y021671D02*
X023700Y021671D01*
X023360Y021600D02*
X022160Y021600D01*
X023360Y021600D02*
X023897Y022137D01*
X023922Y022137D01*
X021036Y022264D02*
X020702Y022264D01*
X020418Y022264D02*
X017890Y022264D01*
X017890Y022382D02*
X020279Y022382D01*
X020232Y022501D02*
X017890Y022501D01*
X017890Y022619D02*
X020232Y022619D01*
X020995Y022145D02*
X017890Y022145D01*
X015475Y021316D02*
X015400Y021316D01*
X015331Y021197D02*
X015475Y021197D01*
X015475Y021079D02*
X015213Y021079D01*
X015475Y020960D02*
X014716Y020960D01*
X014819Y020842D02*
X014941Y020842D01*
X013250Y021197D02*
X013052Y021197D01*
X013055Y021316D02*
X013250Y021316D01*
X013250Y021434D02*
X013071Y021434D01*
X013071Y021553D02*
X013250Y021553D01*
X013250Y021671D02*
X012715Y021671D01*
X012715Y021790D02*
X012595Y021790D01*
X012595Y021908D02*
X012715Y021908D01*
X012715Y022027D02*
X012595Y022027D01*
X013062Y022027D02*
X013278Y022027D01*
X013250Y021908D02*
X013071Y021908D01*
X013071Y021790D02*
X013250Y021790D01*
X013210Y021079D02*
X013080Y021079D01*
X013080Y020960D02*
X013091Y020960D01*
X013080Y020842D02*
X013090Y020842D01*
X013080Y020723D02*
X013090Y020723D01*
X013080Y020605D02*
X013090Y020605D01*
X013080Y020486D02*
X013090Y020486D01*
X013024Y020368D02*
X013016Y020368D01*
X012962Y020249D02*
X012884Y020249D01*
X012884Y020131D02*
X012952Y020131D01*
X012986Y020012D02*
X012884Y020012D01*
X011624Y020368D02*
X011392Y020368D01*
X011445Y020486D02*
X011560Y020486D01*
X020800Y021040D02*
X020800Y017760D01*
X023153Y017761D02*
X023542Y017761D01*
X023661Y017642D02*
X023349Y017642D01*
X023433Y017524D02*
X023779Y017524D01*
X024567Y017524D02*
X024770Y017524D01*
X024770Y017642D02*
X024567Y017642D01*
X024567Y017761D02*
X024770Y017761D01*
X024770Y017879D02*
X024567Y017879D01*
X024546Y017998D02*
X024770Y017998D01*
X024355Y018116D02*
X024125Y018116D01*
X024193Y018235D02*
X024287Y018235D01*
X024287Y018353D02*
X024193Y018353D01*
X024193Y018472D02*
X024287Y018472D01*
X024287Y018590D02*
X024193Y018590D01*
X024193Y018709D02*
X024287Y018709D01*
X024287Y018827D02*
X024217Y018827D01*
X022769Y019301D02*
X022605Y019301D01*
X022769Y019420D02*
X022370Y019420D01*
X022370Y019538D02*
X022775Y019538D01*
X022629Y019894D02*
X022572Y019894D01*
X022691Y020012D02*
X022747Y020012D01*
X022801Y020131D02*
X022809Y020131D01*
X022858Y020131D02*
X022866Y020131D01*
X022920Y020012D02*
X022976Y020012D01*
X023038Y019894D02*
X023095Y019894D01*
X023195Y019894D02*
X023605Y019894D01*
X023605Y020012D02*
X023254Y020012D01*
X023254Y020131D02*
X023605Y020131D01*
X023605Y020249D02*
X023254Y020249D01*
X023186Y020368D02*
X023605Y020368D01*
X023549Y020486D02*
X023068Y020486D01*
X023046Y020368D02*
X023103Y020368D01*
X022984Y020249D02*
X022928Y020249D01*
X022739Y020249D02*
X022683Y020249D01*
X023899Y017998D02*
X023934Y017998D01*
X024567Y017405D02*
X024770Y017405D01*
X024770Y017287D02*
X024536Y017287D01*
X016770Y015035D02*
X016744Y015035D01*
X016693Y014917D02*
X016625Y014917D01*
X016637Y014798D02*
X016510Y014798D01*
X016510Y014680D02*
X016632Y014680D01*
X016671Y014561D02*
X016543Y014561D01*
X016624Y014443D02*
X016773Y014443D01*
X016320Y014320D02*
X016320Y014880D01*
X015810Y014561D02*
X015240Y014561D01*
X015240Y014443D02*
X015810Y014443D01*
X015810Y014324D02*
X015240Y014324D01*
X015174Y014206D02*
X015810Y014206D01*
X014530Y014206D02*
X014426Y014206D01*
X013786Y014206D02*
X013448Y014206D01*
X017686Y013600D02*
X017715Y013571D01*
X017715Y012835D01*
X014245Y011954D02*
X014030Y011954D01*
X024240Y013680D02*
X024511Y013409D01*
X025246Y013409D01*
D33*
X022320Y010080D02*
X021760Y010640D01*
X021200Y010640D01*
X022320Y010080D02*
X022960Y010080D01*
X023360Y009680D01*
X023760Y009680D01*
X023825Y009615D01*
X024640Y009615D01*
X024720Y009535D01*
X024118Y009355D02*
X024085Y009355D01*
X023825Y009615D01*
X023402Y009355D02*
X023205Y009355D01*
X022800Y009760D01*
X021920Y009760D01*
X021680Y010000D01*
X021680Y009440D02*
X022880Y009440D01*
X023123Y009197D01*
X023402Y009197D01*
X023402Y009040D02*
X022865Y009040D01*
X022720Y008895D01*
X023402Y009040D02*
X023680Y009040D01*
X023837Y008883D01*
X024118Y008883D01*
X024118Y008725D02*
X024118Y007864D01*
X024095Y007840D01*
X023425Y007840D02*
X023425Y007985D01*
X023185Y008225D01*
X023543Y008583D01*
X023402Y008725D01*
X023543Y008583D02*
X023680Y008447D01*
X023680Y008400D01*
X023185Y008225D02*
X022720Y008225D01*
X024545Y009040D02*
X024720Y008865D01*
X024545Y009040D02*
X024480Y009040D01*
X024323Y009197D01*
X024118Y009197D01*
X017120Y009840D02*
X017040Y009760D01*
X017040Y009520D01*
X016560Y009040D01*
X016480Y009040D01*
X006800Y008640D02*
X006800Y007760D01*
X006480Y007520D02*
X006240Y007280D01*
X006480Y007520D02*
X006480Y008640D01*
X006395Y008725D01*
X006038Y008725D01*
X006038Y008883D02*
X006557Y008883D01*
X006800Y008640D01*
X005920Y008400D02*
X005920Y008175D01*
X006095Y008000D01*
X005425Y008000D02*
X005322Y008104D01*
X005322Y008725D01*
X004740Y008725D01*
X004720Y008705D01*
X005322Y008883D02*
X005597Y008883D01*
X005680Y008800D01*
X005680Y008640D01*
X005920Y008400D01*
X005840Y009040D02*
X005600Y009280D01*
X005600Y009745D01*
X005425Y009920D01*
X006038Y009864D02*
X006095Y009920D01*
X006038Y009864D02*
X006038Y009355D01*
X006038Y009040D02*
X005840Y009040D01*
X005600Y009280D02*
X005517Y009197D01*
X005322Y009197D01*
X005322Y009355D02*
X004740Y009355D01*
X004720Y009375D01*
M02*
