G75*
%MOIN*%
%OFA0B0*%
%FSLAX24Y24*%
%IPPOS*%
%LPD*%
%AMOC8*
5,1,8,0,0,1.08239X$1,22.5*
%
%ADD10OC8,0.0600*%
%ADD11R,0.0283X0.0236*%
%ADD12C,0.0600*%
%ADD13OC8,0.0520*%
%ADD14R,0.0236X0.0283*%
%ADD15C,0.0104*%
%ADD16C,0.0396*%
%ADD17C,0.0160*%
%ADD18C,0.0240*%
%ADD19C,0.0100*%
%ADD20C,0.0120*%
D10*
X020180Y004300D03*
X021180Y004300D03*
X022180Y004300D03*
X023180Y004300D03*
X023180Y005300D03*
X022180Y005300D03*
X021180Y005300D03*
X020180Y005300D03*
D11*
X015391Y003474D03*
X015009Y003474D03*
X014627Y003474D03*
X014245Y003474D03*
X014191Y023166D03*
X013809Y023166D03*
X014573Y023166D03*
X014955Y023166D03*
D12*
X022420Y017320D02*
X023020Y017320D01*
X023020Y016320D02*
X022420Y016320D01*
X022420Y015320D02*
X023020Y015320D01*
X015900Y016660D02*
X015900Y017260D01*
X014900Y017260D02*
X014900Y016660D01*
X013900Y016660D02*
X013900Y017260D01*
X012900Y017260D02*
X012900Y016660D01*
D13*
X006800Y013700D03*
X006800Y012700D03*
X022880Y012620D03*
X022880Y013620D03*
X015380Y005840D03*
X014380Y005840D03*
X013980Y021440D03*
X014980Y021440D03*
D14*
G36*
X023469Y022423D02*
X023636Y022590D01*
X023835Y022391D01*
X023668Y022224D01*
X023469Y022423D01*
G37*
G36*
X023739Y022153D02*
X023906Y022320D01*
X024105Y022121D01*
X023938Y021954D01*
X023739Y022153D01*
G37*
G36*
X024009Y021883D02*
X024176Y022050D01*
X024375Y021851D01*
X024208Y021684D01*
X024009Y021883D01*
G37*
G36*
X024279Y021613D02*
X024446Y021780D01*
X024645Y021581D01*
X024478Y021414D01*
X024279Y021613D01*
G37*
G36*
X005827Y022119D02*
X005660Y022286D01*
X005859Y022485D01*
X006026Y022318D01*
X005827Y022119D01*
G37*
G36*
X005557Y021849D02*
X005390Y022016D01*
X005589Y022215D01*
X005756Y022048D01*
X005557Y021849D01*
G37*
G36*
X005287Y021579D02*
X005120Y021746D01*
X005319Y021945D01*
X005486Y021778D01*
X005287Y021579D01*
G37*
G36*
X005017Y021309D02*
X004850Y021476D01*
X005049Y021675D01*
X005216Y021508D01*
X005017Y021309D01*
G37*
X004354Y013835D03*
X004354Y013453D03*
X004354Y013071D03*
X004354Y012689D03*
X025246Y012645D03*
X025246Y013027D03*
X025246Y013409D03*
X025246Y013791D03*
D15*
X022868Y019971D02*
X022920Y019919D01*
X022748Y019919D01*
X022627Y020040D01*
X022627Y020212D01*
X022748Y020333D01*
X022920Y020333D01*
X023041Y020212D01*
X023041Y020040D01*
X022920Y019919D01*
X022888Y019997D01*
X022780Y019997D01*
X022705Y020072D01*
X022705Y020180D01*
X022780Y020255D01*
X022888Y020255D01*
X022963Y020180D01*
X022963Y020072D01*
X022888Y019997D01*
X022855Y020075D01*
X022813Y020075D01*
X022783Y020105D01*
X022783Y020147D01*
X022813Y020177D01*
X022855Y020177D01*
X022885Y020147D01*
X022885Y020105D01*
X022855Y020075D01*
X022160Y020679D02*
X022212Y020627D01*
X022040Y020627D01*
X021919Y020748D01*
X021919Y020920D01*
X022040Y021041D01*
X022212Y021041D01*
X022333Y020920D01*
X022333Y020748D01*
X022212Y020627D01*
X022180Y020705D01*
X022072Y020705D01*
X021997Y020780D01*
X021997Y020888D01*
X022072Y020963D01*
X022180Y020963D01*
X022255Y020888D01*
X022255Y020780D01*
X022180Y020705D01*
X022147Y020783D01*
X022105Y020783D01*
X022075Y020813D01*
X022075Y020855D01*
X022105Y020885D01*
X022147Y020885D01*
X022177Y020855D01*
X022177Y020813D01*
X022147Y020783D01*
X007629Y020868D02*
X007681Y020920D01*
X007681Y020748D01*
X007560Y020627D01*
X007388Y020627D01*
X007267Y020748D01*
X007267Y020920D01*
X007388Y021041D01*
X007560Y021041D01*
X007681Y020920D01*
X007603Y020888D01*
X007603Y020780D01*
X007528Y020705D01*
X007420Y020705D01*
X007345Y020780D01*
X007345Y020888D01*
X007420Y020963D01*
X007528Y020963D01*
X007603Y020888D01*
X007525Y020855D01*
X007525Y020813D01*
X007495Y020783D01*
X007453Y020783D01*
X007423Y020813D01*
X007423Y020855D01*
X007453Y020885D01*
X007495Y020885D01*
X007525Y020855D01*
X006921Y020160D02*
X006973Y020212D01*
X006973Y020040D01*
X006852Y019919D01*
X006680Y019919D01*
X006559Y020040D01*
X006559Y020212D01*
X006680Y020333D01*
X006852Y020333D01*
X006973Y020212D01*
X006895Y020180D01*
X006895Y020072D01*
X006820Y019997D01*
X006712Y019997D01*
X006637Y020072D01*
X006637Y020180D01*
X006712Y020255D01*
X006820Y020255D01*
X006895Y020180D01*
X006817Y020147D01*
X006817Y020105D01*
X006787Y020075D01*
X006745Y020075D01*
X006715Y020105D01*
X006715Y020147D01*
X006745Y020177D01*
X006787Y020177D01*
X006817Y020147D01*
D16*
X006000Y020720D03*
X006880Y022000D03*
X007760Y022560D03*
X013120Y021360D03*
X011120Y020560D03*
X010160Y020720D03*
X012400Y020160D03*
X011760Y019680D03*
X013280Y020160D03*
X014160Y019760D03*
X015120Y018800D03*
X018240Y019440D03*
X021280Y019520D03*
X023280Y018480D03*
X020800Y017760D03*
X018560Y017600D03*
X016560Y016320D03*
X019120Y015120D03*
X020640Y015520D03*
X022080Y014480D03*
X024240Y013680D03*
X023760Y013440D03*
X023840Y012400D03*
X022160Y011600D03*
X020240Y011360D03*
X020160Y010800D03*
X020880Y010400D03*
X021680Y010000D03*
X021680Y009440D03*
X020960Y008880D03*
X022160Y008640D03*
X023680Y008400D03*
X022320Y007360D03*
X020640Y006320D03*
X018960Y006320D03*
X017280Y005440D03*
X019040Y004800D03*
X016560Y004240D03*
X015520Y004240D03*
X014080Y004640D03*
X013280Y004080D03*
X015760Y006480D03*
X016720Y007920D03*
X014960Y008240D03*
X013680Y008000D03*
X013600Y008480D03*
X012480Y008800D03*
X011760Y010240D03*
X012160Y010880D03*
X013440Y010800D03*
X013840Y011680D03*
X011360Y012320D03*
X010240Y012160D03*
X008000Y013440D03*
X005680Y013520D03*
X005280Y013040D03*
X005440Y012400D03*
X005120Y010800D03*
X006880Y009920D03*
X008160Y010240D03*
X004880Y008160D03*
X006800Y007760D03*
X006240Y007280D03*
X008240Y007120D03*
X006640Y004720D03*
X016480Y009040D03*
X016480Y009680D03*
X017120Y009840D03*
X017920Y010240D03*
X017040Y010560D03*
X017840Y012240D03*
X016800Y012400D03*
X017920Y012880D03*
X016720Y013040D03*
X016320Y013360D03*
X014080Y013440D03*
X014000Y012640D03*
X016320Y014320D03*
X016960Y014720D03*
X015600Y014720D03*
X012720Y015360D03*
X011120Y015840D03*
X010960Y014720D03*
X010240Y014320D03*
X007040Y015920D03*
X005440Y015840D03*
X004960Y017440D03*
X007280Y017680D03*
X007680Y018320D03*
X008080Y019280D03*
X006400Y019040D03*
X009840Y018880D03*
X010960Y017680D03*
X020240Y020960D03*
X020240Y021760D03*
X018800Y022320D03*
X020560Y022560D03*
X022400Y022000D03*
X023840Y020640D03*
X024480Y020720D03*
X015440Y022560D03*
X024320Y015440D03*
X020480Y013360D03*
X019760Y013360D03*
X019040Y013440D03*
X024080Y011360D03*
X024800Y010880D03*
X023760Y009680D03*
X024320Y005040D03*
D17*
X020640Y006320D02*
X020240Y005920D01*
X019440Y005920D01*
X018560Y005040D01*
X014627Y005040D01*
X014380Y005287D01*
X014380Y005840D01*
X015380Y005840D02*
X015380Y007100D01*
X015200Y007280D01*
X014400Y007280D01*
X013680Y008000D01*
X006880Y009920D02*
X006480Y009520D01*
X006480Y009200D01*
X005440Y008160D01*
X004880Y008160D01*
X014080Y004640D02*
X016160Y004640D01*
X016560Y004240D01*
X015520Y004240D02*
X015391Y004111D01*
X015391Y003474D01*
X023360Y009920D02*
X023520Y010080D01*
X023520Y011120D01*
X023760Y011360D01*
X024080Y011360D01*
X019040Y013440D02*
X018960Y013360D01*
X018560Y013360D01*
X018320Y013120D01*
X018320Y012640D01*
X012960Y019120D02*
X013600Y019760D01*
X014160Y019760D01*
X011120Y019760D02*
X010960Y019600D01*
X011120Y019760D02*
X011120Y020560D01*
X013120Y021360D02*
X013200Y021440D01*
X013200Y021760D01*
X013440Y022000D01*
X014420Y022000D01*
X014980Y021440D01*
X015440Y022560D02*
X015440Y022681D01*
X014955Y023166D01*
X014573Y023166D01*
X020560Y022560D02*
X020880Y022240D01*
X020880Y021600D01*
X021040Y021440D01*
X022720Y021440D01*
X023520Y020640D01*
X023840Y020640D01*
X024480Y020720D02*
X024480Y021579D01*
X024462Y021597D01*
X024192Y021867D01*
X008080Y022240D02*
X008080Y019280D01*
X006400Y019040D02*
X005920Y019040D01*
X005033Y019927D01*
X005033Y021492D01*
X005573Y022032D02*
X005843Y022302D01*
X006145Y022000D01*
X006880Y022000D01*
X007760Y022560D02*
X008080Y022240D01*
X007474Y020834D02*
X007360Y020720D01*
X006000Y020720D01*
D18*
X007280Y020640D02*
X007280Y019440D01*
X007840Y018880D01*
X010960Y018880D01*
X012240Y017600D01*
X012080Y017440D01*
X008560Y017440D01*
X007040Y015920D01*
X006160Y015840D02*
X007200Y014800D01*
X007760Y014800D01*
X008720Y013840D01*
X008720Y010800D01*
X008320Y010400D01*
X007920Y010800D01*
X005120Y010800D01*
X006880Y009920D02*
X007360Y009920D01*
X007680Y009600D01*
X008640Y009600D01*
X009280Y010240D01*
X009280Y015600D01*
X010640Y016960D01*
X012000Y016960D01*
X012450Y017410D01*
X012900Y016960D01*
X013900Y016960D02*
X013920Y016980D01*
X013920Y018240D01*
X014000Y018160D01*
X014080Y018240D01*
X015440Y018240D01*
X015480Y018280D01*
X015680Y018080D01*
X016560Y018080D01*
X018320Y016320D01*
X018320Y012640D01*
X018400Y012560D01*
X018400Y011920D01*
X018320Y011840D01*
X018320Y011760D01*
X021360Y011760D01*
X022080Y011040D01*
X023760Y011040D01*
X024080Y011360D01*
X022320Y011760D02*
X022160Y011600D01*
X022320Y011760D02*
X022320Y013440D01*
X022500Y013620D01*
X022880Y013620D01*
X023760Y013440D02*
X022940Y012620D01*
X022880Y012620D01*
X018320Y011760D02*
X018320Y010640D01*
X017920Y010240D01*
X008320Y010400D02*
X008160Y010240D01*
X019040Y004800D02*
X020880Y004800D01*
X021120Y004560D01*
X021120Y004360D01*
X021180Y004300D01*
X024320Y015440D02*
X024320Y017040D01*
X022880Y018480D01*
X015680Y018480D01*
X015480Y018280D01*
X015120Y018800D02*
X015120Y019040D01*
X021200Y019040D01*
X021280Y019120D01*
X021280Y019520D01*
X021200Y019040D02*
X022480Y019040D01*
X022834Y019394D01*
X022834Y020126D01*
X022880Y018480D02*
X023280Y018480D01*
X015120Y019040D02*
X015120Y019840D01*
X014160Y020800D01*
X013680Y020800D01*
X013120Y021360D01*
X010960Y019600D02*
X008400Y019600D01*
X008080Y019280D01*
X010960Y019600D02*
X011440Y019120D01*
X012960Y019120D01*
X013120Y019120D01*
X013920Y018320D01*
X013920Y018240D01*
X012450Y017410D02*
X012260Y017600D01*
X012240Y017600D01*
X006160Y015840D02*
X005440Y015840D01*
X007280Y020640D02*
X007474Y020834D01*
D19*
X018640Y009920D02*
X018720Y010000D01*
X021680Y010000D01*
X021680Y009440D02*
X019840Y009440D01*
X022800Y009360D02*
X023360Y009920D01*
X023760Y009680D02*
X023760Y008480D01*
X023680Y008400D01*
X016480Y009040D02*
X016080Y009440D01*
X011520Y009440D01*
X009600Y007520D01*
X007120Y007520D01*
X006880Y007280D01*
X006240Y007280D01*
X006800Y007760D02*
X009520Y007760D01*
X011440Y009680D01*
X016480Y009680D01*
D20*
X005510Y003960D02*
X005307Y004021D01*
X005127Y004132D01*
X004982Y004286D01*
X004882Y004473D01*
X004833Y004679D01*
X004830Y004778D01*
X004830Y004792D01*
X004833Y004886D01*
X004830Y004893D01*
X004830Y010643D01*
X004842Y010614D01*
X004934Y010522D01*
X005055Y010472D01*
X005185Y010472D01*
X005306Y010522D01*
X005334Y010550D01*
X007816Y010550D01*
X007911Y010455D01*
X007882Y010426D01*
X007832Y010305D01*
X007832Y010175D01*
X007882Y010054D01*
X007974Y009962D01*
X008095Y009912D01*
X008225Y009912D01*
X008346Y009962D01*
X008438Y010054D01*
X008488Y010175D01*
X008488Y010215D01*
X008532Y010258D01*
X008532Y010258D01*
X008532Y010258D01*
X008488Y010215D01*
X008488Y010175D01*
X008438Y010054D01*
X008346Y009962D01*
X008225Y009912D01*
X008095Y009912D01*
X007974Y009962D01*
X007882Y010054D01*
X007832Y010175D01*
X007832Y010305D01*
X007882Y010426D01*
X007911Y010455D01*
X007816Y010550D01*
X005334Y010550D01*
X005306Y010522D01*
X005185Y010472D01*
X005055Y010472D01*
X004934Y010522D01*
X004842Y010614D01*
X004830Y010643D01*
X004830Y004893D01*
X004833Y004886D01*
X004830Y004792D01*
X004830Y004778D01*
X004833Y004679D01*
X004882Y004473D01*
X004982Y004286D01*
X005127Y004132D01*
X005307Y004021D01*
X005510Y003960D01*
X005613Y003950D01*
X012979Y003950D01*
X012952Y004015D01*
X012952Y004145D01*
X013002Y004266D01*
X013094Y004358D01*
X013215Y004408D01*
X013345Y004408D01*
X013466Y004358D01*
X013554Y004270D01*
X013718Y004270D01*
X014038Y003950D01*
X015181Y003950D01*
X015181Y004198D01*
X015192Y004209D01*
X015192Y004305D01*
X015242Y004426D01*
X015246Y004430D01*
X014334Y004430D01*
X014266Y004362D01*
X014145Y004312D01*
X014015Y004312D01*
X013894Y004362D01*
X013802Y004454D01*
X013752Y004575D01*
X013752Y004705D01*
X013802Y004826D01*
X013894Y004918D01*
X014015Y004968D01*
X014145Y004968D01*
X014266Y004918D01*
X014334Y004850D01*
X016247Y004850D01*
X016529Y004568D01*
X016625Y004568D01*
X016746Y004518D01*
X016838Y004426D01*
X016888Y004305D01*
X016888Y004175D01*
X016838Y004054D01*
X016746Y003962D01*
X016717Y003950D01*
X019879Y003950D01*
X019720Y004109D01*
X019720Y004260D01*
X020140Y004260D01*
X020140Y004340D01*
X019720Y004340D01*
X019720Y004491D01*
X019779Y004550D01*
X019254Y004550D01*
X019226Y004522D01*
X019105Y004472D01*
X018975Y004472D01*
X018854Y004522D01*
X018762Y004614D01*
X018712Y004735D01*
X018712Y004865D01*
X018762Y004986D01*
X018854Y005078D01*
X018975Y005128D01*
X019105Y005128D01*
X019226Y005078D01*
X019254Y005050D01*
X019822Y005050D01*
X019750Y005122D01*
X019750Y005478D01*
X020002Y005730D01*
X020358Y005730D01*
X020610Y005478D01*
X020610Y005122D01*
X020538Y005050D01*
X020822Y005050D01*
X020750Y005122D01*
X020750Y005478D01*
X021002Y005730D01*
X021358Y005730D01*
X021490Y005598D01*
X021490Y005601D01*
X021410Y005681D01*
X021410Y008959D01*
X021521Y009070D01*
X021578Y009127D01*
X021494Y009162D01*
X021402Y009254D01*
X021399Y009260D01*
X020009Y009260D01*
X019999Y009250D01*
X019199Y009250D01*
X018910Y008961D01*
X018799Y008850D01*
X017041Y008850D01*
X016808Y009083D01*
X016808Y008975D01*
X016758Y008854D01*
X016666Y008762D01*
X016545Y008712D01*
X016415Y008712D01*
X016294Y008762D01*
X016202Y008854D01*
X016152Y008975D01*
X016152Y009105D01*
X016154Y009111D01*
X016005Y009260D01*
X011595Y009260D01*
X009675Y007340D01*
X007195Y007340D01*
X006955Y007100D01*
X006521Y007100D01*
X006518Y007094D01*
X006426Y007002D01*
X006305Y006952D01*
X006175Y006952D01*
X006054Y007002D01*
X005962Y007094D01*
X005912Y007215D01*
X005912Y007345D01*
X005962Y007466D01*
X006054Y007558D01*
X006175Y007608D01*
X006305Y007608D01*
X006426Y007558D01*
X006518Y007466D01*
X006521Y007460D01*
X006667Y007460D01*
X006614Y007482D01*
X006522Y007574D01*
X006472Y007695D01*
X006472Y007825D01*
X006522Y007946D01*
X006614Y008038D01*
X006735Y008088D01*
X006865Y008088D01*
X006986Y008038D01*
X007078Y007946D01*
X007081Y007940D01*
X009445Y007940D01*
X011260Y009755D01*
X011365Y009860D01*
X016199Y009860D01*
X016202Y009866D01*
X016294Y009958D01*
X016415Y010008D01*
X016545Y010008D01*
X016666Y009958D01*
X016758Y009866D01*
X016792Y009784D01*
X016792Y009905D01*
X016842Y010026D01*
X016934Y010118D01*
X017055Y010168D01*
X017163Y010168D01*
X017099Y010232D01*
X016975Y010232D01*
X016854Y010282D01*
X016762Y010374D01*
X016712Y010495D01*
X016712Y010625D01*
X016762Y010746D01*
X016854Y010838D01*
X016975Y010888D01*
X017105Y010888D01*
X017226Y010838D01*
X017318Y010746D01*
X017368Y010625D01*
X017368Y010501D01*
X017592Y010277D01*
X017592Y010305D01*
X017642Y010426D01*
X017734Y010518D01*
X017855Y010568D01*
X017895Y010568D01*
X018070Y010744D01*
X018070Y011890D01*
X018108Y011982D01*
X018150Y012024D01*
X018150Y012131D01*
X018118Y012054D01*
X018026Y011962D01*
X017905Y011912D01*
X017781Y011912D01*
X017764Y011895D01*
X017764Y011895D01*
X017781Y011912D01*
X017905Y011912D01*
X018026Y011962D01*
X018118Y012054D01*
X018150Y012131D01*
X018150Y012024D01*
X018108Y011982D01*
X018070Y011890D01*
X018070Y010744D01*
X017895Y010568D01*
X017855Y010568D01*
X017734Y010518D01*
X017642Y010426D01*
X017592Y010305D01*
X017592Y010277D01*
X017368Y010501D01*
X017368Y010625D01*
X017318Y010746D01*
X017226Y010838D01*
X017105Y010888D01*
X016975Y010888D01*
X016854Y010838D01*
X016762Y010746D01*
X016712Y010625D01*
X016712Y010495D01*
X016762Y010374D01*
X016854Y010282D01*
X016975Y010232D01*
X017099Y010232D01*
X017163Y010168D01*
X017055Y010168D01*
X016934Y010118D01*
X016842Y010026D01*
X016792Y009905D01*
X016792Y009784D01*
X016758Y009866D01*
X016666Y009958D01*
X016545Y010008D01*
X016415Y010008D01*
X016294Y009958D01*
X016202Y009866D01*
X016199Y009860D01*
X011365Y009860D01*
X011260Y009755D01*
X009445Y007940D01*
X007081Y007940D01*
X007078Y007946D01*
X006986Y008038D01*
X006865Y008088D01*
X006735Y008088D01*
X006614Y008038D01*
X006522Y007946D01*
X006472Y007825D01*
X006472Y007695D01*
X006522Y007574D01*
X006614Y007482D01*
X006667Y007460D01*
X006521Y007460D01*
X006518Y007466D01*
X006426Y007558D01*
X006305Y007608D01*
X006175Y007608D01*
X006054Y007558D01*
X005962Y007466D01*
X005912Y007345D01*
X005912Y007215D01*
X005962Y007094D01*
X006054Y007002D01*
X006175Y006952D01*
X006305Y006952D01*
X006426Y007002D01*
X006518Y007094D01*
X006521Y007100D01*
X006955Y007100D01*
X007195Y007340D01*
X009675Y007340D01*
X011595Y009260D01*
X016005Y009260D01*
X016154Y009111D01*
X016152Y009105D01*
X016152Y008975D01*
X016202Y008854D01*
X016294Y008762D01*
X016415Y008712D01*
X016545Y008712D01*
X016666Y008762D01*
X016758Y008854D01*
X016808Y008975D01*
X016808Y009083D01*
X017041Y008850D01*
X018799Y008850D01*
X018910Y008961D01*
X019199Y009250D01*
X019999Y009250D01*
X020009Y009260D01*
X021399Y009260D01*
X021402Y009254D01*
X021494Y009162D01*
X021578Y009127D01*
X021521Y009070D01*
X021410Y008959D01*
X021410Y005681D01*
X021490Y005601D01*
X021490Y005598D01*
X021358Y005730D01*
X021002Y005730D01*
X020750Y005478D01*
X020750Y005122D01*
X020822Y005050D01*
X020538Y005050D01*
X020610Y005122D01*
X020610Y005478D01*
X020358Y005730D01*
X020002Y005730D01*
X019750Y005478D01*
X019750Y005122D01*
X019822Y005050D01*
X019254Y005050D01*
X019226Y005078D01*
X019105Y005128D01*
X018975Y005128D01*
X018854Y005078D01*
X018762Y004986D01*
X018712Y004865D01*
X018712Y004735D01*
X018762Y004614D01*
X018854Y004522D01*
X018975Y004472D01*
X019105Y004472D01*
X019226Y004522D01*
X019254Y004550D01*
X019779Y004550D01*
X019720Y004491D01*
X019720Y004340D01*
X020140Y004340D01*
X020140Y004260D01*
X019720Y004260D01*
X019720Y004109D01*
X019879Y003950D01*
X016717Y003950D01*
X016746Y003962D01*
X016838Y004054D01*
X016888Y004175D01*
X016888Y004305D01*
X016838Y004426D01*
X016746Y004518D01*
X016625Y004568D01*
X016529Y004568D01*
X016247Y004850D01*
X014334Y004850D01*
X014266Y004918D01*
X014145Y004968D01*
X014015Y004968D01*
X013894Y004918D01*
X013802Y004826D01*
X013752Y004705D01*
X013752Y004575D01*
X013802Y004454D01*
X013894Y004362D01*
X014015Y004312D01*
X014145Y004312D01*
X014266Y004362D01*
X014334Y004430D01*
X015246Y004430D01*
X015242Y004426D01*
X015192Y004305D01*
X015192Y004209D01*
X015181Y004198D01*
X015181Y003950D01*
X014038Y003950D01*
X013718Y004270D01*
X013554Y004270D01*
X013466Y004358D01*
X013345Y004408D01*
X013215Y004408D01*
X013094Y004358D01*
X013002Y004266D01*
X012952Y004145D01*
X012952Y004015D01*
X012979Y003950D01*
X005613Y003950D01*
X005510Y003960D01*
X005328Y004015D02*
X012952Y004015D01*
X005328Y004015D01*
X005126Y004133D02*
X012952Y004133D01*
X005126Y004133D01*
X005015Y004252D02*
X012996Y004252D01*
X005015Y004252D01*
X004937Y004370D02*
X013123Y004370D01*
X004937Y004370D01*
X004878Y004489D02*
X013788Y004489D01*
X004878Y004489D01*
X004850Y004607D02*
X013752Y004607D01*
X004850Y004607D01*
X004832Y004726D02*
X013760Y004726D01*
X004832Y004726D01*
X004832Y004844D02*
X013820Y004844D01*
X004832Y004844D01*
X004830Y004963D02*
X014001Y004963D01*
X004830Y004963D01*
X004830Y005081D02*
X018861Y005081D01*
X004830Y005081D01*
X004830Y005200D02*
X019750Y005200D01*
X004830Y005200D01*
X004830Y005318D02*
X019750Y005318D01*
X004830Y005318D01*
X004830Y005437D02*
X014190Y005437D01*
X004830Y005437D01*
X004830Y005555D02*
X014071Y005555D01*
X004830Y005555D01*
X004830Y005674D02*
X013960Y005674D01*
X004830Y005674D01*
X004830Y005792D02*
X013960Y005792D01*
X004830Y005792D01*
X004830Y005911D02*
X013960Y005911D01*
X004830Y005911D01*
X004830Y006029D02*
X013975Y006029D01*
X004830Y006029D01*
X004830Y006148D02*
X014094Y006148D01*
X004830Y006148D01*
X004830Y006266D02*
X015170Y006266D01*
X004830Y006266D01*
X004830Y006385D02*
X015170Y006385D01*
X004830Y006385D01*
X004830Y006503D02*
X015170Y006503D01*
X004830Y006503D01*
X004830Y006622D02*
X015170Y006622D01*
X004830Y006622D01*
X004830Y006740D02*
X015170Y006740D01*
X004830Y006740D01*
X004830Y006859D02*
X015170Y006859D01*
X004830Y006859D01*
X004830Y006977D02*
X006114Y006977D01*
X004830Y006977D01*
X004830Y007096D02*
X005961Y007096D01*
X004830Y007096D01*
X004830Y007214D02*
X005912Y007214D01*
X004830Y007214D01*
X004830Y007333D02*
X005912Y007333D01*
X004830Y007333D01*
X004830Y007451D02*
X005956Y007451D01*
X004830Y007451D01*
X004830Y007570D02*
X006082Y007570D01*
X004830Y007570D01*
X004830Y007688D02*
X006475Y007688D01*
X004830Y007688D01*
X004830Y007807D02*
X006472Y007807D01*
X004830Y007807D01*
X004830Y007925D02*
X006513Y007925D01*
X004830Y007925D01*
X004830Y008044D02*
X006627Y008044D01*
X004830Y008044D01*
X004830Y008162D02*
X009667Y008162D01*
X004830Y008162D01*
X004830Y008281D02*
X009786Y008281D01*
X004830Y008281D01*
X004830Y008399D02*
X009904Y008399D01*
X004830Y008399D01*
X004830Y008518D02*
X010023Y008518D01*
X004830Y008518D01*
X004830Y008636D02*
X010141Y008636D01*
X004830Y008636D01*
X004830Y008755D02*
X010260Y008755D01*
X004830Y008755D01*
X004830Y008873D02*
X010378Y008873D01*
X004830Y008873D01*
X004830Y008992D02*
X010497Y008992D01*
X004830Y008992D01*
X004830Y009110D02*
X010615Y009110D01*
X004830Y009110D01*
X004830Y009229D02*
X010734Y009229D01*
X004830Y009229D01*
X004830Y009347D02*
X010852Y009347D01*
X004830Y009347D01*
X004830Y009466D02*
X010971Y009466D01*
X004830Y009466D01*
X004830Y009584D02*
X011089Y009584D01*
X004830Y009584D01*
X004830Y009703D02*
X011208Y009703D01*
X004830Y009703D01*
X004830Y009821D02*
X011326Y009821D01*
X004830Y009821D01*
X004830Y009940D02*
X008028Y009940D01*
X004830Y009940D01*
X004830Y010058D02*
X007880Y010058D01*
X004830Y010058D01*
X004830Y010177D02*
X007832Y010177D01*
X004830Y010177D01*
X004830Y010295D02*
X007832Y010295D01*
X004830Y010295D01*
X004830Y010414D02*
X007877Y010414D01*
X004830Y010414D01*
X004830Y010532D02*
X004924Y010532D01*
X004830Y010532D01*
X004830Y010957D02*
X004830Y012499D01*
X005072Y012499D01*
X005112Y012459D01*
X005112Y012335D01*
X005162Y012214D01*
X005254Y012122D01*
X005375Y012072D01*
X005505Y012072D01*
X005626Y012122D01*
X005718Y012214D01*
X005768Y012335D01*
X005768Y012465D01*
X005718Y012586D01*
X005626Y012678D01*
X005505Y012728D01*
X005384Y012728D01*
X005466Y012762D01*
X005554Y012850D01*
X006239Y012850D01*
X006399Y013010D01*
X006558Y013010D01*
X006410Y012862D01*
X006410Y012538D01*
X006638Y012310D01*
X006962Y012310D01*
X007190Y012538D01*
X007190Y012862D01*
X007042Y013010D01*
X007839Y013010D01*
X007941Y013112D01*
X008065Y013112D01*
X008186Y013162D01*
X008278Y013254D01*
X008328Y013375D01*
X008328Y013505D01*
X008278Y013626D01*
X008186Y013718D01*
X008065Y013768D01*
X007935Y013768D01*
X007814Y013718D01*
X007722Y013626D01*
X007672Y013505D01*
X007672Y013390D01*
X007084Y013390D01*
X007220Y013526D01*
X007220Y013680D01*
X006820Y013680D01*
X006820Y013720D01*
X006780Y013720D01*
X006780Y014120D01*
X006626Y014120D01*
X006380Y013874D01*
X006380Y013720D01*
X006780Y013720D01*
X006780Y014120D01*
X006626Y014120D01*
X006380Y013874D01*
X006380Y013720D01*
X006780Y013720D01*
X006820Y013720D01*
X006820Y014120D01*
X006974Y014120D01*
X007220Y013874D01*
X007220Y013720D01*
X006820Y013720D01*
X006820Y014120D01*
X006974Y014120D01*
X007220Y013874D01*
X007220Y013720D01*
X006820Y013720D01*
X006820Y013680D01*
X007220Y013680D01*
X007220Y013526D01*
X007084Y013390D01*
X007672Y013390D01*
X007672Y013505D01*
X007722Y013626D01*
X007814Y013718D01*
X007935Y013768D01*
X008065Y013768D01*
X008186Y013718D01*
X008278Y013626D01*
X008328Y013505D01*
X008328Y013375D01*
X008278Y013254D01*
X008186Y013162D01*
X008065Y013112D01*
X007941Y013112D01*
X007839Y013010D01*
X007042Y013010D01*
X007190Y012862D01*
X007190Y012538D01*
X006962Y012310D01*
X006638Y012310D01*
X006410Y012538D01*
X006410Y012862D01*
X006558Y013010D01*
X006399Y013010D01*
X006239Y012850D01*
X005554Y012850D01*
X005466Y012762D01*
X005384Y012728D01*
X005505Y012728D01*
X005626Y012678D01*
X005718Y012586D01*
X005768Y012465D01*
X005768Y012335D01*
X005718Y012214D01*
X005626Y012122D01*
X005505Y012072D01*
X005375Y012072D01*
X005254Y012122D01*
X005162Y012214D01*
X005112Y012335D01*
X005112Y012459D01*
X005072Y012499D01*
X004830Y012499D01*
X004830Y010957D01*
X004842Y010986D01*
X004934Y011078D01*
X005055Y011128D01*
X005185Y011128D01*
X005306Y011078D01*
X005334Y011050D01*
X007970Y011050D01*
X008062Y011012D01*
X008320Y010754D01*
X008470Y010904D01*
X008470Y013736D01*
X007656Y014550D01*
X007150Y014550D01*
X007058Y014588D01*
X006988Y014658D01*
X006988Y014658D01*
X007058Y014588D01*
X007150Y014550D01*
X007656Y014550D01*
X008470Y013736D01*
X008470Y010904D01*
X008320Y010754D01*
X008062Y011012D01*
X007970Y011050D01*
X005334Y011050D01*
X005306Y011078D01*
X005185Y011128D01*
X005055Y011128D01*
X004934Y011078D01*
X004842Y010986D01*
X004830Y010957D01*
X004830Y011006D02*
X004862Y011006D01*
X004830Y011006D01*
X004830Y011125D02*
X005046Y011125D01*
X004830Y011125D01*
X004830Y011243D02*
X008470Y011243D01*
X004830Y011243D01*
X004830Y011362D02*
X008470Y011362D01*
X004830Y011362D01*
X004830Y011480D02*
X008470Y011480D01*
X004830Y011480D01*
X004830Y011599D02*
X008470Y011599D01*
X004830Y011599D01*
X004830Y011717D02*
X008470Y011717D01*
X004830Y011717D01*
X004830Y011836D02*
X008470Y011836D01*
X004830Y011836D01*
X004830Y011954D02*
X008470Y011954D01*
X004830Y011954D01*
X004830Y012073D02*
X005373Y012073D01*
X004830Y012073D01*
X004830Y012191D02*
X005185Y012191D01*
X004830Y012191D01*
X004830Y012310D02*
X005122Y012310D01*
X004830Y012310D01*
X004830Y012428D02*
X005112Y012428D01*
X004830Y012428D01*
X005151Y012689D02*
X004354Y012689D01*
X005151Y012689D02*
X005440Y012400D01*
X005734Y012547D02*
X006410Y012547D01*
X005734Y012547D01*
X005768Y012428D02*
X006520Y012428D01*
X005768Y012428D01*
X005758Y012310D02*
X008470Y012310D01*
X005758Y012310D01*
X005695Y012191D02*
X008470Y012191D01*
X005695Y012191D01*
X005507Y012073D02*
X008470Y012073D01*
X005507Y012073D01*
X005639Y012665D02*
X006410Y012665D01*
X005639Y012665D01*
X005488Y012784D02*
X006410Y012784D01*
X005488Y012784D01*
X005280Y013040D02*
X006160Y013040D01*
X006320Y013200D01*
X007760Y013200D01*
X008000Y013440D01*
X008131Y013139D02*
X008470Y013139D01*
X008131Y013139D01*
X008280Y013258D02*
X008470Y013258D01*
X008280Y013258D01*
X008328Y013376D02*
X008470Y013376D01*
X008328Y013376D01*
X008328Y013495D02*
X008470Y013495D01*
X008328Y013495D01*
X008283Y013613D02*
X008470Y013613D01*
X008283Y013613D01*
X008154Y013732D02*
X008470Y013732D01*
X008154Y013732D01*
X008356Y013850D02*
X007220Y013850D01*
X008356Y013850D01*
X008238Y013969D02*
X007125Y013969D01*
X008238Y013969D01*
X008119Y014087D02*
X007007Y014087D01*
X008119Y014087D01*
X008001Y014206D02*
X004830Y014206D01*
X008001Y014206D01*
X007882Y014324D02*
X004830Y014324D01*
X007882Y014324D01*
X007764Y014443D02*
X004830Y014443D01*
X007764Y014443D01*
X008234Y014680D02*
X010632Y014680D01*
X008234Y014680D01*
X008116Y014798D02*
X010637Y014798D01*
X008116Y014798D01*
X007997Y014917D02*
X010693Y014917D01*
X007997Y014917D01*
X007902Y015012D02*
X007810Y015050D01*
X007304Y015050D01*
X006302Y016052D01*
X006210Y016090D01*
X005654Y016090D01*
X005626Y016118D01*
X005505Y016168D01*
X005375Y016168D01*
X005254Y016118D01*
X005162Y016026D01*
X005112Y015905D01*
X005112Y015775D01*
X005162Y015654D01*
X005254Y015562D01*
X005375Y015512D01*
X005505Y015512D01*
X005626Y015562D01*
X005654Y015590D01*
X006056Y015590D01*
X006988Y014658D01*
X006988Y014658D01*
X006056Y015590D01*
X005654Y015590D01*
X005626Y015562D01*
X005505Y015512D01*
X005375Y015512D01*
X005254Y015562D01*
X005162Y015654D01*
X005112Y015775D01*
X005112Y015905D01*
X005162Y016026D01*
X005254Y016118D01*
X005375Y016168D01*
X005505Y016168D01*
X005626Y016118D01*
X005654Y016090D01*
X006210Y016090D01*
X006302Y016052D01*
X007304Y015050D01*
X007810Y015050D01*
X007902Y015012D01*
X008862Y014052D01*
X008932Y013982D01*
X008970Y013890D01*
X008970Y010750D01*
X008932Y010658D01*
X008532Y010258D01*
X008932Y010658D01*
X008970Y010750D01*
X008970Y013890D01*
X008932Y013982D01*
X008862Y014052D01*
X007902Y015012D01*
X007846Y015035D02*
X010863Y015035D01*
X007846Y015035D01*
X007200Y015154D02*
X012245Y015154D01*
X007200Y015154D01*
X007082Y015272D02*
X012363Y015272D01*
X007082Y015272D01*
X006963Y015391D02*
X012392Y015391D01*
X006963Y015391D01*
X006845Y015509D02*
X012427Y015509D01*
X006845Y015509D01*
X006726Y015628D02*
X010868Y015628D01*
X006726Y015628D01*
X006608Y015746D02*
X010804Y015746D01*
X006608Y015746D01*
X006489Y015865D02*
X010792Y015865D01*
X006489Y015865D01*
X006371Y015983D02*
X010824Y015983D01*
X006371Y015983D01*
X005642Y016102D02*
X010918Y016102D01*
X005642Y016102D01*
X005238Y016102D02*
X004830Y016102D01*
X005238Y016102D01*
X005144Y015983D02*
X004830Y015983D01*
X005144Y015983D01*
X005112Y015865D02*
X004830Y015865D01*
X005112Y015865D01*
X005124Y015746D02*
X004830Y015746D01*
X005124Y015746D01*
X005188Y015628D02*
X004830Y015628D01*
X005188Y015628D01*
X004830Y015509D02*
X006137Y015509D01*
X004830Y015509D01*
X004830Y015391D02*
X006256Y015391D01*
X004830Y015391D01*
X004830Y015272D02*
X006374Y015272D01*
X004830Y015272D01*
X004830Y015154D02*
X006493Y015154D01*
X004830Y015154D01*
X004830Y015035D02*
X006611Y015035D01*
X004830Y015035D01*
X004830Y014917D02*
X006730Y014917D01*
X004830Y014917D01*
X004830Y014798D02*
X006848Y014798D01*
X004830Y014798D01*
X004830Y014680D02*
X006967Y014680D01*
X004830Y014680D01*
X004830Y014561D02*
X007124Y014561D01*
X004830Y014561D01*
X004830Y014087D02*
X006593Y014087D01*
X004830Y014087D01*
X004830Y013969D02*
X006475Y013969D01*
X004830Y013969D01*
X004830Y013850D02*
X006380Y013850D01*
X004830Y013850D01*
X004830Y013732D02*
X005428Y013732D01*
X004830Y013732D01*
X004830Y013710D02*
X004830Y019833D01*
X005710Y018953D01*
X005833Y018830D01*
X006146Y018830D01*
X006214Y018762D01*
X006335Y018712D01*
X006465Y018712D01*
X006586Y018762D01*
X006674Y018850D01*
X006881Y018850D01*
X007352Y018379D01*
X007352Y018255D01*
X007402Y018134D01*
X007494Y018042D01*
X007615Y017992D01*
X007745Y017992D01*
X007866Y018042D01*
X007958Y018134D01*
X008008Y018255D01*
X008008Y018385D01*
X007958Y018506D01*
X007866Y018598D01*
X007745Y018648D01*
X007621Y018648D01*
X007039Y019230D01*
X006674Y019230D01*
X006586Y019318D01*
X006465Y019368D01*
X006335Y019368D01*
X006214Y019318D01*
X006146Y019250D01*
X006007Y019250D01*
X005243Y020014D01*
X005243Y021082D01*
X006005Y021843D01*
X006058Y021790D01*
X006626Y021790D01*
X006694Y021722D01*
X006815Y021672D01*
X006945Y021672D01*
X007066Y021722D01*
X007158Y021814D01*
X007208Y021935D01*
X007208Y022065D01*
X007158Y022186D01*
X007066Y022278D01*
X006945Y022328D01*
X006815Y022328D01*
X006694Y022278D01*
X006626Y022210D01*
X006371Y022210D01*
X006851Y022690D01*
X007459Y022690D01*
X007432Y022625D01*
X007432Y022495D01*
X007482Y022374D01*
X007574Y022282D01*
X007695Y022232D01*
X007791Y022232D01*
X007870Y022153D01*
X007870Y021031D01*
X007785Y021116D01*
X007502Y020834D01*
X007474Y020862D01*
X007756Y021145D01*
X007648Y021254D01*
X007300Y021254D01*
X007191Y021145D01*
X007474Y020862D01*
X007756Y021145D01*
X007648Y021254D01*
X007300Y021254D01*
X007191Y021145D01*
X007474Y020862D01*
X007502Y020834D01*
X007785Y021116D01*
X007870Y021031D01*
X007870Y022153D01*
X007791Y022232D01*
X007695Y022232D01*
X007574Y022282D01*
X007482Y022374D01*
X007432Y022495D01*
X007432Y022625D01*
X007459Y022690D01*
X006851Y022690D01*
X006371Y022210D01*
X006626Y022210D01*
X006694Y022278D01*
X006815Y022328D01*
X006945Y022328D01*
X007066Y022278D01*
X007158Y022186D01*
X007208Y022065D01*
X007208Y021935D01*
X007158Y021814D01*
X007066Y021722D01*
X006945Y021672D01*
X006815Y021672D01*
X006694Y021722D01*
X006626Y021790D01*
X006058Y021790D01*
X006005Y021843D01*
X005243Y021082D01*
X005243Y020014D01*
X006007Y019250D01*
X006146Y019250D01*
X006214Y019318D01*
X006335Y019368D01*
X006465Y019368D01*
X006586Y019318D01*
X006674Y019230D01*
X007039Y019230D01*
X007621Y018648D01*
X007745Y018648D01*
X007866Y018598D01*
X007958Y018506D01*
X008008Y018385D01*
X008008Y018255D01*
X007958Y018134D01*
X007866Y018042D01*
X007745Y017992D01*
X007615Y017992D01*
X007494Y018042D01*
X007402Y018134D01*
X007352Y018255D01*
X007352Y018379D01*
X006881Y018850D01*
X006674Y018850D01*
X006586Y018762D01*
X006465Y018712D01*
X006335Y018712D01*
X006214Y018762D01*
X006146Y018830D01*
X005833Y018830D01*
X005710Y018953D01*
X004830Y019833D01*
X004830Y013710D01*
X005406Y013710D01*
X005494Y013798D01*
X005615Y013848D01*
X005745Y013848D01*
X005866Y013798D01*
X005958Y013706D01*
X006008Y013585D01*
X006008Y013455D01*
X005958Y013334D01*
X005866Y013242D01*
X005837Y013230D01*
X006081Y013230D01*
X006130Y013279D01*
X006241Y013390D01*
X006516Y013390D01*
X006380Y013526D01*
X006380Y013680D01*
X006780Y013680D01*
X006780Y013720D01*
X006780Y013680D01*
X006380Y013680D01*
X006380Y013526D01*
X006516Y013390D01*
X006241Y013390D01*
X006130Y013279D01*
X006081Y013230D01*
X005837Y013230D01*
X005866Y013242D01*
X005958Y013334D01*
X006008Y013455D01*
X006008Y013585D01*
X005958Y013706D01*
X005866Y013798D01*
X005745Y013848D01*
X005615Y013848D01*
X005494Y013798D01*
X005406Y013710D01*
X004830Y013710D01*
X004421Y013520D02*
X004354Y013453D01*
X004354Y013835D01*
X004421Y013520D02*
X005680Y013520D01*
X005976Y013376D02*
X006227Y013376D01*
X005976Y013376D01*
X006008Y013495D02*
X006412Y013495D01*
X006008Y013495D01*
X005997Y013613D02*
X006380Y013613D01*
X005997Y013613D01*
X005932Y013732D02*
X006380Y013732D01*
X005932Y013732D01*
X006780Y013732D02*
X006820Y013732D01*
X006780Y013732D01*
X006780Y013850D02*
X006820Y013850D01*
X006780Y013850D01*
X006780Y013969D02*
X006820Y013969D01*
X006780Y013969D01*
X006780Y014087D02*
X006820Y014087D01*
X006780Y014087D01*
X007220Y013732D02*
X007846Y013732D01*
X007220Y013732D01*
X007220Y013613D02*
X007717Y013613D01*
X007220Y013613D01*
X007188Y013495D02*
X007672Y013495D01*
X007188Y013495D01*
X007150Y012902D02*
X008470Y012902D01*
X007150Y012902D01*
X007190Y012784D02*
X008470Y012784D01*
X007190Y012784D01*
X007190Y012665D02*
X008470Y012665D01*
X007190Y012665D01*
X007190Y012547D02*
X008470Y012547D01*
X007190Y012547D01*
X007080Y012428D02*
X008470Y012428D01*
X007080Y012428D01*
X006450Y012902D02*
X006291Y012902D01*
X006450Y012902D01*
X006109Y013258D02*
X005882Y013258D01*
X006109Y013258D01*
X007849Y013021D02*
X008470Y013021D01*
X007849Y013021D01*
X008970Y013021D02*
X011570Y013021D01*
X008970Y013021D01*
X008970Y013139D02*
X011570Y013139D01*
X008970Y013139D01*
X008970Y013258D02*
X011570Y013258D01*
X008970Y013258D01*
X008970Y013376D02*
X011570Y013376D01*
X008970Y013376D01*
X008970Y013495D02*
X011570Y013495D01*
X008970Y013495D01*
X008970Y013613D02*
X011570Y013613D01*
X008970Y013613D01*
X008970Y013732D02*
X011570Y013732D01*
X008970Y013732D01*
X008970Y013850D02*
X011570Y013850D01*
X008970Y013850D01*
X008937Y013969D02*
X011570Y013969D01*
X008937Y013969D01*
X008827Y014087D02*
X011570Y014087D01*
X008827Y014087D01*
X008708Y014206D02*
X011570Y014206D01*
X008708Y014206D01*
X008590Y014324D02*
X011570Y014324D01*
X008590Y014324D01*
X008471Y014443D02*
X010773Y014443D01*
X008471Y014443D01*
X008353Y014561D02*
X010671Y014561D01*
X008353Y014561D01*
X010632Y014655D02*
X010682Y014534D01*
X010774Y014442D01*
X010895Y014392D01*
X011025Y014392D01*
X011146Y014442D01*
X011234Y014530D01*
X011621Y014530D01*
X011570Y014479D01*
X011570Y012574D01*
X011546Y012598D01*
X011425Y012648D01*
X011295Y012648D01*
X011174Y012598D01*
X011082Y012506D01*
X011032Y012385D01*
X011032Y012255D01*
X011082Y012134D01*
X011170Y012046D01*
X011170Y011601D01*
X011832Y010939D01*
X011832Y010815D01*
X011882Y010694D01*
X011974Y010602D01*
X012095Y010552D01*
X012225Y010552D01*
X012346Y010602D01*
X012438Y010694D01*
X012488Y010815D01*
X012488Y010945D01*
X012438Y011066D01*
X012346Y011158D01*
X012225Y011208D01*
X012101Y011208D01*
X011550Y011759D01*
X011550Y012046D01*
X011570Y012066D01*
X011570Y011761D01*
X011681Y011650D01*
X012001Y011330D01*
X013759Y011330D01*
X013781Y011352D01*
X013905Y011352D01*
X014026Y011402D01*
X014118Y011494D01*
X014168Y011615D01*
X014168Y011745D01*
X014118Y011866D01*
X014026Y011958D01*
X013905Y012008D01*
X013775Y012008D01*
X013654Y011958D01*
X013562Y011866D01*
X013512Y011745D01*
X013512Y011710D01*
X012159Y011710D01*
X011950Y011919D01*
X011950Y014321D01*
X012270Y014641D01*
X012661Y015032D01*
X012785Y015032D01*
X012906Y015082D01*
X012998Y015174D01*
X013048Y015295D01*
X013048Y015425D01*
X012998Y015546D01*
X012906Y015638D01*
X012877Y015650D01*
X016159Y015650D01*
X016501Y015992D01*
X016625Y015992D01*
X016746Y016042D01*
X016838Y016134D01*
X016888Y016255D01*
X016888Y016385D01*
X016838Y016506D01*
X016746Y016598D01*
X016625Y016648D01*
X016495Y016648D01*
X016374Y016598D01*
X016316Y016540D01*
X016330Y016574D01*
X016330Y016770D01*
X016721Y016770D01*
X017170Y016321D01*
X017170Y014974D01*
X017146Y014998D01*
X017025Y015048D01*
X016895Y015048D01*
X016774Y014998D01*
X016682Y014906D01*
X016632Y014785D01*
X016632Y014661D01*
X016538Y014566D01*
X016506Y014598D01*
X016385Y014648D01*
X016255Y014648D01*
X016134Y014598D01*
X016042Y014506D01*
X015992Y014385D01*
X015992Y014255D01*
X016042Y014134D01*
X016130Y014046D01*
X016130Y013634D01*
X016042Y013546D01*
X015992Y013425D01*
X015992Y013295D01*
X016042Y013174D01*
X016134Y013082D01*
X016255Y013032D01*
X016385Y013032D01*
X016392Y013035D01*
X016392Y012975D01*
X016442Y012854D01*
X016534Y012762D01*
X016655Y012712D01*
X016696Y012712D01*
X016614Y012678D01*
X016522Y012586D01*
X016472Y012465D01*
X016472Y012437D01*
X016430Y012479D01*
X016319Y012590D01*
X014328Y012590D01*
X014328Y012705D01*
X014278Y012826D01*
X014186Y012918D01*
X014065Y012968D01*
X013935Y012968D01*
X013814Y012918D01*
X013722Y012826D01*
X013672Y012705D01*
X013672Y012575D01*
X013722Y012454D01*
X013814Y012362D01*
X013935Y012312D01*
X014059Y012312D01*
X014161Y012210D01*
X016161Y012210D01*
X016561Y011810D01*
X017637Y011810D01*
X017652Y011825D01*
X017687Y011839D01*
X017708Y011839D01*
X017723Y011854D01*
X017723Y011854D01*
X017723Y011854D01*
X017723Y011854D01*
X017723Y011854D01*
X017724Y011856D01*
X017764Y011895D01*
X017764Y011895D01*
X017724Y011856D01*
X017723Y011854D01*
X017708Y011839D01*
X017687Y011839D01*
X017652Y011825D01*
X017637Y011810D01*
X016561Y011810D01*
X016161Y012210D01*
X014161Y012210D01*
X014059Y012312D01*
X013935Y012312D01*
X013814Y012362D01*
X013722Y012454D01*
X013672Y012575D01*
X013672Y012705D01*
X013722Y012826D01*
X013814Y012918D01*
X013935Y012968D01*
X014065Y012968D01*
X014186Y012918D01*
X014278Y012826D01*
X014328Y012705D01*
X014328Y012590D01*
X016319Y012590D01*
X016430Y012479D01*
X016472Y012437D01*
X016472Y012465D01*
X016522Y012586D01*
X016614Y012678D01*
X016696Y012712D01*
X016655Y012712D01*
X016534Y012762D01*
X016442Y012854D01*
X016392Y012975D01*
X016392Y013035D01*
X016385Y013032D01*
X016255Y013032D01*
X016134Y013082D01*
X016042Y013174D01*
X015992Y013295D01*
X015992Y013425D01*
X016042Y013546D01*
X016130Y013634D01*
X016130Y014046D01*
X016042Y014134D01*
X015992Y014255D01*
X015992Y014385D01*
X016042Y014506D01*
X016134Y014598D01*
X016255Y014648D01*
X016385Y014648D01*
X016506Y014598D01*
X016538Y014566D01*
X016632Y014661D01*
X016632Y014785D01*
X016682Y014906D01*
X016774Y014998D01*
X016895Y015048D01*
X017025Y015048D01*
X017146Y014998D01*
X017170Y014974D01*
X017170Y016321D01*
X016721Y016770D01*
X016330Y016770D01*
X016330Y016574D01*
X016316Y016540D01*
X016374Y016598D01*
X016495Y016648D01*
X016625Y016648D01*
X016746Y016598D01*
X016838Y016506D01*
X016888Y016385D01*
X016888Y016255D01*
X016838Y016134D01*
X016746Y016042D01*
X016625Y015992D01*
X016501Y015992D01*
X016159Y015650D01*
X012877Y015650D01*
X012906Y015638D01*
X012998Y015546D01*
X013048Y015425D01*
X013048Y015295D01*
X012998Y015174D01*
X012906Y015082D01*
X012785Y015032D01*
X012661Y015032D01*
X012270Y014641D01*
X011950Y014321D01*
X011950Y011919D01*
X012159Y011710D01*
X013512Y011710D01*
X013512Y011745D01*
X013562Y011866D01*
X013654Y011958D01*
X013775Y012008D01*
X013905Y012008D01*
X014026Y011958D01*
X014118Y011866D01*
X014168Y011745D01*
X014168Y011615D01*
X014118Y011494D01*
X014026Y011402D01*
X013905Y011352D01*
X013781Y011352D01*
X013759Y011330D01*
X012001Y011330D01*
X011681Y011650D01*
X011570Y011761D01*
X011570Y012066D01*
X011550Y012046D01*
X011550Y011759D01*
X012101Y011208D01*
X012225Y011208D01*
X012346Y011158D01*
X012438Y011066D01*
X012488Y010945D01*
X012488Y010815D01*
X012438Y010694D01*
X012346Y010602D01*
X012225Y010552D01*
X012095Y010552D01*
X011974Y010602D01*
X011882Y010694D01*
X011832Y010815D01*
X011832Y010939D01*
X011170Y011601D01*
X011170Y012046D01*
X011082Y012134D01*
X011032Y012255D01*
X011032Y012385D01*
X011082Y012506D01*
X011174Y012598D01*
X011295Y012648D01*
X011425Y012648D01*
X011546Y012598D01*
X011570Y012574D01*
X011570Y014479D01*
X011621Y014530D01*
X011234Y014530D01*
X011146Y014442D01*
X011025Y014392D01*
X010895Y014392D01*
X010774Y014442D01*
X010682Y014534D01*
X010632Y014655D01*
X010632Y014785D01*
X010682Y014906D01*
X010774Y014998D01*
X010895Y015048D01*
X011025Y015048D01*
X011146Y014998D01*
X011234Y014910D01*
X012001Y014910D01*
X012392Y015301D01*
X012392Y015425D01*
X012442Y015546D01*
X012534Y015638D01*
X012563Y015650D01*
X011394Y015650D01*
X011306Y015562D01*
X011185Y015512D01*
X011055Y015512D01*
X010934Y015562D01*
X010842Y015654D01*
X010792Y015775D01*
X010792Y015905D01*
X010842Y016026D01*
X010934Y016118D01*
X011055Y016168D01*
X011185Y016168D01*
X011306Y016118D01*
X011394Y016030D01*
X016001Y016030D01*
X016232Y016261D01*
X016232Y016384D01*
X016144Y016295D01*
X015986Y016230D01*
X015814Y016230D01*
X015656Y016295D01*
X015535Y016416D01*
X015470Y016574D01*
X015470Y017346D01*
X015535Y017504D01*
X015656Y017625D01*
X015814Y017690D01*
X015986Y017690D01*
X016144Y017625D01*
X016265Y017504D01*
X016330Y017346D01*
X016330Y017150D01*
X016879Y017150D01*
X016990Y017039D01*
X017550Y016479D01*
X017550Y014401D01*
X017439Y014290D01*
X017390Y014241D01*
X017390Y013999D01*
X017870Y013519D01*
X017870Y013208D01*
X017985Y013208D01*
X018070Y013173D01*
X018070Y016216D01*
X016456Y017830D01*
X015630Y017830D01*
X015538Y017868D01*
X015416Y017990D01*
X014184Y017990D01*
X014170Y017976D01*
X014170Y017598D01*
X014265Y017504D01*
X014330Y017346D01*
X014330Y016574D01*
X014265Y016416D01*
X014144Y016295D01*
X013986Y016230D01*
X013814Y016230D01*
X013656Y016295D01*
X013535Y016416D01*
X013470Y016574D01*
X013470Y017346D01*
X013535Y017504D01*
X013656Y017625D01*
X013670Y017630D01*
X013670Y018216D01*
X013016Y018870D01*
X011390Y018870D01*
X011298Y018908D01*
X011228Y018978D01*
X010856Y019350D01*
X008504Y019350D01*
X008408Y019255D01*
X008408Y019215D01*
X008358Y019094D01*
X008266Y019002D01*
X008145Y018952D01*
X008015Y018952D01*
X007894Y019002D01*
X007802Y019094D01*
X007752Y019215D01*
X007752Y019345D01*
X007802Y019466D01*
X007870Y019534D01*
X007870Y020636D01*
X007785Y020551D01*
X007502Y020834D01*
X007474Y020805D01*
X007756Y020522D01*
X007648Y020414D01*
X007300Y020414D01*
X007191Y020522D01*
X007474Y020805D01*
X007502Y020834D01*
X007785Y020551D01*
X007870Y020636D01*
X007870Y019534D01*
X007802Y019466D01*
X007752Y019345D01*
X007752Y019215D01*
X007802Y019094D01*
X007894Y019002D01*
X008015Y018952D01*
X008145Y018952D01*
X008266Y019002D01*
X008358Y019094D01*
X008408Y019215D01*
X008408Y019255D01*
X008504Y019350D01*
X010856Y019350D01*
X011228Y018978D01*
X011298Y018908D01*
X011390Y018870D01*
X013016Y018870D01*
X013670Y018216D01*
X013670Y017630D01*
X013656Y017625D01*
X013535Y017504D01*
X013470Y017346D01*
X013470Y016574D01*
X013535Y016416D01*
X013656Y016295D01*
X013814Y016230D01*
X013986Y016230D01*
X014144Y016295D01*
X014265Y016416D01*
X014330Y016574D01*
X014330Y017346D01*
X014265Y017504D01*
X014170Y017598D01*
X014170Y017976D01*
X014184Y017990D01*
X015416Y017990D01*
X015538Y017868D01*
X015630Y017830D01*
X016456Y017830D01*
X018070Y016216D01*
X018070Y013173D01*
X017985Y013208D01*
X017870Y013208D01*
X017870Y013519D01*
X017390Y013999D01*
X017390Y014241D01*
X017439Y014290D01*
X017550Y014401D01*
X017550Y016479D01*
X016990Y017039D01*
X016879Y017150D01*
X016330Y017150D01*
X016330Y017346D01*
X016265Y017504D01*
X016144Y017625D01*
X015986Y017690D01*
X015814Y017690D01*
X015656Y017625D01*
X015535Y017504D01*
X015470Y017346D01*
X015470Y016574D01*
X015535Y016416D01*
X015656Y016295D01*
X015814Y016230D01*
X015986Y016230D01*
X016144Y016295D01*
X016232Y016384D01*
X016232Y016261D01*
X016001Y016030D01*
X011394Y016030D01*
X011306Y016118D01*
X011185Y016168D01*
X011055Y016168D01*
X010934Y016118D01*
X010842Y016026D01*
X010792Y015905D01*
X010792Y015775D01*
X010842Y015654D01*
X010934Y015562D01*
X011055Y015512D01*
X011185Y015512D01*
X011306Y015562D01*
X011394Y015650D01*
X012563Y015650D01*
X012534Y015638D01*
X012442Y015546D01*
X012392Y015425D01*
X012392Y015301D01*
X012001Y014910D01*
X011234Y014910D01*
X011146Y014998D01*
X011025Y015048D01*
X010895Y015048D01*
X010774Y014998D01*
X010682Y014906D01*
X010632Y014785D01*
X010632Y014655D01*
X010960Y014720D02*
X012080Y014720D01*
X011760Y014400D01*
X011760Y011840D01*
X012080Y011520D01*
X013680Y011520D01*
X013840Y011680D01*
X013549Y011836D02*
X012033Y011836D01*
X013549Y011836D01*
X013512Y011717D02*
X012152Y011717D01*
X013512Y011717D01*
X013650Y011954D02*
X011950Y011954D01*
X013650Y011954D01*
X014030Y011954D02*
X016417Y011954D01*
X014030Y011954D01*
X014131Y011836D02*
X016536Y011836D01*
X014131Y011836D01*
X014168Y011717D02*
X018070Y011717D01*
X014168Y011717D01*
X014161Y011599D02*
X018070Y011599D01*
X014161Y011599D01*
X014104Y011480D02*
X018070Y011480D01*
X014104Y011480D01*
X013929Y011362D02*
X018070Y011362D01*
X013929Y011362D01*
X012463Y011006D02*
X018070Y011006D01*
X012463Y011006D01*
X012488Y010888D02*
X016973Y010888D01*
X012488Y010888D01*
X012469Y010769D02*
X016785Y010769D01*
X012469Y010769D01*
X012395Y010651D02*
X016722Y010651D01*
X012395Y010651D01*
X012160Y010880D02*
X011360Y011680D01*
X011360Y012320D01*
X011058Y012191D02*
X008970Y012191D01*
X011058Y012191D01*
X011032Y012310D02*
X008970Y012310D01*
X011032Y012310D01*
X011050Y012428D02*
X008970Y012428D01*
X011050Y012428D01*
X011123Y012547D02*
X008970Y012547D01*
X011123Y012547D01*
X011570Y012665D02*
X008970Y012665D01*
X011570Y012665D01*
X011570Y012784D02*
X008970Y012784D01*
X011570Y012784D01*
X011570Y012902D02*
X008970Y012902D01*
X011570Y012902D01*
X011950Y012902D02*
X013798Y012902D01*
X011950Y012902D01*
X011950Y012784D02*
X013704Y012784D01*
X011950Y012784D01*
X011950Y012665D02*
X013672Y012665D01*
X011950Y012665D01*
X011950Y012547D02*
X013684Y012547D01*
X011950Y012547D01*
X011950Y012428D02*
X013748Y012428D01*
X011950Y012428D01*
X011950Y012310D02*
X014062Y012310D01*
X011950Y012310D01*
X011950Y012191D02*
X016180Y012191D01*
X011950Y012191D01*
X011950Y012073D02*
X016299Y012073D01*
X011950Y012073D01*
X011570Y011954D02*
X011550Y011954D01*
X011570Y011954D01*
X011570Y011836D02*
X011550Y011836D01*
X011570Y011836D01*
X011592Y011717D02*
X011614Y011717D01*
X011592Y011717D01*
X011710Y011599D02*
X011733Y011599D01*
X011710Y011599D01*
X011829Y011480D02*
X011851Y011480D01*
X011829Y011480D01*
X011947Y011362D02*
X011970Y011362D01*
X011947Y011362D01*
X012066Y011243D02*
X018070Y011243D01*
X012066Y011243D01*
X012379Y011125D02*
X018070Y011125D01*
X012379Y011125D01*
X011832Y010888D02*
X008970Y010888D01*
X011832Y010888D01*
X011851Y010769D02*
X008970Y010769D01*
X011851Y010769D01*
X011925Y010651D02*
X008924Y010651D01*
X011925Y010651D01*
X011765Y011006D02*
X008970Y011006D01*
X011765Y011006D01*
X011647Y011125D02*
X008970Y011125D01*
X011647Y011125D01*
X011528Y011243D02*
X008970Y011243D01*
X011528Y011243D01*
X011410Y011362D02*
X008970Y011362D01*
X011410Y011362D01*
X011291Y011480D02*
X008970Y011480D01*
X011291Y011480D01*
X011173Y011599D02*
X008970Y011599D01*
X011173Y011599D01*
X011170Y011717D02*
X008970Y011717D01*
X011170Y011717D01*
X011170Y011836D02*
X008970Y011836D01*
X011170Y011836D01*
X011170Y011954D02*
X008970Y011954D01*
X011170Y011954D01*
X011143Y012073D02*
X008970Y012073D01*
X011143Y012073D01*
X011950Y013021D02*
X016392Y013021D01*
X011950Y013021D01*
X011950Y013139D02*
X016077Y013139D01*
X011950Y013139D01*
X011950Y013258D02*
X016007Y013258D01*
X011950Y013258D01*
X011950Y013376D02*
X015992Y013376D01*
X011950Y013376D01*
X011950Y013495D02*
X016021Y013495D01*
X011950Y013495D01*
X011950Y013613D02*
X016109Y013613D01*
X011950Y013613D01*
X011950Y013732D02*
X016130Y013732D01*
X011950Y013732D01*
X011950Y013850D02*
X016130Y013850D01*
X011950Y013850D01*
X011950Y013969D02*
X016130Y013969D01*
X011950Y013969D01*
X011950Y014087D02*
X016089Y014087D01*
X011950Y014087D01*
X011950Y014206D02*
X016012Y014206D01*
X011950Y014206D01*
X011953Y014324D02*
X015992Y014324D01*
X011953Y014324D01*
X012071Y014443D02*
X016016Y014443D01*
X012071Y014443D01*
X012190Y014561D02*
X016097Y014561D01*
X012190Y014561D01*
X012308Y014680D02*
X016632Y014680D01*
X012308Y014680D01*
X012427Y014798D02*
X016637Y014798D01*
X012427Y014798D01*
X012545Y014917D02*
X016693Y014917D01*
X012545Y014917D01*
X012793Y015035D02*
X016863Y015035D01*
X012793Y015035D01*
X012978Y015154D02*
X017170Y015154D01*
X012978Y015154D01*
X013039Y015272D02*
X017170Y015272D01*
X013039Y015272D01*
X013048Y015391D02*
X017170Y015391D01*
X013048Y015391D01*
X013013Y015509D02*
X017170Y015509D01*
X013013Y015509D01*
X012916Y015628D02*
X017170Y015628D01*
X012916Y015628D01*
X012720Y015360D02*
X012080Y014720D01*
X012008Y014917D02*
X011227Y014917D01*
X012008Y014917D01*
X012126Y015035D02*
X011057Y015035D01*
X012126Y015035D01*
X012524Y015628D02*
X011372Y015628D01*
X012524Y015628D01*
X012723Y016234D02*
X012792Y016211D01*
X012860Y016201D01*
X012860Y016920D01*
X012940Y016920D01*
X012940Y017000D01*
X013360Y017000D01*
X013360Y017296D01*
X013349Y017368D01*
X013326Y017437D01*
X013293Y017501D01*
X013251Y017560D01*
X013200Y017611D01*
X013141Y017653D01*
X013077Y017686D01*
X013008Y017709D01*
X012940Y017719D01*
X012940Y017000D01*
X012860Y017000D01*
X012860Y017719D01*
X012792Y017709D01*
X012723Y017686D01*
X012659Y017653D01*
X012600Y017611D01*
X012549Y017560D01*
X012507Y017501D01*
X012474Y017437D01*
X012451Y017368D01*
X012440Y017296D01*
X012440Y017000D01*
X012860Y017000D01*
X012860Y017719D01*
X012792Y017709D01*
X012723Y017686D01*
X012659Y017653D01*
X012600Y017611D01*
X012549Y017560D01*
X012507Y017501D01*
X012474Y017437D01*
X012451Y017368D01*
X012440Y017296D01*
X012440Y017000D01*
X012860Y017000D01*
X012940Y017000D01*
X013360Y017000D01*
X013360Y017296D01*
X013349Y017368D01*
X013326Y017437D01*
X013293Y017501D01*
X013251Y017560D01*
X013200Y017611D01*
X013141Y017653D01*
X013077Y017686D01*
X013008Y017709D01*
X012940Y017719D01*
X012940Y017000D01*
X012940Y016920D01*
X013360Y016920D01*
X013360Y016624D01*
X013349Y016552D01*
X013326Y016483D01*
X013293Y016419D01*
X013251Y016360D01*
X013200Y016309D01*
X013141Y016267D01*
X013077Y016234D01*
X013008Y016211D01*
X012940Y016201D01*
X012940Y016920D01*
X013360Y016920D01*
X013360Y016624D01*
X013349Y016552D01*
X013326Y016483D01*
X013293Y016419D01*
X013251Y016360D01*
X013200Y016309D01*
X013141Y016267D01*
X013077Y016234D01*
X013008Y016211D01*
X012940Y016201D01*
X012940Y016920D01*
X012860Y016920D01*
X012440Y016920D01*
X012440Y016624D01*
X012451Y016552D01*
X012474Y016483D01*
X012507Y016419D01*
X012549Y016360D01*
X012600Y016309D01*
X012659Y016267D01*
X012723Y016234D01*
X012792Y016211D01*
X012860Y016201D01*
X012860Y016920D01*
X012860Y017000D01*
X012860Y016920D01*
X012440Y016920D01*
X012440Y016624D01*
X012451Y016552D01*
X012474Y016483D01*
X012507Y016419D01*
X012549Y016360D01*
X012600Y016309D01*
X012659Y016267D01*
X012723Y016234D01*
X012765Y016220D02*
X004830Y016220D01*
X012765Y016220D01*
X012860Y016220D02*
X012940Y016220D01*
X012860Y016220D01*
X012860Y016339D02*
X012940Y016339D01*
X012860Y016339D01*
X012860Y016457D02*
X012940Y016457D01*
X012860Y016457D01*
X012860Y016576D02*
X012940Y016576D01*
X012860Y016576D01*
X012860Y016694D02*
X012940Y016694D01*
X012860Y016694D01*
X012860Y016813D02*
X012940Y016813D01*
X012860Y016813D01*
X012860Y016931D02*
X004830Y016931D01*
X012860Y016931D01*
X012940Y016931D02*
X013470Y016931D01*
X012940Y016931D01*
X012940Y017050D02*
X012860Y017050D01*
X012940Y017050D01*
X012940Y017168D02*
X012860Y017168D01*
X012940Y017168D01*
X012940Y017287D02*
X012860Y017287D01*
X012940Y017287D01*
X012940Y017405D02*
X012860Y017405D01*
X012940Y017405D01*
X012940Y017524D02*
X012860Y017524D01*
X012940Y017524D01*
X012940Y017642D02*
X012860Y017642D01*
X012940Y017642D01*
X013157Y017642D02*
X013670Y017642D01*
X013157Y017642D01*
X013277Y017524D02*
X013555Y017524D01*
X013277Y017524D01*
X013337Y017405D02*
X013495Y017405D01*
X013337Y017405D01*
X013360Y017287D02*
X013470Y017287D01*
X013360Y017287D01*
X013360Y017168D02*
X013470Y017168D01*
X013360Y017168D01*
X013360Y017050D02*
X013470Y017050D01*
X013360Y017050D01*
X013360Y016813D02*
X013470Y016813D01*
X013360Y016813D01*
X013360Y016694D02*
X013470Y016694D01*
X013360Y016694D01*
X013352Y016576D02*
X013470Y016576D01*
X013352Y016576D01*
X013313Y016457D02*
X013519Y016457D01*
X013313Y016457D01*
X013229Y016339D02*
X013613Y016339D01*
X013229Y016339D01*
X013035Y016220D02*
X016191Y016220D01*
X013035Y016220D01*
X012571Y016339D02*
X004830Y016339D01*
X012571Y016339D01*
X012487Y016457D02*
X004830Y016457D01*
X012487Y016457D01*
X012448Y016576D02*
X004830Y016576D01*
X012448Y016576D01*
X012440Y016694D02*
X004830Y016694D01*
X012440Y016694D01*
X012440Y016813D02*
X004830Y016813D01*
X012440Y016813D01*
X012440Y017050D02*
X004830Y017050D01*
X012440Y017050D01*
X012440Y017168D02*
X004830Y017168D01*
X012440Y017168D01*
X012440Y017287D02*
X004830Y017287D01*
X012440Y017287D01*
X012463Y017405D02*
X004830Y017405D01*
X012463Y017405D01*
X012523Y017524D02*
X004830Y017524D01*
X012523Y017524D01*
X012643Y017642D02*
X004830Y017642D01*
X012643Y017642D01*
X013670Y017761D02*
X004830Y017761D01*
X013670Y017761D01*
X013670Y017879D02*
X004830Y017879D01*
X013670Y017879D01*
X013670Y017998D02*
X007759Y017998D01*
X013670Y017998D01*
X013670Y018116D02*
X007940Y018116D01*
X013670Y018116D01*
X013652Y018235D02*
X008000Y018235D01*
X013652Y018235D01*
X013533Y018353D02*
X008008Y018353D01*
X013533Y018353D01*
X013415Y018472D02*
X007972Y018472D01*
X013415Y018472D01*
X013296Y018590D02*
X007874Y018590D01*
X013296Y018590D01*
X013178Y018709D02*
X007560Y018709D01*
X013178Y018709D01*
X013059Y018827D02*
X007442Y018827D01*
X013059Y018827D01*
X013411Y019183D02*
X024770Y019183D01*
X013411Y019183D01*
X013365Y019228D02*
X013687Y019550D01*
X013906Y019550D01*
X013974Y019482D01*
X014095Y019432D01*
X014225Y019432D01*
X014346Y019482D01*
X014438Y019574D01*
X014488Y019695D01*
X014488Y019825D01*
X014438Y019946D01*
X014346Y020038D01*
X014225Y020088D01*
X014095Y020088D01*
X013974Y020038D01*
X013906Y019970D01*
X013554Y019970D01*
X013558Y019974D01*
X013608Y020095D01*
X013608Y020225D01*
X013558Y020346D01*
X013466Y020438D01*
X013345Y020488D01*
X013215Y020488D01*
X013094Y020438D01*
X013002Y020346D01*
X012952Y020225D01*
X012952Y020101D01*
X012721Y019870D01*
X012557Y019870D01*
X012586Y019882D01*
X012678Y019974D01*
X012728Y020095D01*
X012728Y020225D01*
X012678Y020346D01*
X012590Y020434D01*
X012590Y021841D01*
X012639Y021890D01*
X013039Y021890D01*
X013150Y022001D01*
X013839Y022690D01*
X015134Y022690D01*
X015137Y022687D01*
X015112Y022625D01*
X015112Y022495D01*
X015162Y022374D01*
X015254Y022282D01*
X015375Y022232D01*
X015505Y022232D01*
X015626Y022282D01*
X015718Y022374D01*
X015768Y022495D01*
X015768Y022625D01*
X015741Y022690D01*
X020259Y022690D01*
X020232Y022625D01*
X020232Y022495D01*
X020282Y022374D01*
X020374Y022282D01*
X020495Y022232D01*
X020591Y022232D01*
X020670Y022153D01*
X020670Y021513D01*
X020793Y021390D01*
X020953Y021230D01*
X022633Y021230D01*
X023433Y020430D01*
X023586Y020430D01*
X023654Y020362D01*
X023775Y020312D01*
X023905Y020312D01*
X024026Y020362D01*
X024118Y020454D01*
X024168Y020575D01*
X024168Y020616D01*
X024202Y020534D01*
X024294Y020442D01*
X024415Y020392D01*
X024545Y020392D01*
X024666Y020442D01*
X024758Y020534D01*
X024770Y020563D01*
X024770Y013839D01*
X024568Y013637D01*
X024568Y013745D01*
X024518Y013866D01*
X024426Y013958D01*
X024305Y014008D01*
X024181Y014008D01*
X023790Y014399D01*
X023790Y016719D01*
X023630Y016879D01*
X023519Y016990D01*
X023341Y016990D01*
X023371Y017020D01*
X023413Y017079D01*
X023446Y017143D01*
X023469Y017212D01*
X023479Y017280D01*
X022760Y017280D01*
X022760Y017360D01*
X022680Y017360D01*
X022680Y017780D01*
X022384Y017780D01*
X022312Y017769D01*
X022243Y017746D01*
X022179Y017713D01*
X022120Y017671D01*
X022069Y017620D01*
X022027Y017561D01*
X021994Y017497D01*
X021971Y017428D01*
X021961Y017360D01*
X022680Y017360D01*
X022680Y017780D01*
X022384Y017780D01*
X022312Y017769D01*
X022243Y017746D01*
X022179Y017713D01*
X022120Y017671D01*
X022069Y017620D01*
X022027Y017561D01*
X021994Y017497D01*
X021971Y017428D01*
X021961Y017360D01*
X022680Y017360D01*
X022760Y017360D01*
X022760Y017780D01*
X023056Y017780D01*
X023128Y017769D01*
X023197Y017746D01*
X023261Y017713D01*
X023320Y017671D01*
X023371Y017620D01*
X023413Y017561D01*
X023446Y017497D01*
X023469Y017428D01*
X023479Y017360D01*
X022760Y017360D01*
X022760Y017780D01*
X023056Y017780D01*
X023128Y017769D01*
X023197Y017746D01*
X023261Y017713D01*
X023320Y017671D01*
X023371Y017620D01*
X023413Y017561D01*
X023446Y017497D01*
X023469Y017428D01*
X023479Y017360D01*
X022760Y017360D01*
X022760Y017280D01*
X023479Y017280D01*
X023469Y017212D01*
X023446Y017143D01*
X023413Y017079D01*
X023371Y017020D01*
X023341Y016990D01*
X023519Y016990D01*
X023630Y016879D01*
X023790Y016719D01*
X023790Y014399D01*
X024181Y014008D01*
X024305Y014008D01*
X024426Y013958D01*
X024518Y013866D01*
X024568Y013745D01*
X024568Y013637D01*
X024770Y013839D01*
X024770Y020563D01*
X024758Y020534D01*
X024666Y020442D01*
X024545Y020392D01*
X024415Y020392D01*
X024294Y020442D01*
X024202Y020534D01*
X024168Y020616D01*
X024168Y020575D01*
X024118Y020454D01*
X024026Y020362D01*
X023905Y020312D01*
X023775Y020312D01*
X023654Y020362D01*
X023586Y020430D01*
X023433Y020430D01*
X022633Y021230D01*
X020953Y021230D01*
X020793Y021390D01*
X020670Y021513D01*
X020670Y022153D01*
X020591Y022232D01*
X020495Y022232D01*
X020374Y022282D01*
X020282Y022374D01*
X020232Y022495D01*
X020232Y022625D01*
X020259Y022690D01*
X015741Y022690D01*
X015768Y022625D01*
X015768Y022495D01*
X015718Y022374D01*
X015626Y022282D01*
X015505Y022232D01*
X015375Y022232D01*
X015254Y022282D01*
X015162Y022374D01*
X015112Y022495D01*
X015112Y022625D01*
X015137Y022687D01*
X015134Y022690D01*
X013839Y022690D01*
X013150Y022001D01*
X013039Y021890D01*
X012639Y021890D01*
X012590Y021841D01*
X012590Y020434D01*
X012678Y020346D01*
X012728Y020225D01*
X012728Y020095D01*
X012678Y019974D01*
X012586Y019882D01*
X012557Y019870D01*
X012721Y019870D01*
X012952Y020101D01*
X012952Y020225D01*
X013002Y020346D01*
X013094Y020438D01*
X013215Y020488D01*
X013345Y020488D01*
X013466Y020438D01*
X013558Y020346D01*
X013608Y020225D01*
X013608Y020095D01*
X013558Y019974D01*
X013554Y019970D01*
X013906Y019970D01*
X013974Y020038D01*
X014095Y020088D01*
X014225Y020088D01*
X014346Y020038D01*
X014438Y019946D01*
X014488Y019825D01*
X014488Y019695D01*
X014438Y019574D01*
X014346Y019482D01*
X014225Y019432D01*
X014095Y019432D01*
X013974Y019482D01*
X013906Y019550D01*
X013687Y019550D01*
X013365Y019228D01*
X014062Y018532D01*
X014104Y018490D01*
X015336Y018490D01*
X015338Y018492D01*
X015538Y018692D01*
X015630Y018730D01*
X023066Y018730D01*
X023094Y018758D01*
X023215Y018808D01*
X023345Y018808D01*
X023466Y018758D01*
X023558Y018666D01*
X023608Y018545D01*
X023608Y018415D01*
X023558Y018294D01*
X023489Y018225D01*
X024532Y017182D01*
X024570Y017090D01*
X024570Y015654D01*
X024598Y015626D01*
X024648Y015505D01*
X024648Y015375D01*
X024598Y015254D01*
X024506Y015162D01*
X024385Y015112D01*
X024255Y015112D01*
X024134Y015162D01*
X024042Y015254D01*
X023992Y015375D01*
X023992Y015505D01*
X024042Y015626D01*
X024070Y015654D01*
X024070Y016936D01*
X022776Y018230D01*
X016764Y018230D01*
X018462Y016532D01*
X018532Y016462D01*
X018570Y016370D01*
X018570Y013570D01*
X018739Y013570D01*
X018762Y013626D01*
X018854Y013718D01*
X018975Y013768D01*
X019105Y013768D01*
X019226Y013718D01*
X019318Y013626D01*
X019368Y013505D01*
X019368Y013375D01*
X019318Y013254D01*
X019226Y013162D01*
X019105Y013112D01*
X018975Y013112D01*
X018883Y013150D01*
X018647Y013150D01*
X018570Y013073D01*
X018570Y012744D01*
X018612Y012702D01*
X018650Y012610D01*
X018650Y012010D01*
X021410Y012010D01*
X021502Y011972D01*
X021832Y011642D01*
X021832Y011665D01*
X021882Y011786D01*
X021974Y011878D01*
X022070Y011918D01*
X022070Y013490D01*
X022108Y013582D01*
X022178Y013652D01*
X022358Y013832D01*
X022450Y013870D01*
X022578Y013870D01*
X022718Y014010D01*
X023042Y014010D01*
X023270Y013782D01*
X023270Y013458D01*
X023042Y013230D01*
X022718Y013230D01*
X022591Y013357D01*
X022570Y013336D01*
X022570Y012904D01*
X022706Y013040D01*
X022860Y013040D01*
X022860Y012640D01*
X022900Y012640D01*
X022900Y013040D01*
X023054Y013040D01*
X023300Y012794D01*
X023300Y012640D01*
X022900Y012640D01*
X022900Y012600D01*
X023300Y012600D01*
X023300Y012446D01*
X023054Y012200D01*
X022900Y012200D01*
X022900Y012600D01*
X022900Y012640D01*
X022860Y012640D01*
X022860Y013040D01*
X022706Y013040D01*
X022570Y012904D01*
X022570Y013336D01*
X022591Y013357D01*
X022718Y013230D01*
X023042Y013230D01*
X023270Y013458D01*
X023270Y013782D01*
X023042Y014010D01*
X022718Y014010D01*
X022578Y013870D01*
X022450Y013870D01*
X022358Y013832D01*
X022178Y013652D01*
X022108Y013582D01*
X022070Y013490D01*
X022070Y011918D01*
X021974Y011878D01*
X021882Y011786D01*
X021832Y011665D01*
X021832Y011642D01*
X021502Y011972D01*
X021410Y012010D01*
X018650Y012010D01*
X018650Y012610D01*
X018612Y012702D01*
X018570Y012744D01*
X018570Y013073D01*
X018647Y013150D01*
X018883Y013150D01*
X018975Y013112D01*
X019105Y013112D01*
X019226Y013162D01*
X019318Y013254D01*
X019368Y013375D01*
X019368Y013505D01*
X019318Y013626D01*
X019226Y013718D01*
X019105Y013768D01*
X018975Y013768D01*
X018854Y013718D01*
X018762Y013626D01*
X018739Y013570D01*
X018570Y013570D01*
X018570Y016370D01*
X018532Y016462D01*
X018462Y016532D01*
X016764Y018230D01*
X022776Y018230D01*
X024070Y016936D01*
X024070Y015654D01*
X024042Y015626D01*
X023992Y015505D01*
X023992Y015375D01*
X024042Y015254D01*
X024134Y015162D01*
X024255Y015112D01*
X024385Y015112D01*
X024506Y015162D01*
X024598Y015254D01*
X024648Y015375D01*
X024648Y015505D01*
X024598Y015626D01*
X024570Y015654D01*
X024570Y017090D01*
X024532Y017182D01*
X023489Y018225D01*
X023558Y018294D01*
X023608Y018415D01*
X023608Y018545D01*
X023558Y018666D01*
X023466Y018758D01*
X023345Y018808D01*
X023215Y018808D01*
X023094Y018758D01*
X023066Y018730D01*
X015630Y018730D01*
X015538Y018692D01*
X015338Y018492D01*
X015336Y018490D01*
X014104Y018490D01*
X014062Y018532D01*
X013365Y019228D01*
X013438Y019301D02*
X024770Y019301D01*
X013438Y019301D01*
X013557Y019420D02*
X024770Y019420D01*
X013557Y019420D01*
X013675Y019538D02*
X013918Y019538D01*
X013675Y019538D01*
X013574Y020012D02*
X013948Y020012D01*
X013574Y020012D01*
X013608Y020131D02*
X022414Y020131D01*
X013608Y020131D01*
X013598Y020249D02*
X022414Y020249D01*
X013598Y020249D01*
X013536Y020368D02*
X022481Y020368D01*
X013536Y020368D01*
X013350Y020486D02*
X021922Y020486D01*
X013350Y020486D01*
X013210Y020486D02*
X012590Y020486D01*
X013210Y020486D01*
X013024Y020368D02*
X012656Y020368D01*
X013024Y020368D01*
X012962Y020249D02*
X012718Y020249D01*
X012962Y020249D01*
X012952Y020131D02*
X012728Y020131D01*
X012952Y020131D01*
X012863Y020012D02*
X012694Y020012D01*
X012863Y020012D01*
X012745Y019894D02*
X012598Y019894D01*
X012745Y019894D01*
X012800Y019680D02*
X013280Y020160D01*
X014372Y020012D02*
X022414Y020012D01*
X014372Y020012D01*
X014460Y019894D02*
X022472Y019894D01*
X014460Y019894D01*
X014488Y019775D02*
X022591Y019775D01*
X014488Y019775D01*
X014472Y019657D02*
X024770Y019657D01*
X014472Y019657D01*
X014402Y019538D02*
X024770Y019538D01*
X014402Y019538D01*
X013530Y019064D02*
X024770Y019064D01*
X013530Y019064D01*
X013648Y018946D02*
X024770Y018946D01*
X013648Y018946D01*
X013767Y018827D02*
X024770Y018827D01*
X013767Y018827D01*
X013885Y018709D02*
X015578Y018709D01*
X013885Y018709D01*
X014004Y018590D02*
X015436Y018590D01*
X014004Y018590D01*
X014170Y017879D02*
X015527Y017879D01*
X014170Y017879D01*
X014170Y017761D02*
X016526Y017761D01*
X014170Y017761D01*
X014170Y017642D02*
X014699Y017642D01*
X014170Y017642D01*
X014245Y017524D02*
X014555Y017524D01*
X014245Y017524D01*
X014305Y017405D02*
X014495Y017405D01*
X014305Y017405D01*
X014330Y017287D02*
X014470Y017287D01*
X014330Y017287D01*
X014330Y017168D02*
X014470Y017168D01*
X014330Y017168D01*
X014330Y017050D02*
X014470Y017050D01*
X014330Y017050D01*
X014330Y016931D02*
X014470Y016931D01*
X014330Y016931D01*
X014330Y016813D02*
X014470Y016813D01*
X014330Y016813D01*
X014330Y016694D02*
X014470Y016694D01*
X014330Y016694D01*
X014330Y016576D02*
X014470Y016576D01*
X014330Y016576D01*
X014281Y016457D02*
X014519Y016457D01*
X014281Y016457D01*
X014187Y016339D02*
X014613Y016339D01*
X014187Y016339D01*
X014535Y016416D02*
X014656Y016295D01*
X014814Y016230D01*
X014986Y016230D01*
X015144Y016295D01*
X015265Y016416D01*
X015330Y016574D01*
X015330Y017346D01*
X015265Y017504D01*
X015144Y017625D01*
X014986Y017690D01*
X014814Y017690D01*
X014656Y017625D01*
X014535Y017504D01*
X014470Y017346D01*
X014470Y016574D01*
X014535Y016416D01*
X014656Y016295D01*
X014814Y016230D01*
X014986Y016230D01*
X015144Y016295D01*
X015265Y016416D01*
X015330Y016574D01*
X015330Y017346D01*
X015265Y017504D01*
X015144Y017625D01*
X014986Y017690D01*
X014814Y017690D01*
X014656Y017625D01*
X014535Y017504D01*
X014470Y017346D01*
X014470Y016574D01*
X014535Y016416D01*
X015187Y016339D02*
X015613Y016339D01*
X015187Y016339D01*
X015281Y016457D02*
X015519Y016457D01*
X015281Y016457D01*
X015330Y016576D02*
X015470Y016576D01*
X015330Y016576D01*
X015330Y016694D02*
X015470Y016694D01*
X015330Y016694D01*
X015330Y016813D02*
X015470Y016813D01*
X015330Y016813D01*
X015330Y016931D02*
X015470Y016931D01*
X015330Y016931D01*
X015330Y017050D02*
X015470Y017050D01*
X015330Y017050D01*
X015330Y017168D02*
X015470Y017168D01*
X015330Y017168D01*
X015330Y017287D02*
X015470Y017287D01*
X015330Y017287D01*
X015305Y017405D02*
X015495Y017405D01*
X015305Y017405D01*
X015245Y017524D02*
X015555Y017524D01*
X015245Y017524D01*
X015101Y017642D02*
X015699Y017642D01*
X015101Y017642D01*
X016101Y017642D02*
X016644Y017642D01*
X016101Y017642D01*
X016245Y017524D02*
X016763Y017524D01*
X016245Y017524D01*
X016305Y017405D02*
X016881Y017405D01*
X016305Y017405D01*
X016330Y017287D02*
X017000Y017287D01*
X016330Y017287D01*
X016330Y017168D02*
X017118Y017168D01*
X016330Y017168D01*
X015900Y016960D02*
X016800Y016960D01*
X017360Y016400D01*
X017360Y014480D01*
X017200Y014320D01*
X017200Y013920D01*
X017680Y013440D01*
X017680Y012720D01*
X017840Y012880D01*
X017920Y012880D01*
X017680Y012720D02*
X017360Y012400D01*
X016800Y012400D01*
X016506Y012547D02*
X016362Y012547D01*
X016506Y012547D01*
X016601Y012665D02*
X014328Y012665D01*
X016601Y012665D01*
X016512Y012784D02*
X014296Y012784D01*
X016512Y012784D01*
X016422Y012902D02*
X014202Y012902D01*
X016422Y012902D01*
X016720Y013040D02*
X016720Y014480D01*
X016960Y014720D01*
X017550Y014680D02*
X018070Y014680D01*
X017550Y014680D01*
X017550Y014798D02*
X018070Y014798D01*
X017550Y014798D01*
X017550Y014917D02*
X018070Y014917D01*
X017550Y014917D01*
X017550Y015035D02*
X018070Y015035D01*
X017550Y015035D01*
X017550Y015154D02*
X018070Y015154D01*
X017550Y015154D01*
X017550Y015272D02*
X018070Y015272D01*
X017550Y015272D01*
X017550Y015391D02*
X018070Y015391D01*
X017550Y015391D01*
X017550Y015509D02*
X018070Y015509D01*
X017550Y015509D01*
X017550Y015628D02*
X018070Y015628D01*
X017550Y015628D01*
X017550Y015746D02*
X018070Y015746D01*
X017550Y015746D01*
X017550Y015865D02*
X018070Y015865D01*
X017550Y015865D01*
X017550Y015983D02*
X018070Y015983D01*
X017550Y015983D01*
X017550Y016102D02*
X018070Y016102D01*
X017550Y016102D01*
X017550Y016220D02*
X018066Y016220D01*
X017550Y016220D01*
X017550Y016339D02*
X017948Y016339D01*
X017550Y016339D01*
X017550Y016457D02*
X017829Y016457D01*
X017550Y016457D01*
X017453Y016576D02*
X017711Y016576D01*
X017453Y016576D01*
X017335Y016694D02*
X017592Y016694D01*
X017335Y016694D01*
X017216Y016813D02*
X017474Y016813D01*
X017216Y016813D01*
X017098Y016931D02*
X017355Y016931D01*
X017098Y016931D01*
X016979Y017050D02*
X017237Y017050D01*
X016979Y017050D01*
X017470Y017524D02*
X020572Y017524D01*
X017470Y017524D01*
X017352Y017642D02*
X020494Y017642D01*
X017352Y017642D01*
X017233Y017761D02*
X020472Y017761D01*
X017233Y017761D01*
X017115Y017879D02*
X020494Y017879D01*
X017115Y017879D01*
X016996Y017998D02*
X020574Y017998D01*
X016996Y017998D01*
X016878Y018116D02*
X022890Y018116D01*
X016878Y018116D01*
X017589Y017405D02*
X020886Y017405D01*
X017589Y017405D01*
X017707Y017287D02*
X021005Y017287D01*
X017707Y017287D01*
X017826Y017168D02*
X021123Y017168D01*
X017826Y017168D01*
X017944Y017050D02*
X021242Y017050D01*
X017944Y017050D01*
X018063Y016931D02*
X021360Y016931D01*
X018063Y016931D01*
X018181Y016813D02*
X021479Y016813D01*
X018181Y016813D01*
X018300Y016694D02*
X021597Y016694D01*
X018300Y016694D01*
X018418Y016576D02*
X022067Y016576D01*
X018418Y016576D01*
X018534Y016457D02*
X022011Y016457D01*
X018534Y016457D01*
X018570Y016339D02*
X021990Y016339D01*
X018570Y016339D01*
X018570Y016220D02*
X021996Y016220D01*
X018570Y016220D01*
X018570Y016102D02*
X022045Y016102D01*
X018570Y016102D01*
X018570Y015983D02*
X022149Y015983D01*
X018570Y015983D01*
X018570Y015865D02*
X023410Y015865D01*
X018570Y015865D01*
X018570Y015746D02*
X022325Y015746D01*
X018570Y015746D01*
X018570Y015628D02*
X022119Y015628D01*
X018570Y015628D01*
X018570Y015509D02*
X022033Y015509D01*
X018570Y015509D01*
X018570Y015391D02*
X018927Y015391D01*
X018570Y015391D01*
X018570Y015272D02*
X018828Y015272D01*
X018570Y015272D01*
X018570Y015154D02*
X018792Y015154D01*
X018570Y015154D01*
X018570Y015035D02*
X018800Y015035D01*
X018570Y015035D01*
X018570Y014917D02*
X018859Y014917D01*
X018570Y014917D01*
X018570Y014798D02*
X019040Y014798D01*
X018570Y014798D01*
X018570Y014680D02*
X019292Y014680D01*
X018570Y014680D01*
X018570Y014561D02*
X019410Y014561D01*
X018570Y014561D01*
X018570Y014443D02*
X019529Y014443D01*
X018570Y014443D01*
X018570Y014324D02*
X019570Y014324D01*
X018570Y014324D01*
X018570Y014206D02*
X019570Y014206D01*
X018570Y014206D01*
X018570Y014087D02*
X019570Y014087D01*
X018570Y014087D01*
X018570Y013969D02*
X019570Y013969D01*
X018570Y013969D01*
X018570Y013850D02*
X019570Y013850D01*
X018570Y013850D01*
X018570Y013732D02*
X018886Y013732D01*
X018570Y013732D01*
X018570Y013613D02*
X018757Y013613D01*
X018570Y013613D01*
X018070Y013613D02*
X017776Y013613D01*
X018070Y013613D01*
X018070Y013495D02*
X017870Y013495D01*
X018070Y013495D01*
X018070Y013376D02*
X017870Y013376D01*
X018070Y013376D01*
X018070Y013258D02*
X017870Y013258D01*
X018070Y013258D01*
X018570Y013021D02*
X022070Y013021D01*
X018570Y013021D01*
X018570Y012902D02*
X022070Y012902D01*
X018570Y012902D01*
X018570Y012784D02*
X022070Y012784D01*
X018570Y012784D01*
X018627Y012665D02*
X022070Y012665D01*
X018627Y012665D01*
X018650Y012547D02*
X022070Y012547D01*
X018650Y012547D01*
X018650Y012428D02*
X022070Y012428D01*
X018650Y012428D01*
X018650Y012310D02*
X022070Y012310D01*
X018650Y012310D01*
X018650Y012191D02*
X022070Y012191D01*
X018650Y012191D01*
X018650Y012073D02*
X022070Y012073D01*
X018650Y012073D01*
X018150Y012073D02*
X018126Y012073D01*
X018150Y012073D01*
X018097Y011954D02*
X018007Y011954D01*
X018097Y011954D01*
X018070Y011836D02*
X017678Y011836D01*
X018070Y011836D01*
X017840Y012240D02*
X017629Y012029D01*
X017559Y012000D02*
X016640Y012000D01*
X016240Y012400D01*
X014240Y012400D01*
X014000Y012640D01*
X016320Y013360D02*
X016320Y014320D01*
X017390Y014206D02*
X018070Y014206D01*
X017390Y014206D01*
X017390Y014087D02*
X018070Y014087D01*
X017390Y014087D01*
X017420Y013969D02*
X018070Y013969D01*
X017420Y013969D01*
X017539Y013850D02*
X018070Y013850D01*
X017539Y013850D01*
X017657Y013732D02*
X018070Y013732D01*
X017657Y013732D01*
X018636Y013139D02*
X018909Y013139D01*
X018636Y013139D01*
X019171Y013139D02*
X019517Y013139D01*
X019171Y013139D01*
X019320Y013258D02*
X019447Y013258D01*
X019320Y013258D01*
X019432Y013295D02*
X019482Y013174D01*
X019574Y013082D01*
X019695Y013032D01*
X019825Y013032D01*
X019946Y013082D01*
X020038Y013174D01*
X020088Y013295D01*
X020088Y013425D01*
X020038Y013546D01*
X019950Y013634D01*
X019950Y014559D01*
X019448Y015061D01*
X019448Y015185D01*
X019398Y015306D01*
X019306Y015398D01*
X019185Y015448D01*
X019055Y015448D01*
X018934Y015398D01*
X018842Y015306D01*
X018792Y015185D01*
X018792Y015055D01*
X018842Y014934D01*
X018934Y014842D01*
X019055Y014792D01*
X019179Y014792D01*
X019570Y014401D01*
X019570Y013634D01*
X019482Y013546D01*
X019432Y013425D01*
X019432Y013295D01*
X019482Y013174D01*
X019574Y013082D01*
X019695Y013032D01*
X019825Y013032D01*
X019946Y013082D01*
X020038Y013174D01*
X020088Y013295D01*
X020088Y013425D01*
X020038Y013546D01*
X019950Y013634D01*
X019950Y014559D01*
X019448Y015061D01*
X019448Y015185D01*
X019398Y015306D01*
X019306Y015398D01*
X019185Y015448D01*
X019055Y015448D01*
X018934Y015398D01*
X018842Y015306D01*
X018792Y015185D01*
X018792Y015055D01*
X018842Y014934D01*
X018934Y014842D01*
X019055Y014792D01*
X019179Y014792D01*
X019570Y014401D01*
X019570Y013634D01*
X019482Y013546D01*
X019432Y013425D01*
X019432Y013295D01*
X019432Y013376D02*
X019368Y013376D01*
X019432Y013376D01*
X019461Y013495D02*
X019368Y013495D01*
X019461Y013495D01*
X019549Y013613D02*
X019323Y013613D01*
X019549Y013613D01*
X019570Y013732D02*
X019194Y013732D01*
X019570Y013732D01*
X019950Y013732D02*
X022258Y013732D01*
X019950Y013732D01*
X019950Y013850D02*
X022402Y013850D01*
X019950Y013850D01*
X019950Y013969D02*
X022677Y013969D01*
X019950Y013969D01*
X019950Y014087D02*
X023564Y014087D01*
X019950Y014087D01*
X019950Y014206D02*
X023446Y014206D01*
X019950Y014206D01*
X019950Y014324D02*
X023410Y014324D01*
X019950Y014324D01*
X019950Y014443D02*
X023410Y014443D01*
X019950Y014443D01*
X019948Y014561D02*
X023410Y014561D01*
X019948Y014561D01*
X019829Y014680D02*
X023410Y014680D01*
X019829Y014680D01*
X019711Y014798D02*
X023410Y014798D01*
X019711Y014798D01*
X019592Y014917D02*
X022270Y014917D01*
X019592Y014917D01*
X019474Y015035D02*
X022097Y015035D01*
X019474Y015035D01*
X019448Y015154D02*
X022024Y015154D01*
X019448Y015154D01*
X019412Y015272D02*
X021990Y015272D01*
X019412Y015272D01*
X019313Y015391D02*
X021990Y015391D01*
X019313Y015391D01*
X019120Y015120D02*
X019760Y014480D01*
X019760Y013360D01*
X020059Y013495D02*
X022072Y013495D01*
X020059Y013495D01*
X020088Y013376D02*
X022070Y013376D01*
X020088Y013376D01*
X020073Y013258D02*
X022070Y013258D01*
X020073Y013258D01*
X020003Y013139D02*
X022070Y013139D01*
X020003Y013139D01*
X019971Y013613D02*
X022139Y013613D01*
X019971Y013613D01*
X018070Y014324D02*
X017473Y014324D01*
X018070Y014324D01*
X018070Y014443D02*
X017550Y014443D01*
X018070Y014443D01*
X018070Y014561D02*
X017550Y014561D01*
X018070Y014561D01*
X017170Y015035D02*
X017057Y015035D01*
X017170Y015035D01*
X017170Y015746D02*
X016255Y015746D01*
X017170Y015746D01*
X017170Y015865D02*
X016373Y015865D01*
X017170Y015865D01*
X017170Y015983D02*
X016492Y015983D01*
X017170Y015983D01*
X017170Y016102D02*
X016806Y016102D01*
X017170Y016102D01*
X017170Y016220D02*
X016874Y016220D01*
X017170Y016220D01*
X017153Y016339D02*
X016888Y016339D01*
X017153Y016339D01*
X017034Y016457D02*
X016858Y016457D01*
X017034Y016457D01*
X016916Y016576D02*
X016768Y016576D01*
X016916Y016576D01*
X016797Y016694D02*
X016330Y016694D01*
X016797Y016694D01*
X016560Y016320D02*
X016080Y015840D01*
X011120Y015840D01*
X011322Y016102D02*
X016073Y016102D01*
X011322Y016102D01*
X011147Y014443D02*
X011570Y014443D01*
X011147Y014443D01*
X016187Y016339D02*
X016232Y016339D01*
X016187Y016339D01*
X016330Y016576D02*
X016352Y016576D01*
X016330Y016576D01*
X020472Y017695D02*
X020522Y017574D01*
X020614Y017482D01*
X020735Y017432D01*
X020859Y017432D01*
X021681Y016610D01*
X022102Y016610D01*
X022055Y016564D01*
X021990Y016406D01*
X021990Y016234D01*
X022055Y016076D01*
X022176Y015955D01*
X022334Y015890D01*
X023106Y015890D01*
X023264Y015955D01*
X023385Y016076D01*
X023410Y016138D01*
X023410Y015502D01*
X023385Y015564D01*
X023264Y015685D01*
X023106Y015750D01*
X022334Y015750D01*
X022176Y015685D01*
X022055Y015564D01*
X021990Y015406D01*
X021990Y015234D01*
X022055Y015076D01*
X022176Y014955D01*
X022334Y014890D01*
X023106Y014890D01*
X023264Y014955D01*
X023385Y015076D01*
X023410Y015138D01*
X023410Y014241D01*
X023521Y014130D01*
X023912Y013739D01*
X023912Y013615D01*
X023962Y013494D01*
X024054Y013402D01*
X024175Y013352D01*
X024283Y013352D01*
X023761Y012830D01*
X023650Y012719D01*
X023650Y012674D01*
X023562Y012586D01*
X023512Y012465D01*
X023512Y012335D01*
X023562Y012214D01*
X023654Y012122D01*
X023775Y012072D01*
X023905Y012072D01*
X024026Y012122D01*
X024118Y012214D01*
X024168Y012335D01*
X024168Y012465D01*
X024118Y012586D01*
X024086Y012618D01*
X024770Y013301D01*
X024770Y012799D01*
X024690Y012719D01*
X024610Y012639D01*
X024610Y011154D01*
X024522Y011066D01*
X024472Y010945D01*
X024472Y010815D01*
X024522Y010694D01*
X024614Y010602D01*
X024735Y010552D01*
X024770Y010552D01*
X024770Y005194D01*
X024762Y005168D01*
X024770Y005094D01*
X024770Y005019D01*
X024775Y005006D01*
X024778Y004942D01*
X024742Y004695D01*
X024647Y004464D01*
X024498Y004263D01*
X024305Y004104D01*
X024078Y003998D01*
X023833Y003950D01*
X023782Y003950D01*
X023781Y003950D01*
X023694Y003950D01*
X023606Y003955D01*
X023593Y003950D01*
X023438Y003950D01*
X023610Y004122D01*
X023610Y004478D01*
X023358Y004730D01*
X023019Y004730D01*
X022830Y004919D01*
X022830Y005042D01*
X023002Y004870D01*
X023358Y004870D01*
X023610Y005122D01*
X023610Y005478D01*
X023358Y005730D01*
X023002Y005730D01*
X022830Y005558D01*
X022830Y005839D01*
X022559Y006110D01*
X022079Y006110D01*
X022030Y006159D01*
X022030Y008339D01*
X022095Y008312D01*
X022225Y008312D01*
X022346Y008362D01*
X022438Y008454D01*
X022488Y008575D01*
X022488Y008705D01*
X022466Y008758D01*
X022990Y009281D01*
X022990Y009295D01*
X023405Y009710D01*
X023447Y009710D01*
X023730Y009993D01*
X023730Y010790D01*
X023810Y010790D01*
X023902Y010828D01*
X024105Y011032D01*
X024145Y011032D01*
X024266Y011082D01*
X024358Y011174D01*
X024408Y011295D01*
X024408Y011425D01*
X024358Y011546D01*
X024266Y011638D01*
X024145Y011688D01*
X024015Y011688D01*
X023894Y011638D01*
X023826Y011570D01*
X023673Y011570D01*
X023433Y011330D01*
X023393Y011290D01*
X022269Y011290D01*
X022346Y011322D01*
X022438Y011414D01*
X022488Y011535D01*
X022488Y011575D01*
X022532Y011618D01*
X022570Y011710D01*
X022570Y012336D01*
X022706Y012200D01*
X022860Y012200D01*
X022860Y012600D01*
X022900Y012600D01*
X023300Y012600D01*
X023300Y012446D01*
X023054Y012200D01*
X022900Y012200D01*
X022900Y012600D01*
X022860Y012600D01*
X022860Y012200D01*
X022706Y012200D01*
X022570Y012336D01*
X022570Y011710D01*
X022532Y011618D01*
X022488Y011575D01*
X022488Y011535D01*
X022438Y011414D01*
X022346Y011322D01*
X022269Y011290D01*
X023393Y011290D01*
X023433Y011330D01*
X023673Y011570D01*
X023826Y011570D01*
X023894Y011638D01*
X024015Y011688D01*
X024145Y011688D01*
X024266Y011638D01*
X024358Y011546D01*
X024408Y011425D01*
X024408Y011295D01*
X024358Y011174D01*
X024266Y011082D01*
X024145Y011032D01*
X024105Y011032D01*
X023902Y010828D01*
X023810Y010790D01*
X023730Y010790D01*
X023730Y009993D01*
X023447Y009710D01*
X023405Y009710D01*
X022990Y009295D01*
X022990Y009281D01*
X022466Y008758D01*
X022488Y008705D01*
X022488Y008575D01*
X022438Y008454D01*
X022346Y008362D01*
X022225Y008312D01*
X022095Y008312D01*
X022030Y008339D01*
X022030Y006159D01*
X022079Y006110D01*
X022559Y006110D01*
X022830Y005839D01*
X022830Y005558D01*
X023002Y005730D01*
X023358Y005730D01*
X023610Y005478D01*
X023610Y005122D01*
X023358Y004870D01*
X023002Y004870D01*
X022830Y005042D01*
X022830Y004919D01*
X023019Y004730D01*
X023358Y004730D01*
X023610Y004478D01*
X023610Y004122D01*
X023438Y003950D01*
X023593Y003950D01*
X023606Y003955D01*
X023694Y003950D01*
X023781Y003950D01*
X023782Y003950D01*
X023833Y003950D01*
X024078Y003998D01*
X024305Y004104D01*
X024498Y004263D01*
X024647Y004464D01*
X024742Y004695D01*
X024778Y004942D01*
X024775Y005006D01*
X024770Y005019D01*
X024770Y005094D01*
X024762Y005168D01*
X024770Y005194D01*
X024770Y010552D01*
X024735Y010552D01*
X024614Y010602D01*
X024522Y010694D01*
X024472Y010815D01*
X024472Y010945D01*
X024522Y011066D01*
X024610Y011154D01*
X024610Y012639D01*
X024690Y012719D01*
X024770Y012799D01*
X024770Y013301D01*
X024086Y012618D01*
X024118Y012586D01*
X024168Y012465D01*
X024168Y012335D01*
X024118Y012214D01*
X024026Y012122D01*
X023905Y012072D01*
X023775Y012072D01*
X023654Y012122D01*
X023562Y012214D01*
X023512Y012335D01*
X023512Y012465D01*
X023562Y012586D01*
X023650Y012674D01*
X023650Y012719D01*
X023761Y012830D01*
X024283Y013352D01*
X024175Y013352D01*
X024054Y013402D01*
X023962Y013494D01*
X023912Y013615D01*
X023912Y013739D01*
X023521Y014130D01*
X023410Y014241D01*
X023410Y015138D01*
X023385Y015076D01*
X023264Y014955D01*
X023106Y014890D01*
X022334Y014890D01*
X022176Y014955D01*
X022055Y015076D01*
X021990Y015234D01*
X021990Y015406D01*
X022055Y015564D01*
X022176Y015685D01*
X022334Y015750D01*
X023106Y015750D01*
X023264Y015685D01*
X023385Y015564D01*
X023410Y015502D01*
X023410Y016138D01*
X023385Y016076D01*
X023264Y015955D01*
X023106Y015890D01*
X022334Y015890D01*
X022176Y015955D01*
X022055Y016076D01*
X021990Y016234D01*
X021990Y016406D01*
X022055Y016564D01*
X022102Y016610D01*
X021681Y016610D01*
X020859Y017432D01*
X020735Y017432D01*
X020614Y017482D01*
X020522Y017574D01*
X020472Y017695D01*
X020472Y017825D01*
X020522Y017946D01*
X020614Y018038D01*
X020735Y018088D01*
X020865Y018088D01*
X020986Y018038D01*
X021078Y017946D01*
X021128Y017825D01*
X021128Y017701D01*
X021839Y016990D01*
X022099Y016990D01*
X022069Y017020D01*
X022027Y017079D01*
X021994Y017143D01*
X021971Y017212D01*
X021961Y017280D01*
X022680Y017280D01*
X022680Y017360D01*
X022680Y017280D01*
X021961Y017280D01*
X021971Y017212D01*
X021994Y017143D01*
X022027Y017079D01*
X022069Y017020D01*
X022099Y016990D01*
X021839Y016990D01*
X021128Y017701D01*
X021128Y017825D01*
X021078Y017946D01*
X020986Y018038D01*
X020865Y018088D01*
X020735Y018088D01*
X020614Y018038D01*
X020522Y017946D01*
X020472Y017825D01*
X020472Y017695D01*
X020800Y017760D02*
X021760Y016800D01*
X023440Y016800D01*
X023600Y016640D01*
X023600Y014320D01*
X024240Y013680D01*
X024116Y013376D02*
X023188Y013376D01*
X024116Y013376D01*
X024189Y013258D02*
X023069Y013258D01*
X024189Y013258D01*
X024070Y013139D02*
X022570Y013139D01*
X024070Y013139D01*
X023952Y013021D02*
X023073Y013021D01*
X023952Y013021D01*
X023833Y012902D02*
X023192Y012902D01*
X023833Y012902D01*
X023715Y012784D02*
X023300Y012784D01*
X023715Y012784D01*
X023641Y012665D02*
X023300Y012665D01*
X023641Y012665D01*
X023546Y012547D02*
X023300Y012547D01*
X023546Y012547D01*
X023512Y012428D02*
X023282Y012428D01*
X023512Y012428D01*
X023522Y012310D02*
X023163Y012310D01*
X023522Y012310D01*
X023585Y012191D02*
X022570Y012191D01*
X023585Y012191D01*
X023773Y012073D02*
X022570Y012073D01*
X023773Y012073D01*
X023907Y012073D02*
X024610Y012073D01*
X023907Y012073D01*
X024095Y012191D02*
X024610Y012191D01*
X024095Y012191D01*
X024158Y012310D02*
X024610Y012310D01*
X024158Y012310D01*
X024168Y012428D02*
X024610Y012428D01*
X024168Y012428D01*
X024134Y012547D02*
X024610Y012547D01*
X024134Y012547D01*
X024134Y012665D02*
X024636Y012665D01*
X024134Y012665D01*
X024252Y012784D02*
X024755Y012784D01*
X024252Y012784D01*
X024371Y012902D02*
X024770Y012902D01*
X024371Y012902D01*
X024489Y013021D02*
X024770Y013021D01*
X024489Y013021D01*
X024608Y013139D02*
X024770Y013139D01*
X024608Y013139D01*
X024726Y013258D02*
X024770Y013258D01*
X024726Y013258D01*
X025246Y013027D02*
X025246Y012645D01*
X025241Y012640D01*
X024880Y012640D01*
X024800Y012560D01*
X024800Y010880D01*
X024497Y011006D02*
X024080Y011006D01*
X024497Y011006D01*
X024472Y010888D02*
X023961Y010888D01*
X024472Y010888D01*
X024491Y010769D02*
X023730Y010769D01*
X024491Y010769D01*
X024565Y010651D02*
X023730Y010651D01*
X024565Y010651D01*
X024770Y010532D02*
X023730Y010532D01*
X024770Y010532D01*
X024770Y010414D02*
X023730Y010414D01*
X024770Y010414D01*
X024770Y010295D02*
X023730Y010295D01*
X024770Y010295D01*
X024770Y010177D02*
X023730Y010177D01*
X024770Y010177D01*
X024770Y010058D02*
X023730Y010058D01*
X024770Y010058D01*
X024770Y009940D02*
X023677Y009940D01*
X024770Y009940D01*
X024770Y009821D02*
X023558Y009821D01*
X024770Y009821D01*
X024770Y009703D02*
X023397Y009703D01*
X024770Y009703D01*
X024770Y009584D02*
X023279Y009584D01*
X024770Y009584D01*
X024770Y009466D02*
X023160Y009466D01*
X024770Y009466D01*
X024770Y009347D02*
X023042Y009347D01*
X024770Y009347D01*
X024770Y009229D02*
X022937Y009229D01*
X024770Y009229D01*
X024770Y009110D02*
X022819Y009110D01*
X024770Y009110D01*
X024770Y008992D02*
X022700Y008992D01*
X024770Y008992D01*
X024770Y008873D02*
X022582Y008873D01*
X024770Y008873D01*
X024770Y008755D02*
X022468Y008755D01*
X024770Y008755D01*
X024770Y008636D02*
X022488Y008636D01*
X024770Y008636D01*
X024770Y008518D02*
X022464Y008518D01*
X024770Y008518D01*
X024770Y008399D02*
X022383Y008399D01*
X024770Y008399D01*
X024770Y008281D02*
X022030Y008281D01*
X024770Y008281D01*
X024770Y008162D02*
X022030Y008162D01*
X024770Y008162D01*
X024770Y008044D02*
X022030Y008044D01*
X024770Y008044D01*
X024770Y007925D02*
X022030Y007925D01*
X024770Y007925D01*
X024770Y007807D02*
X022030Y007807D01*
X024770Y007807D01*
X024770Y007688D02*
X022030Y007688D01*
X024770Y007688D01*
X024770Y007570D02*
X022030Y007570D01*
X024770Y007570D01*
X024770Y007451D02*
X022030Y007451D01*
X024770Y007451D01*
X024770Y007333D02*
X022030Y007333D01*
X024770Y007333D01*
X024770Y007214D02*
X022030Y007214D01*
X024770Y007214D01*
X024770Y007096D02*
X022030Y007096D01*
X024770Y007096D01*
X024770Y006977D02*
X022030Y006977D01*
X024770Y006977D01*
X024770Y006859D02*
X022030Y006859D01*
X024770Y006859D01*
X024770Y006740D02*
X022030Y006740D01*
X024770Y006740D01*
X024770Y006622D02*
X022030Y006622D01*
X024770Y006622D01*
X024770Y006503D02*
X022030Y006503D01*
X024770Y006503D01*
X024770Y006385D02*
X022030Y006385D01*
X024770Y006385D01*
X024770Y006266D02*
X022030Y006266D01*
X024770Y006266D01*
X024770Y006148D02*
X022041Y006148D01*
X024770Y006148D01*
X024770Y006029D02*
X022640Y006029D01*
X024770Y006029D01*
X024770Y005911D02*
X022758Y005911D01*
X024770Y005911D01*
X024770Y005792D02*
X022830Y005792D01*
X024770Y005792D01*
X024770Y005674D02*
X023415Y005674D01*
X024770Y005674D01*
X024770Y005555D02*
X023533Y005555D01*
X024770Y005555D01*
X024770Y005437D02*
X023610Y005437D01*
X024770Y005437D01*
X024770Y005318D02*
X023610Y005318D01*
X024770Y005318D01*
X024770Y005200D02*
X023610Y005200D01*
X024770Y005200D01*
X024770Y005081D02*
X023569Y005081D01*
X024770Y005081D01*
X024777Y004963D02*
X023451Y004963D01*
X024777Y004963D01*
X024764Y004844D02*
X022905Y004844D01*
X024764Y004844D01*
X024746Y004726D02*
X023363Y004726D01*
X024746Y004726D01*
X024706Y004607D02*
X023481Y004607D01*
X024706Y004607D01*
X024657Y004489D02*
X023600Y004489D01*
X024657Y004489D01*
X024577Y004370D02*
X023610Y004370D01*
X024577Y004370D01*
X024484Y004252D02*
X023610Y004252D01*
X024484Y004252D01*
X024340Y004133D02*
X023610Y004133D01*
X024340Y004133D01*
X024113Y004015D02*
X023503Y004015D01*
X024113Y004015D01*
X023180Y004300D02*
X022640Y004840D01*
X022640Y005760D01*
X022480Y005920D01*
X022000Y005920D01*
X021840Y006080D01*
X021840Y008800D01*
X022320Y009280D01*
X022320Y010320D01*
X021280Y011360D01*
X020240Y011360D01*
X019912Y011362D02*
X018570Y011362D01*
X019912Y011362D01*
X019912Y011425D02*
X019912Y011295D01*
X019962Y011174D01*
X020033Y011103D01*
X019974Y011078D01*
X019882Y010986D01*
X019832Y010865D01*
X019832Y010735D01*
X019882Y010614D01*
X019974Y010522D01*
X020095Y010472D01*
X020225Y010472D01*
X020346Y010522D01*
X020434Y010610D01*
X021441Y010610D01*
X021723Y010328D01*
X021615Y010328D01*
X021494Y010278D01*
X021402Y010186D01*
X021399Y010180D01*
X018645Y010180D01*
X018575Y010110D01*
X018561Y010110D01*
X018321Y009870D01*
X017999Y009870D01*
X017957Y009912D01*
X017985Y009912D01*
X018106Y009962D01*
X018198Y010054D01*
X018248Y010175D01*
X018248Y010215D01*
X018532Y010498D01*
X018570Y010590D01*
X018570Y011510D01*
X019947Y011510D01*
X019912Y011425D01*
X019912Y011295D01*
X019962Y011174D01*
X020033Y011103D01*
X019974Y011078D01*
X019882Y010986D01*
X019832Y010865D01*
X019832Y010735D01*
X019882Y010614D01*
X019974Y010522D01*
X020095Y010472D01*
X020225Y010472D01*
X020346Y010522D01*
X020434Y010610D01*
X021441Y010610D01*
X021723Y010328D01*
X021615Y010328D01*
X021494Y010278D01*
X021402Y010186D01*
X021399Y010180D01*
X018645Y010180D01*
X018575Y010110D01*
X018561Y010110D01*
X018321Y009870D01*
X017999Y009870D01*
X017957Y009912D01*
X017985Y009912D01*
X018106Y009962D01*
X018198Y010054D01*
X018248Y010175D01*
X018248Y010215D01*
X018532Y010498D01*
X018570Y010590D01*
X018570Y011510D01*
X019947Y011510D01*
X019912Y011425D01*
X019935Y011480D02*
X018570Y011480D01*
X019935Y011480D01*
X019933Y011243D02*
X018570Y011243D01*
X019933Y011243D01*
X020011Y011125D02*
X018570Y011125D01*
X020011Y011125D01*
X019902Y011006D02*
X018570Y011006D01*
X019902Y011006D01*
X019841Y010888D02*
X018570Y010888D01*
X019841Y010888D01*
X019832Y010769D02*
X018570Y010769D01*
X019832Y010769D01*
X019867Y010651D02*
X018570Y010651D01*
X019867Y010651D01*
X019964Y010532D02*
X018546Y010532D01*
X019964Y010532D01*
X020160Y010800D02*
X021520Y010800D01*
X022080Y010240D01*
X022080Y009360D01*
X021600Y008880D01*
X021600Y005760D01*
X021720Y005640D01*
X021680Y005600D01*
X021680Y004800D01*
X022180Y004300D01*
X022830Y004963D02*
X022909Y004963D01*
X022830Y004963D01*
X022830Y005674D02*
X022945Y005674D01*
X022830Y005674D01*
X021418Y005674D02*
X021415Y005674D01*
X021418Y005674D01*
X021410Y005792D02*
X015770Y005792D01*
X021410Y005792D01*
X021410Y005911D02*
X015770Y005911D01*
X021410Y005911D01*
X021410Y006029D02*
X015743Y006029D01*
X021410Y006029D01*
X021410Y006148D02*
X015624Y006148D01*
X021410Y006148D01*
X021410Y006266D02*
X015590Y006266D01*
X021410Y006266D01*
X021410Y006385D02*
X015590Y006385D01*
X021410Y006385D01*
X021410Y006503D02*
X015590Y006503D01*
X021410Y006503D01*
X021410Y006622D02*
X015590Y006622D01*
X021410Y006622D01*
X021410Y006740D02*
X015590Y006740D01*
X021410Y006740D01*
X021410Y006859D02*
X015590Y006859D01*
X021410Y006859D01*
X021410Y006977D02*
X015590Y006977D01*
X021410Y006977D01*
X021410Y007096D02*
X015590Y007096D01*
X021410Y007096D01*
X021410Y007214D02*
X015563Y007214D01*
X021410Y007214D01*
X021410Y007333D02*
X015444Y007333D01*
X021410Y007333D01*
X021410Y007451D02*
X015326Y007451D01*
X021410Y007451D01*
X021410Y007570D02*
X014407Y007570D01*
X021410Y007570D01*
X021410Y007688D02*
X014289Y007688D01*
X021410Y007688D01*
X021410Y007807D02*
X014170Y007807D01*
X021410Y007807D01*
X021410Y007925D02*
X015057Y007925D01*
X021410Y007925D01*
X021410Y008044D02*
X015228Y008044D01*
X021410Y008044D01*
X021410Y008162D02*
X015283Y008162D01*
X021410Y008162D01*
X021410Y008281D02*
X015288Y008281D01*
X021410Y008281D01*
X021410Y008399D02*
X015249Y008399D01*
X021410Y008399D01*
X021410Y008518D02*
X015147Y008518D01*
X021410Y008518D01*
X021410Y008636D02*
X014033Y008636D01*
X021410Y008636D01*
X021410Y008755D02*
X016648Y008755D01*
X021410Y008755D01*
X021410Y008873D02*
X018822Y008873D01*
X021410Y008873D01*
X021443Y008992D02*
X018940Y008992D01*
X021443Y008992D01*
X021561Y009110D02*
X019059Y009110D01*
X021561Y009110D01*
X021427Y009229D02*
X019177Y009229D01*
X021427Y009229D01*
X022160Y008720D02*
X022800Y009360D01*
X022160Y008720D02*
X022160Y008640D01*
X019920Y009440D02*
X019840Y009440D01*
X019120Y009440D01*
X018720Y009040D01*
X017120Y009040D01*
X016480Y009680D01*
X016777Y009821D02*
X016792Y009821D01*
X016777Y009821D01*
X016806Y009940D02*
X016684Y009940D01*
X016806Y009940D01*
X016874Y010058D02*
X008440Y010058D01*
X016874Y010058D01*
X016841Y010295D02*
X008569Y010295D01*
X016841Y010295D01*
X016746Y010414D02*
X008687Y010414D01*
X016746Y010414D01*
X016712Y010532D02*
X008806Y010532D01*
X016712Y010532D01*
X017040Y010560D02*
X017920Y009680D01*
X018400Y009680D01*
X018640Y009920D01*
X018509Y010058D02*
X018200Y010058D01*
X018509Y010058D01*
X018391Y009940D02*
X018052Y009940D01*
X018391Y009940D01*
X018248Y010177D02*
X018642Y010177D01*
X018248Y010177D01*
X018329Y010295D02*
X021535Y010295D01*
X018329Y010295D01*
X018447Y010414D02*
X021638Y010414D01*
X018447Y010414D01*
X017977Y010651D02*
X017358Y010651D01*
X017977Y010651D01*
X018070Y010769D02*
X017295Y010769D01*
X018070Y010769D01*
X018070Y010888D02*
X017107Y010888D01*
X018070Y010888D01*
X017768Y010532D02*
X017368Y010532D01*
X017768Y010532D01*
X017637Y010414D02*
X017455Y010414D01*
X017637Y010414D01*
X017592Y010295D02*
X017574Y010295D01*
X017592Y010295D01*
X017155Y010177D02*
X008488Y010177D01*
X017155Y010177D01*
X016275Y009940D02*
X008292Y009940D01*
X016275Y009940D01*
X016037Y009229D02*
X011563Y009229D01*
X016037Y009229D01*
X016154Y009110D02*
X011445Y009110D01*
X016154Y009110D01*
X016152Y008992D02*
X011326Y008992D01*
X016152Y008992D01*
X016194Y008873D02*
X011208Y008873D01*
X016194Y008873D01*
X016312Y008755D02*
X013790Y008755D01*
X016312Y008755D01*
X016766Y008873D02*
X017018Y008873D01*
X016766Y008873D01*
X016808Y008992D02*
X016900Y008992D01*
X016808Y008992D01*
X015288Y008305D02*
X015288Y008175D01*
X015238Y008054D01*
X015146Y007962D01*
X015025Y007912D01*
X014895Y007912D01*
X014774Y007962D01*
X014686Y008050D01*
X014081Y008050D01*
X013967Y008164D01*
X014008Y008065D01*
X014008Y007969D01*
X014487Y007490D01*
X015287Y007490D01*
X015410Y007367D01*
X015590Y007187D01*
X015590Y006182D01*
X015770Y006002D01*
X015770Y005678D01*
X015542Y005450D01*
X015218Y005450D01*
X014990Y005678D01*
X014990Y006002D01*
X015170Y006182D01*
X015170Y007013D01*
X015113Y007070D01*
X014313Y007070D01*
X013711Y007672D01*
X013615Y007672D01*
X013494Y007722D01*
X013402Y007814D01*
X013352Y007935D01*
X013352Y008065D01*
X013402Y008186D01*
X013417Y008201D01*
X013414Y008202D01*
X013322Y008294D01*
X013272Y008415D01*
X013272Y008545D01*
X013322Y008666D01*
X013414Y008758D01*
X013535Y008808D01*
X013665Y008808D01*
X013786Y008758D01*
X013874Y008670D01*
X013999Y008670D01*
X014110Y008559D01*
X014239Y008430D01*
X014686Y008430D01*
X014774Y008518D01*
X014895Y008568D01*
X015025Y008568D01*
X015146Y008518D01*
X015238Y008426D01*
X015288Y008305D01*
X015238Y008426D01*
X015146Y008518D01*
X015025Y008568D01*
X014895Y008568D01*
X014774Y008518D01*
X014686Y008430D01*
X014239Y008430D01*
X014110Y008559D01*
X013999Y008670D01*
X013874Y008670D01*
X013786Y008758D01*
X013665Y008808D01*
X013535Y008808D01*
X013414Y008758D01*
X013322Y008666D01*
X013272Y008545D01*
X013272Y008415D01*
X013322Y008294D01*
X013414Y008202D01*
X013417Y008201D01*
X013402Y008186D01*
X013352Y008065D01*
X013352Y007935D01*
X013402Y007814D01*
X013494Y007722D01*
X013615Y007672D01*
X013711Y007672D01*
X014313Y007070D01*
X015113Y007070D01*
X015170Y007013D01*
X015170Y006182D01*
X014990Y006002D01*
X014990Y005678D01*
X015218Y005450D01*
X015542Y005450D01*
X015770Y005678D01*
X015770Y006002D01*
X015590Y006182D01*
X015590Y007187D01*
X015410Y007367D01*
X015287Y007490D01*
X014487Y007490D01*
X014008Y007969D01*
X014008Y008065D01*
X013967Y008164D01*
X014081Y008050D01*
X014686Y008050D01*
X014774Y007962D01*
X014895Y007912D01*
X015025Y007912D01*
X015146Y007962D01*
X015238Y008054D01*
X015288Y008175D01*
X015288Y008305D01*
X014960Y008240D02*
X014160Y008240D01*
X013920Y008480D01*
X013600Y008480D01*
X013309Y008636D02*
X010971Y008636D01*
X013309Y008636D01*
X013272Y008518D02*
X010852Y008518D01*
X013272Y008518D01*
X013278Y008399D02*
X010734Y008399D01*
X013278Y008399D01*
X013335Y008281D02*
X010615Y008281D01*
X013335Y008281D01*
X013392Y008162D02*
X010497Y008162D01*
X013392Y008162D01*
X013352Y008044D02*
X010378Y008044D01*
X013352Y008044D01*
X013356Y007925D02*
X010260Y007925D01*
X013356Y007925D01*
X013409Y007807D02*
X010141Y007807D01*
X013409Y007807D01*
X013576Y007688D02*
X010023Y007688D01*
X013576Y007688D01*
X013814Y007570D02*
X009904Y007570D01*
X013814Y007570D01*
X013932Y007451D02*
X009786Y007451D01*
X013932Y007451D01*
X014051Y007333D02*
X007187Y007333D01*
X014051Y007333D01*
X014169Y007214D02*
X007069Y007214D01*
X014169Y007214D01*
X014288Y007096D02*
X006519Y007096D01*
X014288Y007096D01*
X015170Y006977D02*
X006366Y006977D01*
X015170Y006977D01*
X014554Y006260D02*
X014400Y006260D01*
X014400Y005860D01*
X014800Y005860D01*
X014800Y006014D01*
X014554Y006260D01*
X014400Y006260D01*
X014400Y005860D01*
X014400Y005820D01*
X014800Y005820D01*
X014800Y005666D01*
X014554Y005420D01*
X014400Y005420D01*
X014400Y005820D01*
X014400Y005860D01*
X014360Y005860D01*
X014360Y006260D01*
X014206Y006260D01*
X013960Y006014D01*
X013960Y005860D01*
X014360Y005860D01*
X014360Y006260D01*
X014206Y006260D01*
X013960Y006014D01*
X013960Y005860D01*
X014360Y005860D01*
X014400Y005860D01*
X014800Y005860D01*
X014800Y006014D01*
X014554Y006260D01*
X014666Y006148D02*
X015136Y006148D01*
X014666Y006148D01*
X014785Y006029D02*
X015017Y006029D01*
X014785Y006029D01*
X014800Y005911D02*
X014990Y005911D01*
X014800Y005911D01*
X014800Y005820D02*
X014400Y005820D01*
X014360Y005820D01*
X014360Y005420D01*
X014206Y005420D01*
X013960Y005666D01*
X013960Y005820D01*
X014360Y005820D01*
X014360Y005860D01*
X014360Y005820D01*
X014400Y005820D01*
X014400Y005420D01*
X014554Y005420D01*
X014800Y005666D01*
X014800Y005820D01*
X014800Y005792D02*
X014990Y005792D01*
X014800Y005792D01*
X014800Y005674D02*
X014995Y005674D01*
X014800Y005674D01*
X014689Y005555D02*
X015113Y005555D01*
X014689Y005555D01*
X014570Y005437D02*
X019750Y005437D01*
X014570Y005437D01*
X014400Y005437D02*
X014360Y005437D01*
X014400Y005437D01*
X014360Y005420D02*
X014360Y005820D01*
X013960Y005820D01*
X013960Y005666D01*
X014206Y005420D01*
X014360Y005420D01*
X014360Y005555D02*
X014400Y005555D01*
X014360Y005555D01*
X014360Y005674D02*
X014400Y005674D01*
X014360Y005674D01*
X014360Y005792D02*
X014400Y005792D01*
X014360Y005792D01*
X014360Y005911D02*
X014400Y005911D01*
X014360Y005911D01*
X014360Y006029D02*
X014400Y006029D01*
X014360Y006029D01*
X014360Y006148D02*
X014400Y006148D01*
X014360Y006148D01*
X015647Y005555D02*
X019827Y005555D01*
X015647Y005555D01*
X015765Y005674D02*
X019945Y005674D01*
X015765Y005674D01*
X016253Y004844D02*
X018712Y004844D01*
X016253Y004844D01*
X016371Y004726D02*
X018716Y004726D01*
X016371Y004726D01*
X016490Y004607D02*
X018769Y004607D01*
X016490Y004607D01*
X016776Y004489D02*
X018935Y004489D01*
X016776Y004489D01*
X016861Y004370D02*
X019720Y004370D01*
X016861Y004370D01*
X016888Y004252D02*
X019720Y004252D01*
X016888Y004252D01*
X016871Y004133D02*
X019720Y004133D01*
X016871Y004133D01*
X016799Y004015D02*
X019815Y004015D01*
X016799Y004015D01*
X015181Y004015D02*
X013973Y004015D01*
X015181Y004015D01*
X015181Y004133D02*
X013855Y004133D01*
X015181Y004133D01*
X015192Y004252D02*
X013736Y004252D01*
X015192Y004252D01*
X015219Y004370D02*
X014274Y004370D01*
X015219Y004370D01*
X014159Y004963D02*
X018752Y004963D01*
X014159Y004963D01*
X013886Y004370D02*
X013437Y004370D01*
X013886Y004370D01*
X013639Y004080D02*
X014245Y003474D01*
X014627Y003474D01*
X013639Y004080D02*
X013280Y004080D01*
X019145Y004489D02*
X019720Y004489D01*
X019145Y004489D01*
X020220Y004340D02*
X020640Y004340D01*
X020640Y004491D01*
X020581Y004550D01*
X020776Y004550D01*
X020799Y004527D01*
X020750Y004478D01*
X020750Y004122D01*
X020922Y003950D01*
X020481Y003950D01*
X020640Y004109D01*
X020640Y004260D01*
X020220Y004260D01*
X020220Y004340D01*
X020640Y004340D01*
X020640Y004491D01*
X020581Y004550D01*
X020776Y004550D01*
X020799Y004527D01*
X020750Y004478D01*
X020750Y004122D01*
X020922Y003950D01*
X020481Y003950D01*
X020640Y004109D01*
X020640Y004260D01*
X020220Y004260D01*
X020220Y004340D01*
X020640Y004370D02*
X020750Y004370D01*
X020640Y004370D01*
X020640Y004252D02*
X020750Y004252D01*
X020640Y004252D01*
X020640Y004133D02*
X020750Y004133D01*
X020640Y004133D01*
X020545Y004015D02*
X020857Y004015D01*
X020545Y004015D01*
X020640Y004489D02*
X020760Y004489D01*
X020640Y004489D01*
X020569Y005081D02*
X020791Y005081D01*
X020569Y005081D01*
X020610Y005200D02*
X020750Y005200D01*
X020610Y005200D01*
X020610Y005318D02*
X020750Y005318D01*
X020610Y005318D01*
X020610Y005437D02*
X020750Y005437D01*
X020610Y005437D01*
X020533Y005555D02*
X020827Y005555D01*
X020533Y005555D01*
X020415Y005674D02*
X020945Y005674D01*
X020415Y005674D01*
X019791Y005081D02*
X019219Y005081D01*
X019791Y005081D01*
X014863Y007925D02*
X014052Y007925D01*
X014863Y007925D01*
X014692Y008044D02*
X014008Y008044D01*
X014692Y008044D01*
X013969Y008162D02*
X013968Y008162D01*
X013969Y008162D01*
X014151Y008518D02*
X014773Y008518D01*
X014151Y008518D01*
X013410Y008755D02*
X011089Y008755D01*
X013410Y008755D01*
X009549Y008044D02*
X006973Y008044D01*
X009549Y008044D01*
X006526Y007570D02*
X006398Y007570D01*
X006526Y007570D01*
X005316Y010532D02*
X007834Y010532D01*
X005316Y010532D01*
X005194Y011125D02*
X008470Y011125D01*
X005194Y011125D01*
X008068Y011006D02*
X008470Y011006D01*
X008068Y011006D01*
X008186Y010888D02*
X008454Y010888D01*
X008186Y010888D01*
X008305Y010769D02*
X008335Y010769D01*
X008305Y010769D01*
X017559Y012000D02*
X017579Y012002D01*
X017597Y012008D01*
X017615Y012017D01*
X017630Y012029D01*
X021520Y011954D02*
X022070Y011954D01*
X021520Y011954D01*
X021638Y011836D02*
X021932Y011836D01*
X021638Y011836D01*
X021757Y011717D02*
X021853Y011717D01*
X021757Y011717D01*
X022386Y011362D02*
X023465Y011362D01*
X022386Y011362D01*
X022465Y011480D02*
X023583Y011480D01*
X022465Y011480D01*
X022512Y011599D02*
X023855Y011599D01*
X022512Y011599D01*
X022570Y011717D02*
X024610Y011717D01*
X022570Y011717D01*
X022570Y011836D02*
X024610Y011836D01*
X022570Y011836D01*
X022570Y011954D02*
X024610Y011954D01*
X022570Y011954D01*
X022570Y012310D02*
X022597Y012310D01*
X022570Y012310D01*
X022860Y012310D02*
X022900Y012310D01*
X022860Y012310D01*
X022860Y012428D02*
X022900Y012428D01*
X022860Y012428D01*
X022860Y012547D02*
X022900Y012547D01*
X022860Y012547D01*
X022900Y012640D02*
X023300Y012640D01*
X023300Y012794D01*
X023054Y013040D01*
X022900Y013040D01*
X022900Y012640D01*
X022900Y012665D02*
X022860Y012665D01*
X022900Y012665D01*
X022900Y012784D02*
X022860Y012784D01*
X022900Y012784D01*
X022900Y012902D02*
X022860Y012902D01*
X022900Y012902D01*
X022900Y013021D02*
X022860Y013021D01*
X022900Y013021D01*
X022687Y013021D02*
X022570Y013021D01*
X022687Y013021D01*
X022691Y013258D02*
X022570Y013258D01*
X022691Y013258D01*
X023270Y013495D02*
X023962Y013495D01*
X023270Y013495D01*
X023270Y013613D02*
X023913Y013613D01*
X023270Y013613D01*
X023270Y013732D02*
X023912Y013732D01*
X023270Y013732D01*
X023202Y013850D02*
X023801Y013850D01*
X023202Y013850D01*
X023083Y013969D02*
X023683Y013969D01*
X023083Y013969D01*
X023983Y014206D02*
X024770Y014206D01*
X023983Y014206D01*
X023865Y014324D02*
X024770Y014324D01*
X023865Y014324D01*
X023790Y014443D02*
X024770Y014443D01*
X023790Y014443D01*
X023790Y014561D02*
X024770Y014561D01*
X023790Y014561D01*
X023790Y014680D02*
X024770Y014680D01*
X023790Y014680D01*
X023790Y014798D02*
X024770Y014798D01*
X023790Y014798D01*
X023790Y014917D02*
X024770Y014917D01*
X023790Y014917D01*
X023790Y015035D02*
X024770Y015035D01*
X023790Y015035D01*
X023790Y015154D02*
X024154Y015154D01*
X023790Y015154D01*
X023790Y015272D02*
X024034Y015272D01*
X023790Y015272D01*
X023790Y015391D02*
X023992Y015391D01*
X023790Y015391D01*
X023790Y015509D02*
X023993Y015509D01*
X023790Y015509D01*
X023790Y015628D02*
X024044Y015628D01*
X023790Y015628D01*
X023790Y015746D02*
X024070Y015746D01*
X023790Y015746D01*
X023790Y015865D02*
X024070Y015865D01*
X023790Y015865D01*
X023790Y015983D02*
X024070Y015983D01*
X023790Y015983D01*
X023790Y016102D02*
X024070Y016102D01*
X023790Y016102D01*
X023790Y016220D02*
X024070Y016220D01*
X023790Y016220D01*
X023790Y016339D02*
X024070Y016339D01*
X023790Y016339D01*
X023790Y016457D02*
X024070Y016457D01*
X023790Y016457D01*
X023790Y016576D02*
X024070Y016576D01*
X023790Y016576D01*
X023790Y016694D02*
X024070Y016694D01*
X023790Y016694D01*
X023696Y016813D02*
X024070Y016813D01*
X023696Y016813D01*
X023578Y016931D02*
X024070Y016931D01*
X023578Y016931D01*
X023392Y017050D02*
X023957Y017050D01*
X023392Y017050D01*
X023454Y017168D02*
X023838Y017168D01*
X023454Y017168D01*
X023472Y017405D02*
X023601Y017405D01*
X023472Y017405D01*
X023483Y017524D02*
X023433Y017524D01*
X023483Y017524D01*
X023364Y017642D02*
X023349Y017642D01*
X023364Y017642D01*
X023246Y017761D02*
X023153Y017761D01*
X023246Y017761D01*
X023127Y017879D02*
X021106Y017879D01*
X023127Y017879D01*
X023009Y017998D02*
X021026Y017998D01*
X023009Y017998D01*
X022760Y017761D02*
X022680Y017761D01*
X022760Y017761D01*
X022760Y017642D02*
X022680Y017642D01*
X022760Y017642D01*
X022760Y017524D02*
X022680Y017524D01*
X022760Y017524D01*
X022760Y017405D02*
X022680Y017405D01*
X022760Y017405D01*
X022760Y017287D02*
X023720Y017287D01*
X022760Y017287D01*
X022680Y017287D02*
X021542Y017287D01*
X022680Y017287D01*
X022287Y017761D02*
X021128Y017761D01*
X022287Y017761D01*
X022091Y017642D02*
X021187Y017642D01*
X022091Y017642D01*
X022007Y017524D02*
X021305Y017524D01*
X022007Y017524D01*
X021968Y017405D02*
X021424Y017405D01*
X021968Y017405D01*
X021986Y017168D02*
X021661Y017168D01*
X021986Y017168D01*
X022048Y017050D02*
X021779Y017050D01*
X022048Y017050D01*
X023716Y017998D02*
X024770Y017998D01*
X023716Y017998D01*
X023598Y018116D02*
X024770Y018116D01*
X023598Y018116D01*
X023499Y018235D02*
X024770Y018235D01*
X023499Y018235D01*
X023583Y018353D02*
X024770Y018353D01*
X023583Y018353D01*
X023608Y018472D02*
X024770Y018472D01*
X023608Y018472D01*
X023590Y018590D02*
X024770Y018590D01*
X023590Y018590D01*
X023515Y018709D02*
X024770Y018709D01*
X023515Y018709D01*
X023835Y017879D02*
X024770Y017879D01*
X023835Y017879D01*
X023953Y017761D02*
X024770Y017761D01*
X023953Y017761D01*
X024072Y017642D02*
X024770Y017642D01*
X024072Y017642D01*
X024190Y017524D02*
X024770Y017524D01*
X024190Y017524D01*
X024309Y017405D02*
X024770Y017405D01*
X024309Y017405D01*
X024427Y017287D02*
X024770Y017287D01*
X024427Y017287D01*
X024538Y017168D02*
X024770Y017168D01*
X024538Y017168D01*
X024570Y017050D02*
X024770Y017050D01*
X024570Y017050D01*
X024570Y016931D02*
X024770Y016931D01*
X024570Y016931D01*
X024570Y016813D02*
X024770Y016813D01*
X024570Y016813D01*
X024570Y016694D02*
X024770Y016694D01*
X024570Y016694D01*
X024570Y016576D02*
X024770Y016576D01*
X024570Y016576D01*
X024570Y016457D02*
X024770Y016457D01*
X024570Y016457D01*
X024570Y016339D02*
X024770Y016339D01*
X024570Y016339D01*
X024570Y016220D02*
X024770Y016220D01*
X024570Y016220D01*
X024570Y016102D02*
X024770Y016102D01*
X024570Y016102D01*
X024570Y015983D02*
X024770Y015983D01*
X024570Y015983D01*
X024570Y015865D02*
X024770Y015865D01*
X024570Y015865D01*
X024570Y015746D02*
X024770Y015746D01*
X024570Y015746D01*
X024596Y015628D02*
X024770Y015628D01*
X024596Y015628D01*
X024647Y015509D02*
X024770Y015509D01*
X024647Y015509D01*
X024648Y015391D02*
X024770Y015391D01*
X024648Y015391D01*
X024606Y015272D02*
X024770Y015272D01*
X024606Y015272D01*
X024486Y015154D02*
X024770Y015154D01*
X024486Y015154D01*
X023410Y015035D02*
X023343Y015035D01*
X023410Y015035D01*
X023410Y014917D02*
X023170Y014917D01*
X023410Y014917D01*
X023407Y015509D02*
X023410Y015509D01*
X023407Y015509D01*
X023410Y015628D02*
X023321Y015628D01*
X023410Y015628D01*
X023410Y015746D02*
X023115Y015746D01*
X023410Y015746D01*
X023410Y015983D02*
X023291Y015983D01*
X023410Y015983D01*
X023395Y016102D02*
X023410Y016102D01*
X023395Y016102D01*
X024102Y014087D02*
X024770Y014087D01*
X024102Y014087D01*
X024401Y013969D02*
X024770Y013969D01*
X024401Y013969D01*
X024525Y013850D02*
X024770Y013850D01*
X024525Y013850D01*
X024568Y013732D02*
X024663Y013732D01*
X024568Y013732D01*
X024991Y013791D02*
X023840Y012640D01*
X023840Y012400D01*
X024305Y011599D02*
X024610Y011599D01*
X024305Y011599D01*
X024385Y011480D02*
X024610Y011480D01*
X024385Y011480D01*
X024408Y011362D02*
X024610Y011362D01*
X024408Y011362D01*
X024387Y011243D02*
X024610Y011243D01*
X024387Y011243D01*
X024309Y011125D02*
X024581Y011125D01*
X024309Y011125D01*
X021519Y010532D02*
X020356Y010532D01*
X021519Y010532D01*
X024991Y013791D02*
X025246Y013791D01*
X011261Y018946D02*
X007323Y018946D01*
X011261Y018946D01*
X011142Y019064D02*
X008328Y019064D01*
X011142Y019064D01*
X011024Y019183D02*
X008395Y019183D01*
X011024Y019183D01*
X010905Y019301D02*
X008455Y019301D01*
X010905Y019301D01*
X011285Y019628D02*
X011330Y019673D01*
X011330Y020306D01*
X011398Y020374D01*
X011448Y020495D01*
X011448Y020625D01*
X011398Y020746D01*
X011306Y020838D01*
X011185Y020888D01*
X011055Y020888D01*
X010934Y020838D01*
X010842Y020746D01*
X010792Y020625D01*
X010792Y020495D01*
X010842Y020374D01*
X010910Y020306D01*
X010910Y019850D01*
X008350Y019850D01*
X008290Y019825D01*
X008290Y022327D01*
X008088Y022529D01*
X008088Y022625D01*
X008061Y022690D01*
X013301Y022690D01*
X012881Y022270D01*
X012481Y022270D01*
X012321Y022110D01*
X012210Y021999D01*
X012210Y020434D01*
X012122Y020346D01*
X012072Y020225D01*
X012072Y020095D01*
X012122Y019974D01*
X012214Y019882D01*
X012243Y019870D01*
X012034Y019870D01*
X011946Y019958D01*
X011825Y020008D01*
X011695Y020008D01*
X011574Y019958D01*
X011482Y019866D01*
X011432Y019745D01*
X011432Y019615D01*
X011482Y019494D01*
X011574Y019402D01*
X011651Y019370D01*
X011544Y019370D01*
X011285Y019628D01*
X011330Y019673D01*
X011330Y020306D01*
X011398Y020374D01*
X011448Y020495D01*
X011448Y020625D01*
X011398Y020746D01*
X011306Y020838D01*
X011185Y020888D01*
X011055Y020888D01*
X010934Y020838D01*
X010842Y020746D01*
X010792Y020625D01*
X010792Y020495D01*
X010842Y020374D01*
X010910Y020306D01*
X010910Y019850D01*
X008350Y019850D01*
X008290Y019825D01*
X008290Y022327D01*
X008088Y022529D01*
X008088Y022625D01*
X008061Y022690D01*
X013301Y022690D01*
X012881Y022270D01*
X012481Y022270D01*
X012321Y022110D01*
X012210Y021999D01*
X012210Y020434D01*
X012122Y020346D01*
X012072Y020225D01*
X012072Y020095D01*
X012122Y019974D01*
X012214Y019882D01*
X012243Y019870D01*
X012034Y019870D01*
X011946Y019958D01*
X011825Y020008D01*
X011695Y020008D01*
X011574Y019958D01*
X011482Y019866D01*
X011432Y019745D01*
X011432Y019615D01*
X011482Y019494D01*
X011574Y019402D01*
X011651Y019370D01*
X011544Y019370D01*
X011285Y019628D01*
X011314Y019657D02*
X011432Y019657D01*
X011314Y019657D01*
X011330Y019775D02*
X011444Y019775D01*
X011330Y019775D01*
X011330Y019894D02*
X011510Y019894D01*
X011330Y019894D01*
X011330Y020012D02*
X012106Y020012D01*
X011330Y020012D01*
X011330Y020131D02*
X012072Y020131D01*
X011330Y020131D01*
X011330Y020249D02*
X012082Y020249D01*
X011330Y020249D01*
X011392Y020368D02*
X012144Y020368D01*
X011392Y020368D01*
X011445Y020486D02*
X012210Y020486D01*
X011445Y020486D01*
X011448Y020605D02*
X012210Y020605D01*
X011448Y020605D01*
X011408Y020723D02*
X012210Y020723D01*
X011408Y020723D01*
X011298Y020842D02*
X012210Y020842D01*
X011298Y020842D01*
X010942Y020842D02*
X008290Y020842D01*
X010942Y020842D01*
X010832Y020723D02*
X008290Y020723D01*
X010832Y020723D01*
X010792Y020605D02*
X008290Y020605D01*
X010792Y020605D01*
X010795Y020486D02*
X008290Y020486D01*
X010795Y020486D01*
X010848Y020368D02*
X008290Y020368D01*
X010848Y020368D01*
X010910Y020249D02*
X008290Y020249D01*
X010910Y020249D01*
X010910Y020131D02*
X008290Y020131D01*
X010910Y020131D01*
X010910Y020012D02*
X008290Y020012D01*
X010910Y020012D01*
X010910Y019894D02*
X008290Y019894D01*
X010910Y019894D01*
X011376Y019538D02*
X011464Y019538D01*
X011376Y019538D01*
X011494Y019420D02*
X011556Y019420D01*
X011494Y019420D01*
X011760Y019680D02*
X012800Y019680D01*
X012202Y019894D02*
X012010Y019894D01*
X012202Y019894D01*
X012400Y020160D02*
X012400Y021920D01*
X012560Y022080D01*
X012960Y022080D01*
X013809Y022929D01*
X013809Y023166D01*
X013768Y022619D02*
X015112Y022619D01*
X013768Y022619D01*
X013649Y022501D02*
X015112Y022501D01*
X013649Y022501D01*
X013531Y022382D02*
X015159Y022382D01*
X013531Y022382D01*
X013412Y022264D02*
X015298Y022264D01*
X013412Y022264D01*
X013294Y022145D02*
X020670Y022145D01*
X013294Y022145D01*
X013175Y022027D02*
X020043Y022027D01*
X013175Y022027D01*
X013057Y021908D02*
X019946Y021908D01*
X013057Y021908D01*
X012590Y021790D02*
X013778Y021790D01*
X012590Y021790D01*
X012590Y021671D02*
X013659Y021671D01*
X012590Y021671D01*
X012590Y021553D02*
X013590Y021553D01*
X012590Y021553D01*
X012590Y021434D02*
X013590Y021434D01*
X012590Y021434D01*
X012590Y021316D02*
X013590Y021316D01*
X012590Y021316D01*
X012590Y021197D02*
X013671Y021197D01*
X012590Y021197D01*
X012590Y021079D02*
X013790Y021079D01*
X012590Y021079D01*
X012590Y020960D02*
X019912Y020960D01*
X012590Y020960D01*
X012590Y020842D02*
X019934Y020842D01*
X012590Y020842D01*
X012590Y020723D02*
X020013Y020723D01*
X012590Y020723D01*
X012590Y020605D02*
X021804Y020605D01*
X012590Y020605D01*
X012210Y020960D02*
X008290Y020960D01*
X012210Y020960D01*
X012210Y021079D02*
X008290Y021079D01*
X012210Y021079D01*
X012210Y021197D02*
X008290Y021197D01*
X012210Y021197D01*
X012210Y021316D02*
X008290Y021316D01*
X012210Y021316D01*
X012210Y021434D02*
X008290Y021434D01*
X012210Y021434D01*
X012210Y021553D02*
X008290Y021553D01*
X012210Y021553D01*
X012210Y021671D02*
X008290Y021671D01*
X012210Y021671D01*
X012210Y021790D02*
X008290Y021790D01*
X012210Y021790D01*
X012210Y021908D02*
X008290Y021908D01*
X012210Y021908D01*
X012238Y022027D02*
X008290Y022027D01*
X012238Y022027D01*
X012356Y022145D02*
X008290Y022145D01*
X012356Y022145D01*
X012475Y022264D02*
X008290Y022264D01*
X012475Y022264D01*
X012993Y022382D02*
X008235Y022382D01*
X012993Y022382D01*
X013112Y022501D02*
X008116Y022501D01*
X013112Y022501D01*
X013230Y022619D02*
X008088Y022619D01*
X013230Y022619D01*
X013818Y021830D02*
X013590Y021602D01*
X013590Y021278D01*
X013818Y021050D01*
X014142Y021050D01*
X014370Y021278D01*
X014370Y021602D01*
X014142Y021830D01*
X013818Y021830D01*
X013590Y021602D01*
X013590Y021278D01*
X013818Y021050D01*
X014142Y021050D01*
X014370Y021278D01*
X014370Y021602D01*
X014142Y021830D01*
X013818Y021830D01*
X014182Y021790D02*
X014736Y021790D01*
X014182Y021790D01*
X014300Y021671D02*
X014617Y021671D01*
X014300Y021671D01*
X014370Y021553D02*
X014560Y021553D01*
X014370Y021553D01*
X014370Y021434D02*
X014960Y021434D01*
X014370Y021434D01*
X014370Y021316D02*
X014560Y021316D01*
X014370Y021316D01*
X014289Y021197D02*
X014629Y021197D01*
X014289Y021197D01*
X014170Y021079D02*
X014747Y021079D01*
X014170Y021079D01*
X014560Y021266D02*
X014806Y021020D01*
X014960Y021020D01*
X014960Y021420D01*
X015000Y021420D01*
X015000Y021460D01*
X015400Y021460D01*
X015400Y021614D01*
X015154Y021860D01*
X015000Y021860D01*
X015000Y021460D01*
X014960Y021460D01*
X014960Y021860D01*
X014806Y021860D01*
X014560Y021614D01*
X014560Y021460D01*
X014960Y021460D01*
X014960Y021860D01*
X014806Y021860D01*
X014560Y021614D01*
X014560Y021460D01*
X014960Y021460D01*
X015000Y021460D01*
X015400Y021460D01*
X015400Y021614D01*
X015154Y021860D01*
X015000Y021860D01*
X015000Y021460D01*
X015000Y021420D01*
X015400Y021420D01*
X015400Y021266D01*
X015154Y021020D01*
X015000Y021020D01*
X015000Y021420D01*
X015400Y021420D01*
X015400Y021266D01*
X015154Y021020D01*
X015000Y021020D01*
X015000Y021420D01*
X014960Y021420D01*
X014560Y021420D01*
X014560Y021266D01*
X014806Y021020D01*
X014960Y021020D01*
X014960Y021420D01*
X014960Y021460D01*
X014960Y021420D01*
X014560Y021420D01*
X014560Y021266D01*
X014960Y021316D02*
X015000Y021316D01*
X014960Y021316D01*
X014960Y021197D02*
X015000Y021197D01*
X014960Y021197D01*
X014960Y021079D02*
X015000Y021079D01*
X014960Y021079D01*
X015213Y021079D02*
X019934Y021079D01*
X015213Y021079D01*
X015331Y021197D02*
X020013Y021197D01*
X015331Y021197D01*
X015400Y021316D02*
X020050Y021316D01*
X015400Y021316D01*
X015400Y021553D02*
X019983Y021553D01*
X015400Y021553D01*
X015343Y021671D02*
X019922Y021671D01*
X015343Y021671D01*
X015224Y021790D02*
X019912Y021790D01*
X015224Y021790D01*
X015000Y021790D02*
X014960Y021790D01*
X015000Y021790D01*
X015000Y021671D02*
X014960Y021671D01*
X015000Y021671D01*
X015000Y021553D02*
X014960Y021553D01*
X015000Y021553D01*
X015000Y021434D02*
X020050Y021434D01*
X015000Y021434D01*
X015582Y022264D02*
X020418Y022264D01*
X015582Y022264D01*
X015721Y022382D02*
X020279Y022382D01*
X015721Y022382D01*
X015768Y022501D02*
X020232Y022501D01*
X015768Y022501D01*
X015768Y022619D02*
X020232Y022619D01*
X015768Y022619D01*
X019912Y021825D02*
X019912Y021695D01*
X019962Y021574D01*
X020050Y021486D01*
X020050Y021234D01*
X019962Y021146D01*
X019912Y021025D01*
X019912Y020895D01*
X019962Y020774D01*
X020054Y020682D01*
X020175Y020632D01*
X020305Y020632D01*
X020426Y020682D01*
X020518Y020774D01*
X020568Y020895D01*
X020568Y021025D01*
X020518Y021146D01*
X020430Y021234D01*
X020430Y021486D01*
X020518Y021574D01*
X020568Y021695D01*
X020568Y021825D01*
X020518Y021946D01*
X020426Y022038D01*
X020305Y022088D01*
X020175Y022088D01*
X020054Y022038D01*
X019962Y021946D01*
X019912Y021825D01*
X019912Y021695D01*
X019962Y021574D01*
X020050Y021486D01*
X020050Y021234D01*
X019962Y021146D01*
X019912Y021025D01*
X019912Y020895D01*
X019962Y020774D01*
X020054Y020682D01*
X020175Y020632D01*
X020305Y020632D01*
X020426Y020682D01*
X020518Y020774D01*
X020568Y020895D01*
X020568Y021025D01*
X020518Y021146D01*
X020430Y021234D01*
X020430Y021486D01*
X020518Y021574D01*
X020568Y021695D01*
X020568Y021825D01*
X020518Y021946D01*
X020426Y022038D01*
X020305Y022088D01*
X020175Y022088D01*
X020054Y022038D01*
X019962Y021946D01*
X019912Y021825D01*
X020240Y021760D02*
X020240Y020960D01*
X020568Y020960D02*
X021736Y020960D01*
X020568Y020960D01*
X020546Y020842D02*
X021736Y020842D01*
X020546Y020842D01*
X020467Y020723D02*
X021736Y020723D01*
X020467Y020723D01*
X020546Y021079D02*
X021820Y021079D01*
X020546Y021079D01*
X020467Y021197D02*
X021938Y021197D01*
X020467Y021197D01*
X020430Y021316D02*
X020867Y021316D01*
X020430Y021316D01*
X020430Y021434D02*
X020749Y021434D01*
X020430Y021434D01*
X020497Y021553D02*
X020670Y021553D01*
X020497Y021553D01*
X020558Y021671D02*
X020670Y021671D01*
X020558Y021671D01*
X020568Y021790D02*
X020670Y021790D01*
X020568Y021790D01*
X020534Y021908D02*
X020670Y021908D01*
X020534Y021908D01*
X020437Y022027D02*
X020670Y022027D01*
X020437Y022027D01*
X021736Y020995D02*
X021965Y021224D01*
X022288Y021224D01*
X022516Y020995D01*
X022516Y020672D01*
X022288Y020444D01*
X021965Y020444D01*
X021736Y020672D01*
X021736Y020995D01*
X021736Y020672D01*
X021965Y020444D01*
X022288Y020444D01*
X022516Y020672D01*
X022516Y020995D01*
X022288Y021224D01*
X021965Y021224D01*
X021736Y020995D01*
X022314Y021197D02*
X022666Y021197D01*
X022314Y021197D01*
X022433Y021079D02*
X022784Y021079D01*
X022433Y021079D01*
X022516Y020960D02*
X022903Y020960D01*
X022516Y020960D01*
X022516Y020842D02*
X023021Y020842D01*
X022516Y020842D01*
X022516Y020723D02*
X023140Y020723D01*
X022516Y020723D01*
X022449Y020605D02*
X023258Y020605D01*
X022449Y020605D01*
X022330Y020486D02*
X022599Y020486D01*
X022330Y020486D01*
X022414Y020300D02*
X022414Y019952D01*
X022522Y019844D01*
X022805Y020126D01*
X022834Y020098D01*
X022862Y020126D01*
X023145Y019844D01*
X023254Y019952D01*
X023254Y020300D01*
X023145Y020409D01*
X022862Y020126D01*
X023145Y019844D01*
X023254Y019952D01*
X023254Y020300D01*
X023145Y020409D01*
X022862Y020126D01*
X022834Y020098D01*
X023116Y019815D01*
X023008Y019706D01*
X022660Y019706D01*
X022551Y019815D01*
X022834Y020098D01*
X023116Y019815D01*
X023008Y019706D01*
X022660Y019706D01*
X022551Y019815D01*
X022834Y020098D01*
X022805Y020126D01*
X022522Y019844D01*
X022414Y019952D01*
X022414Y020300D01*
X022522Y020409D01*
X022805Y020126D01*
X022834Y020155D01*
X023116Y020438D01*
X023008Y020546D01*
X022660Y020546D01*
X022551Y020438D01*
X022834Y020155D01*
X022862Y020126D01*
X022834Y020155D01*
X023116Y020438D01*
X023008Y020546D01*
X022660Y020546D01*
X022551Y020438D01*
X022834Y020155D01*
X022805Y020126D01*
X022522Y020409D01*
X022414Y020300D01*
X022564Y020368D02*
X022621Y020368D01*
X022564Y020368D01*
X022683Y020249D02*
X022739Y020249D01*
X022683Y020249D01*
X022801Y020131D02*
X022809Y020131D01*
X022801Y020131D01*
X022858Y020131D02*
X022866Y020131D01*
X022858Y020131D01*
X022920Y020012D02*
X022976Y020012D01*
X022920Y020012D01*
X023038Y019894D02*
X023095Y019894D01*
X023038Y019894D01*
X023076Y019775D02*
X024770Y019775D01*
X023076Y019775D01*
X023195Y019894D02*
X024770Y019894D01*
X023195Y019894D01*
X023254Y020012D02*
X024770Y020012D01*
X023254Y020012D01*
X023254Y020131D02*
X024770Y020131D01*
X023254Y020131D01*
X023254Y020249D02*
X024770Y020249D01*
X023254Y020249D01*
X023186Y020368D02*
X023648Y020368D01*
X023186Y020368D01*
X023103Y020368D02*
X023046Y020368D01*
X023103Y020368D01*
X023068Y020486D02*
X023377Y020486D01*
X023068Y020486D01*
X022984Y020249D02*
X022928Y020249D01*
X022984Y020249D01*
X022747Y020012D02*
X022691Y020012D01*
X022747Y020012D01*
X022629Y019894D02*
X022572Y019894D01*
X022629Y019894D01*
X024032Y020368D02*
X024770Y020368D01*
X024032Y020368D01*
X024131Y020486D02*
X024250Y020486D01*
X024131Y020486D01*
X024168Y020605D02*
X024173Y020605D01*
X024168Y020605D01*
X024710Y020486D02*
X024770Y020486D01*
X024710Y020486D01*
X023245Y022000D02*
X022400Y022000D01*
X023245Y022000D02*
X023652Y022407D01*
X007870Y022145D02*
X007175Y022145D01*
X007870Y022145D01*
X007870Y022027D02*
X007208Y022027D01*
X007870Y022027D01*
X007870Y021908D02*
X007197Y021908D01*
X007870Y021908D01*
X007870Y021790D02*
X007134Y021790D01*
X007870Y021790D01*
X007870Y021671D02*
X005832Y021671D01*
X007870Y021671D01*
X007870Y021553D02*
X005714Y021553D01*
X007870Y021553D01*
X007870Y021434D02*
X005595Y021434D01*
X007870Y021434D01*
X007870Y021316D02*
X005477Y021316D01*
X007870Y021316D01*
X007870Y021197D02*
X007704Y021197D01*
X007870Y021197D01*
X007870Y021079D02*
X007823Y021079D01*
X007870Y021079D01*
X007747Y021079D02*
X007690Y021079D01*
X007747Y021079D01*
X007628Y020960D02*
X007572Y020960D01*
X007628Y020960D01*
X007510Y020842D02*
X007494Y020842D01*
X007510Y020842D01*
X007474Y020862D02*
X007445Y020834D01*
X007162Y021116D01*
X007054Y021008D01*
X007054Y020660D01*
X007162Y020551D01*
X007445Y020834D01*
X007162Y021116D01*
X007054Y021008D01*
X007054Y020660D01*
X007162Y020551D01*
X007445Y020834D01*
X007474Y020862D01*
X007453Y020842D02*
X007437Y020842D01*
X007453Y020842D01*
X007445Y020834D02*
X007474Y020805D01*
X007756Y020522D01*
X007648Y020414D01*
X007300Y020414D01*
X007191Y020522D01*
X007474Y020805D01*
X007445Y020834D01*
X007391Y020723D02*
X007335Y020723D01*
X007391Y020723D01*
X007556Y020723D02*
X007612Y020723D01*
X007556Y020723D01*
X007674Y020605D02*
X007731Y020605D01*
X007674Y020605D01*
X007720Y020486D02*
X007870Y020486D01*
X007720Y020486D01*
X007839Y020605D02*
X007870Y020605D01*
X007839Y020605D01*
X007870Y020368D02*
X007077Y020368D01*
X007870Y020368D01*
X007870Y020249D02*
X007156Y020249D01*
X007870Y020249D01*
X007870Y020131D02*
X007156Y020131D01*
X007870Y020131D01*
X007870Y020012D02*
X007156Y020012D01*
X007870Y020012D01*
X007870Y019894D02*
X007085Y019894D01*
X007870Y019894D01*
X007870Y019775D02*
X006967Y019775D01*
X007870Y019775D01*
X007870Y019657D02*
X005600Y019657D01*
X007870Y019657D01*
X007870Y019538D02*
X005719Y019538D01*
X007870Y019538D01*
X007783Y019420D02*
X005837Y019420D01*
X007783Y019420D01*
X007752Y019301D02*
X006603Y019301D01*
X007752Y019301D01*
X007765Y019183D02*
X007086Y019183D01*
X007765Y019183D01*
X007832Y019064D02*
X007205Y019064D01*
X007832Y019064D01*
X007680Y018320D02*
X006960Y019040D01*
X006400Y019040D01*
X006651Y018827D02*
X006904Y018827D01*
X006651Y018827D01*
X007023Y018709D02*
X004830Y018709D01*
X007023Y018709D01*
X007141Y018590D02*
X004830Y018590D01*
X007141Y018590D01*
X007260Y018472D02*
X004830Y018472D01*
X007260Y018472D01*
X007352Y018353D02*
X004830Y018353D01*
X007352Y018353D01*
X007360Y018235D02*
X004830Y018235D01*
X007360Y018235D01*
X007420Y018116D02*
X004830Y018116D01*
X007420Y018116D01*
X007601Y017998D02*
X004830Y017998D01*
X007601Y017998D01*
X006149Y018827D02*
X004830Y018827D01*
X006149Y018827D01*
X005717Y018946D02*
X004830Y018946D01*
X005717Y018946D01*
X005599Y019064D02*
X004830Y019064D01*
X005599Y019064D01*
X005480Y019183D02*
X004830Y019183D01*
X005480Y019183D01*
X005362Y019301D02*
X004830Y019301D01*
X005362Y019301D01*
X005243Y019420D02*
X004830Y019420D01*
X005243Y019420D01*
X005125Y019538D02*
X004830Y019538D01*
X005125Y019538D01*
X005006Y019657D02*
X004830Y019657D01*
X005006Y019657D01*
X004888Y019775D02*
X004830Y019775D01*
X004888Y019775D01*
X005245Y020012D02*
X006376Y020012D01*
X005245Y020012D01*
X005243Y020131D02*
X006376Y020131D01*
X005243Y020131D01*
X005243Y020249D02*
X006376Y020249D01*
X005243Y020249D01*
X005243Y020368D02*
X006456Y020368D01*
X005243Y020368D01*
X005243Y020486D02*
X006574Y020486D01*
X005243Y020486D01*
X005243Y020605D02*
X007109Y020605D01*
X005243Y020605D01*
X005243Y020723D02*
X007054Y020723D01*
X005243Y020723D01*
X005243Y020842D02*
X007054Y020842D01*
X005243Y020842D01*
X005243Y020960D02*
X007054Y020960D01*
X005243Y020960D01*
X005243Y021079D02*
X007125Y021079D01*
X005243Y021079D01*
X005358Y021197D02*
X007243Y021197D01*
X005358Y021197D01*
X005951Y021790D02*
X006626Y021790D01*
X005951Y021790D01*
X006425Y022264D02*
X006680Y022264D01*
X006425Y022264D01*
X006543Y022382D02*
X007479Y022382D01*
X006543Y022382D01*
X006662Y022501D02*
X007432Y022501D01*
X006662Y022501D01*
X006780Y022619D02*
X007432Y022619D01*
X006780Y022619D01*
X007080Y022264D02*
X007618Y022264D01*
X007080Y022264D01*
X007200Y021079D02*
X007257Y021079D01*
X007200Y021079D01*
X007319Y020960D02*
X007375Y020960D01*
X007319Y020960D01*
X007273Y020605D02*
X007216Y020605D01*
X007273Y020605D01*
X007227Y020486D02*
X006958Y020486D01*
X007227Y020486D01*
X007156Y020288D02*
X007156Y019965D01*
X006928Y019736D01*
X006605Y019736D01*
X006376Y019965D01*
X006376Y020288D01*
X006605Y020516D01*
X006928Y020516D01*
X007156Y020288D01*
X007156Y019965D01*
X006928Y019736D01*
X006605Y019736D01*
X006376Y019965D01*
X006376Y020288D01*
X006605Y020516D01*
X006928Y020516D01*
X007156Y020288D01*
X006448Y019894D02*
X005363Y019894D01*
X006448Y019894D01*
X006566Y019775D02*
X005482Y019775D01*
X006566Y019775D01*
X006197Y019301D02*
X005956Y019301D01*
X006197Y019301D01*
M02*
