%
M48
M72
T01C0.0236
T02C0.0320
T03C0.0400
%
T01
X6640Y4720
X8240Y7120
X6800Y7760
X6240Y7280
X4880Y8160
X6880Y9920
X8160Y10240
X5120Y10800
X5440Y12400
X5280Y13040
X5680Y13520
X8000Y13440
X10240Y14320
X10960Y14720
X12720Y15360
X11120Y15840
X7040Y15920
X5440Y15840
X4960Y17440
X7280Y17680
X7680Y18320
X8080Y19280
X6400Y19040
X9840Y18880
X11760Y19680
X12400Y20160
X13280Y20160
X14160Y19760
X15120Y18800
X18240Y19440
X21280Y19520
X23280Y18480
X20800Y17760
X18560Y17600
X16560Y16320
X19120Y15120
X20640Y15520
X22080Y14480
X24240Y13680
X23760Y13440
X23840Y12400
X22160Y11600
X20240Y11360
X20160Y10800
X20880Y10400
X21680Y10000
X21680Y9440
X20960Y8880
X22160Y8640
X23680Y8400
X22320Y7360
X20640Y6320
X18960Y6320
X17280Y5440
X19040Y4800
X16560Y4240
X15520Y4240
X14080Y4640
X13280Y4080
X15760Y6480
X16720Y7920
X14960Y8240
X13680Y8000
X13600Y8480
X12480Y8800
X11760Y10240
X12160Y10880
X13440Y10800
X13840Y11680
X11360Y12320
X10240Y12160
X14000Y12640
X14080Y13440
X16320Y13360
X16720Y13040
X17920Y12880
X16800Y12400
X17840Y12240
X19040Y13440
X19760Y13360
X20480Y13360
X16960Y14720
X16320Y14320
X15600Y14720
X10960Y17680
X11120Y20560
X10160Y20720
X13120Y21360
X15440Y22560
X18800Y22320
X20240Y21760
X20240Y20960
X22400Y22000
X20560Y22560
X23840Y20640
X24480Y20720
X24320Y15440
X24080Y11360
X24800Y10880
X23760Y9680
X17920Y10240
X17120Y9840
X16480Y9680
X16480Y9040
X17040Y10560
X24320Y5040
X6000Y20720
X6880Y22000
X7760Y22560
T02
X7474Y20834
X6766Y20126
X13980Y21440
X14980Y21440
X22126Y20834
X22834Y20126
X22880Y13620
X22880Y12620
X6800Y12700
X6800Y13700
X14380Y5840
X15380Y5840
T03
X20180Y5300
X21180Y5300
X22180Y5300
X23180Y5300
X23180Y4300
X22180Y4300
X21180Y4300
X20180Y4300
X22720Y15320
X22720Y16320
X22720Y17320
X15900Y16960
X14900Y16960
X13900Y16960
X12900Y16960
M30
