G75*
%MOIN*%
%OFA0B0*%
%FSLAX24Y24*%
%IPPOS*%
%LPD*%
%AMOC8*
5,1,8,0,0,1.08239X$1,22.5*
%
%ADD10C,0.0100*%
D10*
X005600Y003440D02*
X023680Y003440D01*
X023758Y003438D01*
X023835Y003440D01*
X023912Y003445D01*
X023989Y003455D01*
X024066Y003468D01*
X024141Y003486D01*
X024216Y003507D01*
X024289Y003532D01*
X024361Y003560D01*
X024432Y003592D01*
X024501Y003628D01*
X024567Y003667D01*
X024632Y003710D01*
X024695Y003756D01*
X024755Y003805D01*
X024812Y003857D01*
X024867Y003911D01*
X024919Y003969D01*
X024968Y004029D01*
X025014Y004091D01*
X025057Y004156D01*
X025096Y004223D01*
X025132Y004291D01*
X025165Y004362D01*
X025193Y004434D01*
X025218Y004507D01*
X025240Y004582D01*
X025257Y004657D01*
X025271Y004734D01*
X025280Y004810D01*
X025286Y004888D01*
X025288Y004965D01*
X025286Y005043D01*
X025280Y005120D01*
X025280Y020880D01*
X022960Y023200D01*
X006640Y023200D01*
X004320Y020880D01*
X004320Y004800D01*
X004319Y004728D01*
X004323Y004657D01*
X004331Y004586D01*
X004342Y004515D01*
X004357Y004445D01*
X004376Y004376D01*
X004399Y004308D01*
X004425Y004242D01*
X004455Y004177D01*
X004488Y004114D01*
X004525Y004052D01*
X004565Y003993D01*
X004608Y003936D01*
X004654Y003881D01*
X004703Y003829D01*
X004755Y003780D01*
X004809Y003733D01*
X004866Y003690D01*
X004925Y003649D01*
X004986Y003612D01*
X005049Y003578D01*
X005114Y003548D01*
X005180Y003522D01*
X005248Y003498D01*
X005317Y003479D01*
X005387Y003463D01*
X005457Y003452D01*
X005529Y003444D01*
X005600Y003440D01*
M02*
