G75*
%MOIN*%
%OFA0B0*%
%FSLAX24Y24*%
%IPPOS*%
%LPD*%
%AMOC8*
5,1,8,0,0,1.08239X$1,22.5*
%
%ADD10C,0.0060*%
%ADD11C,0.0050*%
%ADD12C,0.0040*%
%ADD13R,0.0128X0.0167*%
%ADD14R,0.0138X0.0138*%
%ADD15R,0.4200X0.2760*%
D10*
X005769Y004415D02*
X006382Y003901D01*
X006523Y003914D01*
X006535Y003773D01*
X007148Y003258D01*
X007289Y003271D01*
X007803Y003884D01*
X007791Y004025D01*
X007178Y004539D01*
X007037Y004526D01*
X007025Y004667D01*
X006412Y005182D01*
X006271Y005169D01*
X005757Y004556D01*
X005769Y004415D01*
X008098Y003785D02*
X007891Y003012D01*
X007961Y002890D01*
X008734Y002683D01*
X008856Y002754D01*
X008927Y002631D01*
X009700Y002424D01*
X009822Y002495D01*
X010029Y003268D01*
X009959Y003390D01*
X009186Y003597D01*
X009064Y003526D01*
X008993Y003649D01*
X008220Y003856D01*
X008098Y003785D01*
X010260Y002880D02*
X010260Y002680D01*
X010410Y002680D01*
X010410Y002880D02*
X010260Y002880D01*
X011310Y002880D02*
X011460Y002880D01*
X011460Y002680D01*
X011310Y002680D01*
X013689Y004208D02*
X014225Y003614D01*
X014366Y003606D01*
X014960Y004142D01*
X014968Y004283D01*
X015109Y004275D01*
X015703Y004811D01*
X015711Y004952D01*
X015175Y005546D01*
X015034Y005554D01*
X014440Y005018D01*
X014432Y004877D01*
X014291Y004885D01*
X013697Y004349D01*
X013689Y004208D01*
X015540Y012400D02*
X015690Y012400D01*
X015540Y012400D02*
X015540Y012600D01*
X015690Y012600D01*
X015420Y013013D02*
X015079Y012922D01*
X014646Y013172D01*
X014554Y013513D01*
X014213Y013422D01*
X013780Y013672D01*
X013688Y014013D01*
X013347Y013922D01*
X012913Y014172D01*
X012822Y014513D01*
X012480Y014422D01*
X012047Y014672D01*
X011956Y015013D01*
X011614Y014922D01*
X011181Y015172D01*
X011090Y015513D01*
X011340Y015947D01*
X011681Y016038D01*
X012114Y015788D01*
X012206Y015447D01*
X012547Y015538D01*
X012980Y015288D01*
X013072Y014947D01*
X013413Y015038D01*
X013847Y014788D01*
X013938Y014447D01*
X014280Y014538D01*
X014713Y014288D01*
X014804Y013947D01*
X015146Y014038D01*
X015579Y013788D01*
X015670Y013447D01*
X015420Y013013D01*
X016590Y012600D02*
X016740Y012600D01*
X016740Y012400D01*
X016590Y012400D01*
X005740Y012820D02*
X005590Y012820D01*
X005740Y012820D02*
X005740Y013020D01*
X005590Y013020D01*
X004690Y013020D02*
X004540Y013020D01*
X004540Y012820D01*
X004690Y012820D01*
D11*
X005842Y003539D02*
X005899Y003491D01*
X006005Y003500D01*
X006246Y003787D01*
X006189Y003836D02*
X006304Y003739D01*
X006426Y003636D02*
X006599Y003491D01*
X006608Y003386D01*
X006511Y003271D01*
X006406Y003261D01*
X006233Y003406D01*
X006137Y003291D02*
X006426Y003636D01*
X006682Y003225D02*
X006894Y003244D01*
X006604Y002899D01*
X006643Y002985D02*
X006565Y002695D01*
X006618Y002603D01*
X006763Y002564D01*
X006855Y002617D01*
X006933Y002907D01*
X006880Y002999D01*
X006735Y003038D01*
X006643Y002985D01*
X006489Y002995D02*
X006719Y002802D01*
X006450Y002881D02*
X006488Y003026D01*
X006435Y003118D01*
X006218Y003176D01*
X006101Y002741D01*
X006140Y002886D02*
X006358Y002828D01*
X006450Y002881D01*
X007107Y002938D02*
X006991Y002503D01*
X007175Y002609D01*
X007281Y002425D01*
X007397Y002860D01*
X007552Y002819D02*
X007435Y002384D01*
X007725Y002306D01*
X007880Y002265D02*
X007997Y002700D01*
X008214Y002641D01*
X008267Y002549D01*
X008228Y002404D01*
X008136Y002351D01*
X007919Y002410D01*
X008064Y002371D02*
X008170Y002187D01*
X008305Y002073D02*
X008595Y001995D01*
X008789Y002099D02*
X008842Y002007D01*
X008987Y001968D01*
X009079Y002021D01*
X009157Y002311D01*
X009104Y002403D01*
X008959Y002442D01*
X008867Y002389D01*
X008789Y002099D01*
X009214Y001907D02*
X009331Y002342D01*
X009504Y001829D01*
X009621Y002265D01*
X010285Y003305D02*
X010585Y003305D01*
X010745Y003380D02*
X010820Y003305D01*
X010971Y003305D01*
X011046Y003380D01*
X011046Y003455D01*
X010971Y003530D01*
X010820Y003530D01*
X010745Y003605D01*
X010745Y003680D01*
X010820Y003755D01*
X010971Y003755D01*
X011046Y003680D01*
X011206Y003755D02*
X011431Y003755D01*
X011506Y003680D01*
X011506Y003530D01*
X011431Y003455D01*
X011206Y003455D01*
X011206Y003305D02*
X011206Y003755D01*
X011666Y003605D02*
X011816Y003755D01*
X011816Y003305D01*
X011666Y003305D02*
X011966Y003305D01*
X013474Y004485D02*
X013580Y004479D01*
X013635Y004530D01*
X013641Y004636D01*
X013390Y004915D01*
X013334Y004864D02*
X013446Y004965D01*
X013565Y005072D02*
X013732Y005223D01*
X013838Y005217D01*
X013938Y005106D01*
X013933Y005000D01*
X013765Y004849D01*
X013866Y004737D02*
X013565Y005072D01*
X013957Y005324D02*
X013962Y005430D01*
X014074Y005531D01*
X014180Y005525D01*
X014230Y005469D01*
X014208Y005045D01*
X014431Y005246D01*
X005204Y009180D02*
X005206Y009325D01*
X005212Y009469D01*
X005222Y009614D01*
X005236Y009758D01*
X005254Y009902D01*
X005275Y010045D01*
X005301Y010187D01*
X005331Y010329D01*
X005364Y010470D01*
X005401Y010610D01*
X005442Y010748D01*
X005487Y010886D01*
X005536Y011022D01*
X005588Y011157D01*
X005645Y011291D01*
X005704Y011422D01*
X005768Y011553D01*
X005834Y011681D01*
X005905Y011808D01*
X005979Y011932D01*
X006056Y012055D01*
X006136Y012175D01*
X006220Y012293D01*
X006307Y012409D01*
X006397Y012522D01*
X006491Y012633D01*
X006587Y012741D01*
X006686Y012846D01*
X006788Y012949D01*
X006893Y013049D01*
X007000Y013146D01*
X007110Y013240D01*
X007223Y013331D01*
X007338Y013418D01*
X007455Y013503D01*
X007575Y013584D01*
X007697Y013662D01*
X007821Y013737D01*
X007947Y013808D01*
X008075Y013876D01*
X008205Y013940D01*
X008336Y014001D01*
X008469Y014058D01*
X008604Y014111D01*
X008740Y014161D01*
X008877Y014207D01*
X009016Y014249D01*
X009155Y014287D01*
X009296Y014321D01*
X009437Y014352D01*
X009580Y014379D01*
X009723Y014401D01*
X009866Y014420D01*
X010010Y014435D01*
X010154Y014446D01*
X010299Y014453D01*
X010444Y014456D01*
X010589Y014455D01*
X010733Y014450D01*
X010878Y014441D01*
X011022Y014428D01*
X011166Y014411D01*
X011309Y014390D01*
X011452Y014366D01*
X011593Y014337D01*
X011735Y014305D01*
X011875Y014268D01*
X012014Y014228D01*
X012152Y014184D01*
X012288Y014136D01*
X012424Y014085D01*
X012557Y014030D01*
X012690Y013971D01*
X012820Y013909D01*
X012949Y013843D01*
X013076Y013773D01*
X013201Y013700D01*
X013324Y013624D01*
X013445Y013544D01*
X013564Y013461D01*
X013680Y013375D01*
X013794Y013286D01*
X013905Y013193D01*
X014014Y013098D01*
X014120Y012999D01*
X014223Y012898D01*
X014324Y012794D01*
X014422Y012687D01*
X014516Y012578D01*
X014608Y012465D01*
X014697Y012351D01*
X014782Y012234D01*
X014864Y012115D01*
X014943Y011994D01*
X015019Y011870D01*
X015091Y011745D01*
X015159Y011617D01*
X015225Y011488D01*
X015286Y011357D01*
X015344Y011224D01*
X015398Y011090D01*
X015449Y010954D01*
X015496Y010817D01*
X015539Y010679D01*
X015578Y010540D01*
X015613Y010399D01*
X015645Y010258D01*
X015672Y010116D01*
X015696Y009973D01*
X015716Y009830D01*
X015732Y009686D01*
X015744Y009542D01*
X015752Y009397D01*
X015756Y009252D01*
X015756Y009108D01*
X015752Y008963D01*
X015744Y008818D01*
X015732Y008674D01*
X015716Y008530D01*
X015696Y008387D01*
X015672Y008244D01*
X015645Y008102D01*
X015613Y007961D01*
X015578Y007820D01*
X015539Y007681D01*
X015496Y007543D01*
X015449Y007406D01*
X015398Y007270D01*
X015344Y007136D01*
X015286Y007003D01*
X015225Y006872D01*
X015159Y006743D01*
X015091Y006615D01*
X015019Y006490D01*
X014943Y006366D01*
X014864Y006245D01*
X014782Y006126D01*
X014697Y006009D01*
X014608Y005895D01*
X014516Y005782D01*
X014422Y005673D01*
X014324Y005566D01*
X014223Y005462D01*
X014120Y005361D01*
X014014Y005262D01*
X013905Y005167D01*
X013794Y005074D01*
X013680Y004985D01*
X013564Y004899D01*
X013445Y004816D01*
X013324Y004736D01*
X013201Y004660D01*
X013076Y004587D01*
X012949Y004517D01*
X012820Y004451D01*
X012690Y004389D01*
X012557Y004330D01*
X012424Y004275D01*
X012288Y004224D01*
X012152Y004176D01*
X012014Y004132D01*
X011875Y004092D01*
X011735Y004055D01*
X011593Y004023D01*
X011452Y003994D01*
X011309Y003970D01*
X011166Y003949D01*
X011022Y003932D01*
X010878Y003919D01*
X010733Y003910D01*
X010589Y003905D01*
X010444Y003904D01*
X010299Y003907D01*
X010154Y003914D01*
X010010Y003925D01*
X009866Y003940D01*
X009723Y003959D01*
X009580Y003981D01*
X009437Y004008D01*
X009296Y004039D01*
X009155Y004073D01*
X009016Y004111D01*
X008877Y004153D01*
X008740Y004199D01*
X008604Y004249D01*
X008469Y004302D01*
X008336Y004359D01*
X008205Y004420D01*
X008075Y004484D01*
X007947Y004552D01*
X007821Y004623D01*
X007697Y004698D01*
X007575Y004776D01*
X007455Y004857D01*
X007338Y004942D01*
X007223Y005029D01*
X007110Y005120D01*
X007000Y005214D01*
X006893Y005311D01*
X006788Y005411D01*
X006686Y005514D01*
X006587Y005619D01*
X006491Y005727D01*
X006397Y005838D01*
X006307Y005951D01*
X006220Y006067D01*
X006136Y006185D01*
X006056Y006305D01*
X005979Y006428D01*
X005905Y006552D01*
X005834Y006679D01*
X005768Y006807D01*
X005704Y006938D01*
X005645Y007069D01*
X005588Y007203D01*
X005536Y007338D01*
X005487Y007474D01*
X005442Y007612D01*
X005401Y007750D01*
X005364Y007890D01*
X005331Y008031D01*
X005301Y008173D01*
X005275Y008315D01*
X005254Y008458D01*
X005236Y008602D01*
X005222Y008746D01*
X005212Y008891D01*
X005206Y009035D01*
X005204Y009180D01*
X005251Y013445D02*
X005100Y013445D01*
X005025Y013520D01*
X005100Y013670D02*
X005025Y013745D01*
X005025Y013820D01*
X005100Y013895D01*
X005251Y013895D01*
X005326Y013820D01*
X005251Y013670D02*
X005326Y013595D01*
X005326Y013520D01*
X005251Y013445D01*
X005251Y013670D02*
X005100Y013670D01*
X004865Y013445D02*
X004565Y013445D01*
X004565Y013895D01*
X005486Y013895D02*
X005486Y013445D01*
X005486Y013595D02*
X005711Y013595D01*
X005786Y013670D01*
X005786Y013820D01*
X005711Y013895D01*
X005486Y013895D01*
X005946Y013820D02*
X006021Y013895D01*
X006171Y013895D01*
X006246Y013820D01*
X006246Y013745D01*
X005946Y013445D01*
X006246Y013445D01*
X010891Y014618D02*
X011151Y014468D01*
X011021Y014543D02*
X011246Y014933D01*
X011041Y014878D01*
X012103Y015997D02*
X012308Y016052D01*
X012458Y016312D01*
X012559Y016167D02*
X012662Y016194D01*
X012792Y016119D01*
X012819Y016017D01*
X012782Y015952D01*
X012372Y015842D01*
X012632Y015692D01*
X012103Y015997D02*
X012048Y016202D01*
X012198Y016462D01*
X012022Y016477D02*
X011994Y016580D01*
X011864Y016655D01*
X011762Y016627D01*
X011724Y016562D01*
X011752Y016460D01*
X011882Y016384D01*
X011909Y016282D01*
X011872Y016217D01*
X011769Y016189D01*
X011639Y016265D01*
X011612Y016367D01*
X015292Y014242D02*
X015320Y014140D01*
X015450Y014064D01*
X015552Y014092D01*
X015627Y014222D01*
X015600Y014324D01*
X015535Y014362D01*
X015367Y014372D01*
X015480Y014567D01*
X015740Y014417D01*
X015565Y013475D02*
X015565Y013025D01*
X015865Y013025D01*
X016025Y013100D02*
X016100Y013025D01*
X016251Y013025D01*
X016326Y013100D01*
X016326Y013175D01*
X016251Y013250D01*
X016100Y013250D01*
X016025Y013325D01*
X016025Y013400D01*
X016100Y013475D01*
X016251Y013475D01*
X016326Y013400D01*
X016486Y013475D02*
X016711Y013475D01*
X016786Y013400D01*
X016786Y013250D01*
X016711Y013175D01*
X016486Y013175D01*
X016486Y013025D02*
X016486Y013475D01*
X016946Y013400D02*
X017021Y013475D01*
X017171Y013475D01*
X017246Y013400D01*
X017246Y013325D01*
X017171Y013250D01*
X017246Y013175D01*
X017246Y013100D01*
X017171Y013025D01*
X017021Y013025D01*
X016946Y013100D01*
X017096Y013250D02*
X017171Y013250D01*
X010285Y003755D02*
X010285Y003305D01*
X007842Y002741D02*
X007552Y002819D01*
X007494Y002601D02*
X007639Y002562D01*
X005842Y003539D02*
X005832Y003645D01*
D12*
X008825Y013871D02*
X009091Y014024D01*
X009224Y014101D02*
X009490Y014254D01*
X009623Y014331D02*
X009822Y014446D01*
X009850Y014551D01*
X009697Y014817D01*
X009592Y014845D01*
X009393Y014730D01*
X009623Y014331D01*
X009242Y014377D02*
X009109Y014300D01*
X008994Y014499D02*
X009224Y014101D01*
X008994Y014499D02*
X009260Y014653D01*
X009907Y014760D02*
X010172Y014914D01*
X009991Y015075D02*
X009907Y014760D01*
X010221Y014676D02*
X009991Y015075D01*
X008595Y014269D02*
X008825Y013871D01*
X017240Y011420D02*
X017240Y011266D01*
X017316Y011190D01*
X017316Y011036D02*
X017240Y010959D01*
X017240Y010806D01*
X017316Y010729D01*
X017393Y010729D01*
X017470Y010806D01*
X017470Y010959D01*
X017547Y011036D01*
X017623Y011036D01*
X017700Y010959D01*
X017700Y010806D01*
X017623Y010729D01*
X017623Y010576D02*
X017240Y010576D01*
X017240Y010269D02*
X017623Y010269D01*
X017700Y010346D01*
X017700Y010499D01*
X017623Y010576D01*
X017777Y010883D02*
X017163Y010883D01*
X017700Y011190D02*
X017393Y011497D01*
X017316Y011497D01*
X017240Y011420D01*
X017700Y011497D02*
X017700Y011190D01*
D13*
G36*
X009463Y015131D02*
X009527Y015022D01*
X009385Y014939D01*
X009321Y015048D01*
X009463Y015131D01*
G37*
G36*
X009192Y015600D02*
X009256Y015491D01*
X009114Y015408D01*
X009050Y015517D01*
X009192Y015600D01*
G37*
D14*
G36*
X009445Y015440D02*
X009514Y015321D01*
X009395Y015252D01*
X009326Y015371D01*
X009445Y015440D01*
G37*
D15*
X006220Y009240D03*
X014860Y009240D03*
M02*
