G75*
%MOIN*%
%OFA0B0*%
%FSLAX24Y24*%
%IPPOS*%
%LPD*%
%AMOC8*
5,1,8,0,0,1.08239X$1,22.5*
%
%ADD10C,0.0040*%
%ADD11C,0.0080*%
%ADD12R,0.0128X0.0167*%
%ADD13R,0.0138X0.0138*%
%ADD14C,0.0060*%
%ADD15C,0.0020*%
%ADD16C,0.0030*%
%ADD17C,0.0050*%
%ADD18C,0.0010*%
%ADD19R,0.0965X0.0266*%
D10*
X005063Y004090D02*
X005370Y004090D01*
X005217Y004090D02*
X005217Y004550D01*
X005370Y004397D01*
X005524Y004474D02*
X005524Y004167D01*
X005601Y004090D01*
X005754Y004090D01*
X005831Y004167D01*
X005831Y004474D01*
X005754Y004550D01*
X005601Y004550D01*
X005524Y004474D01*
X005677Y004243D02*
X005524Y004090D01*
X006790Y005580D02*
X006713Y005657D01*
X006713Y005733D01*
X006790Y005810D01*
X006867Y005810D01*
X006790Y005810D02*
X006713Y005887D01*
X006713Y005964D01*
X006790Y006040D01*
X006944Y006040D01*
X007020Y005964D01*
X007327Y006040D02*
X007327Y005580D01*
X007174Y005580D02*
X007481Y005580D01*
X007634Y005580D02*
X007788Y005733D01*
X007711Y005733D02*
X007941Y005733D01*
X007941Y005580D02*
X007941Y006040D01*
X007711Y006040D01*
X007634Y005964D01*
X007634Y005810D01*
X007711Y005733D01*
X007481Y005887D02*
X007327Y006040D01*
X007020Y005657D02*
X006944Y005580D01*
X006790Y005580D01*
X007550Y005197D02*
X007550Y004890D01*
X007550Y005043D02*
X008010Y005043D01*
X007857Y004890D01*
X007934Y004736D02*
X008010Y004659D01*
X008010Y004506D01*
X007934Y004429D01*
X007627Y004429D01*
X007550Y004506D01*
X007550Y004659D01*
X007627Y004736D01*
X007550Y004276D02*
X007550Y004122D01*
X007550Y004199D02*
X008010Y004199D01*
X008010Y004122D02*
X008010Y004276D01*
X008400Y004620D02*
X008554Y004620D01*
X008630Y004697D01*
X008630Y004773D01*
X008554Y004850D01*
X008400Y004850D01*
X008323Y004773D01*
X008323Y004697D01*
X008400Y004620D01*
X008400Y004850D02*
X008323Y004927D01*
X008323Y005004D01*
X008400Y005080D01*
X008554Y005080D01*
X008630Y005004D01*
X008630Y004927D01*
X008554Y004850D01*
X008784Y004697D02*
X008861Y004620D01*
X009014Y004620D01*
X009091Y004697D01*
X009091Y005004D01*
X009014Y005080D01*
X008861Y005080D01*
X008784Y005004D01*
X009080Y005060D02*
X009080Y004906D01*
X009157Y004830D01*
X009157Y004676D02*
X009080Y004599D01*
X009080Y004446D01*
X009157Y004369D01*
X009464Y004369D01*
X009540Y004446D01*
X009540Y004599D01*
X009464Y004676D01*
X009464Y004830D02*
X009387Y004830D01*
X009310Y004906D01*
X009310Y005137D01*
X009157Y005137D02*
X009080Y005060D01*
X009157Y005137D02*
X009464Y005137D01*
X009540Y005060D01*
X009540Y004906D01*
X009464Y004830D01*
X009650Y004809D02*
X009650Y004579D01*
X010110Y004579D01*
X010110Y004809D01*
X010034Y004886D01*
X009727Y004886D01*
X009650Y004809D01*
X009650Y005040D02*
X009957Y005347D01*
X010034Y005347D01*
X010110Y005270D01*
X010110Y005116D01*
X010034Y005040D01*
X010215Y005184D02*
X010291Y005107D01*
X010445Y005107D01*
X010522Y005184D01*
X010215Y005490D01*
X010215Y005184D01*
X010215Y005490D02*
X010291Y005567D01*
X010445Y005567D01*
X010522Y005490D01*
X010522Y005184D01*
X010675Y005107D02*
X010982Y005107D01*
X011000Y005030D02*
X011307Y005337D01*
X011384Y005337D01*
X011460Y005260D01*
X011460Y005106D01*
X011384Y005030D01*
X011366Y005107D02*
X011212Y005107D01*
X011136Y005184D01*
X011000Y005337D02*
X011000Y005030D01*
X011077Y004876D02*
X011000Y004799D01*
X011000Y004646D01*
X011077Y004569D01*
X011384Y004569D01*
X011460Y004646D01*
X011460Y004799D01*
X011384Y004876D01*
X011366Y005107D02*
X011442Y005184D01*
X011442Y005490D01*
X011366Y005567D01*
X011212Y005567D01*
X011136Y005490D01*
X010982Y005414D02*
X010829Y005567D01*
X010829Y005107D01*
X009901Y005820D02*
X009901Y006280D01*
X009671Y006280D01*
X009594Y006204D01*
X009594Y006050D01*
X009671Y005973D01*
X009901Y005973D01*
X009748Y005973D02*
X009594Y005820D01*
X009441Y005820D02*
X009134Y005820D01*
X009287Y005820D02*
X009287Y006280D01*
X009441Y006127D01*
X008980Y006204D02*
X008904Y006280D01*
X008750Y006280D01*
X008673Y006204D01*
X008673Y006127D01*
X008980Y005820D01*
X008673Y005820D01*
X009650Y005347D02*
X009650Y005040D01*
X009721Y007420D02*
X009414Y007420D01*
X009567Y007420D02*
X009567Y007880D01*
X009721Y007727D01*
X009874Y007804D02*
X009874Y007650D01*
X009951Y007573D01*
X010181Y007573D01*
X010181Y007420D02*
X010181Y007880D01*
X009951Y007880D01*
X009874Y007804D01*
X010028Y007573D02*
X009874Y007420D01*
X009260Y007420D02*
X009260Y007497D01*
X008953Y007804D01*
X008953Y007880D01*
X009260Y007880D01*
X007760Y007827D02*
X007684Y007750D01*
X007377Y007750D01*
X007300Y007827D01*
X007300Y007980D01*
X007377Y008057D01*
X007377Y008210D02*
X007300Y008287D01*
X007300Y008441D01*
X007377Y008517D01*
X007453Y008517D01*
X007530Y008441D01*
X007530Y008210D01*
X007377Y008210D01*
X007530Y008210D02*
X007684Y008364D01*
X007760Y008517D01*
X007684Y008057D02*
X007760Y007980D01*
X007760Y007827D01*
X006110Y007977D02*
X006033Y007900D01*
X005880Y007900D01*
X005803Y007977D01*
X005650Y007977D02*
X005573Y007900D01*
X005419Y007900D01*
X005343Y007977D01*
X005343Y008130D01*
X005419Y008207D01*
X005496Y008207D01*
X005650Y008130D01*
X005650Y008360D01*
X005343Y008360D01*
X005803Y008284D02*
X005880Y008360D01*
X006033Y008360D01*
X006110Y008284D01*
X006110Y007977D01*
X006060Y007300D02*
X005830Y007300D01*
X005753Y007224D01*
X005753Y007070D01*
X005830Y006993D01*
X006060Y006993D01*
X006060Y006840D02*
X006060Y007300D01*
X005907Y006993D02*
X005753Y006840D01*
X005600Y006917D02*
X005523Y006840D01*
X005369Y006840D01*
X005293Y006917D01*
X005293Y006993D01*
X005369Y007070D01*
X005600Y007070D01*
X005600Y006917D01*
X005600Y007070D02*
X005446Y007224D01*
X005293Y007300D01*
X004884Y009050D02*
X004577Y009050D01*
X004500Y009127D01*
X004500Y009280D01*
X004577Y009357D01*
X004500Y009510D02*
X004500Y009817D01*
X004500Y009664D02*
X004960Y009664D01*
X004807Y009510D01*
X004884Y009357D02*
X004960Y009280D01*
X004960Y009127D01*
X004884Y009050D01*
X004807Y009971D02*
X004960Y010124D01*
X004500Y010124D01*
X004500Y009971D02*
X004500Y010278D01*
X004440Y010499D02*
X004900Y010499D01*
X004900Y010729D01*
X004824Y010806D01*
X004670Y010806D01*
X004593Y010729D01*
X004593Y010499D01*
X004593Y010653D02*
X004440Y010806D01*
X004517Y010960D02*
X004593Y010960D01*
X004670Y011036D01*
X004670Y011190D01*
X004593Y011267D01*
X004517Y011267D01*
X004440Y011190D01*
X004440Y011036D01*
X004517Y010960D01*
X004670Y011036D02*
X004747Y010960D01*
X004824Y010960D01*
X004900Y011036D01*
X004900Y011190D01*
X004824Y011267D01*
X004747Y011267D01*
X004670Y011190D01*
X004699Y012400D02*
X004699Y012860D01*
X004930Y012630D01*
X004623Y012630D01*
X005083Y012477D02*
X005160Y012400D01*
X005313Y012400D01*
X005390Y012477D01*
X005390Y012784D01*
X005313Y012860D01*
X005160Y012860D01*
X005083Y012784D01*
X004329Y013441D02*
X004033Y013794D01*
X004150Y013892D02*
X003915Y013695D01*
X003798Y013596D02*
X003859Y013047D01*
X003563Y013399D01*
X003798Y013596D02*
X004094Y013244D01*
X004515Y013697D02*
X004623Y013688D01*
X004799Y013836D01*
X004503Y014188D01*
X004327Y014040D01*
X004317Y013932D01*
X004367Y013874D01*
X004475Y013864D01*
X004651Y014012D01*
X004475Y013864D02*
X004465Y013756D01*
X004515Y013697D01*
X004966Y013876D02*
X005201Y014073D01*
X005387Y014329D02*
X005091Y014682D01*
X005208Y014780D02*
X004973Y014583D01*
X005326Y014879D02*
X005561Y015076D01*
X005857Y014723D01*
X005622Y014526D01*
X005592Y014801D02*
X005709Y014900D01*
X005876Y014940D02*
X005885Y015048D01*
X006003Y015146D01*
X006012Y015255D01*
X005963Y015313D01*
X005855Y015323D01*
X005737Y015224D01*
X005728Y015116D01*
X005876Y014940D02*
X005925Y014881D01*
X006033Y014871D01*
X006151Y014970D01*
X006160Y015078D01*
X006327Y015118D02*
X006562Y015315D01*
X006266Y015668D01*
X006031Y015471D01*
X006297Y015393D02*
X006414Y015492D01*
X006532Y015590D02*
X006640Y015581D01*
X006816Y015729D01*
X006699Y015630D02*
X006680Y015414D01*
X006532Y015590D02*
X006433Y015708D01*
X006443Y015816D01*
X006619Y015964D01*
X006915Y015611D01*
X008400Y012978D02*
X008400Y012671D01*
X008707Y012978D01*
X008784Y012978D01*
X008860Y012901D01*
X008860Y012748D01*
X008784Y012671D01*
X008860Y012364D02*
X008400Y012364D01*
X008400Y012517D02*
X008400Y012210D01*
X008477Y012057D02*
X008400Y011980D01*
X008400Y011827D01*
X008477Y011750D01*
X008784Y011750D01*
X008860Y011827D01*
X008860Y011980D01*
X008784Y012057D01*
X008707Y012210D02*
X008860Y012364D01*
X008400Y011647D02*
X008400Y011340D01*
X008400Y011493D02*
X008860Y011493D01*
X008707Y011340D01*
X008784Y011186D02*
X008860Y011109D01*
X008860Y010879D01*
X008400Y010879D01*
X008400Y011109D01*
X008477Y011186D01*
X008784Y011186D01*
X008860Y010726D02*
X008860Y010419D01*
X008400Y010419D01*
X008400Y010726D01*
X008630Y010572D02*
X008630Y010419D01*
X008400Y010265D02*
X008400Y009958D01*
X008860Y009958D01*
X009239Y010230D02*
X009239Y010690D01*
X009470Y010460D01*
X009163Y010460D01*
X009623Y010307D02*
X009700Y010230D01*
X009853Y010230D01*
X009930Y010307D01*
X009930Y010614D01*
X009853Y010690D01*
X009700Y010690D01*
X009623Y010614D01*
X009623Y010307D01*
X009623Y010230D02*
X009777Y010383D01*
X010920Y010328D02*
X010920Y010021D01*
X011227Y010328D01*
X011304Y010328D01*
X011380Y010251D01*
X011380Y010098D01*
X011304Y010021D01*
X011304Y009868D02*
X011380Y009791D01*
X011380Y009561D01*
X010920Y009561D01*
X010920Y009791D01*
X010997Y009868D01*
X011304Y009868D01*
X011380Y009407D02*
X011380Y009100D01*
X010920Y009100D01*
X010920Y009407D01*
X011150Y009254D02*
X011150Y009100D01*
X010920Y008947D02*
X010920Y008640D01*
X011380Y008640D01*
X011450Y008520D02*
X011527Y008673D01*
X011527Y008750D01*
X011450Y008827D01*
X011297Y008827D01*
X011220Y008750D01*
X011220Y008596D01*
X011297Y008520D01*
X011450Y008520D02*
X011680Y008520D01*
X011680Y008827D01*
X011820Y008947D02*
X011820Y008640D01*
X012280Y008640D01*
X012280Y009100D02*
X011820Y009100D01*
X011820Y009407D01*
X011820Y009561D02*
X011820Y009791D01*
X011897Y009868D01*
X012204Y009868D01*
X012280Y009791D01*
X012280Y009561D01*
X011820Y009561D01*
X012050Y009254D02*
X012050Y009100D01*
X012280Y009100D02*
X012280Y009407D01*
X012480Y009780D02*
X012940Y009780D01*
X012940Y010010D01*
X012864Y010087D01*
X012710Y010087D01*
X012633Y010010D01*
X012633Y009780D01*
X012633Y009933D02*
X012480Y010087D01*
X012480Y010240D02*
X012480Y010547D01*
X012480Y010394D02*
X012940Y010394D01*
X012787Y010240D01*
X012710Y010701D02*
X012557Y010701D01*
X012480Y010778D01*
X012480Y010931D01*
X012557Y011008D01*
X012633Y011008D01*
X012710Y010931D01*
X012710Y010701D01*
X012864Y010854D01*
X012940Y011008D01*
X012260Y011226D02*
X012184Y011149D01*
X011877Y011149D01*
X011800Y011226D01*
X011800Y011379D01*
X011877Y011456D01*
X011877Y011610D02*
X011800Y011610D01*
X011877Y011610D02*
X012184Y011917D01*
X012260Y011917D01*
X012260Y011610D01*
X012184Y011456D02*
X012260Y011379D01*
X012260Y011226D01*
X012204Y010328D02*
X012127Y010328D01*
X012050Y010251D01*
X011973Y010328D01*
X011897Y010328D01*
X011820Y010251D01*
X011820Y010098D01*
X011897Y010021D01*
X012050Y010175D02*
X012050Y010251D01*
X012204Y010328D02*
X012280Y010251D01*
X012280Y010098D01*
X012204Y010021D01*
X011220Y008366D02*
X011220Y008059D01*
X011220Y007906D02*
X011373Y007752D01*
X011373Y007829D02*
X011373Y007599D01*
X011220Y007599D02*
X011680Y007599D01*
X011680Y007829D01*
X011604Y007906D01*
X011450Y007906D01*
X011373Y007829D01*
X011527Y008059D02*
X011680Y008213D01*
X011220Y008213D01*
X014333Y010800D02*
X014640Y010800D01*
X014333Y011107D01*
X014333Y011184D01*
X014410Y011260D01*
X014564Y011260D01*
X014640Y011184D01*
X014794Y011184D02*
X014871Y011260D01*
X015101Y011260D01*
X015101Y010800D01*
X015101Y010953D02*
X014871Y010953D01*
X014794Y011030D01*
X014794Y011184D01*
X014947Y010953D02*
X014794Y010800D01*
X014734Y011580D02*
X014887Y011733D01*
X014811Y011733D02*
X015041Y011733D01*
X015041Y011580D02*
X015041Y012040D01*
X014811Y012040D01*
X014734Y011964D01*
X014734Y011810D01*
X014811Y011733D01*
X014580Y011657D02*
X014504Y011580D01*
X014350Y011580D01*
X014273Y011657D01*
X014273Y011733D01*
X014350Y011810D01*
X014427Y011810D01*
X014350Y011810D02*
X014273Y011887D01*
X014273Y011964D01*
X014350Y012040D01*
X014504Y012040D01*
X014580Y011964D01*
X013381Y012500D02*
X013381Y012960D01*
X013151Y012960D01*
X013074Y012884D01*
X013074Y012730D01*
X013151Y012653D01*
X013381Y012653D01*
X013227Y012653D02*
X013074Y012500D01*
X012920Y012577D02*
X012844Y012500D01*
X012690Y012500D01*
X012613Y012577D01*
X012613Y012884D01*
X012690Y012960D01*
X012844Y012960D01*
X012920Y012884D01*
X012920Y012807D01*
X012844Y012730D01*
X012613Y012730D01*
X012160Y012670D02*
X012160Y012440D01*
X011700Y012440D01*
X011853Y012440D02*
X011853Y012670D01*
X011930Y012747D01*
X012084Y012747D01*
X012160Y012670D01*
X011930Y012900D02*
X011930Y013207D01*
X011700Y013131D02*
X012160Y013131D01*
X011930Y012900D01*
X011700Y012747D02*
X011853Y012593D01*
X011400Y012670D02*
X011400Y012440D01*
X010940Y012440D01*
X011093Y012440D02*
X011093Y012670D01*
X011170Y012747D01*
X011324Y012747D01*
X011400Y012670D01*
X011400Y012900D02*
X011170Y012900D01*
X011247Y013054D01*
X011247Y013131D01*
X011170Y013207D01*
X011017Y013207D01*
X010940Y013131D01*
X010940Y012977D01*
X011017Y012900D01*
X010940Y012747D02*
X011093Y012593D01*
X011400Y012900D02*
X011400Y013207D01*
X010821Y013380D02*
X010821Y013840D01*
X010591Y013840D01*
X010514Y013764D01*
X010514Y013610D01*
X010591Y013533D01*
X010821Y013533D01*
X010668Y013533D02*
X010514Y013380D01*
X010361Y013380D02*
X010054Y013380D01*
X010100Y013367D02*
X010100Y013060D01*
X010100Y012907D02*
X010253Y012753D01*
X010253Y012830D02*
X010253Y012600D01*
X010100Y012600D02*
X010560Y012600D01*
X010560Y012830D01*
X010484Y012907D01*
X010330Y012907D01*
X010253Y012830D01*
X010407Y013060D02*
X010560Y013214D01*
X010100Y013214D01*
X010207Y013380D02*
X010207Y013840D01*
X010361Y013687D01*
X010407Y013521D02*
X010560Y013674D01*
X010100Y013674D01*
X010100Y013521D02*
X010100Y013828D01*
X009900Y013764D02*
X009824Y013840D01*
X009670Y013840D01*
X009593Y013764D01*
X009900Y013457D01*
X009824Y013380D01*
X009670Y013380D01*
X009593Y013457D01*
X009593Y013764D01*
X009900Y013764D02*
X009900Y013457D01*
X011540Y013907D02*
X011540Y014060D01*
X011617Y014137D01*
X011540Y014290D02*
X011540Y014597D01*
X011540Y014444D02*
X012000Y014444D01*
X011847Y014290D01*
X011924Y014137D02*
X012000Y014060D01*
X012000Y013907D01*
X011924Y013830D01*
X011617Y013830D01*
X011540Y013907D01*
X007438Y011110D02*
X007284Y011110D01*
X007361Y011110D02*
X007361Y010650D01*
X007438Y010650D02*
X007284Y010650D01*
X007131Y010727D02*
X007054Y010650D01*
X006901Y010650D01*
X006824Y010727D01*
X006670Y010880D02*
X006363Y010880D01*
X006440Y010650D02*
X006440Y011110D01*
X006670Y010880D01*
X006824Y011034D02*
X006901Y011110D01*
X007054Y011110D01*
X007131Y011034D01*
X007131Y010727D01*
X012377Y004317D02*
X012300Y004241D01*
X012300Y004087D01*
X012377Y004010D01*
X012377Y003857D02*
X012300Y003780D01*
X012300Y003627D01*
X012377Y003550D01*
X012684Y003550D01*
X012760Y003627D01*
X012760Y003780D01*
X012684Y003857D01*
X012684Y004010D02*
X012760Y004087D01*
X012760Y004241D01*
X012684Y004317D01*
X012607Y004317D01*
X012530Y004241D01*
X012453Y004317D01*
X012377Y004317D01*
X012530Y004241D02*
X012530Y004164D01*
X015163Y004670D02*
X015470Y004670D01*
X015163Y004977D01*
X015163Y005054D01*
X015240Y005130D01*
X015394Y005130D01*
X015470Y005054D01*
X015624Y005054D02*
X015624Y004747D01*
X015701Y004670D01*
X015854Y004670D01*
X015931Y004747D01*
X015931Y005054D01*
X015854Y005130D01*
X015701Y005130D01*
X015624Y005054D01*
X015777Y004823D02*
X015624Y004670D01*
X015700Y007420D02*
X015700Y007497D01*
X015393Y007804D01*
X015393Y007880D01*
X015700Y007880D01*
X015853Y007804D02*
X015853Y007650D01*
X015930Y007573D01*
X016160Y007573D01*
X016160Y007420D02*
X016160Y007880D01*
X015930Y007880D01*
X015853Y007804D01*
X016007Y007573D02*
X015853Y007420D01*
X015996Y008180D02*
X015996Y008300D01*
X015996Y008240D02*
X016356Y008240D01*
X016356Y008180D02*
X016356Y008300D01*
X016296Y008426D02*
X016056Y008426D01*
X015996Y008486D01*
X015996Y008606D01*
X016056Y008666D01*
X015996Y008794D02*
X015996Y009034D01*
X015996Y008794D02*
X016236Y009034D01*
X016296Y009034D01*
X016356Y008974D01*
X016356Y008854D01*
X016296Y008794D01*
X016296Y008666D02*
X016356Y008606D01*
X016356Y008486D01*
X016296Y008426D01*
X016287Y010740D02*
X016287Y011200D01*
X016440Y011047D01*
X016594Y011124D02*
X016594Y010970D01*
X016671Y010893D01*
X016901Y010893D01*
X016901Y010740D02*
X016901Y011200D01*
X016671Y011200D01*
X016594Y011124D01*
X016747Y010893D02*
X016594Y010740D01*
X016440Y010740D02*
X016133Y010740D01*
D11*
X012203Y007449D02*
X012203Y007193D01*
X012203Y007449D02*
X011849Y007803D01*
X010117Y007803D01*
X010117Y007193D01*
X010117Y006327D02*
X010117Y005717D01*
X011849Y005717D01*
X012203Y006071D01*
X012203Y006327D01*
X012026Y006386D02*
X012000Y006331D01*
X011970Y006278D01*
X011937Y006226D01*
X011901Y006177D01*
X011862Y006131D01*
X011820Y006087D01*
X011775Y006045D01*
X011728Y006007D01*
X011678Y005972D01*
X011626Y005940D01*
X011572Y005912D01*
X011517Y005887D01*
X011459Y005866D01*
X011401Y005848D01*
X011342Y005835D01*
X011282Y005825D01*
X011221Y005819D01*
X011160Y005817D01*
X011099Y005819D01*
X011038Y005825D01*
X010978Y005835D01*
X010919Y005848D01*
X010861Y005866D01*
X010803Y005887D01*
X010748Y005912D01*
X010694Y005940D01*
X010642Y005972D01*
X010592Y006007D01*
X010545Y006045D01*
X010500Y006087D01*
X010458Y006131D01*
X010419Y006177D01*
X010383Y006226D01*
X010350Y006278D01*
X010320Y006331D01*
X010294Y006386D01*
X010294Y007134D02*
X010320Y007189D01*
X010350Y007242D01*
X010383Y007294D01*
X010419Y007343D01*
X010458Y007389D01*
X010500Y007433D01*
X010545Y007475D01*
X010592Y007513D01*
X010642Y007548D01*
X010694Y007580D01*
X010748Y007608D01*
X010803Y007633D01*
X010861Y007654D01*
X010919Y007672D01*
X010978Y007685D01*
X011038Y007695D01*
X011099Y007701D01*
X011160Y007703D01*
X011221Y007701D01*
X011282Y007695D01*
X011342Y007685D01*
X011401Y007672D01*
X011459Y007654D01*
X011517Y007633D01*
X011572Y007608D01*
X011626Y007580D01*
X011678Y007548D01*
X011728Y007513D01*
X011775Y007475D01*
X011820Y007433D01*
X011862Y007389D01*
X011901Y007343D01*
X011937Y007294D01*
X011970Y007242D01*
X012000Y007189D01*
X012026Y007134D01*
X011392Y004887D02*
X011392Y004076D01*
X010368Y004076D02*
X010368Y004887D01*
X013670Y004359D02*
X013670Y003865D01*
X014164Y004359D01*
X014287Y004359D01*
X014411Y004235D01*
X014411Y003988D01*
X014287Y003865D01*
X014411Y003604D02*
X013793Y003604D01*
X013670Y003480D01*
X013670Y003233D01*
X013793Y003110D01*
X014411Y003110D01*
X006358Y012913D02*
X008168Y014431D01*
X008041Y014582D01*
X007387Y014290D02*
X006648Y013670D01*
X006253Y014110D02*
X007007Y014743D01*
X007408Y015336D02*
X007282Y015487D01*
X005472Y013969D01*
X005599Y013818D01*
X006232Y013064D02*
X006358Y012913D01*
D12*
X009109Y011059D03*
X009651Y011059D03*
X010129Y009341D03*
X010671Y009341D03*
X011029Y009341D03*
X011571Y009341D03*
D13*
X011300Y009189D03*
X010400Y009189D03*
X009380Y011211D03*
D14*
X007540Y011561D02*
X007503Y011561D01*
X007540Y011561D02*
X007540Y012199D01*
X007503Y012199D01*
X007186Y012199D02*
X007149Y012199D01*
X006811Y012199D02*
X006774Y012199D01*
X006457Y012199D02*
X006420Y012199D01*
X006420Y011561D01*
X006457Y011561D01*
X006774Y011561D02*
X007186Y011561D01*
X013334Y009879D02*
X013334Y008081D01*
X015826Y008081D01*
X015826Y009879D01*
X013334Y009879D01*
X015296Y008500D02*
X015298Y008526D01*
X015304Y008552D01*
X015313Y008576D01*
X015326Y008599D01*
X015342Y008620D01*
X015361Y008638D01*
X015382Y008654D01*
X015406Y008666D01*
X015430Y008674D01*
X015456Y008679D01*
X015483Y008680D01*
X015509Y008677D01*
X015534Y008670D01*
X015558Y008660D01*
X015581Y008646D01*
X015601Y008630D01*
X015618Y008610D01*
X015633Y008588D01*
X015644Y008564D01*
X015652Y008539D01*
X015656Y008513D01*
X015656Y008487D01*
X015652Y008461D01*
X015644Y008436D01*
X015633Y008412D01*
X015618Y008390D01*
X015601Y008370D01*
X015581Y008354D01*
X015558Y008340D01*
X015534Y008330D01*
X015509Y008323D01*
X015483Y008320D01*
X015456Y008321D01*
X015430Y008326D01*
X015406Y008334D01*
X015382Y008346D01*
X015361Y008362D01*
X015342Y008380D01*
X015326Y008401D01*
X015313Y008424D01*
X015304Y008448D01*
X015298Y008474D01*
X015296Y008500D01*
X013010Y005210D02*
X012750Y005210D01*
X012290Y005030D02*
X012290Y004730D01*
X013470Y004730D02*
X013470Y005030D01*
X009099Y005103D02*
X009099Y005140D01*
X008461Y005140D01*
X008461Y005103D01*
X008461Y004786D02*
X008461Y004374D01*
X008461Y004057D02*
X008461Y004020D01*
X009099Y004020D01*
X009099Y004057D01*
X009099Y004374D02*
X009099Y004411D01*
X009099Y004749D02*
X009099Y004786D01*
D15*
X013424Y008171D02*
X013424Y009789D01*
X015736Y009789D01*
X015736Y008171D01*
X013424Y008171D01*
X013926Y005510D02*
X013926Y005290D01*
X013999Y005290D02*
X013852Y005290D01*
X013999Y005437D02*
X013926Y005510D01*
X014073Y005290D02*
X014220Y005290D01*
X014220Y005510D01*
D16*
X013627Y004399D02*
X013313Y004085D01*
X013313Y004242D02*
X013627Y004242D01*
X013627Y004085D02*
X013313Y004399D01*
X013470Y004399D02*
X013470Y004085D01*
D17*
X012855Y005655D02*
X014105Y005655D01*
X014105Y006905D02*
X012855Y006905D01*
X011352Y010493D02*
X010408Y010493D01*
X010408Y010886D01*
X011352Y010886D01*
X011352Y012028D01*
X010408Y012028D01*
X010408Y010886D01*
X011352Y010886D02*
X011352Y010493D01*
X006267Y009610D02*
X006110Y009767D01*
X004850Y009767D02*
X004693Y009767D01*
X004693Y009610D01*
X004693Y008350D02*
X004693Y008193D01*
X004850Y008193D01*
X006110Y008193D02*
X006267Y008193D01*
X006267Y008350D01*
D18*
X005597Y009355D02*
X005547Y009355D01*
X005522Y009380D01*
X005522Y009505D01*
X005475Y009455D02*
X005425Y009505D01*
X005425Y009355D01*
X005475Y009355D02*
X005375Y009355D01*
X005597Y009355D02*
X005622Y009380D01*
X005622Y009505D01*
D19*
X010880Y004766D03*
M02*
