%
M48
M72
T01C0.0236
T02C0.0360
T03C0.0400
T04C0.0520
%
T01
X6680Y7180
X7980Y6680
X8980Y7580
X8080Y7680
X9380Y6280
X10180Y5980
X11480Y6080
X11380Y4380
X13280Y7380
X12680Y7580
X12880Y8580
X12980Y9380
X13680Y9080
X14180Y8880
X15180Y8580
X16180Y9780
X16380Y10280
X16980Y10380
X17080Y10880
X15480Y11080
X14780Y10880
X14280Y10780
X15380Y12380
X13080Y12580
X12680Y12880
X11980Y12380
X11980Y11480
X12280Y11080
X9980Y10380
X9780Y11380
X7980Y10380
X7380Y9880
X6980Y9380
X6380Y10180
X6080Y10580
X6780Y10880
X6080Y12380
X7680Y12980
X8480Y14080
X8680Y13480
X10580Y13780
X12080Y13980
X8480Y9580
X9980Y7780
X7180Y5080
X4580Y7780
X5280Y9080
X4480Y10980
X6780Y14180
X14280Y7180
X14780Y6780
X14780Y6280
X16480Y7780
T02
X6397Y4541
X7163Y3899
X8477Y3269
X9443Y3011
X14328Y4245
X15072Y4915
T03
X15112Y13480
X14246Y13980
X13380Y14480
X12514Y14980
X11648Y15480
T04
X16140Y12500
X10860Y2780
X5140Y12920
M30
