G75*
%MOIN*%
%OFA0B0*%
%FSLAX24Y24*%
%IPPOS*%
%LPD*%
%AMOC8*
5,1,8,0,0,1.08239X$1,22.5*
%
%ADD10C,0.0640*%
%ADD11OC8,0.0930*%
%ADD12R,0.0671X0.0671*%
%ADD13R,0.0512X0.0295*%
%ADD14R,0.0840X0.1580*%
%ADD15C,0.0680*%
%ADD16C,0.0476*%
D10*
X006217Y004327D02*
X006577Y004756D01*
X007343Y004113D02*
X006983Y003684D01*
X008550Y003540D02*
X008405Y002999D01*
X009370Y002740D02*
X009515Y003281D01*
X014141Y004454D02*
X014516Y004037D01*
X015259Y004706D02*
X014884Y005123D01*
D11*
X010860Y002780D03*
X016140Y012500D03*
X005140Y012920D03*
D12*
G36*
X009005Y015493D02*
X009340Y014914D01*
X008761Y014579D01*
X008426Y015158D01*
X009005Y015493D01*
G37*
G36*
X010199Y016181D02*
X010534Y015602D01*
X009955Y015267D01*
X009620Y015846D01*
X010199Y016181D01*
G37*
D13*
X015906Y011687D03*
X015906Y011143D03*
X016654Y011143D03*
X016654Y011687D03*
D14*
X016980Y009180D03*
X003980Y009180D03*
D15*
X011498Y015220D02*
X011798Y015740D01*
X012664Y015240D02*
X012364Y014720D01*
X013230Y014220D02*
X013530Y014740D01*
X014396Y014240D02*
X014096Y013720D01*
X014962Y013220D02*
X015262Y013740D01*
D16*
X015380Y012380D03*
X015480Y011080D03*
X014780Y010880D03*
X014280Y010780D03*
X012980Y009380D03*
X013680Y009080D03*
X014180Y008880D03*
X015180Y008580D03*
X016180Y009780D03*
X016380Y010280D03*
X016980Y010380D03*
X017080Y010880D03*
X016480Y007780D03*
X014780Y006780D03*
X014780Y006280D03*
X014280Y007180D03*
X013280Y007380D03*
X012680Y007580D03*
X012880Y008580D03*
X012280Y011080D03*
X011980Y011480D03*
X011980Y012380D03*
X012680Y012880D03*
X013080Y012580D03*
X012080Y013980D03*
X010580Y013780D03*
X008680Y013480D03*
X008480Y014080D03*
X007680Y012980D03*
X006780Y014180D03*
X006080Y012380D03*
X006780Y010880D03*
X006080Y010580D03*
X006380Y010180D03*
X006980Y009380D03*
X007380Y009880D03*
X007980Y010380D03*
X008480Y009580D03*
X009980Y010380D03*
X009780Y011380D03*
X009980Y007780D03*
X008980Y007580D03*
X008080Y007680D03*
X007980Y006680D03*
X006680Y007180D03*
X005280Y009080D03*
X004580Y007780D03*
X007180Y005080D03*
X009380Y006280D03*
X010180Y005980D03*
X011480Y006080D03*
X011380Y004380D03*
X004480Y010980D03*
M02*
