G75*
%MOIN*%
%OFA0B0*%
%FSLAX24Y24*%
%IPPOS*%
%LPD*%
%AMOC8*
5,1,8,0,0,1.08239X$1,22.5*
%
%ADD10R,0.0591X0.0512*%
%ADD11R,0.0512X0.0630*%
%ADD12R,0.0630X0.0512*%
%ADD13R,0.0394X0.0551*%
%ADD14C,0.0560*%
%ADD15R,0.0512X0.0591*%
%ADD16OC8,0.0850*%
%ADD17R,0.1181X0.0630*%
%ADD18R,0.0787X0.0630*%
%ADD19R,0.0591X0.0591*%
%ADD20R,0.0472X0.0217*%
%ADD21C,0.0600*%
%ADD22R,0.0120X0.0390*%
%ADD23R,0.0220X0.0500*%
%ADD24R,0.0551X0.1102*%
%ADD25R,0.0536X0.0283*%
%ADD26R,0.0376X0.0114*%
%ADD27R,0.0114X0.0376*%
%ADD28R,0.0945X0.0709*%
%ADD29R,0.0217X0.0472*%
%ADD30C,0.0240*%
%ADD31C,0.0320*%
%ADD32C,0.0396*%
%ADD33C,0.0160*%
%ADD34C,0.0100*%
D10*
X006880Y007745D03*
X006880Y008415D03*
X004080Y009045D03*
X004080Y009715D03*
X007980Y011745D03*
X007980Y012415D03*
X011120Y013825D03*
X011120Y014495D03*
X012680Y012035D03*
X012680Y011365D03*
X011880Y005455D03*
X011880Y004785D03*
X011880Y004215D03*
X011880Y003545D03*
X009960Y004585D03*
X009960Y005255D03*
D11*
X009314Y006700D03*
X008566Y006700D03*
X007354Y006460D03*
X006606Y006460D03*
X006054Y006420D03*
X005306Y006420D03*
X008846Y008300D03*
X009594Y008300D03*
X014226Y011680D03*
X014974Y011680D03*
X014914Y012460D03*
X014166Y012460D03*
X013254Y013380D03*
X012506Y013380D03*
X010234Y014260D03*
X009486Y014260D03*
X016026Y011620D03*
X016774Y011620D03*
X016154Y007000D03*
X015406Y007000D03*
D12*
X012100Y008186D03*
X012100Y008934D03*
X012060Y009786D03*
X012060Y010534D03*
X011280Y012446D03*
X011280Y013194D03*
X010520Y013194D03*
X010520Y012446D03*
X009680Y012606D03*
X009680Y013354D03*
X005320Y011374D03*
X005320Y010626D03*
D13*
X008826Y009027D03*
X009574Y009027D03*
X009200Y009893D03*
X006054Y005753D03*
X005306Y005753D03*
X005680Y004887D03*
X015406Y006333D03*
X016154Y006333D03*
X015780Y005467D03*
D14*
X015259Y004706D02*
X014884Y005123D01*
X014141Y004454D02*
X014516Y004037D01*
X009515Y003281D02*
X009370Y002740D01*
X008405Y002999D02*
X008550Y003540D01*
X007343Y004113D02*
X006983Y003684D01*
X006217Y004327D02*
X006577Y004756D01*
D15*
X008205Y005500D03*
X008875Y005500D03*
X006115Y007480D03*
X005445Y007480D03*
X005395Y011980D03*
X004725Y011980D03*
D16*
X005140Y012920D03*
X010860Y002780D03*
X016140Y012500D03*
D17*
X012026Y006760D03*
X010294Y006760D03*
D18*
G36*
X005503Y013506D02*
X006104Y014010D01*
X006509Y013528D01*
X005908Y013024D01*
X005503Y013506D01*
G37*
G36*
X007131Y014872D02*
X007732Y015376D01*
X008137Y014894D01*
X007536Y014390D01*
X007131Y014872D01*
G37*
D19*
X009380Y011969D03*
X009380Y010591D03*
X010400Y009809D03*
X011300Y009809D03*
X011300Y008431D03*
X010400Y008431D03*
D20*
X009292Y004954D03*
X009292Y004580D03*
X009292Y004206D03*
X008268Y004206D03*
X008268Y004954D03*
D21*
X014962Y013220D02*
X015262Y013740D01*
X014396Y014240D02*
X014096Y013720D01*
X013230Y014220D02*
X013530Y014740D01*
X012664Y015240D02*
X012364Y014720D01*
X011498Y015220D02*
X011798Y015740D01*
D22*
X013428Y010129D03*
X013684Y010129D03*
X013940Y010129D03*
X014196Y010129D03*
X014452Y010129D03*
X014708Y010129D03*
X014964Y010129D03*
X015220Y010129D03*
X015476Y010129D03*
X015732Y010129D03*
X015732Y007831D03*
X015476Y007831D03*
X015220Y007831D03*
X014964Y007831D03*
X014708Y007831D03*
X014452Y007831D03*
X014196Y007831D03*
X013940Y007831D03*
X013684Y007831D03*
X013428Y007831D03*
D23*
X013260Y005360D03*
X012500Y005360D03*
X012500Y004400D03*
X012880Y004400D03*
X013260Y004400D03*
D24*
X013008Y006280D03*
X013952Y006280D03*
D25*
X011256Y010689D03*
X011256Y011071D03*
X011256Y011453D03*
X011256Y011835D03*
X010504Y011831D03*
X010504Y011449D03*
X010504Y011067D03*
X010504Y010686D03*
D26*
X006268Y009472D03*
X006268Y009275D03*
X006268Y009078D03*
X006268Y008882D03*
X006268Y008685D03*
X006268Y008488D03*
X004692Y008488D03*
X004692Y008685D03*
X004692Y008882D03*
X004692Y009078D03*
X004692Y009275D03*
X004692Y009472D03*
D27*
X004988Y009768D03*
X005185Y009768D03*
X005382Y009768D03*
X005578Y009768D03*
X005775Y009768D03*
X005972Y009768D03*
X005972Y008192D03*
X005775Y008192D03*
X005578Y008192D03*
X005382Y008192D03*
X005185Y008192D03*
X004988Y008192D03*
D28*
X010880Y005277D03*
X010880Y003683D03*
D29*
X007354Y011368D03*
X006606Y011368D03*
X006606Y012392D03*
X006980Y012392D03*
X007354Y012392D03*
D30*
X006606Y006460D02*
X006094Y006460D01*
X006054Y006420D01*
X006953Y005753D02*
X007553Y005753D01*
X007980Y006180D01*
X008680Y006180D01*
X008780Y006080D01*
X008875Y005500D02*
X008880Y005495D01*
X008880Y004680D01*
X008980Y004580D01*
X009292Y004580D01*
X009955Y004580D01*
X009960Y004585D01*
X009960Y005255D02*
X009935Y005280D01*
X009680Y005280D01*
X009683Y005277D01*
X010880Y005277D01*
X011880Y005455D02*
X012405Y005455D01*
X012500Y005360D01*
X012408Y005452D01*
X011975Y004880D02*
X012880Y004880D01*
X012880Y004400D01*
X012500Y004400D02*
X012500Y003700D01*
X012380Y003580D01*
X013080Y003580D01*
X013260Y003760D01*
X013260Y004400D01*
X012380Y003580D02*
X011915Y003580D01*
X011880Y003545D01*
X010880Y003683D02*
X010860Y003663D01*
X010860Y002780D01*
X009292Y004954D02*
X009292Y005092D01*
X009480Y005280D01*
X009680Y005280D01*
X008268Y005437D02*
X008268Y004954D01*
X008142Y005080D01*
X007180Y005080D01*
X008205Y005500D02*
X008268Y005437D01*
D31*
X008880Y005980D02*
X008780Y006080D01*
X008880Y005980D02*
X008880Y005780D01*
X009980Y005780D01*
X010294Y006094D01*
X010294Y006760D01*
X010480Y006946D01*
X010480Y007380D01*
X011300Y008200D01*
X011300Y008431D01*
X010400Y008431D02*
X010400Y008900D01*
X010580Y009080D01*
X011954Y009080D01*
X012100Y008934D01*
X012100Y008186D02*
X012100Y006834D01*
X012026Y006760D01*
X012034Y006754D02*
X012034Y006180D01*
X012034Y005609D01*
X011880Y005455D01*
X011975Y004880D02*
X011880Y004785D01*
X011880Y004215D01*
X011545Y004215D01*
X011380Y004380D01*
X010165Y004380D01*
X009960Y004585D01*
X008880Y005505D02*
X008875Y005500D01*
X008880Y005505D02*
X008880Y005780D01*
X009380Y006280D02*
X009380Y006634D01*
X009314Y006700D01*
X009180Y007380D02*
X009080Y007380D01*
X008880Y007580D01*
X008880Y008266D01*
X008846Y008300D01*
X008846Y009007D01*
X008826Y009027D01*
X009200Y009893D02*
X009480Y009893D01*
X010316Y009893D01*
X010400Y009809D01*
X009580Y007380D02*
X009180Y007380D01*
X009580Y007380D02*
X010200Y006760D01*
X010294Y006760D01*
X012480Y005880D02*
X012480Y005380D01*
X012500Y005360D01*
X012480Y005880D02*
X012880Y006280D01*
X013008Y006280D01*
X013260Y005360D02*
X013760Y005360D01*
X013880Y005480D01*
X013880Y006208D01*
X013952Y006280D01*
X015072Y004915D02*
X015228Y004915D01*
X015780Y005467D01*
X015406Y006333D02*
X015406Y007000D01*
X016154Y007000D02*
X016154Y006333D01*
X016154Y007000D02*
X016154Y007454D01*
X016480Y007780D01*
X014328Y004245D02*
X013843Y003760D01*
X013260Y003760D01*
X008477Y003269D02*
X007792Y003269D01*
X007163Y003899D01*
X006397Y004541D02*
X006026Y004541D01*
X005680Y004887D01*
X005306Y005753D02*
X005306Y006420D01*
X006054Y006420D02*
X006054Y005753D01*
X006953Y005753D01*
X004080Y009715D02*
X004080Y010180D01*
X004725Y010825D01*
X004725Y011980D01*
X004780Y012035D01*
X004780Y012680D01*
X005020Y012920D01*
X005140Y012920D01*
X006780Y014180D02*
X007483Y014883D01*
X007634Y014883D01*
X007683Y014883D01*
X008280Y015480D01*
X011648Y015480D01*
X011648Y015480D01*
X011648Y015023D01*
X011120Y014495D01*
X011120Y013825D02*
X011120Y013234D01*
X011080Y013194D01*
X011280Y013194D01*
X011080Y013194D02*
X010520Y013194D01*
X010234Y013480D01*
X010234Y014260D01*
D32*
X010580Y013780D03*
X012080Y013980D03*
X012680Y012880D03*
X013080Y012580D03*
X011980Y012380D03*
X011980Y011480D03*
X012280Y011080D03*
X012980Y009380D03*
X013680Y009080D03*
X014180Y008880D03*
X015180Y008580D03*
X016180Y009780D03*
X016380Y010280D03*
X016980Y010380D03*
X017080Y010880D03*
X015480Y011080D03*
X014780Y010880D03*
X014280Y010780D03*
X015380Y012380D03*
X012880Y008580D03*
X012680Y007580D03*
X013280Y007380D03*
X014280Y007180D03*
X014780Y006780D03*
X014780Y006280D03*
X016480Y007780D03*
X011480Y006080D03*
X010180Y005980D03*
X009380Y006280D03*
X008980Y007580D03*
X008080Y007680D03*
X007980Y006680D03*
X006680Y007180D03*
X005280Y009080D03*
X006380Y010180D03*
X006080Y010580D03*
X006780Y010880D03*
X007380Y009880D03*
X006980Y009380D03*
X007980Y010380D03*
X008480Y009580D03*
X009980Y010380D03*
X009780Y011380D03*
X008680Y013480D03*
X008480Y014080D03*
X007680Y012980D03*
X006780Y014180D03*
X006080Y012380D03*
X004480Y010980D03*
X004580Y007780D03*
X007180Y005080D03*
X009980Y007780D03*
X011380Y004380D03*
D33*
X005663Y005411D02*
X005574Y005323D01*
X005766Y005323D01*
X005747Y005333D01*
X005713Y005367D01*
X005689Y005408D01*
X005677Y005454D01*
X005677Y005735D01*
X006036Y005735D01*
X006072Y005735D01*
X006072Y005297D01*
X006275Y005297D01*
X006320Y005310D01*
X006361Y005333D01*
X006395Y005367D01*
X006419Y005408D01*
X006431Y005454D01*
X006431Y005735D01*
X006072Y005735D01*
X006072Y005771D01*
X006431Y005771D01*
X006431Y005965D01*
X006558Y005965D01*
X006558Y006412D01*
X006654Y006412D01*
X006654Y005965D01*
X006886Y005965D01*
X006931Y005977D01*
X006972Y006001D01*
X006994Y006023D01*
X007032Y005985D01*
X007676Y005985D01*
X007770Y006079D01*
X007770Y006384D01*
X007777Y006376D01*
X007909Y006322D01*
X008051Y006322D01*
X008150Y006363D01*
X008150Y006319D01*
X008244Y006225D01*
X008888Y006225D01*
X008940Y006277D01*
X008992Y006225D01*
X009022Y006225D01*
X009022Y006209D01*
X009076Y006077D01*
X009177Y005976D01*
X009309Y005922D01*
X009451Y005922D01*
X009583Y005976D01*
X009684Y006077D01*
X009738Y006209D01*
X009738Y006265D01*
X010216Y006265D01*
X010216Y006683D01*
X009730Y006683D01*
X009730Y006837D01*
X010216Y006837D01*
X010216Y006683D01*
X010371Y006683D01*
X010371Y006837D01*
X011064Y006837D01*
X011064Y007099D01*
X011052Y007144D01*
X011028Y007185D01*
X010995Y007219D01*
X010954Y007243D01*
X010908Y007255D01*
X010371Y007255D01*
X010371Y006837D01*
X010216Y006837D01*
X010216Y007255D01*
X009680Y007255D01*
X009634Y007243D01*
X009593Y007219D01*
X009559Y007185D01*
X009553Y007175D01*
X008992Y007175D01*
X008940Y007123D01*
X008888Y007175D01*
X008244Y007175D01*
X008150Y007081D01*
X008150Y006997D01*
X008051Y007038D01*
X007909Y007038D01*
X007777Y006984D01*
X007704Y006910D01*
X007701Y006910D01*
X007676Y006935D01*
X007032Y006935D01*
X006994Y006897D01*
X006972Y006919D01*
X006943Y006936D01*
X006984Y006977D01*
X007038Y007109D01*
X007038Y007251D01*
X007006Y007329D01*
X007242Y007329D01*
X007335Y007423D01*
X007335Y008068D01*
X007332Y008071D01*
X007343Y008089D01*
X007355Y008135D01*
X007355Y008367D01*
X006928Y008367D01*
X006928Y008463D01*
X006832Y008463D01*
X006832Y008851D01*
X006636Y008851D01*
X006636Y008882D01*
X006636Y008962D01*
X006631Y008980D01*
X006636Y008998D01*
X006636Y009078D01*
X006571Y009078D01*
X006571Y009078D01*
X006571Y009078D01*
X006636Y009078D01*
X006636Y009159D01*
X006631Y009177D01*
X006636Y009194D01*
X006636Y009275D01*
X006676Y009177D01*
X006777Y009076D01*
X006909Y009022D01*
X007051Y009022D01*
X007183Y009076D01*
X007284Y009177D01*
X007338Y009309D01*
X007338Y009451D01*
X007309Y009522D01*
X007451Y009522D01*
X007583Y009576D01*
X007684Y009677D01*
X007738Y009809D01*
X007738Y009951D01*
X007684Y010083D01*
X007590Y010176D01*
X007590Y010367D01*
X007467Y010490D01*
X007138Y010819D01*
X007138Y010951D01*
X007094Y011057D01*
X007179Y010972D01*
X007529Y010972D01*
X007622Y011066D01*
X007622Y011329D01*
X008340Y011329D01*
X008340Y010379D01*
X007877Y009916D01*
X007840Y009828D01*
X007840Y007946D01*
X007776Y007883D01*
X007722Y007751D01*
X007722Y007609D01*
X007776Y007477D01*
X007877Y007376D01*
X008009Y007322D01*
X008151Y007322D01*
X008283Y007376D01*
X008384Y007477D01*
X008438Y007609D01*
X008438Y007751D01*
X008384Y007883D01*
X008320Y007946D01*
X008320Y009259D01*
X008409Y009222D01*
X008449Y009222D01*
X008449Y009045D01*
X008808Y009045D01*
X008808Y009009D01*
X008449Y009009D01*
X008449Y008729D01*
X008446Y008725D01*
X008422Y008684D01*
X008410Y008639D01*
X008410Y008348D01*
X008798Y008348D01*
X008798Y008571D01*
X008808Y008571D01*
X008808Y009008D01*
X008844Y009008D01*
X008844Y008571D01*
X008894Y008571D01*
X008894Y008348D01*
X008798Y008348D01*
X008798Y008252D01*
X008894Y008252D01*
X008894Y007805D01*
X009126Y007805D01*
X009171Y007817D01*
X009212Y007841D01*
X009234Y007863D01*
X009272Y007825D01*
X009622Y007825D01*
X009622Y007709D01*
X009676Y007577D01*
X009777Y007476D01*
X009909Y007422D01*
X010051Y007422D01*
X010183Y007476D01*
X010284Y007577D01*
X010338Y007709D01*
X010338Y007851D01*
X010287Y007976D01*
X010762Y007976D01*
X010843Y008057D01*
X010861Y008025D01*
X010894Y007992D01*
X010935Y007968D01*
X010981Y007956D01*
X011232Y007956D01*
X011232Y008363D01*
X011368Y008363D01*
X011368Y007956D01*
X011619Y007956D01*
X011625Y007957D01*
X011625Y007864D01*
X011719Y007770D01*
X011780Y007770D01*
X011780Y007235D01*
X011369Y007235D01*
X011276Y007141D01*
X011276Y006382D01*
X011176Y006283D01*
X011122Y006151D01*
X011122Y006009D01*
X011176Y005877D01*
X011262Y005792D01*
X010341Y005792D01*
X010248Y005698D01*
X010248Y005671D01*
X009598Y005671D01*
X009505Y005577D01*
X009505Y005560D01*
X009424Y005560D01*
X009321Y005517D01*
X009256Y005452D01*
X008923Y005452D01*
X008923Y005548D01*
X009311Y005548D01*
X009311Y005819D01*
X009298Y005865D01*
X009275Y005906D01*
X009241Y005939D01*
X009200Y005963D01*
X009154Y005975D01*
X008923Y005975D01*
X008923Y005548D01*
X008827Y005548D01*
X008827Y005975D01*
X008595Y005975D01*
X008549Y005963D01*
X008531Y005952D01*
X008528Y005955D01*
X007883Y005955D01*
X007789Y005862D01*
X007789Y005360D01*
X007406Y005360D01*
X007383Y005384D01*
X007251Y005438D01*
X007109Y005438D01*
X006977Y005384D01*
X006876Y005283D01*
X006822Y005151D01*
X006822Y005125D01*
X006793Y005149D01*
X006626Y005202D01*
X006451Y005187D01*
X006296Y005106D01*
X006122Y004898D01*
X006037Y004983D01*
X006037Y005229D01*
X005968Y005297D01*
X006036Y005297D01*
X006036Y005735D01*
X006036Y005771D01*
X005677Y005771D01*
X005677Y005971D01*
X005666Y005983D01*
X005663Y005980D01*
X005663Y005411D01*
X005602Y005350D02*
X005730Y005350D01*
X005677Y005509D02*
X005663Y005509D01*
X005663Y005667D02*
X005677Y005667D01*
X005663Y005826D02*
X005677Y005826D01*
X006036Y005826D02*
X006072Y005826D01*
X006072Y005772D02*
X006036Y005772D01*
X006036Y006209D01*
X006006Y006209D01*
X006006Y006372D01*
X006102Y006372D01*
X006102Y006209D01*
X006072Y006209D01*
X006072Y005772D01*
X006072Y005667D02*
X006036Y005667D01*
X006036Y005509D02*
X006072Y005509D01*
X006072Y005350D02*
X006036Y005350D01*
X006037Y005192D02*
X006508Y005192D01*
X006659Y005192D02*
X006839Y005192D01*
X006944Y005350D02*
X006378Y005350D01*
X006431Y005509D02*
X007789Y005509D01*
X007789Y005667D02*
X006431Y005667D01*
X006431Y005826D02*
X007789Y005826D01*
X007770Y006143D02*
X009049Y006143D01*
X009170Y005984D02*
X006943Y005984D01*
X006654Y005984D02*
X006558Y005984D01*
X006558Y006143D02*
X006654Y006143D01*
X006654Y006301D02*
X006558Y006301D01*
X006558Y006412D02*
X006170Y006412D01*
X006170Y006372D01*
X006102Y006372D01*
X006102Y006468D01*
X006490Y006468D01*
X006490Y006508D01*
X006558Y006508D01*
X006558Y006412D01*
X006558Y006460D02*
X006102Y006460D01*
X006102Y006301D02*
X006006Y006301D01*
X006036Y006143D02*
X006072Y006143D01*
X006072Y005984D02*
X006036Y005984D01*
X006037Y005033D02*
X006235Y005033D01*
X007770Y006301D02*
X008168Y006301D01*
X007729Y006935D02*
X006945Y006935D01*
X007032Y007094D02*
X008162Y007094D01*
X008317Y007411D02*
X011780Y007411D01*
X011780Y007569D02*
X010275Y007569D01*
X010338Y007728D02*
X011780Y007728D01*
X011625Y007886D02*
X010324Y007886D01*
X010830Y008045D02*
X010850Y008045D01*
X011232Y008045D02*
X011368Y008045D01*
X011368Y008203D02*
X011232Y008203D01*
X011232Y008362D02*
X011368Y008362D01*
X011780Y007252D02*
X010919Y007252D01*
X011064Y007094D02*
X011276Y007094D01*
X011276Y006935D02*
X011064Y006935D01*
X011276Y006777D02*
X010371Y006777D01*
X010371Y006683D02*
X011064Y006683D01*
X011064Y006421D01*
X011052Y006376D01*
X011028Y006335D01*
X010995Y006301D01*
X011195Y006301D01*
X011122Y006143D02*
X009711Y006143D01*
X009590Y005984D02*
X011132Y005984D01*
X011228Y005826D02*
X009309Y005826D01*
X009311Y005667D02*
X009595Y005667D01*
X009313Y005509D02*
X008923Y005509D01*
X008923Y005452D02*
X008827Y005452D01*
X008827Y005025D01*
X008664Y005025D01*
X008664Y004835D01*
X008876Y004624D01*
X008876Y004712D01*
X008888Y004758D01*
X008899Y004776D01*
X008896Y004779D01*
X008896Y005129D01*
X008923Y005156D01*
X008923Y005452D01*
X008923Y005350D02*
X008827Y005350D01*
X008827Y005192D02*
X008923Y005192D01*
X008896Y005033D02*
X008827Y005033D01*
X008896Y004875D02*
X008664Y004875D01*
X008783Y004716D02*
X008877Y004716D01*
X008919Y004580D02*
X009292Y004580D01*
X009708Y004580D01*
X009708Y004633D01*
X009912Y004633D01*
X009912Y004537D01*
X010008Y004537D01*
X010008Y004149D01*
X010279Y004149D01*
X010299Y004155D01*
X010248Y004103D01*
X010248Y003262D01*
X010341Y003168D01*
X010421Y003168D01*
X010275Y003022D01*
X010275Y002674D01*
X009817Y002707D01*
X009963Y003252D01*
X009940Y003425D01*
X009853Y003577D01*
X009820Y003602D01*
X009820Y003628D01*
X009783Y003716D01*
X009716Y003783D01*
X009562Y003938D01*
X009594Y003938D01*
X009688Y004031D01*
X009688Y004149D01*
X009912Y004149D01*
X009912Y004537D01*
X009708Y004537D01*
X009708Y004580D01*
X009292Y004580D01*
X009292Y004580D01*
X009292Y004474D01*
X009292Y004474D01*
X009292Y004580D01*
X009292Y004580D01*
X009292Y004674D01*
X009292Y004674D01*
X009292Y004580D01*
X009292Y004580D01*
X008919Y004580D01*
X008919Y004580D01*
X008780Y004380D02*
X008780Y004080D01*
X009080Y003780D01*
X009380Y003780D01*
X009580Y003580D01*
X009580Y003148D01*
X009443Y003011D01*
X009888Y002973D02*
X010275Y002973D01*
X010275Y002814D02*
X009846Y002814D01*
X009931Y003131D02*
X010384Y003131D01*
X010248Y003290D02*
X009958Y003290D01*
X009927Y003448D02*
X010248Y003448D01*
X010248Y003607D02*
X009820Y003607D01*
X009734Y003765D02*
X010248Y003765D01*
X010248Y003924D02*
X009576Y003924D01*
X009688Y004082D02*
X010248Y004082D01*
X010377Y004197D02*
X010399Y004219D01*
X010423Y004260D01*
X010435Y004306D01*
X010435Y004537D01*
X010008Y004537D01*
X010008Y004633D01*
X010435Y004633D01*
X010435Y004763D01*
X011419Y004763D01*
X011489Y004833D01*
X011832Y004833D01*
X011832Y004737D01*
X011928Y004737D01*
X011928Y004263D01*
X011832Y004263D01*
X011832Y004349D01*
X011832Y004737D01*
X011405Y004737D01*
X011405Y004506D01*
X011406Y004500D01*
X011405Y004494D01*
X011405Y004263D01*
X011832Y004263D01*
X011832Y004167D01*
X011449Y004167D01*
X011419Y004197D01*
X010377Y004197D01*
X010412Y004241D02*
X011832Y004241D01*
X011832Y004399D02*
X011928Y004399D01*
X011928Y004558D02*
X011832Y004558D01*
X011832Y004716D02*
X011928Y004716D01*
X011928Y004737D02*
X011928Y004833D01*
X012355Y004833D01*
X012355Y004950D01*
X012676Y004950D01*
X012770Y005044D01*
X012770Y005177D01*
X012771Y005179D01*
X012820Y005296D01*
X012820Y005424D01*
X012800Y005472D01*
X012800Y005569D01*
X012990Y005569D01*
X012990Y005543D01*
X012989Y005541D01*
X012940Y005424D01*
X012940Y005296D01*
X012989Y005179D01*
X012990Y005177D01*
X012990Y005044D01*
X013084Y004950D01*
X013436Y004950D01*
X013526Y005040D01*
X013824Y005040D01*
X013941Y005089D01*
X014061Y005209D01*
X014151Y005299D01*
X014200Y005416D01*
X014200Y005569D01*
X014294Y005569D01*
X014388Y005663D01*
X014388Y006837D01*
X014422Y006851D01*
X014422Y006709D01*
X014476Y006577D01*
X014524Y006530D01*
X014476Y006483D01*
X014422Y006351D01*
X014422Y006209D01*
X014476Y006077D01*
X014577Y005976D01*
X014709Y005922D01*
X014851Y005922D01*
X014983Y005976D01*
X015049Y006043D01*
X015049Y005991D01*
X015143Y005897D01*
X015512Y005897D01*
X015423Y005809D01*
X015423Y005563D01*
X015243Y005382D01*
X015153Y005482D01*
X014995Y005557D01*
X014820Y005567D01*
X014655Y005508D01*
X014525Y005391D01*
X014449Y005233D01*
X014440Y005058D01*
X014499Y004893D01*
X014947Y004395D01*
X014862Y004310D01*
X014409Y004813D01*
X014251Y004888D01*
X014077Y004897D01*
X013912Y004839D01*
X013782Y004722D01*
X013706Y004564D01*
X013697Y004389D01*
X013756Y004224D01*
X013802Y004172D01*
X013710Y004080D01*
X013540Y004080D01*
X013540Y004456D01*
X013530Y004480D01*
X013530Y004716D01*
X013779Y004716D01*
X013706Y004558D02*
X013530Y004558D01*
X013530Y004716D02*
X013436Y004810D01*
X013084Y004810D01*
X013080Y004806D01*
X013059Y004818D01*
X013014Y004830D01*
X012880Y004830D01*
X012880Y004400D01*
X012880Y004400D01*
X012880Y004830D01*
X012746Y004830D01*
X012701Y004818D01*
X012680Y004806D01*
X012676Y004810D01*
X012324Y004810D01*
X012251Y004737D01*
X011928Y004737D01*
X012355Y004875D02*
X014012Y004875D01*
X014280Y004875D02*
X014516Y004875D01*
X014497Y004716D02*
X014658Y004716D01*
X014640Y004558D02*
X014801Y004558D01*
X014782Y004399D02*
X014944Y004399D01*
X014449Y005033D02*
X013519Y005033D01*
X013001Y005033D02*
X012759Y005033D01*
X012777Y005192D02*
X012983Y005192D01*
X012940Y005350D02*
X012820Y005350D01*
X012800Y005509D02*
X012975Y005509D01*
X012880Y004716D02*
X012880Y004716D01*
X012880Y004558D02*
X012880Y004558D01*
X012880Y004400D02*
X012880Y003970D01*
X012980Y003970D01*
X012980Y003920D01*
X012955Y003860D01*
X012780Y003860D01*
X012780Y003970D01*
X012880Y003970D01*
X012880Y004400D01*
X012880Y004400D01*
X012880Y004399D02*
X012880Y004399D01*
X012880Y004241D02*
X012880Y004241D01*
X012880Y004082D02*
X012880Y004082D01*
X012780Y003924D02*
X012980Y003924D01*
X013540Y004082D02*
X013712Y004082D01*
X013750Y004241D02*
X013540Y004241D01*
X013540Y004399D02*
X013698Y004399D01*
X014044Y005192D02*
X014447Y005192D01*
X014505Y005350D02*
X014173Y005350D01*
X014200Y005509D02*
X014656Y005509D01*
X014388Y005667D02*
X015423Y005667D01*
X015440Y005826D02*
X014388Y005826D01*
X014388Y005984D02*
X014570Y005984D01*
X014449Y006143D02*
X014388Y006143D01*
X014388Y006301D02*
X014422Y006301D01*
X014388Y006460D02*
X014467Y006460D01*
X014459Y006618D02*
X014388Y006618D01*
X014388Y006777D02*
X014422Y006777D01*
X014708Y006852D02*
X014780Y006780D01*
X014708Y006852D02*
X014708Y007831D01*
X014708Y010129D01*
X014452Y010129D02*
X014452Y009754D01*
X014452Y010129D01*
X014452Y009152D01*
X014180Y008880D01*
X014033Y008996D02*
X014468Y008996D01*
X014468Y009154D02*
X014051Y009154D01*
X014038Y009141D02*
X014406Y009509D01*
X014406Y009754D01*
X014452Y009754D01*
X014468Y009754D01*
X014468Y008489D01*
X014467Y008490D01*
X014067Y008490D01*
X013811Y008746D01*
X013883Y008776D01*
X013984Y008877D01*
X014038Y009009D01*
X014038Y009141D01*
X014209Y009313D02*
X014468Y009313D01*
X014468Y009471D02*
X014368Y009471D01*
X014406Y009630D02*
X014468Y009630D01*
X014452Y009788D02*
X014452Y009788D01*
X014452Y009947D02*
X014452Y009947D01*
X014452Y010105D02*
X014452Y010105D01*
X014452Y010129D02*
X014452Y010129D01*
X013986Y009774D02*
X013986Y009683D01*
X013741Y009438D01*
X013609Y009438D01*
X013477Y009384D01*
X013376Y009283D01*
X013338Y009190D01*
X012790Y009190D01*
X012790Y009667D01*
X012667Y009790D01*
X012667Y009790D01*
X012590Y009867D01*
X012535Y009922D01*
X012535Y010108D01*
X012483Y010160D01*
X012535Y010212D01*
X012535Y010449D01*
X013218Y010449D01*
X013218Y010400D01*
X013208Y010390D01*
X013208Y009867D01*
X013302Y009774D01*
X013555Y009774D01*
X013556Y009775D01*
X013558Y009774D01*
X013811Y009774D01*
X013812Y009775D01*
X013814Y009774D01*
X013986Y009774D01*
X013933Y009630D02*
X012790Y009630D01*
X012790Y009471D02*
X013774Y009471D01*
X013406Y009313D02*
X012790Y009313D01*
X012669Y009788D02*
X013288Y009788D01*
X013208Y009947D02*
X012535Y009947D01*
X012590Y009867D02*
X012590Y009867D01*
X012535Y010105D02*
X013208Y010105D01*
X013208Y010264D02*
X012535Y010264D01*
X012535Y010422D02*
X013218Y010422D01*
X013189Y010689D02*
X013280Y010780D01*
X013280Y011680D01*
X012925Y012035D01*
X012680Y012035D01*
X012380Y012335D01*
X012380Y012580D01*
X011780Y013180D01*
X011380Y013180D01*
X011366Y013194D01*
X011280Y013194D01*
X011280Y013180D02*
X011380Y013180D01*
X011755Y013420D02*
X011755Y013516D01*
X011661Y013610D01*
X011575Y013610D01*
X011575Y014148D01*
X011572Y014151D01*
X011583Y014169D01*
X011595Y014215D01*
X011595Y014447D01*
X011168Y014447D01*
X011168Y014543D01*
X011072Y014543D01*
X011072Y014931D01*
X010801Y014931D01*
X010755Y014918D01*
X010714Y014895D01*
X010681Y014861D01*
X010657Y014820D01*
X010645Y014774D01*
X010645Y014646D01*
X010556Y014735D01*
X009912Y014735D01*
X009860Y014683D01*
X009808Y014735D01*
X009164Y014735D01*
X009070Y014641D01*
X009070Y014490D01*
X008993Y014490D01*
X008870Y014367D01*
X008870Y014367D01*
X008793Y014290D01*
X008776Y014290D01*
X008683Y014384D01*
X008551Y014438D01*
X008409Y014438D01*
X008277Y014384D01*
X008176Y014283D01*
X008122Y014151D01*
X008122Y014009D01*
X008176Y013877D01*
X008277Y013776D01*
X008409Y013722D01*
X008415Y013722D01*
X008376Y013683D01*
X008322Y013551D01*
X008322Y013409D01*
X008376Y013277D01*
X008477Y013176D01*
X008540Y013150D01*
X008540Y012979D01*
X008379Y012818D01*
X008345Y012838D01*
X008299Y012851D01*
X008028Y012851D01*
X008028Y012463D01*
X007932Y012463D01*
X007932Y012726D01*
X007984Y012777D01*
X008038Y012909D01*
X008038Y013051D01*
X007984Y013183D01*
X007883Y013284D01*
X007751Y013338D01*
X007609Y013338D01*
X007477Y013284D01*
X007376Y013183D01*
X007322Y013051D01*
X007322Y012919D01*
X007191Y012788D01*
X007179Y012788D01*
X007176Y012785D01*
X007158Y012796D01*
X007112Y012808D01*
X006980Y012808D01*
X006848Y012808D01*
X006802Y012796D01*
X006784Y012785D01*
X006781Y012788D01*
X006431Y012788D01*
X006338Y012694D01*
X006338Y012629D01*
X006283Y012684D01*
X006151Y012738D01*
X006090Y012738D01*
X006090Y012967D01*
X006663Y013449D01*
X006675Y013581D01*
X006185Y014165D01*
X006100Y014172D01*
X006177Y014249D01*
X006931Y014814D01*
X006955Y014827D01*
X006957Y014817D01*
X006977Y014774D01*
X007145Y014574D01*
X007525Y014893D01*
X007625Y014774D01*
X007743Y014874D01*
X007644Y014992D01*
X008024Y015311D01*
X007990Y015352D01*
X008640Y015594D01*
X009560Y015794D01*
X010500Y015862D01*
X011282Y015806D01*
X011242Y015737D01*
X011641Y015507D01*
X011621Y015473D01*
X011222Y015703D01*
X011063Y015427D01*
X011036Y015357D01*
X011021Y015283D01*
X011017Y015208D01*
X011025Y015132D01*
X011044Y015059D01*
X011075Y014990D01*
X011116Y014927D01*
X011167Y014871D01*
X011168Y014870D01*
X011168Y014543D01*
X011072Y014543D01*
X011120Y014495D02*
X011135Y014480D01*
X011480Y014480D01*
X011680Y014280D01*
X011680Y013680D01*
X011980Y013380D01*
X012506Y013380D01*
X012580Y013306D01*
X012580Y012880D01*
X012680Y012880D01*
X012786Y012885D02*
X012831Y012897D01*
X012870Y012920D01*
X012870Y012876D01*
X012776Y012783D01*
X012722Y012651D01*
X012722Y012509D01*
X012746Y012451D01*
X012620Y012451D01*
X012620Y012628D01*
X012583Y012716D01*
X012516Y012783D01*
X012414Y012885D01*
X012458Y012885D01*
X012458Y013332D01*
X012554Y013332D01*
X012554Y012885D01*
X012786Y012885D01*
X012793Y012800D02*
X012500Y012800D01*
X012458Y012958D02*
X012554Y012958D01*
X012554Y013117D02*
X012458Y013117D01*
X012458Y013275D02*
X012554Y013275D01*
X012458Y013332D02*
X012070Y013332D01*
X012070Y013229D01*
X011916Y013383D01*
X011828Y013420D01*
X011755Y013420D01*
X011755Y013434D02*
X012070Y013434D01*
X012070Y013428D02*
X012458Y013428D01*
X012458Y013332D01*
X012070Y013275D02*
X012024Y013275D01*
X012070Y013428D02*
X012070Y013622D01*
X012009Y013622D01*
X011877Y013676D01*
X011776Y013777D01*
X011722Y013909D01*
X011575Y013909D01*
X011722Y013909D02*
X011722Y014051D01*
X011776Y014183D01*
X011877Y014284D01*
X012009Y014338D01*
X012106Y014338D01*
X012055Y014368D01*
X011943Y014513D01*
X011896Y014690D01*
X011920Y014871D01*
X012311Y015549D01*
X012367Y015592D01*
X012360Y015594D01*
X012262Y015615D01*
X012260Y015603D01*
X012233Y015533D01*
X012074Y015257D01*
X011675Y015487D01*
X011655Y015453D01*
X012054Y015223D01*
X011895Y014947D01*
X011847Y014889D01*
X011791Y014838D01*
X011728Y014797D01*
X011659Y014766D01*
X011595Y014749D01*
X011595Y014543D01*
X011935Y014543D01*
X011898Y014702D02*
X011595Y014702D01*
X011595Y014543D02*
X011168Y014543D01*
X011168Y014702D02*
X011072Y014702D01*
X011072Y014860D02*
X011168Y014860D01*
X011062Y015019D02*
X008270Y015019D01*
X008291Y014993D02*
X008124Y015193D01*
X007743Y014874D01*
X008012Y014554D01*
X008272Y014772D01*
X008299Y014811D01*
X008316Y014856D01*
X008320Y014903D01*
X008311Y014950D01*
X008291Y014993D01*
X008316Y014860D02*
X010680Y014860D01*
X010645Y014702D02*
X010590Y014702D01*
X011020Y015177D02*
X008137Y015177D01*
X008105Y015177D02*
X007864Y015177D01*
X007916Y015019D02*
X007675Y015019D01*
X007727Y014860D02*
X007755Y014860D01*
X007625Y014774D02*
X007893Y014454D01*
X007633Y014236D01*
X007590Y014216D01*
X007543Y014208D01*
X007496Y014212D01*
X007451Y014228D01*
X007413Y014255D01*
X007245Y014455D01*
X007625Y014774D01*
X007686Y014702D02*
X007888Y014702D01*
X007819Y014543D02*
X009070Y014543D01*
X009130Y014702D02*
X008188Y014702D01*
X008279Y014385D02*
X007810Y014385D01*
X007612Y014226D02*
X008153Y014226D01*
X008122Y014068D02*
X006266Y014068D01*
X006154Y014226D02*
X007456Y014226D01*
X007304Y014385D02*
X006358Y014385D01*
X006569Y014543D02*
X007349Y014543D01*
X007297Y014702D02*
X007538Y014702D01*
X007553Y014860D02*
X007486Y014860D01*
X007038Y014702D02*
X006781Y014702D01*
X006780Y014180D02*
X006780Y013380D01*
X007030Y013130D01*
X006980Y013080D01*
X006980Y012392D01*
X006980Y012808D01*
X006980Y012392D01*
X006980Y012392D01*
X007086Y012392D01*
X007086Y012392D01*
X006980Y012392D01*
X006980Y012392D01*
X006980Y012392D01*
X006874Y012392D01*
X006874Y012392D01*
X006980Y012392D01*
X006980Y011976D01*
X007112Y011976D01*
X007158Y011988D01*
X007176Y011999D01*
X007179Y011996D01*
X007373Y011996D01*
X007344Y011983D01*
X007277Y011916D01*
X007151Y011790D01*
X007114Y011702D01*
X007114Y011699D01*
X007086Y011671D01*
X007086Y011078D01*
X007084Y011083D01*
X006983Y011184D01*
X006874Y011229D01*
X006874Y011671D01*
X006781Y011764D01*
X006431Y011764D01*
X006338Y011671D01*
X006338Y011219D01*
X006093Y011464D01*
X005919Y011464D01*
X005795Y011464D01*
X005795Y011603D01*
X005811Y011618D01*
X005811Y012143D01*
X005877Y012076D01*
X006009Y012022D01*
X006151Y012022D01*
X006283Y012076D01*
X006338Y012131D01*
X006338Y012089D01*
X006431Y011996D01*
X006781Y011996D01*
X006784Y011999D01*
X006802Y011988D01*
X006848Y011976D01*
X006980Y011976D01*
X006980Y012392D01*
X006980Y012392D01*
X006980Y012324D02*
X006980Y012324D01*
X006980Y012166D02*
X006980Y012166D01*
X006980Y012007D02*
X006980Y012007D01*
X007209Y011849D02*
X005811Y011849D01*
X005811Y012007D02*
X006420Y012007D01*
X006357Y011690D02*
X005811Y011690D01*
X005795Y011532D02*
X006338Y011532D01*
X006338Y011373D02*
X006184Y011373D01*
X006874Y011373D02*
X007086Y011373D01*
X007086Y011215D02*
X006908Y011215D01*
X007095Y011056D02*
X007095Y011056D01*
X007138Y010898D02*
X008340Y010898D01*
X008340Y011056D02*
X007613Y011056D01*
X007622Y011215D02*
X008340Y011215D01*
X008580Y011780D02*
X007945Y011780D01*
X007980Y011745D01*
X007945Y011780D02*
X007480Y011780D01*
X007354Y011654D01*
X007354Y011368D01*
X007086Y011532D02*
X006874Y011532D01*
X006855Y011690D02*
X007105Y011690D01*
X006980Y012483D02*
X006980Y012483D01*
X006980Y012641D02*
X006980Y012641D01*
X006980Y012800D02*
X006980Y012800D01*
X007144Y012800D02*
X007203Y012800D01*
X007322Y012958D02*
X006090Y012958D01*
X006090Y012800D02*
X006816Y012800D01*
X007030Y013130D02*
X007480Y013580D01*
X007880Y013580D01*
X008280Y013180D01*
X008280Y012880D01*
X007980Y012580D01*
X007980Y012415D01*
X007932Y012483D02*
X008028Y012483D01*
X008028Y012641D02*
X007932Y012641D01*
X007993Y012800D02*
X008028Y012800D01*
X008038Y012958D02*
X008519Y012958D01*
X008540Y013117D02*
X008011Y013117D01*
X007891Y013275D02*
X008379Y013275D01*
X008322Y013434D02*
X006645Y013434D01*
X006665Y013592D02*
X008339Y013592D01*
X008340Y013751D02*
X006532Y013751D01*
X006399Y013909D02*
X008163Y013909D01*
X008680Y013480D02*
X008780Y013380D01*
X008780Y012880D01*
X008580Y012680D01*
X008580Y011780D01*
X008580Y010280D01*
X008080Y009780D01*
X008080Y007680D01*
X007738Y007569D02*
X007335Y007569D01*
X007335Y007728D02*
X007722Y007728D01*
X007780Y007886D02*
X007335Y007886D01*
X007335Y008045D02*
X007840Y008045D01*
X007840Y008203D02*
X007355Y008203D01*
X007355Y008362D02*
X007840Y008362D01*
X007840Y008520D02*
X007355Y008520D01*
X007355Y008463D02*
X007355Y008694D01*
X007343Y008740D01*
X007319Y008781D01*
X007286Y008815D01*
X007245Y008838D01*
X007199Y008851D01*
X006928Y008851D01*
X006928Y008463D01*
X007355Y008463D01*
X007145Y008415D02*
X007480Y008080D01*
X007480Y007280D01*
X007580Y007180D01*
X008980Y007180D01*
X009180Y007380D01*
X008798Y007805D02*
X008798Y008252D01*
X008410Y008252D01*
X008410Y007961D01*
X008422Y007916D01*
X008446Y007875D01*
X008480Y007841D01*
X008521Y007817D01*
X008566Y007805D01*
X008798Y007805D01*
X008798Y007886D02*
X008894Y007886D01*
X008894Y008045D02*
X008798Y008045D01*
X008798Y008203D02*
X008894Y008203D01*
X008894Y008362D02*
X008798Y008362D01*
X008798Y008520D02*
X008894Y008520D01*
X008844Y008679D02*
X008808Y008679D01*
X008808Y008837D02*
X008844Y008837D01*
X008844Y008996D02*
X008808Y008996D01*
X008844Y009009D02*
X008844Y009045D01*
X008808Y009045D01*
X008808Y009435D01*
X008838Y009509D01*
X008838Y009641D01*
X008843Y009646D01*
X008843Y009551D01*
X008912Y009483D01*
X008844Y009483D01*
X008844Y009045D01*
X009203Y009045D01*
X009203Y009326D01*
X009191Y009372D01*
X009167Y009413D01*
X009133Y009447D01*
X009114Y009457D01*
X009306Y009457D01*
X009217Y009369D01*
X009217Y008754D01*
X009212Y008759D01*
X009203Y008765D01*
X009203Y009009D01*
X008844Y009009D01*
X008844Y009154D02*
X008808Y009154D01*
X008808Y009313D02*
X008844Y009313D01*
X008844Y009471D02*
X008822Y009471D01*
X008838Y009630D02*
X008843Y009630D01*
X009203Y009313D02*
X009217Y009313D01*
X009203Y009154D02*
X009217Y009154D01*
X009203Y008996D02*
X009217Y008996D01*
X009203Y008837D02*
X009217Y008837D01*
X008449Y008837D02*
X008320Y008837D01*
X008320Y008679D02*
X008421Y008679D01*
X008410Y008520D02*
X008320Y008520D01*
X008320Y008362D02*
X008410Y008362D01*
X008410Y008203D02*
X008320Y008203D01*
X008320Y008045D02*
X008410Y008045D01*
X008380Y007886D02*
X008439Y007886D01*
X008438Y007728D02*
X009622Y007728D01*
X009685Y007569D02*
X008422Y007569D01*
X007843Y007411D02*
X007323Y007411D01*
X007038Y007252D02*
X009669Y007252D01*
X009730Y006777D02*
X010216Y006777D01*
X010216Y006935D02*
X010371Y006935D01*
X010371Y007094D02*
X010216Y007094D01*
X010216Y007252D02*
X010371Y007252D01*
X010371Y006683D02*
X010371Y006265D01*
X010908Y006265D01*
X010954Y006277D01*
X010995Y006301D01*
X011064Y006460D02*
X011276Y006460D01*
X011276Y006618D02*
X011064Y006618D01*
X011480Y006080D02*
X011934Y006080D01*
X012034Y006180D01*
X011405Y004716D02*
X010435Y004716D01*
X010435Y004399D02*
X011405Y004399D01*
X011405Y004558D02*
X010008Y004558D01*
X009912Y004558D02*
X009708Y004558D01*
X009912Y004399D02*
X010008Y004399D01*
X010008Y004241D02*
X009912Y004241D01*
X009292Y004558D02*
X009292Y004558D01*
X009292Y004580D02*
X009292Y004580D01*
X008780Y004380D02*
X008268Y004892D01*
X008268Y004954D01*
X008827Y005667D02*
X008923Y005667D01*
X008923Y005826D02*
X008827Y005826D01*
X010216Y006301D02*
X010371Y006301D01*
X010371Y006460D02*
X010216Y006460D01*
X010216Y006618D02*
X010371Y006618D01*
X008449Y008996D02*
X008320Y008996D01*
X008320Y009154D02*
X008449Y009154D01*
X007840Y009154D02*
X007260Y009154D01*
X007338Y009313D02*
X007840Y009313D01*
X007840Y009471D02*
X007330Y009471D01*
X007636Y009630D02*
X007840Y009630D01*
X007840Y009788D02*
X007730Y009788D01*
X007738Y009947D02*
X007907Y009947D01*
X008066Y010105D02*
X007661Y010105D01*
X007590Y010264D02*
X008224Y010264D01*
X008340Y010422D02*
X007535Y010422D01*
X007376Y010581D02*
X008340Y010581D01*
X008340Y010739D02*
X007218Y010739D01*
X006022Y010222D02*
X006022Y010119D01*
X006019Y010116D01*
X005915Y010116D01*
X005902Y010124D01*
X005856Y010136D01*
X005775Y010136D01*
X005694Y010136D01*
X005677Y010131D01*
X005659Y010136D01*
X005578Y010136D01*
X005498Y010136D01*
X005452Y010124D01*
X005438Y010116D01*
X004865Y010116D01*
X004771Y010022D01*
X004771Y009689D01*
X004438Y009689D01*
X004415Y009667D01*
X004128Y009667D01*
X004128Y009763D01*
X004032Y009763D01*
X004032Y010151D01*
X003962Y010151D01*
X003966Y010200D01*
X004166Y011120D01*
X004333Y011567D01*
X004359Y011541D01*
X004400Y011517D01*
X004446Y011505D01*
X004677Y011505D01*
X004677Y011932D01*
X004773Y011932D01*
X004773Y011505D01*
X004845Y011505D01*
X004845Y011052D01*
X004897Y011000D01*
X004845Y010948D01*
X004845Y010304D01*
X004939Y010210D01*
X005701Y010210D01*
X005795Y010304D01*
X005795Y010359D01*
X005877Y010276D01*
X006009Y010222D01*
X006022Y010222D01*
X005908Y010264D02*
X005755Y010264D01*
X005775Y010136D02*
X005775Y010071D01*
X005775Y010071D01*
X005775Y010136D01*
X005775Y010105D02*
X005775Y010105D01*
X005680Y010080D02*
X005680Y009870D01*
X005578Y009768D01*
X005599Y009768D02*
X005755Y009768D01*
X005755Y009768D01*
X005599Y009768D01*
X005599Y009768D01*
X005680Y009673D02*
X005775Y009768D01*
X005680Y009673D02*
X005680Y009180D01*
X005782Y009078D01*
X006268Y009078D01*
X006268Y009078D01*
X006268Y009038D01*
X006268Y008922D01*
X006268Y008882D01*
X006268Y008882D01*
X006268Y009078D01*
X006267Y009080D01*
X006080Y009080D01*
X005966Y009078D02*
X005966Y009078D01*
X005966Y009078D01*
X005900Y009078D01*
X005900Y008998D01*
X005905Y008980D01*
X005900Y008962D01*
X005900Y008882D01*
X005966Y008882D01*
X005966Y008882D01*
X005966Y008882D01*
X005900Y008882D01*
X005900Y008801D01*
X005905Y008783D01*
X005900Y008766D01*
X005900Y008685D01*
X005966Y008685D01*
X005966Y008685D01*
X005966Y008685D01*
X005900Y008685D01*
X005900Y008604D01*
X005905Y008586D01*
X005900Y008569D01*
X005900Y008540D01*
X005040Y008540D01*
X005040Y008814D01*
X005077Y008776D01*
X005209Y008722D01*
X005351Y008722D01*
X005483Y008776D01*
X005584Y008877D01*
X005638Y009009D01*
X005638Y009151D01*
X005592Y009264D01*
X005592Y009400D01*
X005659Y009400D01*
X005677Y009405D01*
X005694Y009400D01*
X005775Y009400D01*
X005775Y009466D01*
X005775Y009400D01*
X005856Y009400D01*
X005902Y009413D01*
X005915Y009420D01*
X005920Y009420D01*
X005920Y009415D01*
X005913Y009402D01*
X005900Y009356D01*
X005900Y009275D01*
X005900Y009194D01*
X005905Y009177D01*
X005900Y009159D01*
X005900Y009078D01*
X005966Y009078D01*
X005900Y009154D02*
X005637Y009154D01*
X005633Y008996D02*
X005901Y008996D01*
X005900Y008837D02*
X005543Y008837D01*
X005900Y008679D02*
X005040Y008679D01*
X005592Y009313D02*
X005900Y009313D01*
X005900Y009275D02*
X005966Y009275D01*
X005966Y009275D01*
X005900Y009275D01*
X005775Y009466D02*
X005775Y009466D01*
X006268Y009255D02*
X006268Y009078D01*
X006268Y009078D01*
X006268Y009255D01*
X006268Y009255D01*
X006268Y009154D02*
X006268Y009154D01*
X006267Y009080D02*
X006780Y009080D01*
X006880Y008980D01*
X006880Y008415D01*
X007145Y008415D01*
X006928Y008520D02*
X006832Y008520D01*
X006832Y008679D02*
X006928Y008679D01*
X006928Y008837D02*
X006832Y008837D01*
X006636Y008882D02*
X006571Y008882D01*
X006636Y008882D01*
X006571Y008882D02*
X006571Y008882D01*
X006571Y008882D01*
X006635Y008996D02*
X007840Y008996D01*
X007840Y008837D02*
X007247Y008837D01*
X007355Y008679D02*
X007840Y008679D01*
X006700Y009154D02*
X006636Y009154D01*
X006268Y008996D02*
X006268Y008996D01*
X006268Y008882D02*
X006268Y008725D01*
X006268Y008685D01*
X006268Y008685D01*
X006268Y008882D01*
X006268Y008882D01*
X006268Y008837D02*
X006268Y008837D01*
X006268Y008685D02*
X006268Y008488D01*
X006268Y008488D01*
X006268Y008685D01*
X006268Y008685D01*
X006268Y008679D02*
X006268Y008679D01*
X006268Y008520D02*
X006268Y008520D01*
X005680Y010080D02*
X005580Y010180D01*
X004480Y010180D01*
X004080Y009780D01*
X004080Y009715D01*
X004128Y009763D02*
X004128Y010151D01*
X004399Y010151D01*
X004445Y010138D01*
X004486Y010115D01*
X004519Y010081D01*
X004543Y010040D01*
X004555Y009994D01*
X004555Y009763D01*
X004128Y009763D01*
X004128Y009788D02*
X004032Y009788D01*
X004032Y009947D02*
X004128Y009947D01*
X004128Y010105D02*
X004032Y010105D01*
X003980Y010264D02*
X004885Y010264D01*
X004854Y010105D02*
X004495Y010105D01*
X004555Y009947D02*
X004771Y009947D01*
X004771Y009788D02*
X004555Y009788D01*
X004080Y009045D02*
X004080Y008280D01*
X004580Y007780D01*
X005578Y010071D02*
X005578Y010136D01*
X005578Y010071D01*
X005578Y010071D01*
X005578Y010105D02*
X005578Y010105D01*
X004845Y010422D02*
X004014Y010422D01*
X004048Y010581D02*
X004845Y010581D01*
X004845Y010739D02*
X004083Y010739D01*
X004117Y010898D02*
X004845Y010898D01*
X004845Y011056D02*
X004152Y011056D01*
X004201Y011215D02*
X004845Y011215D01*
X004845Y011373D02*
X004260Y011373D01*
X004319Y011532D02*
X004375Y011532D01*
X004677Y011532D02*
X004773Y011532D01*
X004773Y011690D02*
X004677Y011690D01*
X004677Y011849D02*
X004773Y011849D01*
X004977Y012870D02*
X005090Y012870D01*
X005090Y012970D01*
X005052Y012970D01*
X004977Y012870D01*
X005043Y012958D02*
X005090Y012958D01*
X006268Y013117D02*
X007349Y013117D01*
X007469Y013275D02*
X006457Y013275D01*
X006338Y012641D02*
X006325Y012641D01*
X008681Y014385D02*
X008888Y014385D01*
X009842Y014702D02*
X009878Y014702D01*
X010580Y013780D02*
X010580Y013254D01*
X010520Y013194D01*
X010360Y013354D01*
X009680Y013354D01*
X009654Y013380D01*
X009680Y012606D02*
X009380Y012306D01*
X009380Y011969D01*
X010504Y011067D02*
X010504Y010686D01*
X011256Y010689D02*
X013189Y010689D01*
X013040Y010929D02*
X012462Y010929D01*
X012462Y010929D01*
X012632Y010929D01*
X012632Y011317D01*
X012728Y011317D01*
X012728Y010929D01*
X012999Y010929D01*
X013040Y010940D01*
X013040Y010929D01*
X012728Y011056D02*
X012632Y011056D01*
X012632Y011215D02*
X012728Y011215D01*
X012680Y011365D02*
X012395Y011080D01*
X012280Y011080D01*
X012171Y011071D01*
X011256Y011071D01*
X011256Y011071D01*
X011704Y011071D01*
X011704Y010950D01*
X012301Y010950D01*
X012274Y010965D01*
X012241Y010999D01*
X012217Y011040D01*
X012205Y011086D01*
X012205Y011198D01*
X012183Y011176D01*
X012051Y011122D01*
X011909Y011122D01*
X011777Y011176D01*
X011699Y011255D01*
X011704Y011237D01*
X011704Y011071D01*
X011256Y011071D01*
X011256Y010689D02*
X011280Y010665D01*
X011256Y010689D02*
X011905Y010689D01*
X012060Y010534D01*
X012213Y011056D02*
X011704Y011056D01*
X011704Y011215D02*
X011739Y011215D01*
X011835Y011835D02*
X011256Y011835D01*
X011835Y011835D02*
X011980Y011980D01*
X012625Y011980D01*
X012680Y012035D01*
X012733Y012483D02*
X012620Y012483D01*
X012614Y012641D02*
X012722Y012641D01*
X012070Y013592D02*
X011679Y013592D01*
X011575Y013751D02*
X011803Y013751D01*
X011729Y014068D02*
X011575Y014068D01*
X011595Y014226D02*
X011820Y014226D01*
X012042Y014385D02*
X011595Y014385D01*
X011815Y014860D02*
X011918Y014860D01*
X011936Y015019D02*
X012005Y015019D01*
X012027Y015177D02*
X012097Y015177D01*
X012119Y015336D02*
X012188Y015336D01*
X012210Y015494D02*
X012280Y015494D01*
X011938Y015336D02*
X011858Y015336D01*
X011633Y015494D02*
X011584Y015494D01*
X011389Y015653D02*
X011309Y015653D01*
X011193Y015653D02*
X008908Y015653D01*
X008372Y015494D02*
X011102Y015494D01*
X011032Y015336D02*
X008004Y015336D01*
X009793Y015811D02*
X011207Y015811D01*
X013080Y014980D02*
X012680Y014280D01*
X012480Y014080D01*
X012180Y014080D01*
X012080Y013980D01*
X013080Y014980D02*
X013380Y015280D01*
X013780Y015280D01*
X014246Y014814D01*
X014246Y013980D01*
X016990Y010022D02*
X017047Y010022D01*
X017102Y009260D01*
X017034Y008320D01*
X016834Y007400D01*
X016590Y006745D01*
X016590Y006952D01*
X016202Y006952D01*
X016202Y006789D01*
X016172Y006789D01*
X016172Y006352D01*
X016136Y006352D01*
X016136Y006789D01*
X016106Y006789D01*
X016106Y006952D01*
X016202Y006952D01*
X016202Y007048D01*
X016106Y007048D01*
X016106Y007495D01*
X015877Y007495D01*
X015952Y007570D01*
X015952Y008093D01*
X015942Y008103D01*
X015942Y008945D01*
X016067Y009070D01*
X016367Y009070D01*
X016867Y009570D01*
X016990Y009693D01*
X016990Y010022D01*
X016990Y009947D02*
X017053Y009947D01*
X017064Y009788D02*
X016990Y009788D01*
X016926Y009630D02*
X017075Y009630D01*
X017087Y009471D02*
X016768Y009471D01*
X016609Y009313D02*
X017098Y009313D01*
X017094Y009154D02*
X016451Y009154D01*
X015992Y008996D02*
X017083Y008996D01*
X017071Y008837D02*
X015942Y008837D01*
X015942Y008679D02*
X017060Y008679D01*
X017049Y008520D02*
X015942Y008520D01*
X015942Y008362D02*
X017037Y008362D01*
X017034Y008320D02*
X017034Y008320D01*
X017009Y008203D02*
X015942Y008203D01*
X015952Y008045D02*
X016974Y008045D01*
X016940Y007886D02*
X015952Y007886D01*
X015952Y007728D02*
X016905Y007728D01*
X016871Y007569D02*
X015951Y007569D01*
X016106Y007411D02*
X016202Y007411D01*
X016202Y007495D02*
X016202Y007048D01*
X016590Y007048D01*
X016590Y007339D01*
X016578Y007384D01*
X016554Y007425D01*
X016520Y007459D01*
X016479Y007483D01*
X016434Y007495D01*
X016202Y007495D01*
X016202Y007252D02*
X016106Y007252D01*
X016106Y007094D02*
X016202Y007094D01*
X016202Y006935D02*
X016106Y006935D01*
X016136Y006777D02*
X016172Y006777D01*
X016172Y006618D02*
X016136Y006618D01*
X016136Y006460D02*
X016172Y006460D01*
X016136Y006351D02*
X016136Y006315D01*
X016172Y006315D01*
X016172Y005908D01*
X016125Y005821D01*
X016068Y005877D01*
X016136Y005877D01*
X016136Y006315D01*
X015777Y006315D01*
X015777Y006034D01*
X015789Y005988D01*
X015813Y005947D01*
X015847Y005913D01*
X015866Y005903D01*
X015674Y005903D01*
X015763Y005991D01*
X015763Y006560D01*
X015766Y006563D01*
X015777Y006551D01*
X015777Y006351D01*
X016136Y006351D01*
X016136Y006301D02*
X016172Y006301D01*
X016172Y006143D02*
X016136Y006143D01*
X016136Y005984D02*
X016172Y005984D01*
X016127Y005826D02*
X016120Y005826D01*
X015792Y005984D02*
X015756Y005984D01*
X015763Y006143D02*
X015777Y006143D01*
X015763Y006301D02*
X015777Y006301D01*
X015763Y006460D02*
X015777Y006460D01*
X015056Y005984D02*
X014990Y005984D01*
X015097Y005509D02*
X015369Y005509D01*
X016590Y006777D02*
X016602Y006777D01*
X016590Y006935D02*
X016661Y006935D01*
X016720Y007094D02*
X016590Y007094D01*
X016590Y007252D02*
X016779Y007252D01*
X016836Y007411D02*
X016563Y007411D01*
X014468Y008520D02*
X014037Y008520D01*
X013878Y008679D02*
X014468Y008679D01*
X014468Y008837D02*
X013943Y008837D01*
X009480Y009893D02*
X009380Y009993D01*
X009380Y010591D01*
D34*
X009980Y010380D02*
X009980Y011180D01*
X009780Y011380D01*
X009880Y011480D01*
X009880Y011680D01*
X010047Y011847D01*
X010520Y011847D01*
X010504Y011831D01*
X010231Y011831D01*
X010520Y011847D02*
X010520Y012446D01*
X011280Y012446D02*
X011914Y012446D01*
X011980Y012380D01*
X011980Y011480D02*
X011282Y011480D01*
X011256Y011453D01*
X011300Y009809D02*
X012037Y009809D01*
X012060Y009786D01*
X012066Y009780D01*
X012380Y009780D01*
X012580Y009580D01*
X012580Y009080D01*
X012680Y008980D01*
X013280Y008980D01*
X013980Y008280D01*
X014380Y008280D01*
X014452Y008208D01*
X014452Y007831D01*
X014196Y007831D02*
X014196Y007264D01*
X014280Y007180D01*
X013940Y007440D02*
X013880Y007380D01*
X013280Y007380D01*
X013428Y007831D02*
X012931Y007831D01*
X012680Y007580D01*
X012026Y006760D02*
X012032Y006754D01*
X012034Y006754D01*
X013684Y007831D02*
X013684Y008276D01*
X013380Y008580D01*
X012880Y008580D01*
X013680Y009080D02*
X014196Y009596D01*
X014196Y010129D01*
X013940Y010129D02*
X013940Y011140D01*
X013980Y011180D01*
X014980Y011180D01*
X015080Y011080D01*
X015080Y010980D01*
X015280Y010780D01*
X015380Y010780D01*
X015480Y010680D01*
X016280Y010680D01*
X016380Y010780D01*
X016380Y011266D01*
X016026Y011620D01*
X015480Y011480D02*
X015380Y011580D01*
X015074Y011580D01*
X014974Y011680D01*
X015480Y011480D02*
X015480Y011080D01*
X015580Y010480D02*
X016180Y010480D01*
X016380Y010280D01*
X016780Y010180D02*
X016980Y010380D01*
X016780Y010180D02*
X016780Y009780D01*
X016280Y009280D01*
X015980Y009280D01*
X015732Y009032D01*
X015732Y007831D01*
X014964Y007831D02*
X014964Y008364D01*
X015180Y008580D01*
X016180Y009780D02*
X015831Y010129D01*
X015732Y010129D01*
X015476Y010129D02*
X015476Y010376D01*
X015580Y010480D01*
X015220Y010440D02*
X015220Y010129D01*
X014964Y010129D02*
X014964Y010396D01*
X014780Y010580D01*
X014480Y010580D01*
X014280Y010780D01*
X013780Y010580D02*
X013780Y011580D01*
X013880Y011680D01*
X014226Y011680D01*
X014086Y012380D02*
X013680Y012380D01*
X013580Y012280D01*
X013580Y010680D01*
X013428Y010528D01*
X013428Y010129D01*
X013684Y010129D02*
X013684Y010484D01*
X013780Y010580D01*
X014780Y010880D02*
X015220Y010440D01*
X016774Y011186D02*
X017080Y010880D01*
X016774Y011186D02*
X016774Y011620D01*
X015380Y012380D02*
X014994Y012380D01*
X014914Y012460D01*
X014812Y013180D02*
X015112Y013480D01*
X014812Y013180D02*
X013680Y013180D01*
X013306Y013554D01*
X013254Y013380D01*
X013080Y013206D01*
X013080Y012580D01*
X014086Y012380D02*
X014166Y012460D01*
X013940Y007831D02*
X013940Y007440D01*
X014780Y006280D02*
X015353Y006280D01*
X015406Y006333D01*
X015406Y006706D02*
X015406Y007000D01*
X009980Y007780D02*
X009594Y008166D01*
X009594Y008300D01*
X009594Y009007D01*
X009574Y009027D01*
X008780Y009880D02*
X008480Y009580D01*
X008780Y009880D02*
X008780Y012380D01*
X009080Y012680D01*
X009080Y013680D01*
X009486Y014086D01*
X009486Y014260D01*
X009466Y014280D01*
X009080Y014280D01*
X008880Y014080D01*
X008480Y014080D01*
X007680Y012980D02*
X007354Y012654D01*
X007354Y012392D01*
X006606Y012392D02*
X006092Y012392D01*
X006080Y012380D01*
X005880Y012680D02*
X005880Y013391D01*
X006006Y013517D01*
X005880Y012680D02*
X005395Y012195D01*
X005395Y011980D01*
X005395Y011399D01*
X005320Y011374D01*
X005540Y011254D01*
X006006Y011254D01*
X006380Y010880D01*
X006380Y010780D01*
X006780Y010380D01*
X006780Y009580D01*
X006980Y009380D01*
X007380Y009880D02*
X007380Y010280D01*
X006780Y010880D01*
X006080Y010580D02*
X006034Y010626D01*
X005320Y010626D01*
X005382Y009768D02*
X005382Y009182D01*
X005280Y009080D01*
X004988Y009288D02*
X004980Y009280D01*
X004697Y009280D01*
X004692Y009275D01*
X004310Y009275D01*
X004080Y009045D01*
X004244Y008882D01*
X004692Y008882D01*
X004692Y009078D02*
X004113Y009078D01*
X004080Y009045D01*
X004988Y009288D02*
X004988Y009768D01*
X005185Y009768D01*
X005578Y009768D02*
X005674Y009673D01*
X005680Y009673D01*
X005972Y009768D02*
X005972Y009772D01*
X006380Y010180D01*
X006268Y009275D02*
X006268Y009078D01*
X006268Y008882D01*
X006268Y008685D01*
X006268Y008488D01*
X006168Y008192D02*
X005972Y008192D01*
X006168Y008192D02*
X006480Y007880D01*
X006745Y007880D01*
X006880Y007745D01*
X006680Y007180D02*
X006480Y006980D01*
X005580Y006980D01*
X005306Y006706D01*
X005306Y006420D01*
X005445Y007480D02*
X005578Y007613D01*
X005578Y008192D01*
X005775Y008192D02*
X005775Y007985D01*
X005980Y007780D01*
X005980Y007615D01*
X006115Y007480D01*
X007394Y006700D02*
X007354Y006460D01*
X007394Y006700D02*
X008566Y006700D01*
X008060Y006700D01*
X007980Y006680D01*
M02*
