G04 #@! TF.FileFunction,Soldermask,Bot*
%FSLAX46Y46*%
G04 Gerber Fmt 4.6, Leading zero omitted, Abs format (unit mm)*
G04 Created by KiCad (PCBNEW (2014-12-04 BZR 5312)-product) date St 22. apríl 2015, 11:14:28 CEST*
%MOMM*%
G01*
G04 APERTURE LIST*
%ADD10C,0.100000*%
%ADD11R,1.300000X0.700000*%
%ADD12R,0.700000X1.300000*%
%ADD13R,0.500000X1.000000*%
%ADD14R,1.000000X3.000000*%
%ADD15R,1.250000X1.000000*%
%ADD16R,1.000000X1.250000*%
%ADD17C,0.250000*%
%ADD18R,2.540000X2.670000*%
%ADD19R,1.270000X0.762000*%
G04 APERTURE END LIST*
D10*
G36*
X233644101Y-76584023D02*
X233467324Y-76760800D01*
X232760217Y-76053693D01*
X232936994Y-75876916D01*
X233644101Y-76584023D01*
X233644101Y-76584023D01*
G37*
G36*
X233290548Y-76937577D02*
X233113771Y-77114354D01*
X232406664Y-76407247D01*
X232583441Y-76230470D01*
X233290548Y-76937577D01*
X233290548Y-76937577D01*
G37*
G36*
X232936994Y-77291130D02*
X232760217Y-77467907D01*
X232053110Y-76760800D01*
X232229887Y-76584023D01*
X232936994Y-77291130D01*
X232936994Y-77291130D01*
G37*
G36*
X232583441Y-77644683D02*
X232406664Y-77821460D01*
X231699557Y-77114353D01*
X231876334Y-76937576D01*
X232583441Y-77644683D01*
X232583441Y-77644683D01*
G37*
G36*
X232229888Y-77998237D02*
X232053111Y-78175014D01*
X231346004Y-77467907D01*
X231522781Y-77291130D01*
X232229888Y-77998237D01*
X232229888Y-77998237D01*
G37*
G36*
X231876334Y-78351790D02*
X231699557Y-78528567D01*
X230992450Y-77821460D01*
X231169227Y-77644683D01*
X231876334Y-78351790D01*
X231876334Y-78351790D01*
G37*
G36*
X231522781Y-78705344D02*
X231346004Y-78882121D01*
X230638897Y-78175014D01*
X230815674Y-77998237D01*
X231522781Y-78705344D01*
X231522781Y-78705344D01*
G37*
G36*
X231169227Y-79058897D02*
X230992450Y-79235674D01*
X230285343Y-78528567D01*
X230462120Y-78351790D01*
X231169227Y-79058897D01*
X231169227Y-79058897D01*
G37*
G36*
X230815674Y-79412450D02*
X230638897Y-79589227D01*
X229931790Y-78882120D01*
X230108567Y-78705343D01*
X230815674Y-79412450D01*
X230815674Y-79412450D01*
G37*
G36*
X230462121Y-79766004D02*
X230285344Y-79942781D01*
X229578237Y-79235674D01*
X229755014Y-79058897D01*
X230462121Y-79766004D01*
X230462121Y-79766004D01*
G37*
G36*
X230108567Y-80119557D02*
X229931790Y-80296334D01*
X229224683Y-79589227D01*
X229401460Y-79412450D01*
X230108567Y-80119557D01*
X230108567Y-80119557D01*
G37*
G36*
X229755014Y-80473111D02*
X229578237Y-80649888D01*
X228871130Y-79942781D01*
X229047907Y-79766004D01*
X229755014Y-80473111D01*
X229755014Y-80473111D01*
G37*
G36*
X229401460Y-80826664D02*
X229224683Y-81003441D01*
X228517576Y-80296334D01*
X228694353Y-80119557D01*
X229401460Y-80826664D01*
X229401460Y-80826664D01*
G37*
G36*
X229047907Y-81180217D02*
X228871130Y-81356994D01*
X228164023Y-80649887D01*
X228340800Y-80473110D01*
X229047907Y-81180217D01*
X229047907Y-81180217D01*
G37*
G36*
X228694354Y-81533771D02*
X228517577Y-81710548D01*
X227810470Y-81003441D01*
X227987247Y-80826664D01*
X228694354Y-81533771D01*
X228694354Y-81533771D01*
G37*
G36*
X228340800Y-81887324D02*
X228164023Y-82064101D01*
X227456916Y-81356994D01*
X227633693Y-81180217D01*
X228340800Y-81887324D01*
X228340800Y-81887324D01*
G37*
G36*
X224875977Y-82064101D02*
X224699200Y-81887324D01*
X225406307Y-81180217D01*
X225583084Y-81356994D01*
X224875977Y-82064101D01*
X224875977Y-82064101D01*
G37*
G36*
X224522423Y-81710548D02*
X224345646Y-81533771D01*
X225052753Y-80826664D01*
X225229530Y-81003441D01*
X224522423Y-81710548D01*
X224522423Y-81710548D01*
G37*
G36*
X224168870Y-81356994D02*
X223992093Y-81180217D01*
X224699200Y-80473110D01*
X224875977Y-80649887D01*
X224168870Y-81356994D01*
X224168870Y-81356994D01*
G37*
G36*
X223815317Y-81003441D02*
X223638540Y-80826664D01*
X224345647Y-80119557D01*
X224522424Y-80296334D01*
X223815317Y-81003441D01*
X223815317Y-81003441D01*
G37*
G36*
X223461763Y-80649888D02*
X223284986Y-80473111D01*
X223992093Y-79766004D01*
X224168870Y-79942781D01*
X223461763Y-80649888D01*
X223461763Y-80649888D01*
G37*
G36*
X223108210Y-80296334D02*
X222931433Y-80119557D01*
X223638540Y-79412450D01*
X223815317Y-79589227D01*
X223108210Y-80296334D01*
X223108210Y-80296334D01*
G37*
G36*
X222754656Y-79942781D02*
X222577879Y-79766004D01*
X223284986Y-79058897D01*
X223461763Y-79235674D01*
X222754656Y-79942781D01*
X222754656Y-79942781D01*
G37*
G36*
X222401103Y-79589227D02*
X222224326Y-79412450D01*
X222931433Y-78705343D01*
X223108210Y-78882120D01*
X222401103Y-79589227D01*
X222401103Y-79589227D01*
G37*
G36*
X222047550Y-79235674D02*
X221870773Y-79058897D01*
X222577880Y-78351790D01*
X222754657Y-78528567D01*
X222047550Y-79235674D01*
X222047550Y-79235674D01*
G37*
G36*
X221693996Y-78882121D02*
X221517219Y-78705344D01*
X222224326Y-77998237D01*
X222401103Y-78175014D01*
X221693996Y-78882121D01*
X221693996Y-78882121D01*
G37*
G36*
X221340443Y-78528567D02*
X221163666Y-78351790D01*
X221870773Y-77644683D01*
X222047550Y-77821460D01*
X221340443Y-78528567D01*
X221340443Y-78528567D01*
G37*
G36*
X220986889Y-78175014D02*
X220810112Y-77998237D01*
X221517219Y-77291130D01*
X221693996Y-77467907D01*
X220986889Y-78175014D01*
X220986889Y-78175014D01*
G37*
G36*
X220633336Y-77821460D02*
X220456559Y-77644683D01*
X221163666Y-76937576D01*
X221340443Y-77114353D01*
X220633336Y-77821460D01*
X220633336Y-77821460D01*
G37*
G36*
X220279783Y-77467907D02*
X220103006Y-77291130D01*
X220810113Y-76584023D01*
X220986890Y-76760800D01*
X220279783Y-77467907D01*
X220279783Y-77467907D01*
G37*
G36*
X219926229Y-77114354D02*
X219749452Y-76937577D01*
X220456559Y-76230470D01*
X220633336Y-76407247D01*
X219926229Y-77114354D01*
X219926229Y-77114354D01*
G37*
G36*
X219572676Y-76760800D02*
X219395899Y-76584023D01*
X220103006Y-75876916D01*
X220279783Y-76053693D01*
X219572676Y-76760800D01*
X219572676Y-76760800D01*
G37*
G36*
X220279783Y-73826307D02*
X220103006Y-74003084D01*
X219395899Y-73295977D01*
X219572676Y-73119200D01*
X220279783Y-73826307D01*
X220279783Y-73826307D01*
G37*
G36*
X220633336Y-73472753D02*
X220456559Y-73649530D01*
X219749452Y-72942423D01*
X219926229Y-72765646D01*
X220633336Y-73472753D01*
X220633336Y-73472753D01*
G37*
G36*
X220986890Y-73119200D02*
X220810113Y-73295977D01*
X220103006Y-72588870D01*
X220279783Y-72412093D01*
X220986890Y-73119200D01*
X220986890Y-73119200D01*
G37*
G36*
X221340443Y-72765647D02*
X221163666Y-72942424D01*
X220456559Y-72235317D01*
X220633336Y-72058540D01*
X221340443Y-72765647D01*
X221340443Y-72765647D01*
G37*
G36*
X221693996Y-72412093D02*
X221517219Y-72588870D01*
X220810112Y-71881763D01*
X220986889Y-71704986D01*
X221693996Y-72412093D01*
X221693996Y-72412093D01*
G37*
G36*
X222047550Y-72058540D02*
X221870773Y-72235317D01*
X221163666Y-71528210D01*
X221340443Y-71351433D01*
X222047550Y-72058540D01*
X222047550Y-72058540D01*
G37*
G36*
X222401103Y-71704986D02*
X222224326Y-71881763D01*
X221517219Y-71174656D01*
X221693996Y-70997879D01*
X222401103Y-71704986D01*
X222401103Y-71704986D01*
G37*
G36*
X222754657Y-71351433D02*
X222577880Y-71528210D01*
X221870773Y-70821103D01*
X222047550Y-70644326D01*
X222754657Y-71351433D01*
X222754657Y-71351433D01*
G37*
G36*
X223108210Y-70997880D02*
X222931433Y-71174657D01*
X222224326Y-70467550D01*
X222401103Y-70290773D01*
X223108210Y-70997880D01*
X223108210Y-70997880D01*
G37*
G36*
X223461763Y-70644326D02*
X223284986Y-70821103D01*
X222577879Y-70113996D01*
X222754656Y-69937219D01*
X223461763Y-70644326D01*
X223461763Y-70644326D01*
G37*
G36*
X223815317Y-70290773D02*
X223638540Y-70467550D01*
X222931433Y-69760443D01*
X223108210Y-69583666D01*
X223815317Y-70290773D01*
X223815317Y-70290773D01*
G37*
G36*
X224168870Y-69937219D02*
X223992093Y-70113996D01*
X223284986Y-69406889D01*
X223461763Y-69230112D01*
X224168870Y-69937219D01*
X224168870Y-69937219D01*
G37*
G36*
X224522424Y-69583666D02*
X224345647Y-69760443D01*
X223638540Y-69053336D01*
X223815317Y-68876559D01*
X224522424Y-69583666D01*
X224522424Y-69583666D01*
G37*
G36*
X224875977Y-69230113D02*
X224699200Y-69406890D01*
X223992093Y-68699783D01*
X224168870Y-68523006D01*
X224875977Y-69230113D01*
X224875977Y-69230113D01*
G37*
G36*
X225229530Y-68876559D02*
X225052753Y-69053336D01*
X224345646Y-68346229D01*
X224522423Y-68169452D01*
X225229530Y-68876559D01*
X225229530Y-68876559D01*
G37*
G36*
X225583084Y-68523006D02*
X225406307Y-68699783D01*
X224699200Y-67992676D01*
X224875977Y-67815899D01*
X225583084Y-68523006D01*
X225583084Y-68523006D01*
G37*
G36*
X227633693Y-68699783D02*
X227456916Y-68523006D01*
X228164023Y-67815899D01*
X228340800Y-67992676D01*
X227633693Y-68699783D01*
X227633693Y-68699783D01*
G37*
G36*
X227987247Y-69053336D02*
X227810470Y-68876559D01*
X228517577Y-68169452D01*
X228694354Y-68346229D01*
X227987247Y-69053336D01*
X227987247Y-69053336D01*
G37*
G36*
X228340800Y-69406890D02*
X228164023Y-69230113D01*
X228871130Y-68523006D01*
X229047907Y-68699783D01*
X228340800Y-69406890D01*
X228340800Y-69406890D01*
G37*
G36*
X228694353Y-69760443D02*
X228517576Y-69583666D01*
X229224683Y-68876559D01*
X229401460Y-69053336D01*
X228694353Y-69760443D01*
X228694353Y-69760443D01*
G37*
G36*
X229047907Y-70113996D02*
X228871130Y-69937219D01*
X229578237Y-69230112D01*
X229755014Y-69406889D01*
X229047907Y-70113996D01*
X229047907Y-70113996D01*
G37*
G36*
X229401460Y-70467550D02*
X229224683Y-70290773D01*
X229931790Y-69583666D01*
X230108567Y-69760443D01*
X229401460Y-70467550D01*
X229401460Y-70467550D01*
G37*
G36*
X229755014Y-70821103D02*
X229578237Y-70644326D01*
X230285344Y-69937219D01*
X230462121Y-70113996D01*
X229755014Y-70821103D01*
X229755014Y-70821103D01*
G37*
G36*
X230108567Y-71174657D02*
X229931790Y-70997880D01*
X230638897Y-70290773D01*
X230815674Y-70467550D01*
X230108567Y-71174657D01*
X230108567Y-71174657D01*
G37*
G36*
X230462120Y-71528210D02*
X230285343Y-71351433D01*
X230992450Y-70644326D01*
X231169227Y-70821103D01*
X230462120Y-71528210D01*
X230462120Y-71528210D01*
G37*
G36*
X230815674Y-71881763D02*
X230638897Y-71704986D01*
X231346004Y-70997879D01*
X231522781Y-71174656D01*
X230815674Y-71881763D01*
X230815674Y-71881763D01*
G37*
G36*
X231169227Y-72235317D02*
X230992450Y-72058540D01*
X231699557Y-71351433D01*
X231876334Y-71528210D01*
X231169227Y-72235317D01*
X231169227Y-72235317D01*
G37*
G36*
X231522781Y-72588870D02*
X231346004Y-72412093D01*
X232053111Y-71704986D01*
X232229888Y-71881763D01*
X231522781Y-72588870D01*
X231522781Y-72588870D01*
G37*
G36*
X231876334Y-72942424D02*
X231699557Y-72765647D01*
X232406664Y-72058540D01*
X232583441Y-72235317D01*
X231876334Y-72942424D01*
X231876334Y-72942424D01*
G37*
G36*
X232229887Y-73295977D02*
X232053110Y-73119200D01*
X232760217Y-72412093D01*
X232936994Y-72588870D01*
X232229887Y-73295977D01*
X232229887Y-73295977D01*
G37*
G36*
X232583441Y-73649530D02*
X232406664Y-73472753D01*
X233113771Y-72765646D01*
X233290548Y-72942423D01*
X232583441Y-73649530D01*
X232583441Y-73649530D01*
G37*
G36*
X232936994Y-74003084D02*
X232760217Y-73826307D01*
X233467324Y-73119200D01*
X233644101Y-73295977D01*
X232936994Y-74003084D01*
X232936994Y-74003084D01*
G37*
D11*
X239928400Y-71714400D03*
X239928400Y-69814400D03*
D12*
X238699000Y-73456800D03*
X240599000Y-73456800D03*
D11*
X232460800Y-88072000D03*
X232460800Y-86172000D03*
X212615780Y-69418160D03*
X212615780Y-71318160D03*
X214617300Y-68727280D03*
X214617300Y-70627280D03*
D12*
X214233800Y-78181200D03*
X212333800Y-78181200D03*
D11*
X231927400Y-91175800D03*
X231927400Y-93075800D03*
D12*
X217332600Y-78181200D03*
X215432600Y-78181200D03*
X217540800Y-66522600D03*
X219440800Y-66522600D03*
D10*
G36*
X217426419Y-81653742D02*
X218345658Y-82572981D01*
X217850683Y-83067956D01*
X216931444Y-82148717D01*
X217426419Y-81653742D01*
X217426419Y-81653742D01*
G37*
G36*
X216082917Y-82997244D02*
X217002156Y-83916483D01*
X216507181Y-84411458D01*
X215587942Y-83492219D01*
X216082917Y-82997244D01*
X216082917Y-82997244D01*
G37*
D13*
X237678000Y-93602000D03*
X236728000Y-93602000D03*
X235778000Y-93602000D03*
X237678000Y-90802000D03*
X235778000Y-90802000D03*
D14*
X238774000Y-82804000D03*
X234174000Y-82804000D03*
D11*
X239776000Y-93152000D03*
X239776000Y-91252000D03*
D13*
X236052400Y-88064800D03*
X235102400Y-88064800D03*
X234152400Y-88064800D03*
X236052400Y-85264800D03*
X234152400Y-85264800D03*
D15*
X233832400Y-68056000D03*
X233832400Y-66056000D03*
X237896400Y-69180200D03*
X237896400Y-71180200D03*
X237591600Y-87969600D03*
X237591600Y-85969600D03*
X233934000Y-91202000D03*
X233934000Y-93202000D03*
D16*
X236794800Y-79806800D03*
X238794800Y-79806800D03*
D15*
X234391200Y-72348600D03*
X234391200Y-70348600D03*
D16*
X223707200Y-66751200D03*
X221707200Y-66751200D03*
X221199200Y-82854800D03*
X223199200Y-82854800D03*
X218322400Y-75539600D03*
X216322400Y-75539600D03*
D15*
X231749600Y-68056000D03*
X231749600Y-66056000D03*
D16*
X218170000Y-72923400D03*
X216170000Y-72923400D03*
D15*
X212648800Y-73295000D03*
X212648800Y-75295000D03*
D10*
G36*
X216264719Y-91156598D02*
X217148602Y-92040481D01*
X216441495Y-92747588D01*
X215557612Y-91863705D01*
X216264719Y-91156598D01*
X216264719Y-91156598D01*
G37*
G36*
X214850505Y-92570812D02*
X215734388Y-93454695D01*
X215027281Y-94161802D01*
X214143398Y-93277919D01*
X214850505Y-92570812D01*
X214850505Y-92570812D01*
G37*
G36*
X213604881Y-92739402D02*
X212720998Y-91855519D01*
X213428105Y-91148412D01*
X214311988Y-92032295D01*
X213604881Y-92739402D01*
X213604881Y-92739402D01*
G37*
G36*
X215019095Y-91325188D02*
X214135212Y-90441305D01*
X214842319Y-89734198D01*
X215726202Y-90618081D01*
X215019095Y-91325188D01*
X215019095Y-91325188D01*
G37*
D17*
X219431611Y-82972575D02*
X218512373Y-83891813D01*
D10*
G36*
X218795216Y-84351433D02*
X219891231Y-83255418D01*
X220068008Y-83432195D01*
X218971993Y-84528210D01*
X218795216Y-84351433D01*
X218795216Y-84351433D01*
G37*
G36*
X219254835Y-84811052D02*
X220350850Y-83715037D01*
X220527627Y-83891814D01*
X219431612Y-84987829D01*
X219254835Y-84811052D01*
X219254835Y-84811052D01*
G37*
G36*
X219714454Y-85270671D02*
X220810469Y-84174656D01*
X220987246Y-84351433D01*
X219891231Y-85447448D01*
X219714454Y-85270671D01*
X219714454Y-85270671D01*
G37*
G36*
X220174074Y-85730291D02*
X221270089Y-84634276D01*
X221446866Y-84811053D01*
X220350851Y-85907068D01*
X220174074Y-85730291D01*
X220174074Y-85730291D01*
G37*
G36*
X220633693Y-86189910D02*
X221729708Y-85093895D01*
X221906485Y-85270672D01*
X220810470Y-86366687D01*
X220633693Y-86189910D01*
X220633693Y-86189910D01*
G37*
G36*
X221093313Y-86649530D02*
X222189328Y-85553515D01*
X222366105Y-85730292D01*
X221270090Y-86826307D01*
X221093313Y-86649530D01*
X221093313Y-86649530D01*
G37*
G36*
X221552932Y-87109149D02*
X222648947Y-86013134D01*
X222825724Y-86189911D01*
X221729709Y-87285926D01*
X221552932Y-87109149D01*
X221552932Y-87109149D01*
G37*
G36*
X222012552Y-87568769D02*
X223108567Y-86472754D01*
X223285344Y-86649531D01*
X222189329Y-87745546D01*
X222012552Y-87568769D01*
X222012552Y-87568769D01*
G37*
G36*
X222472171Y-88028388D02*
X223568186Y-86932373D01*
X223744963Y-87109150D01*
X222648948Y-88205165D01*
X222472171Y-88028388D01*
X222472171Y-88028388D01*
G37*
G36*
X222931790Y-88488007D02*
X224027805Y-87391992D01*
X224204582Y-87568769D01*
X223108567Y-88664784D01*
X222931790Y-88488007D01*
X222931790Y-88488007D01*
G37*
G36*
X223391410Y-88947627D02*
X224487425Y-87851612D01*
X224664202Y-88028389D01*
X223568187Y-89124404D01*
X223391410Y-88947627D01*
X223391410Y-88947627D01*
G37*
G36*
X219431612Y-92907425D02*
X220527627Y-91811410D01*
X220704404Y-91988187D01*
X219608389Y-93084202D01*
X219431612Y-92907425D01*
X219431612Y-92907425D01*
G37*
G36*
X218971992Y-92447805D02*
X220068007Y-91351790D01*
X220244784Y-91528567D01*
X219148769Y-92624582D01*
X218971992Y-92447805D01*
X218971992Y-92447805D01*
G37*
G36*
X218512373Y-91988186D02*
X219608388Y-90892171D01*
X219785165Y-91068948D01*
X218689150Y-92164963D01*
X218512373Y-91988186D01*
X218512373Y-91988186D01*
G37*
G36*
X218052754Y-91528567D02*
X219148769Y-90432552D01*
X219325546Y-90609329D01*
X218229531Y-91705344D01*
X218052754Y-91528567D01*
X218052754Y-91528567D01*
G37*
G36*
X217593134Y-91068947D02*
X218689149Y-89972932D01*
X218865926Y-90149709D01*
X217769911Y-91245724D01*
X217593134Y-91068947D01*
X217593134Y-91068947D01*
G37*
G36*
X217133515Y-90609328D02*
X218229530Y-89513313D01*
X218406307Y-89690090D01*
X217310292Y-90786105D01*
X217133515Y-90609328D01*
X217133515Y-90609328D01*
G37*
G36*
X216673895Y-90149708D02*
X217769910Y-89053693D01*
X217946687Y-89230470D01*
X216850672Y-90326485D01*
X216673895Y-90149708D01*
X216673895Y-90149708D01*
G37*
G36*
X216214276Y-89690089D02*
X217310291Y-88594074D01*
X217487068Y-88770851D01*
X216391053Y-89866866D01*
X216214276Y-89690089D01*
X216214276Y-89690089D01*
G37*
G36*
X215754656Y-89230469D02*
X216850671Y-88134454D01*
X217027448Y-88311231D01*
X215931433Y-89407246D01*
X215754656Y-89230469D01*
X215754656Y-89230469D01*
G37*
G36*
X215295037Y-88770850D02*
X216391052Y-87674835D01*
X216567829Y-87851612D01*
X215471814Y-88947627D01*
X215295037Y-88770850D01*
X215295037Y-88770850D01*
G37*
G36*
X214835418Y-88311231D02*
X215931433Y-87215216D01*
X216108210Y-87391993D01*
X215012195Y-88488008D01*
X214835418Y-88311231D01*
X214835418Y-88311231D01*
G37*
G36*
X214375798Y-87851611D02*
X215471813Y-86755596D01*
X215648590Y-86932373D01*
X214552575Y-88028388D01*
X214375798Y-87851611D01*
X214375798Y-87851611D01*
G37*
G36*
X217511817Y-87628873D02*
X219208873Y-85931817D01*
X221528183Y-88251127D01*
X219831127Y-89948183D01*
X217511817Y-87628873D01*
X217511817Y-87628873D01*
G37*
D18*
X228277420Y-89822540D03*
D19*
X228277420Y-92173540D03*
M02*
