G04 #@! TF.FileFunction,Soldermask,Top*
%FSLAX46Y46*%
G04 Gerber Fmt 4.6, Leading zero omitted, Abs format (unit mm)*
G04 Created by KiCad (PCBNEW (2014-12-04 BZR 5312)-product) date St 22. apríl 2015, 11:14:28 CEST*
%MOMM*%
G01*
G04 APERTURE LIST*
%ADD10C,0.100000*%
%ADD11R,1.300000X0.700000*%
%ADD12R,0.700000X1.300000*%
%ADD13R,0.400000X1.400000*%
%ADD14R,1.850000X1.900000*%
%ADD15R,2.300000X1.900000*%
%ADD16R,2.000000X1.600000*%
%ADD17O,2.000000X1.200000*%
%ADD18R,2.000000X1.200000*%
%ADD19R,1.250000X1.000000*%
%ADD20R,1.000000X1.250000*%
%ADD21R,1.198880X1.198880*%
%ADD22O,1.400000X0.700000*%
%ADD23R,1.400000X0.700000*%
%ADD24R,0.700000X2.500000*%
%ADD25R,2.500000X0.700000*%
%ADD26C,0.720000*%
%ADD27O,0.720000X1.200000*%
%ADD28R,0.720000X1.200000*%
%ADD29O,0.350000X0.280000*%
%ADD30R,0.350000X0.280000*%
%ADD31R,0.280000X0.350000*%
%ADD32O,1.000000X2.540000*%
%ADD33R,1.000000X2.540000*%
%ADD34R,0.650000X0.250000*%
%ADD35R,0.800000X0.700000*%
G04 APERTURE END LIST*
D10*
D11*
X237642400Y-84465200D03*
X237642400Y-82565200D03*
D12*
X212359200Y-85064600D03*
X214259200Y-85064600D03*
D11*
X235864400Y-87614800D03*
X235864400Y-85714800D03*
X237642400Y-87614800D03*
X237642400Y-85714800D03*
X223850200Y-87848400D03*
X223850200Y-89748400D03*
X238175800Y-74996000D03*
X238175800Y-76896000D03*
X230530400Y-74406800D03*
X230530400Y-72506800D03*
X232562400Y-74406800D03*
X232562400Y-72506800D03*
X234594400Y-74406800D03*
X234594400Y-72506800D03*
D13*
X235220000Y-90090000D03*
X235870000Y-90090000D03*
X236520000Y-90090000D03*
X237170000Y-90090000D03*
X237820000Y-90090000D03*
D14*
X235395000Y-92940000D03*
X237645000Y-92940000D03*
D15*
X232770000Y-92940000D03*
X240270000Y-92940000D03*
D16*
X216908400Y-80416400D03*
X222308400Y-80416400D03*
X231843600Y-80264000D03*
X237243600Y-80264000D03*
D17*
X236554400Y-71889800D03*
D18*
X240254400Y-71889800D03*
X240254400Y-69689800D03*
X236554400Y-69689800D03*
D11*
X223926400Y-75016400D03*
X223926400Y-73116400D03*
X223113600Y-77937400D03*
X223113600Y-76037400D03*
D19*
X223850200Y-91303600D03*
X223850200Y-93303600D03*
D20*
X229632000Y-83286600D03*
X231632000Y-83286600D03*
X225771200Y-85801200D03*
X227771200Y-85801200D03*
X225771200Y-83769200D03*
X227771200Y-83769200D03*
X227771200Y-74676000D03*
X225771200Y-74676000D03*
X227771200Y-76708000D03*
X225771200Y-76708000D03*
D21*
X230378000Y-93505020D03*
X230378000Y-91406980D03*
D22*
X235785600Y-77659600D03*
D23*
X232285600Y-77659600D03*
X232285600Y-75959600D03*
X235785600Y-75959600D03*
D24*
X239318800Y-79542000D03*
X240588800Y-84542000D03*
X226110800Y-88381200D03*
X227380800Y-93381200D03*
X228650800Y-88381200D03*
X221411800Y-75601200D03*
X220141800Y-70601200D03*
X218871800Y-75601200D03*
X217601800Y-70601200D03*
X216331800Y-75601200D03*
X215061800Y-70601200D03*
D25*
X233792400Y-65608200D03*
X228792400Y-66878200D03*
X233792400Y-68148200D03*
X228792400Y-69418200D03*
D24*
X240614200Y-89545800D03*
X239344200Y-84545800D03*
D25*
X217464000Y-86182200D03*
X222464000Y-84912200D03*
X222489400Y-82372200D03*
X217489400Y-83642200D03*
D12*
X215889800Y-65938400D03*
X217789800Y-65938400D03*
D11*
X224764600Y-66588600D03*
X224764600Y-68488600D03*
X236093000Y-65699600D03*
X236093000Y-67599600D03*
D26*
X212417868Y-67901443D02*
X212078456Y-67562031D01*
D10*
G36*
X213612879Y-67215549D02*
X213103762Y-67724666D01*
X212255233Y-66876137D01*
X212764350Y-66367020D01*
X213612879Y-67215549D01*
X213612879Y-67215549D01*
G37*
G36*
X214298772Y-66529655D02*
X213789655Y-67038772D01*
X212941126Y-66190243D01*
X213450243Y-65681126D01*
X214298772Y-66529655D01*
X214298772Y-66529655D01*
G37*
G36*
X214984666Y-65843762D02*
X214475549Y-66352879D01*
X213627020Y-65504350D01*
X214136137Y-64995233D01*
X214984666Y-65843762D01*
X214984666Y-65843762D01*
G37*
G36*
X214984666Y-65843762D02*
X214475549Y-66352879D01*
X213627020Y-65504350D01*
X214136137Y-64995233D01*
X214984666Y-65843762D01*
X214984666Y-65843762D01*
G37*
G36*
X214298772Y-66529655D02*
X213789655Y-67038772D01*
X212941126Y-66190243D01*
X213450243Y-65681126D01*
X214298772Y-66529655D01*
X214298772Y-66529655D01*
G37*
G36*
X213612879Y-67215549D02*
X213103762Y-67724666D01*
X212255233Y-66876137D01*
X212764350Y-66367020D01*
X213612879Y-67215549D01*
X213612879Y-67215549D01*
G37*
G36*
X212926985Y-67901443D02*
X212417868Y-68410560D01*
X211569339Y-67562031D01*
X212078456Y-67052914D01*
X212926985Y-67901443D01*
X212926985Y-67901443D01*
G37*
D27*
X225059800Y-65585800D03*
D28*
X226029800Y-65585800D03*
X226999800Y-65585800D03*
X227969800Y-65585800D03*
X227969800Y-65585800D03*
X226999800Y-65585800D03*
X226029800Y-65585800D03*
X225059800Y-65585800D03*
D26*
X238565357Y-65853268D02*
X238904769Y-65513856D01*
D10*
G36*
X239251251Y-67048279D02*
X238742134Y-66539162D01*
X239590663Y-65690633D01*
X240099780Y-66199750D01*
X239251251Y-67048279D01*
X239251251Y-67048279D01*
G37*
G36*
X239937145Y-67734172D02*
X239428028Y-67225055D01*
X240276557Y-66376526D01*
X240785674Y-66885643D01*
X239937145Y-67734172D01*
X239937145Y-67734172D01*
G37*
G36*
X240623038Y-68420066D02*
X240113921Y-67910949D01*
X240962450Y-67062420D01*
X241471567Y-67571537D01*
X240623038Y-68420066D01*
X240623038Y-68420066D01*
G37*
G36*
X240623038Y-68420066D02*
X240113921Y-67910949D01*
X240962450Y-67062420D01*
X241471567Y-67571537D01*
X240623038Y-68420066D01*
X240623038Y-68420066D01*
G37*
G36*
X239937145Y-67734172D02*
X239428028Y-67225055D01*
X240276557Y-66376526D01*
X240785674Y-66885643D01*
X239937145Y-67734172D01*
X239937145Y-67734172D01*
G37*
G36*
X239251251Y-67048279D02*
X238742134Y-66539162D01*
X239590663Y-65690633D01*
X240099780Y-66199750D01*
X239251251Y-67048279D01*
X239251251Y-67048279D01*
G37*
G36*
X238565357Y-66362385D02*
X238056240Y-65853268D01*
X238904769Y-65004739D01*
X239413886Y-65513856D01*
X238565357Y-66362385D01*
X238565357Y-66362385D01*
G37*
D24*
X240842800Y-79589000D03*
X239572800Y-74589000D03*
D29*
X224770000Y-78690000D03*
D30*
X224770000Y-79190000D03*
X224770000Y-79690000D03*
X224770000Y-80190000D03*
X224770000Y-80690000D03*
X224770000Y-81190000D03*
D31*
X225270000Y-81690000D03*
X225770000Y-81690000D03*
X226270000Y-81690000D03*
X226770000Y-81690000D03*
X227270000Y-81690000D03*
X227770000Y-81690000D03*
D30*
X228270000Y-81190000D03*
X228270000Y-80690000D03*
X228270000Y-80190000D03*
X228270000Y-79690000D03*
X228270000Y-79190000D03*
X228270000Y-78690000D03*
D31*
X227770000Y-78190000D03*
X227270000Y-78190000D03*
X226770000Y-78190000D03*
X226270000Y-78190000D03*
X225770000Y-78190000D03*
X225270000Y-78190000D03*
D32*
X221330000Y-88400000D03*
D33*
X221330000Y-93480000D03*
X218790000Y-88400000D03*
X218790000Y-93480000D03*
X216250000Y-88400000D03*
X216250000Y-93480000D03*
X213710000Y-88400000D03*
X213710000Y-93480000D03*
D34*
X214557500Y-77690000D03*
X214557500Y-78190000D03*
X214557500Y-78690000D03*
X214557500Y-79190000D03*
X214557500Y-79690000D03*
X214557500Y-80190000D03*
X214557500Y-80690000D03*
X214557500Y-81190000D03*
X214557500Y-81690000D03*
X214557500Y-82190000D03*
D35*
X212482500Y-76840000D03*
X212482500Y-83040000D03*
M02*
