M48
;DRILL file {kicad (2014-12-04 BZR 5312)-product} date St 22. apríl 2015, 11:14:39 CEST
;FORMAT={-:-/ absolute / inch / decimal}
FMAT,2
INCH,TZ
T1C0.008
T2C0.016
%
G90
G05
M72
T1
X8.3636Y-3.464
X8.3863Y-3.2209
X8.388Y-3.189
X8.3937Y-3.1493
X8.4123Y-3.2432
X8.4409Y-2.6508
X8.448Y-2.995
X8.458Y-2.962
X8.469Y-2.666
X8.5087Y-2.6957
X8.561Y-3.665
X8.592Y-2.741
X8.596Y-3.095
X8.65Y-3.235
X8.681Y-2.638
X8.683Y-3.404
X8.7029Y-2.9072
X8.703Y-3.309
X8.717Y-2.709
X8.725Y-2.883
X8.733Y-2.677
X8.759Y-3.364
X8.795Y-3.4
X8.8329Y-3.04
X8.8341Y-2.992
X8.835Y-3.252
X8.8946Y-2.627
X8.916Y-2.746
X8.917Y-2.68
X8.932Y-2.628
X8.934Y-3.143
X8.979Y-3.248
X8.981Y-2.828
X9.0031Y-2.8541
X9.02Y-2.98
X9.027Y-2.672
X9.039Y-2.853
X9.057Y-2.983
X9.0606Y-2.6707
X9.069Y-3.561
X9.07Y-3.6423
X9.0798Y-2.7063
X9.125Y-2.756
X9.1511Y-3.203
X9.289Y-2.795
X9.311Y-2.934
X9.332Y-2.652
X9.401Y-2.732
X9.441Y-2.7001
T2
X8.36Y-3.66
X8.37Y-2.85
X8.383Y-3.388
X8.389Y-3.079
X8.409Y-2.716
X8.4702Y-2.6252
X8.471Y-2.921
X8.509Y-3.338
X8.5194Y-3.063
X8.534Y-3.57
X8.5543Y-2.871
X8.5593Y-3.708
X8.5701Y-3.468
X8.577Y-3.3445
X8.611Y-2.8
X8.6575Y-3.4622
X8.6714Y-3.538
X8.6933Y-2.6729
X8.7438Y-3.2885
X8.7555Y-3.6729
X8.799Y-2.587
X8.8084Y-2.8168
X8.825Y-3.0751
X8.828Y-3.292
X8.835Y-3.381
X8.8412Y-2.8488
X8.8881Y-2.9001
X8.922Y-3.681
X8.994Y-3.6689
X9.017Y-2.603
X9.03Y-3.096
X9.0378Y-3.065
X9.0818Y-3.3428
X9.083Y-2.594
X9.1358Y-3.4188
X9.1375Y-3.3325
X9.166Y-2.732
X9.1942Y-3.427
X9.21Y-3.515
X9.2186Y-3.7
X9.2223Y-2.7359
X9.275Y-3.143
X9.295Y-2.616
X9.326Y-2.892
X9.37Y-3.5071
X9.389Y-2.672
X9.3993Y-3.0005
X9.405Y-3.7
X9.42Y-3.419
X9.443Y-3.54
X9.45Y-3.219
X9.478Y-2.934
T0
M30
