G04 #@! TF.FileFunction,Copper,L2,Inr,Plane*
%FSLAX46Y46*%
G04 Gerber Fmt 4.6, Leading zero omitted, Abs format (unit mm)*
G04 Created by KiCad (PCBNEW (2014-12-04 BZR 5312)-product) date St 22. apríl 2015, 11:14:28 CEST*
%MOMM*%
G01*
G04 APERTURE LIST*
%ADD10C,0.100000*%
%ADD11C,0.609600*%
%ADD12C,0.812800*%
%ADD13C,0.406400*%
%ADD14C,0.203200*%
G04 APERTURE END LIST*
D10*
D11*
X235940600Y-70993000D03*
X214397910Y-67329277D03*
D12*
X220810004Y-67891530D03*
X234247571Y-69491206D03*
D11*
X226872800Y-66751200D03*
D12*
X238480600Y-67868800D03*
X230708200Y-65887600D03*
X218719400Y-71120000D03*
X216392202Y-77800220D03*
X224231200Y-83616800D03*
X225757212Y-73662012D03*
X217680398Y-88087200D03*
X220252495Y-89865197D03*
X219899602Y-87940000D03*
X212344000Y-92964000D03*
X224154379Y-78107739D03*
X212598000Y-72390000D03*
D11*
X229362000Y-78638400D03*
D12*
X237998000Y-89079202D03*
X234152591Y-93980000D03*
X238887000Y-93980000D03*
X233531517Y-87045810D03*
X232091463Y-84644463D03*
X226618800Y-93497400D03*
X238741150Y-76212684D03*
X240030000Y-81762600D03*
X212435440Y-87985600D03*
D11*
X224356779Y-77216019D03*
X232436801Y-81356140D03*
D12*
X217279602Y-72923400D03*
X222389700Y-93291660D03*
D11*
X239801400Y-68581798D03*
D12*
X215163400Y-74193400D03*
X222091472Y-83527693D03*
X224409000Y-85877400D03*
X236093000Y-66446400D03*
X229031800Y-66116200D03*
X223494600Y-65709800D03*
X215143581Y-66679617D03*
X213588600Y-68986400D03*
D11*
X229559133Y-77849866D03*
D12*
X235585000Y-79832200D03*
X240741200Y-74523600D03*
X236880400Y-73456800D03*
X232816400Y-69392800D03*
X230678520Y-84907920D03*
X223732442Y-71546691D03*
X213080600Y-78206600D03*
X212928190Y-86055200D03*
X217406220Y-94183200D03*
X216128600Y-84785200D03*
X216763600Y-90678000D03*
X224566499Y-72359501D03*
X232049309Y-86837509D03*
X239268000Y-86842600D03*
X233934000Y-89281000D03*
X228447600Y-93190060D03*
D11*
X218338400Y-78612970D03*
X230047005Y-75768887D03*
X229108000Y-75692000D03*
X214579200Y-76073000D03*
X221615000Y-73228200D03*
X224385512Y-75996779D03*
X214833200Y-75234800D03*
X221053921Y-73843259D03*
X226923600Y-79832200D03*
X224409000Y-82600800D03*
X217449400Y-93091000D03*
X220497400Y-67005200D03*
X225922612Y-66725800D03*
X226491800Y-68072000D03*
X231775000Y-70002400D03*
X226466400Y-69748380D03*
X230627598Y-68739826D03*
X237032800Y-67360800D03*
X228117400Y-71831200D03*
X228679372Y-72494634D03*
X229590600Y-72466200D03*
X236499400Y-74523600D03*
X221056200Y-84048600D03*
X238785400Y-69392800D03*
X230378000Y-92514422D03*
X230352600Y-90449400D03*
X228066600Y-82499200D03*
X219710000Y-82169010D03*
X213672599Y-82376910D03*
X213013062Y-81811739D03*
X213054418Y-80999990D03*
X213200067Y-79992208D03*
X216121771Y-68471571D03*
X221411800Y-68808600D03*
X221818200Y-67995800D03*
X218236770Y-69621400D03*
X223393000Y-86360000D03*
D12*
X217855796Y-84949906D03*
D11*
X222478600Y-85445600D03*
X220548200Y-86461600D03*
D12*
X239852200Y-89916000D03*
D11*
X215112600Y-67716400D03*
X229285800Y-67868800D03*
X230139792Y-67835504D03*
D13*
X212598000Y-72390000D02*
X212852000Y-72136000D01*
X240030000Y-80264000D02*
X240030000Y-81762600D01*
D14*
G36*
X241166166Y-67677929D02*
X241165585Y-73942060D01*
X241144588Y-73921026D01*
X240883287Y-73812524D01*
X240600354Y-73812277D01*
X240411106Y-73890473D01*
X240411106Y-68461073D01*
X240318495Y-68236938D01*
X240147162Y-68065305D01*
X239923189Y-67972304D01*
X239680675Y-67972092D01*
X239456540Y-68064703D01*
X239284907Y-68236036D01*
X239191906Y-68460009D01*
X239191694Y-68702523D01*
X239284305Y-68926658D01*
X239455638Y-69098291D01*
X239679611Y-69191292D01*
X239922125Y-69191504D01*
X240146260Y-69098893D01*
X240317893Y-68927560D01*
X240410894Y-68703587D01*
X240411106Y-68461073D01*
X240411106Y-73890473D01*
X240338864Y-73920323D01*
X240138626Y-74120212D01*
X240030124Y-74381513D01*
X240029877Y-74664446D01*
X240137923Y-74925936D01*
X240337812Y-75126174D01*
X240599113Y-75234676D01*
X240882046Y-75234923D01*
X241143536Y-75126877D01*
X241165478Y-75104973D01*
X241163673Y-94585200D01*
X240563523Y-94585200D01*
X240563523Y-89775154D01*
X240455477Y-89513664D01*
X240255588Y-89313426D01*
X239994287Y-89204924D01*
X239979323Y-89204910D01*
X239979323Y-86701754D01*
X239871277Y-86440264D01*
X239671388Y-86240026D01*
X239410087Y-86131524D01*
X239395106Y-86131510D01*
X239395106Y-69272075D01*
X239302495Y-69047940D01*
X239131162Y-68876307D01*
X238907189Y-68783306D01*
X238664675Y-68783094D01*
X238440540Y-68875705D01*
X238268907Y-69047038D01*
X238175906Y-69271011D01*
X238175694Y-69513525D01*
X238268305Y-69737660D01*
X238439638Y-69909293D01*
X238663611Y-70002294D01*
X238906125Y-70002506D01*
X239130260Y-69909895D01*
X239301893Y-69738562D01*
X239394894Y-69514589D01*
X239395106Y-69272075D01*
X239395106Y-86131510D01*
X239127154Y-86131277D01*
X238865664Y-86239323D01*
X238665426Y-86439212D01*
X238556924Y-86700513D01*
X238556677Y-86983446D01*
X238664723Y-87244936D01*
X238864612Y-87445174D01*
X239125913Y-87553676D01*
X239408846Y-87553923D01*
X239670336Y-87445877D01*
X239870574Y-87245988D01*
X239979076Y-86984687D01*
X239979323Y-86701754D01*
X239979323Y-89204910D01*
X239711354Y-89204677D01*
X239449864Y-89312723D01*
X239249626Y-89512612D01*
X239141124Y-89773913D01*
X239140877Y-90056846D01*
X239248923Y-90318336D01*
X239448812Y-90518574D01*
X239710113Y-90627076D01*
X239993046Y-90627323D01*
X240254536Y-90519277D01*
X240454774Y-90319388D01*
X240563276Y-90058087D01*
X240563523Y-89775154D01*
X240563523Y-94585200D01*
X237642506Y-94585200D01*
X237642506Y-67240075D01*
X237549895Y-67015940D01*
X237378562Y-66844307D01*
X237154589Y-66751306D01*
X236912075Y-66751094D01*
X236700204Y-66838637D01*
X236804076Y-66588487D01*
X236804323Y-66305554D01*
X236696277Y-66044064D01*
X236496388Y-65843826D01*
X236235087Y-65735324D01*
X235952154Y-65735077D01*
X235690664Y-65843123D01*
X235490426Y-66043012D01*
X235381924Y-66304313D01*
X235381677Y-66587246D01*
X235489723Y-66848736D01*
X235689612Y-67048974D01*
X235950913Y-67157476D01*
X236233846Y-67157723D01*
X236495336Y-67049677D01*
X236506587Y-67038444D01*
X236423306Y-67239011D01*
X236423094Y-67481525D01*
X236515705Y-67705660D01*
X236687038Y-67877293D01*
X236911011Y-67970294D01*
X237153525Y-67970506D01*
X237377660Y-67877895D01*
X237549293Y-67706562D01*
X237642294Y-67482589D01*
X237642506Y-67240075D01*
X237642506Y-94585200D01*
X237591723Y-94585200D01*
X237591723Y-73315954D01*
X237483677Y-73054464D01*
X237283788Y-72854226D01*
X237022487Y-72745724D01*
X236739554Y-72745477D01*
X236550306Y-72823673D01*
X236550306Y-70872275D01*
X236457695Y-70648140D01*
X236286362Y-70476507D01*
X236062389Y-70383506D01*
X235819875Y-70383294D01*
X235595740Y-70475905D01*
X235424107Y-70647238D01*
X235331106Y-70871211D01*
X235330894Y-71113725D01*
X235423505Y-71337860D01*
X235594838Y-71509493D01*
X235818811Y-71602494D01*
X236061325Y-71602706D01*
X236285460Y-71510095D01*
X236457093Y-71338762D01*
X236550094Y-71114789D01*
X236550306Y-70872275D01*
X236550306Y-72823673D01*
X236478064Y-72853523D01*
X236277826Y-73053412D01*
X236169324Y-73314713D01*
X236169077Y-73597646D01*
X236277123Y-73859136D01*
X236345478Y-73927610D01*
X236154540Y-74006505D01*
X235982907Y-74177838D01*
X235889906Y-74401811D01*
X235889694Y-74644325D01*
X235982305Y-74868460D01*
X236153638Y-75040093D01*
X236377611Y-75133094D01*
X236620125Y-75133306D01*
X236844260Y-75040695D01*
X237015893Y-74869362D01*
X237108894Y-74645389D01*
X237109106Y-74402875D01*
X237016495Y-74178740D01*
X237005883Y-74168109D01*
X237021246Y-74168123D01*
X237282736Y-74060077D01*
X237482974Y-73860188D01*
X237591476Y-73598887D01*
X237591723Y-73315954D01*
X237591723Y-94585200D01*
X236296323Y-94585200D01*
X236296323Y-79691354D01*
X236188277Y-79429864D01*
X235988388Y-79229626D01*
X235727087Y-79121124D01*
X235444154Y-79120877D01*
X235182664Y-79228923D01*
X234982426Y-79428812D01*
X234873924Y-79690113D01*
X234873677Y-79973046D01*
X234981723Y-80234536D01*
X235181612Y-80434774D01*
X235442913Y-80543276D01*
X235725846Y-80543523D01*
X235987336Y-80435477D01*
X236187574Y-80235588D01*
X236296076Y-79974287D01*
X236296323Y-79691354D01*
X236296323Y-94585200D01*
X234645323Y-94585200D01*
X234645323Y-89140154D01*
X234537277Y-88878664D01*
X234337388Y-88678426D01*
X234076087Y-88569924D01*
X233793154Y-88569677D01*
X233531664Y-88677723D01*
X233527723Y-88681657D01*
X233527723Y-69251954D01*
X233419677Y-68990464D01*
X233219788Y-68790226D01*
X232958487Y-68681724D01*
X232675554Y-68681477D01*
X232414064Y-68789523D01*
X232213826Y-68989412D01*
X232105324Y-69250713D01*
X232105124Y-69479413D01*
X231896789Y-69392906D01*
X231654275Y-69392694D01*
X231430140Y-69485305D01*
X231258507Y-69656638D01*
X231237304Y-69707700D01*
X231237304Y-68619101D01*
X231144693Y-68394966D01*
X230973360Y-68223333D01*
X230749387Y-68130332D01*
X230677460Y-68130269D01*
X230749286Y-67957293D01*
X230749498Y-67714779D01*
X230656887Y-67490644D01*
X230485554Y-67319011D01*
X230261581Y-67226010D01*
X230019067Y-67225798D01*
X229794932Y-67318409D01*
X229743123Y-67370127D01*
X229743123Y-65975354D01*
X229635077Y-65713864D01*
X229435188Y-65513626D01*
X229173887Y-65405124D01*
X228890954Y-65404877D01*
X228629464Y-65512923D01*
X228429226Y-65712812D01*
X228320724Y-65974113D01*
X228320477Y-66257046D01*
X228428523Y-66518536D01*
X228628412Y-66718774D01*
X228889713Y-66827276D01*
X229172646Y-66827523D01*
X229434136Y-66719477D01*
X229634374Y-66519588D01*
X229742876Y-66258287D01*
X229743123Y-65975354D01*
X229743123Y-67370127D01*
X229696155Y-67417013D01*
X229631562Y-67352307D01*
X229407589Y-67259306D01*
X229165075Y-67259094D01*
X228940940Y-67351705D01*
X228769307Y-67523038D01*
X228676306Y-67747011D01*
X228676094Y-67989525D01*
X228768705Y-68213660D01*
X228940038Y-68385293D01*
X229164011Y-68478294D01*
X229406525Y-68478506D01*
X229630660Y-68385895D01*
X229729436Y-68287290D01*
X229794030Y-68351997D01*
X230018003Y-68444998D01*
X230089929Y-68445060D01*
X230018104Y-68618037D01*
X230017892Y-68860551D01*
X230110503Y-69084686D01*
X230281836Y-69256319D01*
X230505809Y-69349320D01*
X230748323Y-69349532D01*
X230972458Y-69256921D01*
X231144091Y-69085588D01*
X231237092Y-68861615D01*
X231237304Y-68619101D01*
X231237304Y-69707700D01*
X231165506Y-69880611D01*
X231165294Y-70123125D01*
X231257905Y-70347260D01*
X231429238Y-70518893D01*
X231653211Y-70611894D01*
X231895725Y-70612106D01*
X232119860Y-70519495D01*
X232291493Y-70348162D01*
X232384494Y-70124189D01*
X232384631Y-69966943D01*
X232413012Y-69995374D01*
X232674313Y-70103876D01*
X232957246Y-70104123D01*
X233218736Y-69996077D01*
X233418974Y-69796188D01*
X233527476Y-69534887D01*
X233527723Y-69251954D01*
X233527723Y-88681657D01*
X233331426Y-88877612D01*
X233222924Y-89138913D01*
X233222677Y-89421846D01*
X233330723Y-89683336D01*
X233530612Y-89883574D01*
X233791913Y-89992076D01*
X234074846Y-89992323D01*
X234336336Y-89884277D01*
X234536574Y-89684388D01*
X234645076Y-89423087D01*
X234645323Y-89140154D01*
X234645323Y-94585200D01*
X233046507Y-94585200D01*
X233046507Y-81235415D01*
X232953896Y-81011280D01*
X232782563Y-80839647D01*
X232558590Y-80746646D01*
X232316076Y-80746434D01*
X232091941Y-80839045D01*
X231920308Y-81010378D01*
X231827307Y-81234351D01*
X231827095Y-81476865D01*
X231919706Y-81701000D01*
X232091039Y-81872633D01*
X232315012Y-81965634D01*
X232557526Y-81965846D01*
X232781661Y-81873235D01*
X232953294Y-81701902D01*
X233046295Y-81477929D01*
X233046507Y-81235415D01*
X233046507Y-94585200D01*
X232760632Y-94585200D01*
X232760632Y-86696663D01*
X232652586Y-86435173D01*
X232452697Y-86234935D01*
X232191396Y-86126433D01*
X231908463Y-86126186D01*
X231646973Y-86234232D01*
X231446735Y-86434121D01*
X231389843Y-86571131D01*
X231389843Y-84767074D01*
X231281797Y-84505584D01*
X231081908Y-84305346D01*
X230820607Y-84196844D01*
X230656711Y-84196700D01*
X230656711Y-75648162D01*
X230564100Y-75424027D01*
X230392767Y-75252394D01*
X230200306Y-75172477D01*
X230200306Y-72345475D01*
X230107695Y-72121340D01*
X229936362Y-71949707D01*
X229712389Y-71856706D01*
X229469875Y-71856494D01*
X229245740Y-71949105D01*
X229120726Y-72073900D01*
X229025134Y-71978141D01*
X228801161Y-71885140D01*
X228726953Y-71885075D01*
X228727106Y-71710475D01*
X228634495Y-71486340D01*
X228463162Y-71314707D01*
X228239189Y-71221706D01*
X227996675Y-71221494D01*
X227772540Y-71314105D01*
X227600907Y-71485438D01*
X227507906Y-71709411D01*
X227507694Y-71951925D01*
X227600305Y-72176060D01*
X227771638Y-72347693D01*
X227995611Y-72440694D01*
X228069818Y-72440758D01*
X228069666Y-72615359D01*
X228162277Y-72839494D01*
X228333610Y-73011127D01*
X228557583Y-73104128D01*
X228800097Y-73104340D01*
X229024232Y-73011729D01*
X229149245Y-72886933D01*
X229244838Y-72982693D01*
X229468811Y-73075694D01*
X229711325Y-73075906D01*
X229935460Y-72983295D01*
X230107093Y-72811962D01*
X230200094Y-72587989D01*
X230200306Y-72345475D01*
X230200306Y-75172477D01*
X230168794Y-75159393D01*
X229926280Y-75159181D01*
X229702145Y-75251792D01*
X229615878Y-75337907D01*
X229453762Y-75175507D01*
X229229789Y-75082506D01*
X228987275Y-75082294D01*
X228763140Y-75174905D01*
X228591507Y-75346238D01*
X228498506Y-75570211D01*
X228498294Y-75812725D01*
X228590905Y-76036860D01*
X228762238Y-76208493D01*
X228986211Y-76301494D01*
X229228725Y-76301706D01*
X229452860Y-76209095D01*
X229539126Y-76122979D01*
X229701243Y-76285380D01*
X229925216Y-76378381D01*
X230167730Y-76378593D01*
X230391865Y-76285982D01*
X230563498Y-76114649D01*
X230656499Y-75890676D01*
X230656711Y-75648162D01*
X230656711Y-84196700D01*
X230537674Y-84196597D01*
X230276184Y-84304643D01*
X230168839Y-84411800D01*
X230168839Y-77729141D01*
X230076228Y-77505006D01*
X229904895Y-77333373D01*
X229680922Y-77240372D01*
X229438408Y-77240160D01*
X229214273Y-77332771D01*
X229042640Y-77504104D01*
X228949639Y-77728077D01*
X228949427Y-77970591D01*
X229042038Y-78194726D01*
X229213371Y-78366359D01*
X229437344Y-78459360D01*
X229679858Y-78459572D01*
X229903993Y-78366961D01*
X230075626Y-78195628D01*
X230168627Y-77971655D01*
X230168839Y-77729141D01*
X230168839Y-84411800D01*
X230075946Y-84504532D01*
X229967444Y-84765833D01*
X229967197Y-85048766D01*
X230075243Y-85310256D01*
X230275132Y-85510494D01*
X230536433Y-85618996D01*
X230819366Y-85619243D01*
X231080856Y-85511197D01*
X231281094Y-85311308D01*
X231389596Y-85050007D01*
X231389843Y-84767074D01*
X231389843Y-86571131D01*
X231338233Y-86695422D01*
X231337986Y-86978355D01*
X231446032Y-87239845D01*
X231645921Y-87440083D01*
X231907222Y-87548585D01*
X232190155Y-87548832D01*
X232451645Y-87440786D01*
X232651883Y-87240897D01*
X232760385Y-86979596D01*
X232760632Y-86696663D01*
X232760632Y-94585200D01*
X230987706Y-94585200D01*
X230987706Y-92393697D01*
X230962306Y-92332224D01*
X230962306Y-90328675D01*
X230869695Y-90104540D01*
X230698362Y-89932907D01*
X230474389Y-89839906D01*
X230231875Y-89839694D01*
X230007740Y-89932305D01*
X229836107Y-90103638D01*
X229743106Y-90327611D01*
X229742894Y-90570125D01*
X229835505Y-90794260D01*
X230006838Y-90965893D01*
X230230811Y-91058894D01*
X230473325Y-91059106D01*
X230697460Y-90966495D01*
X230869093Y-90795162D01*
X230962094Y-90571189D01*
X230962306Y-90328675D01*
X230962306Y-92332224D01*
X230895095Y-92169562D01*
X230723762Y-91997929D01*
X230499789Y-91904928D01*
X230257275Y-91904716D01*
X230033140Y-91997327D01*
X229861507Y-92168660D01*
X229768506Y-92392633D01*
X229768294Y-92635147D01*
X229860905Y-92859282D01*
X230032238Y-93030915D01*
X230256211Y-93123916D01*
X230498725Y-93124128D01*
X230722860Y-93031517D01*
X230894493Y-92860184D01*
X230987494Y-92636211D01*
X230987706Y-92393697D01*
X230987706Y-94585200D01*
X229158923Y-94585200D01*
X229158923Y-93049214D01*
X229050877Y-92787724D01*
X228850988Y-92587486D01*
X228676306Y-92514951D01*
X228676306Y-82378475D01*
X228583695Y-82154340D01*
X228412362Y-81982707D01*
X228188389Y-81889706D01*
X227945875Y-81889494D01*
X227721740Y-81982105D01*
X227550107Y-82153438D01*
X227533306Y-82193899D01*
X227533306Y-79711475D01*
X227440695Y-79487340D01*
X227269362Y-79315707D01*
X227101506Y-79246007D01*
X227101506Y-67951275D01*
X227008895Y-67727140D01*
X226837562Y-67555507D01*
X226613589Y-67462506D01*
X226532318Y-67462434D01*
X226532318Y-66605075D01*
X226439707Y-66380940D01*
X226268374Y-66209307D01*
X226044401Y-66116306D01*
X225801887Y-66116094D01*
X225577752Y-66208705D01*
X225406119Y-66380038D01*
X225313118Y-66604011D01*
X225312906Y-66846525D01*
X225405517Y-67070660D01*
X225576850Y-67242293D01*
X225800823Y-67335294D01*
X226043337Y-67335506D01*
X226267472Y-67242895D01*
X226439105Y-67071562D01*
X226532106Y-66847589D01*
X226532318Y-66605075D01*
X226532318Y-67462434D01*
X226371075Y-67462294D01*
X226146940Y-67554905D01*
X225975307Y-67726238D01*
X225882306Y-67950211D01*
X225882094Y-68192725D01*
X225974705Y-68416860D01*
X226146038Y-68588493D01*
X226370011Y-68681494D01*
X226612525Y-68681706D01*
X226836660Y-68589095D01*
X227008293Y-68417762D01*
X227101294Y-68193789D01*
X227101506Y-67951275D01*
X227101506Y-79246007D01*
X227076106Y-79235460D01*
X227076106Y-69627655D01*
X226983495Y-69403520D01*
X226812162Y-69231887D01*
X226588189Y-69138886D01*
X226345675Y-69138674D01*
X226121540Y-69231285D01*
X225949907Y-69402618D01*
X225856906Y-69626591D01*
X225856694Y-69869105D01*
X225949305Y-70093240D01*
X226120638Y-70264873D01*
X226344611Y-70357874D01*
X226587125Y-70358086D01*
X226811260Y-70265475D01*
X226982893Y-70094142D01*
X227075894Y-69870169D01*
X227076106Y-69627655D01*
X227076106Y-79235460D01*
X227045389Y-79222706D01*
X226802875Y-79222494D01*
X226578740Y-79315105D01*
X226407107Y-79486438D01*
X226314106Y-79710411D01*
X226313894Y-79952925D01*
X226406505Y-80177060D01*
X226577838Y-80348693D01*
X226801811Y-80441694D01*
X227044325Y-80441906D01*
X227268460Y-80349295D01*
X227440093Y-80177962D01*
X227533094Y-79953989D01*
X227533306Y-79711475D01*
X227533306Y-82193899D01*
X227457106Y-82377411D01*
X227456894Y-82619925D01*
X227549505Y-82844060D01*
X227720838Y-83015693D01*
X227944811Y-83108694D01*
X228187325Y-83108906D01*
X228411460Y-83016295D01*
X228583093Y-82844962D01*
X228676094Y-82620989D01*
X228676306Y-82378475D01*
X228676306Y-92514951D01*
X228589687Y-92478984D01*
X228306754Y-92478737D01*
X228045264Y-92586783D01*
X227845026Y-92786672D01*
X227736524Y-93047973D01*
X227736277Y-93330906D01*
X227844323Y-93592396D01*
X228044212Y-93792634D01*
X228305513Y-93901136D01*
X228588446Y-93901383D01*
X228849936Y-93793337D01*
X229050174Y-93593448D01*
X229158676Y-93332147D01*
X229158923Y-93049214D01*
X229158923Y-94585200D01*
X225277822Y-94585200D01*
X225277822Y-72218655D01*
X225169776Y-71957165D01*
X224969887Y-71756927D01*
X224708586Y-71648425D01*
X224443553Y-71648193D01*
X224443765Y-71405845D01*
X224335719Y-71144355D01*
X224135830Y-70944117D01*
X223874529Y-70835615D01*
X223591596Y-70835368D01*
X223330106Y-70943414D01*
X223129868Y-71143303D01*
X223021366Y-71404604D01*
X223021119Y-71687537D01*
X223129165Y-71949027D01*
X223329054Y-72149265D01*
X223590355Y-72257767D01*
X223855387Y-72257998D01*
X223855176Y-72500347D01*
X223963222Y-72761837D01*
X224163111Y-72962075D01*
X224424412Y-73070577D01*
X224707345Y-73070824D01*
X224968835Y-72962778D01*
X225169073Y-72762889D01*
X225277575Y-72501588D01*
X225277822Y-72218655D01*
X225277822Y-94585200D01*
X225120323Y-94585200D01*
X225120323Y-85736554D01*
X225018706Y-85490623D01*
X225018706Y-82480075D01*
X224995218Y-82423229D01*
X224995218Y-75876054D01*
X224902607Y-75651919D01*
X224731274Y-75480286D01*
X224507301Y-75387285D01*
X224264787Y-75387073D01*
X224040652Y-75479684D01*
X223869019Y-75651017D01*
X223776018Y-75874990D01*
X223775806Y-76117504D01*
X223868417Y-76341639D01*
X224039750Y-76513272D01*
X224263723Y-76606273D01*
X224506237Y-76606485D01*
X224730372Y-76513874D01*
X224902005Y-76342541D01*
X224995006Y-76118568D01*
X224995218Y-75876054D01*
X224995218Y-82423229D01*
X224966485Y-82353690D01*
X224966485Y-77095294D01*
X224873874Y-76871159D01*
X224702541Y-76699526D01*
X224478568Y-76606525D01*
X224236054Y-76606313D01*
X224011919Y-76698924D01*
X223840286Y-76870257D01*
X223747285Y-77094230D01*
X223747073Y-77336744D01*
X223839684Y-77560879D01*
X224011017Y-77732512D01*
X224234990Y-77825513D01*
X224477504Y-77825725D01*
X224701639Y-77733114D01*
X224873272Y-77561781D01*
X224966273Y-77337808D01*
X224966485Y-77095294D01*
X224966485Y-82353690D01*
X224926095Y-82255940D01*
X224754762Y-82084307D01*
X224530789Y-81991306D01*
X224288275Y-81991094D01*
X224064140Y-82083705D01*
X223892507Y-82255038D01*
X223799506Y-82479011D01*
X223799294Y-82721525D01*
X223891905Y-82945660D01*
X224063238Y-83117293D01*
X224287211Y-83210294D01*
X224529725Y-83210506D01*
X224753860Y-83117895D01*
X224925493Y-82946562D01*
X225018494Y-82722589D01*
X225018706Y-82480075D01*
X225018706Y-85490623D01*
X225012277Y-85475064D01*
X224812388Y-85274826D01*
X224551087Y-85166324D01*
X224268154Y-85166077D01*
X224006664Y-85274123D01*
X223806426Y-85474012D01*
X223697924Y-85735313D01*
X223697844Y-85826516D01*
X223514789Y-85750506D01*
X223272275Y-85750294D01*
X223088306Y-85826308D01*
X223088306Y-85324875D01*
X222995695Y-85100740D01*
X222824362Y-84929107D01*
X222802795Y-84920151D01*
X222802795Y-83386847D01*
X222694749Y-83125357D01*
X222494860Y-82925119D01*
X222427906Y-82897317D01*
X222427906Y-67875075D01*
X222335295Y-67650940D01*
X222163962Y-67479307D01*
X221939989Y-67386306D01*
X221697475Y-67386094D01*
X221473340Y-67478705D01*
X221301707Y-67650038D01*
X221208706Y-67874011D01*
X221208494Y-68116525D01*
X221249607Y-68216027D01*
X221107106Y-68274908D01*
X221107106Y-66884475D01*
X221014495Y-66660340D01*
X220843162Y-66488707D01*
X220619189Y-66395706D01*
X220376675Y-66395494D01*
X220152540Y-66488105D01*
X219980907Y-66659438D01*
X219887906Y-66883411D01*
X219887694Y-67125925D01*
X219980305Y-67350060D01*
X220151638Y-67521693D01*
X220375611Y-67614694D01*
X220618125Y-67614906D01*
X220842260Y-67522295D01*
X221013893Y-67350962D01*
X221106894Y-67126989D01*
X221107106Y-66884475D01*
X221107106Y-68274908D01*
X221066940Y-68291505D01*
X220895307Y-68462838D01*
X220802306Y-68686811D01*
X220802094Y-68929325D01*
X220894705Y-69153460D01*
X221066038Y-69325093D01*
X221290011Y-69418094D01*
X221532525Y-69418306D01*
X221756660Y-69325695D01*
X221928293Y-69154362D01*
X222021294Y-68930389D01*
X222021506Y-68687875D01*
X221980392Y-68588372D01*
X222163060Y-68512895D01*
X222334693Y-68341562D01*
X222427694Y-68117589D01*
X222427906Y-67875075D01*
X222427906Y-82897317D01*
X222233559Y-82816617D01*
X222224706Y-82816609D01*
X222224706Y-73107475D01*
X222132095Y-72883340D01*
X221960762Y-72711707D01*
X221736789Y-72618706D01*
X221494275Y-72618494D01*
X221270140Y-72711105D01*
X221098507Y-72882438D01*
X221005506Y-73106411D01*
X221005394Y-73233616D01*
X220933196Y-73233553D01*
X220709061Y-73326164D01*
X220537428Y-73497497D01*
X220444427Y-73721470D01*
X220444215Y-73963984D01*
X220536826Y-74188119D01*
X220708159Y-74359752D01*
X220932132Y-74452753D01*
X221174646Y-74452965D01*
X221398781Y-74360354D01*
X221570414Y-74189021D01*
X221663415Y-73965048D01*
X221663526Y-73837842D01*
X221735725Y-73837906D01*
X221959860Y-73745295D01*
X222131493Y-73573962D01*
X222224494Y-73349989D01*
X222224706Y-73107475D01*
X222224706Y-82816609D01*
X221950626Y-82816370D01*
X221689136Y-82924416D01*
X221488898Y-83124305D01*
X221380396Y-83385606D01*
X221380275Y-83523102D01*
X221177989Y-83439106D01*
X220935475Y-83438894D01*
X220711340Y-83531505D01*
X220539707Y-83702838D01*
X220446706Y-83926811D01*
X220446494Y-84169325D01*
X220539105Y-84393460D01*
X220710438Y-84565093D01*
X220934411Y-84658094D01*
X221176925Y-84658306D01*
X221401060Y-84565695D01*
X221572693Y-84394362D01*
X221665694Y-84170389D01*
X221665748Y-84107892D01*
X221688084Y-84130267D01*
X221949385Y-84238769D01*
X222232318Y-84239016D01*
X222493808Y-84130970D01*
X222694046Y-83931081D01*
X222802548Y-83669780D01*
X222802795Y-83386847D01*
X222802795Y-84920151D01*
X222600389Y-84836106D01*
X222357875Y-84835894D01*
X222133740Y-84928505D01*
X221962107Y-85099838D01*
X221869106Y-85323811D01*
X221868894Y-85566325D01*
X221961505Y-85790460D01*
X222132838Y-85962093D01*
X222356811Y-86055094D01*
X222599325Y-86055306D01*
X222823460Y-85962695D01*
X222995093Y-85791362D01*
X223088094Y-85567389D01*
X223088306Y-85324875D01*
X223088306Y-85826308D01*
X223048140Y-85842905D01*
X222876507Y-86014238D01*
X222783506Y-86238211D01*
X222783294Y-86480725D01*
X222875905Y-86704860D01*
X223047238Y-86876493D01*
X223271211Y-86969494D01*
X223513725Y-86969706D01*
X223737860Y-86877095D01*
X223909493Y-86705762D01*
X224002494Y-86481789D01*
X224002498Y-86476854D01*
X224005612Y-86479974D01*
X224266913Y-86588476D01*
X224549846Y-86588723D01*
X224811336Y-86480677D01*
X225011574Y-86280788D01*
X225120076Y-86019487D01*
X225120323Y-85736554D01*
X225120323Y-94585200D01*
X223101023Y-94585200D01*
X223101023Y-93150814D01*
X222992977Y-92889324D01*
X222793088Y-92689086D01*
X222531787Y-92580584D01*
X222248854Y-92580337D01*
X221987364Y-92688383D01*
X221787126Y-92888272D01*
X221678624Y-93149573D01*
X221678377Y-93432506D01*
X221786423Y-93693996D01*
X221986312Y-93894234D01*
X222247613Y-94002736D01*
X222530546Y-94002983D01*
X222792036Y-93894937D01*
X222992274Y-93695048D01*
X223100776Y-93433747D01*
X223101023Y-93150814D01*
X223101023Y-94585200D01*
X221157906Y-94585200D01*
X221157906Y-86340875D01*
X221065295Y-86116740D01*
X220893962Y-85945107D01*
X220669989Y-85852106D01*
X220427475Y-85851894D01*
X220319706Y-85896423D01*
X220319706Y-82048285D01*
X220227095Y-81824150D01*
X220055762Y-81652517D01*
X219831789Y-81559516D01*
X219589275Y-81559304D01*
X219365140Y-81651915D01*
X219193507Y-81823248D01*
X219100506Y-82047221D01*
X219100294Y-82289735D01*
X219192905Y-82513870D01*
X219364238Y-82685503D01*
X219588211Y-82778504D01*
X219830725Y-82778716D01*
X220054860Y-82686105D01*
X220226493Y-82514772D01*
X220319494Y-82290799D01*
X220319706Y-82048285D01*
X220319706Y-85896423D01*
X220203340Y-85944505D01*
X220031707Y-86115838D01*
X219938706Y-86339811D01*
X219938494Y-86582325D01*
X220031105Y-86806460D01*
X220202438Y-86978093D01*
X220426411Y-87071094D01*
X220668925Y-87071306D01*
X220893060Y-86978695D01*
X221064693Y-86807362D01*
X221157694Y-86583389D01*
X221157906Y-86340875D01*
X221157906Y-94585200D01*
X218948106Y-94585200D01*
X218948106Y-78492245D01*
X218855495Y-78268110D01*
X218846476Y-78259075D01*
X218846476Y-69500675D01*
X218753865Y-69276540D01*
X218582532Y-69104907D01*
X218358559Y-69011906D01*
X218116045Y-69011694D01*
X217891910Y-69104305D01*
X217720277Y-69275638D01*
X217627276Y-69499611D01*
X217627064Y-69742125D01*
X217719675Y-69966260D01*
X217891008Y-70137893D01*
X218114981Y-70230894D01*
X218357495Y-70231106D01*
X218581630Y-70138495D01*
X218753263Y-69967162D01*
X218846264Y-69743189D01*
X218846476Y-69500675D01*
X218846476Y-78259075D01*
X218684162Y-78096477D01*
X218460189Y-78003476D01*
X218217675Y-78003264D01*
X217993540Y-78095875D01*
X217990925Y-78098485D01*
X217990925Y-72782554D01*
X217882879Y-72521064D01*
X217682990Y-72320826D01*
X217421689Y-72212324D01*
X217138756Y-72212077D01*
X216877266Y-72320123D01*
X216731477Y-72465657D01*
X216731477Y-68350846D01*
X216638866Y-68126711D01*
X216467533Y-67955078D01*
X216243560Y-67862077D01*
X216001046Y-67861865D01*
X215854904Y-67922249D01*
X215854904Y-66538771D01*
X215746858Y-66277281D01*
X215546969Y-66077043D01*
X215285668Y-65968541D01*
X215002735Y-65968294D01*
X214741245Y-66076340D01*
X214541007Y-66276229D01*
X214432505Y-66537530D01*
X214432258Y-66820463D01*
X214540304Y-67081953D01*
X214712499Y-67254449D01*
X214596107Y-67370638D01*
X214503106Y-67594611D01*
X214502894Y-67837125D01*
X214595505Y-68061260D01*
X214766838Y-68232893D01*
X214990811Y-68325894D01*
X215233325Y-68326106D01*
X215457460Y-68233495D01*
X215629093Y-68062162D01*
X215722094Y-67838189D01*
X215722306Y-67595675D01*
X215629695Y-67371540D01*
X215542580Y-67284272D01*
X215545917Y-67282894D01*
X215746155Y-67083005D01*
X215854657Y-66821704D01*
X215854904Y-66538771D01*
X215854904Y-67922249D01*
X215776911Y-67954476D01*
X215605278Y-68125809D01*
X215512277Y-68349782D01*
X215512065Y-68592296D01*
X215604676Y-68816431D01*
X215776009Y-68988064D01*
X215999982Y-69081065D01*
X216242496Y-69081277D01*
X216466631Y-68988666D01*
X216638264Y-68817333D01*
X216731265Y-68593360D01*
X216731477Y-68350846D01*
X216731477Y-72465657D01*
X216677028Y-72520012D01*
X216568526Y-72781313D01*
X216568279Y-73064246D01*
X216676325Y-73325736D01*
X216876214Y-73525974D01*
X217137515Y-73634476D01*
X217420448Y-73634723D01*
X217681938Y-73526677D01*
X217882176Y-73326788D01*
X217990678Y-73065487D01*
X217990925Y-72782554D01*
X217990925Y-78098485D01*
X217821907Y-78267208D01*
X217728906Y-78491181D01*
X217728694Y-78733695D01*
X217821305Y-78957830D01*
X217992638Y-79129463D01*
X218216611Y-79222464D01*
X218459125Y-79222676D01*
X218683260Y-79130065D01*
X218854893Y-78958732D01*
X218947894Y-78734759D01*
X218948106Y-78492245D01*
X218948106Y-94585200D01*
X218567119Y-94585200D01*
X218567119Y-84809060D01*
X218459073Y-84547570D01*
X218259184Y-84347332D01*
X217997883Y-84238830D01*
X217714950Y-84238583D01*
X217453460Y-84346629D01*
X217253222Y-84546518D01*
X217144720Y-84807819D01*
X217144473Y-85090752D01*
X217252519Y-85352242D01*
X217452408Y-85552480D01*
X217713709Y-85660982D01*
X217996642Y-85661229D01*
X218258132Y-85553183D01*
X218458370Y-85353294D01*
X218566872Y-85091993D01*
X218567119Y-84809060D01*
X218567119Y-94585200D01*
X218009370Y-94585200D01*
X218117296Y-94325287D01*
X218117543Y-94042354D01*
X218009497Y-93780864D01*
X217815681Y-93586710D01*
X217965893Y-93436762D01*
X218058894Y-93212789D01*
X218059106Y-92970275D01*
X217966495Y-92746140D01*
X217795162Y-92574507D01*
X217571189Y-92481506D01*
X217474923Y-92481421D01*
X217474923Y-90537154D01*
X217366877Y-90275664D01*
X217166988Y-90075426D01*
X216905687Y-89966924D01*
X216839923Y-89966866D01*
X216839923Y-84644354D01*
X216731877Y-84382864D01*
X216531988Y-84182626D01*
X216270687Y-84074124D01*
X215987754Y-84073877D01*
X215874723Y-84120580D01*
X215874723Y-74052554D01*
X215766677Y-73791064D01*
X215566788Y-73590826D01*
X215305487Y-73482324D01*
X215022554Y-73482077D01*
X214761064Y-73590123D01*
X214560826Y-73790012D01*
X214452324Y-74051313D01*
X214452077Y-74334246D01*
X214560123Y-74595736D01*
X214625361Y-74661088D01*
X214488340Y-74717705D01*
X214316707Y-74889038D01*
X214299923Y-74929458D01*
X214299923Y-68845554D01*
X214191877Y-68584064D01*
X213991988Y-68383826D01*
X213730687Y-68275324D01*
X213447754Y-68275077D01*
X213186264Y-68383123D01*
X212986026Y-68583012D01*
X212877524Y-68844313D01*
X212877277Y-69127246D01*
X212985323Y-69388736D01*
X213185212Y-69588974D01*
X213446513Y-69697476D01*
X213729446Y-69697723D01*
X213990936Y-69589677D01*
X214191174Y-69389788D01*
X214299676Y-69128487D01*
X214299923Y-68845554D01*
X214299923Y-74929458D01*
X214223706Y-75113011D01*
X214223494Y-75355525D01*
X214295797Y-75530511D01*
X214234340Y-75555905D01*
X214062707Y-75727238D01*
X213969706Y-75951211D01*
X213969494Y-76193725D01*
X214062105Y-76417860D01*
X214233438Y-76589493D01*
X214457411Y-76682494D01*
X214699925Y-76682706D01*
X214924060Y-76590095D01*
X215095693Y-76418762D01*
X215188694Y-76194789D01*
X215188906Y-75952275D01*
X215116602Y-75777288D01*
X215178060Y-75751895D01*
X215349693Y-75580562D01*
X215442694Y-75356589D01*
X215442906Y-75114075D01*
X215350295Y-74889940D01*
X215347295Y-74886935D01*
X215565736Y-74796677D01*
X215765974Y-74596788D01*
X215874476Y-74335487D01*
X215874723Y-74052554D01*
X215874723Y-84120580D01*
X215726264Y-84181923D01*
X215526026Y-84381812D01*
X215417524Y-84643113D01*
X215417277Y-84926046D01*
X215525323Y-85187536D01*
X215725212Y-85387774D01*
X215986513Y-85496276D01*
X216269446Y-85496523D01*
X216530936Y-85388477D01*
X216731174Y-85188588D01*
X216839676Y-84927287D01*
X216839923Y-84644354D01*
X216839923Y-89966866D01*
X216622754Y-89966677D01*
X216361264Y-90074723D01*
X216161026Y-90274612D01*
X216052524Y-90535913D01*
X216052277Y-90818846D01*
X216160323Y-91080336D01*
X216360212Y-91280574D01*
X216621513Y-91389076D01*
X216904446Y-91389323D01*
X217165936Y-91281277D01*
X217366174Y-91081388D01*
X217474676Y-90820087D01*
X217474923Y-90537154D01*
X217474923Y-92481421D01*
X217328675Y-92481294D01*
X217104540Y-92573905D01*
X216932907Y-92745238D01*
X216839906Y-92969211D01*
X216839694Y-93211725D01*
X216932305Y-93435860D01*
X217055022Y-93558792D01*
X217003884Y-93579923D01*
X216803646Y-93779812D01*
X216695144Y-94041113D01*
X216694897Y-94324046D01*
X216802804Y-94585200D01*
X214282305Y-94585200D01*
X214282305Y-82256185D01*
X214189694Y-82032050D01*
X214018361Y-81860417D01*
X213794388Y-81767416D01*
X213622701Y-81767265D01*
X213622768Y-81691014D01*
X213530157Y-81466879D01*
X213489934Y-81426586D01*
X213570911Y-81345752D01*
X213663912Y-81121779D01*
X213664124Y-80879265D01*
X213571513Y-80655130D01*
X213460687Y-80544110D01*
X213544927Y-80509303D01*
X213716560Y-80337970D01*
X213809561Y-80113997D01*
X213809773Y-79871483D01*
X213791923Y-79828282D01*
X213791923Y-78065754D01*
X213683877Y-77804264D01*
X213483988Y-77604026D01*
X213222687Y-77495524D01*
X212939754Y-77495277D01*
X212678264Y-77603323D01*
X212478026Y-77803212D01*
X212369524Y-78064513D01*
X212369277Y-78347446D01*
X212477323Y-78608936D01*
X212677212Y-78809174D01*
X212938513Y-78917676D01*
X213221446Y-78917923D01*
X213482936Y-78809877D01*
X213683174Y-78609988D01*
X213791676Y-78348687D01*
X213791923Y-78065754D01*
X213791923Y-79828282D01*
X213717162Y-79647348D01*
X213545829Y-79475715D01*
X213321856Y-79382714D01*
X213079342Y-79382502D01*
X212855207Y-79475113D01*
X212683574Y-79646446D01*
X212590573Y-79870419D01*
X212590361Y-80112933D01*
X212682972Y-80337068D01*
X212793797Y-80448087D01*
X212709558Y-80482895D01*
X212537925Y-80654228D01*
X212444924Y-80878201D01*
X212444712Y-81120715D01*
X212537323Y-81344850D01*
X212577545Y-81385142D01*
X212496569Y-81465977D01*
X212403568Y-81689950D01*
X212403356Y-81932464D01*
X212495967Y-82156599D01*
X212667300Y-82328232D01*
X212891273Y-82421233D01*
X213062959Y-82421383D01*
X213062893Y-82497635D01*
X213155504Y-82721770D01*
X213326837Y-82893403D01*
X213550810Y-82986404D01*
X213793324Y-82986616D01*
X214017459Y-82894005D01*
X214189092Y-82722672D01*
X214282093Y-82498699D01*
X214282305Y-82256185D01*
X214282305Y-94585200D01*
X213639513Y-94585200D01*
X213639513Y-85914354D01*
X213531467Y-85652864D01*
X213331578Y-85452626D01*
X213070277Y-85344124D01*
X212787344Y-85343877D01*
X212525854Y-85451923D01*
X212325616Y-85651812D01*
X212217114Y-85913113D01*
X212216867Y-86196046D01*
X212324913Y-86457536D01*
X212524802Y-86657774D01*
X212786103Y-86766276D01*
X213069036Y-86766523D01*
X213330526Y-86658477D01*
X213530764Y-86458588D01*
X213639266Y-86197287D01*
X213639513Y-85914354D01*
X213639513Y-94585200D01*
X211875807Y-94585200D01*
X211873315Y-67672846D01*
X214253705Y-65292457D01*
X222905120Y-65293340D01*
X222892026Y-65306412D01*
X222783524Y-65567713D01*
X222783277Y-65850646D01*
X222891323Y-66112136D01*
X223091212Y-66312374D01*
X223352513Y-66420876D01*
X223635446Y-66421123D01*
X223896936Y-66313077D01*
X224097174Y-66113188D01*
X224205676Y-65851887D01*
X224205923Y-65568954D01*
X224097877Y-65307464D01*
X224083898Y-65293460D01*
X238783199Y-65294961D01*
X241166166Y-67677929D01*
X241166166Y-67677929D01*
G37*
X241166166Y-67677929D02*
X241165585Y-73942060D01*
X241144588Y-73921026D01*
X240883287Y-73812524D01*
X240600354Y-73812277D01*
X240411106Y-73890473D01*
X240411106Y-68461073D01*
X240318495Y-68236938D01*
X240147162Y-68065305D01*
X239923189Y-67972304D01*
X239680675Y-67972092D01*
X239456540Y-68064703D01*
X239284907Y-68236036D01*
X239191906Y-68460009D01*
X239191694Y-68702523D01*
X239284305Y-68926658D01*
X239455638Y-69098291D01*
X239679611Y-69191292D01*
X239922125Y-69191504D01*
X240146260Y-69098893D01*
X240317893Y-68927560D01*
X240410894Y-68703587D01*
X240411106Y-68461073D01*
X240411106Y-73890473D01*
X240338864Y-73920323D01*
X240138626Y-74120212D01*
X240030124Y-74381513D01*
X240029877Y-74664446D01*
X240137923Y-74925936D01*
X240337812Y-75126174D01*
X240599113Y-75234676D01*
X240882046Y-75234923D01*
X241143536Y-75126877D01*
X241165478Y-75104973D01*
X241163673Y-94585200D01*
X240563523Y-94585200D01*
X240563523Y-89775154D01*
X240455477Y-89513664D01*
X240255588Y-89313426D01*
X239994287Y-89204924D01*
X239979323Y-89204910D01*
X239979323Y-86701754D01*
X239871277Y-86440264D01*
X239671388Y-86240026D01*
X239410087Y-86131524D01*
X239395106Y-86131510D01*
X239395106Y-69272075D01*
X239302495Y-69047940D01*
X239131162Y-68876307D01*
X238907189Y-68783306D01*
X238664675Y-68783094D01*
X238440540Y-68875705D01*
X238268907Y-69047038D01*
X238175906Y-69271011D01*
X238175694Y-69513525D01*
X238268305Y-69737660D01*
X238439638Y-69909293D01*
X238663611Y-70002294D01*
X238906125Y-70002506D01*
X239130260Y-69909895D01*
X239301893Y-69738562D01*
X239394894Y-69514589D01*
X239395106Y-69272075D01*
X239395106Y-86131510D01*
X239127154Y-86131277D01*
X238865664Y-86239323D01*
X238665426Y-86439212D01*
X238556924Y-86700513D01*
X238556677Y-86983446D01*
X238664723Y-87244936D01*
X238864612Y-87445174D01*
X239125913Y-87553676D01*
X239408846Y-87553923D01*
X239670336Y-87445877D01*
X239870574Y-87245988D01*
X239979076Y-86984687D01*
X239979323Y-86701754D01*
X239979323Y-89204910D01*
X239711354Y-89204677D01*
X239449864Y-89312723D01*
X239249626Y-89512612D01*
X239141124Y-89773913D01*
X239140877Y-90056846D01*
X239248923Y-90318336D01*
X239448812Y-90518574D01*
X239710113Y-90627076D01*
X239993046Y-90627323D01*
X240254536Y-90519277D01*
X240454774Y-90319388D01*
X240563276Y-90058087D01*
X240563523Y-89775154D01*
X240563523Y-94585200D01*
X237642506Y-94585200D01*
X237642506Y-67240075D01*
X237549895Y-67015940D01*
X237378562Y-66844307D01*
X237154589Y-66751306D01*
X236912075Y-66751094D01*
X236700204Y-66838637D01*
X236804076Y-66588487D01*
X236804323Y-66305554D01*
X236696277Y-66044064D01*
X236496388Y-65843826D01*
X236235087Y-65735324D01*
X235952154Y-65735077D01*
X235690664Y-65843123D01*
X235490426Y-66043012D01*
X235381924Y-66304313D01*
X235381677Y-66587246D01*
X235489723Y-66848736D01*
X235689612Y-67048974D01*
X235950913Y-67157476D01*
X236233846Y-67157723D01*
X236495336Y-67049677D01*
X236506587Y-67038444D01*
X236423306Y-67239011D01*
X236423094Y-67481525D01*
X236515705Y-67705660D01*
X236687038Y-67877293D01*
X236911011Y-67970294D01*
X237153525Y-67970506D01*
X237377660Y-67877895D01*
X237549293Y-67706562D01*
X237642294Y-67482589D01*
X237642506Y-67240075D01*
X237642506Y-94585200D01*
X237591723Y-94585200D01*
X237591723Y-73315954D01*
X237483677Y-73054464D01*
X237283788Y-72854226D01*
X237022487Y-72745724D01*
X236739554Y-72745477D01*
X236550306Y-72823673D01*
X236550306Y-70872275D01*
X236457695Y-70648140D01*
X236286362Y-70476507D01*
X236062389Y-70383506D01*
X235819875Y-70383294D01*
X235595740Y-70475905D01*
X235424107Y-70647238D01*
X235331106Y-70871211D01*
X235330894Y-71113725D01*
X235423505Y-71337860D01*
X235594838Y-71509493D01*
X235818811Y-71602494D01*
X236061325Y-71602706D01*
X236285460Y-71510095D01*
X236457093Y-71338762D01*
X236550094Y-71114789D01*
X236550306Y-70872275D01*
X236550306Y-72823673D01*
X236478064Y-72853523D01*
X236277826Y-73053412D01*
X236169324Y-73314713D01*
X236169077Y-73597646D01*
X236277123Y-73859136D01*
X236345478Y-73927610D01*
X236154540Y-74006505D01*
X235982907Y-74177838D01*
X235889906Y-74401811D01*
X235889694Y-74644325D01*
X235982305Y-74868460D01*
X236153638Y-75040093D01*
X236377611Y-75133094D01*
X236620125Y-75133306D01*
X236844260Y-75040695D01*
X237015893Y-74869362D01*
X237108894Y-74645389D01*
X237109106Y-74402875D01*
X237016495Y-74178740D01*
X237005883Y-74168109D01*
X237021246Y-74168123D01*
X237282736Y-74060077D01*
X237482974Y-73860188D01*
X237591476Y-73598887D01*
X237591723Y-73315954D01*
X237591723Y-94585200D01*
X236296323Y-94585200D01*
X236296323Y-79691354D01*
X236188277Y-79429864D01*
X235988388Y-79229626D01*
X235727087Y-79121124D01*
X235444154Y-79120877D01*
X235182664Y-79228923D01*
X234982426Y-79428812D01*
X234873924Y-79690113D01*
X234873677Y-79973046D01*
X234981723Y-80234536D01*
X235181612Y-80434774D01*
X235442913Y-80543276D01*
X235725846Y-80543523D01*
X235987336Y-80435477D01*
X236187574Y-80235588D01*
X236296076Y-79974287D01*
X236296323Y-79691354D01*
X236296323Y-94585200D01*
X234645323Y-94585200D01*
X234645323Y-89140154D01*
X234537277Y-88878664D01*
X234337388Y-88678426D01*
X234076087Y-88569924D01*
X233793154Y-88569677D01*
X233531664Y-88677723D01*
X233527723Y-88681657D01*
X233527723Y-69251954D01*
X233419677Y-68990464D01*
X233219788Y-68790226D01*
X232958487Y-68681724D01*
X232675554Y-68681477D01*
X232414064Y-68789523D01*
X232213826Y-68989412D01*
X232105324Y-69250713D01*
X232105124Y-69479413D01*
X231896789Y-69392906D01*
X231654275Y-69392694D01*
X231430140Y-69485305D01*
X231258507Y-69656638D01*
X231237304Y-69707700D01*
X231237304Y-68619101D01*
X231144693Y-68394966D01*
X230973360Y-68223333D01*
X230749387Y-68130332D01*
X230677460Y-68130269D01*
X230749286Y-67957293D01*
X230749498Y-67714779D01*
X230656887Y-67490644D01*
X230485554Y-67319011D01*
X230261581Y-67226010D01*
X230019067Y-67225798D01*
X229794932Y-67318409D01*
X229743123Y-67370127D01*
X229743123Y-65975354D01*
X229635077Y-65713864D01*
X229435188Y-65513626D01*
X229173887Y-65405124D01*
X228890954Y-65404877D01*
X228629464Y-65512923D01*
X228429226Y-65712812D01*
X228320724Y-65974113D01*
X228320477Y-66257046D01*
X228428523Y-66518536D01*
X228628412Y-66718774D01*
X228889713Y-66827276D01*
X229172646Y-66827523D01*
X229434136Y-66719477D01*
X229634374Y-66519588D01*
X229742876Y-66258287D01*
X229743123Y-65975354D01*
X229743123Y-67370127D01*
X229696155Y-67417013D01*
X229631562Y-67352307D01*
X229407589Y-67259306D01*
X229165075Y-67259094D01*
X228940940Y-67351705D01*
X228769307Y-67523038D01*
X228676306Y-67747011D01*
X228676094Y-67989525D01*
X228768705Y-68213660D01*
X228940038Y-68385293D01*
X229164011Y-68478294D01*
X229406525Y-68478506D01*
X229630660Y-68385895D01*
X229729436Y-68287290D01*
X229794030Y-68351997D01*
X230018003Y-68444998D01*
X230089929Y-68445060D01*
X230018104Y-68618037D01*
X230017892Y-68860551D01*
X230110503Y-69084686D01*
X230281836Y-69256319D01*
X230505809Y-69349320D01*
X230748323Y-69349532D01*
X230972458Y-69256921D01*
X231144091Y-69085588D01*
X231237092Y-68861615D01*
X231237304Y-68619101D01*
X231237304Y-69707700D01*
X231165506Y-69880611D01*
X231165294Y-70123125D01*
X231257905Y-70347260D01*
X231429238Y-70518893D01*
X231653211Y-70611894D01*
X231895725Y-70612106D01*
X232119860Y-70519495D01*
X232291493Y-70348162D01*
X232384494Y-70124189D01*
X232384631Y-69966943D01*
X232413012Y-69995374D01*
X232674313Y-70103876D01*
X232957246Y-70104123D01*
X233218736Y-69996077D01*
X233418974Y-69796188D01*
X233527476Y-69534887D01*
X233527723Y-69251954D01*
X233527723Y-88681657D01*
X233331426Y-88877612D01*
X233222924Y-89138913D01*
X233222677Y-89421846D01*
X233330723Y-89683336D01*
X233530612Y-89883574D01*
X233791913Y-89992076D01*
X234074846Y-89992323D01*
X234336336Y-89884277D01*
X234536574Y-89684388D01*
X234645076Y-89423087D01*
X234645323Y-89140154D01*
X234645323Y-94585200D01*
X233046507Y-94585200D01*
X233046507Y-81235415D01*
X232953896Y-81011280D01*
X232782563Y-80839647D01*
X232558590Y-80746646D01*
X232316076Y-80746434D01*
X232091941Y-80839045D01*
X231920308Y-81010378D01*
X231827307Y-81234351D01*
X231827095Y-81476865D01*
X231919706Y-81701000D01*
X232091039Y-81872633D01*
X232315012Y-81965634D01*
X232557526Y-81965846D01*
X232781661Y-81873235D01*
X232953294Y-81701902D01*
X233046295Y-81477929D01*
X233046507Y-81235415D01*
X233046507Y-94585200D01*
X232760632Y-94585200D01*
X232760632Y-86696663D01*
X232652586Y-86435173D01*
X232452697Y-86234935D01*
X232191396Y-86126433D01*
X231908463Y-86126186D01*
X231646973Y-86234232D01*
X231446735Y-86434121D01*
X231389843Y-86571131D01*
X231389843Y-84767074D01*
X231281797Y-84505584D01*
X231081908Y-84305346D01*
X230820607Y-84196844D01*
X230656711Y-84196700D01*
X230656711Y-75648162D01*
X230564100Y-75424027D01*
X230392767Y-75252394D01*
X230200306Y-75172477D01*
X230200306Y-72345475D01*
X230107695Y-72121340D01*
X229936362Y-71949707D01*
X229712389Y-71856706D01*
X229469875Y-71856494D01*
X229245740Y-71949105D01*
X229120726Y-72073900D01*
X229025134Y-71978141D01*
X228801161Y-71885140D01*
X228726953Y-71885075D01*
X228727106Y-71710475D01*
X228634495Y-71486340D01*
X228463162Y-71314707D01*
X228239189Y-71221706D01*
X227996675Y-71221494D01*
X227772540Y-71314105D01*
X227600907Y-71485438D01*
X227507906Y-71709411D01*
X227507694Y-71951925D01*
X227600305Y-72176060D01*
X227771638Y-72347693D01*
X227995611Y-72440694D01*
X228069818Y-72440758D01*
X228069666Y-72615359D01*
X228162277Y-72839494D01*
X228333610Y-73011127D01*
X228557583Y-73104128D01*
X228800097Y-73104340D01*
X229024232Y-73011729D01*
X229149245Y-72886933D01*
X229244838Y-72982693D01*
X229468811Y-73075694D01*
X229711325Y-73075906D01*
X229935460Y-72983295D01*
X230107093Y-72811962D01*
X230200094Y-72587989D01*
X230200306Y-72345475D01*
X230200306Y-75172477D01*
X230168794Y-75159393D01*
X229926280Y-75159181D01*
X229702145Y-75251792D01*
X229615878Y-75337907D01*
X229453762Y-75175507D01*
X229229789Y-75082506D01*
X228987275Y-75082294D01*
X228763140Y-75174905D01*
X228591507Y-75346238D01*
X228498506Y-75570211D01*
X228498294Y-75812725D01*
X228590905Y-76036860D01*
X228762238Y-76208493D01*
X228986211Y-76301494D01*
X229228725Y-76301706D01*
X229452860Y-76209095D01*
X229539126Y-76122979D01*
X229701243Y-76285380D01*
X229925216Y-76378381D01*
X230167730Y-76378593D01*
X230391865Y-76285982D01*
X230563498Y-76114649D01*
X230656499Y-75890676D01*
X230656711Y-75648162D01*
X230656711Y-84196700D01*
X230537674Y-84196597D01*
X230276184Y-84304643D01*
X230168839Y-84411800D01*
X230168839Y-77729141D01*
X230076228Y-77505006D01*
X229904895Y-77333373D01*
X229680922Y-77240372D01*
X229438408Y-77240160D01*
X229214273Y-77332771D01*
X229042640Y-77504104D01*
X228949639Y-77728077D01*
X228949427Y-77970591D01*
X229042038Y-78194726D01*
X229213371Y-78366359D01*
X229437344Y-78459360D01*
X229679858Y-78459572D01*
X229903993Y-78366961D01*
X230075626Y-78195628D01*
X230168627Y-77971655D01*
X230168839Y-77729141D01*
X230168839Y-84411800D01*
X230075946Y-84504532D01*
X229967444Y-84765833D01*
X229967197Y-85048766D01*
X230075243Y-85310256D01*
X230275132Y-85510494D01*
X230536433Y-85618996D01*
X230819366Y-85619243D01*
X231080856Y-85511197D01*
X231281094Y-85311308D01*
X231389596Y-85050007D01*
X231389843Y-84767074D01*
X231389843Y-86571131D01*
X231338233Y-86695422D01*
X231337986Y-86978355D01*
X231446032Y-87239845D01*
X231645921Y-87440083D01*
X231907222Y-87548585D01*
X232190155Y-87548832D01*
X232451645Y-87440786D01*
X232651883Y-87240897D01*
X232760385Y-86979596D01*
X232760632Y-86696663D01*
X232760632Y-94585200D01*
X230987706Y-94585200D01*
X230987706Y-92393697D01*
X230962306Y-92332224D01*
X230962306Y-90328675D01*
X230869695Y-90104540D01*
X230698362Y-89932907D01*
X230474389Y-89839906D01*
X230231875Y-89839694D01*
X230007740Y-89932305D01*
X229836107Y-90103638D01*
X229743106Y-90327611D01*
X229742894Y-90570125D01*
X229835505Y-90794260D01*
X230006838Y-90965893D01*
X230230811Y-91058894D01*
X230473325Y-91059106D01*
X230697460Y-90966495D01*
X230869093Y-90795162D01*
X230962094Y-90571189D01*
X230962306Y-90328675D01*
X230962306Y-92332224D01*
X230895095Y-92169562D01*
X230723762Y-91997929D01*
X230499789Y-91904928D01*
X230257275Y-91904716D01*
X230033140Y-91997327D01*
X229861507Y-92168660D01*
X229768506Y-92392633D01*
X229768294Y-92635147D01*
X229860905Y-92859282D01*
X230032238Y-93030915D01*
X230256211Y-93123916D01*
X230498725Y-93124128D01*
X230722860Y-93031517D01*
X230894493Y-92860184D01*
X230987494Y-92636211D01*
X230987706Y-92393697D01*
X230987706Y-94585200D01*
X229158923Y-94585200D01*
X229158923Y-93049214D01*
X229050877Y-92787724D01*
X228850988Y-92587486D01*
X228676306Y-92514951D01*
X228676306Y-82378475D01*
X228583695Y-82154340D01*
X228412362Y-81982707D01*
X228188389Y-81889706D01*
X227945875Y-81889494D01*
X227721740Y-81982105D01*
X227550107Y-82153438D01*
X227533306Y-82193899D01*
X227533306Y-79711475D01*
X227440695Y-79487340D01*
X227269362Y-79315707D01*
X227101506Y-79246007D01*
X227101506Y-67951275D01*
X227008895Y-67727140D01*
X226837562Y-67555507D01*
X226613589Y-67462506D01*
X226532318Y-67462434D01*
X226532318Y-66605075D01*
X226439707Y-66380940D01*
X226268374Y-66209307D01*
X226044401Y-66116306D01*
X225801887Y-66116094D01*
X225577752Y-66208705D01*
X225406119Y-66380038D01*
X225313118Y-66604011D01*
X225312906Y-66846525D01*
X225405517Y-67070660D01*
X225576850Y-67242293D01*
X225800823Y-67335294D01*
X226043337Y-67335506D01*
X226267472Y-67242895D01*
X226439105Y-67071562D01*
X226532106Y-66847589D01*
X226532318Y-66605075D01*
X226532318Y-67462434D01*
X226371075Y-67462294D01*
X226146940Y-67554905D01*
X225975307Y-67726238D01*
X225882306Y-67950211D01*
X225882094Y-68192725D01*
X225974705Y-68416860D01*
X226146038Y-68588493D01*
X226370011Y-68681494D01*
X226612525Y-68681706D01*
X226836660Y-68589095D01*
X227008293Y-68417762D01*
X227101294Y-68193789D01*
X227101506Y-67951275D01*
X227101506Y-79246007D01*
X227076106Y-79235460D01*
X227076106Y-69627655D01*
X226983495Y-69403520D01*
X226812162Y-69231887D01*
X226588189Y-69138886D01*
X226345675Y-69138674D01*
X226121540Y-69231285D01*
X225949907Y-69402618D01*
X225856906Y-69626591D01*
X225856694Y-69869105D01*
X225949305Y-70093240D01*
X226120638Y-70264873D01*
X226344611Y-70357874D01*
X226587125Y-70358086D01*
X226811260Y-70265475D01*
X226982893Y-70094142D01*
X227075894Y-69870169D01*
X227076106Y-69627655D01*
X227076106Y-79235460D01*
X227045389Y-79222706D01*
X226802875Y-79222494D01*
X226578740Y-79315105D01*
X226407107Y-79486438D01*
X226314106Y-79710411D01*
X226313894Y-79952925D01*
X226406505Y-80177060D01*
X226577838Y-80348693D01*
X226801811Y-80441694D01*
X227044325Y-80441906D01*
X227268460Y-80349295D01*
X227440093Y-80177962D01*
X227533094Y-79953989D01*
X227533306Y-79711475D01*
X227533306Y-82193899D01*
X227457106Y-82377411D01*
X227456894Y-82619925D01*
X227549505Y-82844060D01*
X227720838Y-83015693D01*
X227944811Y-83108694D01*
X228187325Y-83108906D01*
X228411460Y-83016295D01*
X228583093Y-82844962D01*
X228676094Y-82620989D01*
X228676306Y-82378475D01*
X228676306Y-92514951D01*
X228589687Y-92478984D01*
X228306754Y-92478737D01*
X228045264Y-92586783D01*
X227845026Y-92786672D01*
X227736524Y-93047973D01*
X227736277Y-93330906D01*
X227844323Y-93592396D01*
X228044212Y-93792634D01*
X228305513Y-93901136D01*
X228588446Y-93901383D01*
X228849936Y-93793337D01*
X229050174Y-93593448D01*
X229158676Y-93332147D01*
X229158923Y-93049214D01*
X229158923Y-94585200D01*
X225277822Y-94585200D01*
X225277822Y-72218655D01*
X225169776Y-71957165D01*
X224969887Y-71756927D01*
X224708586Y-71648425D01*
X224443553Y-71648193D01*
X224443765Y-71405845D01*
X224335719Y-71144355D01*
X224135830Y-70944117D01*
X223874529Y-70835615D01*
X223591596Y-70835368D01*
X223330106Y-70943414D01*
X223129868Y-71143303D01*
X223021366Y-71404604D01*
X223021119Y-71687537D01*
X223129165Y-71949027D01*
X223329054Y-72149265D01*
X223590355Y-72257767D01*
X223855387Y-72257998D01*
X223855176Y-72500347D01*
X223963222Y-72761837D01*
X224163111Y-72962075D01*
X224424412Y-73070577D01*
X224707345Y-73070824D01*
X224968835Y-72962778D01*
X225169073Y-72762889D01*
X225277575Y-72501588D01*
X225277822Y-72218655D01*
X225277822Y-94585200D01*
X225120323Y-94585200D01*
X225120323Y-85736554D01*
X225018706Y-85490623D01*
X225018706Y-82480075D01*
X224995218Y-82423229D01*
X224995218Y-75876054D01*
X224902607Y-75651919D01*
X224731274Y-75480286D01*
X224507301Y-75387285D01*
X224264787Y-75387073D01*
X224040652Y-75479684D01*
X223869019Y-75651017D01*
X223776018Y-75874990D01*
X223775806Y-76117504D01*
X223868417Y-76341639D01*
X224039750Y-76513272D01*
X224263723Y-76606273D01*
X224506237Y-76606485D01*
X224730372Y-76513874D01*
X224902005Y-76342541D01*
X224995006Y-76118568D01*
X224995218Y-75876054D01*
X224995218Y-82423229D01*
X224966485Y-82353690D01*
X224966485Y-77095294D01*
X224873874Y-76871159D01*
X224702541Y-76699526D01*
X224478568Y-76606525D01*
X224236054Y-76606313D01*
X224011919Y-76698924D01*
X223840286Y-76870257D01*
X223747285Y-77094230D01*
X223747073Y-77336744D01*
X223839684Y-77560879D01*
X224011017Y-77732512D01*
X224234990Y-77825513D01*
X224477504Y-77825725D01*
X224701639Y-77733114D01*
X224873272Y-77561781D01*
X224966273Y-77337808D01*
X224966485Y-77095294D01*
X224966485Y-82353690D01*
X224926095Y-82255940D01*
X224754762Y-82084307D01*
X224530789Y-81991306D01*
X224288275Y-81991094D01*
X224064140Y-82083705D01*
X223892507Y-82255038D01*
X223799506Y-82479011D01*
X223799294Y-82721525D01*
X223891905Y-82945660D01*
X224063238Y-83117293D01*
X224287211Y-83210294D01*
X224529725Y-83210506D01*
X224753860Y-83117895D01*
X224925493Y-82946562D01*
X225018494Y-82722589D01*
X225018706Y-82480075D01*
X225018706Y-85490623D01*
X225012277Y-85475064D01*
X224812388Y-85274826D01*
X224551087Y-85166324D01*
X224268154Y-85166077D01*
X224006664Y-85274123D01*
X223806426Y-85474012D01*
X223697924Y-85735313D01*
X223697844Y-85826516D01*
X223514789Y-85750506D01*
X223272275Y-85750294D01*
X223088306Y-85826308D01*
X223088306Y-85324875D01*
X222995695Y-85100740D01*
X222824362Y-84929107D01*
X222802795Y-84920151D01*
X222802795Y-83386847D01*
X222694749Y-83125357D01*
X222494860Y-82925119D01*
X222427906Y-82897317D01*
X222427906Y-67875075D01*
X222335295Y-67650940D01*
X222163962Y-67479307D01*
X221939989Y-67386306D01*
X221697475Y-67386094D01*
X221473340Y-67478705D01*
X221301707Y-67650038D01*
X221208706Y-67874011D01*
X221208494Y-68116525D01*
X221249607Y-68216027D01*
X221107106Y-68274908D01*
X221107106Y-66884475D01*
X221014495Y-66660340D01*
X220843162Y-66488707D01*
X220619189Y-66395706D01*
X220376675Y-66395494D01*
X220152540Y-66488105D01*
X219980907Y-66659438D01*
X219887906Y-66883411D01*
X219887694Y-67125925D01*
X219980305Y-67350060D01*
X220151638Y-67521693D01*
X220375611Y-67614694D01*
X220618125Y-67614906D01*
X220842260Y-67522295D01*
X221013893Y-67350962D01*
X221106894Y-67126989D01*
X221107106Y-66884475D01*
X221107106Y-68274908D01*
X221066940Y-68291505D01*
X220895307Y-68462838D01*
X220802306Y-68686811D01*
X220802094Y-68929325D01*
X220894705Y-69153460D01*
X221066038Y-69325093D01*
X221290011Y-69418094D01*
X221532525Y-69418306D01*
X221756660Y-69325695D01*
X221928293Y-69154362D01*
X222021294Y-68930389D01*
X222021506Y-68687875D01*
X221980392Y-68588372D01*
X222163060Y-68512895D01*
X222334693Y-68341562D01*
X222427694Y-68117589D01*
X222427906Y-67875075D01*
X222427906Y-82897317D01*
X222233559Y-82816617D01*
X222224706Y-82816609D01*
X222224706Y-73107475D01*
X222132095Y-72883340D01*
X221960762Y-72711707D01*
X221736789Y-72618706D01*
X221494275Y-72618494D01*
X221270140Y-72711105D01*
X221098507Y-72882438D01*
X221005506Y-73106411D01*
X221005394Y-73233616D01*
X220933196Y-73233553D01*
X220709061Y-73326164D01*
X220537428Y-73497497D01*
X220444427Y-73721470D01*
X220444215Y-73963984D01*
X220536826Y-74188119D01*
X220708159Y-74359752D01*
X220932132Y-74452753D01*
X221174646Y-74452965D01*
X221398781Y-74360354D01*
X221570414Y-74189021D01*
X221663415Y-73965048D01*
X221663526Y-73837842D01*
X221735725Y-73837906D01*
X221959860Y-73745295D01*
X222131493Y-73573962D01*
X222224494Y-73349989D01*
X222224706Y-73107475D01*
X222224706Y-82816609D01*
X221950626Y-82816370D01*
X221689136Y-82924416D01*
X221488898Y-83124305D01*
X221380396Y-83385606D01*
X221380275Y-83523102D01*
X221177989Y-83439106D01*
X220935475Y-83438894D01*
X220711340Y-83531505D01*
X220539707Y-83702838D01*
X220446706Y-83926811D01*
X220446494Y-84169325D01*
X220539105Y-84393460D01*
X220710438Y-84565093D01*
X220934411Y-84658094D01*
X221176925Y-84658306D01*
X221401060Y-84565695D01*
X221572693Y-84394362D01*
X221665694Y-84170389D01*
X221665748Y-84107892D01*
X221688084Y-84130267D01*
X221949385Y-84238769D01*
X222232318Y-84239016D01*
X222493808Y-84130970D01*
X222694046Y-83931081D01*
X222802548Y-83669780D01*
X222802795Y-83386847D01*
X222802795Y-84920151D01*
X222600389Y-84836106D01*
X222357875Y-84835894D01*
X222133740Y-84928505D01*
X221962107Y-85099838D01*
X221869106Y-85323811D01*
X221868894Y-85566325D01*
X221961505Y-85790460D01*
X222132838Y-85962093D01*
X222356811Y-86055094D01*
X222599325Y-86055306D01*
X222823460Y-85962695D01*
X222995093Y-85791362D01*
X223088094Y-85567389D01*
X223088306Y-85324875D01*
X223088306Y-85826308D01*
X223048140Y-85842905D01*
X222876507Y-86014238D01*
X222783506Y-86238211D01*
X222783294Y-86480725D01*
X222875905Y-86704860D01*
X223047238Y-86876493D01*
X223271211Y-86969494D01*
X223513725Y-86969706D01*
X223737860Y-86877095D01*
X223909493Y-86705762D01*
X224002494Y-86481789D01*
X224002498Y-86476854D01*
X224005612Y-86479974D01*
X224266913Y-86588476D01*
X224549846Y-86588723D01*
X224811336Y-86480677D01*
X225011574Y-86280788D01*
X225120076Y-86019487D01*
X225120323Y-85736554D01*
X225120323Y-94585200D01*
X223101023Y-94585200D01*
X223101023Y-93150814D01*
X222992977Y-92889324D01*
X222793088Y-92689086D01*
X222531787Y-92580584D01*
X222248854Y-92580337D01*
X221987364Y-92688383D01*
X221787126Y-92888272D01*
X221678624Y-93149573D01*
X221678377Y-93432506D01*
X221786423Y-93693996D01*
X221986312Y-93894234D01*
X222247613Y-94002736D01*
X222530546Y-94002983D01*
X222792036Y-93894937D01*
X222992274Y-93695048D01*
X223100776Y-93433747D01*
X223101023Y-93150814D01*
X223101023Y-94585200D01*
X221157906Y-94585200D01*
X221157906Y-86340875D01*
X221065295Y-86116740D01*
X220893962Y-85945107D01*
X220669989Y-85852106D01*
X220427475Y-85851894D01*
X220319706Y-85896423D01*
X220319706Y-82048285D01*
X220227095Y-81824150D01*
X220055762Y-81652517D01*
X219831789Y-81559516D01*
X219589275Y-81559304D01*
X219365140Y-81651915D01*
X219193507Y-81823248D01*
X219100506Y-82047221D01*
X219100294Y-82289735D01*
X219192905Y-82513870D01*
X219364238Y-82685503D01*
X219588211Y-82778504D01*
X219830725Y-82778716D01*
X220054860Y-82686105D01*
X220226493Y-82514772D01*
X220319494Y-82290799D01*
X220319706Y-82048285D01*
X220319706Y-85896423D01*
X220203340Y-85944505D01*
X220031707Y-86115838D01*
X219938706Y-86339811D01*
X219938494Y-86582325D01*
X220031105Y-86806460D01*
X220202438Y-86978093D01*
X220426411Y-87071094D01*
X220668925Y-87071306D01*
X220893060Y-86978695D01*
X221064693Y-86807362D01*
X221157694Y-86583389D01*
X221157906Y-86340875D01*
X221157906Y-94585200D01*
X218948106Y-94585200D01*
X218948106Y-78492245D01*
X218855495Y-78268110D01*
X218846476Y-78259075D01*
X218846476Y-69500675D01*
X218753865Y-69276540D01*
X218582532Y-69104907D01*
X218358559Y-69011906D01*
X218116045Y-69011694D01*
X217891910Y-69104305D01*
X217720277Y-69275638D01*
X217627276Y-69499611D01*
X217627064Y-69742125D01*
X217719675Y-69966260D01*
X217891008Y-70137893D01*
X218114981Y-70230894D01*
X218357495Y-70231106D01*
X218581630Y-70138495D01*
X218753263Y-69967162D01*
X218846264Y-69743189D01*
X218846476Y-69500675D01*
X218846476Y-78259075D01*
X218684162Y-78096477D01*
X218460189Y-78003476D01*
X218217675Y-78003264D01*
X217993540Y-78095875D01*
X217990925Y-78098485D01*
X217990925Y-72782554D01*
X217882879Y-72521064D01*
X217682990Y-72320826D01*
X217421689Y-72212324D01*
X217138756Y-72212077D01*
X216877266Y-72320123D01*
X216731477Y-72465657D01*
X216731477Y-68350846D01*
X216638866Y-68126711D01*
X216467533Y-67955078D01*
X216243560Y-67862077D01*
X216001046Y-67861865D01*
X215854904Y-67922249D01*
X215854904Y-66538771D01*
X215746858Y-66277281D01*
X215546969Y-66077043D01*
X215285668Y-65968541D01*
X215002735Y-65968294D01*
X214741245Y-66076340D01*
X214541007Y-66276229D01*
X214432505Y-66537530D01*
X214432258Y-66820463D01*
X214540304Y-67081953D01*
X214712499Y-67254449D01*
X214596107Y-67370638D01*
X214503106Y-67594611D01*
X214502894Y-67837125D01*
X214595505Y-68061260D01*
X214766838Y-68232893D01*
X214990811Y-68325894D01*
X215233325Y-68326106D01*
X215457460Y-68233495D01*
X215629093Y-68062162D01*
X215722094Y-67838189D01*
X215722306Y-67595675D01*
X215629695Y-67371540D01*
X215542580Y-67284272D01*
X215545917Y-67282894D01*
X215746155Y-67083005D01*
X215854657Y-66821704D01*
X215854904Y-66538771D01*
X215854904Y-67922249D01*
X215776911Y-67954476D01*
X215605278Y-68125809D01*
X215512277Y-68349782D01*
X215512065Y-68592296D01*
X215604676Y-68816431D01*
X215776009Y-68988064D01*
X215999982Y-69081065D01*
X216242496Y-69081277D01*
X216466631Y-68988666D01*
X216638264Y-68817333D01*
X216731265Y-68593360D01*
X216731477Y-68350846D01*
X216731477Y-72465657D01*
X216677028Y-72520012D01*
X216568526Y-72781313D01*
X216568279Y-73064246D01*
X216676325Y-73325736D01*
X216876214Y-73525974D01*
X217137515Y-73634476D01*
X217420448Y-73634723D01*
X217681938Y-73526677D01*
X217882176Y-73326788D01*
X217990678Y-73065487D01*
X217990925Y-72782554D01*
X217990925Y-78098485D01*
X217821907Y-78267208D01*
X217728906Y-78491181D01*
X217728694Y-78733695D01*
X217821305Y-78957830D01*
X217992638Y-79129463D01*
X218216611Y-79222464D01*
X218459125Y-79222676D01*
X218683260Y-79130065D01*
X218854893Y-78958732D01*
X218947894Y-78734759D01*
X218948106Y-78492245D01*
X218948106Y-94585200D01*
X218567119Y-94585200D01*
X218567119Y-84809060D01*
X218459073Y-84547570D01*
X218259184Y-84347332D01*
X217997883Y-84238830D01*
X217714950Y-84238583D01*
X217453460Y-84346629D01*
X217253222Y-84546518D01*
X217144720Y-84807819D01*
X217144473Y-85090752D01*
X217252519Y-85352242D01*
X217452408Y-85552480D01*
X217713709Y-85660982D01*
X217996642Y-85661229D01*
X218258132Y-85553183D01*
X218458370Y-85353294D01*
X218566872Y-85091993D01*
X218567119Y-84809060D01*
X218567119Y-94585200D01*
X218009370Y-94585200D01*
X218117296Y-94325287D01*
X218117543Y-94042354D01*
X218009497Y-93780864D01*
X217815681Y-93586710D01*
X217965893Y-93436762D01*
X218058894Y-93212789D01*
X218059106Y-92970275D01*
X217966495Y-92746140D01*
X217795162Y-92574507D01*
X217571189Y-92481506D01*
X217474923Y-92481421D01*
X217474923Y-90537154D01*
X217366877Y-90275664D01*
X217166988Y-90075426D01*
X216905687Y-89966924D01*
X216839923Y-89966866D01*
X216839923Y-84644354D01*
X216731877Y-84382864D01*
X216531988Y-84182626D01*
X216270687Y-84074124D01*
X215987754Y-84073877D01*
X215874723Y-84120580D01*
X215874723Y-74052554D01*
X215766677Y-73791064D01*
X215566788Y-73590826D01*
X215305487Y-73482324D01*
X215022554Y-73482077D01*
X214761064Y-73590123D01*
X214560826Y-73790012D01*
X214452324Y-74051313D01*
X214452077Y-74334246D01*
X214560123Y-74595736D01*
X214625361Y-74661088D01*
X214488340Y-74717705D01*
X214316707Y-74889038D01*
X214299923Y-74929458D01*
X214299923Y-68845554D01*
X214191877Y-68584064D01*
X213991988Y-68383826D01*
X213730687Y-68275324D01*
X213447754Y-68275077D01*
X213186264Y-68383123D01*
X212986026Y-68583012D01*
X212877524Y-68844313D01*
X212877277Y-69127246D01*
X212985323Y-69388736D01*
X213185212Y-69588974D01*
X213446513Y-69697476D01*
X213729446Y-69697723D01*
X213990936Y-69589677D01*
X214191174Y-69389788D01*
X214299676Y-69128487D01*
X214299923Y-68845554D01*
X214299923Y-74929458D01*
X214223706Y-75113011D01*
X214223494Y-75355525D01*
X214295797Y-75530511D01*
X214234340Y-75555905D01*
X214062707Y-75727238D01*
X213969706Y-75951211D01*
X213969494Y-76193725D01*
X214062105Y-76417860D01*
X214233438Y-76589493D01*
X214457411Y-76682494D01*
X214699925Y-76682706D01*
X214924060Y-76590095D01*
X215095693Y-76418762D01*
X215188694Y-76194789D01*
X215188906Y-75952275D01*
X215116602Y-75777288D01*
X215178060Y-75751895D01*
X215349693Y-75580562D01*
X215442694Y-75356589D01*
X215442906Y-75114075D01*
X215350295Y-74889940D01*
X215347295Y-74886935D01*
X215565736Y-74796677D01*
X215765974Y-74596788D01*
X215874476Y-74335487D01*
X215874723Y-74052554D01*
X215874723Y-84120580D01*
X215726264Y-84181923D01*
X215526026Y-84381812D01*
X215417524Y-84643113D01*
X215417277Y-84926046D01*
X215525323Y-85187536D01*
X215725212Y-85387774D01*
X215986513Y-85496276D01*
X216269446Y-85496523D01*
X216530936Y-85388477D01*
X216731174Y-85188588D01*
X216839676Y-84927287D01*
X216839923Y-84644354D01*
X216839923Y-89966866D01*
X216622754Y-89966677D01*
X216361264Y-90074723D01*
X216161026Y-90274612D01*
X216052524Y-90535913D01*
X216052277Y-90818846D01*
X216160323Y-91080336D01*
X216360212Y-91280574D01*
X216621513Y-91389076D01*
X216904446Y-91389323D01*
X217165936Y-91281277D01*
X217366174Y-91081388D01*
X217474676Y-90820087D01*
X217474923Y-90537154D01*
X217474923Y-92481421D01*
X217328675Y-92481294D01*
X217104540Y-92573905D01*
X216932907Y-92745238D01*
X216839906Y-92969211D01*
X216839694Y-93211725D01*
X216932305Y-93435860D01*
X217055022Y-93558792D01*
X217003884Y-93579923D01*
X216803646Y-93779812D01*
X216695144Y-94041113D01*
X216694897Y-94324046D01*
X216802804Y-94585200D01*
X214282305Y-94585200D01*
X214282305Y-82256185D01*
X214189694Y-82032050D01*
X214018361Y-81860417D01*
X213794388Y-81767416D01*
X213622701Y-81767265D01*
X213622768Y-81691014D01*
X213530157Y-81466879D01*
X213489934Y-81426586D01*
X213570911Y-81345752D01*
X213663912Y-81121779D01*
X213664124Y-80879265D01*
X213571513Y-80655130D01*
X213460687Y-80544110D01*
X213544927Y-80509303D01*
X213716560Y-80337970D01*
X213809561Y-80113997D01*
X213809773Y-79871483D01*
X213791923Y-79828282D01*
X213791923Y-78065754D01*
X213683877Y-77804264D01*
X213483988Y-77604026D01*
X213222687Y-77495524D01*
X212939754Y-77495277D01*
X212678264Y-77603323D01*
X212478026Y-77803212D01*
X212369524Y-78064513D01*
X212369277Y-78347446D01*
X212477323Y-78608936D01*
X212677212Y-78809174D01*
X212938513Y-78917676D01*
X213221446Y-78917923D01*
X213482936Y-78809877D01*
X213683174Y-78609988D01*
X213791676Y-78348687D01*
X213791923Y-78065754D01*
X213791923Y-79828282D01*
X213717162Y-79647348D01*
X213545829Y-79475715D01*
X213321856Y-79382714D01*
X213079342Y-79382502D01*
X212855207Y-79475113D01*
X212683574Y-79646446D01*
X212590573Y-79870419D01*
X212590361Y-80112933D01*
X212682972Y-80337068D01*
X212793797Y-80448087D01*
X212709558Y-80482895D01*
X212537925Y-80654228D01*
X212444924Y-80878201D01*
X212444712Y-81120715D01*
X212537323Y-81344850D01*
X212577545Y-81385142D01*
X212496569Y-81465977D01*
X212403568Y-81689950D01*
X212403356Y-81932464D01*
X212495967Y-82156599D01*
X212667300Y-82328232D01*
X212891273Y-82421233D01*
X213062959Y-82421383D01*
X213062893Y-82497635D01*
X213155504Y-82721770D01*
X213326837Y-82893403D01*
X213550810Y-82986404D01*
X213793324Y-82986616D01*
X214017459Y-82894005D01*
X214189092Y-82722672D01*
X214282093Y-82498699D01*
X214282305Y-82256185D01*
X214282305Y-94585200D01*
X213639513Y-94585200D01*
X213639513Y-85914354D01*
X213531467Y-85652864D01*
X213331578Y-85452626D01*
X213070277Y-85344124D01*
X212787344Y-85343877D01*
X212525854Y-85451923D01*
X212325616Y-85651812D01*
X212217114Y-85913113D01*
X212216867Y-86196046D01*
X212324913Y-86457536D01*
X212524802Y-86657774D01*
X212786103Y-86766276D01*
X213069036Y-86766523D01*
X213330526Y-86658477D01*
X213530764Y-86458588D01*
X213639266Y-86197287D01*
X213639513Y-85914354D01*
X213639513Y-94585200D01*
X211875807Y-94585200D01*
X211873315Y-67672846D01*
X214253705Y-65292457D01*
X222905120Y-65293340D01*
X222892026Y-65306412D01*
X222783524Y-65567713D01*
X222783277Y-65850646D01*
X222891323Y-66112136D01*
X223091212Y-66312374D01*
X223352513Y-66420876D01*
X223635446Y-66421123D01*
X223896936Y-66313077D01*
X224097174Y-66113188D01*
X224205676Y-65851887D01*
X224205923Y-65568954D01*
X224097877Y-65307464D01*
X224083898Y-65293460D01*
X238783199Y-65294961D01*
X241166166Y-67677929D01*
M02*
