G75*
%MOIN*%
%OFA0B0*%
%FSLAX24Y24*%
%IPPOS*%
%LPD*%
%AMOC8*
5,1,8,0,0,1.08239X$1,22.5*
%
%ADD10C,0.0040*%
%ADD11C,0.0080*%
%ADD12R,0.0128X0.0167*%
%ADD13R,0.0138X0.0138*%
%ADD14C,0.0060*%
%ADD15C,0.0020*%
%ADD16C,0.0030*%
%ADD17C,0.0050*%
%ADD18C,0.0010*%
%ADD19R,0.0965X0.0266*%
%ADD20C,0.0039*%
D10*
X003963Y003890D02*
X004270Y003890D01*
X004117Y003890D02*
X004117Y004350D01*
X004270Y004197D01*
X004424Y004274D02*
X004424Y003967D01*
X004501Y003890D01*
X004654Y003890D01*
X004731Y003967D01*
X004731Y004274D01*
X004654Y004350D01*
X004501Y004350D01*
X004424Y004274D01*
X004577Y004043D02*
X004424Y003890D01*
X005690Y005380D02*
X005844Y005380D01*
X005920Y005457D01*
X006074Y005380D02*
X006381Y005380D01*
X006534Y005380D02*
X006688Y005533D01*
X006611Y005533D02*
X006534Y005610D01*
X006534Y005764D01*
X006611Y005840D01*
X006841Y005840D01*
X006841Y005380D01*
X006841Y005533D02*
X006611Y005533D01*
X006381Y005687D02*
X006227Y005840D01*
X006227Y005380D01*
X006450Y004997D02*
X006450Y004690D01*
X006450Y004843D02*
X006910Y004843D01*
X006757Y004690D01*
X006834Y004536D02*
X006910Y004459D01*
X006910Y004306D01*
X006834Y004229D01*
X006527Y004229D01*
X006450Y004306D01*
X006450Y004459D01*
X006527Y004536D01*
X006450Y004076D02*
X006450Y003922D01*
X006450Y003999D02*
X006910Y003999D01*
X006910Y003922D02*
X006910Y004076D01*
X007300Y004420D02*
X007454Y004420D01*
X007530Y004497D01*
X007530Y004573D01*
X007454Y004650D01*
X007300Y004650D01*
X007223Y004573D01*
X007223Y004497D01*
X007300Y004420D01*
X007300Y004650D02*
X007223Y004727D01*
X007223Y004804D01*
X007300Y004880D01*
X007454Y004880D01*
X007530Y004804D01*
X007530Y004727D01*
X007454Y004650D01*
X007684Y004497D02*
X007761Y004420D01*
X007914Y004420D01*
X007991Y004497D01*
X007991Y004804D01*
X007914Y004880D01*
X007761Y004880D01*
X007684Y004804D01*
X007980Y004860D02*
X008057Y004937D01*
X008364Y004937D01*
X008440Y004860D01*
X008440Y004706D01*
X008364Y004630D01*
X008287Y004630D01*
X008210Y004706D01*
X008210Y004937D01*
X008550Y004840D02*
X008857Y005147D01*
X008934Y005147D01*
X009010Y005070D01*
X009010Y004916D01*
X008934Y004840D01*
X008934Y004686D02*
X009010Y004609D01*
X009010Y004379D01*
X008550Y004379D01*
X008550Y004609D01*
X008627Y004686D01*
X008934Y004686D01*
X009191Y004907D02*
X009345Y004907D01*
X009422Y004984D01*
X009115Y005290D01*
X009115Y004984D01*
X009191Y004907D01*
X009422Y004984D02*
X009422Y005290D01*
X009345Y005367D01*
X009191Y005367D01*
X009115Y005290D01*
X008801Y005620D02*
X008801Y006080D01*
X008571Y006080D01*
X008494Y006004D01*
X008494Y005850D01*
X008571Y005773D01*
X008801Y005773D01*
X008648Y005773D02*
X008494Y005620D01*
X008341Y005620D02*
X008034Y005620D01*
X008187Y005620D02*
X008187Y006080D01*
X008341Y005927D01*
X007880Y006004D02*
X007804Y006080D01*
X007650Y006080D01*
X007573Y006004D01*
X007573Y005927D01*
X007880Y005620D01*
X007573Y005620D01*
X007980Y004860D02*
X007980Y004706D01*
X008057Y004630D01*
X008057Y004476D02*
X007980Y004399D01*
X007980Y004246D01*
X008057Y004169D01*
X008364Y004169D01*
X008440Y004246D01*
X008440Y004399D01*
X008364Y004476D01*
X008550Y004840D02*
X008550Y005147D01*
X009575Y004907D02*
X009882Y004907D01*
X009900Y004830D02*
X010207Y005137D01*
X010284Y005137D01*
X010360Y005060D01*
X010360Y004906D01*
X010284Y004830D01*
X010266Y004907D02*
X010112Y004907D01*
X010036Y004984D01*
X009900Y005137D02*
X009900Y004830D01*
X009977Y004676D02*
X009900Y004599D01*
X009900Y004446D01*
X009977Y004369D01*
X010284Y004369D01*
X010360Y004446D01*
X010360Y004599D01*
X010284Y004676D01*
X010266Y004907D02*
X010342Y004984D01*
X010342Y005290D01*
X010266Y005367D01*
X010112Y005367D01*
X010036Y005290D01*
X009882Y005214D02*
X009729Y005367D01*
X009729Y004907D01*
X011200Y004041D02*
X011200Y003887D01*
X011277Y003810D01*
X011277Y003657D02*
X011200Y003580D01*
X011200Y003427D01*
X011277Y003350D01*
X011584Y003350D01*
X011660Y003427D01*
X011660Y003580D01*
X011584Y003657D01*
X011584Y003810D02*
X011660Y003887D01*
X011660Y004041D01*
X011584Y004117D01*
X011507Y004117D01*
X011430Y004041D01*
X011353Y004117D01*
X011277Y004117D01*
X011200Y004041D01*
X011430Y004041D02*
X011430Y003964D01*
X014063Y004470D02*
X014370Y004470D01*
X014063Y004777D01*
X014063Y004854D01*
X014140Y004930D01*
X014294Y004930D01*
X014370Y004854D01*
X014524Y004854D02*
X014524Y004547D01*
X014601Y004470D01*
X014754Y004470D01*
X014831Y004547D01*
X014831Y004854D01*
X014754Y004930D01*
X014601Y004930D01*
X014524Y004854D01*
X014677Y004623D02*
X014524Y004470D01*
X014600Y007220D02*
X014600Y007297D01*
X014293Y007604D01*
X014293Y007680D01*
X014600Y007680D01*
X014753Y007604D02*
X014753Y007450D01*
X014830Y007373D01*
X015060Y007373D01*
X015060Y007220D02*
X015060Y007680D01*
X014830Y007680D01*
X014753Y007604D01*
X014907Y007373D02*
X014753Y007220D01*
X014896Y007980D02*
X014896Y008100D01*
X014896Y008040D02*
X015256Y008040D01*
X015256Y007980D02*
X015256Y008100D01*
X015196Y008226D02*
X014956Y008226D01*
X014896Y008286D01*
X014896Y008406D01*
X014956Y008466D01*
X014896Y008594D02*
X015136Y008834D01*
X015196Y008834D01*
X015256Y008774D01*
X015256Y008654D01*
X015196Y008594D01*
X015196Y008466D02*
X015256Y008406D01*
X015256Y008286D01*
X015196Y008226D01*
X014896Y008594D02*
X014896Y008834D01*
X015033Y010540D02*
X015340Y010540D01*
X015187Y010540D02*
X015187Y011000D01*
X015340Y010847D01*
X015494Y010924D02*
X015494Y010770D01*
X015571Y010693D01*
X015801Y010693D01*
X015801Y010540D02*
X015801Y011000D01*
X015571Y011000D01*
X015494Y010924D01*
X015647Y010693D02*
X015494Y010540D01*
X014001Y010600D02*
X014001Y011060D01*
X013771Y011060D01*
X013694Y010984D01*
X013694Y010830D01*
X013771Y010753D01*
X014001Y010753D01*
X013847Y010753D02*
X013694Y010600D01*
X013540Y010600D02*
X013233Y010907D01*
X013233Y010984D01*
X013310Y011060D01*
X013464Y011060D01*
X013540Y010984D01*
X013540Y010600D02*
X013233Y010600D01*
X013250Y011380D02*
X013404Y011380D01*
X013480Y011457D01*
X013634Y011380D02*
X013787Y011533D01*
X013711Y011533D02*
X013941Y011533D01*
X013941Y011380D02*
X013941Y011840D01*
X013711Y011840D01*
X013634Y011764D01*
X013634Y011610D01*
X013711Y011533D01*
X013480Y011764D02*
X013404Y011840D01*
X013250Y011840D01*
X013173Y011764D01*
X013173Y011687D01*
X013250Y011610D01*
X013173Y011533D01*
X013173Y011457D01*
X013250Y011380D01*
X013250Y011610D02*
X013327Y011610D01*
X012281Y012300D02*
X012281Y012760D01*
X012051Y012760D01*
X011974Y012684D01*
X011974Y012530D01*
X012051Y012453D01*
X012281Y012453D01*
X012127Y012453D02*
X011974Y012300D01*
X011820Y012377D02*
X011744Y012300D01*
X011590Y012300D01*
X011513Y012377D01*
X011513Y012684D01*
X011590Y012760D01*
X011744Y012760D01*
X011820Y012684D01*
X011820Y012607D01*
X011744Y012530D01*
X011513Y012530D01*
X011060Y012470D02*
X011060Y012240D01*
X010600Y012240D01*
X010753Y012240D02*
X010753Y012470D01*
X010830Y012547D01*
X010984Y012547D01*
X011060Y012470D01*
X010830Y012700D02*
X010830Y013007D01*
X010600Y012931D02*
X011060Y012931D01*
X010830Y012700D01*
X010600Y012547D02*
X010753Y012393D01*
X010300Y012470D02*
X010300Y012240D01*
X009840Y012240D01*
X009993Y012240D02*
X009993Y012470D01*
X010070Y012547D01*
X010224Y012547D01*
X010300Y012470D01*
X010300Y012700D02*
X010070Y012700D01*
X010147Y012854D01*
X010147Y012931D01*
X010070Y013007D01*
X009917Y013007D01*
X009840Y012931D01*
X009840Y012777D01*
X009917Y012700D01*
X009840Y012547D02*
X009993Y012393D01*
X010300Y012700D02*
X010300Y013007D01*
X009721Y013180D02*
X009721Y013640D01*
X009491Y013640D01*
X009414Y013564D01*
X009414Y013410D01*
X009491Y013333D01*
X009721Y013333D01*
X009568Y013333D02*
X009414Y013180D01*
X009261Y013180D02*
X008954Y013180D01*
X009000Y013167D02*
X009000Y012860D01*
X009000Y012707D02*
X009153Y012553D01*
X009153Y012630D02*
X009153Y012400D01*
X009000Y012400D02*
X009460Y012400D01*
X009460Y012630D01*
X009384Y012707D01*
X009230Y012707D01*
X009153Y012630D01*
X009307Y012860D02*
X009460Y013014D01*
X009000Y013014D01*
X009107Y013180D02*
X009107Y013640D01*
X009261Y013487D01*
X009307Y013321D02*
X009460Y013474D01*
X009000Y013474D01*
X009000Y013321D02*
X009000Y013628D01*
X008800Y013564D02*
X008724Y013640D01*
X008570Y013640D01*
X008493Y013564D01*
X008800Y013257D01*
X008724Y013180D01*
X008570Y013180D01*
X008493Y013257D01*
X008493Y013564D01*
X008800Y013564D02*
X008800Y013257D01*
X010440Y013707D02*
X010440Y013860D01*
X010517Y013937D01*
X010440Y014090D02*
X010440Y014397D01*
X010440Y014244D02*
X010900Y014244D01*
X010747Y014090D01*
X010824Y013937D02*
X010900Y013860D01*
X010900Y013707D01*
X010824Y013630D01*
X010517Y013630D01*
X010440Y013707D01*
X011084Y011717D02*
X010777Y011410D01*
X010700Y011410D01*
X010777Y011256D02*
X010700Y011179D01*
X010700Y011026D01*
X010777Y010949D01*
X011084Y010949D01*
X011160Y011026D01*
X011160Y011179D01*
X011084Y011256D01*
X011160Y011410D02*
X011160Y011717D01*
X011084Y011717D01*
X011457Y010808D02*
X011533Y010808D01*
X011610Y010731D01*
X011610Y010501D01*
X011457Y010501D01*
X011380Y010578D01*
X011380Y010731D01*
X011457Y010808D01*
X011764Y010654D02*
X011610Y010501D01*
X011764Y010654D02*
X011840Y010808D01*
X011380Y010347D02*
X011380Y010040D01*
X011380Y009887D02*
X011533Y009733D01*
X011533Y009810D02*
X011533Y009580D01*
X011380Y009580D02*
X011840Y009580D01*
X011840Y009810D01*
X011764Y009887D01*
X011610Y009887D01*
X011533Y009810D01*
X011687Y010040D02*
X011840Y010194D01*
X011380Y010194D01*
X011180Y010051D02*
X011104Y010128D01*
X011027Y010128D01*
X010950Y010051D01*
X010873Y010128D01*
X010797Y010128D01*
X010720Y010051D01*
X010720Y009898D01*
X010797Y009821D01*
X010797Y009668D02*
X011104Y009668D01*
X011180Y009591D01*
X011180Y009361D01*
X010720Y009361D01*
X010720Y009591D01*
X010797Y009668D01*
X010950Y009975D02*
X010950Y010051D01*
X011104Y009821D02*
X011180Y009898D01*
X011180Y010051D01*
X011180Y009207D02*
X011180Y008900D01*
X010720Y008900D01*
X010720Y009207D01*
X010950Y009054D02*
X010950Y008900D01*
X010720Y008747D02*
X010720Y008440D01*
X011180Y008440D01*
X010580Y008320D02*
X010350Y008320D01*
X010427Y008473D01*
X010427Y008550D01*
X010350Y008627D01*
X010197Y008627D01*
X010120Y008550D01*
X010120Y008396D01*
X010197Y008320D01*
X010280Y008440D02*
X009820Y008440D01*
X009820Y008747D01*
X009820Y008900D02*
X009820Y009207D01*
X009820Y009361D02*
X009820Y009591D01*
X009897Y009668D01*
X010204Y009668D01*
X010280Y009591D01*
X010280Y009361D01*
X009820Y009361D01*
X010050Y009054D02*
X010050Y008900D01*
X010280Y008900D02*
X009820Y008900D01*
X010280Y008900D02*
X010280Y009207D01*
X010204Y009821D02*
X010280Y009898D01*
X010280Y010051D01*
X010204Y010128D01*
X010127Y010128D01*
X009820Y009821D01*
X009820Y010128D01*
X008830Y010107D02*
X008753Y010030D01*
X008600Y010030D01*
X008523Y010107D01*
X008523Y010414D01*
X008600Y010490D01*
X008753Y010490D01*
X008830Y010414D01*
X008830Y010107D01*
X008677Y010183D02*
X008523Y010030D01*
X008370Y010260D02*
X008063Y010260D01*
X008139Y010030D02*
X008139Y010490D01*
X008370Y010260D01*
X007760Y010219D02*
X007300Y010219D01*
X007300Y010526D01*
X007300Y010679D02*
X007300Y010909D01*
X007377Y010986D01*
X007684Y010986D01*
X007760Y010909D01*
X007760Y010679D01*
X007300Y010679D01*
X007530Y010372D02*
X007530Y010219D01*
X007760Y010219D02*
X007760Y010526D01*
X007300Y010065D02*
X007300Y009758D01*
X007760Y009758D01*
X007607Y011140D02*
X007760Y011293D01*
X007300Y011293D01*
X007300Y011140D02*
X007300Y011447D01*
X004757Y014523D02*
X004522Y014326D01*
X004287Y014129D02*
X003991Y014482D01*
X004108Y014580D02*
X003873Y014383D01*
X004226Y014679D02*
X004461Y014876D01*
X004757Y014523D01*
X004825Y014681D02*
X004933Y014671D01*
X005051Y014770D01*
X005060Y014878D01*
X004903Y014946D02*
X004785Y014848D01*
X004776Y014740D01*
X004825Y014681D01*
X004609Y014700D02*
X004492Y014601D01*
X004628Y014916D02*
X004637Y015024D01*
X004755Y015123D01*
X004863Y015113D01*
X004912Y015055D01*
X004903Y014946D01*
X005227Y014918D02*
X005462Y015115D01*
X005166Y015468D01*
X004931Y015271D01*
X005197Y015193D02*
X005314Y015292D01*
X005432Y015390D02*
X005333Y015508D01*
X005343Y015616D01*
X005519Y015764D01*
X005815Y015411D01*
X005716Y015529D02*
X005540Y015381D01*
X005432Y015390D01*
X005599Y015430D02*
X005580Y015214D01*
X004101Y013873D02*
X003866Y013676D01*
X003699Y013636D02*
X003523Y013488D01*
X003415Y013497D01*
X003365Y013556D01*
X003375Y013664D01*
X003551Y013812D01*
X003375Y013664D02*
X003267Y013674D01*
X003217Y013732D01*
X003227Y013840D01*
X003403Y013988D01*
X003699Y013636D01*
X003229Y013241D02*
X002933Y013594D01*
X003050Y013692D02*
X002815Y013495D01*
X002698Y013396D02*
X002759Y012847D01*
X002463Y013199D01*
X002698Y013396D02*
X002994Y013044D01*
X003599Y012660D02*
X003830Y012430D01*
X003523Y012430D01*
X003599Y012200D02*
X003599Y012660D01*
X003983Y012584D02*
X004060Y012660D01*
X004213Y012660D01*
X004290Y012584D01*
X004290Y012277D01*
X004213Y012200D01*
X004060Y012200D01*
X003983Y012277D01*
X003724Y011067D02*
X003647Y011067D01*
X003570Y010990D01*
X003570Y010836D01*
X003647Y010760D01*
X003724Y010760D01*
X003800Y010836D01*
X003800Y010990D01*
X003724Y011067D01*
X003570Y010990D02*
X003493Y011067D01*
X003417Y011067D01*
X003340Y010990D01*
X003340Y010836D01*
X003417Y010760D01*
X003493Y010760D01*
X003570Y010836D01*
X003570Y010606D02*
X003493Y010529D01*
X003493Y010299D01*
X003340Y010299D02*
X003800Y010299D01*
X003800Y010529D01*
X003724Y010606D01*
X003570Y010606D01*
X003493Y010453D02*
X003340Y010606D01*
X003400Y010078D02*
X003400Y009771D01*
X003400Y009924D02*
X003860Y009924D01*
X003707Y009771D01*
X003860Y009464D02*
X003400Y009464D01*
X003400Y009617D02*
X003400Y009310D01*
X003477Y009157D02*
X003400Y009080D01*
X003400Y008927D01*
X003477Y008850D01*
X003784Y008850D01*
X003860Y008927D01*
X003860Y009080D01*
X003784Y009157D01*
X003707Y009310D02*
X003860Y009464D01*
X004243Y008160D02*
X004550Y008160D01*
X004550Y007930D01*
X004396Y008007D01*
X004319Y008007D01*
X004243Y007930D01*
X004243Y007777D01*
X004319Y007700D01*
X004473Y007700D01*
X004550Y007777D01*
X004703Y007777D02*
X004780Y007700D01*
X004933Y007700D01*
X005010Y007777D01*
X005010Y008084D01*
X004933Y008160D01*
X004780Y008160D01*
X004703Y008084D01*
X004730Y007100D02*
X004653Y007024D01*
X004653Y006870D01*
X004730Y006793D01*
X004960Y006793D01*
X004960Y006640D02*
X004960Y007100D01*
X004730Y007100D01*
X004807Y006793D02*
X004653Y006640D01*
X004500Y006717D02*
X004423Y006640D01*
X004269Y006640D01*
X004193Y006717D01*
X004193Y006793D01*
X004269Y006870D01*
X004500Y006870D01*
X004500Y006717D01*
X004500Y006870D02*
X004346Y007024D01*
X004193Y007100D01*
X005613Y005764D02*
X005613Y005687D01*
X005690Y005610D01*
X005613Y005533D01*
X005613Y005457D01*
X005690Y005380D01*
X005690Y005610D02*
X005767Y005610D01*
X005920Y005764D02*
X005844Y005840D01*
X005690Y005840D01*
X005613Y005764D01*
X006277Y007550D02*
X006200Y007627D01*
X006200Y007780D01*
X006277Y007857D01*
X006277Y008010D02*
X006200Y008087D01*
X006200Y008241D01*
X006277Y008317D01*
X006353Y008317D01*
X006430Y008241D01*
X006430Y008010D01*
X006277Y008010D01*
X006430Y008010D02*
X006584Y008164D01*
X006660Y008317D01*
X006584Y007857D02*
X006660Y007780D01*
X006660Y007627D01*
X006584Y007550D01*
X006277Y007550D01*
X007853Y007604D02*
X008160Y007297D01*
X008160Y007220D01*
X008314Y007220D02*
X008621Y007220D01*
X008774Y007220D02*
X008928Y007373D01*
X008851Y007373D02*
X009081Y007373D01*
X009081Y007220D02*
X009081Y007680D01*
X008851Y007680D01*
X008774Y007604D01*
X008774Y007450D01*
X008851Y007373D01*
X008621Y007527D02*
X008467Y007680D01*
X008467Y007220D01*
X008160Y007680D02*
X007853Y007680D01*
X007853Y007604D01*
X010120Y007706D02*
X010273Y007552D01*
X010273Y007629D02*
X010273Y007399D01*
X010120Y007399D02*
X010580Y007399D01*
X010580Y007629D01*
X010504Y007706D01*
X010350Y007706D01*
X010273Y007629D01*
X010120Y007859D02*
X010120Y008166D01*
X010120Y008013D02*
X010580Y008013D01*
X010427Y007859D01*
X010580Y008320D02*
X010580Y008627D01*
D11*
X010749Y007603D02*
X011103Y007249D01*
X011103Y006993D01*
X010749Y007603D02*
X009017Y007603D01*
X009017Y006993D01*
X009017Y006127D02*
X009017Y005517D01*
X010749Y005517D01*
X011103Y005871D01*
X011103Y006127D01*
X010926Y006186D02*
X010900Y006131D01*
X010870Y006078D01*
X010837Y006026D01*
X010801Y005977D01*
X010762Y005931D01*
X010720Y005887D01*
X010675Y005845D01*
X010628Y005807D01*
X010578Y005772D01*
X010526Y005740D01*
X010472Y005712D01*
X010417Y005687D01*
X010359Y005666D01*
X010301Y005648D01*
X010242Y005635D01*
X010182Y005625D01*
X010121Y005619D01*
X010060Y005617D01*
X009999Y005619D01*
X009938Y005625D01*
X009878Y005635D01*
X009819Y005648D01*
X009761Y005666D01*
X009703Y005687D01*
X009648Y005712D01*
X009594Y005740D01*
X009542Y005772D01*
X009492Y005807D01*
X009445Y005845D01*
X009400Y005887D01*
X009358Y005931D01*
X009319Y005977D01*
X009283Y006026D01*
X009250Y006078D01*
X009220Y006131D01*
X009194Y006186D01*
X009194Y006934D02*
X009220Y006989D01*
X009250Y007042D01*
X009283Y007094D01*
X009319Y007143D01*
X009358Y007189D01*
X009400Y007233D01*
X009445Y007275D01*
X009492Y007313D01*
X009542Y007348D01*
X009594Y007380D01*
X009648Y007408D01*
X009703Y007433D01*
X009761Y007454D01*
X009819Y007472D01*
X009878Y007485D01*
X009938Y007495D01*
X009999Y007501D01*
X010060Y007503D01*
X010121Y007501D01*
X010182Y007495D01*
X010242Y007485D01*
X010301Y007472D01*
X010359Y007454D01*
X010417Y007433D01*
X010472Y007408D01*
X010526Y007380D01*
X010578Y007348D01*
X010628Y007313D01*
X010675Y007275D01*
X010720Y007233D01*
X010762Y007189D01*
X010801Y007143D01*
X010837Y007094D01*
X010870Y007042D01*
X010900Y006989D01*
X010926Y006934D01*
X010292Y004687D02*
X010292Y003876D01*
X009268Y003876D02*
X009268Y004687D01*
X012570Y004159D02*
X012570Y003665D01*
X013064Y004159D01*
X013187Y004159D01*
X013311Y004035D01*
X013311Y003788D01*
X013187Y003665D01*
X013311Y003404D02*
X012693Y003404D01*
X012570Y003280D01*
X012570Y003033D01*
X012693Y002910D01*
X013311Y002910D01*
X005258Y012713D02*
X007068Y014231D01*
X006941Y014382D01*
X006287Y014090D02*
X005548Y013470D01*
X005153Y013910D02*
X005907Y014543D01*
X006308Y015136D02*
X006182Y015287D01*
X004372Y013769D01*
X004499Y013618D01*
X005132Y012864D02*
X005258Y012713D01*
D12*
X008009Y010859D03*
X008551Y010859D03*
X009029Y009141D03*
X009571Y009141D03*
X009929Y009141D03*
X010471Y009141D03*
D13*
X010200Y008989D03*
X009300Y008989D03*
X008280Y011011D03*
D14*
X012234Y009679D02*
X012234Y007881D01*
X014726Y007881D01*
X014726Y009679D01*
X012234Y009679D01*
X014196Y008300D02*
X014198Y008326D01*
X014204Y008352D01*
X014213Y008376D01*
X014226Y008399D01*
X014242Y008420D01*
X014261Y008438D01*
X014282Y008454D01*
X014306Y008466D01*
X014330Y008474D01*
X014356Y008479D01*
X014383Y008480D01*
X014409Y008477D01*
X014434Y008470D01*
X014458Y008460D01*
X014481Y008446D01*
X014501Y008430D01*
X014518Y008410D01*
X014533Y008388D01*
X014544Y008364D01*
X014552Y008339D01*
X014556Y008313D01*
X014556Y008287D01*
X014552Y008261D01*
X014544Y008236D01*
X014533Y008212D01*
X014518Y008190D01*
X014501Y008170D01*
X014481Y008154D01*
X014458Y008140D01*
X014434Y008130D01*
X014409Y008123D01*
X014383Y008120D01*
X014356Y008121D01*
X014330Y008126D01*
X014306Y008134D01*
X014282Y008146D01*
X014261Y008162D01*
X014242Y008180D01*
X014226Y008201D01*
X014213Y008224D01*
X014204Y008248D01*
X014198Y008274D01*
X014196Y008300D01*
X011910Y005010D02*
X011650Y005010D01*
X011190Y004830D02*
X011190Y004530D01*
X012370Y004530D02*
X012370Y004830D01*
X007999Y004903D02*
X007999Y004940D01*
X007361Y004940D01*
X007361Y004903D01*
X007361Y004586D02*
X007361Y004174D01*
X007361Y003857D02*
X007361Y003820D01*
X007999Y003820D01*
X007999Y003857D01*
X007999Y004174D02*
X007999Y004211D01*
X007999Y004549D02*
X007999Y004586D01*
D15*
X012324Y007971D02*
X012324Y009589D01*
X014636Y009589D01*
X014636Y007971D01*
X012324Y007971D01*
X012826Y005310D02*
X012826Y005090D01*
X012899Y005090D02*
X012752Y005090D01*
X012899Y005237D02*
X012826Y005310D01*
X012973Y005090D02*
X013120Y005090D01*
X013120Y005310D01*
D16*
X012527Y004199D02*
X012213Y003885D01*
X012213Y004042D02*
X012527Y004042D01*
X012527Y003885D02*
X012213Y004199D01*
X012370Y004199D02*
X012370Y003885D01*
D17*
X011755Y005455D02*
X013005Y005455D01*
X013005Y006705D02*
X011755Y006705D01*
X010252Y010293D02*
X009308Y010293D01*
X009308Y010686D01*
X010252Y010686D01*
X010252Y011828D01*
X009308Y011828D01*
X009308Y010686D01*
X010252Y010686D02*
X010252Y010293D01*
X005167Y009410D02*
X005010Y009567D01*
X003750Y009567D02*
X003593Y009567D01*
X003593Y009410D01*
X003593Y008150D02*
X003593Y007993D01*
X003750Y007993D01*
X005010Y007993D02*
X005167Y007993D01*
X005167Y008150D01*
D18*
X004497Y009155D02*
X004447Y009155D01*
X004422Y009180D01*
X004422Y009305D01*
X004375Y009255D02*
X004325Y009305D01*
X004325Y009155D01*
X004375Y009155D02*
X004275Y009155D01*
X004497Y009155D02*
X004522Y009180D01*
X004522Y009305D01*
D19*
X009780Y004566D03*
D20*
X006651Y011109D02*
X005509Y011109D01*
X005509Y012251D01*
X006651Y012251D01*
X006651Y011109D01*
X006395Y012086D02*
X006397Y012104D01*
X006403Y012120D01*
X006412Y012135D01*
X006425Y012148D01*
X006440Y012157D01*
X006456Y012163D01*
X006474Y012165D01*
X006492Y012163D01*
X006508Y012157D01*
X006523Y012148D01*
X006536Y012135D01*
X006545Y012120D01*
X006551Y012104D01*
X006553Y012086D01*
X006551Y012068D01*
X006545Y012052D01*
X006536Y012037D01*
X006523Y012024D01*
X006508Y012015D01*
X006492Y012009D01*
X006474Y012007D01*
X006456Y012009D01*
X006440Y012015D01*
X006425Y012024D01*
X006412Y012037D01*
X006403Y012052D01*
X006397Y012068D01*
X006395Y012086D01*
M02*
