%
M48
M72
T01C0.0236
T02C0.0360
T03C0.0400
T04C0.0520
%
T01
X6080Y4880
X6880Y6480
X6980Y7480
X7880Y7380
X8880Y7580
X8280Y6080
X9080Y5780
X10380Y5880
X10280Y4180
X12180Y7180
X11580Y7380
X11780Y8380
X11880Y9180
X12580Y8880
X13080Y8680
X14080Y8380
X15080Y9580
X15280Y10080
X15880Y10180
X15980Y10680
X14380Y10880
X13680Y10680
X13180Y10580
X14280Y12180
X11980Y12380
X11580Y12680
X10880Y12180
X10880Y11280
X11180Y10880
X8880Y10180
X8680Y11180
X6880Y10180
X6280Y9680
X5880Y9180
X5280Y9980
X4980Y10380
X5680Y10680
X4880Y11480
X4880Y11980
X3380Y10780
X4180Y8880
X3480Y7580
X5580Y6980
X7380Y9380
X6680Y12480
X7580Y13280
X7380Y13880
X5680Y13980
X9480Y13580
X10980Y13780
X15380Y7580
X13680Y6580
X13680Y6080
X13180Y6980
T02
X5297Y4341
X6063Y3699
X7377Y3069
X8343Y2811
X13228Y4045
X13972Y4715
T03
X14012Y13280
X13146Y13780
X12280Y14280
X11414Y14780
X10548Y15280
T04
X15040Y12300
X9760Y2580
X4040Y12720
M30
