G75*
%MOIN*%
%OFA0B0*%
%FSLAX24Y24*%
%IPPOS*%
%LPD*%
%AMOC8*
5,1,8,0,0,1.08239X$1,22.5*
%
%ADD10R,0.0591X0.0512*%
%ADD11R,0.0512X0.0630*%
%ADD12R,0.0630X0.0512*%
%ADD13R,0.0394X0.0551*%
%ADD14C,0.0560*%
%ADD15R,0.0512X0.0591*%
%ADD16OC8,0.0850*%
%ADD17R,0.1181X0.0630*%
%ADD18R,0.0787X0.0630*%
%ADD19R,0.0591X0.0591*%
%ADD20R,0.0472X0.0217*%
%ADD21C,0.0600*%
%ADD22R,0.0120X0.0390*%
%ADD23R,0.0220X0.0500*%
%ADD24R,0.0551X0.1102*%
%ADD25R,0.0536X0.0283*%
%ADD26R,0.0376X0.0114*%
%ADD27R,0.0114X0.0376*%
%ADD28R,0.0945X0.0709*%
%ADD29R,0.0472X0.0157*%
%ADD30R,0.0591X0.1181*%
%ADD31C,0.0240*%
%ADD32C,0.0320*%
%ADD33C,0.0396*%
%ADD34C,0.0160*%
%ADD35C,0.0100*%
D10*
X005780Y007545D03*
X005780Y008215D03*
X002980Y008845D03*
X002980Y009515D03*
X008860Y005055D03*
X008860Y004385D03*
X010780Y004585D03*
X010780Y004015D03*
X010780Y003345D03*
X010780Y005255D03*
X011580Y011165D03*
X011580Y011835D03*
X010020Y013625D03*
X010020Y014295D03*
D11*
X009134Y014060D03*
X008386Y014060D03*
X011406Y013180D03*
X012154Y013180D03*
X013066Y012260D03*
X013814Y012260D03*
X013874Y011480D03*
X013126Y011480D03*
X014926Y011420D03*
X015674Y011420D03*
X015054Y006800D03*
X014306Y006800D03*
X008494Y008100D03*
X007746Y008100D03*
X007466Y006500D03*
X008214Y006500D03*
X006254Y006260D03*
X005506Y006260D03*
X004954Y006220D03*
X004206Y006220D03*
D12*
X004220Y010426D03*
X004220Y011174D03*
X008580Y012406D03*
X008580Y013154D03*
X009420Y012994D03*
X009420Y012246D03*
X010180Y012246D03*
X010180Y012994D03*
X010960Y010334D03*
X010960Y009586D03*
X011000Y008734D03*
X011000Y007986D03*
D13*
X004580Y004687D03*
X004206Y005553D03*
X004954Y005553D03*
X007726Y008827D03*
X008474Y008827D03*
X008100Y009693D03*
X014306Y006133D03*
X015054Y006133D03*
X014680Y005267D03*
D14*
X014159Y004506D02*
X013784Y004923D01*
X013041Y004254D02*
X013416Y003837D01*
X008415Y003081D02*
X008270Y002540D01*
X007305Y002799D02*
X007450Y003340D01*
X006243Y003913D02*
X005883Y003484D01*
X005117Y004127D02*
X005477Y004556D01*
D15*
X007105Y005300D03*
X007775Y005300D03*
X005015Y007280D03*
X004345Y007280D03*
X004295Y011780D03*
X003625Y011780D03*
D16*
X004040Y012720D03*
X009760Y002580D03*
X015040Y012300D03*
D17*
X010926Y006560D03*
X009194Y006560D03*
D18*
G36*
X004403Y013306D02*
X005004Y013810D01*
X005409Y013328D01*
X004808Y012824D01*
X004403Y013306D01*
G37*
G36*
X006031Y014672D02*
X006632Y015176D01*
X007037Y014694D01*
X006436Y014190D01*
X006031Y014672D01*
G37*
D19*
X008280Y011769D03*
X008280Y010391D03*
X009300Y009609D03*
X010200Y009609D03*
X010200Y008231D03*
X009300Y008231D03*
D20*
X008192Y004754D03*
X008192Y004380D03*
X008192Y004006D03*
X007168Y004006D03*
X007168Y004754D03*
D21*
X013862Y013020D02*
X014162Y013540D01*
X013296Y014040D02*
X012996Y013520D01*
X012130Y014020D02*
X012430Y014540D01*
X011564Y015040D02*
X011264Y014520D01*
X010398Y015020D02*
X010698Y015540D01*
D22*
X012328Y009929D03*
X012584Y009929D03*
X012840Y009929D03*
X013096Y009929D03*
X013352Y009929D03*
X013608Y009929D03*
X013864Y009929D03*
X014120Y009929D03*
X014376Y009929D03*
X014632Y009929D03*
X014632Y007631D03*
X014376Y007631D03*
X014120Y007631D03*
X013864Y007631D03*
X013608Y007631D03*
X013352Y007631D03*
X013096Y007631D03*
X012840Y007631D03*
X012584Y007631D03*
X012328Y007631D03*
D23*
X012160Y005160D03*
X011400Y005160D03*
X011400Y004200D03*
X011780Y004200D03*
X012160Y004200D03*
D24*
X011908Y006080D03*
X012852Y006080D03*
D25*
X010156Y010489D03*
X010156Y010871D03*
X010156Y011253D03*
X010156Y011635D03*
X009404Y011631D03*
X009404Y011249D03*
X009404Y010867D03*
X009404Y010486D03*
D26*
X005168Y009272D03*
X005168Y009075D03*
X005168Y008878D03*
X005168Y008682D03*
X005168Y008485D03*
X005168Y008288D03*
X003592Y008288D03*
X003592Y008485D03*
X003592Y008682D03*
X003592Y008878D03*
X003592Y009075D03*
X003592Y009272D03*
D27*
X003888Y009568D03*
X004085Y009568D03*
X004282Y009568D03*
X004478Y009568D03*
X004675Y009568D03*
X004872Y009568D03*
X004872Y007992D03*
X004675Y007992D03*
X004478Y007992D03*
X004282Y007992D03*
X004085Y007992D03*
X003888Y007992D03*
D28*
X009780Y005077D03*
X009780Y003483D03*
D29*
X006730Y011286D03*
X006730Y011680D03*
X006730Y012074D03*
X005430Y012074D03*
X005430Y011680D03*
X005430Y011286D03*
D30*
X006080Y011680D03*
D31*
X005506Y006260D02*
X004994Y006260D01*
X004954Y006220D01*
X005853Y005553D02*
X006453Y005553D01*
X006880Y005980D01*
X007580Y005980D01*
X007680Y005880D01*
X007775Y005300D02*
X007780Y005295D01*
X007780Y004480D01*
X007880Y004380D01*
X008192Y004380D01*
X008855Y004380D01*
X008860Y004385D01*
X008860Y005055D02*
X008835Y005080D01*
X008580Y005080D01*
X008583Y005077D01*
X009780Y005077D01*
X010780Y005255D02*
X011305Y005255D01*
X011400Y005160D01*
X011308Y005252D01*
X010875Y004680D02*
X011780Y004680D01*
X011780Y004200D01*
X011400Y004200D02*
X011400Y003500D01*
X011280Y003380D01*
X011980Y003380D01*
X012160Y003560D01*
X012160Y004200D01*
X011280Y003380D02*
X010815Y003380D01*
X010780Y003345D01*
X009780Y003483D02*
X009760Y003463D01*
X009760Y002580D01*
X008192Y004754D02*
X008192Y004892D01*
X008380Y005080D01*
X008580Y005080D01*
X007168Y005237D02*
X007168Y004754D01*
X007042Y004880D01*
X006080Y004880D01*
X007105Y005300D02*
X007168Y005237D01*
D32*
X007775Y005300D02*
X007780Y005305D01*
X007780Y005580D01*
X008880Y005580D01*
X009194Y005894D01*
X009194Y006560D01*
X009380Y006746D01*
X009380Y007180D01*
X010200Y008000D01*
X010200Y008231D01*
X010854Y008880D02*
X009480Y008880D01*
X009300Y008700D01*
X009300Y008231D01*
X008480Y007180D02*
X008080Y007180D01*
X007980Y007180D01*
X007780Y007380D01*
X007780Y008066D01*
X007746Y008100D01*
X007746Y008807D01*
X007726Y008827D01*
X008100Y009693D02*
X008380Y009693D01*
X009216Y009693D01*
X009300Y009609D01*
X010854Y008880D02*
X011000Y008734D01*
X011000Y007986D02*
X011000Y006634D01*
X010926Y006560D01*
X010934Y006554D02*
X010934Y005980D01*
X010934Y005409D01*
X010780Y005255D01*
X010875Y004680D02*
X010780Y004585D01*
X010780Y004015D01*
X010445Y004015D01*
X010280Y004180D01*
X009065Y004180D01*
X008860Y004385D01*
X007780Y005580D02*
X007780Y005780D01*
X007680Y005880D01*
X008280Y006080D02*
X008280Y006434D01*
X008214Y006500D01*
X008480Y007180D02*
X009100Y006560D01*
X009194Y006560D01*
X011380Y005680D02*
X011380Y005180D01*
X011400Y005160D01*
X011380Y005680D02*
X011780Y006080D01*
X011908Y006080D01*
X012780Y006008D02*
X012780Y005280D01*
X012660Y005160D01*
X012160Y005160D01*
X012780Y006008D02*
X012852Y006080D01*
X013972Y004715D02*
X014128Y004715D01*
X014680Y005267D01*
X014306Y006133D02*
X014306Y006800D01*
X015054Y006800D02*
X015054Y006133D01*
X015054Y006800D02*
X015054Y007254D01*
X015380Y007580D01*
X013228Y004045D02*
X012743Y003560D01*
X012160Y003560D01*
X007377Y003069D02*
X006692Y003069D01*
X006063Y003699D01*
X005297Y004341D02*
X004926Y004341D01*
X004580Y004687D01*
X004206Y005553D02*
X004206Y006220D01*
X004954Y006220D02*
X004954Y005553D01*
X005853Y005553D01*
X002980Y009515D02*
X002980Y009980D01*
X003625Y010625D01*
X003625Y011780D01*
X003680Y011835D01*
X003680Y012480D01*
X003920Y012720D01*
X004040Y012720D01*
X005680Y013980D02*
X006383Y014683D01*
X006534Y014683D01*
X006583Y014683D01*
X007180Y015280D01*
X010548Y015280D01*
X010548Y015280D01*
X010548Y014823D01*
X010020Y014295D01*
X010020Y013625D02*
X010020Y013034D01*
X009980Y012994D01*
X010180Y012994D01*
X009980Y012994D02*
X009420Y012994D01*
X009134Y013280D01*
X009134Y014060D01*
D33*
X009480Y013580D03*
X010980Y013780D03*
X011580Y012680D03*
X011980Y012380D03*
X010880Y012180D03*
X010880Y011280D03*
X011180Y010880D03*
X011880Y009180D03*
X012580Y008880D03*
X013080Y008680D03*
X014080Y008380D03*
X015080Y009580D03*
X015280Y010080D03*
X015880Y010180D03*
X015980Y010680D03*
X014380Y010880D03*
X013680Y010680D03*
X013180Y010580D03*
X014280Y012180D03*
X011780Y008380D03*
X011580Y007380D03*
X012180Y007180D03*
X013180Y006980D03*
X013680Y006580D03*
X013680Y006080D03*
X015380Y007580D03*
X010380Y005880D03*
X009080Y005780D03*
X008280Y006080D03*
X007880Y007380D03*
X008880Y007580D03*
X007380Y009380D03*
X006880Y010180D03*
X006280Y009680D03*
X005880Y009180D03*
X005280Y009980D03*
X004980Y010380D03*
X005680Y010680D03*
X004880Y011480D03*
X004880Y011980D03*
X003380Y010780D03*
X004180Y008880D03*
X003480Y007580D03*
X005580Y006980D03*
X006880Y006480D03*
X006980Y007480D03*
X006080Y004880D03*
X010280Y004180D03*
X008880Y010180D03*
X008680Y011180D03*
X007580Y013280D03*
X007380Y013880D03*
X006680Y012480D03*
X005680Y013980D03*
D34*
X005469Y014343D02*
X006249Y014343D01*
X006145Y014255D02*
X006313Y014055D01*
X006351Y014028D01*
X006396Y014012D01*
X006443Y014008D01*
X006490Y014016D01*
X006533Y014036D01*
X006793Y014254D01*
X006525Y014574D01*
X006643Y014674D01*
X006544Y014792D01*
X006924Y015111D01*
X006890Y015152D01*
X007540Y015394D01*
X008460Y015594D01*
X009400Y015662D01*
X010182Y015606D01*
X010142Y015537D01*
X010541Y015307D01*
X010521Y015273D01*
X010122Y015503D01*
X009963Y015227D01*
X009936Y015157D01*
X009921Y015083D01*
X009917Y015008D01*
X009925Y014932D01*
X009944Y014859D01*
X009975Y014790D01*
X010016Y014727D01*
X010067Y014671D01*
X010068Y014670D01*
X010068Y014343D01*
X009972Y014343D01*
X009972Y014731D01*
X009701Y014731D01*
X009655Y014718D01*
X009614Y014695D01*
X009581Y014661D01*
X009557Y014620D01*
X009545Y014574D01*
X009545Y014446D01*
X009456Y014535D01*
X008812Y014535D01*
X008760Y014483D01*
X008708Y014535D01*
X008064Y014535D01*
X007970Y014441D01*
X007970Y014290D01*
X007893Y014290D01*
X007770Y014167D01*
X007693Y014090D01*
X007676Y014090D01*
X007583Y014184D01*
X007451Y014238D01*
X007309Y014238D01*
X007177Y014184D01*
X007076Y014083D01*
X007022Y013951D01*
X007022Y013809D01*
X007076Y013677D01*
X007177Y013576D01*
X007309Y013522D01*
X007315Y013522D01*
X007276Y013483D01*
X007222Y013351D01*
X007222Y013209D01*
X007276Y013077D01*
X007377Y012976D01*
X007440Y012950D01*
X007440Y012779D01*
X007277Y012616D01*
X007240Y012528D01*
X007240Y010179D01*
X006777Y009716D01*
X006740Y009628D01*
X006740Y007746D01*
X006676Y007683D01*
X006622Y007551D01*
X006622Y007409D01*
X006676Y007277D01*
X006777Y007176D01*
X006909Y007122D01*
X007051Y007122D01*
X007183Y007176D01*
X007284Y007277D01*
X007338Y007409D01*
X007338Y007551D01*
X007284Y007683D01*
X007220Y007746D01*
X007220Y009059D01*
X007309Y009022D01*
X007349Y009022D01*
X007349Y008845D01*
X007708Y008845D01*
X007708Y008809D01*
X007349Y008809D01*
X007349Y008529D01*
X007346Y008525D01*
X007322Y008484D01*
X007310Y008439D01*
X007310Y008148D01*
X007698Y008148D01*
X007698Y008371D01*
X007708Y008371D01*
X007708Y008808D01*
X007744Y008808D01*
X007744Y008371D01*
X007794Y008371D01*
X007794Y008148D01*
X007698Y008148D01*
X007698Y008052D01*
X007794Y008052D01*
X007794Y007605D01*
X008026Y007605D01*
X008071Y007617D01*
X008112Y007641D01*
X008134Y007663D01*
X008172Y007625D01*
X008522Y007625D01*
X008522Y007509D01*
X008576Y007377D01*
X008677Y007276D01*
X008809Y007222D01*
X008951Y007222D01*
X009083Y007276D01*
X009184Y007377D01*
X009238Y007509D01*
X009238Y007651D01*
X009187Y007776D01*
X009662Y007776D01*
X009743Y007857D01*
X009761Y007825D01*
X009794Y007792D01*
X009835Y007768D01*
X009881Y007756D01*
X010132Y007756D01*
X010132Y008163D01*
X010268Y008163D01*
X010268Y007756D01*
X010519Y007756D01*
X010525Y007757D01*
X010525Y007664D01*
X010619Y007570D01*
X010680Y007570D01*
X010680Y007035D01*
X010269Y007035D01*
X010176Y006941D01*
X010176Y006182D01*
X010076Y006083D01*
X010022Y005951D01*
X010022Y005809D01*
X010076Y005677D01*
X010162Y005592D01*
X009241Y005592D01*
X009148Y005498D01*
X009148Y005471D01*
X008498Y005471D01*
X008405Y005377D01*
X008405Y005360D01*
X008324Y005360D01*
X008221Y005317D01*
X008156Y005252D01*
X007823Y005252D01*
X007823Y005348D01*
X008211Y005348D01*
X008211Y005619D01*
X008198Y005665D01*
X008175Y005706D01*
X008141Y005739D01*
X008100Y005763D01*
X008054Y005775D01*
X007823Y005775D01*
X007823Y005348D01*
X007727Y005348D01*
X007727Y005775D01*
X007495Y005775D01*
X007449Y005763D01*
X007431Y005752D01*
X007428Y005755D01*
X006783Y005755D01*
X006689Y005662D01*
X006689Y005160D01*
X006306Y005160D01*
X006283Y005184D01*
X006151Y005238D01*
X006009Y005238D01*
X005877Y005184D01*
X005776Y005083D01*
X005722Y004951D01*
X005722Y004925D01*
X005693Y004949D01*
X005526Y005002D01*
X005351Y004987D01*
X005196Y004906D01*
X005022Y004698D01*
X004937Y004783D01*
X004937Y005029D01*
X004868Y005097D01*
X004936Y005097D01*
X004936Y005535D01*
X004577Y005535D01*
X004577Y005254D01*
X004589Y005208D01*
X004613Y005167D01*
X004647Y005133D01*
X004666Y005123D01*
X004474Y005123D01*
X004563Y005211D01*
X004563Y005780D01*
X004566Y005783D01*
X004577Y005771D01*
X004577Y005571D01*
X004936Y005571D01*
X004936Y005535D01*
X004972Y005535D01*
X004972Y005097D01*
X005175Y005097D01*
X005220Y005110D01*
X005261Y005133D01*
X005295Y005167D01*
X005319Y005208D01*
X005331Y005254D01*
X005331Y005535D01*
X004972Y005535D01*
X004972Y005571D01*
X004972Y005572D02*
X004936Y005572D01*
X004936Y006009D01*
X004906Y006009D01*
X004906Y006172D01*
X005002Y006172D01*
X005002Y006009D01*
X004972Y006009D01*
X004972Y005572D01*
X004972Y005571D02*
X005331Y005571D01*
X005331Y005765D01*
X005458Y005765D01*
X005458Y006212D01*
X005554Y006212D01*
X005554Y005765D01*
X005786Y005765D01*
X005831Y005777D01*
X005872Y005801D01*
X005894Y005823D01*
X005932Y005785D01*
X006576Y005785D01*
X006670Y005879D01*
X006670Y006184D01*
X006677Y006176D01*
X006809Y006122D01*
X006951Y006122D01*
X007050Y006163D01*
X007050Y006119D01*
X007144Y006025D01*
X007788Y006025D01*
X007840Y006077D01*
X007892Y006025D01*
X007922Y006025D01*
X007922Y006009D01*
X007976Y005877D01*
X008077Y005776D01*
X008209Y005722D01*
X008351Y005722D01*
X008483Y005776D01*
X008584Y005877D01*
X008638Y006009D01*
X008638Y006065D01*
X009116Y006065D01*
X009116Y006483D01*
X008630Y006483D01*
X008630Y006637D01*
X009116Y006637D01*
X009116Y006483D01*
X009271Y006483D01*
X009271Y006637D01*
X009964Y006637D01*
X009964Y006899D01*
X009952Y006944D01*
X009928Y006985D01*
X009895Y007019D01*
X009854Y007043D01*
X009808Y007055D01*
X009271Y007055D01*
X009271Y006637D01*
X009116Y006637D01*
X009116Y007055D01*
X008580Y007055D01*
X008534Y007043D01*
X008493Y007019D01*
X008459Y006985D01*
X008453Y006975D01*
X007892Y006975D01*
X007840Y006923D01*
X007788Y006975D01*
X007144Y006975D01*
X007050Y006881D01*
X007050Y006797D01*
X006951Y006838D01*
X006809Y006838D01*
X006677Y006784D01*
X006604Y006710D01*
X006601Y006710D01*
X006576Y006735D01*
X005932Y006735D01*
X005894Y006697D01*
X005872Y006719D01*
X005843Y006736D01*
X005884Y006777D01*
X005938Y006909D01*
X005938Y007051D01*
X005906Y007129D01*
X006142Y007129D01*
X006235Y007223D01*
X006235Y007868D01*
X006232Y007871D01*
X006243Y007889D01*
X006255Y007935D01*
X006255Y008167D01*
X005828Y008167D01*
X005828Y008263D01*
X005732Y008263D01*
X005732Y008651D01*
X005536Y008651D01*
X005536Y008682D01*
X005536Y008762D01*
X005531Y008780D01*
X005536Y008798D01*
X005536Y008878D01*
X005471Y008878D01*
X005471Y008878D01*
X005471Y008878D01*
X005536Y008878D01*
X005536Y008959D01*
X005531Y008977D01*
X005536Y008994D01*
X005536Y009075D01*
X005576Y008977D01*
X005677Y008876D01*
X005809Y008822D01*
X005951Y008822D01*
X006083Y008876D01*
X006184Y008977D01*
X006238Y009109D01*
X006238Y009251D01*
X006209Y009322D01*
X006351Y009322D01*
X006483Y009376D01*
X006584Y009477D01*
X006638Y009609D01*
X006638Y009751D01*
X006584Y009883D01*
X006490Y009976D01*
X006490Y010167D01*
X006367Y010290D01*
X006038Y010619D01*
X006038Y010751D01*
X005984Y010883D01*
X005937Y010929D01*
X006442Y010929D01*
X006535Y011023D01*
X006535Y011048D01*
X007032Y011048D01*
X007126Y011141D01*
X007126Y011431D01*
X007088Y011469D01*
X007110Y011491D01*
X007134Y011532D01*
X007146Y011578D01*
X007146Y011680D01*
X007146Y011782D01*
X007134Y011828D01*
X007110Y011869D01*
X007088Y011891D01*
X007126Y011929D01*
X007126Y012219D01*
X007032Y012312D01*
X006998Y012312D01*
X007038Y012409D01*
X007038Y012551D01*
X006984Y012683D01*
X006883Y012784D01*
X006751Y012838D01*
X006609Y012838D01*
X006477Y012784D01*
X006376Y012683D01*
X006322Y012551D01*
X006322Y012431D01*
X005718Y012431D01*
X005625Y012337D01*
X005625Y012312D01*
X005128Y012312D01*
X005099Y012284D01*
X005083Y012284D01*
X004951Y012338D01*
X004935Y012338D01*
X004990Y012393D01*
X004990Y012767D01*
X005563Y013249D01*
X005575Y013381D01*
X005085Y013965D01*
X005000Y013972D01*
X005077Y014049D01*
X005831Y014614D01*
X005855Y014627D01*
X005857Y014617D01*
X005877Y014574D01*
X006045Y014374D01*
X006425Y014693D01*
X006525Y014574D01*
X006145Y014255D01*
X006204Y014185D02*
X005258Y014185D01*
X005166Y013868D02*
X007022Y013868D01*
X007053Y014026D02*
X006512Y014026D01*
X006356Y014026D02*
X005054Y014026D01*
X005299Y013709D02*
X007063Y013709D01*
X007240Y013551D02*
X005432Y013551D01*
X005565Y013392D02*
X007239Y013392D01*
X007222Y013234D02*
X005545Y013234D01*
X005357Y013075D02*
X007279Y013075D01*
X007440Y012917D02*
X005168Y012917D01*
X004990Y012758D02*
X006452Y012758D01*
X006342Y012600D02*
X004990Y012600D01*
X004990Y012441D02*
X006322Y012441D01*
X006908Y012758D02*
X007419Y012758D01*
X007270Y012600D02*
X007018Y012600D01*
X007038Y012441D02*
X007240Y012441D01*
X007240Y012283D02*
X007062Y012283D01*
X007126Y012124D02*
X007240Y012124D01*
X007240Y011966D02*
X007126Y011966D01*
X007139Y011807D02*
X007240Y011807D01*
X007146Y011680D02*
X006730Y011680D01*
X006730Y011680D01*
X007146Y011680D01*
X007146Y011649D02*
X007240Y011649D01*
X007240Y011490D02*
X007109Y011490D01*
X007126Y011332D02*
X007240Y011332D01*
X007240Y011173D02*
X007126Y011173D01*
X007240Y011015D02*
X006527Y011015D01*
X006730Y011525D02*
X006730Y011680D01*
X006730Y011525D01*
X006730Y011525D01*
X006730Y011649D02*
X006730Y011649D01*
X006730Y011680D02*
X006730Y011680D01*
X006730Y011835D01*
X006730Y011835D01*
X006730Y011680D01*
X006730Y011680D01*
X006535Y011680D01*
X006535Y011680D01*
X006730Y011680D01*
X006730Y011680D01*
X006730Y011807D02*
X006730Y011807D01*
X007480Y012480D02*
X007680Y012680D01*
X007680Y013180D01*
X007580Y013280D01*
X007480Y012480D02*
X007480Y010080D01*
X006980Y009580D01*
X006980Y007480D01*
X006743Y007211D02*
X006223Y007211D01*
X006235Y007369D02*
X006638Y007369D01*
X006622Y007528D02*
X006235Y007528D01*
X006235Y007686D02*
X006680Y007686D01*
X006740Y007845D02*
X006235Y007845D01*
X006380Y007880D02*
X006380Y007080D01*
X006480Y006980D01*
X007880Y006980D01*
X008080Y007180D01*
X008522Y007528D02*
X007338Y007528D01*
X007380Y007641D02*
X007421Y007617D01*
X007466Y007605D01*
X007698Y007605D01*
X007698Y008052D01*
X007310Y008052D01*
X007310Y007761D01*
X007322Y007716D01*
X007346Y007675D01*
X007380Y007641D01*
X007339Y007686D02*
X007280Y007686D01*
X007310Y007845D02*
X007220Y007845D01*
X007220Y008003D02*
X007310Y008003D01*
X007310Y008162D02*
X007220Y008162D01*
X007220Y008320D02*
X007310Y008320D01*
X007321Y008479D02*
X007220Y008479D01*
X007220Y008637D02*
X007349Y008637D01*
X007349Y008796D02*
X007220Y008796D01*
X007220Y008954D02*
X007349Y008954D01*
X007708Y008954D02*
X007744Y008954D01*
X007744Y008845D02*
X007708Y008845D01*
X007708Y009235D01*
X007738Y009309D01*
X007738Y009441D01*
X007743Y009446D01*
X007743Y009351D01*
X007812Y009283D01*
X007744Y009283D01*
X007744Y008845D01*
X008103Y008845D01*
X008103Y009126D01*
X008091Y009172D01*
X008067Y009213D01*
X008033Y009247D01*
X008014Y009257D01*
X008206Y009257D01*
X008117Y009169D01*
X008117Y008554D01*
X008112Y008559D01*
X008103Y008565D01*
X008103Y008809D01*
X007744Y008809D01*
X007744Y008845D01*
X007744Y008796D02*
X007708Y008796D01*
X007708Y008637D02*
X007744Y008637D01*
X007744Y008479D02*
X007708Y008479D01*
X007698Y008320D02*
X007794Y008320D01*
X007794Y008162D02*
X007698Y008162D01*
X007698Y008003D02*
X007794Y008003D01*
X007794Y007845D02*
X007698Y007845D01*
X007698Y007686D02*
X007794Y007686D01*
X007322Y007369D02*
X008585Y007369D01*
X008569Y007052D02*
X005938Y007052D01*
X005932Y006894D02*
X007062Y006894D01*
X007217Y007211D02*
X010680Y007211D01*
X010680Y007369D02*
X009175Y007369D01*
X009238Y007528D02*
X010680Y007528D01*
X010525Y007686D02*
X009224Y007686D01*
X009730Y007845D02*
X009750Y007845D01*
X010132Y007845D02*
X010268Y007845D01*
X010268Y008003D02*
X010132Y008003D01*
X010132Y008162D02*
X010268Y008162D01*
X010680Y007052D02*
X009819Y007052D01*
X009964Y006894D02*
X010176Y006894D01*
X010176Y006735D02*
X009964Y006735D01*
X009964Y006483D02*
X009271Y006483D01*
X009271Y006065D01*
X009808Y006065D01*
X009854Y006077D01*
X009895Y006101D01*
X010095Y006101D01*
X009952Y006176D02*
X009928Y006135D01*
X009895Y006101D01*
X009952Y006176D02*
X009964Y006221D01*
X009964Y006483D01*
X009964Y006418D02*
X010176Y006418D01*
X010176Y006260D02*
X009964Y006260D01*
X010022Y005943D02*
X008611Y005943D01*
X008490Y005784D02*
X010032Y005784D01*
X010128Y005626D02*
X008209Y005626D01*
X008211Y005467D02*
X008495Y005467D01*
X008213Y005309D02*
X007823Y005309D01*
X007823Y005252D02*
X007823Y004956D01*
X007796Y004929D01*
X007796Y004579D01*
X007799Y004576D01*
X007788Y004558D01*
X007776Y004512D01*
X007776Y004424D01*
X007564Y004635D01*
X007564Y004825D01*
X007727Y004825D01*
X007727Y005252D01*
X007823Y005252D01*
X007823Y005150D02*
X007727Y005150D01*
X007727Y004992D02*
X007823Y004992D01*
X007796Y004833D02*
X007727Y004833D01*
X007796Y004675D02*
X007564Y004675D01*
X007683Y004516D02*
X007777Y004516D01*
X007819Y004380D02*
X008192Y004380D01*
X008608Y004380D01*
X008608Y004433D01*
X008812Y004433D01*
X008812Y004337D01*
X008908Y004337D01*
X008908Y003949D01*
X009179Y003949D01*
X009199Y003955D01*
X009148Y003903D01*
X009148Y003062D01*
X009241Y002968D01*
X009321Y002968D01*
X009175Y002822D01*
X009175Y002474D01*
X008717Y002507D01*
X008863Y003052D01*
X008840Y003225D01*
X008753Y003377D01*
X008720Y003402D01*
X008720Y003428D01*
X008683Y003516D01*
X008616Y003583D01*
X008462Y003738D01*
X008494Y003738D01*
X008588Y003831D01*
X008588Y003949D01*
X008812Y003949D01*
X008812Y004337D01*
X008608Y004337D01*
X008608Y004380D01*
X008192Y004380D01*
X008192Y004380D01*
X008192Y004474D01*
X008192Y004474D01*
X008192Y004380D01*
X008192Y004380D01*
X008192Y004274D01*
X008192Y004274D01*
X008192Y004380D01*
X008192Y004380D01*
X007819Y004380D01*
X007819Y004380D01*
X007680Y004180D02*
X007680Y003880D01*
X007980Y003580D01*
X008280Y003580D01*
X008480Y003380D01*
X008480Y002948D01*
X008343Y002811D01*
X008788Y002773D02*
X009175Y002773D01*
X009175Y002614D02*
X008746Y002614D01*
X008831Y002931D02*
X009284Y002931D01*
X009148Y003090D02*
X008858Y003090D01*
X008827Y003248D02*
X009148Y003248D01*
X009148Y003407D02*
X008720Y003407D01*
X008634Y003565D02*
X009148Y003565D01*
X009148Y003724D02*
X008476Y003724D01*
X008588Y003882D02*
X009148Y003882D01*
X009277Y003997D02*
X009299Y004019D01*
X009323Y004060D01*
X009335Y004106D01*
X009335Y004337D01*
X008908Y004337D01*
X008908Y004433D01*
X009335Y004433D01*
X009335Y004563D01*
X010319Y004563D01*
X010389Y004633D01*
X010732Y004633D01*
X010732Y004537D01*
X010828Y004537D01*
X010828Y004063D01*
X010732Y004063D01*
X010732Y004149D01*
X010732Y004537D01*
X010305Y004537D01*
X010305Y004306D01*
X010306Y004300D01*
X010305Y004294D01*
X010305Y004063D01*
X010732Y004063D01*
X010732Y003967D01*
X010349Y003967D01*
X010319Y003997D01*
X009277Y003997D01*
X009312Y004041D02*
X010732Y004041D01*
X010732Y004199D02*
X010828Y004199D01*
X010828Y004358D02*
X010732Y004358D01*
X010732Y004516D02*
X010828Y004516D01*
X010828Y004537D02*
X010828Y004633D01*
X011255Y004633D01*
X011255Y004750D01*
X011576Y004750D01*
X011670Y004844D01*
X011670Y004977D01*
X011671Y004979D01*
X011720Y005096D01*
X011720Y005224D01*
X011700Y005272D01*
X011700Y005369D01*
X011890Y005369D01*
X011890Y005343D01*
X011889Y005341D01*
X011840Y005224D01*
X011840Y005096D01*
X011889Y004979D01*
X011890Y004977D01*
X011890Y004844D01*
X011984Y004750D01*
X012336Y004750D01*
X012426Y004840D01*
X012724Y004840D01*
X012841Y004889D01*
X012961Y005009D01*
X013051Y005099D01*
X013100Y005216D01*
X013100Y005369D01*
X013194Y005369D01*
X013288Y005463D01*
X013288Y006637D01*
X013322Y006651D01*
X013322Y006509D01*
X013376Y006377D01*
X013424Y006330D01*
X013376Y006283D01*
X013322Y006151D01*
X013322Y006009D01*
X013376Y005877D01*
X013477Y005776D01*
X013609Y005722D01*
X013751Y005722D01*
X013883Y005776D01*
X013949Y005843D01*
X013949Y005791D01*
X014043Y005697D01*
X014412Y005697D01*
X014323Y005609D01*
X014323Y005363D01*
X014143Y005182D01*
X014053Y005282D01*
X013895Y005357D01*
X013720Y005367D01*
X013555Y005308D01*
X013425Y005191D01*
X013349Y005033D01*
X013340Y004858D01*
X013399Y004693D01*
X013847Y004195D01*
X013762Y004110D01*
X013309Y004613D01*
X013151Y004688D01*
X012977Y004697D01*
X012812Y004639D01*
X012682Y004522D01*
X012606Y004364D01*
X012597Y004189D01*
X012656Y004024D01*
X012702Y003972D01*
X012610Y003880D01*
X012440Y003880D01*
X012440Y004256D01*
X012430Y004280D01*
X012430Y004516D01*
X012679Y004516D01*
X012606Y004358D02*
X012430Y004358D01*
X012430Y004516D02*
X012336Y004610D01*
X011984Y004610D01*
X011980Y004606D01*
X011959Y004618D01*
X011914Y004630D01*
X011780Y004630D01*
X011780Y004200D01*
X011780Y004200D01*
X011780Y004630D01*
X011646Y004630D01*
X011601Y004618D01*
X011580Y004606D01*
X011576Y004610D01*
X011224Y004610D01*
X011151Y004537D01*
X010828Y004537D01*
X011255Y004675D02*
X012912Y004675D01*
X012944Y004992D02*
X013347Y004992D01*
X013349Y004833D02*
X012419Y004833D01*
X011901Y004833D02*
X011659Y004833D01*
X011677Y004992D02*
X011883Y004992D01*
X011840Y005150D02*
X011720Y005150D01*
X011700Y005309D02*
X011875Y005309D01*
X011780Y004516D02*
X011780Y004516D01*
X011780Y004358D02*
X011780Y004358D01*
X011780Y004200D02*
X011780Y003770D01*
X011880Y003770D01*
X011880Y003720D01*
X011855Y003660D01*
X011680Y003660D01*
X011680Y003770D01*
X011780Y003770D01*
X011780Y004200D01*
X011780Y004200D01*
X011780Y004199D02*
X011780Y004199D01*
X011780Y004041D02*
X011780Y004041D01*
X011780Y003882D02*
X011780Y003882D01*
X011680Y003724D02*
X011880Y003724D01*
X012440Y003882D02*
X012612Y003882D01*
X012650Y004041D02*
X012440Y004041D01*
X012440Y004199D02*
X012598Y004199D01*
X013180Y004675D02*
X013416Y004675D01*
X013397Y004516D02*
X013558Y004516D01*
X013540Y004358D02*
X013701Y004358D01*
X013682Y004199D02*
X013844Y004199D01*
X013405Y005150D02*
X013073Y005150D01*
X013100Y005309D02*
X013556Y005309D01*
X013288Y005467D02*
X014323Y005467D01*
X014340Y005626D02*
X013288Y005626D01*
X013288Y005784D02*
X013470Y005784D01*
X013349Y005943D02*
X013288Y005943D01*
X013288Y006101D02*
X013322Y006101D01*
X013288Y006260D02*
X013367Y006260D01*
X013359Y006418D02*
X013288Y006418D01*
X013288Y006577D02*
X013322Y006577D01*
X013608Y006652D02*
X013680Y006580D01*
X013608Y006652D02*
X013608Y007631D01*
X013608Y009929D01*
X013352Y009929D02*
X013352Y009554D01*
X013352Y009929D01*
X013352Y008952D01*
X013080Y008680D01*
X012933Y008796D02*
X013368Y008796D01*
X013368Y008954D02*
X012951Y008954D01*
X012938Y008941D02*
X013306Y009309D01*
X013306Y009554D01*
X013352Y009554D01*
X013368Y009554D01*
X013368Y008289D01*
X013367Y008290D01*
X012967Y008290D01*
X012711Y008546D01*
X012783Y008576D01*
X012884Y008677D01*
X012938Y008809D01*
X012938Y008941D01*
X013109Y009113D02*
X013368Y009113D01*
X013368Y009271D02*
X013268Y009271D01*
X013306Y009430D02*
X013368Y009430D01*
X013352Y009588D02*
X013352Y009588D01*
X013352Y009747D02*
X013352Y009747D01*
X013352Y009905D02*
X013352Y009905D01*
X013352Y009929D02*
X013352Y009929D01*
X012886Y009574D02*
X012886Y009483D01*
X012641Y009238D01*
X012509Y009238D01*
X012377Y009184D01*
X012276Y009083D01*
X012238Y008990D01*
X011690Y008990D01*
X011690Y009467D01*
X011567Y009590D01*
X011490Y009667D01*
X011435Y009722D01*
X011435Y009908D01*
X011383Y009960D01*
X011435Y010012D01*
X011435Y010249D01*
X012118Y010249D01*
X012118Y010200D01*
X012108Y010190D01*
X012108Y009667D01*
X012202Y009574D01*
X012455Y009574D01*
X012456Y009575D01*
X012458Y009574D01*
X012711Y009574D01*
X012712Y009575D01*
X012714Y009574D01*
X012886Y009574D01*
X012833Y009430D02*
X011690Y009430D01*
X011690Y009271D02*
X012674Y009271D01*
X012306Y009113D02*
X011690Y009113D01*
X011569Y009588D02*
X012188Y009588D01*
X012108Y009747D02*
X011435Y009747D01*
X011435Y009905D02*
X012108Y009905D01*
X012108Y010064D02*
X011435Y010064D01*
X011435Y010222D02*
X012118Y010222D01*
X012089Y010489D02*
X012180Y010580D01*
X012180Y011480D01*
X011825Y011835D01*
X011580Y011835D01*
X011280Y012135D01*
X011280Y012380D01*
X010680Y012980D01*
X010280Y012980D01*
X010266Y012994D01*
X010180Y012994D01*
X010180Y012980D02*
X010280Y012980D01*
X010475Y013410D02*
X010475Y013948D01*
X010472Y013951D01*
X010483Y013969D01*
X010495Y014015D01*
X010495Y014247D01*
X010068Y014247D01*
X010068Y014343D01*
X009972Y014343D01*
X010020Y014295D02*
X010035Y014280D01*
X010380Y014280D01*
X010580Y014080D01*
X010580Y013480D01*
X010880Y013180D01*
X011406Y013180D01*
X011480Y013106D01*
X011480Y012680D01*
X011580Y012680D01*
X011686Y012685D02*
X011731Y012697D01*
X011770Y012720D01*
X011770Y012676D01*
X011676Y012583D01*
X011622Y012451D01*
X011622Y012309D01*
X011646Y012251D01*
X011520Y012251D01*
X011520Y012428D01*
X011483Y012516D01*
X011416Y012583D01*
X011314Y012685D01*
X011358Y012685D01*
X011358Y013132D01*
X011454Y013132D01*
X011454Y012685D01*
X011686Y012685D01*
X011693Y012600D02*
X011400Y012600D01*
X011358Y012758D02*
X011454Y012758D01*
X011454Y012917D02*
X011358Y012917D01*
X011358Y013075D02*
X011454Y013075D01*
X011358Y013132D02*
X010970Y013132D01*
X010970Y013029D01*
X010816Y013183D01*
X010728Y013220D01*
X010655Y013220D01*
X010655Y013316D01*
X010561Y013410D01*
X010475Y013410D01*
X010579Y013392D02*
X010970Y013392D01*
X010970Y013422D02*
X010970Y013228D01*
X011358Y013228D01*
X011358Y013132D01*
X010970Y013075D02*
X010924Y013075D01*
X010970Y013234D02*
X010655Y013234D01*
X010777Y013476D02*
X010909Y013422D01*
X010970Y013422D01*
X010777Y013476D02*
X010676Y013577D01*
X010622Y013709D01*
X010475Y013709D01*
X010622Y013709D02*
X010622Y013851D01*
X010676Y013983D01*
X010777Y014084D01*
X010909Y014138D01*
X011006Y014138D01*
X010955Y014168D01*
X010843Y014313D01*
X010796Y014490D01*
X010820Y014671D01*
X011211Y015349D01*
X011267Y015392D01*
X011260Y015394D01*
X011162Y015415D01*
X011160Y015403D01*
X011133Y015333D01*
X010974Y015057D01*
X010575Y015287D01*
X010555Y015253D01*
X010954Y015023D01*
X010795Y014747D01*
X010747Y014689D01*
X010691Y014638D01*
X010628Y014597D01*
X010559Y014566D01*
X010495Y014549D01*
X010495Y014343D01*
X010835Y014343D01*
X010798Y014502D02*
X010495Y014502D01*
X010495Y014343D02*
X010068Y014343D01*
X010068Y014502D02*
X009972Y014502D01*
X009972Y014660D02*
X010068Y014660D01*
X009962Y014819D02*
X007170Y014819D01*
X007191Y014793D02*
X007024Y014993D01*
X006643Y014674D01*
X006912Y014354D01*
X007172Y014572D01*
X007199Y014611D01*
X007216Y014656D01*
X007220Y014703D01*
X007211Y014750D01*
X007191Y014793D01*
X007216Y014660D02*
X009580Y014660D01*
X009545Y014502D02*
X009490Y014502D01*
X009920Y014977D02*
X007037Y014977D01*
X007005Y014977D02*
X006764Y014977D01*
X006816Y014819D02*
X006575Y014819D01*
X006627Y014660D02*
X006655Y014660D01*
X006586Y014502D02*
X006788Y014502D01*
X006719Y014343D02*
X007970Y014343D01*
X008030Y014502D02*
X007088Y014502D01*
X007179Y014185D02*
X006710Y014185D01*
X006438Y014502D02*
X006197Y014502D01*
X006386Y014660D02*
X006453Y014660D01*
X005938Y014502D02*
X005681Y014502D01*
X006904Y015136D02*
X009932Y015136D01*
X010002Y015294D02*
X007272Y015294D01*
X007808Y015453D02*
X010093Y015453D01*
X010209Y015453D02*
X010289Y015453D01*
X010107Y015611D02*
X008693Y015611D01*
X008742Y014502D02*
X008778Y014502D01*
X009480Y013580D02*
X009480Y013054D01*
X009420Y012994D01*
X009260Y013154D01*
X008580Y013154D01*
X008554Y013180D01*
X008580Y012406D02*
X008280Y012106D01*
X008280Y011769D01*
X007240Y010856D02*
X005995Y010856D01*
X006038Y010698D02*
X007240Y010698D01*
X007240Y010539D02*
X006118Y010539D01*
X006276Y010381D02*
X007240Y010381D01*
X007240Y010222D02*
X006435Y010222D01*
X006490Y010064D02*
X007124Y010064D01*
X006966Y009905D02*
X006561Y009905D01*
X006638Y009747D02*
X006807Y009747D01*
X006740Y009588D02*
X006630Y009588D01*
X006536Y009430D02*
X006740Y009430D01*
X006740Y009271D02*
X006230Y009271D01*
X006238Y009113D02*
X006740Y009113D01*
X006740Y008954D02*
X006160Y008954D01*
X006099Y008651D02*
X005828Y008651D01*
X005828Y008263D01*
X006255Y008263D01*
X006255Y008494D01*
X006243Y008540D01*
X006219Y008581D01*
X006186Y008615D01*
X006145Y008638D01*
X006099Y008651D01*
X006147Y008637D02*
X006740Y008637D01*
X006740Y008479D02*
X006255Y008479D01*
X006255Y008320D02*
X006740Y008320D01*
X006740Y008162D02*
X006255Y008162D01*
X006255Y008003D02*
X006740Y008003D01*
X006380Y007880D02*
X006045Y008215D01*
X005780Y008215D01*
X005780Y008780D01*
X005680Y008880D01*
X005167Y008880D01*
X005168Y008878D01*
X005168Y008878D01*
X005168Y008838D01*
X005168Y008722D01*
X005168Y008682D01*
X005168Y008682D01*
X005168Y008878D01*
X004682Y008878D01*
X004580Y008980D01*
X004580Y009473D01*
X004675Y009568D01*
X004655Y009568D02*
X004499Y009568D01*
X004499Y009568D01*
X004655Y009568D01*
X004655Y009568D01*
X004580Y009670D02*
X004478Y009568D01*
X004580Y009670D02*
X004580Y009880D01*
X004480Y009980D01*
X003380Y009980D01*
X002980Y009580D01*
X002980Y009515D01*
X003028Y009467D02*
X003028Y009563D01*
X002932Y009563D01*
X002932Y009951D01*
X002862Y009951D01*
X002866Y010000D01*
X003066Y010920D01*
X003233Y011367D01*
X003259Y011341D01*
X003300Y011317D01*
X003346Y011305D01*
X003577Y011305D01*
X003577Y011732D01*
X003673Y011732D01*
X003673Y011305D01*
X003745Y011305D01*
X003745Y010852D01*
X003797Y010800D01*
X003745Y010748D01*
X003745Y010104D01*
X003839Y010010D01*
X004601Y010010D01*
X004695Y010104D01*
X004695Y010159D01*
X004777Y010076D01*
X004909Y010022D01*
X004922Y010022D01*
X004922Y009919D01*
X004919Y009916D01*
X004815Y009916D01*
X004802Y009924D01*
X004756Y009936D01*
X004675Y009936D01*
X004594Y009936D01*
X004577Y009931D01*
X004559Y009936D01*
X004478Y009936D01*
X004398Y009936D01*
X004352Y009924D01*
X004338Y009916D01*
X003765Y009916D01*
X003671Y009822D01*
X003671Y009489D01*
X003338Y009489D01*
X003315Y009467D01*
X003028Y009467D01*
X003028Y009563D02*
X003455Y009563D01*
X003455Y009794D01*
X003443Y009840D01*
X003419Y009881D01*
X003386Y009915D01*
X003345Y009938D01*
X003299Y009951D01*
X003028Y009951D01*
X003028Y009563D01*
X003028Y009588D02*
X002932Y009588D01*
X002932Y009747D02*
X003028Y009747D01*
X003028Y009905D02*
X002932Y009905D01*
X002880Y010064D02*
X003785Y010064D01*
X003754Y009905D02*
X003395Y009905D01*
X003455Y009747D02*
X003671Y009747D01*
X003671Y009588D02*
X003455Y009588D01*
X003745Y010222D02*
X002914Y010222D01*
X002948Y010381D02*
X003745Y010381D01*
X003745Y010539D02*
X002983Y010539D01*
X003017Y010698D02*
X003745Y010698D01*
X003745Y010856D02*
X003052Y010856D01*
X003101Y011015D02*
X003745Y011015D01*
X003745Y011173D02*
X003160Y011173D01*
X003219Y011332D02*
X003275Y011332D01*
X003577Y011332D02*
X003673Y011332D01*
X003673Y011490D02*
X003577Y011490D01*
X003577Y011649D02*
X003673Y011649D01*
X003877Y012670D02*
X003990Y012670D01*
X003990Y012770D01*
X003952Y012770D01*
X003877Y012670D01*
X003943Y012758D02*
X003990Y012758D01*
X004655Y010064D02*
X004808Y010064D01*
X004675Y009936D02*
X004675Y009871D01*
X004675Y009936D01*
X004675Y009905D02*
X004675Y009905D01*
X004675Y009871D02*
X004675Y009871D01*
X004478Y009871D02*
X004478Y009936D01*
X004478Y009871D01*
X004478Y009871D01*
X004478Y009905D02*
X004478Y009905D01*
X004675Y009266D02*
X004675Y009200D01*
X004675Y009266D01*
X004675Y009266D01*
X004675Y009200D02*
X004594Y009200D01*
X004577Y009205D01*
X004559Y009200D01*
X004492Y009200D01*
X004492Y009064D01*
X004538Y008951D01*
X004538Y008809D01*
X004484Y008677D01*
X004383Y008576D01*
X004251Y008522D01*
X004109Y008522D01*
X003977Y008576D01*
X003940Y008614D01*
X003940Y008340D01*
X004800Y008340D01*
X004800Y008369D01*
X004805Y008386D01*
X004800Y008404D01*
X004800Y008485D01*
X004866Y008485D01*
X004866Y008485D01*
X004866Y008485D01*
X004800Y008485D01*
X004800Y008566D01*
X004805Y008583D01*
X004800Y008601D01*
X004800Y008682D01*
X004866Y008682D01*
X004866Y008682D01*
X004866Y008682D01*
X004800Y008682D01*
X004800Y008762D01*
X004805Y008780D01*
X004800Y008798D01*
X004800Y008878D01*
X004866Y008878D01*
X004866Y008878D01*
X004866Y008878D01*
X004800Y008878D01*
X004800Y008959D01*
X004805Y008977D01*
X004800Y008994D01*
X004800Y009075D01*
X004866Y009075D01*
X004866Y009075D01*
X004800Y009075D01*
X004800Y009156D01*
X004813Y009202D01*
X004820Y009215D01*
X004820Y009220D01*
X004815Y009220D01*
X004802Y009213D01*
X004756Y009200D01*
X004675Y009200D01*
X004800Y009113D02*
X004492Y009113D01*
X004537Y008954D02*
X004800Y008954D01*
X004801Y008796D02*
X004533Y008796D01*
X004443Y008637D02*
X004800Y008637D01*
X004800Y008479D02*
X003940Y008479D01*
X003480Y007580D02*
X002980Y008080D01*
X002980Y008845D01*
X004980Y008880D02*
X005167Y008880D01*
X005168Y008878D02*
X005168Y009055D01*
X005168Y009055D01*
X005168Y008878D01*
X005168Y008878D01*
X005168Y008954D02*
X005168Y008954D01*
X005168Y008796D02*
X005168Y008796D01*
X005168Y008682D02*
X005168Y008525D01*
X005168Y008485D01*
X005168Y008485D01*
X005168Y008682D01*
X005168Y008682D01*
X005168Y008637D02*
X005168Y008637D01*
X005168Y008485D02*
X005168Y008288D01*
X005168Y008288D01*
X005168Y008485D01*
X005168Y008485D01*
X005168Y008479D02*
X005168Y008479D01*
X005168Y008320D02*
X005168Y008320D01*
X005471Y008682D02*
X005471Y008682D01*
X005536Y008682D01*
X005471Y008682D01*
X005471Y008682D01*
X005535Y008796D02*
X006740Y008796D01*
X005828Y008637D02*
X005732Y008637D01*
X005732Y008479D02*
X005828Y008479D01*
X005828Y008320D02*
X005732Y008320D01*
X005600Y008954D02*
X005536Y008954D01*
X005845Y006735D02*
X006629Y006735D01*
X006670Y006101D02*
X007068Y006101D01*
X006670Y005943D02*
X007949Y005943D01*
X008070Y005784D02*
X005843Y005784D01*
X005554Y005784D02*
X005458Y005784D01*
X005458Y005943D02*
X005554Y005943D01*
X005554Y006101D02*
X005458Y006101D01*
X005458Y006212D02*
X005070Y006212D01*
X005070Y006172D01*
X005002Y006172D01*
X005002Y006268D01*
X005390Y006268D01*
X005390Y006308D01*
X005458Y006308D01*
X005458Y006212D01*
X005458Y006260D02*
X005002Y006260D01*
X005002Y006101D02*
X004906Y006101D01*
X004936Y005943D02*
X004972Y005943D01*
X004972Y005784D02*
X004936Y005784D01*
X004936Y005626D02*
X004972Y005626D01*
X004972Y005467D02*
X004936Y005467D01*
X004936Y005309D02*
X004972Y005309D01*
X004972Y005150D02*
X004936Y005150D01*
X004937Y004992D02*
X005408Y004992D01*
X005559Y004992D02*
X005739Y004992D01*
X005844Y005150D02*
X005278Y005150D01*
X005331Y005309D02*
X006689Y005309D01*
X006689Y005467D02*
X005331Y005467D01*
X005331Y005626D02*
X006689Y005626D01*
X007168Y004754D02*
X007168Y004692D01*
X007680Y004180D01*
X008192Y004358D02*
X008192Y004358D01*
X008192Y004380D02*
X008192Y004380D01*
X008608Y004358D02*
X008812Y004358D01*
X008908Y004358D02*
X010305Y004358D01*
X010305Y004516D02*
X009335Y004516D01*
X009335Y004199D02*
X010305Y004199D01*
X008908Y004199D02*
X008812Y004199D01*
X008812Y004041D02*
X008908Y004041D01*
X007823Y005467D02*
X007727Y005467D01*
X007727Y005626D02*
X007823Y005626D01*
X008630Y006577D02*
X009116Y006577D01*
X009271Y006577D02*
X010176Y006577D01*
X010380Y005880D02*
X010834Y005880D01*
X010934Y005980D01*
X009271Y006101D02*
X009116Y006101D01*
X009116Y006260D02*
X009271Y006260D01*
X009271Y006418D02*
X009116Y006418D01*
X009116Y006735D02*
X009271Y006735D01*
X009271Y006894D02*
X009116Y006894D01*
X009116Y007052D02*
X009271Y007052D01*
X008117Y008637D02*
X008103Y008637D01*
X008103Y008796D02*
X008117Y008796D01*
X008103Y008954D02*
X008117Y008954D01*
X008103Y009113D02*
X008117Y009113D01*
X007744Y009113D02*
X007708Y009113D01*
X007722Y009271D02*
X007744Y009271D01*
X007738Y009430D02*
X007743Y009430D01*
X008280Y009793D02*
X008380Y009693D01*
X008280Y009793D02*
X008280Y010391D01*
X009404Y010486D02*
X009404Y010867D01*
X010156Y010871D02*
X011071Y010871D01*
X011180Y010880D01*
X011295Y010880D01*
X011580Y011165D01*
X011628Y011117D02*
X011628Y010729D01*
X011899Y010729D01*
X011940Y010740D01*
X011940Y010729D01*
X011362Y010729D01*
X011362Y010729D01*
X011532Y010729D01*
X011532Y011117D01*
X011628Y011117D01*
X011628Y011015D02*
X011532Y011015D01*
X011532Y010856D02*
X011628Y010856D01*
X011201Y010750D02*
X010604Y010750D01*
X010604Y010871D01*
X010156Y010871D01*
X010156Y010871D01*
X010604Y010871D01*
X010604Y011037D01*
X010599Y011055D01*
X010677Y010976D01*
X010809Y010922D01*
X010951Y010922D01*
X011083Y010976D01*
X011105Y010998D01*
X011105Y010886D01*
X011117Y010840D01*
X011141Y010799D01*
X011174Y010765D01*
X011201Y010750D01*
X011113Y010856D02*
X010604Y010856D01*
X010604Y011015D02*
X010639Y011015D01*
X010805Y010489D02*
X010156Y010489D01*
X012089Y010489D01*
X010960Y010334D02*
X010805Y010489D01*
X010180Y010465D02*
X010156Y010489D01*
X010156Y011635D02*
X010735Y011635D01*
X010880Y011780D01*
X011525Y011780D01*
X011580Y011835D01*
X011633Y012283D02*
X011520Y012283D01*
X011514Y012441D02*
X011622Y012441D01*
X010703Y013551D02*
X010475Y013551D01*
X010475Y013868D02*
X010629Y013868D01*
X010720Y014026D02*
X010495Y014026D01*
X010495Y014185D02*
X010942Y014185D01*
X011080Y013880D02*
X010980Y013780D01*
X011080Y013880D02*
X011380Y013880D01*
X011580Y014080D01*
X011980Y014780D01*
X012280Y015080D01*
X012680Y015080D01*
X013146Y014614D01*
X013146Y013780D01*
X011180Y015294D02*
X011110Y015294D01*
X011088Y015136D02*
X011019Y015136D01*
X010997Y014977D02*
X010927Y014977D01*
X010905Y014819D02*
X010836Y014819D01*
X010818Y014660D02*
X010715Y014660D01*
X010758Y015136D02*
X010838Y015136D01*
X010533Y015294D02*
X010484Y015294D01*
X007788Y014185D02*
X007581Y014185D01*
X012843Y008637D02*
X013368Y008637D01*
X013368Y008479D02*
X012778Y008479D01*
X012937Y008320D02*
X013368Y008320D01*
X014777Y007295D02*
X014852Y007370D01*
X014852Y007893D01*
X014842Y007903D01*
X014842Y008745D01*
X014967Y008870D01*
X015267Y008870D01*
X015767Y009370D01*
X015890Y009493D01*
X015890Y009822D01*
X015947Y009822D01*
X016002Y009060D01*
X015934Y008120D01*
X015734Y007200D01*
X015490Y006545D01*
X015490Y006752D01*
X015102Y006752D01*
X015102Y006589D01*
X015072Y006589D01*
X015072Y006152D01*
X015036Y006152D01*
X015036Y006589D01*
X015006Y006589D01*
X015006Y006752D01*
X015102Y006752D01*
X015102Y006848D01*
X015006Y006848D01*
X015006Y007295D01*
X014777Y007295D01*
X014851Y007369D02*
X015771Y007369D01*
X015805Y007528D02*
X014852Y007528D01*
X014852Y007686D02*
X015840Y007686D01*
X015874Y007845D02*
X014852Y007845D01*
X014842Y008003D02*
X015909Y008003D01*
X015934Y008120D02*
X015934Y008120D01*
X015937Y008162D02*
X014842Y008162D01*
X014842Y008320D02*
X015949Y008320D01*
X015960Y008479D02*
X014842Y008479D01*
X014842Y008637D02*
X015971Y008637D01*
X015983Y008796D02*
X014892Y008796D01*
X015351Y008954D02*
X015994Y008954D01*
X015998Y009113D02*
X015509Y009113D01*
X015668Y009271D02*
X015987Y009271D01*
X015975Y009430D02*
X015826Y009430D01*
X015890Y009588D02*
X015964Y009588D01*
X015953Y009747D02*
X015890Y009747D01*
X015334Y007295D02*
X015102Y007295D01*
X015102Y006848D01*
X015490Y006848D01*
X015490Y007139D01*
X015478Y007184D01*
X015454Y007225D01*
X015420Y007259D01*
X015379Y007283D01*
X015334Y007295D01*
X015463Y007211D02*
X015736Y007211D01*
X015679Y007052D02*
X015490Y007052D01*
X015490Y006894D02*
X015620Y006894D01*
X015561Y006735D02*
X015490Y006735D01*
X015490Y006577D02*
X015502Y006577D01*
X015072Y006577D02*
X015036Y006577D01*
X015036Y006418D02*
X015072Y006418D01*
X015072Y006260D02*
X015036Y006260D01*
X015036Y006151D02*
X015036Y006115D01*
X014677Y006115D01*
X014677Y005834D01*
X014689Y005788D01*
X014713Y005747D01*
X014747Y005713D01*
X014766Y005703D01*
X014574Y005703D01*
X014663Y005791D01*
X014663Y006360D01*
X014666Y006363D01*
X014677Y006351D01*
X014677Y006151D01*
X015036Y006151D01*
X015036Y006115D02*
X015072Y006115D01*
X015072Y005708D01*
X015025Y005621D01*
X014968Y005677D01*
X015036Y005677D01*
X015036Y006115D01*
X015036Y006101D02*
X015072Y006101D01*
X015072Y005943D02*
X015036Y005943D01*
X015036Y005784D02*
X015072Y005784D01*
X015027Y005626D02*
X015020Y005626D01*
X014692Y005784D02*
X014656Y005784D01*
X014663Y005943D02*
X014677Y005943D01*
X014663Y006101D02*
X014677Y006101D01*
X014663Y006260D02*
X014677Y006260D01*
X015006Y006735D02*
X015102Y006735D01*
X015102Y006894D02*
X015006Y006894D01*
X015006Y007052D02*
X015102Y007052D01*
X015102Y007211D02*
X015006Y007211D01*
X013956Y005784D02*
X013890Y005784D01*
X013997Y005309D02*
X014269Y005309D01*
X005135Y004833D02*
X004937Y004833D01*
X004630Y005150D02*
X004502Y005150D01*
X004563Y005309D02*
X004577Y005309D01*
X004563Y005467D02*
X004577Y005467D01*
X004563Y005626D02*
X004577Y005626D01*
D35*
X004206Y006220D02*
X004206Y006506D01*
X004480Y006780D01*
X005380Y006780D01*
X005580Y006980D01*
X005015Y007280D02*
X004880Y007415D01*
X004880Y007580D01*
X004675Y007785D01*
X004675Y007992D01*
X004478Y007992D02*
X004478Y007413D01*
X004345Y007280D01*
X004872Y007992D02*
X005068Y007992D01*
X005380Y007680D01*
X005645Y007680D01*
X005780Y007545D01*
X005168Y008288D02*
X005168Y008485D01*
X005168Y008682D01*
X005168Y008878D01*
X005168Y009075D01*
X004872Y009568D02*
X004872Y009572D01*
X005280Y009980D01*
X005680Y010180D02*
X005280Y010580D01*
X005280Y010680D01*
X004906Y011054D01*
X004440Y011054D01*
X004220Y011174D01*
X004295Y011199D01*
X004295Y011780D01*
X004295Y011995D01*
X004780Y012480D01*
X004780Y013191D01*
X004906Y013317D01*
X005680Y013080D02*
X005680Y013980D01*
X005680Y013080D02*
X005780Y012980D01*
X006780Y012980D01*
X007180Y012580D01*
X007180Y011780D01*
X007080Y011680D01*
X006730Y011680D01*
X006730Y012074D02*
X006730Y012430D01*
X006680Y012480D01*
X007680Y012180D02*
X007680Y009680D01*
X007380Y009380D01*
X008474Y008827D02*
X008494Y008807D01*
X008494Y008100D01*
X008494Y007966D01*
X008880Y007580D01*
X007466Y006500D02*
X006960Y006500D01*
X006880Y006480D01*
X006294Y006500D02*
X006254Y006260D01*
X006294Y006500D02*
X007466Y006500D01*
X005880Y009180D02*
X005680Y009380D01*
X005680Y010180D01*
X005680Y010680D02*
X006280Y010080D01*
X006280Y009680D01*
X004980Y010380D02*
X004934Y010426D01*
X004220Y010426D01*
X004282Y009568D02*
X004282Y008982D01*
X004180Y008880D01*
X003888Y009088D02*
X003880Y009080D01*
X003597Y009080D01*
X003592Y009075D01*
X003210Y009075D01*
X002980Y008845D01*
X003144Y008682D01*
X003592Y008682D01*
X003592Y008878D02*
X003013Y008878D01*
X002980Y008845D01*
X003888Y009088D02*
X003888Y009568D01*
X004085Y009568D01*
X004478Y009568D02*
X004574Y009473D01*
X004580Y009473D01*
X004880Y011480D02*
X005080Y011680D01*
X005430Y011680D01*
X005430Y012074D02*
X004974Y012074D01*
X004880Y011980D01*
X007380Y013880D02*
X007780Y013880D01*
X007980Y014080D01*
X008366Y014080D01*
X008386Y014060D01*
X008386Y013886D01*
X007980Y013480D01*
X007980Y012480D01*
X007680Y012180D01*
X008680Y011180D02*
X008780Y011280D01*
X008780Y011480D01*
X008947Y011647D01*
X009420Y011647D01*
X009404Y011631D01*
X009131Y011631D01*
X009420Y011647D02*
X009420Y012246D01*
X010180Y012246D02*
X010814Y012246D01*
X010880Y012180D01*
X010880Y011280D02*
X010182Y011280D01*
X010156Y011253D01*
X008880Y010980D02*
X008880Y010180D01*
X008880Y010980D02*
X008680Y011180D01*
X010200Y009609D02*
X010937Y009609D01*
X010960Y009586D01*
X010966Y009580D01*
X011280Y009580D01*
X011480Y009380D01*
X011480Y008880D01*
X011580Y008780D01*
X012180Y008780D01*
X012880Y008080D01*
X013280Y008080D01*
X013352Y008008D01*
X013352Y007631D01*
X013096Y007631D02*
X013096Y007064D01*
X013180Y006980D01*
X012840Y007240D02*
X012780Y007180D01*
X012180Y007180D01*
X012328Y007631D02*
X011831Y007631D01*
X011580Y007380D01*
X011780Y008380D02*
X012280Y008380D01*
X012584Y008076D01*
X012584Y007631D01*
X012840Y007631D02*
X012840Y007240D01*
X013864Y007631D02*
X013864Y008164D01*
X014080Y008380D01*
X014632Y008832D02*
X014880Y009080D01*
X015180Y009080D01*
X015680Y009580D01*
X015680Y009980D01*
X015880Y010180D01*
X015980Y010680D02*
X015674Y010986D01*
X015674Y011420D01*
X015280Y011066D02*
X014926Y011420D01*
X015280Y011066D02*
X015280Y010580D01*
X015180Y010480D01*
X014380Y010480D01*
X014280Y010580D01*
X014180Y010580D01*
X013980Y010780D01*
X013980Y010880D01*
X013880Y010980D01*
X012880Y010980D01*
X012840Y010940D01*
X012840Y009929D01*
X012584Y009929D02*
X012584Y010284D01*
X012680Y010380D01*
X012680Y011380D01*
X012780Y011480D01*
X013126Y011480D01*
X012986Y012180D02*
X012580Y012180D01*
X012480Y012080D01*
X012480Y010480D01*
X012328Y010328D01*
X012328Y009929D01*
X013096Y009929D02*
X013096Y009396D01*
X012580Y008880D01*
X013864Y009929D02*
X013864Y010196D01*
X013680Y010380D01*
X013380Y010380D01*
X013180Y010580D01*
X013680Y010680D02*
X014120Y010240D01*
X014120Y009929D01*
X014376Y009929D02*
X014376Y010176D01*
X014480Y010280D01*
X015080Y010280D01*
X015280Y010080D01*
X015080Y009580D02*
X014731Y009929D01*
X014632Y009929D01*
X014380Y010880D02*
X014380Y011280D01*
X014280Y011380D01*
X013974Y011380D01*
X013874Y011480D01*
X013894Y012180D02*
X013814Y012260D01*
X013894Y012180D02*
X014280Y012180D01*
X013712Y012980D02*
X014012Y013280D01*
X013712Y012980D02*
X012580Y012980D01*
X012206Y013354D01*
X012154Y013180D01*
X011980Y013006D01*
X011980Y012380D01*
X012986Y012180D02*
X013066Y012260D01*
X014632Y008832D02*
X014632Y007631D01*
X014306Y006800D02*
X014306Y006506D01*
X014306Y006133D02*
X014253Y006080D01*
X013680Y006080D01*
X010934Y006554D02*
X010932Y006554D01*
X010926Y006560D01*
M02*
