G75*
%MOIN*%
%OFA0B0*%
%FSLAX24Y24*%
%IPPOS*%
%LPD*%
%AMOC8*
5,1,8,0,0,1.08239X$1,22.5*
%
%ADD10C,0.0060*%
%ADD11C,0.0050*%
%ADD12C,0.0040*%
%ADD13R,0.0128X0.0167*%
%ADD14R,0.0138X0.0138*%
%ADD15R,0.4200X0.2760*%
D10*
X004669Y004215D02*
X005282Y003701D01*
X005423Y003714D01*
X005435Y003573D01*
X006048Y003058D01*
X006189Y003071D01*
X006703Y003684D01*
X006691Y003825D01*
X006078Y004339D01*
X005937Y004326D01*
X005925Y004467D01*
X005312Y004982D01*
X005171Y004969D01*
X004657Y004356D01*
X004669Y004215D01*
X006998Y003585D02*
X006791Y002812D01*
X006861Y002690D01*
X007634Y002483D01*
X007756Y002554D01*
X007827Y002431D01*
X008600Y002224D01*
X008722Y002295D01*
X008929Y003068D01*
X008859Y003190D01*
X008086Y003397D01*
X007964Y003326D01*
X007893Y003449D01*
X007120Y003656D01*
X006998Y003585D01*
X009160Y002680D02*
X009160Y002480D01*
X009310Y002480D01*
X009310Y002680D02*
X009160Y002680D01*
X010210Y002680D02*
X010360Y002680D01*
X010360Y002480D01*
X010210Y002480D01*
X012589Y004008D02*
X013125Y003414D01*
X013266Y003406D01*
X013860Y003942D01*
X013868Y004083D01*
X014009Y004075D01*
X014603Y004611D01*
X014611Y004752D01*
X014075Y005346D01*
X013934Y005354D01*
X013340Y004818D01*
X013332Y004677D01*
X013191Y004685D01*
X012597Y004149D01*
X012589Y004008D01*
X014440Y012200D02*
X014590Y012200D01*
X014440Y012200D02*
X014440Y012400D01*
X014590Y012400D01*
X014320Y012813D02*
X013979Y012722D01*
X013546Y012972D01*
X013454Y013313D01*
X013113Y013222D01*
X012680Y013472D01*
X012588Y013813D01*
X012247Y013722D01*
X011813Y013972D01*
X011722Y014313D01*
X011380Y014222D01*
X010947Y014472D01*
X010856Y014813D01*
X010514Y014722D01*
X010081Y014972D01*
X009990Y015313D01*
X010240Y015747D01*
X010581Y015838D01*
X011014Y015588D01*
X011106Y015247D01*
X011447Y015338D01*
X011880Y015088D01*
X011972Y014747D01*
X012313Y014838D01*
X012747Y014588D01*
X012838Y014247D01*
X013180Y014338D01*
X013613Y014088D01*
X013704Y013747D01*
X014046Y013838D01*
X014479Y013588D01*
X014570Y013247D01*
X014320Y012813D01*
X015490Y012400D02*
X015640Y012400D01*
X015640Y012200D01*
X015490Y012200D01*
X004640Y012620D02*
X004490Y012620D01*
X004640Y012620D02*
X004640Y012820D01*
X004490Y012820D01*
X003590Y012820D02*
X003440Y012820D01*
X003440Y012620D01*
X003590Y012620D01*
D11*
X003465Y013245D02*
X003765Y013245D01*
X003925Y013320D02*
X004000Y013245D01*
X004151Y013245D01*
X004226Y013320D01*
X004226Y013395D01*
X004151Y013470D01*
X004000Y013470D01*
X003925Y013545D01*
X003925Y013620D01*
X004000Y013695D01*
X004151Y013695D01*
X004226Y013620D01*
X004386Y013695D02*
X004611Y013695D01*
X004686Y013620D01*
X004686Y013470D01*
X004611Y013395D01*
X004386Y013395D01*
X004386Y013245D02*
X004386Y013695D01*
X004846Y013620D02*
X004921Y013695D01*
X005071Y013695D01*
X005146Y013620D01*
X005146Y013545D01*
X004846Y013245D01*
X005146Y013245D01*
X003465Y013245D02*
X003465Y013695D01*
X004104Y008980D02*
X004106Y009125D01*
X004112Y009269D01*
X004122Y009414D01*
X004136Y009558D01*
X004154Y009702D01*
X004175Y009845D01*
X004201Y009987D01*
X004231Y010129D01*
X004264Y010270D01*
X004301Y010410D01*
X004342Y010548D01*
X004387Y010686D01*
X004436Y010822D01*
X004488Y010957D01*
X004545Y011091D01*
X004604Y011222D01*
X004668Y011353D01*
X004734Y011481D01*
X004805Y011608D01*
X004879Y011732D01*
X004956Y011855D01*
X005036Y011975D01*
X005120Y012093D01*
X005207Y012209D01*
X005297Y012322D01*
X005391Y012433D01*
X005487Y012541D01*
X005586Y012646D01*
X005688Y012749D01*
X005793Y012849D01*
X005900Y012946D01*
X006010Y013040D01*
X006123Y013131D01*
X006238Y013218D01*
X006355Y013303D01*
X006475Y013384D01*
X006597Y013462D01*
X006721Y013537D01*
X006847Y013608D01*
X006975Y013676D01*
X007105Y013740D01*
X007236Y013801D01*
X007369Y013858D01*
X007504Y013911D01*
X007640Y013961D01*
X007777Y014007D01*
X007916Y014049D01*
X008055Y014087D01*
X008196Y014121D01*
X008337Y014152D01*
X008480Y014179D01*
X008623Y014201D01*
X008766Y014220D01*
X008910Y014235D01*
X009054Y014246D01*
X009199Y014253D01*
X009344Y014256D01*
X009489Y014255D01*
X009633Y014250D01*
X009778Y014241D01*
X009922Y014228D01*
X010066Y014211D01*
X010209Y014190D01*
X010352Y014166D01*
X010493Y014137D01*
X010635Y014105D01*
X010775Y014068D01*
X010914Y014028D01*
X011052Y013984D01*
X011188Y013936D01*
X011324Y013885D01*
X011457Y013830D01*
X011590Y013771D01*
X011720Y013709D01*
X011849Y013643D01*
X011976Y013573D01*
X012101Y013500D01*
X012224Y013424D01*
X012345Y013344D01*
X012464Y013261D01*
X012580Y013175D01*
X012694Y013086D01*
X012805Y012993D01*
X012914Y012898D01*
X013020Y012799D01*
X013123Y012698D01*
X013224Y012594D01*
X013322Y012487D01*
X013416Y012378D01*
X013508Y012265D01*
X013597Y012151D01*
X013682Y012034D01*
X013764Y011915D01*
X013843Y011794D01*
X013919Y011670D01*
X013991Y011545D01*
X014059Y011417D01*
X014125Y011288D01*
X014186Y011157D01*
X014244Y011024D01*
X014298Y010890D01*
X014349Y010754D01*
X014396Y010617D01*
X014439Y010479D01*
X014478Y010340D01*
X014513Y010199D01*
X014545Y010058D01*
X014572Y009916D01*
X014596Y009773D01*
X014616Y009630D01*
X014632Y009486D01*
X014644Y009342D01*
X014652Y009197D01*
X014656Y009052D01*
X014656Y008908D01*
X014652Y008763D01*
X014644Y008618D01*
X014632Y008474D01*
X014616Y008330D01*
X014596Y008187D01*
X014572Y008044D01*
X014545Y007902D01*
X014513Y007761D01*
X014478Y007620D01*
X014439Y007481D01*
X014396Y007343D01*
X014349Y007206D01*
X014298Y007070D01*
X014244Y006936D01*
X014186Y006803D01*
X014125Y006672D01*
X014059Y006543D01*
X013991Y006415D01*
X013919Y006290D01*
X013843Y006166D01*
X013764Y006045D01*
X013682Y005926D01*
X013597Y005809D01*
X013508Y005695D01*
X013416Y005582D01*
X013322Y005473D01*
X013224Y005366D01*
X013123Y005262D01*
X013020Y005161D01*
X012914Y005062D01*
X012805Y004967D01*
X012694Y004874D01*
X012580Y004785D01*
X012464Y004699D01*
X012345Y004616D01*
X012224Y004536D01*
X012101Y004460D01*
X011976Y004387D01*
X011849Y004317D01*
X011720Y004251D01*
X011590Y004189D01*
X011457Y004130D01*
X011324Y004075D01*
X011188Y004024D01*
X011052Y003976D01*
X010914Y003932D01*
X010775Y003892D01*
X010635Y003855D01*
X010493Y003823D01*
X010352Y003794D01*
X010209Y003770D01*
X010066Y003749D01*
X009922Y003732D01*
X009778Y003719D01*
X009633Y003710D01*
X009489Y003705D01*
X009344Y003704D01*
X009199Y003707D01*
X009054Y003714D01*
X008910Y003725D01*
X008766Y003740D01*
X008623Y003759D01*
X008480Y003781D01*
X008337Y003808D01*
X008196Y003839D01*
X008055Y003873D01*
X007916Y003911D01*
X007777Y003953D01*
X007640Y003999D01*
X007504Y004049D01*
X007369Y004102D01*
X007236Y004159D01*
X007105Y004220D01*
X006975Y004284D01*
X006847Y004352D01*
X006721Y004423D01*
X006597Y004498D01*
X006475Y004576D01*
X006355Y004657D01*
X006238Y004742D01*
X006123Y004829D01*
X006010Y004920D01*
X005900Y005014D01*
X005793Y005111D01*
X005688Y005211D01*
X005586Y005314D01*
X005487Y005419D01*
X005391Y005527D01*
X005297Y005638D01*
X005207Y005751D01*
X005120Y005867D01*
X005036Y005985D01*
X004956Y006105D01*
X004879Y006228D01*
X004805Y006352D01*
X004734Y006479D01*
X004668Y006607D01*
X004604Y006738D01*
X004545Y006869D01*
X004488Y007003D01*
X004436Y007138D01*
X004387Y007274D01*
X004342Y007412D01*
X004301Y007550D01*
X004264Y007690D01*
X004231Y007831D01*
X004201Y007973D01*
X004175Y008115D01*
X004154Y008258D01*
X004136Y008402D01*
X004122Y008546D01*
X004112Y008691D01*
X004106Y008835D01*
X004104Y008980D01*
X005089Y003636D02*
X005204Y003539D01*
X005146Y003587D02*
X004905Y003300D01*
X004799Y003291D01*
X004742Y003339D01*
X004732Y003445D01*
X005133Y003206D02*
X005306Y003061D01*
X005411Y003071D01*
X005508Y003186D01*
X005499Y003291D01*
X005326Y003436D01*
X005037Y003091D01*
X005118Y002976D02*
X005335Y002918D01*
X005388Y002826D01*
X005350Y002681D01*
X005258Y002628D01*
X005040Y002686D01*
X005001Y002541D02*
X005118Y002976D01*
X005389Y002795D02*
X005619Y002602D01*
X005504Y002699D02*
X005794Y003044D01*
X005582Y003025D01*
X005635Y002838D02*
X005543Y002785D01*
X005465Y002495D01*
X005518Y002403D01*
X005663Y002364D01*
X005755Y002417D01*
X005833Y002707D01*
X005780Y002799D01*
X005635Y002838D01*
X006007Y002738D02*
X005891Y002303D01*
X006075Y002409D01*
X006181Y002225D01*
X006297Y002660D01*
X006452Y002619D02*
X006335Y002184D01*
X006625Y002106D01*
X006780Y002065D02*
X006897Y002500D01*
X007114Y002441D01*
X007167Y002349D01*
X007128Y002204D01*
X007036Y002151D01*
X006819Y002210D01*
X006964Y002171D02*
X007070Y001987D01*
X007205Y001873D02*
X007495Y001795D01*
X007689Y001899D02*
X007742Y001807D01*
X007887Y001768D01*
X007979Y001821D01*
X008057Y002111D01*
X008004Y002203D01*
X007859Y002242D01*
X007767Y002189D01*
X007689Y001899D01*
X008114Y001707D02*
X008231Y002142D01*
X008404Y001629D01*
X008521Y002065D01*
X009185Y003105D02*
X009485Y003105D01*
X009645Y003180D02*
X009720Y003105D01*
X009871Y003105D01*
X009946Y003180D01*
X009946Y003255D01*
X009871Y003330D01*
X009720Y003330D01*
X009645Y003405D01*
X009645Y003480D01*
X009720Y003555D01*
X009871Y003555D01*
X009946Y003480D01*
X010106Y003555D02*
X010331Y003555D01*
X010406Y003480D01*
X010406Y003330D01*
X010331Y003255D01*
X010106Y003255D01*
X010106Y003105D02*
X010106Y003555D01*
X010566Y003405D02*
X010716Y003555D01*
X010716Y003105D01*
X010566Y003105D02*
X010866Y003105D01*
X012374Y004285D02*
X012480Y004279D01*
X012535Y004330D01*
X012541Y004436D01*
X012290Y004715D01*
X012234Y004664D02*
X012346Y004765D01*
X012465Y004872D02*
X012632Y005023D01*
X012738Y005017D01*
X012838Y004906D01*
X012833Y004800D01*
X012665Y004649D01*
X012766Y004537D02*
X012465Y004872D01*
X012857Y005124D02*
X012862Y005230D01*
X012974Y005331D01*
X013080Y005325D01*
X013130Y005269D01*
X013108Y004845D01*
X013331Y005046D01*
X009185Y003555D02*
X009185Y003105D01*
X006742Y002541D02*
X006452Y002619D01*
X006394Y002401D02*
X006539Y002362D01*
X014465Y012825D02*
X014765Y012825D01*
X014925Y012900D02*
X015000Y012825D01*
X015151Y012825D01*
X015226Y012900D01*
X015226Y012975D01*
X015151Y013050D01*
X015000Y013050D01*
X014925Y013125D01*
X014925Y013200D01*
X015000Y013275D01*
X015151Y013275D01*
X015226Y013200D01*
X015386Y013275D02*
X015611Y013275D01*
X015686Y013200D01*
X015686Y013050D01*
X015611Y012975D01*
X015386Y012975D01*
X015386Y012825D02*
X015386Y013275D01*
X015846Y013200D02*
X015921Y013275D01*
X016071Y013275D01*
X016146Y013200D01*
X016146Y013125D01*
X016071Y013050D01*
X016146Y012975D01*
X016146Y012900D01*
X016071Y012825D01*
X015921Y012825D01*
X015846Y012900D01*
X015996Y013050D02*
X016071Y013050D01*
X014527Y014022D02*
X014452Y013892D01*
X014350Y013864D01*
X014220Y013940D01*
X014192Y014042D01*
X014267Y014172D02*
X014435Y014162D01*
X014500Y014124D01*
X014527Y014022D01*
X014640Y014217D02*
X014380Y014367D01*
X014267Y014172D01*
X014465Y013275D02*
X014465Y012825D01*
X011532Y015492D02*
X011272Y015642D01*
X011682Y015752D01*
X011719Y015817D01*
X011692Y015919D01*
X011562Y015994D01*
X011459Y015967D01*
X011358Y016112D02*
X011208Y015852D01*
X011003Y015797D01*
X010948Y016002D01*
X011098Y016262D01*
X010922Y016277D02*
X010894Y016380D01*
X010764Y016455D01*
X010662Y016427D01*
X010624Y016362D01*
X010652Y016260D01*
X010782Y016184D01*
X010809Y016082D01*
X010772Y016017D01*
X010669Y015989D01*
X010539Y016065D01*
X010512Y016167D01*
X010146Y014733D02*
X009921Y014343D01*
X009791Y014418D02*
X010051Y014268D01*
X009941Y014678D02*
X010146Y014733D01*
D12*
X009121Y014476D02*
X008891Y014875D01*
X008807Y014560D01*
X009072Y014714D01*
X008597Y014617D02*
X008750Y014351D01*
X008722Y014246D01*
X008523Y014131D01*
X008293Y014530D01*
X008492Y014645D01*
X008597Y014617D01*
X008160Y014453D02*
X007894Y014299D01*
X008124Y013901D01*
X008390Y014054D01*
X008142Y014177D02*
X008009Y014100D01*
X007991Y013824D02*
X007725Y013671D01*
X007495Y014069D01*
X016063Y010683D02*
X016677Y010683D01*
X016600Y010759D02*
X016523Y010836D01*
X016447Y010836D01*
X016370Y010759D01*
X016370Y010606D01*
X016293Y010529D01*
X016216Y010529D01*
X016140Y010606D01*
X016140Y010759D01*
X016216Y010836D01*
X016216Y010990D02*
X016140Y011066D01*
X016140Y011220D01*
X016216Y011297D01*
X016293Y011297D01*
X016600Y010990D01*
X016600Y011297D01*
X016600Y010759D02*
X016600Y010606D01*
X016523Y010529D01*
X016523Y010376D02*
X016140Y010376D01*
X016140Y010069D02*
X016523Y010069D01*
X016600Y010146D01*
X016600Y010299D01*
X016523Y010376D01*
D13*
G36*
X008363Y014931D02*
X008427Y014822D01*
X008285Y014739D01*
X008221Y014848D01*
X008363Y014931D01*
G37*
G36*
X008092Y015400D02*
X008156Y015291D01*
X008014Y015208D01*
X007950Y015317D01*
X008092Y015400D01*
G37*
D14*
G36*
X008345Y015240D02*
X008414Y015121D01*
X008295Y015052D01*
X008226Y015171D01*
X008345Y015240D01*
G37*
D15*
X005120Y009040D03*
X013760Y009040D03*
M02*
