G75*
%MOIN*%
%OFA0B0*%
%FSLAX24Y24*%
%IPPOS*%
%LPD*%
%AMOC8*
5,1,8,0,0,1.08239X$1,22.5*
%
%ADD10C,0.0010*%
D10*
X002313Y009060D02*
X002315Y009234D01*
X002322Y009408D01*
X002332Y009581D01*
X002347Y009755D01*
X002366Y009928D01*
X002390Y010100D01*
X002417Y010272D01*
X002449Y010443D01*
X002485Y010613D01*
X002525Y010782D01*
X002570Y010950D01*
X002618Y011117D01*
X002671Y011283D01*
X002727Y011448D01*
X002788Y011611D01*
X002852Y011772D01*
X002921Y011932D01*
X002993Y012090D01*
X003070Y012246D01*
X003150Y012401D01*
X003234Y012553D01*
X003321Y012703D01*
X003413Y012852D01*
X003507Y012997D01*
X003606Y013141D01*
X003708Y013282D01*
X003813Y013420D01*
X003922Y013556D01*
X004034Y013689D01*
X004149Y013819D01*
X004267Y013947D01*
X004389Y014071D01*
X004513Y014193D01*
X004641Y014311D01*
X004771Y014426D01*
X004904Y014538D01*
X005040Y014647D01*
X005178Y014752D01*
X005319Y014854D01*
X005463Y014953D01*
X005608Y015047D01*
X005757Y015139D01*
X005907Y015226D01*
X006059Y015310D01*
X006214Y015390D01*
X006370Y015467D01*
X006528Y015539D01*
X006688Y015608D01*
X006849Y015672D01*
X007012Y015733D01*
X007177Y015789D01*
X007343Y015842D01*
X007510Y015890D01*
X007678Y015935D01*
X007847Y015975D01*
X008017Y016011D01*
X008188Y016043D01*
X008360Y016070D01*
X008532Y016094D01*
X008705Y016113D01*
X008879Y016128D01*
X009052Y016138D01*
X009226Y016145D01*
X009400Y016147D01*
X009574Y016145D01*
X009748Y016138D01*
X009921Y016128D01*
X010095Y016113D01*
X010268Y016094D01*
X010440Y016070D01*
X010612Y016043D01*
X010783Y016011D01*
X010953Y015975D01*
X011122Y015935D01*
X011290Y015890D01*
X011457Y015842D01*
X011623Y015789D01*
X011788Y015733D01*
X011951Y015672D01*
X012112Y015608D01*
X012272Y015539D01*
X012430Y015467D01*
X012586Y015390D01*
X012741Y015310D01*
X012893Y015226D01*
X013043Y015139D01*
X013192Y015047D01*
X013337Y014953D01*
X013481Y014854D01*
X013622Y014752D01*
X013760Y014647D01*
X013896Y014538D01*
X014029Y014426D01*
X014159Y014311D01*
X014287Y014193D01*
X014411Y014071D01*
X014533Y013947D01*
X014651Y013819D01*
X014766Y013689D01*
X014878Y013556D01*
X014987Y013420D01*
X015092Y013282D01*
X015194Y013141D01*
X015293Y012997D01*
X015387Y012852D01*
X015479Y012703D01*
X015566Y012553D01*
X015650Y012401D01*
X015730Y012246D01*
X015807Y012090D01*
X015879Y011932D01*
X015948Y011772D01*
X016012Y011611D01*
X016073Y011448D01*
X016129Y011283D01*
X016182Y011117D01*
X016230Y010950D01*
X016275Y010782D01*
X016315Y010613D01*
X016351Y010443D01*
X016383Y010272D01*
X016410Y010100D01*
X016434Y009928D01*
X016453Y009755D01*
X016468Y009581D01*
X016478Y009408D01*
X016485Y009234D01*
X016487Y009060D01*
X016485Y008886D01*
X016478Y008712D01*
X016468Y008539D01*
X016453Y008365D01*
X016434Y008192D01*
X016410Y008020D01*
X016383Y007848D01*
X016351Y007677D01*
X016315Y007507D01*
X016275Y007338D01*
X016230Y007170D01*
X016182Y007003D01*
X016129Y006837D01*
X016073Y006672D01*
X016012Y006509D01*
X015948Y006348D01*
X015879Y006188D01*
X015807Y006030D01*
X015730Y005874D01*
X015650Y005719D01*
X015566Y005567D01*
X015479Y005417D01*
X015387Y005268D01*
X015293Y005123D01*
X015194Y004979D01*
X015092Y004838D01*
X014987Y004700D01*
X014878Y004564D01*
X014766Y004431D01*
X014651Y004301D01*
X014533Y004173D01*
X014411Y004049D01*
X014287Y003927D01*
X014159Y003809D01*
X014029Y003694D01*
X013896Y003582D01*
X013760Y003473D01*
X013622Y003368D01*
X013481Y003266D01*
X013337Y003167D01*
X013192Y003073D01*
X013043Y002981D01*
X012893Y002894D01*
X012741Y002810D01*
X012586Y002730D01*
X012430Y002653D01*
X012272Y002581D01*
X012112Y002512D01*
X011951Y002448D01*
X011788Y002387D01*
X011623Y002331D01*
X011457Y002278D01*
X011290Y002230D01*
X011122Y002185D01*
X010953Y002145D01*
X010783Y002109D01*
X010612Y002077D01*
X010440Y002050D01*
X010268Y002026D01*
X010095Y002007D01*
X009921Y001992D01*
X009748Y001982D01*
X009574Y001975D01*
X009400Y001973D01*
X009226Y001975D01*
X009052Y001982D01*
X008879Y001992D01*
X008705Y002007D01*
X008532Y002026D01*
X008360Y002050D01*
X008188Y002077D01*
X008017Y002109D01*
X007847Y002145D01*
X007678Y002185D01*
X007510Y002230D01*
X007343Y002278D01*
X007177Y002331D01*
X007012Y002387D01*
X006849Y002448D01*
X006688Y002512D01*
X006528Y002581D01*
X006370Y002653D01*
X006214Y002730D01*
X006059Y002810D01*
X005907Y002894D01*
X005757Y002981D01*
X005608Y003073D01*
X005463Y003167D01*
X005319Y003266D01*
X005178Y003368D01*
X005040Y003473D01*
X004904Y003582D01*
X004771Y003694D01*
X004641Y003809D01*
X004513Y003927D01*
X004389Y004049D01*
X004267Y004173D01*
X004149Y004301D01*
X004034Y004431D01*
X003922Y004564D01*
X003813Y004700D01*
X003708Y004838D01*
X003606Y004979D01*
X003507Y005123D01*
X003413Y005268D01*
X003321Y005417D01*
X003234Y005567D01*
X003150Y005719D01*
X003070Y005874D01*
X002993Y006030D01*
X002921Y006188D01*
X002852Y006348D01*
X002788Y006509D01*
X002727Y006672D01*
X002671Y006837D01*
X002618Y007003D01*
X002570Y007170D01*
X002525Y007338D01*
X002485Y007507D01*
X002449Y007677D01*
X002417Y007848D01*
X002390Y008020D01*
X002366Y008192D01*
X002347Y008365D01*
X002332Y008539D01*
X002322Y008712D01*
X002315Y008886D01*
X002313Y009060D01*
M02*
