G75*
%MOIN*%
%OFA0B0*%
%FSLAX24Y24*%
%IPPOS*%
%LPD*%
%AMOC8*
5,1,8,0,0,1.08239X$1,22.5*
%
%ADD10C,0.0640*%
%ADD11OC8,0.0930*%
%ADD12R,0.0671X0.0671*%
%ADD13R,0.0512X0.0295*%
%ADD14R,0.0840X0.1580*%
%ADD15C,0.0680*%
%ADD16C,0.0476*%
D10*
X005117Y004127D02*
X005477Y004556D01*
X006243Y003913D02*
X005883Y003484D01*
X007450Y003340D02*
X007305Y002799D01*
X008270Y002540D02*
X008415Y003081D01*
X013041Y004254D02*
X013416Y003837D01*
X014159Y004506D02*
X013784Y004923D01*
D11*
X009760Y002580D03*
X015040Y012300D03*
X004040Y012720D03*
D12*
G36*
X007905Y015293D02*
X008240Y014714D01*
X007661Y014379D01*
X007326Y014958D01*
X007905Y015293D01*
G37*
G36*
X009099Y015981D02*
X009434Y015402D01*
X008855Y015067D01*
X008520Y015646D01*
X009099Y015981D01*
G37*
D13*
X014806Y011487D03*
X014806Y010943D03*
X015554Y010943D03*
X015554Y011487D03*
D14*
X015880Y008980D03*
X002880Y008980D03*
D15*
X010398Y015020D02*
X010698Y015540D01*
X011564Y015040D02*
X011264Y014520D01*
X012130Y014020D02*
X012430Y014540D01*
X013296Y014040D02*
X012996Y013520D01*
X013862Y013020D02*
X014162Y013540D01*
D16*
X014280Y012180D03*
X014380Y010880D03*
X013680Y010680D03*
X013180Y010580D03*
X011880Y009180D03*
X012580Y008880D03*
X013080Y008680D03*
X014080Y008380D03*
X015080Y009580D03*
X015280Y010080D03*
X015880Y010180D03*
X015980Y010680D03*
X015380Y007580D03*
X013680Y006580D03*
X013680Y006080D03*
X013180Y006980D03*
X012180Y007180D03*
X011580Y007380D03*
X011780Y008380D03*
X011180Y010880D03*
X010880Y011280D03*
X010880Y012180D03*
X011580Y012680D03*
X011980Y012380D03*
X010980Y013780D03*
X009480Y013580D03*
X007580Y013280D03*
X007380Y013880D03*
X006680Y012480D03*
X005680Y013980D03*
X004880Y011980D03*
X004880Y011480D03*
X005680Y010680D03*
X004980Y010380D03*
X005280Y009980D03*
X005880Y009180D03*
X006280Y009680D03*
X006880Y010180D03*
X007380Y009380D03*
X008880Y010180D03*
X008680Y011180D03*
X008880Y007580D03*
X007880Y007380D03*
X006980Y007480D03*
X006880Y006480D03*
X005580Y006980D03*
X006080Y004880D03*
X008280Y006080D03*
X009080Y005780D03*
X010380Y005880D03*
X010280Y004180D03*
X004180Y008880D03*
X003480Y007580D03*
X003380Y010780D03*
M02*
