G75*
%MOIN*%
%OFA0B0*%
%FSLAX24Y24*%
%IPPOS*%
%LPD*%
%AMOC8*
5,1,8,0,0,1.08239X$1,22.5*
%
%ADD10R,0.0671X0.0592*%
%ADD11R,0.0592X0.0710*%
%ADD12R,0.0710X0.0592*%
%ADD13R,0.0474X0.0631*%
%ADD14C,0.0640*%
%ADD15R,0.0592X0.0671*%
%ADD16OC8,0.0930*%
%ADD17R,0.1261X0.0710*%
%ADD18R,0.0867X0.0710*%
%ADD19R,0.0671X0.0671*%
%ADD20R,0.0552X0.0297*%
%ADD21C,0.0680*%
%ADD22R,0.0200X0.0470*%
%ADD23R,0.0300X0.0580*%
%ADD24R,0.0631X0.1182*%
%ADD25R,0.0616X0.0363*%
%ADD26R,0.0456X0.0194*%
%ADD27R,0.0194X0.0456*%
%ADD28R,0.1025X0.0789*%
%ADD29R,0.0552X0.0237*%
%ADD30C,0.0476*%
D10*
X005780Y007545D03*
X005780Y008215D03*
X002980Y008845D03*
X002980Y009515D03*
X008860Y005055D03*
X008860Y004385D03*
X010780Y004585D03*
X010780Y004015D03*
X010780Y003345D03*
X010780Y005255D03*
X011580Y011165D03*
X011580Y011835D03*
X010020Y013625D03*
X010020Y014295D03*
D11*
X009134Y014060D03*
X008386Y014060D03*
X011406Y013180D03*
X012154Y013180D03*
X013066Y012260D03*
X013814Y012260D03*
X013874Y011480D03*
X013126Y011480D03*
X014926Y011420D03*
X015674Y011420D03*
X015054Y006800D03*
X014306Y006800D03*
X008494Y008100D03*
X007746Y008100D03*
X007466Y006500D03*
X008214Y006500D03*
X006254Y006260D03*
X005506Y006260D03*
X004954Y006220D03*
X004206Y006220D03*
D12*
X004220Y010426D03*
X004220Y011174D03*
X008580Y012406D03*
X008580Y013154D03*
X009420Y012994D03*
X009420Y012246D03*
X010180Y012246D03*
X010180Y012994D03*
X010960Y010334D03*
X010960Y009586D03*
X011000Y008734D03*
X011000Y007986D03*
D13*
X004580Y004687D03*
X004206Y005553D03*
X004954Y005553D03*
X007726Y008827D03*
X008474Y008827D03*
X008100Y009693D03*
X014306Y006133D03*
X015054Y006133D03*
X014680Y005267D03*
D14*
X014159Y004506D02*
X013784Y004923D01*
X013041Y004254D02*
X013416Y003837D01*
X008415Y003081D02*
X008270Y002540D01*
X007305Y002799D02*
X007450Y003340D01*
X006243Y003913D02*
X005883Y003484D01*
X005117Y004127D02*
X005477Y004556D01*
D15*
X007105Y005300D03*
X007775Y005300D03*
X005015Y007280D03*
X004345Y007280D03*
X004295Y011780D03*
X003625Y011780D03*
D16*
X004040Y012720D03*
X009760Y002580D03*
X015040Y012300D03*
D17*
X010926Y006560D03*
X009194Y006560D03*
D18*
G36*
X004347Y013311D02*
X005009Y013867D01*
X005465Y013323D01*
X004803Y012767D01*
X004347Y013311D01*
G37*
G36*
X005975Y014677D02*
X006637Y015233D01*
X007093Y014689D01*
X006431Y014133D01*
X005975Y014677D01*
G37*
D19*
X008280Y011769D03*
X008280Y010391D03*
X009300Y009609D03*
X010200Y009609D03*
X010200Y008231D03*
X009300Y008231D03*
D20*
X008192Y004754D03*
X008192Y004380D03*
X008192Y004006D03*
X007168Y004006D03*
X007168Y004754D03*
D21*
X013862Y013020D02*
X014162Y013540D01*
X013296Y014040D02*
X012996Y013520D01*
X012130Y014020D02*
X012430Y014540D01*
X011564Y015040D02*
X011264Y014520D01*
X010398Y015020D02*
X010698Y015540D01*
D22*
X012328Y009929D03*
X012584Y009929D03*
X012840Y009929D03*
X013096Y009929D03*
X013352Y009929D03*
X013608Y009929D03*
X013864Y009929D03*
X014120Y009929D03*
X014376Y009929D03*
X014632Y009929D03*
X014632Y007631D03*
X014376Y007631D03*
X014120Y007631D03*
X013864Y007631D03*
X013608Y007631D03*
X013352Y007631D03*
X013096Y007631D03*
X012840Y007631D03*
X012584Y007631D03*
X012328Y007631D03*
D23*
X012160Y005160D03*
X011400Y005160D03*
X011400Y004200D03*
X011780Y004200D03*
X012160Y004200D03*
D24*
X011908Y006080D03*
X012852Y006080D03*
D25*
X010156Y010489D03*
X010156Y010871D03*
X010156Y011253D03*
X010156Y011635D03*
X009404Y011631D03*
X009404Y011249D03*
X009404Y010867D03*
X009404Y010486D03*
D26*
X005168Y009272D03*
X005168Y009075D03*
X005168Y008878D03*
X005168Y008682D03*
X005168Y008485D03*
X005168Y008288D03*
X003592Y008288D03*
X003592Y008485D03*
X003592Y008682D03*
X003592Y008878D03*
X003592Y009075D03*
X003592Y009272D03*
D27*
X003888Y009568D03*
X004085Y009568D03*
X004282Y009568D03*
X004478Y009568D03*
X004675Y009568D03*
X004872Y009568D03*
X004872Y007992D03*
X004675Y007992D03*
X004478Y007992D03*
X004282Y007992D03*
X004085Y007992D03*
X003888Y007992D03*
D28*
X009780Y005077D03*
X009780Y003483D03*
D29*
X006730Y011286D03*
X006730Y011680D03*
X006730Y012074D03*
X005430Y012074D03*
X005430Y011680D03*
X005430Y011286D03*
D30*
X005680Y010680D03*
X004980Y010380D03*
X005280Y009980D03*
X005880Y009180D03*
X006280Y009680D03*
X006880Y010180D03*
X007380Y009380D03*
X008880Y010180D03*
X008680Y011180D03*
X007580Y013280D03*
X007380Y013880D03*
X006680Y012480D03*
X005680Y013980D03*
X004880Y011980D03*
X004880Y011480D03*
X003380Y010780D03*
X004180Y008880D03*
X003480Y007580D03*
X005580Y006980D03*
X006880Y006480D03*
X006980Y007480D03*
X007880Y007380D03*
X008880Y007580D03*
X008280Y006080D03*
X009080Y005780D03*
X010380Y005880D03*
X010280Y004180D03*
X012180Y007180D03*
X011580Y007380D03*
X011780Y008380D03*
X011880Y009180D03*
X012580Y008880D03*
X013080Y008680D03*
X014080Y008380D03*
X015080Y009580D03*
X015280Y010080D03*
X015880Y010180D03*
X015980Y010680D03*
X014380Y010880D03*
X013680Y010680D03*
X013180Y010580D03*
X014280Y012180D03*
X011980Y012380D03*
X011580Y012680D03*
X010880Y012180D03*
X010880Y011280D03*
X011180Y010880D03*
X009480Y013580D03*
X010980Y013780D03*
X015380Y007580D03*
X013680Y006580D03*
X013680Y006080D03*
X013180Y006980D03*
X006080Y004880D03*
M02*
